<?xml version="1.0" encoding="utf-8"?>
<!-- Generator: Adobe Illustrator 21.1.0, SVG Export Plug-In . SVG Version: 6.00 Build 0)  -->
<svg version="1.1" id="Layer_1" xmlns="http://www.w3.org/2000/svg" xmlns:xlink="http://www.w3.org/1999/xlink" x="0px" y="0px"
	 viewBox="0 0 367.2 783.3" style="enable-background:new 0 0 367.2 783.3;" xml:space="preserve">
<style type="text/css">
	.st0{fill:#2E312F;}
	.st1{fill:#EDE2DE;}
	.st2{fill:#D3C6C0;}
	.st3{fill:#C5CFC5;}
	.st4{fill:#EFECEA;}
	.st5{fill:#ADB8AB;}
	.st6{fill:#7A95B4;}
	.st7{fill:#444545;}
	.st8{fill:#6E716E;}
	.st9{fill:#151619;}
</style>
<title>Asset 3</title>
<path class="st0" d="M352,720.6c-10,22.7-26.8,43.1-49.4,53.3c-20.6,9.3-44,9.4-66.6,9.4l-112.2-0.2c-23.3,0-47.9-0.4-68-12.2
	c-32.2-18.8-48.5-62.7-51.6-97.8c-4.1-46-4.3-92.3-4.2-138.6C0.4,365.1,4.5,195.6,12.3,26.3c0.2-3.4,0.4-7,2.6-9.6
	c2.4-2.8,6.3-3.6,9.9-4.2c4.7-0.7,9.3-1.4,14-2.1l290.8-0.1c7.7,1.1,15.3,2.3,23,3.6c2.3,0.4,4.8,0.9,6.1,2.8c0.8,1.5,1.1,3.2,1,4.8
	c2.4,189.2,4.8,378.3,7.2,567.5l0.2,15.7C367.5,644,367.7,684.7,352,720.6z"/>
<path class="st1" d="M338.6,295.3c-13.1,0.1-25.8,8.4-38.5,5.3c-4.1-1-7.9-3.2-11.9-4.8c-13.7-5.3-29.2-3.5-41.4,4.8
	c-3.9,2.7-7.4,6.1-11.9,7.9c-3.4,1.3-7.1,1.6-10.8,1.8c-2,0.1-4,0.2-5.9,0.3c-39.7,1.9-79.4,0.5-118.8-4.2
	c-19.7-2.3-39.3-5.5-58.7-9.5c-3.4-0.7-9.5-0.7-11.3-3.8c-1.6-2.8-0.3-10.3-0.4-13.6c-0.2-10.1-0.4-20.3-0.5-30.4
	c-0.3-40.5,0.4-81,2.3-121.5c0.4-9.2,4.9-100.2,7.9-117.2l0,0c96.5-13.8,194.3-13.9,290.7,0h0.1c7.7,46.7,8,94.2,8.3,141.5
	c0.2,36.7,0.4,73.4,0.6,110.1C338.5,273.1,338.6,284.2,338.6,295.3z"/>
<path class="st2" d="M313.9,265.5c0,1.5-0.2,3-0.5,4.5c-0.1,0.4-0.3,0.8-0.5,1.2c-1.7,3.6-6,5.1-9.9,5.9c-6.6,1.4-13.4,2-20.2,1.7
	c-6.4-0.3-12.9-2.8-13.9-10c-0.3-1.7,0.2-3.5,1.4-4.7c0.9-0.7,1.9-1.2,3-1.4c11.3-3.2,23.2-4.2,34.9-2.8c2,0.2,4.3,0.8,5.2,2.6
	C313.8,263.4,314,264.5,313.9,265.5z"/>
<path class="st2" d="M255.6,278c-0.9,0.6-1.9,1.2-3,1.6c-2.7,1-5.5,1.6-8.4,1.9c-4.5,0.5-9,0.6-13.5,0.4
	c-6.8-0.4-13.9-2.5-15.4-10.1c-0.4-1.8,0.1-3.7,1.3-5.1c1.1-0.9,2.4-1.4,3.7-1.6c12.1-2.8,24.7-3,36.9-0.5c0.5,0.1,1.1,0.3,1.5,0.5
	c0.9,0.6,1.5,1.6,1.7,2.7C261.3,271.7,258.9,275.7,255.6,278z"/>
<path class="st2" d="M207.1,270.6c0,0.1,0,0.2,0,0.3c-0.2,3.3-1.7,6.3-4.3,8.4c-2.3,1.5-4.9,2.5-7.7,2.8c-4.3,0.6-8.7,0.9-13.1,0.8
	c-3.9,0.1-7.8-0.4-11.5-1.3c-2.7-0.6-5.1-2.3-6.7-4.6c-1.6-2.3-2.1-5.2-1.5-8c0.2-0.9,0.6-1.6,1.2-2.2c0.6-0.4,1.3-0.7,2-0.8
	c12.3-2.6,25-2.6,37.3,0c1.4,0.3,3,0.7,3.8,2C207.1,268.8,207.2,269.7,207.1,270.6z"/>
<path class="st2" d="M153.7,270.3c0,0.2,0,0.5,0,0.7c-0.3,3.4-2.2,6.5-5.2,8.3c-2.6,1.5-5.7,1.9-8.7,2.1c-5.2,0.3-10.4,0.3-15.7-0.2
	c-8.2-0.7-16.5-3.9-15.6-13.8c0-0.8,0.3-1.6,0.7-2.2c0.9-0.8,2-1.3,3.2-1.4c12.3-2,24.9-1.4,36.9,1.6c1.3,0.2,2.6,0.8,3.5,1.8
	C153.5,268.2,153.8,269.3,153.7,270.3z"/>
<path class="st2" d="M100.4,267.9c0,0.5,0,1-0.1,1.5c-0.5,3.4-3.2,6.4-6.4,7.9c-3.7,1.8-7.9,1.9-11.9,1.8
	c-9.4-0.2-28.9-1.2-26.6-15.2c0.1-0.9,0.5-1.8,1.1-2.5c0.9-0.8,2.1-1.2,3.3-1.2c12-1.6,24.3-0.6,35.9,2.8c1.4,0.3,2.7,1,3.7,2
	C100.1,265.8,100.4,266.8,100.4,267.9z"/>
<path class="st3" d="M314.2,231.1c0.1,2.6-1.9,4.9-4.6,5c-0.1,0-0.2,0-0.2,0H57.8c-2.6,0-4.8-2.1-4.8-4.8c0-0.1,0-0.2,0-0.2
	l6.4-161.2c0.1-2.8,2.4-5,5.2-5h238c2.8,0,5.1,2.2,5.2,5L314.2,231.1z"/>
<path class="st4" d="M153.8,704.2c-0.2,8.8-6.4,17-15.4,19.9c-11.5,3.7-23.9-2.6-27.6-14.1c-1.1-3.3-1.3-6.8-0.8-10.2
	c0.1-2,1.5-3.7,3.5-4.1c3.9-1.1,8-1.7,12.1-1.8c8.7-0.4,17.3,1.4,25.1,5.2C153.1,700.2,153.9,701.8,153.8,704.2z"/>
<path class="st4" d="M207.8,706.1c0.1,12.2-10.4,22.2-23,22c-11.9-0.2-21.8-10.8-21.2-22.9c0.1-3.5,1.1-4.7,4.6-5.8
	c5.4-1.7,11.1-2.5,16.7-2.3c6.8-0.4,13,1.3,19.2,3.4C206.9,701.4,207.8,703.4,207.8,706.1z"/>
<path class="st4" d="M249.9,722.8c-8,4.3-17.9,3.2-24.8-2.7c-4.7-4-7.5-9.9-7.6-16.1c-0.3-2.3,1.1-4.5,3.3-5.2
	c7.3-3.1,14.8-5,22.3-4.7c5-0.2,10,0.5,14.8,1.9c1.8,0.4,3.1,2,3.2,3.8C263,709,258.5,718,249.9,722.8z"/>
<path class="st4" d="M245,673.6c-13.5,3.4-27.2-7.2-27.1-21.1c-0.1-2,1.1-3.9,3-4.5c7.3-3.5,15.3-5.2,23.4-5.1
	c4.5,0.1,9,0.7,13.4,1.8c3.1,0.7,4,2.8,4.2,5.5C262.9,661.3,256,670.8,245,673.6z"/>
<path class="st4" d="M187.6,676.1c-13.4,0.6-22.7-7.4-24-20.8c-0.4-4.4,0.4-5.7,4.4-7.2c5.8-2,11.9-3,18-3c6.2-0.3,12.1,1.3,18,3.2
	c2.6,0.8,3.7,2.6,3.9,5.2C208.6,664.7,198.9,675.7,187.6,676.1z"/>
<path class="st4" d="M154.3,653.3c-0.4,9.2-8.2,18-17.8,20c-9.8,2-19.9-2.9-24-11.7c-1.6-3-2.4-6.4-2.3-9.8c0.1-1.3,0.2-2.6,0.4-3.9
	c0.1-2,1.7-3.7,3.7-4c12.4-3.2,25.5-1.8,37,3.9C153.9,649,154.4,650.8,154.3,653.3z"/>
<path class="st4" d="M239.1,622.6c-11.7-0.6-20.9-10.3-20.9-22c-0.2-1.8,0.8-3.5,2.5-4.2c7.5-3.5,15.7-5.3,23.9-5.3
	c4.5,0.2,9,0.9,13.4,1.9c2.2,0.4,3.8,2.2,4.1,4.4C264.7,610.5,252.9,623.5,239.1,622.6z"/>
<path class="st4" d="M187.4,625.1c-10.6,1-21.3-7.5-22.9-18.3c-1.1-8-0.3-9.2,7.4-11.2c2.6-0.7,5.3-1.2,8-1.6
	c2.2-0.2,4.3-0.2,6.5-0.1c6.4-0.7,12.4,1.2,18.4,3.2c2.2,0.6,3.6,2.6,3.6,4.8C208.9,613.1,200.5,623.9,187.4,625.1z"/>
<path class="st4" d="M154.3,601.9c-1.1,11.5-10.8,20.2-22.3,20.1c-12.1,0-21.9-9.8-21.9-21.9c0-1.4,0.1-2.8,0.4-4.2
	c0.2-1.9,1.7-3.5,3.6-3.8c12.9-2.8,25.4-2,37.3,3.9C153.9,597.2,154.5,599.3,154.3,601.9z"/>
<path class="st4" d="M238.3,570.9c-11.5-1.5-19.8-10.5-20-21.5c-0.3-2.1,0.9-4.1,2.9-4.9c11.6-5.3,24.8-6.4,37.1-3.1
	c2.1,0.4,3.7,2.1,4,4.2C265.3,558.6,252,572.7,238.3,570.9z"/>
<path class="st4" d="M208.8,552c-0.2,12.4-11.5,22.3-24.5,21.3c-11.7-0.9-21.2-12.5-19.7-24.2c0.1-1.6,1.2-3,2.7-3.5
	c6.1-2.6,12.5-3.2,22-3.5c3-0.3,8.6,1.5,14.2,2.9C207.8,546.1,208.9,547.5,208.8,552z"/>
<path class="st4" d="M154.6,551.2c-1.6,11.4-10.3,19.1-21.9,19.5c-13.4,0.5-24.5-12.9-21.7-26.2c0.2-1.7,1.5-3.1,3.2-3.5
	c12.7-3.5,24.9-2.2,36.8,3.2C154.5,545.8,155.2,547.4,154.6,551.2z"/>
<path class="st2" d="M290.4,380.5c1.1,2.1,1.8,4.4,1.9,6.7c-0.1,4.2-2.2,8-5.6,10.4c-3.4,2.3-7.5,3.4-11.6,3.3
	c-9.3,0-20.1-7.2-16.4-17.7c1.1-3.1,3.1-5.9,4.6-8.9c5.6-10.8,5.2-24.4-0.6-35.1c-1.8-3.3-4.1-6.5-4.6-10.3
	c-0.6-4.7,1.9-9.5,5.8-12.3c4-2.6,8.8-3.8,13.6-3.2c3.4,0.2,6.7,1.3,9.5,3.3c2.2,1.8,3.9,4.1,4.8,6.8c0.8,2.1,1,4.3,0.6,6.5
	c-0.5,2.4-2,4.4-3.3,6.4c-7.1,11.8-7.7,26.3-1.7,38.6C288.5,377,289.5,378.7,290.4,380.5z"/>
<path class="st2" d="M294.2,352.9c0.5-2.8,1.5-5.5,3-7.9c0.8-1.6,2.1-2.9,3.7-3.8c1.9-0.9,4-0.7,6-0.5c3.3,0.3,6.5,1.1,9.5,2.3
	c3.1,1.2,5.7,3.4,7.5,6.2c1.5,2.7,2.2,5.9,2,9c0.2,6.6-4.1,12.5-10.4,14.4c-3.1,1-6.4,1.7-9.7,2c-1.5,0.3-3.1,0.2-4.6-0.2
	c-4.7-1.7-6.7-9.1-7.3-13.4C293.6,358.3,293.7,355.6,294.2,352.9z"/>
<path class="st2" d="M224.6,356.9c0-0.6,0-1.1,0.1-1.7c0.3-3.7,1.9-7.1,4.6-9.7c3.9-3.6,9.5-4.5,14.8-5.2c1.5-0.3,3-0.3,4.5,0
	c2,0.6,3.5,2.4,4.6,4.2c4.5,7.9,4.4,17.7-0.3,25.6c-0.8,1.5-2,2.7-3.4,3.5c-1.9,1-4.2,0.7-6.4,0.4c-3.1-0.4-6.1-1.2-9.1-2.3
	C227.8,369,224.5,363.4,224.6,356.9z"/>
<path class="st2" d="M316.7,663.8c-0.3,8.2-1.1,15.8-3.9,23.1c-4.6,11.8-18.4,16.2-27.7,8.8c-3.4-2.7-5.2-6.5-6.4-10.6
	c-1.9-6.8-2.4-14-1.7-21c-0.1-1.3,0.7-2.5,2-2.9c10.8-4.3,22.4-6.3,34-5.8c2.7,0.1,4,1.1,3.8,3.8
	C316.6,660.9,316.7,662.6,316.7,663.8z"/>
<path class="st2" d="M312.7,576.2c-0.4,0,0.1,0,0.6,0c5.9-0.2,7-0.6,7.2,7.3c0.3,5.2-2.4,10.1-6.9,12.6c-6.8,4.1-14.7,5.6-22.5,4.5
	c-6.7-1-12-7.2-12.4-13.9c-0.1-1.8,0.9-2.5,2.2-3.1c8.6-4,17.9-6.4,27.4-7.1C309.5,576.3,310.7,576.3,312.7,576.2z"/>
<path class="st2" d="M310.8,617.5h2.5c6.2,0,6.9,0.7,6.9,6.8c0,6.8-3.7,12-10.4,14.5c-5.6,2.2-11.5,3-17.5,2.5
	c-7.5-0.6-13.4-6.7-14-14.2c-0.2-2,0.7-3,2.5-3.7C290.3,619.6,300.5,617.6,310.8,617.5z"/>
<path class="st2" d="M311.1,497.2c1.8,0,3.5-0.1,5.3,0c3.4,0.2,4.1,1,4.4,4.4c0.7,7.9-2.4,13.4-9.6,16.4c-6.7,2.8-13.7,4-21,2.3
	c-7.4-1.7-10.4-7.7-11.3-14c-0.4-2.4,1.6-2.9,3.1-3.6c4.7-1.9,9.7-3.3,14.7-4.2C301.5,497.7,306.3,497.2,311.1,497.2z"/>
<path class="st2" d="M311.2,535.9c1.8,0.1,3.5,0.2,5.3,0.3c3.4,0.2,4,0.8,4.3,4.2c0.7,8.5-2.6,13.8-10.6,16.8
	c-7.2,2.6-14.6,3.8-22,1c-6.1-2.3-8.4-7.5-9.2-13.5c-0.3-2.1,1.2-2.7,2.7-3.3C291,537.8,301.1,535.9,311.2,535.9z"/>
<path class="st5" d="M94.8,383.7c-0.8,3.2-2.4,6.1-4.7,8.4c-2.3,2-5,3.3-8,3.7c-3,0.4-6,0.5-9,0.1c-3.3-0.3-6.6-1-9.7-2.2
	c-7.3-3-12.1-10.4-10.5-18.4c0.1-1.1,0.7-2.1,1.6-2.8c0.5-0.2,1.1-0.4,1.7-0.4c12.2-0.8,24.6,0.5,35.8,5.3c1,0.3,1.9,0.9,2.5,1.7
	C95.4,380.5,95.2,382.2,94.8,383.7z"/>
<path class="st6" d="M94.8,343.9c0,0.2-0.1,0.4-0.1,0.5c-0.7,4.2-3.1,7.9-6.6,10.3c-4.1,2.6-9.3,2.8-14.2,2.3
	c-3.3-0.2-6.6-0.9-9.7-2.1c-3.7-1.4-7.4-3.7-9.3-7.3c-1.9-3.7-2.5-8-1.4-12.1c0.1-0.5,0.3-1.1,0.7-1.5c0.6-0.5,1.4-0.8,2.2-0.7
	c12.1-0.9,24.3,1.1,35.5,5.8c0.9,0.3,1.7,0.8,2.3,1.6C94.9,341.7,95.1,342.8,94.8,343.9z"/>
<path class="st7" d="M314,477.3c-4.2,2.6-9.2,3.7-14.1,4.2s-9.8,0.3-14.3-1.5c-5.7-2.2-14.1-11-8.6-17.3c1.7-1.9,4.1-3,6.5-3.8
	c9.7-3.5,20-5,30.3-4.5c1.3,0,2.6,0.2,3.8,0.7c2.1,1.1,3.7,3,4.2,5.3c1.6,5.6-1.2,11.8-5.8,15.4C315.4,476.3,314.7,476.8,314,477.3z
	"/>
<path class="st7" d="M316.5,434.3c-1.1,0.9-2.3,1.7-3.5,2.5c-6,3.8-13.2,6.1-20.3,5.2c-7.3-0.9-23.2-10.3-15-19.2
	c1.8-2,4.4-3,6.9-3.9c7.9-2.7,16.1-4.2,24.4-4.7c3.5-0.2,7.3-0.2,10.1,1.9c3.3,2.6,4,7.6,2.4,11.5
	C320.4,430.3,318.7,432.5,316.5,434.3z"/>
<path class="st7" d="M99.8,677.5c0,0.2,0,0.3,0,0.5c-1.1,9.1-6.7,18.3-15.5,21c-5.4,1.7-11.3,0.8-16.7-1.1c-3.5-1.1-6.7-3-9.4-5.5
	c-4.6-4.5-5.7-12.5-4.6-18.7c0.4-3,2-5.6,4.4-7.4c1.8-1,3.8-1.6,5.9-1.7c10.8-1.2,21.7,0.6,31.6,5.1c1.2,0.5,2.2,1.2,3.1,2.1
	C99.8,673.4,100,675.5,99.8,677.5z"/>
<path class="st7" d="M97.1,590.2c-1.2,3.5-2.6,7-5.3,9.6c-3.7,3.4-9,4.3-14,4.5c-5.6,0.2-11.3-0.2-16.5-2.2
	c-8.4-3.3-18.1-16-7.9-23.6c2.2-1.7,5.2-2,8-2c11.1-0.3,22.1,1.8,32.3,6.1c1.8,0.7,3.7,1.8,4.2,3.6c0.2,1.3,0,2.6-0.5,3.8
	L97.1,590.2z"/>
<path class="st7" d="M267.5,513.3c-1.2,4.2-3.9,7.8-7.6,10.2c-4.2,2.7-9.1,4-14.1,4.5c-5.3,0.6-10.8,0.5-15.7-1.5
	c-5.6-2.3-15.2-12.2-9.1-18.5c1.8-1.8,4.3-2.7,6.8-3.3c11.1-2.9,22.7-3.2,34-1c1.5,0.2,3,0.8,4.2,1.7c1.7,1.5,2.1,3.9,1.8,6.1
	C267.8,512,267.7,512.7,267.5,513.3z"/>
<path class="st7" d="M150.6,520.7c-4.8,4.7-11.7,6.8-18.4,7.2c-4.9,0.5-9.9-0.3-14.4-2.2c-5.6-2.5-16-14.7-9.1-20.9
	c1-0.8,2.3-1.4,3.6-1.6c10.8-2.9,22.3-1.9,33,1c3.4,0.9,7.1,2.3,8.6,5.5c1.7,3.6-0.2,7.9-3,10.7L150.6,520.7z"/>
<path class="st7" d="M210.8,513.1c-0.1,5.4-3.5,10.6-8.2,13.5c-5.2,3.3-11.7,4.1-17.9,3.7c-4.5-0.1-9-1.3-13-3.4
	c-4.9-2.8-12-12.4-7.1-17.9c1.7-2,4.3-2.9,6.8-3.5c11.3-2.8,23.3-1.1,34.7,1.3c1.3,0.1,2.5,0.7,3.5,1.5c0.6,0.8,0.9,1.7,1,2.6
	C210.7,511.8,210.7,512.4,210.8,513.1z"/>
<path class="st7" d="M98.4,464c0.8,2.3,0.6,4.7-0.4,6.9c-2.6,6-9.3,9.1-15.7,10.3c-6.2,1.3-12.6,0.8-18.5-1.4
	c-7.4-3-20.5-16.8-9.8-23.8c3.4-2.2,7.8-2.4,11.9-2.2c8.5,0.4,17,2,25.1,4.7c2.7,0.9,5.6,2.1,7.1,4.5
	C98.1,463.4,98.3,463.7,98.4,464z"/>
<path class="st7" d="M154.2,394.5c-0.1,0.5-0.3,0.9-0.4,1.4c-2.1,4.9-6,8.8-11,10.7c-4.9,1.9-10.3,2.5-15.5,1.6
	c-10.8-1.5-21.5-9.4-18.4-21.5c0.2-1.1,0.7-2.1,1.5-2.8c0.9-0.6,1.9-0.9,2.9-1c11.8-1.7,23.9-0.9,35.4,2.3c1.4,0.3,2.8,0.9,3.9,1.8
	C154.7,388.8,154.9,391.8,154.2,394.5z"/>
<path class="st7" d="M97.5,630.9c0,0.1,0,0.3,0,0.4c-0.5,3.9-1.2,8.1-3.9,10.9c-1.6,1.5-3.6,2.7-5.7,3.4c-8.6,3.1-18.1,2.9-26.6-0.6
	c-7.6-3.2-18.3-17.8-7.7-24.5c1.7-0.9,3.6-1.4,5.5-1.4c12.7-0.7,25.4,2.3,36.6,8.4c0.6,0.3,1.1,0.7,1.4,1.2
	C97.5,629.3,97.7,630.1,97.5,630.9z"/>
<path class="st7" d="M95.3,514.9c-5.3,5-13.4,6.3-20.8,6.1c-4.6,0.1-9.3-0.8-13.6-2.4c-8.4-3.5-12.1-10.6-9.2-19.4
	c0.4-1.5,1.3-2.8,2.5-3.7c0.9-0.4,2-0.7,3-0.7c11.7-0.8,23.8-0.4,34.7,4c3.1,1.3,6.4,3.2,7.2,6.5c0.7,2.7-0.4,5.5-2.2,7.7
	C96.5,513.7,95.9,514.3,95.3,514.9z"/>
<path class="st7" d="M260.3,444.6l-0.1,0.1L260.3,444.6L260.3,444.6z"/>
<path class="st7" d="M266.6,432.4c-0.3,1.3-0.7,2.5-1.2,3.7c-1.1,2.9-2.5,5.7-4.9,7.6c-1.9,1.3-4.1,2.3-6.4,2.8
	c-6.3,1.8-12.9,2.8-19.3,1.4c-7.6-1.6-21.9-12.1-12.6-20.3c2.4-2.2,5.8-3.1,9-3.8c9.3-1.9,18.8-2.5,28.2-1.5
	c1.5,0.1,3.1,0.5,4.4,1.2c1.9,1.4,3,3.5,3,5.9C266.9,430.4,266.9,431.4,266.6,432.4z"/>
<path class="st7" d="M151.7,480.8c-2.7,3.1-6.8,4.7-10.7,5.8c-6,1.7-12.5,2.5-18.6,1.2c-8.9-2-16.1-8.4-15.4-18
	c0.1-2.4,1.3-4.7,3.3-6.1c1.2-0.6,2.5-1,3.8-1.2c10.8-1.7,21.8-0.9,32.1,2.4c2.5,0.8,5,1.8,6.6,3.9c2.6,3.3,1.7,8.5-1,11.7
	L151.7,480.8z"/>
<path class="st7" d="M97.5,548.7c-1.2,4.7-5.1,8.7-9.6,10.7c-5.1,2.3-10.9,2.5-16.5,2c-11.4-1.1-24.4-7.2-21-20.7
	c0.6-2.9,2.4-5.3,5-6.8c2.2-1.1,4.8-1.1,7.3-1c9.5,0.6,18.7,3.1,27.9,5.6c2.4,0.7,5.1,1.5,6.4,3.7c0.8,1.4,1.1,3,0.8,4.6
	C97.8,547.5,97.7,548.1,97.5,548.7z"/>
<path class="st7" d="M210.1,467.5v0.1h0.1L210.1,467.5z"/>
<path class="st7" d="M200.7,407.9c-3.4,1.3-6.9,2-10.5,2.2c-4.8,0.4-9.7,0.3-14.2-1.2c-6.6-2.2-11.3-8.2-11.6-15.1
	c-0.2-2,0.6-4,2.1-5.3c1.2-0.8,2.6-1.3,4-1.5c9.3-1.9,18.8-2.5,28.3-1.8c3,0.2,6.1,0.6,8.4,2.4c3.3,2.5,4.3,7.2,3,11.1
	c-1.4,3.9-4.4,7-8.1,8.7C201.6,407.5,201.1,407.7,200.7,407.9z"/>
<path class="st7" d="M262.6,481.1c-0.7,0.8-1.5,1.5-2.4,2.1c-4.8,3.5-11,4.5-17,4.8c-4.6,0.3-9.3,0.2-13.6-1.5
	c-6.2-2.4-13.4-11.4-8.9-18.3c1.3-2.1,3.9-3,6.2-3.6c10-2.6,20.5-2.2,30.8-1.7c2.1,0.1,4.3,0.2,6,1.5c1,0.8,1.8,1.9,2.2,3.1
	C267.7,472.2,266,477.5,262.6,481.1z"/>
<path class="st7" d="M97.9,428.7c-1,4.9-5,8.9-9.6,10.9c-4.8,2.1-10.2,2.3-15.4,1.6c-10.2-1.2-21-6.6-21.3-18.1
	c-0.2-2.2,0.7-4.4,2.2-6c1.6-1.2,3.6-2,5.7-2.1c11.8-1.7,23.8,0.4,34.3,6c1.6,0.7,2.9,1.8,3.8,3.2c0.6,1.3,0.7,2.7,0.4,4
	C98,428.3,98,428.5,97.9,428.7z"/>
<path class="st7" d="M150,442.2c-4.1,4.1-10.2,5.8-16.1,6.3c-5.1,0.5-10.2-0.1-15-1.8c-7.2-2.9-12.5-9.2-11.6-17.3
	c0.2-2.4,1.5-4.6,3.6-5.9c1.1-0.5,2.3-0.8,3.5-0.9c8.8-1,17.7-0.7,26.4,1c5.3,1,11.2,3.4,12.6,8.6c0.8,3.2-0.5,6.7-2.7,9.2
	C150.5,441.7,150.2,441.9,150,442.2z"/>
<path class="st7" d="M203.1,367c-1.3,0.7-2.6,1.3-4,1.7c-5.8,2-12.1,2.5-18.1,1.4c-7.4-1.3-22.2-11.1-15.6-20.5
	c0.7-1,1.7-1.7,2.7-2.3c4.4-2.5,9.8-2.7,14.9-2.8c6.1-0.1,12.1,0.2,18.1,1.1c2.7,0.4,5.4,1,7.5,2.8c3.4,3,3.6,8.5,1.3,12.5
	C208.2,363.5,205.9,365.6,203.1,367z"/>
<path class="st7" d="M210.1,436.5c-1.2,5.1-5.2,9.4-10,11.7c-5.4,2.5-11.5,2.9-17.4,2.3c-3.9-0.2-7.7-1.3-11.1-3
	c-5-2.7-10.9-11.5-7.5-17.4c1.3-2.2,4.1-3.2,6.6-3.8c10.6-2.6,21.6-2.6,32.2-0.2c2.5,0.6,5.2,1.5,6.6,3.6c0.8,1.5,1.2,3.2,0.9,4.9
	C210.3,435.3,210.2,435.9,210.1,436.5z"/>
<path class="st7" d="M210.2,467.6h-0.1v-0.1L210.2,467.6z"/>
<path class="st7" d="M206.8,484.6c-4.1,2.8-8.8,4.5-13.7,5.1c-4.2,0.5-8.5,1-12.6,0.3c-6.6-1.2-12.4-5.2-15.8-11
	c-1.4-2.4-2.4-5.3-1.5-8c0.9-2.5,2.9-4.4,5.5-5.2c2.5-0.8,5.1-1.2,7.7-1.2c8.3-0.6,16.7-0.8,25.1-0.5c3.1,0.1,6.5,0.5,8.9,2.5
	c3.1,2.5,3.9,7.1,2.5,10.7C211.6,480.3,209.5,482.8,206.8,484.6z"/>
<path class="st7" d="M210.2,467.6h-0.1v-0.1L210.2,467.6z"/>
<path class="st7" d="M260.3,444.6c-0.4,0.7-0.8,0.9-1.4,0.3C259.3,444.6,259.8,444.5,260.3,444.6L260.3,444.6z"/>
<path class="st7" d="M311.8,478.9c-0.4,0.5-0.3,1.9-1.5,0.7L311.8,478.9z"/>
<path class="st7" d="M203.9,485.9c-0.3,0.1-0.6,0.9-1,1.1C202.9,486.5,203.3,486.1,203.9,485.9z"/>
<path class="st7" d="M146.9,365c-0.8,0.6-1.7,1.1-2.6,1.5c-3.8,1.6-8,2.3-12.2,2c-10.6-0.3-24.4-6-23.8-18.6c0-2.3,1.2-4.5,3.1-5.8
	c1.1-0.6,2.3-0.9,3.6-1c9.3-1.3,18.7-1,27.8,0.9c2.3,0.3,4.5,1.1,6.4,2.4c3.3,2.5,4.5,7.2,3.3,11.2
	C151.5,360.6,149.5,363.2,146.9,365z"/>
<path class="st8" d="M155.9,20.5v2h-3.4v9.3h-2.4v-9.3h-3.4v-2H155.9z"/>
<path class="st8" d="M159.5,31.8h-2.3V20.5h2.3V31.8z"/>
<path class="st8" d="M160.8,26.4h4.3v2.1h-4.3V26.4z"/>
<path class="st8" d="M166.5,27c0.3-0.5,0.7-0.9,1.2-1.1c-0.4-0.3-0.8-0.7-1-1.2c-0.2-0.4-0.2-0.8-0.2-1.2c0-0.8,0.3-1.5,0.9-2.1
	c1.5-1.1,3.6-1.1,5.2,0c0.6,0.5,0.9,1.3,0.9,2.1c0,0.4-0.1,0.8-0.2,1.2c-0.2,0.5-0.6,0.8-1,1.1c0.5,0.3,0.9,0.7,1.1,1.2
	c0.3,0.5,0.4,1.1,0.4,1.7c0,0.9-0.3,1.8-1,2.4c-0.8,0.7-1.8,1.1-2.9,1c-1,0.1-2.1-0.3-2.8-1c-0.6-0.6-1-1.5-1-2.4
	C166.1,28.1,166.3,27.5,166.5,27z M168.8,29.8c0.7,0.6,1.7,0.6,2.4,0c0.3-0.4,0.5-0.8,0.4-1.3c0-0.5-0.1-0.9-0.4-1.3
	c-0.7-0.6-1.7-0.6-2.3,0C168.2,28,168.2,29.1,168.8,29.8L168.8,29.8z M168.9,24.8c0.3,0.3,0.6,0.4,1,0.4s0.7-0.1,1-0.4
	s0.4-0.6,0.4-1s-0.1-0.7-0.4-1c-0.3-0.3-0.6-0.4-1-0.4c-0.7-0.1-1.3,0.4-1.4,1.2c0,0.1,0,0.2,0,0.2
	C168.5,24.2,168.7,24.5,168.9,24.8z"/>
<path class="st8" d="M182.6,29.4h-1.3v2.4h-2.1v-2.4h-4.4v-1.9l4.1-6.7h2.4v6.9h1.3V29.4z M179.2,27.7v-4.8l-2.8,4.8H179.2z"/>
<path class="st8" d="M196.3,26.9c-0.8,0.6-1.8,0.9-2.8,0.8h-2.3v4.1h-2.3V20.5h4.9c1-0.1,1.9,0.3,2.7,0.9c0.7,0.7,1.1,1.7,1,2.7
	C197.4,25.1,197,26.1,196.3,26.9z M194.5,22.8c-0.4-0.3-0.8-0.4-1.3-0.4h-2.1v3.3h2.1c0.5,0,0.9-0.1,1.3-0.4
	c0.3-0.3,0.5-0.8,0.4-1.3C195,23.6,194.8,23.1,194.5,22.8z"/>
<path class="st8" d="M201.2,31.8H199V20.5h2.2V31.8z"/>
<path class="st8" d="M205.5,23.4v5c0,0.4,0,0.7,0.2,1.1s0.7,0.7,1.2,0.6c0.6,0.1,1.3-0.3,1.5-0.9c0.2-0.4,0.2-0.9,0.2-1.3v-4.5h2.2
	v8.4h-2.1v-1.2l-0.1,0.2c-0.1,0.1-0.2,0.2-0.3,0.3c-0.3,0.3-0.6,0.5-1,0.6s-0.7,0.2-1.1,0.2c-1,0.1-2-0.4-2.5-1.3
	c-0.3-0.7-0.4-1.4-0.4-2.2v-5L205.5,23.4z"/>
<path class="st8" d="M214.6,29.1c0,0.3,0.1,0.6,0.3,0.8c0.4,0.3,1,0.5,1.5,0.4c0.3,0,0.7-0.1,1-0.2c0.2-0.1,0.4-0.3,0.4-0.6
	c0-0.2-0.1-0.4-0.3-0.6c-0.7-0.3-1.5-0.5-2.3-0.7c-0.7-0.1-1.4-0.4-2-0.9c-0.4-0.4-0.6-0.9-0.6-1.5c0-0.8,0.3-1.5,0.9-2
	c0.7-0.6,1.6-0.9,2.6-0.8c0.9,0,1.8,0.2,2.6,0.6c0.7,0.5,1.1,1.3,1.1,2.2h-2.2c0-0.2-0.1-0.5-0.2-0.7c-0.3-0.3-0.8-0.5-1.2-0.4
	c-0.3,0-0.7,0-1,0.2c-0.2,0.1-0.3,0.3-0.3,0.5s0.1,0.4,0.3,0.5c0.7,0.3,1.5,0.5,2.3,0.6c0.7,0.1,1.4,0.4,2,0.9
	c0.4,0.4,0.7,1,0.6,1.6c0,0.8-0.3,1.5-0.9,2c-1.8,1.1-4,1.1-5.8,0c-0.6-0.5-1-1.3-0.9-2.1L214.6,29.1z"/>
<path class="st9" d="M127.2,37.6v1.8h-3v8.1h-2.1v-8.1h-3v-1.8C119.1,37.6,127.2,37.6,127.2,37.6z"/>
<path class="st9" d="M134.5,40.5H130v1.8h4.1v1.5H130V46h4.7v1.5h-6.4V39h6.2V40.5z"/>
<path class="st9" d="M137.5,47.5h-2.1l2.7-4.3l-2.6-4.2h2.1l1.5,2.8l1.6-2.8h2l-2.6,4.1l2.8,4.4h-2.1l-1.6-2.9L137.5,47.5z"/>
<path class="st9" d="M146.4,39h2l3,8.5h-1.9l-0.6-1.7h-3.1l-0.6,1.7h-1.9L146.4,39z M146.3,44.3h2.2l-1.1-3.3L146.3,44.3z"/>
<path class="st9" d="M153.7,44.9c0,0.3,0.1,0.6,0.3,0.9c0.4,0.4,1,0.6,1.5,0.5c0.3,0,0.7,0,1-0.1c0.5-0.1,0.8-0.5,0.8-1
	c0-0.3-0.1-0.5-0.4-0.7c-0.4-0.2-0.8-0.3-1.2-0.4l-0.9-0.2c-0.7-0.1-1.3-0.3-1.9-0.7c-0.6-0.4-0.9-1.1-0.9-1.8s0.3-1.4,0.8-1.9
	c0.7-0.5,1.6-0.8,2.5-0.8c0.8,0,1.6,0.2,2.3,0.7c0.6,0.5,1,1.3,1,2.1h-1.7c0-0.5-0.3-0.9-0.7-1.1c-0.3-0.2-0.7-0.2-1.1-0.2
	c-0.4,0-0.8,0.1-1.1,0.3s-0.4,0.5-0.4,0.8s0.2,0.6,0.4,0.7c0.4,0.2,0.7,0.3,1.1,0.3l1.5,0.3c0.5,0.1,1,0.3,1.5,0.6
	c0.5,0.4,0.8,1.1,0.8,1.7c0,0.7-0.3,1.5-0.9,1.9c-0.7,0.6-1.6,0.8-2.5,0.8c-0.9,0.1-1.9-0.2-2.6-0.8c-0.7-0.5-1-1.3-1-2.1
	L153.7,44.9z"/>
<path class="st9" d="M165.6,47.5h-2v-9.9h2V47.5z"/>
<path class="st9" d="M167.4,39h1.9l3.4,5.9V39h1.6v8.5h-1.8l-3.4-6v6h-1.6L167.4,39z"/>
<path class="st9" d="M177.2,44.9c0,0.3,0.1,0.6,0.3,0.9c0.4,0.4,1,0.6,1.5,0.5c0.3,0,0.7,0,1-0.1c0.5-0.1,0.8-0.5,0.8-1
	c0-0.3-0.1-0.5-0.4-0.7c-0.4-0.2-0.8-0.3-1.2-0.4l-0.9-0.2c-0.7-0.1-1.3-0.3-1.9-0.7c-0.6-0.4-0.9-1.1-0.9-1.8s0.3-1.4,0.8-1.9
	c0.7-0.5,1.6-0.8,2.5-0.8c0.8,0,1.6,0.2,2.3,0.7c0.6,0.5,1,1.3,1,2.1h-1.7c0-0.5-0.3-0.9-0.7-1.1c-0.3-0.2-0.7-0.2-1.1-0.2
	c-0.4,0-0.8,0.1-1.1,0.3s-0.4,0.5-0.4,0.8s0.2,0.6,0.4,0.7c0.4,0.2,0.7,0.3,1.1,0.3l1.5,0.3c0.5,0.1,1,0.3,1.5,0.6
	c0.5,0.4,0.8,1.1,0.8,1.7c0,0.7-0.3,1.5-0.9,1.9c-0.7,0.6-1.6,0.8-2.5,0.8c-0.9,0.1-1.9-0.2-2.6-0.8c-0.7-0.5-1-1.3-1-2.1
	L177.2,44.9z"/>
<path class="st9" d="M189.9,39v1.5h-2.5v7h-1.8v-7H183V39H189.9z"/>
<path class="st9" d="M196.3,39.2c0.3,0.1,0.6,0.3,0.8,0.6c0.2,0.2,0.3,0.5,0.4,0.7c0.1,0.3,0.2,0.6,0.2,0.9c0,0.4-0.1,0.8-0.3,1.2
	s-0.6,0.7-1,0.8c0.3,0.1,0.6,0.4,0.8,0.7c0.2,0.4,0.3,0.9,0.2,1.3V46c0,0.3,0,0.5,0,0.8c0,0.2,0.2,0.4,0.3,0.5v0.2h-2
	c-0.1-0.2-0.1-0.3-0.1-0.5s-0.1-0.5-0.1-0.7v-0.8c0-0.4-0.1-0.8-0.3-1.1c-0.3-0.2-0.6-0.3-1-0.3h-1.7v3.3h-1.7V39h4
	C195.4,39,195.9,39.1,196.3,39.2z M192.7,40.5v2.3h1.9c0.3,0,0.6,0,0.9-0.1c0.4-0.2,0.6-0.6,0.5-1c0-0.4-0.2-0.8-0.5-1
	c-0.3-0.1-0.5-0.2-0.8-0.2H192.7z"/>
<path class="st9" d="M199.4,39h1.8v5.2c0,0.4,0,0.9,0.2,1.3c0.6,0.8,1.6,0.9,2.4,0.4c0.1-0.1,0.3-0.2,0.4-0.4
	c0.2-0.4,0.2-0.8,0.2-1.3V39h1.8v5.2c0,0.7-0.1,1.4-0.4,2.1c-1.4,1.7-3.9,1.9-5.5,0.5c-0.2-0.1-0.3-0.3-0.5-0.5
	c-0.3-0.7-0.5-1.4-0.4-2.1V39z"/>
<path class="st9" d="M213.5,39h2.5v8.5h-1.6v-5.7c0-0.2,0-0.4,0-0.7s0-0.5,0-0.7l-1.6,7.1h-1.7l-1.6-7.1c0,0.2,0,0.4,0,0.7
	s0,0.5,0,0.7v5.7h-1.6V39h2.6l1.6,6.7L213.5,39z"/>
<path class="st9" d="M224,40.5h-4.5v1.8h4.1v1.5h-4.1V46h4.7v1.5h-6.4V39h6.2V40.5z"/>
<path class="st9" d="M225.5,39h1.9l3.4,5.9V39h1.6v8.5h-1.8l-3.4-6v6h-1.6L225.5,39z"/>
<path class="st9" d="M240.2,39v1.5h-2.5v7h-1.8v-7h-2.5V39H240.2z"/>
<path class="st9" d="M242.5,44.9c0,0.3,0.1,0.6,0.3,0.9c0.4,0.4,1,0.6,1.5,0.5c0.3,0,0.7,0,1-0.1c0.5-0.1,0.8-0.5,0.8-1
	c0-0.3-0.1-0.5-0.4-0.7c-0.4-0.2-0.8-0.3-1.2-0.4l-0.9-0.2c-0.7-0.1-1.3-0.3-1.9-0.7c-0.6-0.4-0.9-1.1-0.9-1.8s0.3-1.4,0.8-1.9
	c0.7-0.5,1.6-0.8,2.5-0.8c0.8,0,1.6,0.2,2.3,0.7c0.6,0.5,1,1.3,1,2.1h-1.7c0-0.5-0.3-0.9-0.7-1.1c-0.3-0.2-0.7-0.2-1.1-0.2
	c-0.4,0-0.8,0.1-1.1,0.3s-0.4,0.5-0.4,0.8s0.2,0.6,0.4,0.7c0.4,0.2,0.7,0.3,1.1,0.3l1.5,0.3c0.5,0.1,1,0.3,1.5,0.6
	c0.5,0.4,0.8,1.1,0.8,1.7c0,0.7-0.3,1.5-0.9,1.9c-0.7,0.6-1.6,0.8-2.5,0.8c-0.9,0.1-1.9-0.2-2.6-0.8c-0.7-0.5-1-1.3-1-2.1
	L242.5,44.9z"/>
</svg>
