<?xml version="1.0" encoding="utf-8"?>
<!-- Generator: Adobe Illustrator 20.1.0, SVG Export Plug-In . SVG Version: 6.00 Build 0)  -->
<svg version="1.1" id="Layer_1" xmlns="http://www.w3.org/2000/svg" xmlns:xlink="http://www.w3.org/1999/xlink" x="0px" y="0px"
	 viewBox="0 0 246.2 489.8" style="enable-background:new 0 0 246.2 489.8;" xml:space="preserve">
<style type="text/css">
	.st0{fill:#8B8B8C;}
	.st1{fill:#232526;stroke:#4F5051;stroke-width:1.5;stroke-miterlimit:10;}
	.st2{fill:#3A3D40;}
	.st3{fill:#606262;}
	.st4{fill:#393E3E;}
	.st5{fill:#B2BEBF;}
	.st6{fill:#232526;}
</style>
<g id="Layer_2">
	<g id="Layer_1-2">
		<rect x="240.9" y="188.1" class="st0" width="5.4" height="66.9"/>
		<rect x="240.9" y="144.7" class="st0" width="5.4" height="29.7"/>
		<path class="st1" d="M217.1,489H27.2c-14.6,0-26.5-11.9-26.5-26.5V27.2c0-14.6,11.9-26.5,26.5-26.5h189.9
			c14.6,0,26.5,11.9,26.5,26.5v435.2C243.6,477.1,231.8,488.9,217.1,489z"/>
		<path class="st2" d="M160,27L160,27c-2.3,0-4.1-1.8-4.1-4.1l0,0c0-2.3,1.8-4.1,4.1-4.1l0,0c2.3,0,4.1,1.8,4.1,4.1l0,0
			C164.1,25.2,162.3,27,160,27z"/>
		<path class="st3" d="M160,25.4L160,25.4c-1.4,0-2.5-1.1-2.5-2.5c0,0,0,0,0,0l0,0c0-1.4,1.1-2.5,2.5-2.5c0,0,0,0,0,0l0,0
			c1.4,0,2.5,1.1,2.5,2.5c0,0,0,0,0,0l0,0C162.5,24.2,161.4,25.3,160,25.4C160,25.3,160,25.3,160,25.4z"/>
		<path class="st4" d="M160,24.5L160,24.5c-1,0-1.8-0.7-1.8-1.7l0,0c0-0.9,0.8-1.7,1.7-1.7c0,0,0,0,0,0h0.1c0.9,0,1.7,0.7,1.7,1.7
			c0,0,0,0,0,0l0,0C161.7,23.8,161,24.5,160,24.5C160,24.5,160,24.5,160,24.5L160,24.5L160,24.5z"/>
		<circle class="st5" cx="158.7" cy="21.4" r="1"/>
		<path class="st2" d="M148.4,27H91.2c-2.2-0.1-4-1.9-4-4.1l0,0c-0.1-2.2,1.7-4,3.8-4.1h57.5c2.2,0.1,4,1.9,4,4.1l0,0
			C152.4,25.1,150.7,26.9,148.4,27z"/>
		<circle class="st6" cx="149.8" cy="22.9" r="0.9"/>
		<circle class="st6" cx="144.8" cy="22.9" r="0.9"/>
		<circle class="st6" cx="119.8" cy="22.9" r="0.9"/>
		<circle class="st6" cx="124.8" cy="22.9" r="0.9"/>
		<circle class="st6" cx="129.8" cy="22.9" r="0.9"/>
		<circle class="st6" cx="134.8" cy="22.9" r="0.9"/>
		<circle class="st6" cx="139.8" cy="22.9" r="0.9"/>
		<circle class="st6" cx="94.8" cy="22.9" r="0.9"/>
		<circle class="st6" cx="99.8" cy="22.9" r="0.9"/>
		<circle class="st6" cx="104.8" cy="22.9" r="0.9"/>
		<circle class="st6" cx="109.8" cy="22.9" r="0.9"/>
		<circle class="st6" cx="114.8" cy="22.9" r="0.9"/>
		<circle class="st6" cx="89.8" cy="22.9" r="0.9"/>
		<circle class="st6" cx="147.2" cy="25" r="0.9"/>
		<circle class="st6" cx="122.2" cy="25" r="0.9"/>
		<circle class="st6" cx="127.2" cy="25" r="0.9"/>
		<circle class="st6" cx="132.2" cy="25" r="0.9"/>
		<circle class="st6" cx="137.2" cy="25" r="0.9"/>
		<circle class="st6" cx="142.2" cy="25" r="0.9"/>
		<circle class="st6" cx="97.2" cy="25" r="0.9"/>
		<circle class="st6" cx="102.2" cy="25" r="0.9"/>
		<circle class="st6" cx="107.2" cy="25" r="0.9"/>
		<circle class="st6" cx="112.2" cy="25" r="0.9"/>
		<circle class="st6" cx="117.2" cy="25" r="0.9"/>
		<circle class="st6" cx="92.2" cy="25" r="0.9"/>
		<circle class="st6" cx="147.2" cy="20.6" r="0.9"/>
		<circle class="st6" cx="122.2" cy="20.6" r="0.9"/>
		<circle class="st6" cx="127.2" cy="20.6" r="0.9"/>
		<circle class="st6" cx="132.2" cy="20.6" r="0.9"/>
		<circle class="st6" cx="137.2" cy="20.6" r="0.9"/>
		<circle class="st6" cx="142.2" cy="20.6" r="0.9"/>
		<circle class="st6" cx="97.2" cy="20.6" r="0.9"/>
		<circle class="st6" cx="102.2" cy="20.6" r="0.9"/>
		<circle class="st6" cx="107.2" cy="20.6" r="0.9"/>
		<circle class="st6" cx="112.2" cy="20.6" r="0.9"/>
		<circle class="st6" cx="117.2" cy="20.6" r="0.9"/>
		<circle class="st6" cx="92.2" cy="20.6" r="0.9"/>
		<path class="st2" d="M150.8,471H93.5c-2.2-0.1-4-1.9-4-4.1l0,0c-0.1-2.2,1.7-4,3.9-4.1c0,0,0,0,0,0h57.5c2.2,0.1,4,1.9,4,4.1l0,0
			C154.8,469.1,153,470.9,150.8,471z"/>
		<circle class="st6" cx="152.1" cy="466.9" r="0.9"/>
		<circle class="st6" cx="147.1" cy="466.9" r="0.9"/>
		<circle class="st6" cx="122.1" cy="466.9" r="0.9"/>
		<circle class="st6" cx="127.1" cy="466.9" r="0.9"/>
		<circle class="st6" cx="132.1" cy="466.9" r="0.9"/>
		<circle class="st6" cx="137.1" cy="466.9" r="0.9"/>
		<circle class="st6" cx="142.1" cy="466.9" r="0.9"/>
		<circle class="st6" cx="97.1" cy="466.9" r="0.9"/>
		<circle class="st6" cx="102.1" cy="466.9" r="0.9"/>
		<circle class="st6" cx="107.1" cy="466.9" r="0.9"/>
		<circle class="st6" cx="112.1" cy="466.9" r="0.9"/>
		<circle class="st6" cx="117.1" cy="466.9" r="0.9"/>
		<circle class="st6" cx="92.1" cy="466.9" r="0.9"/>
		<circle class="st6" cx="149.6" cy="469" r="0.9"/>
		<circle class="st6" cx="124.6" cy="469" r="0.9"/>
		<circle class="st6" cx="129.6" cy="469" r="0.9"/>
		<circle class="st6" cx="134.6" cy="469" r="0.9"/>
		<circle class="st6" cx="139.6" cy="469" r="0.9"/>
		<circle class="st6" cx="144.6" cy="469" r="0.9"/>
		<circle class="st6" cx="99.6" cy="469" r="0.9"/>
		<circle class="st6" cx="104.6" cy="469" r="0.9"/>
		<circle class="st6" cx="109.6" cy="469" r="0.9"/>
		<circle class="st6" cx="114.6" cy="469" r="0.9"/>
		<circle class="st6" cx="119.6" cy="469" r="0.9"/>
		<circle class="st6" cx="94.6" cy="469" r="0.9"/>
		<circle class="st6" cx="149.6" cy="464.6" r="0.9"/>
		<circle class="st6" cx="124.6" cy="464.6" r="0.9"/>
		<circle class="st6" cx="129.6" cy="464.6" r="0.9"/>
		<circle class="st6" cx="134.6" cy="464.6" r="0.9"/>
		<circle class="st6" cx="139.6" cy="464.6" r="0.9"/>
		<circle class="st6" cx="144.6" cy="464.6" r="0.9"/>
		<circle class="st6" cx="99.6" cy="464.6" r="0.9"/>
		<circle class="st6" cx="104.6" cy="464.6" r="0.9"/>
		<circle class="st6" cx="109.6" cy="464.6" r="0.9"/>
		<circle class="st6" cx="114.6" cy="464.6" r="0.9"/>
		<circle class="st6" cx="119.6" cy="464.6" r="0.9"/>
		<circle class="st6" cx="94.6" cy="464.6" r="0.9"/>
	</g>
</g>
</svg>
