<?xml version="1.0" encoding="utf-8"?>
<!-- Generator: Adobe Illustrator 21.1.0, SVG Export Plug-In . SVG Version: 6.00 Build 0)  -->
<svg version="1.1" id="Layer_1" xmlns="http://www.w3.org/2000/svg" xmlns:xlink="http://www.w3.org/1999/xlink" x="0px" y="0px"
	 viewBox="0 0 630.2 691.2" style="enable-background:new 0 0 630.2 691.2;" xml:space="preserve">
<style type="text/css">
	.st0{fill:#0C73B8;}
	.st1{fill:#30A9DC;}
	.st2{fill:#ECEDEE;}
	.st3{fill:#FFFFFF;}
	.st4{fill:#E34F26;}
	.st5{fill:#EF652A;}
</style>
<g>
	<path class="st0" d="M41,460L0,0h451l-41,460l-185,52"/>
	<path class="st1" d="M226,472l149-41l35-394H226"/>
	<path class="st2" d="M226,208H94l5,57h127V208z M226,94H84l5,56h137V94z M226,355l-124-33l7,60l117,32V355z"/>
	<path class="st3" d="M226,265h69l-7,73l-62,17v59l115-32l26-288H226v56h80l-6,58h-74V265z"/>
</g>
<g>
	<path class="st4" d="M220.2,639.2l-41-460h451l-41,460l-185,52"/>
	<path class="st5" d="M405.2,651.2l149-41l35-394h-184"/>
	<path class="st2" d="M405.2,387.2h-75l-5-58h80v-56h-142l15,171h127V387.2z M405.2,534.2l-64-17l-4-45h-56l7,89l117,32V534.2z"/>
	<path class="st3" d="M405.2,444.2h69l-7,73l-62,17v59l115-32l16-174h-131V444.2z M405.2,273.2v56h136l5-56H405.2z"/>
</g>
</svg>
