<?xml version="1.0" encoding="utf-8"?>
<!-- Generator: Adobe Illustrator 21.1.0, SVG Export Plug-In . SVG Version: 6.00 Build 0)  -->
<svg version="1.1" id="Layer_1" xmlns="http://www.w3.org/2000/svg" xmlns:xlink="http://www.w3.org/1999/xlink" x="0px" y="0px"
	 viewBox="0 0 94.3 107.5" style="enable-background:new 0 0 94.3 107.5;" xml:space="preserve">
<style type="text/css">
	.st0{fill:url(#SVGID_1_);}
	.st1{fill:none;}
	.st2{fill:url(#SVGID_2_);}
	.st3{fill:url(#SVGID_3_);}
	.st4{fill:url(#SVGID_4_);}
	.st5{fill:url(#SVGID_5_);}
</style>
<linearGradient id="SVGID_1_" gradientUnits="userSpaceOnUse" x1="64.2892" y1="18.779" x2="26.2276" y2="96.4423">
	<stop  offset="0" style="stop-color:#41873F"/>
	<stop  offset="0.33" style="stop-color:#418B3D"/>
	<stop  offset="0.64" style="stop-color:#419637"/>
	<stop  offset="0.93" style="stop-color:#3FA92D"/>
	<stop  offset="1" style="stop-color:#3FAE2A"/>
</linearGradient>
<path class="st0" d="M94.3,29.4v48.7c0,0.3,0,0.5,0,0.8v0l0,0.2v0c-0.3,1.4-1.1,2.7-2.4,3.4l-42.1,24.3c-0.2,0.1-0.4,0.2-0.6,0.3
	c-0.1,0-0.2,0.1-0.3,0.1c-0.1,0-0.1,0-0.1,0l-0.1,0c-0.2,0.1-0.4,0.1-0.7,0.1c0,0-0.1,0-0.1,0c-0.2,0-0.4,0-0.6,0
	c-0.1,0-0.2,0-0.3,0c-0.7,0-1.3-0.2-1.9-0.5c-0.1-0.1-0.2-0.1-0.3-0.2L2.5,82.5c-0.6-0.3-1.1-0.8-1.5-1.3c0,0,0,0,0,0
	c-0.6-0.9-1-1.9-1-3V29.4c0-1.8,0.9-3.5,2.5-4.4l0,0l0.1,0l42-24.2c1.1-0.6,2.2-0.8,3.4-0.6c0,0,0.1,0,0.1,0c0,0,0,0,0,0
	c0,0,0.1,0,0.1,0c0,0,0.1,0,0.2,0c0,0,0,0,0,0c0.1,0,0.3,0.1,0.4,0.1c0.3,0.1,0.6,0.2,0.9,0.4l21,12.1l21,12.2
	c0.5,0.3,0.9,0.6,1.2,1c0,0,0,0,0,0C93.8,27,94.3,28.2,94.3,29.4z"/>
<g>
	<g>
		<path class="st1" d="M48.3,0.1L48.3,0.1L48.3,0.1l-0.1,0.2l0,0.1L17.7,52.5l-0.1,0.1L1,81.1c-0.6-0.9-1-1.9-1-3V29.4
			c0-1.8,0.9-3.5,2.5-4.4l0,0l0,0L2.3,25L44.5,0.7c0.1-0.1,0.2-0.1,0.3-0.2C45.9,0,47.1-0.2,48.3,0.1z"/>
	</g>
	<g>
		<path class="st1" d="M93.6,81.1c0.4-0.6,0.6-1.2,0.8-1.9c0,0,0-0.1,0.1-0.1l-0.1-0.2v0c0-0.2,0.1-0.5,0.1-0.8V29.4
			c0-1.2-0.5-2.4-1.3-3.4L78.7,52.3l-0.1,0.1l-30,54.8c0,0,0.1,0,0.1,0c0.1,0,0.2-0.1,0.3-0.1c0.2-0.1,0.5-0.2,0.7-0.3L92,82.5
			c0.2-0.1,0.3-0.2,0.4-0.3c0.1-0.1,0.3-0.2,0.4-0.3c0.1-0.1,0.2-0.2,0.3-0.3c0.1-0.1,0.2-0.2,0.3-0.3"/>
	</g>
	<g>
		<linearGradient id="SVGID_2_" gradientUnits="userSpaceOnUse" x1="40.8605" y1="59.3317" x2="147.4216" y2="-19.4044">
			<stop  offset="0.14" style="stop-color:#41873F"/>
			<stop  offset="0.4" style="stop-color:#54A044"/>
			<stop  offset="0.71" style="stop-color:#66B848"/>
			<stop  offset="0.91" style="stop-color:#6CC04A"/>
		</linearGradient>
		<path class="st2" d="M93,26L93,26L78.7,52.2l-0.1,0.1l-30,54.9c-0.2,0.1-0.4,0.1-0.7,0.1c0,0-0.1,0-0.1,0c-0.2,0-0.4,0-0.6,0
			c-0.1,0-0.2,0-0.3,0c-0.7,0-1.3-0.2-1.9-0.5c-0.1-0.1-0.2-0.1-0.3-0.2L2.5,82.5c-0.6-0.3-1.1-0.8-1.5-1.3l16.7-28.5l0.1-0.1
			L48.2,0.4l0-0.1l0.1-0.1c0.4,0.1,0.9,0.3,1.3,0.5l21.2,12.1L91.9,25C92.3,25.3,92.7,25.6,93,26z"/>
	</g>
</g>
<g>
	<g>
		<path class="st1" d="M94.4,79.1c0,0,0,0.1-0.1,0.1l-0.1-0.1v0L78.6,52.4l0,0l-30.4-52l0,0L48,0.1c0,0,0.1,0,0.1,0c0,0,0,0,0,0
			c0,0,0.1,0,0.1,0c0.1,0,0.1,0,0.2,0c0,0,0,0,0,0c0.1,0,0.3,0.1,0.4,0.1c0.3,0.1,0.5,0.2,0.8,0.4l21.2,12.1L91.9,25
			c0.4,0.3,0.8,0.6,1.1,1l0,0c0,0,0,0,0,0c0.8,0.9,1.3,2.1,1.3,3.4v48.7c0,0.3,0,0.5,0,0.8v0L94.4,79.1z"/>
	</g>
	<g>
		<path class="st1" d="M47.9,107.4c-0.1,0-0.1,0-0.1,0c-0.2,0-0.4,0-0.6,0.1c-0.1,0-0.2,0-0.3,0c-0.7,0-1.3-0.2-1.9-0.5
			c-0.1-0.1-0.2-0.1-0.3-0.2L2.5,82.5c-0.6-0.3-1.1-0.8-1.5-1.3c0,0,0,0,0,0c-0.6-0.9-1-1.9-1-3V29.4c0-1.8,0.9-3.5,2.5-4.4l0,0l0,0
			l0.1,0l0,0l15.1,27.5l0,0L47.9,107.4z"/>
	</g>
	<g>
		<linearGradient id="SVGID_3_" gradientUnits="userSpaceOnUse" x1="-1.5334" y1="53.7115" x2="95.7384" y2="53.7115">
			<stop  offset="9.000000e-02" style="stop-color:#6CC04A"/>
			<stop  offset="0.29" style="stop-color:#66B848"/>
			<stop  offset="0.6" style="stop-color:#54A044"/>
			<stop  offset="0.86" style="stop-color:#41873F"/>
		</linearGradient>
		<path class="st3" d="M94.4,79.1c0,0,0,0.1-0.1,0.1c-0.1,0.7-0.4,1.3-0.8,1.9c0,0.1-0.1,0.1-0.2,0.2c-0.2,0.2-0.3,0.4-0.5,0.6
			c-0.1,0.1-0.3,0.2-0.4,0.3c-0.1,0.1-0.3,0.2-0.4,0.3l-42.2,24.3c-0.2,0.1-0.5,0.2-0.7,0.3c-0.1,0-0.2,0.1-0.3,0.1
			c-0.1,0-0.1,0-0.1,0l-0.1,0c-0.2,0.1-0.4,0.1-0.7,0.1c0,0-0.1,0-0.1,0l0,0L17.7,52.6l0,0L2.5,25l0,0l0,0l42-24.2
			c0.1-0.1,0.2-0.1,0.3-0.2c1-0.5,2.2-0.7,3.3-0.4l0,0l0.1,0.2l0,0l30.4,51.9l0,0l15.6,26.6v0L94.4,79.1z"/>
	</g>
	<g>
		<linearGradient id="SVGID_4_" gradientUnits="userSpaceOnUse" x1="47.2042" y1="107.345" x2="48.5754" y2="107.345">
			<stop  offset="9.000000e-02" style="stop-color:#6CC04A"/>
			<stop  offset="0.29" style="stop-color:#66B848"/>
			<stop  offset="0.6" style="stop-color:#54A044"/>
			<stop  offset="0.86" style="stop-color:#41873F"/>
		</linearGradient>
		<path class="st4" d="M47.9,107.4c0.2,0,0.5-0.1,0.7-0.1C48.3,107.3,48.1,107.4,47.9,107.4L47.9,107.4z"/>
	</g>
	<g>
		<linearGradient id="SVGID_5_" gradientUnits="userSpaceOnUse" x1="48.5789" y1="106.6336" x2="48.0323" y2="107.7485">
			<stop  offset="0" style="stop-color:#41873F"/>
			<stop  offset="0.33" style="stop-color:#418B3D"/>
			<stop  offset="0.64" style="stop-color:#419637"/>
			<stop  offset="0.93" style="stop-color:#3FA92D"/>
			<stop  offset="1" style="stop-color:#3FAE2A"/>
		</linearGradient>
		<path class="st5" d="M47.9,107.4c0.2,0,0.5-0.1,0.7-0.1C48.3,107.3,48.1,107.4,47.9,107.4L47.9,107.4z"/>
	</g>
</g>
</svg>
