<?xml version="1.0" encoding="utf-8"?>
<!-- Generator: Adobe Illustrator 21.1.0, SVG Export Plug-In . SVG Version: 6.00 Build 0)  -->
<svg version="1.1" id="Layer_1" xmlns="http://www.w3.org/2000/svg" xmlns:xlink="http://www.w3.org/1999/xlink" x="0px" y="0px"
	 viewBox="0 0 336 398" style="enable-background:new 0 0 336 398;" xml:space="preserve">
<style type="text/css">
	.st0{fill:#20D2EF;}
	.st1{fill:#2DBCE2;}
	.st2{opacity:6.000000e-02;enable-background:new    ;}
</style>
<g>
	<path class="st0" d="M335,252v73c0,40.3-75,73-167.5,73c-34.6,0-66.8-4.6-93.5-12.4c-1.3-0.4-2.7-0.8-4-1.2
		C27.6,371.1,0,349.5,0,325v-73c0,13.3,8.2,25.8,22.4,36.5c12,9,28.3,16.8,47.6,22.9c1.3,0.4,2.6,0.8,4,1.2
		c26.7,7.8,58.9,12.4,93.5,12.4c62,0,116.1-14.7,145.1-36.5C326.8,277.8,335,265.3,335,252z"/>
	<path class="st1" d="M335,252c0,13.3-8.2,25.8-22.4,36.5c-29,21.8-83.1,36.5-145.1,36.5c-34.6,0-66.8-4.6-93.5-12.4
		c-1.3-0.4-2.7-0.8-4-1.2c-19.4-6-35.7-13.8-47.6-22.9C8.2,277.8,0,265.3,0,252c0-2.8,0.4-5.5,1.1-8.2c0.7,2.8,1.8,5.5,3.2,8.2
		c5.5,10.5,16.2,20,30.9,28.2c9.9,5.6,21.7,10.5,34.9,14.6c1.3,0.4,2.6,0.8,4,1.2c26.7,7.8,58.9,12.4,93.5,12.4
		c53.8,0,101.7-11.1,132.3-28.2c14.6-8.2,25.3-17.8,30.9-28.2c1.4-2.7,2.5-5.5,3.2-8.2C334.6,246.5,335,249.2,335,252z"/>
	<path class="st0" d="M335,162.5v73c0,2.8-0.4,5.5-1.1,8.2c-0.7,2.8-1.8,5.5-3.2,8.2c-5.5,10.5-16.2,20-30.9,28.2
		c-30.6,17.2-78.5,28.2-132.3,28.2c-34.6,0-66.8-4.6-93.5-12.4c-1.3-0.4-2.7-0.8-4-1.2c-13.2-4.1-25-9-34.9-14.6
		C20.5,272,9.8,262.5,4.3,252c-1.4-2.7-2.5-5.5-3.2-8.2C0.4,241,0,238.3,0,235.5v-73c0,13.3,8.2,25.8,22.4,36.5
		c3.8,2.9,8.1,5.6,12.8,8.2c9.9,5.6,21.7,10.5,34.9,14.6c1.3,0.4,2.6,0.8,4,1.2c26.7,7.8,58.9,12.4,93.5,12.4
		c53.8,0,101.7-11.1,132.3-28.2c4.7-2.6,8.9-5.4,12.8-8.2C326.8,188.3,335,175.8,335,162.5z"/>
	<path class="st1" d="M335,162.5c0,13.3-8.2,25.8-22.4,36.5c-3.8,2.9-8.1,5.6-12.8,8.2c-30.6,17.2-78.5,28.2-132.3,28.2
		c-34.6,0-66.8-4.6-93.5-12.4c-1.3-0.4-2.7-0.8-4-1.2c-13.2-4.1-25-9-34.9-14.6c-4.7-2.6-8.9-5.4-12.8-8.2
		C8.2,188.3,0,175.8,0,162.5c0-3.5,0.5-6.8,1.6-10.2c0.7,3.5,1.9,6.9,3.7,10.2c5.5,10.3,16,19.8,30.4,28c5.2,3,11,5.8,17.2,8.3
		c5.4,2.2,11.2,4.3,17.2,6.3c1.3,0.4,2.6,0.8,4,1.2c26.9,8,59.4,12.7,94.5,12.7c44.4,0,84.7-7.5,114.7-19.8
		c6.2-2.5,11.9-5.3,17.2-8.2c14.9-8.3,25.8-18,31.4-28.5c1.1-2.1,2-4.2,2.7-6.3C334.8,158.3,335,160.4,335,162.5z"/>
	<path class="st0" d="M336,73v73c0,3.5-0.5,6.9-1.6,10.2c-0.7,2.1-1.6,4.2-2.7,6.3c-5.6,10.6-16.5,20.3-31.4,28.5
		c-5.2,2.9-11,5.6-17.2,8.2c-30,12.3-70.3,19.8-114.7,19.8c-35.1,0-67.6-4.7-94.5-12.7c-1.3-0.4-2.7-0.8-4-1.2
		c-6.1-1.9-11.8-4-17.2-6.3c-6.2-2.6-12-5.4-17.2-8.3c-14.4-8.1-24.9-17.6-30.4-28c-1.8-3.3-3-6.7-3.7-10.2C1.2,150.2,1,148.1,1,146
		V73c0,13.3,8.2,25.8,22.4,36.5c3.7,2.8,7.8,5.4,12.2,8C45.5,123,57,128,70,132.1l0,0c1.3,0.4,2.6,0.8,4,1.2
		c26.9,8,59.4,12.7,94.5,12.7c53.5,0,101.2-10.9,131.8-28c4.9-2.7,9.3-5.5,13.2-8.5C327.8,98.8,336,86.3,336,73z"/>
	<path class="st1" d="M336,73c0,13.3-8.2,25.8-22.4,36.5c-4,3-8.4,5.8-13.2,8.5c-30.7,17-78.3,28-131.8,28c-35,0-67.6-4.7-94.5-12.7
		c-1.3-0.4-2.7-0.8-4-1.2l0,0c-13-4.1-24.6-9-34.4-14.6c-4.5-2.5-8.6-5.2-12.2-8C9.2,98.8,1,86.3,1,73C1,32.7,76,0,168.5,0
		c36.7,0,70.7,5.1,98.3,13.9c1.3,0.4,2.6,0.8,3.9,1.3C310.4,28.5,336,49.4,336,73z"/>
	<path class="st2" d="M336,146c0,3.5-0.5,6.9-1.6,10.2c0.4,2.1,0.6,4.2,0.6,6.3v73c0,2.8-0.4,5.5-1.1,8.2c0.7,2.7,1.1,5.5,1.1,8.2
		v73c0,40.3-75,73-167.5,73c-34.6,0-66.8-4.6-93.5-12.4c-1.3-0.4-2.7-0.8-4-1.2V132.1l0,0L266.8,13.9c1.3,0.4,2.6,0.8,3.9,1.3
		C310.4,28.5,336,49.4,336,73V146z"/>
</g>
</svg>
