<svg xmlns="http://www.w3.org/2000/svg" viewBox="0 0 342.5 245"><defs><style>.cls-1{fill:#fafbfb;}.cls-2{fill:#5c5c5c;}.cls-3{fill:#dcdadc;}.cls-4{fill:#f1615f;}.cls-5{fill:#fcbd40;}.cls-6{fill:#50b84c;}</style></defs><g id="Layer_1-2" data-name="Layer 1"><rect class="cls-1" x="1" y="1" width="340.5" height="243" rx="7.14" ry="7.14"/><path class="cls-2" d="M334.36,2a6.14,6.14,0,0,1,6.14,6.14V236.86a6.14,6.14,0,0,1-6.14,6.14H8.14A6.14,6.14,0,0,1,2,236.86V8.14A6.14,6.14,0,0,1,8.14,2H334.36m0-2H8.14A8.15,8.15,0,0,0,0,8.14V236.86A8.15,8.15,0,0,0,8.14,245H334.36a8.15,8.15,0,0,0,8.14-8.14V8.14A8.15,8.15,0,0,0,334.36,0Z"/><path class="cls-3" d="M340.5,8.14A6.14,6.14,0,0,0,334.36,2H8.14A6.14,6.14,0,0,0,2,8.14v13H340.5Z"/><circle class="cls-4" cx="14.69" cy="11.55" r="4"/><circle class="cls-5" cx="28.69" cy="11.55" r="4"/><circle class="cls-6" cx="42.69" cy="11.55" r="4"/></g></svg>