<?xml version="1.0" encoding="utf-8"?>
<!-- Generator: Adobe Illustrator 21.0.0, SVG Export Plug-In . SVG Version: 6.00 Build 0)  -->
<svg version="1.1" id="Layer_1" xmlns="http://www.w3.org/2000/svg" xmlns:xlink="http://www.w3.org/1999/xlink" x="0px" y="0px"
	 viewBox="0 0 266.9 266.9" style="enable-background:new 0 0 266.9 266.9;" xml:space="preserve">
<style type="text/css">
	.st0{fill:#F44336;}
</style>
<title>Asset 1</title>
<path class="st0" d="M266.9,14.7v237.4c0,8.1-6.6,14.7-14.7,14.7h-68V163.5h34.7l5.2-40.3h-39.8V97.5c0-11.7,3.2-19.6,20-19.6h21.3
	v-36c-10.3-1.1-20.7-1.6-31.1-1.6c-30.8,0-51.8,18.8-51.8,53.2v29.7h-34.8v40.3h34.8v103.3H14.7c-8.1,0-14.7-6.6-14.7-14.7V14.7
	C0,6.6,6.6,0,14.7,0h237.4C260.3,0,266.9,6.6,266.9,14.7z"/>
</svg>
