<?xml version="1.0" encoding="utf-8"?>
<!-- Generator: Adobe Illustrator 21.0.1, SVG Export Plug-In . SVG Version: 6.00 Build 0)  -->
<svg version="1.1" id="Layer_1" xmlns="http://www.w3.org/2000/svg" xmlns:xlink="http://www.w3.org/1999/xlink" x="0px" y="0px"
	 viewBox="0 0 31.1 23.5" style="enable-background:new 0 0 31.1 23.5;" xml:space="preserve">
<style type="text/css">
	.st0{fill:#2196F3;}
</style>
<g>
	<path class="st0" d="M16.6,16.8c-0.6,0.4-1.4,0.4-2,0l-1.1-0.7L0,6.9V21c0,1.4,1.1,2.5,2.5,2.5h26.1c1.4,0,2.5-1.1,2.5-2.5V6.9
		l-13.5,9.2L16.6,16.8z"/>
	<path class="st0" d="M28.6,0H2.5C1.1,0,0,1.1,0,2.5v1.6L14.6,14c0.6,0.4,1.4,0.4,2,0L31.1,4V2.5C31.1,1.1,30,0,28.6,0z"/>
</g>
</svg>
