<?xml version="1.0" encoding="utf-8"?>
<!-- Generator: Adobe Illustrator 20.0.0, SVG Export Plug-In . SVG Version: 6.00 Build 0)  -->
<svg version="1.1" id="Layer_1" xmlns="http://www.w3.org/2000/svg"  x="0px" y="0px"
	 viewBox="0 0 332.7 564.2" style="enable-background:new 0 0 332.7 564.2;" xml:space="preserve">
<style type="text/css">
	.st0{fill:#393C3F;}
	.st1{fill:#72797F;}
	.st2{fill:#5F6161;}
	.st3{fill:#4D4F51;}
	.st4{fill:#383D3D;}
	.st5{fill:#B2BEBF;}
	.st6{fill:#2F3235;}
</style>
<path class="st0" d="M260.8,529.1H70.9c-14.6,0-26.5-11.9-26.5-26.5V67.4c0-14.6,11.9-26.5,26.5-26.5h189.9
	c14.6,0,26.5,11.9,26.5,26.5v435.2C287.3,517.1,275.4,529.1,260.8,529.1z"/>
<rect x="55.1" y="88.1" class="st1" width="221.6" height="393.9"/>
<path class="st2" d="M181.4,514.5h-31.1c-5.5,0-10-4.5-10-10l0,0c0-5.5,4.5-10,10-10h31.1c5.5,0,10,4.5,10,10l0,0
	C191.4,510,186.9,514.5,181.4,514.5z"/>
<g>
	<g>
		<path class="st3" d="M200.6,67.6L200.6,67.6c-2.2,0-4.1-1.8-4.1-4.1l0,0c0-2.2,1.8-4.1,4.1-4.1l0,0c2.2,0,4.1,1.8,4.1,4.1l0,0
			C204.7,65.8,202.8,67.6,200.6,67.6z"/>
		<path class="st2" d="M200.6,66L200.6,66c-1.4,0-2.5-1.1-2.5-2.5l0,0c0-1.4,1.1-2.5,2.5-2.5l0,0c1.4,0,2.5,1.1,2.5,2.5l0,0
			C203.1,64.9,202,66,200.6,66z"/>
		<path class="st4" d="M200.6,65.2L200.6,65.2c-1,0-1.8-0.8-1.8-1.7l0,0c0-1,0.8-1.7,1.8-1.7l0,0c1,0,1.7,0.8,1.7,1.7l0,0
			C202.3,64.4,201.6,65.2,200.6,65.2z"/>
		<circle class="st5" cx="199.3" cy="62" r="1"/>
	</g>
	<g>
		<path class="st3" d="M188.3,67.6H131c-2.1,0-4-1.8-4-4.1l0,0c0-2.2,1.7-4.1,4-4.1h57.4c2.1,0,4,1.8,4,4.1l0,0
			C192.2,65.8,190.5,67.6,188.3,67.6z"/>
		<g>
			<g>
				<circle class="st6" cx="189.6" cy="63.5" r="0.9"/>
				<circle class="st6" cx="184.6" cy="63.5" r="0.9"/>
				<circle class="st6" cx="159.6" cy="63.5" r="0.9"/>
				<circle class="st6" cx="164.6" cy="63.5" r="0.9"/>
				<circle class="st6" cx="169.6" cy="63.5" r="0.9"/>
				<circle class="st6" cx="174.6" cy="63.5" r="0.9"/>
				<circle class="st6" cx="179.6" cy="63.5" r="0.9"/>
				<circle class="st6" cx="134.6" cy="63.5" r="0.9"/>
				<circle class="st6" cx="139.6" cy="63.5" r="0.9"/>
				<circle class="st6" cx="144.6" cy="63.5" r="0.9"/>
				<circle class="st6" cx="149.6" cy="63.5" r="0.9"/>
				<circle class="st6" cx="154.6" cy="63.5" r="0.9"/>
				<circle class="st6" cx="129.6" cy="63.5" r="0.9"/>
			</g>
			<g>
				<circle class="st6" cx="187.1" cy="65.7" r="0.9"/>
				<circle class="st6" cx="162.1" cy="65.7" r="0.9"/>
				<circle class="st6" cx="167.1" cy="65.7" r="0.9"/>
				<circle class="st6" cx="172.1" cy="65.7" r="0.9"/>
				<circle class="st6" cx="177.1" cy="65.7" r="0.9"/>
				<circle class="st6" cx="182.1" cy="65.7" r="0.9"/>
				<circle class="st6" cx="137.1" cy="65.7" r="0.9"/>
				<circle class="st6" cx="142.1" cy="65.7" r="0.9"/>
				<circle class="st6" cx="147.1" cy="65.7" r="0.9"/>
				<circle class="st6" cx="152.1" cy="65.7" r="0.9"/>
				<circle class="st6" cx="157.1" cy="65.7" r="0.9"/>
				<circle class="st6" cx="132.1" cy="65.7" r="0.9"/>
			</g>
			<g>
				<circle class="st6" cx="187.1" cy="61.3" r="0.9"/>
				<circle class="st6" cx="162.1" cy="61.3" r="0.9"/>
				<circle class="st6" cx="167.1" cy="61.3" r="0.9"/>
				<circle class="st6" cx="172.1" cy="61.3" r="0.9"/>
				<circle class="st6" cx="177.1" cy="61.3" r="0.9"/>
				<circle class="st6" cx="182.1" cy="61.3" r="0.9"/>
				<circle class="st6" cx="137.1" cy="61.3" r="0.9"/>
				<circle class="st6" cx="142.1" cy="61.3" r="0.9"/>
				<circle class="st6" cx="147.1" cy="61.3" r="0.9"/>
				<circle class="st6" cx="152.1" cy="61.3" r="0.9"/>
				<circle class="st6" cx="157.1" cy="61.3" r="0.9"/>
				<circle class="st6" cx="132.1" cy="61.3" r="0.9"/>
			</g>
		</g>
	</g>
</g>
</svg>
