<svg xmlns="http://www.w3.org/2000/svg" viewBox="0 0 242.9 488.2"><defs><style>.cls-1{fill:#393c3f;}.cls-2{fill:#72797f;}.cls-3{fill:#5f6161;}.cls-4{fill:#4d4f51;}.cls-5{fill:#383d3d;}.cls-6{fill:#b2bebf;}.cls-7{fill:#2f3235;}</style></defs><title>Asset 1</title><g id="Layer_2" data-name="Layer 2"><g id="Layer_1-2" data-name="Layer 1"><path class="cls-1" d="M216.4,488.2H26.5A26.55,26.55,0,0,1,0,461.7V26.5A26.55,26.55,0,0,1,26.5,0H216.4a26.55,26.55,0,0,1,26.5,26.5V461.7A26.61,26.61,0,0,1,216.4,488.2Z"/><rect class="cls-2" x="10.7" y="47.2" width="221.6" height="393.9"/><path class="cls-3" d="M137,473.6H105.9a10,10,0,0,1-10-10h0a10,10,0,0,1,10-10H137a10,10,0,0,1,10,10h0A10,10,0,0,1,137,473.6Z"/><path class="cls-4" d="M156.2,26.7h0a4.12,4.12,0,0,1-4.1-4.1h0a4.12,4.12,0,0,1,4.1-4.1h0a4.12,4.12,0,0,1,4.1,4.1h0A4.12,4.12,0,0,1,156.2,26.7Z"/><path class="cls-3" d="M156.2,25.1h0a2.48,2.48,0,0,1-2.5-2.5h0a2.48,2.48,0,0,1,2.5-2.5h0a2.48,2.48,0,0,1,2.5,2.5h0A2.48,2.48,0,0,1,156.2,25.1Z"/><path class="cls-5" d="M156.2,24.3h0a1.77,1.77,0,0,1-1.8-1.7h0a1.71,1.71,0,0,1,1.8-1.7h0a1.69,1.69,0,0,1,1.7,1.7h0A1.69,1.69,0,0,1,156.2,24.3Z"/><circle class="cls-6" cx="154.9" cy="21.1" r="1"/><path class="cls-4" d="M143.9,26.7H86.6a4.1,4.1,0,0,1-4-4.1h0a4,4,0,0,1,4-4.1H144a4.1,4.1,0,0,1,4,4.1h0A4.25,4.25,0,0,1,143.9,26.7Z"/><circle class="cls-7" cx="145.2" cy="22.6" r="0.9"/><circle class="cls-7" cx="140.2" cy="22.6" r="0.9"/><circle class="cls-7" cx="115.2" cy="22.6" r="0.9"/><circle class="cls-7" cx="120.2" cy="22.6" r="0.9"/><circle class="cls-7" cx="125.2" cy="22.6" r="0.9"/><circle class="cls-7" cx="130.2" cy="22.6" r="0.9"/><circle class="cls-7" cx="135.2" cy="22.6" r="0.9"/><circle class="cls-7" cx="90.2" cy="22.6" r="0.9"/><circle class="cls-7" cx="95.2" cy="22.6" r="0.9"/><circle class="cls-7" cx="100.2" cy="22.6" r="0.9"/><circle class="cls-7" cx="105.2" cy="22.6" r="0.9"/><circle class="cls-7" cx="110.2" cy="22.6" r="0.9"/><circle class="cls-7" cx="85.2" cy="22.6" r="0.9"/><circle class="cls-7" cx="142.7" cy="24.8" r="0.9"/><circle class="cls-7" cx="117.7" cy="24.8" r="0.9"/><circle class="cls-7" cx="122.7" cy="24.8" r="0.9"/><circle class="cls-7" cx="127.7" cy="24.8" r="0.9"/><circle class="cls-7" cx="132.7" cy="24.8" r="0.9"/><circle class="cls-7" cx="137.7" cy="24.8" r="0.9"/><circle class="cls-7" cx="92.7" cy="24.8" r="0.9"/><circle class="cls-7" cx="97.7" cy="24.8" r="0.9"/><circle class="cls-7" cx="102.7" cy="24.8" r="0.9"/><circle class="cls-7" cx="107.7" cy="24.8" r="0.9"/><circle class="cls-7" cx="112.7" cy="24.8" r="0.9"/><circle class="cls-7" cx="87.7" cy="24.8" r="0.9"/><circle class="cls-7" cx="142.7" cy="20.4" r="0.9"/><circle class="cls-7" cx="117.7" cy="20.4" r="0.9"/><circle class="cls-7" cx="122.7" cy="20.4" r="0.9"/><circle class="cls-7" cx="127.7" cy="20.4" r="0.9"/><circle class="cls-7" cx="132.7" cy="20.4" r="0.9"/><circle class="cls-7" cx="137.7" cy="20.4" r="0.9"/><circle class="cls-7" cx="92.7" cy="20.4" r="0.9"/><circle class="cls-7" cx="97.7" cy="20.4" r="0.9"/><circle class="cls-7" cx="102.7" cy="20.4" r="0.9"/><circle class="cls-7" cx="107.7" cy="20.4" r="0.9"/><circle class="cls-7" cx="112.7" cy="20.4" r="0.9"/><circle class="cls-7" cx="87.7" cy="20.4" r="0.9"/></g></g></svg>