<svg xmlns="http://www.w3.org/2000/svg" viewBox="0 0 244.4 489.7">
    <defs>
        <style>
            .cls-1{fill:#8b8b8c;}.cls-2,.cls-7{fill:#232526;}.cls-2{stroke:#4f5051;stroke-miterlimit:10;stroke-width:1.5px;}.cls-3{fill:#3a3d40;}.cls-4{fill:#606262;}.cls-5{fill:#393e3e;}.cls-6{fill:#b2bebf;}
        </style>
    </defs>
    <title>Asset 2</title>
    <g id="Layer_2" data-name="Layer 2">
        <g id="Layer_1-2" data-name="Layer 1">
            <rect class="cls-1" x="240.06" y="188.06" width="2.39" height="66.91"/>
            <rect class="cls-1" x="240.06" y="144.71" width="2.39" height="29.74"/>
            <path class="cls-2"
                  d="M217.15,489H27.25a26.55,26.55,0,0,1-26.5-26.5V27.25A26.55,26.55,0,0,1,27.25.75h189.9a26.55,26.55,0,0,1,26.5,26.5v435.2A26.61,26.61,0,0,1,217.15,489Z"/>
            <path class="cls-3"
                  d="M160,27h0a4.12,4.12,0,0,1-4.1-4.1h0a4.12,4.12,0,0,1,4.1-4.1h0a4.12,4.12,0,0,1,4.1,4.1h0A4.12,4.12,0,0,1,160,27Z"/>
            <path class="cls-4"
                  d="M160,25.35h0a2.48,2.48,0,0,1-2.5-2.46s0,0,0,0h0a2.48,2.48,0,0,1,2.46-2.5h0a2.48,2.48,0,0,1,2.5,2.46s0,0,0,0h0a2.48,2.48,0,0,1-2.46,2.5Z"/>
            <path class="cls-5"
                  d="M160,24.55h0a1.77,1.77,0,0,1-1.8-1.7h0a1.71,1.71,0,0,1,1.72-1.7H160a1.69,1.69,0,0,1,1.7,1.68s0,0,0,0h0a1.69,1.69,0,0,1-1.68,1.7Z"/>
            <circle class="cls-6" cx="158.66" cy="21.35" r="1"/>
            <path class="cls-3"
                  d="M148.45,27H91.15a4.1,4.1,0,0,1-4-4.1h0a4,4,0,0,1,3.9-4.1h57.5a4.1,4.1,0,0,1,4,4.1h0A4.25,4.25,0,0,1,148.45,27Z"/>
            <circle class="cls-7" cx="149.75" cy="22.85" r="0.9"/>
            <circle class="cls-7" cx="144.75" cy="22.85" r="0.9"/>
            <circle class="cls-7" cx="119.75" cy="22.85" r="0.9"/>
            <circle class="cls-7" cx="124.75" cy="22.85" r="0.9"/>
            <circle class="cls-7" cx="129.75" cy="22.85" r="0.9"/>
            <circle class="cls-7" cx="134.75" cy="22.85" r="0.9"/>
            <circle class="cls-7" cx="139.75" cy="22.85" r="0.9"/>
            <circle class="cls-7" cx="94.75" cy="22.85" r="0.9"/>
            <circle class="cls-7" cx="99.75" cy="22.85" r="0.9"/>
            <circle class="cls-7" cx="104.75" cy="22.85" r="0.9"/>
            <circle class="cls-7" cx="109.75" cy="22.85" r="0.9"/>
            <circle class="cls-7" cx="114.75" cy="22.85" r="0.9"/>
            <circle class="cls-7" cx="89.75" cy="22.85" r="0.9"/>
            <circle class="cls-7" cx="147.25" cy="25.05" r="0.9"/>
            <circle class="cls-7" cx="122.25" cy="25.05" r="0.9"/>
            <circle class="cls-7" cx="127.25" cy="25.05" r="0.9"/>
            <circle class="cls-7" cx="132.25" cy="25.05" r="0.9"/>
            <circle class="cls-7" cx="137.25" cy="25.05" r="0.9"/>
            <circle class="cls-7" cx="142.25" cy="25.05" r="0.9"/>
            <circle class="cls-7" cx="97.25" cy="25.05" r="0.9"/>
            <circle class="cls-7" cx="102.25" cy="25.05" r="0.9"/>
            <circle class="cls-7" cx="107.25" cy="25.05" r="0.9"/>
            <circle class="cls-7" cx="112.25" cy="25.05" r="0.9"/>
            <circle class="cls-7" cx="117.25" cy="25.05" r="0.9"/>
            <circle class="cls-7" cx="92.25" cy="25.05" r="0.9"/>
            <circle class="cls-7" cx="147.25" cy="20.65" r="0.9"/>
            <circle class="cls-7" cx="122.25" cy="20.65" r="0.9"/>
            <circle class="cls-7" cx="127.25" cy="20.65" r="0.9"/>
            <circle class="cls-7" cx="132.25" cy="20.65" r="0.9"/>
            <circle class="cls-7" cx="137.25" cy="20.65" r="0.9"/>
            <circle class="cls-7" cx="142.25" cy="20.65" r="0.9"/>
            <circle class="cls-7" cx="97.25" cy="20.65" r="0.9"/>
            <circle class="cls-7" cx="102.25" cy="20.65" r="0.9"/>
            <circle class="cls-7" cx="107.25" cy="20.65" r="0.9"/>
            <circle class="cls-7" cx="112.25" cy="20.65" r="0.9"/>
            <circle class="cls-7" cx="117.25" cy="20.65" r="0.9"/>
            <circle class="cls-7" cx="92.25" cy="20.65" r="0.9"/>
            <path class="cls-3"
                  d="M150.8,471H93.5a4.1,4.1,0,0,1-4-4.1h0a4,4,0,0,1,3.9-4.1h57.5a4.1,4.1,0,0,1,4,4.1h0A4.25,4.25,0,0,1,150.8,471Z"/>
            <circle class="cls-7" cx="152.1" cy="466.85" r="0.9"/>
            <circle class="cls-7" cx="147.1" cy="466.85" r="0.9"/>
            <circle class="cls-7" cx="122.1" cy="466.85" r="0.9"/>
            <circle class="cls-7" cx="127.1" cy="466.85" r="0.9"/>
            <circle class="cls-7" cx="132.1" cy="466.85" r="0.9"/>
            <circle class="cls-7" cx="137.1" cy="466.85" r="0.9"/>
            <circle class="cls-7" cx="142.1" cy="466.85" r="0.9"/>
            <circle class="cls-7" cx="97.1" cy="466.85" r="0.9"/>
            <circle class="cls-7" cx="102.1" cy="466.85" r="0.9"/>
            <circle class="cls-7" cx="107.1" cy="466.85" r="0.9"/>
            <circle class="cls-7" cx="112.1" cy="466.85" r="0.9"/>
            <circle class="cls-7" cx="117.1" cy="466.85" r="0.9"/>
            <circle class="cls-7" cx="92.1" cy="466.85" r="0.9"/>
            <circle class="cls-7" cx="149.6" cy="469.05" r="0.9"/>
            <circle class="cls-7" cx="124.6" cy="469.05" r="0.9"/>
            <circle class="cls-7" cx="129.6" cy="469.05" r="0.9"/>
            <circle class="cls-7" cx="134.6" cy="469.05" r="0.9"/>
            <circle class="cls-7" cx="139.6" cy="469.05" r="0.9"/>
            <circle class="cls-7" cx="144.6" cy="469.05" r="0.9"/>
            <circle class="cls-7" cx="99.6" cy="469.05" r="0.9"/>
            <circle class="cls-7" cx="104.6" cy="469.05" r="0.9"/>
            <circle class="cls-7" cx="109.6" cy="469.05" r="0.9"/>
            <circle class="cls-7" cx="114.6" cy="469.05" r="0.9"/>
            <circle class="cls-7" cx="119.6" cy="469.05" r="0.9"/>
            <circle class="cls-7" cx="94.6" cy="469.05" r="0.9"/>
            <circle class="cls-7" cx="149.6" cy="464.65" r="0.9"/>
            <circle class="cls-7" cx="124.6" cy="464.65" r="0.9"/>
            <circle class="cls-7" cx="129.6" cy="464.65" r="0.9"/>
            <circle class="cls-7" cx="134.6" cy="464.65" r="0.9"/>
            <circle class="cls-7" cx="139.6" cy="464.65" r="0.9"/>
            <circle class="cls-7" cx="144.6" cy="464.65" r="0.9"/>
            <circle class="cls-7" cx="99.6" cy="464.65" r="0.9"/>
            <circle class="cls-7" cx="104.6" cy="464.65" r="0.9"/>
            <circle class="cls-7" cx="109.6" cy="464.65" r="0.9"/>
            <circle class="cls-7" cx="114.6" cy="464.65" r="0.9"/>
            <circle class="cls-7" cx="119.6" cy="464.65" r="0.9"/>
            <circle class="cls-7" cx="94.6" cy="464.65" r="0.9"/>
        </g>
    </g>
</svg>