<svg xmlns="http://www.w3.org/2000/svg" viewBox="0 0 467.19 314"> <defs> <style> .cls-1{fill:#fefefe;}.cls-2{fill:#eee;}.cls-3{fill:#cbcbcb;}.cls-4{fill:#f1cea8;}.cls-5{fill:#6b4f22;}.cls-6{fill:#111;}.cls-7{fill:#16658f;}.cls-8{fill:#231f20;}.cls-9{fill:#e9c7a3;}.cls-10{fill:#c00606;}.cls-11{fill:#c72121;}.cls-12{fill:#252122;}.cls-13{fill:#d35252;}.cls-14{fill:#d35353;}.cls-15{fill:#952424;}.cls-16{fill:#a23f3f;}.cls-17{fill:#962424;}.cls-18{fill:#a33f3f;}.cls-19{fill:#d35352;}.cls-20{fill:#e8c7a3;}.cls-21{fill:#a34040;}.cls-22{fill:#ccc;}.cls-23{fill:#d04b4b;}.cls-24{fill:#9e2b2b;}.cls-25{fill:#cf4444;}.cls-26{fill:#d25656;}.cls-27{fill:#9a2b2b;}.cls-28{fill:#cc3535;}.cls-29{fill:#cb3231;}.cls-30{fill:#c1b7a5;}.cls-31{fill:#ca2c2c;}.cls-32{fill:#efcca7;}.cls-33{fill:#e3c19d;}.cls-34{fill:#282420;}.cls-35{fill:#fbfbfa;}.cls-36{fill:#a73737;}.cls-37{fill:#890909;}.cls-38{fill:#d04545;}.cls-39{fill:#cf4343;}.cls-40{fill:#d8d8d8;}.cls-41{fill:#686663;}.cls-42{fill:#292929;}.cls-43{fill:#d14f4e;}.cls-44{fill:#d15050;}.cls-45{fill:#c94746;}.cls-46{fill:#c94645;}.cls-47{fill:#fdfdfd;}.cls-48{fill:#686868;}.cls-49{fill:#a33a3a;}.cls-50{fill:#f2e5e4;}.cls-51{fill:#f6edec;}.cls-52{fill:#f5ebea;}.cls-53{fill:#f6eded;} </style> </defs> <g id="Layer_2" data-name="Layer 2"> <g id="Layer_1-2" data-name="Layer 1"> <path class="cls-1" d="M258.95,12l-8.4-12H350a78.13,78.13,0,0,0-6.51,10c.65,2.17-.46,2.9-2.41,2.93-3.63-2.17-6.94-4.84-10.7-6.81a8.51,8.51,0,0,0-3.28-1.44c-.39,1.09.2,2.09.27,3.11,0,.76.12,1.53-.56,2.06s-1.43.13-2.08-.22c-9.48-5.25-19.86-6.2-30.4-6.37-.58,0-1.16.1-1.74.15-1.74.13-2.79.45-1.89,2.69s0,3.16-2.16,2.95a60.75,60.75,0,0,0-28,3.33,2.06,2.06,0,0,1-1,.06A1.64,1.64,0,0,1,258.95,12Z"/> <path class="cls-2" d="M204.55,314l0-.59c1-.82,2.19-.71,3.34-.71q37.35,0,74.69,0c1.15,0,2.35-.12,3.36.67l.07.64Z"/> <path class="cls-2" d="M315,314l.07-.64c1-.79,2.21-.67,3.36-.67q37.35,0,74.69,0c1.15,0,2.35-.11,3.34.72l0,.59Z"/> <path class="cls-3" d="M4.13,157c-.41-1.93-.08-3.1,2.48-3.22,4.63-.21,9.23-.94,13.85-1.29q17.49-1.31,35-2.47c6.13-.41,12.27-.64,18.39-1.08,8.76-.63,17.52-1.26,26.24-2.37.74-.09,1.49-.08,2.24-.12,3.71-.2,3.71-.2,3.72,3.71,0,7.91-.24,15.84.12,23.74s.16,16,.46,23.95c.34,9,.72,18.09,1.51,27.09,1.22,13.78,2.78,27.53,6.14,41,0,.08.06.16.08.24.71,2.08.6,3.3-2.19,3.57-7.41.73-14.78,1.9-22.19,2.7-8.73.93-17.48,1.69-26.23,2.44q-7.56.65-15.14,1c-9,.47-18,1.07-27,2-2.06.21-4.15,0-6.2.51-1.21.3-1.65-.31-1.86-1.6C11.62,265,10.07,253.07,9,241.1c-.78-8.51-1.5-17-2-25.54-.61-10.11-1.14-20.22-1.51-30.34-.29-7.88-.87-15.75-.94-23.65C4.5,160.08,3.83,158.65,4.13,157Z"/> <path class="cls-4" d="M365.06,45c.83,2.33,2.76,3.88,4.16,5.79a68.84,68.84,0,0,1,12.31,29.56c.29,1.74-.05,2.69-2.27,2.68q-79.2-.09-158.4,0c-2.17,0-2.62-.87-2.31-2.65A68,68,0,0,1,232.69,48.5c.82-1,2.18-1.84,1.9-3.49,2.88-.54,4.26.4,4.59,3.23a82.63,82.63,0,0,0,2.44,13c1.9,6.73,5.79,11.14,12.8,12.9a34,34,0,0,0,15.06.77c9.91-2,16.11-8.47,20.19-17.32,1.11-2.42,2-4.95,2.93-7.43.79-2,1.77-4,3.73-5.18a7.49,7.49,0,0,1,10.29,2.47c2.21,3.3,2.88,7.26,4.63,10.75,4.15,8.28,10.08,14.6,19.58,16.22,7.36,1.26,14.61.53,21.3-3.23a11.61,11.61,0,0,0,4.42-4.64c2.62-4.68,3.6-9.82,4.31-15,.2-1.48.36-3,.65-4.44C361.89,45.06,362.94,44.51,365.06,45Z"/> <path class="cls-5" d="M259.52,12a58.62,58.62,0,0,1,29.32-3.59c1.41.17,1.88-.32,1.48-1.66a14.36,14.36,0,0,0-.61-1.88A20.25,20.25,0,0,0,288.57,3c13-1,25.43-.14,36.93,6.26.34.19.64.65,1.08.37s.31-.87.23-1.35A17.63,17.63,0,0,0,325.35,3c6.2,2.39,11.07,5.83,15.83,9.47a1.64,1.64,0,0,1-.3,1.83c-.76,1.16-1,2.09.42,3.08s2.23.46,3-.72a1.48,1.48,0,0,1,.78-.57,32.43,32.43,0,0,1,11,17.36,10.36,10.36,0,0,1-7.05,0c-.31-.25.41-.53,0-.66-5.52-2-11-4.06-17-4.16a18.64,18.64,0,0,0-14,5.31,2.09,2.09,0,0,1-2.17.75,35.94,35.94,0,0,0-18.25-8.56c-11.3-1.6-22-.15-31.72,6.37a7,7,0,0,1-1.5.88,6.59,6.59,0,0,1-4,0c-.26-.19-.61-.4-.65-.69-.3-2.27-1.33-1.64-2.51-.68.64,1,2.65-.39,2.62,1.6a2.33,2.33,0,0,1-1.61.56c-5.56-.09-11.08.52-16.62.68a1.44,1.44,0,0,1-1.13-.41,33.65,33.65,0,0,1,9.48-9c0-.82,0-.82-1-.55l-5.63.66a33.16,33.16,0,0,1,10.7-10.67c1.58-.07,2,1.3,2.62,2.27,1,1.51,1.93,1,3.11.33,1.39-.81,1-1.6.25-2.59S258.76,13.16,259.52,12Z"/> <path class="cls-6" d="M316,34.46a1.44,1.44,0,0,0,1.54-1,16.81,16.81,0,0,1,7.77-1.28c6.56.06,13.12,0,19.69,0,1.39,0,2.85-.18,4,.86l7,.37c3,.36,6.08.75,9.12,1.08,1.39.15,2.07.76,1.91,2.26-.21,2,0,4-.45,5.94a3.14,3.14,0,0,1-1.62,2.3c-2.15,0-3.08,1-3.2,3.2a52.1,52.1,0,0,1-3.42,16c-1.94,5.05-5.6,8.07-10.68,9.68-17.5,5.54-32.19-1.73-38.69-19.22a37.81,37.81,0,0,0-2.69-6.44c-3.07-5.12-9.38-5.17-12.21.1-1.49,2.76-2.3,5.88-3.56,8.77-4.23,9.72-10.9,16.71-21.77,18.57a33.32,33.32,0,0,1-19-2.61c-4.33-1.86-6.66-5.42-8.13-9.62a53.14,53.14,0,0,1-2.95-13.63C238.43,46,238.43,46,234.6,45c-1.41-2.67-1.06-5.59-1.19-8.44,0-1,.51-1.47,1.51-1.55,1.88-.16,3.76-.38,5.65-.58a120.73,120.73,0,0,1,14.2-.94c1.76,0,3.6.48,5.27-.52h0l4.56,0a5.14,5.14,0,0,1,2.38-.65c8.1-.33,16.11-.08,23.72,3.25,6.5,2.85,13.05,2.6,19.63.09C312.13,35,313.89,33.73,316,34.46Z"/> <path class="cls-7" d="M316.48,285.09c-1.84.1-1.59-1.19-1.59-2.34q0-17.61,0-35.22c0-1-.05-2-.08-3,2.27-1.5,4.79-.62,7.21-.78q9-.15,18.06,0c3.32-.15,6.64-.07,10,0a3.34,3.34,0,0,1,2.76.84c0,12.75-.09,25.49,0,38.24,0,1.73-.45,2.45-2.16,2.3a5.2,5.2,0,0,1-3.35.72q-13.72,0-27.44,0A5.2,5.2,0,0,1,316.48,285.09Z"/> <path class="cls-7" d="M250.48,285.09c-1.68.14-2.17-.55-2.16-2.28.06-12.76,0-25.52,0-38.27a3.38,3.38,0,0,1,2.76-.82c3.14,0,6.28-.1,9.42,0,6-.09,12-.11,18.07,0,2.59.18,5.29-.79,7.73.78q0,19.1-.08,38.21c0,1.15.25,2.45-1.59,2.34a5.2,5.2,0,0,1-3.35.72q-13.72,0-27.44,0A5.2,5.2,0,0,1,250.48,285.09Z"/> <path class="cls-8" d="M351,286.94c2-.16,2.76.61,2.55,2.71-.12,1.21-.76,3.38,1.4,3.28,1.84-.08,1-2.1,1.17-3.3a10.18,10.18,0,0,0,0-1.25c0-.59,0-1.31.83-1.25s.56.87.59,1.38c.06.91,0,1.83,0,2.75S358,293,359,293s1.37-.79,1.4-1.7c0-1.08,0-2.16,0-3.25,0-.41.05-.91.56-1,.71-.07.73.53.74,1,0,.91,0,1.83,0,2.75s.25,2.2,1.55,2.12c1.12-.07,1.24-1.14,1.21-2.12s0-1.83,0-2.75c0-.37-.11-.91.46-1s.91.35.94.89c.05,1.08,0,2.16,0,3.25,0,.88.31,1.78,1.36,1.73s1.3-.84,1.27-1.8,0-2.16,0-3.25c0-.45.21-.85.71-.84a.78.78,0,0,1,.77.82c.05,1.08,0,2.16.07,3.24,0,.88.18,1.81,1.26,1.81s1.19-.87,1.25-1.78c.27-3.86.29-3.81,4.16-3.42a44.79,44.79,0,0,1,10.46,2.06,13.73,13.73,0,0,1,9.25,14.55c-.1.88-.42,1.17-1.21,1.16h-1.75q-38,0-75.93,0c-2.08,0-2.91-.32-2.8-2.66.22-4.57.05-9.15.08-13.73,0-.92-.38-2.11,1.15-2.31a6.67,6.67,0,0,1,3.62-.76h27.74A6.69,6.69,0,0,1,351,286.94Z"/> <path class="cls-8" d="M285,286.94c1.15.11,1.16.93,1.16,1.81,0,5.08-.08,10.16,0,15.23,0,2.21-1.43,1.6-2.52,1.6q-30.85,0-61.69,0c-5.08,0-10.16-.1-15.23,0-2,.06-2.33-.73-2.16-2.47,1-9.57,4-12.34,13.74-14.58,2.58-.59,5.27-.68,7.9-1,1.51-.21,2.3.12,2.25,1.93,0,1.22-.88,3.43,1.18,3.43s1-2.2,1.26-3.46a10.88,10.88,0,0,0,0-1.25c0-.52.19-1.06.81-1.06s.71.57.72,1.09c0,1.08,0,2.16,0,3.25a1.34,1.34,0,0,0,1.26,1.55c.92.06,1.28-.71,1.34-1.49.08-1.16,0-2.33.07-3.49,0-.54.32-1,.94-.89s.45.62.46,1c0,1,0,2,0,3s.24,1.81,1.21,1.88c1.17.09,1.46-.94,1.53-1.88s0-2,.05-3c0-.49,0-1.09.75-1,.5,0,.54.56.56,1,0,1.08,0,2.16,0,3.25,0,.91.36,1.74,1.4,1.7s1.34-.85,1.35-1.78,0-1.67,0-2.5c.05-.58-.39-1.58.58-1.6s.79,1,.83,1.73c.05.91,0,1.83,0,2.75,0,.73.39,1.34,1.15,1.39s1.36-.53,1.43-1.38a7.64,7.64,0,0,0,0-2c-.39-2.08.52-2.87,2.51-2.7a6.7,6.7,0,0,1,3.62-.76h27.74A6.67,6.67,0,0,1,285,286.94Z"/> <path class="cls-9" d="M158.6,137c-7.22-1.92-14.53-3.56-21.64-5.82-8.79-2.8-14.25-14.77-9.68-23.5,3.19-6.09,12.81-11.16,20.81-8.87,6.38,1.83,12.82,3.49,19.23,5.22l.36.13a1.5,1.5,0,0,1,.1.75c-.75,3.48-1.84,6.86-2.7,10.32q-2,7.61-4,15.22C160.21,132.59,160.23,135.08,158.6,137Z"/> <path class="cls-9" d="M428.52,110.5a3.81,3.81,0,0,1,1.17-.4c7,0,13.89-.86,20.87-.66,8.41.24,15.62,7.5,16.5,14.64,1,8.22-3.76,15.58-12,18.51a14.56,14.56,0,0,1-4.86.9c-6.88.05-13.75.45-20.61,1a33.59,33.59,0,0,1-.78-8.83c0-2.06.27-4.13-.31-6.16a10.69,10.69,0,0,1-.2-2.75c.36-4.36-.91-8.65-.56-13C427.86,112.64,427.63,111.45,428.52,110.5Z"/> <path class="cls-3" d="M56,76.5h-2.5c-3.1,0-3.22-.34-2.93-3.47.6-6.3,3.48-11.27,8.06-15.51,3.08-2.86,6.33-5.73,7.45-10.07,1-4,.57-7.81-2.68-10.75-2.39-2.17-7.41-2.29-10.87-.48a7.19,7.19,0,0,0-4,5.93C48.43,43.56,47.8,44,46.49,44c-2.33,0-4.66,0-7,0-3.05,0-3.4-.34-2.87-3.24,1.13-6.2,4.29-11,10.18-13.55a26.43,26.43,0,0,1,21.78-.06c10,4.45,13,17.52,6.56,27.55-2.5,3.9-5.9,7-9.19,10.14a13.52,13.52,0,0,0-3.84,7.66c-.74,4-.62,4.05-4.58,4.05Z"/> <path class="cls-10" d="M320.52,96l2-.57c4.7-.35,9.41-.05,14.11-.15,2.19.35.88,1.55.41,2.23-1.8,2.59-3.69,5.11-5.5,7.69-3.76,5.37-7.55,10.72-11.45,16-1.94,2.62-2.77,2.62-4.61,0-2.93-4.13-6.2-8-9.13-12.13a6.24,6.24,0,0,1-1.47-2.56c0-.87.68-1.27,1.31-1.68,4-2.56,8-5,11.9-7.72C318.82,96.55,319.76,96.48,320.52,96Z"/> <path class="cls-10" d="M278.52,95.47l1.88.63c4.91,2.2,9,5.68,13.6,8.44.76.46,1.65.83,1.76,1.9-.7,2.21-2.43,3.74-3.71,5.57-2.28,3.28-4.91,6.3-7.21,9.57-1.44,2-2.44,2.08-3.85.16-5.86-8-11.54-16.09-17.25-24.18-.41-.57-2-1.72.19-2.29C268.79,95.39,273.66,95,278.52,95.47Z"/> <path class="cls-3" d="M92.71,65.54a16.85,16.85,0,0,1,9.1,3.51c6.08,4.92,5.34,14.21-1.51,19.3a31.22,31.22,0,0,1-4.36,2.87,9.67,9.67,0,0,0-5.23,6c-.34,1.16-1,1.44-2,1.06A14.68,14.68,0,0,0,87.22,98c-4.26-1-4.43-1.52-2.37-5.6,1.63-3.24,4.55-5,7.46-6.75s5.75-3.78,5.75-7.8c0-3.06-1.18-4.57-4.37-5.48-2.64-.75-5.34.07-6.39,2.46-.68,1.54-1.48,1.46-2.66,1.16-.64-.16-1.28-.33-1.94-.45-3.62-.68-4.12-1.84-1.88-4.89C83.36,67.18,86.78,65.36,92.71,65.54Z"/> <path class="cls-4" d="M295.48,106.52c-4-3.33-8.67-5.77-12.93-8.78-.74-.52-1.65-.82-2.15-1.65L308.81,96c3.9,0,7.81,0,11.71,0l-14.15,9.45c-.46.31-1.09.42-1.24,1.09-.3,3.54-2.36,6.34-3.95,9.33-.75,1.41-1.73.66-2.24-.32A30.15,30.15,0,0,1,295.48,106.52Z"/> <path class="cls-11" d="M371,244l-.84.1c-5.29.3-10.58,0-15.87.15-1.64,0-2-1-2-2.2,0-4.79-.35-9.59.17-14.38a2.47,2.47,0,0,1,.5-.85,3.19,3.19,0,0,1,1.87-.57c4.8-.09,9.61-.11,14.41,0a3.35,3.35,0,0,1,1.66.46,1.91,1.91,0,0,1,.59.78c.62,5,.28,9.94.2,14.92A2.48,2.48,0,0,1,371,244Z"/> <path class="cls-11" d="M230.39,244.11l-.82-.17a2.43,2.43,0,0,1-.74-1.78c0-4.85-.36-9.7.19-14.54a2.13,2.13,0,0,1,.54-.82,4.18,4.18,0,0,1,2.38-.56q6.58-.07,13.16,0a4.39,4.39,0,0,1,2.39.54,2.15,2.15,0,0,1,.57.81c.61,4.88.27,9.78.21,14.67,0,1.18-.46,2-1.94,2C241,244.14,235.7,244.41,230.39,244.11Z"/> <path class="cls-12" d="M396.51,313.41l-81.39,0a12.53,12.53,0,0,0-.21-2c-.35-1.34.31-1.61,1.43-1.55.58,0,1.16,0,1.75,0h75.37C396.93,309.83,396.93,309.83,396.51,313.41Z"/> <path class="cls-12" d="M286,313.36l-81.39,0c-.42-3.57-.42-3.57,3.05-3.57h75.12C286.38,309.83,286.38,309.83,286,313.36Z"/> <path class="cls-3" d="M12.54,61c6.91,0,11.2,6.2,9.22,13.1a26,26,0,0,1-2.61,5.64,7.61,7.61,0,0,0-1,5.75c.39,1.56-.28,1.78-1.5,2.12-4.18,1.16-4.74.77-4.62-3.68.08-3.19,1.72-5.86,3.12-8.58a6.91,6.91,0,0,0,.4-6,4.12,4.12,0,0,0-5.14-2.79c-2.13.5-3.8,1.64-3.93,4.16-.08,1.59-4.09,4.17-5.55,3.54-.76-.33-.81-1.17-.89-1.93C-.39,68,1.84,65,5.32,62.93A12.35,12.35,0,0,1,12.54,61Z"/> <path class="cls-13" d="M353,227.5c0,4.66.1,9.32,0,14,0,1.92.44,2.62,2.49,2.57,4.9-.12,9.81,0,14.72.06-2.06.82-4.2.3-6.3.36-3.7.11-7.4.06-11.11.08l-12.7-.26a2.41,2.41,0,0,1-.79-2c-.09-4.45-.13-8.9,0-13.34a3.34,3.34,0,0,1,.39-1.42c.15-.2.25-.47.49-.55,4-1.28,8.11-1,12.18-.22C352.68,226.8,352.85,227.2,353,227.5Z"/> <path class="cls-13" d="M230.39,244.11c4.91,0,9.82-.18,14.72-.06,2,0,2.54-.64,2.5-2.57-.11-4.66,0-9.32,0-14a2.1,2.1,0,0,1,2-1.19,79.84,79.84,0,0,1,9.14,0,2.58,2.58,0,0,1,2.1,1.14c1,3.82.35,7.72.46,11.58,0,1.75.55,3.66-.81,5.23l-12.2.25c-5.19,0-10.37,0-15.56-.05C232,244.48,231.08,244.78,230.39,244.11Z"/> <path class="cls-14" d="M286.28,244.53l-7.7-.26a2.47,2.47,0,0,1-.77-2c-.08-4.45-.13-8.9,0-13.35a3.28,3.28,0,0,1,.4-1.42,1.43,1.43,0,0,1,.31-.39c2.19-1.39,10.45-1.25,12.69.2,1,2.14.47,4.42.56,6.64s.05,4.49,0,6.74c0,1.76.66,2.61,2.5,2.56,1.66,0,3.33-.07,5,0,.6,0,1.2,0,1.8,0,2.55.1,5.12-.38,7.64.37a.57.57,0,0,1,.31.75l-20,0C288.09,244.43,287.19,244.5,286.28,244.53Z"/> <path class="cls-15" d="M229.56,95.43a.23.23,0,0,1,.34,0c5.56-.39,11.14-.07,16.7-.17a1.34,1.34,0,0,1,1.54,1.3c.18,3.79.8,7.61-.39,11.36a2.07,2.07,0,0,1-1.52.73c-5.43.12-10.86.48-16.27-.2a1.65,1.65,0,0,1-.73-.64C228.67,103.67,228.11,99.52,229.56,95.43Z"/> <path class="cls-15" d="M370.7,95.43a.23.23,0,0,1,.34,0,2.5,2.5,0,0,1,.74,2c-.06,3.4.42,6.82-.31,10.2a1.57,1.57,0,0,1-.67.7c-5.59.78-11.19.46-16.79.19a1.79,1.79,0,0,1-1.08-.57c-1.3-3.79-.66-7.67-.43-11.52,0-.84.7-1.23,1.59-1.22C359.61,95.36,365.16,95,370.7,95.43Z"/> <path class="cls-14" d="M309,244.4q0-.2,0-.4c-.36-5.53-.7-11.06.23-16.57a2.22,2.22,0,0,1,1.62-1,48.26,48.26,0,0,1,9.81,0,2.24,2.24,0,0,1,1.62,1c.89,2.07.45,4.25.5,6.38.07,2.56,0,5.13,0,7.69a3.44,3.44,0,0,1-.8,2.77l-7.21.26Z"/> <path class="cls-14" d="M383,167.49q0,8.51,0,17a3.65,3.65,0,0,1-3,.75c-3-.22-6.08.72-9-.71a2.2,2.2,0,0,1-.59-1.34c-.25-4.79-.23-9.58,0-14.36a2.36,2.36,0,0,1,.55-1.36A19.5,19.5,0,0,1,383,167.49Z"/> <path class="cls-14" d="M383,108q0,8.52,0,17a3.64,3.64,0,0,1-3,.76c-3-.22-6.09.7-9-.72a3.19,3.19,0,0,1-.67-2.09q-.14-6.46,0-12.91A3.08,3.08,0,0,1,371,108l0,0A19.61,19.61,0,0,1,383,108Z"/> <path class="cls-14" d="M383,197.49q0,8.51,0,17c-2.79,1.37-10.2,1.09-12.23-.45-1-3.55-.37-7.18-.47-10.78-.05-1.93-.47-4,.66-5.78A19.71,19.71,0,0,1,383,197.49Z"/> <path class="cls-14" d="M383,137.5l0,17a3.67,3.67,0,0,1-3,.74c-3-.21-6.08.67-9-.65-.13-.21-.34-.39-.36-.64a64.62,64.62,0,0,1,.15-16c.23-.35.5-.74.9-.81C375.42,136.59,379.23,136.08,383,137.5Z"/> <path class="cls-14" d="M218.12,125V108a18,18,0,0,1,11.39,0l0,0c.1.13.27.25.29.4.74,5.54,1,11.08-.17,16.61A18.06,18.06,0,0,1,218.12,125Z"/> <path class="cls-14" d="M218.11,214.5v-17a18.76,18.76,0,0,1,11.49-.05,1.58,1.58,0,0,1,.47.85c.31,5.24.69,10.48-.21,15.7-.23.35-.5.74-.9.81C225.34,215.42,221.69,215.93,218.11,214.5Z"/> <path class="cls-14" d="M218.13,154.53l0-17c2.8-1.37,9.71-1.1,11.73.46a49.49,49.49,0,0,1-.13,16.6A19,19,0,0,1,218.13,154.53Z"/> <path class="cls-14" d="M218.12,184.51q0-8.51,0-17c2.8-1.36,9.71-1.08,11.73.47,1,3.55.37,7.18.47,10.77.05,1.93.47,4-.65,5.78A18.25,18.25,0,0,1,218.12,184.51Z"/> <path class="cls-16" d="M247.52,108c0-3.48,0-7,.06-10.44,0-1.55-.54-2-2-2-5.22,0-10.44-.06-15.66-.1,4.79-.47,9.59-.15,14.39-.2q14.92-.15,29.84-.15c1.46,0,3-.28,4.39.39L263,95.6c-.59.75-3,0-1.85,2.18.2,2.57.13,5.14.1,7.7a3.83,3.83,0,0,1-.69,2.59c-1.24.93-2.71.75-4.09.69-2.89-.12-5.81.49-8.66-.46Z"/> <path class="cls-16" d="M370.7,95.43c-5.14,0-10.27.15-15.41.09-1.71,0-2.35.46-2.28,2.23.13,3.39.06,6.8.07,10.2l-.34.34c-4.24.66-8.48,1-12.7-.18-1.35-2.09-.57-4.44-.75-6.66a20.5,20.5,0,0,1,.07-3.16c.9-1.9-.48-2.28-1.81-2.68l-15.06-.2c5.78-.7,11.58-.29,17.37-.32,9.38,0,18.75.07,28.13.14C368.89,95.23,369.79,95.36,370.7,95.43Z"/> <path class="cls-14" d="M371,244q0-8.26,0-16.51c.21-.36.42-.8.83-.85,3.71-.48,7.43-1.08,11.07.37.59,5.3-.58,10-4.73,13.65A12.56,12.56,0,0,1,371,244Z"/> <path class="cls-16" d="M371.08,154.49l11.88,0,0,13-11.88,0-.34-.32c-.87-4-.52-8-.23-12A1.65,1.65,0,0,1,371.08,154.49Z"/> <path class="cls-16" d="M383,197.49l-11.88,0-.34-.32a34.17,34.17,0,0,1,0-12.4l.34-.32,11.88,0Z"/> <path class="cls-16" d="M383,108h-11.9q0-6.27,0-12.55c3.56-.51,7.13-.07,10.7-.23,1.18-.05,1.35.57,1.34,1.54C383,100.48,383,104.23,383,108Z"/> <path class="cls-14" d="M229.51,227.5l.06,16.44c-6-.91-11.32-6.74-11.51-12.71,0-1.41,0-2.81.06-4.22C220.94,225.63,227.78,225.92,229.51,227.5Z"/> <path class="cls-16" d="M383,227c-3.08,0-6.16,0-9.24,0a4.79,4.79,0,0,0-2.66.48q0-.25,0-.49a4.13,4.13,0,0,1-.75-3.06c.08-3.05-.29-6.12.24-9.16a1.7,1.7,0,0,1,.56-.77c3,1,6.11.26,9.15.47.91.06,1.83,0,2.75,0Q383,220.75,383,227Z"/> <path class="cls-16" d="M383,137.5h-9.24a4.7,4.7,0,0,0-2.66.48,1.71,1.71,0,0,1-.54-.75c-.3-4-.64-8,.22-12l.34-.32L383,125Q383,131.26,383,137.5Z"/> <path class="cls-16" d="M229.5,168c-3.76-1-7.6-.2-11.39-.5l0-13,11.37-.05a1.7,1.7,0,0,1,.55.75,58.44,58.44,0,0,1,0,12A1.63,1.63,0,0,1,229.5,168Z"/> <path class="cls-16" d="M218.12,184.51l11.37,0,.34.32a33.8,33.8,0,0,1,0,12.41l-.34.32-11.37,0Q218.12,191,218.12,184.51Z"/> <path class="cls-16" d="M229.52,108H218.13c0-3.74,0-7.49-.11-11.23,0-1,.15-1.6,1.34-1.55,3.4.16,6.81-.26,10.19.23Z"/> <path class="cls-17" d="M401,77.4c4.3-1.59,8.64-2.07,13.05-.44a2.63,2.63,0,0,1,2,2.74c0,2.07.91,4.22-.66,6.12-5.06.45-10.1,1.65-15.21.45-1.28-2-1.23-4.2-1.23-6.41C398.93,78.54,400,77.92,401,77.4Z"/> <path class="cls-16" d="M229.51,227.5c-3.76-1-7.6-.2-11.4-.49q0-6.25,0-12.51c3.79-.3,7.63.55,11.39-.5a1.74,1.74,0,0,1,.56.77c.53,3.46.21,6.94.2,10.41a2.71,2.71,0,0,1-.7,1.82A4.4,4.4,0,0,1,229.51,227.5Z"/> <path class="cls-17" d="M188,74.49c5.21-.53,9.94.58,14,4.06.92,3-.35,5.59-1.87,8.08A4.94,4.94,0,0,1,197,86.3c-4-1.36-8.25-1.62-12-3.65C185.24,79.64,184.76,76.37,188,74.49Z"/> <path class="cls-16" d="M229.5,138c-3.76-1-7.6-.2-11.39-.5V125l11.37,0,.34.32c.87,4,.53,8,.23,12A1.62,1.62,0,0,1,229.5,138Z"/> <path class="cls-3" d="M50,91.28c0-4,2.3-6.28,6.35-6.28,4.39,0,6.75,2.27,6.73,6.5,0,3.79-2.47,6-6.67,6S50,95.25,50,91.28Z"/> <path class="cls-11" d="M418.9,138.13c-4.15-3.36-8.06-7-11.85-10.74a4.28,4.28,0,0,1-.78-4.79,1.58,1.58,0,0,1,.68-.55,34.19,34.19,0,0,1,11.48-.56,1.9,1.9,0,0,1,.75.49c.9,5.14.72,10.33.79,15.51C419.74,137.92,419.45,138.25,418.9,138.13Z"/> <path class="cls-11" d="M185,124.89A135,135,0,0,1,171,133c-.63.34-1,.13-1.22-.53a93.9,93.9,0,0,1,4-15,1.47,1.47,0,0,1,.68-.41A42.24,42.24,0,0,1,186,120.19a1.21,1.21,0,0,1,.34.7A7.09,7.09,0,0,1,185,124.89Z"/> <path class="cls-18" d="M209,97A92.3,92.3,0,0,1,206,108a2.11,2.11,0,0,1-1.48.14,70.73,70.73,0,0,1-9.19-2.63,1.6,1.6,0,0,1-.51-.6c.27-3.44,1.44-6.65,2.47-9.89a1.48,1.48,0,0,1,.68-.4C201.81,94.84,205.28,96.53,209,97Z"/> <path class="cls-18" d="M169.52,97a70.39,70.39,0,0,1,2.5-9.47c3.6.42,7,1.79,10.46,2.65a1.73,1.73,0,0,1,.77.89c-.61,3.47-1.19,7-3,10.06a1.7,1.7,0,0,1-.78.18c-2.83-.49-5.54-1.44-8.32-2.13C170.07,98.91,169,98.44,169.52,97Z"/> <path class="cls-18" d="M427.13,91.91a67.19,67.19,0,0,1,.52,10.4c.47,1.74,0,2.7-2,2.45-3-.38-6,.89-9,.38a1.7,1.7,0,0,1-.54-.71c-.57-3.26-1.13-6.52-.54-9.84a2,2,0,0,1,.46-.76c3.24-1,6.6-.5,9.9-.79.21-.06.61,1,.67-.12A1.22,1.22,0,0,1,427.13,91.91Z"/> <path class="cls-18" d="M419,122l-.49-.06c-1.25-1.79-.56-3.82-.74-5.74.2-1.74-.08-3.48.06-5.22a1.53,1.53,0,0,1,1.12-.92c3-.3,6.07-.75,9.11-.09l.43.5c-.35,5.52.72,11,.51,16.5-1.3-.2-1-1.29-1.17-2.12s.13-1.8-.2-2.67C424.75,122.76,421.87,123.36,419,122Z"/> <path class="cls-18" d="M389.69,106l-.22-4.34a38.31,38.31,0,0,1-.1-6.39.87.87,0,0,1,.64-.48,14.16,14.16,0,0,0,4.85-.31,14.36,14.36,0,0,1,5.2.06,1.82,1.82,0,0,1,.73.52c.86,3.24.5,6.57.71,9.86a1.68,1.68,0,0,1-.89,1c-3.2.74-6.49,0-9.7.55A1.59,1.59,0,0,1,389.69,106Z"/> <path class="cls-18" d="M404,124.64a85.7,85.7,0,0,1-7.93-7.2c-1-1.3-.6-2.89-.91-4.33a2,2,0,0,1,.25-1.2c1.81-1.39,4-.94,6-1.11,1.6,0,3.24-.35,4.74.57,1.15,1.77.16,3.89.95,5.71.14,1.83.65,3.69-.52,5.39l0,0c-1,.92-2.32.45-3.45.63C403.89,123.32,404.4,123.68,404,124.64Z"/> <path class="cls-18" d="M186.05,121l0-.51c-.74-1.26,0-2.43.26-3.6.46-2,1.1-4,1.64-6a1.86,1.86,0,0,1,1-1.21c1.79-.38,3.39.51,5.08.77,1.67.65,3.63.49,5.05,1.83a2,2,0,0,1,.08,1.51c-.46,1.54-.6,3.24-2.08,4.28l-6.59,3.81C188.93,122,187.39,122,186.05,121Z"/> <path class="cls-14" d="M182.56,90.52a33.67,33.67,0,0,1-10.53-3c.37-3.18,2.29-5.47,4.41-7.65,3,.24,6,.36,8.37,2.56A10.18,10.18,0,0,1,182.56,90.52Z"/> <path class="cls-19" d="M209,97a3.11,3.11,0,0,1-2.6.19c-2.75-.81-5.54-1.51-8.31-2.25a13.39,13.39,0,0,1,2.28-8.51c2-.77,3.59.63,5.41.83.94.11,1.84.8,2.82.14a13.79,13.79,0,0,1,.9,7.08c-.26.64-1.12,1.15-.43,2Z"/> <path class="cls-13" d="M426.53,93.49a57.23,57.23,0,0,1-10.45.48c-1.35-2.69-1-5.45-.31-8.22,2.78-2,5.78-1.77,8.84-.85A12.21,12.21,0,0,1,427,90.52C426.43,91.44,427.17,92.58,426.53,93.49Z"/> <path class="cls-4" d="M259.52,12c-.34,1.57,1,2.38,1.66,3.46s.76,1.57-.48,2.29c-3,1.75-3,1.82-5-1-.47-.67-.73-1.53-1.64-1.8.87-2.61-1.77-3.64-2.57-5.51s-2.39-3.54-3.61-5.31c-.73-1.06-1.43-2.19,0-3.22s2.55,0,3.31,1.06c2.13,3,4.14,6.17,6.23,9.24.33.49.37,1.71,1.49.79Z"/> <path class="cls-4" d="M345.08,16.09a7.46,7.46,0,0,1-.42.87c-1.42,2.2-4,2.08-5.38-.19-.35-.57,0-.9.22-1.32.47-1,1.5-1.76,1.67-3,1.76.08,2.05-1.22,2.36-2.51,2.31-1.86,3.3-4.69,5.12-6.91.47-.57.84-1.22,1.34-1.77A1.85,1.85,0,0,1,352.82,1c1,.82.79,1.75.2,2.64q-3.38,5-6.84,10A4.7,4.7,0,0,0,345.08,16.09Z"/> <path class="cls-14" d="M428.08,110a31.29,31.29,0,0,1-7.38.51,4.47,4.47,0,0,0-2.63.51c-.93.14-1.14-.59-1.45-1.2-.14-1.6-.83-3.21,0-4.82a26,26,0,0,1,9-.93c1.59.13,2.09-.31,2-1.76C428.18,104.85,428,107.43,428.08,110Z"/> <path class="cls-14" d="M169.52,97c.09,1.15.89,1.33,1.85,1.6,2.76.76,5.62,1.18,8.23,2.44,1,1.67,0,3.11-.51,4.61-.49.78-.8,1.78-2,1.68-2.12-.71-4.29-1.21-6.45-1.75a4.68,4.68,0,0,1-3-1.57h-.29Z"/> <path class="cls-20" d="M351,286.94h-35a2.94,2.94,0,0,0,.42-1.86h34.14A2.93,2.93,0,0,0,351,286.94Z"/> <path class="cls-20" d="M285,286.94h-35a2.93,2.93,0,0,0,.42-1.85h34.14A2.94,2.94,0,0,0,285,286.94Z"/> <path class="cls-13" d="M401,111.5a22.34,22.34,0,0,0-5.46.51c-1.1,1.14-3,.13-4,1.48a2.51,2.51,0,0,1-1.39-1.53c.5-1.14-.06-2.26-.08-3.38,0-.88-.25-1.83.48-2.58,3.29-1,6.67-.27,10-.5C401.63,107.43,402.32,109.38,401,111.5Z"/> <path class="cls-21" d="M418.9,138.13l.65-.64c2.9-1.4,5.92-.55,8.91-.66.1-2.37-.91-5,.64-7.43a93.65,93.65,0,0,1,.51,15.12,5.65,5.65,0,0,1-6.66-2.38A35.2,35.2,0,0,0,418.9,138.13Z"/> <path class="cls-22" d="M80.52,107.25a4,4,0,0,1,3.79-4.16A4.59,4.59,0,0,1,89,107.58a3.89,3.89,0,0,1-4,3.9C82.29,111.48,80.51,109.81,80.52,107.25Z"/> <path class="cls-18" d="M170.05,132.5l1,.55a36.12,36.12,0,0,1-8.2,4.45c-1.6.64-2.86-.11-4.24-.54l1.89-6.46a2.44,2.44,0,0,1,2.35-.46C165.28,130.75,167.93,130.87,170.05,132.5Z"/> <path class="cls-18" d="M401,77.4a3.86,3.86,0,0,0-1.36,4.4,18.16,18.16,0,0,1,.4,4.19.42.42,0,0,1-.1.64,34.13,34.13,0,0,1-5.52.51,11.84,11.84,0,0,0-2.41.06,2.34,2.34,0,0,1-.69,0c-.34-.16-.6-.35-.34-.77A16.67,16.67,0,0,1,401,77.4Z"/> <path class="cls-18" d="M424.61,84.9l-8.6.6a.3.3,0,0,1-.49,0c.07-2.28-.09-4.55-.24-6.83-.07-1-1-1-1.22-1.67A15.88,15.88,0,0,1,424.61,84.9Z"/> <path class="cls-18" d="M184.59,82.52c-2.57-1.36-5.56-1.4-8.16-2.66A16.15,16.15,0,0,1,188,74.49c-1.8,1.35-1.59,3.53-2.19,5.37-.28.86-.52,1.74-.77,2.61A.31.31,0,0,1,184.59,82.52Z"/> <path class="cls-18" d="M208.6,87.44c-.06.75,0,1.45-1.23,1-2.23-.77-4.55-1.3-6.83-1.94q-.29.3-.51-.05c.8-2.6,1.86-5.14,2-7.91A15.13,15.13,0,0,1,208.6,87.44Z"/> <path class="cls-22" d="M18.6,92a3.55,3.55,0,0,1,3.29,3.4c0,1.73-2.19,3.61-4.13,3.51a3.79,3.79,0,0,1-3.16-3.6A3.88,3.88,0,0,1,18.6,92Z"/> <path class="cls-23" d="M391,86.43l.55.57c.58,2.87-.59,5.41-1.5,8-1.17,2.13-.07,4.46-.58,6.65C388.89,96.47,388.16,91.27,391,86.43Z"/> <path class="cls-24" d="M186.05,121a10.13,10.13,0,0,1,4.44.86,22.79,22.79,0,0,1-5.47,3A7.89,7.89,0,0,1,186.05,121Z"/> <path class="cls-25" d="M198.58,113.52l.44-1c1.55-.47,2.82.28,4,.82.5-1.9.58-4.06,2-5.79l1,.45c-.81,2.25-.1,5.19-2.91,6.56A3.83,3.83,0,0,1,198.58,113.52Z"/> <path class="cls-26" d="M198.58,113.52c1.54.26,2.93,1.15,4.56,1l-6.06,3.5A20.1,20.1,0,0,0,198.58,113.52Z"/> <path class="cls-13" d="M395.56,113c.94,1.39.27,3,.51,4.45a16.87,16.87,0,0,1-4.1-3.75C392.82,111.67,394.23,112.55,395.56,113Z"/> <path class="cls-27" d="M404,124.64l-1.23-2.12h3.77a13.28,13.28,0,0,0,.52,4.88A11.28,11.28,0,0,1,404,124.64Z"/> <path class="cls-28" d="M390.56,106c-.35,2,.67,4-.4,6a22,22,0,0,1-.47-6Z"/> <path class="cls-25" d="M395.56,113c-1.19.25-2.59-.57-3.59.7a.76.76,0,0,1-.42-.21c.45-2.9,2.72-.87,4-1.48Q395.56,112.5,395.56,113Z"/> <path class="cls-29" d="M426.53,93.49c.19-1-.4-2.1.48-3l.12,1.39C426.73,92.36,427.64,93.31,426.53,93.49Z"/> <path class="cls-30" d="M249,24.94c.55-.35,1.18-.77,1.7-.18.24.27-.18.71-.66.73C249.87,25,249.34,25.13,249,24.94Z"/> <path class="cls-31" d="M209.07,96.51c-1-.9-.38-1.47.43-2C209.88,95.3,208.83,95.77,209.07,96.51Z"/> <path class="cls-1" d="M12.06,167.28c0-6.49,0-6.38,5-6.83,9.58-.85,19.18-1.5,28.78-2.06,7.53-.44,15.07-.86,22.59-1.48,9.16-.75,18.37-1.11,27.49-2.37,1.75-.24,2.89,0,2.68,2.26a59.52,59.52,0,0,0,0,6.24c.17,11.56.15,23.13.57,34.68.4,11,1,22,2,33a218.51,218.51,0,0,0,4.32,29.72c.45,2-.05,2.8-2.13,3-12.52,1.33-25,2.74-37.61,3.58-9.51.64-19,1.41-28.54,2-5.13.3-10.24.78-15.35,1.31-1.36.14-1.77-.27-1.94-1.49-.58-4.18-1.33-8.34-1.82-12.53q-1.33-11.22-2.42-22.48c-.47-4.79-.85-9.59-1.07-14.39-.52-11.53-1.23-23-1.7-34.58C12.63,178.6,13,172.26,12.06,167.28Z"/> <path class="cls-4" d="M316,34.46c-4.53,1.3-8.79,3.51-13.61,3.77-3.35.18-6.73.22-9.8-1.16-8.41-3.8-17.23-4.57-26.28-4.08-.58,0-1.16,0-1.74,0,4.37-3.84,9.64-5.89,15.2-7,11.76-2.4,23-1.28,33.21,5.68C314.14,32.39,315.45,33,316,34.46Z"/> <path class="cls-32" d="M349.06,33.07c-8.44-.26-16.89-.47-25.33-.16-2.06.08-4.1.36-6.15.55,6.58-6.37,14.43-6.28,22.57-4.3A40.75,40.75,0,0,1,349,32.28C349.66,32.59,349.87,32.8,349.06,33.07Z"/> <path class="cls-33" d="M260,33h-4.5a7.89,7.89,0,0,1,4.72-3L260,33Z"/> <path class="cls-34" d="M356.55,51.24a40,40,0,0,1-1.49,12.11c-1.12,4.08-4.07,6.27-7.74,7.43-8.58,2.71-17.09,3-24.66-2.8-5.51-4.21-8.41-10.14-9.56-16.92a23.28,23.28,0,0,1-.58-4.18c0-5.34,1.2-7.11,6.44-8.57a56.25,56.25,0,0,1,21.68-1.46c2.8.32,5.59.55,8.36,1.09,5.18,1,7.5,3.64,7.55,8.86C356.56,48.15,356.55,49.48,356.55,51.24Z"/> <path class="cls-34" d="M267,37a41,41,0,0,1,14.09,1.44c6.08,1.86,7.81,4.36,6.91,10.46-1,6.92-3.35,13.25-8.75,18.23s-11.78,6.17-18.67,5.69a35.33,35.33,0,0,1-7.24-1.63c-5.48-1.59-7.77-5.67-8.72-10.75-.87-4.67-.59-9.43-.54-14.16a8,8,0,0,1,6.21-7.75A64.32,64.32,0,0,1,267,37Z"/> <path class="cls-11" d="M322,244.27q0-8.39,0-16.79a.61.61,0,0,1,.29-.8c3.33-.95,6.73-.37,10.1-.42,2.45,0,5-.46,7.37.43a.67.67,0,0,1,.31.82q0,8.39,0,16.78C334.07,244.49,328,244.51,322,244.27Z"/> <path class="cls-11" d="M278.57,227.49q0,8.39,0,16.79c-6,.23-12.05.21-18.08,0q0-8.39,0-16.78a.65.65,0,0,1,.3-.81,8.8,8.8,0,0,1,4.39-.45c4.36.18,8.75-.54,13.08.44A.63.63,0,0,1,278.57,227.49Z"/> <path class="cls-35" d="M331.57,297.49a4.36,4.36,0,0,1-4.51,4.29,4.53,4.53,0,0,1-4.29-4.33,4.46,4.46,0,0,1,4.45-4.4A4.33,4.33,0,0,1,331.57,297.49Z"/> <path class="cls-35" d="M278.33,297.4a4.54,4.54,0,0,1-4.49,4.4,4.38,4.38,0,0,1,0-8.75A4.46,4.46,0,0,1,278.33,297.4Z"/> <path class="cls-15" d="M170.05,132.5c-3.27-.28-6.21-2.14-9.56-2,1-5.24,2.56-10.36,4.09-15.47a16.78,16.78,0,0,1,9.46,2.51A121.94,121.94,0,0,1,170.05,132.5Z"/> <path class="cls-16" d="M174,117.52,164.58,115a93.44,93.44,0,0,1,2.87-10.65c3.18,1.08,6.62,1.29,9.61,3a1.21,1.21,0,0,1,.28.73c-.8,3.17-1.22,6.46-2.8,9.41Z"/> <path class="cls-36" d="M177,107.5c-3-1.46-6.56-1.52-9.55-3.13a.53.53,0,0,1,.16-.38c3.07,1.25,6.56,1.21,9.46,3A.32.32,0,0,1,177,107.5Z"/> <path class="cls-15" d="M429.11,129.4c0,2.31,0,4.61,0,6.92,0,.78.11,1.18-1.12,1.09-2.78-.21-5.59,0-8.38.09-.31-4.69-.63-9.37-.91-14.06A4.67,4.67,0,0,1,419,122c3.09-.25,6.25.51,9.25-.68.75,1.91-.34,3.92.75,5.65Z"/> <path class="cls-37" d="M337.55,95.61h2.91c.46.76-.62,1.2-.43,1.88-2.08,3.91-4.95,7.28-7.5,10.87-3.54,4.74-6.7,9.77-10.42,14.39-.62.83-1.18,1.7-1.74,2.57-2.39,3.22-2.77,3.18-5.66-.55-1.67-2.24-3.4-4.43-5.15-6.6-1.08-1.36-2.17-2.7-3.24-4.07-1.54-2-1.5-1.85-2.85.38-2.16,3.58-1.9,7.41-1.71,11.28s.09,7.89,0,11.83q.15,8.65,0,17.3c.51,6.56-.65,13.07-.54,19.61a11.11,11.11,0,0,0,.35,3.45,38.49,38.49,0,0,1,.18,6.63q.15,6.47,0,12.93c.1,5.65.11,11.29,0,16.94.09,4.19.1,8.38,0,12.57.14,4.72,0,9.44,0,14.15A3.71,3.71,0,0,1,301,244l-1.52,0a4.23,4.23,0,0,1-.76-3.05c0-4.46-.07-8.92,0-13.38s-.07-9,0-13.54c-.06-5.49-.1-11,0-16.46-.09-4.35-.1-8.69,0-13-.09-5.65-.11-11.3,0-16.94-.1-4.32-.08-8.65,0-13-.08-2.53-.06-5.07,0-7.6.1-9-.07-18,0-27a34.13,34.13,0,0,0-3-7.65c-1.82,1.64-3,3.64-4.41,5.4-2,2.28-3.72,4.7-5.55,7.07-.15.2-.3.39-.46.58-2.39,3.06-2.91,3.05-5.19,0-.57-.87-1.13-1.74-1.74-2.58-3.72-4.62-6.84-9.69-10.43-14.4-2.17-2.73-4-5.7-6.12-8.47A17.58,17.58,0,0,1,260.54,97c-.39-.72-1.27-1.63.59-1.46.64.06,1.28,0,1.92.06,6.15,8.61,12.36,17.18,18.41,25.85,1.27,1.82,1.92,1.17,2.86-.08q5.57-7.44,11.15-14.86l4.56,10c2.3-3.23,3.36-6.77,5.1-10,3.72,5,7.41,9.92,11.16,14.85.63.83,1.3,2.26,2.56.48Q328.18,108.72,337.55,95.61Z"/> <path class="cls-15" d="M371,214.51q0,6.24,0,12.49h-18a2.13,2.13,0,0,1-.7-1.55c.06-3.69-.76-7.43.56-11.06a2.92,2.92,0,0,1,1.86-.63c4.73-.12,9.47-.11,14.2,0A3,3,0,0,1,371,214.51Z"/> <path class="cls-16" d="M353.06,214.51q0,6.24,0,12.49,0,.25,0,.5a35.35,35.35,0,0,0-12.91,0L340,227a4.12,4.12,0,0,1-.77-3c.06-3-.24-6.11.19-9.14a2.17,2.17,0,0,1,.42-.82c4.29-.51,8.59-.17,12.89-.18A.46.46,0,0,1,353.06,214.51Z"/> <path class="cls-15" d="M229.56,227q0-6.24,0-12.49a3.25,3.25,0,0,1,2.3-.78c4.55-.06,9.11-.07,13.66,0a3.47,3.47,0,0,1,2.11.61,22.14,22.14,0,0,1-.08,12.66Z"/> <path class="cls-16" d="M247.54,227q0-6.24,0-12.49a.45.45,0,0,1,.27-.69c4.28,0,8.56-.25,12.83.11a2.24,2.24,0,0,1,.46.82c.47,3.39.18,6.79.19,10.18a3,3,0,0,1-.73,2.07l-.05.5a35.39,35.39,0,0,0-12.9,0Z"/> <path class="cls-16" d="M278.57,227.49q0-.24,0-.49a4.17,4.17,0,0,1-.75-3.06c.07-3.06-.26-6.13.21-9.19a2.13,2.13,0,0,1,.46-.82,75.56,75.56,0,0,1,12.38,0,2.06,2.06,0,0,1,.78.45c.4,4.07,0,8.15.19,12.23,0,.45-.11.89-.73.85A34.8,34.8,0,0,0,278.57,227.49Z"/> <path class="cls-11" d="M301,244l0-16.94c2.69-1.37,5.45-.88,8.22-.34a.59.59,0,0,1,.27.79c0,4.65,0,9.29,0,13.94,0,.87.33,1.84-.47,2.59Z"/> <path class="cls-11" d="M291.08,227.48l.47-.48c2.73-1,5.44-1.61,8,.49q0,8.25,0,16.49c-2.17,0-4.33-.07-6.49,0-1.57.08-2-.57-2-2C291.11,237.15,291.08,232.31,291.08,227.48Z"/> <path class="cls-11" d="M229.49,125l.06-17,18,0,.09.06c.14.3.08-.12.14.2a44.2,44.2,0,0,1-.12,16.83,43.24,43.24,0,0,1-18.07,0Z"/> <path class="cls-11" d="M371,108q0,8.49.06,17l-.07,0a3.24,3.24,0,0,1-2.3.76q-6.69.09-13.38,0a3.59,3.59,0,0,1-2.34-.68,1.61,1.61,0,0,1-.49-.85,88.61,88.61,0,0,1,0-15.38A1.71,1.71,0,0,1,353,108l.08-.05Z"/> <path class="cls-16" d="M309.55,227.47q0-.24,0-.48a4.21,4.21,0,0,1-.73-3.06c.06-3-.24-6.11.2-9.15a2.15,2.15,0,0,1,.43-.82,86.19,86.19,0,0,1,12.69-.06,2.15,2.15,0,0,1,.48.81,71.92,71.92,0,0,1,.18,10.45,2.74,2.74,0,0,1-.69,1.83q0,.24,0,.49A35.19,35.19,0,0,0,309.55,227.47Z"/> <path class="cls-11" d="M371.1,167.54q0,8.47,0,16.94l-.07.06a3,3,0,0,1-2.05.72q-6.92.13-13.83,0a3.37,3.37,0,0,1-2.09-.63,2.54,2.54,0,0,1-.71-1.82c0-4.9-.37-9.81.19-14.7a2.1,2.1,0,0,1,.55-.82,5.62,5.62,0,0,1,3.15-.57q5.75,0,11.49,0c1.16,0,2.36-.08,3.32.78Z"/> <path class="cls-11" d="M353.06,214.51,353,214c-.14-.3-.1.13-.15-.19a41.7,41.7,0,0,1,.11-16.36,43.86,43.86,0,0,1,18.07,0l.07.06q0,8.24,0,16.48l0,.51Z"/> <path class="cls-11" d="M371,137.5l0,.5q0,8.25,0,16.49l0,.5a2.94,2.94,0,0,1-2,.76c-4.79.07-9.58.13-14.38,0a3.05,3.05,0,0,1-1.42-.42,1.8,1.8,0,0,1-.61-.76,91.08,91.08,0,0,1,0-16.46,2,2,0,0,1,.56-.81,5.74,5.74,0,0,1,3.15-.56q5.74,0,11.48,0C368.88,136.71,370.07,136.63,371,137.5Z"/> <path class="cls-11" d="M247.6,214l-.06.51h-18l-.05-.52q0-8.24,0-16.47l.07-.06a3.3,3.3,0,0,1,2.31-.73c4.46-.06,8.92-.06,13.38,0a3.58,3.58,0,0,1,2.34.68,2.15,2.15,0,0,1,.61,1.34,135,135,0,0,1,0,13.94A1.91,1.91,0,0,1,247.6,214Z"/> <path class="cls-11" d="M229.5,138l.05-.51a3,3,0,0,1,2.05-.74c4.79-.07,9.58-.13,14.38,0a3.05,3.05,0,0,1,1.42.42,1.79,1.79,0,0,1,.61.76,90.64,90.64,0,0,1,0,16.46,2,2,0,0,1-.56.81,5.75,5.75,0,0,1-3.15.56q-5.74,0-11.48,0c-1.16,0-2.35.06-3.31-.81l-.05-.5Q229.5,146.24,229.5,138Z"/> <path class="cls-11" d="M229.5,168l.05-.52a3,3,0,0,1,2.06-.72c4.72-.07,9.43-.1,14.15,0a3.4,3.4,0,0,1,1.66.46,1.87,1.87,0,0,1,.6.78c.63,5,.28,10,.21,15a2.47,2.47,0,0,1-.62,1.6,44.37,44.37,0,0,1-18,0l-.07-.06Q229.5,176.23,229.5,168Z"/> <path class="cls-14" d="M247.57,125q0-8.48,0-17l12.9,0,.34.35c1,3.58.35,7.23.44,10.84.05,1.94.47,4-.63,5.83a3,3,0,0,1-2.28.73c-3.49-.12-7,.53-10.48-.42Z"/> <path class="cls-17" d="M260.54,97l8,11a9.23,9.23,0,0,1-8,0l0,0Q260.53,102.5,260.54,97Z"/> <path class="cls-14" d="M353,108l0,17-.35.34c-4.25.61-8.5,1.05-12.72-.26-.14-.2-.35-.39-.37-.64a64.64,64.64,0,0,1,.15-16.08l.35-.34Z"/> <path class="cls-17" d="M332.06,108c2.82-3.38,4.84-7.36,8-10.5q0,5.25.06,10.5l0,0A9.28,9.28,0,0,1,332.06,108Z"/> <path class="cls-17" d="M353.06,155h18q0,6.25,0,12.5h-18a2.62,2.62,0,0,1-.76-2q-.15-4.21,0-8.43A2.63,2.63,0,0,1,353.06,155Z"/> <path class="cls-17" d="M371,197.46l-18,0-.31-.34a37.21,37.21,0,0,1,0-12.33l.32-.34,18,0Q371,191,371,197.46Z"/> <path class="cls-15" d="M371,137.5h-18a1.93,1.93,0,0,1-.7-1.53c.1-3.66-.84-7.39.64-11h0l18,0Q371,131.25,371,137.5Z"/> <path class="cls-15" d="M247.54,167.47h-18q0-6.25,0-12.49h18a2.65,2.65,0,0,1,.76,2q.14,4.21,0,8.43A2.64,2.64,0,0,1,247.54,167.47Z"/> <path class="cls-17" d="M229.56,184.54l18,0,.31.35a37.85,37.85,0,0,1,0,12.33l-.31.34-18,0Q229.56,191,229.56,184.54Z"/> <path class="cls-11" d="M415.52,85.47a3.86,3.86,0,0,0,.49,0q0,4.24.07,8.47l-.06.51a11.48,11.48,0,0,1-4.65.74c-2.83.09-5.66-.15-8.47.35a2.68,2.68,0,0,1-2.35-.57L400,95a10.61,10.61,0,0,1-.05-8.48l.07-.51C405.23,86.35,410.36,85.3,415.52,85.47Z"/> <path class="cls-11" d="M200,86.47l.51.05L198.1,95l-.54,0a2.94,2.94,0,0,1-2.16-.08c-3.44-.83-6.81-1.92-10.26-2.72A3.07,3.07,0,0,1,183,91l-.48-.49c.74-2.65,1.82-5.22,2-8l.49-.05Z"/> <path class="cls-15" d="M247.54,137.49h-18q0-6.24,0-12.48l18,0,0,0c1.47,2.81.52,5.83.72,8.75C248.41,135,248.58,136.4,247.54,137.49Z"/> <path class="cls-14" d="M406.58,122.48l0-5.47a1.77,1.77,0,0,1-.23-.94c-.15-4.21-.16-4.23,4.13-4.29,1.66,0,3.27-.45,4.93-.46,2.52,0,2.87.3,2.92,2.75a3.52,3.52,0,0,0,.22,1.94q0,3,0,6C414.53,121.75,410.57,122.41,406.58,122.48Z"/> <path class="cls-14" d="M174.54,117.48A38,38,0,0,1,177,108a1.57,1.57,0,0,1,1.13-.46,58.09,58.09,0,0,1,9.58,2.55c.39.13.58.57.8.92l-2.5,9.48Z"/> <path class="cls-17" d="M183,91c4.87,1.22,9.77,2.33,14.52,4A49.85,49.85,0,0,1,195,105a2.43,2.43,0,0,1-1.92.1c-3.86-.86-7.63-2.07-11.47-3a2.17,2.17,0,0,1-1.57-1.1Z"/> <path class="cls-11" d="M180.09,101l15,4,.51.05a7.84,7.84,0,0,1-1.54,6l-5-1a50.24,50.24,0,0,1-9.4-2.26c-1.06-.31-1.78-1-1.09-2.23a14.23,14.23,0,0,0,1-4.48Z"/> <path class="cls-14" d="M194,111l1.54-6,9.48,2.52c-.15.72-.25,1.45-.46,2.15-1.36,4.45-.1,4.75-5.56,2.82Z"/> <path class="cls-17" d="M400.56,95c4.64-1,9.41,0,14.07-.9.43-.08.93.24,1.4.38-.27,3.35.48,6.64.5,10-1,.95-2.32.73-3.52.95a52.07,52.07,0,0,1-9.42.34,3.15,3.15,0,0,1-2.54-.75A51.46,51.46,0,0,1,400.56,95Z"/> <path class="cls-11" d="M401.05,105a142,142,0,0,0,15.48-.54l.06.53a16.83,16.83,0,0,1,.45,5c0,1.15-.93,1.35-1.69,1.38-3.1.14-6.2.75-9.31.11h-5c.31-2-.58-4-.46-6Z"/> <path class="cls-38" d="M406,111.5c2.3-1,4.71-.33,7.06-.48,1.39-.09,2.79,0,3.94-1l1,1c.81,1.6.37,3.31.45,5-.14-.2-.36-.39-.4-.61-.56-3.57-.8-3.75-4.42-3.34a22.86,22.86,0,0,1-4.44.41c-2.25-.19-3.07.63-2.74,2.81a11.25,11.25,0,0,1,0,1.75C405.51,115.25,406.31,113.32,406,111.5Z"/> <path class="cls-14" d="M400,86.49,400,95l-5.49,0A9.17,9.17,0,0,1,390,95h0c-.25-2.81,1-5.33,1.5-8h0c.75-.58,1.75.11,2.49-.49C396,87,398,85.45,400,86.49Z"/> <path class="cls-23" d="M390,95h4.51A4.65,4.65,0,0,1,390,95Z"/> <path class="cls-39" d="M178.56,105.5c-.23,1.43.92,1.54,1.81,1.87,2.83,1.07,6,1.11,8.68,2.61a1.16,1.16,0,0,0-.52,1,66.44,66.44,0,0,0-11.5-3,3.52,3.52,0,0,0,0-.48l.07-.51C178.16,107.09,177.89,105.82,178.56,105.5Z"/> <path class="cls-23" d="M394,86.51c-.7.82-1.65.37-2.49.49C392.25,86.17,393.2,86.61,394,86.51Z"/> <path class="cls-40" d="M64.56,189.55c0,2.33.18,4.9-1.18,7.28-1.8,3.14-4.82,4.07-8,4.07s-6.29-1.42-7.6-4.7a33.25,33.25,0,0,1-2-16.87c.69-5.17,4-7.72,9.06-7.83,4.25-.09,7.57,2.66,8.69,7.45A40.32,40.32,0,0,1,64.56,189.55Z"/> <path class="cls-40" d="M83.24,198c-1.42.21-2.31-.09-2.25-1.77,0-.89-.37-1.78-.41-2.68-.05-1.22-.44-1.46-1.71-1.27a79.69,79.69,0,0,1-8.14.73c-2.6.12-3.65-1.33-2.47-3.68,3.09-6.15,6.32-12.24,9.57-18.31.88-1.65,2.63-1.61,4.18-1.42s1.4,1.67,1.5,2.73q.61,6.79,1,13.6c.08,1.34.32,2,1.89,1.67,1.11-.26,2.19-.16,2.14,1.52,0,1.28.21,2.57-1.78,2.45-1.29-.08-1.79.55-1.38,1.9a14.34,14.34,0,0,1,.15,2.22C85.81,197.52,85.09,198.35,83.24,198Z"/> <path class="cls-40" d="M37.76,202c-1.61.31-2.37-.27-2.27-2,0-.64-.39-1.29-.37-1.93,0-1.63-.35-2.11-2.18-1.73a47.1,47.1,0,0,1-7.65.64c-2.66.11-3.71-1.28-2.53-3.64,3.12-6.23,6.37-12.4,9.7-18.52.87-1.6,2.73-1.49,4.26-1.22,1.32.23,1.22,1.64,1.31,2.65q.59,6.79,1,13.6c.08,1.27.21,2.1,1.84,1.73,1.07-.24,2.24-.25,2.17,1.46,0,1.23.31,2.61-1.73,2.5-1.24-.07-1.86.45-1.44,1.85a13.93,13.93,0,0,1,.16,2.22C40.29,201.41,39.7,202.37,37.76,202Z"/> <path class="cls-41" d="M329,57c-1.47.93-2.89,2-4.43,2.76-2.86,1.46-5.14.83-6.79-2-2.44-4.13-2.62-8.7-2.05-13.3A4.6,4.6,0,0,1,318.64,41a25.74,25.74,0,0,1,17-1.82c1.73.39,2.4,1.64,2.39,3.33-.63.61.3,1.85-.9,2.24-1.55.06-3.13-.28-4.66.33-4.25,1.69-5.57,6.54-2.88,10.77C329.86,56.44,329.47,56.73,329,57Z"/> <path class="cls-42" d="M337.11,44.58l.93-2.1A2.41,2.41,0,0,0,339.49,45a7.77,7.77,0,1,1-9,12.67A2.77,2.77,0,0,0,329,57l.56-1c1-2,2.63-3.54,3.9-5.34S335.6,46.43,337.11,44.58Z"/> <path class="cls-41" d="M260.52,57.48c-2.46,1.34-4.62,3.22-7.56,3.68s-4.26-.1-5.33-2.73a19.64,19.64,0,0,1-.36-13.64,6.54,6.54,0,0,1,4.08-4.15,30.64,30.64,0,0,1,17.18-1c3,.59,2.52,2.75,2,4.86-.55.4.26,1.7-1.06,1.59a6.49,6.49,0,0,0-8.15-.06,7,7,0,0,0-2.05,8.46c.38.83,1,1.49,1.39,2.33A.72.72,0,0,1,260.52,57.48Z"/> <path class="cls-42" d="M260.52,57.48q0-.23.06-.46c.77-1.8,2.52-2.74,3.72-4.18,1.83-2.22,3.31-4.7,5.25-6.83l1-1.54a5.75,5.75,0,0,0,.6,1.32c3,3.7,3.32,7.88.84,10.54C268.38,60.18,265,60.52,260.52,57.48Z"/> <path class="cls-15" d="M322.08,227V214.51a3.45,3.45,0,0,1,2.54-.79q6.45-.07,12.9,0a3.55,3.55,0,0,1,2.54.79q0,6.24,0,12.49Z"/> <path class="cls-15" d="M278.53,214.51q0,6.24,0,12.48h-18q0-6.24,0-12.49a3.53,3.53,0,0,1,2.54-.8q6.45-.07,12.9,0A3.47,3.47,0,0,1,278.53,214.51Z"/> <path class="cls-11" d="M260.54,108h8L279,122.58c0,.91.37,1.88-.46,2.66a2.54,2.54,0,0,1-.8.35c-5.64.11-11.28.66-16.9-.3l-.32-.34Z"/> <path class="cls-11" d="M332.06,108h8q0,8.47.06,16.95l-.32.33c-1.49.74-3.1.47-4.66.46-4.07,0-8.15.21-12.21-.14a2.47,2.47,0,0,1-.8-.33c-.91-.77-.43-1.8-.52-2.73Z"/> <path class="cls-16" d="M315.11,124.47a1.84,1.84,0,0,1,.4.3c2.29,3,2.29,3,4.56.24a1.5,1.5,0,0,1,2,0l0,0a4.17,4.17,0,0,1,.73,3.05c-.06,3,.24,6.1-.19,9.14a2.16,2.16,0,0,1-.43.82,94.82,94.82,0,0,1-12.59.12,1.8,1.8,0,0,1-.54-.74,55.15,55.15,0,0,1,0-11.85,1.92,1.92,0,0,1,.49-.74C311.35,124,313.24,124.3,315.11,124.47Z"/> <path class="cls-16" d="M280.54,125a6.26,6.26,0,0,1,.52.52c1.81,2.31,1.8,2.31,3.59-.16a9.13,9.13,0,0,1,.84-.89,12.11,12.11,0,0,1,5.45.25,1.58,1.58,0,0,1,.56.68,45.27,45.27,0,0,1,0,11.74,1.54,1.54,0,0,1-.61.68c-4.1.78-8.22.44-12.34.28a2.08,2.08,0,0,1-.5-.8c-.51-3.48-.21-7-.19-10.47a2.69,2.69,0,0,1,.69-1.83l0,0A1.51,1.51,0,0,1,280.54,125Z"/> <path class="cls-11" d="M309.51,137.49l0,.48a1.71,1.71,0,0,1,.64,1.29c.13,5,.47,10-.2,15a2.2,2.2,0,0,1-1,1.07c-2.68.52-5.36,1-8-.36V137.51A10.23,10.23,0,0,1,309.51,137.49Z"/> <path class="cls-11" d="M309.55,214l0,.48a10.2,10.2,0,0,1-8.45,0v-17c2.6-1.34,5.3-.76,8-.46a1.87,1.87,0,0,1,.78.59c1,2.24.43,4.59.51,6.9s.06,4.65,0,7A3.24,3.24,0,0,1,309.55,214Z"/> <path class="cls-11" d="M299.51,167.52v17c-2.57,1.39-5.26.76-7.94.5a1.92,1.92,0,0,1-.78-.56,6.37,6.37,0,0,1-.52-3.65c.21-4.37-.56-8.78.47-13.13a1.74,1.74,0,0,1,.75-.61C294.19,166.72,296.92,166.11,299.51,167.52Z"/> <path class="cls-11" d="M301,184.51,301,178c-.44-3.13-.07-6.27-.19-9.41-.05-1.36.87-1.71,1.92-1.76a19.91,19.91,0,0,1,6.42.24,1.66,1.66,0,0,1,.73.63c1,3.91.29,7.88.44,11.82.06,1.63.28,3.31-.47,4.88a1.8,1.8,0,0,1-.76.6C306.37,185.28,303.66,185.86,301,184.51Z"/> <path class="cls-11" d="M291.54,214.51l-.52,0a1.54,1.54,0,0,1-.5-.84c-.31-5.32-.69-10.65.21-16a1.71,1.71,0,0,1,.74-.62c2.71-.32,5.43-.94,8,.46V214C297,216.1,294.28,215.52,291.54,214.51Z"/> <path class="cls-11" d="M299.52,147q0,3.76,0,7.52c-1.39,2-3.47,1-5.27,1.22a5.1,5.1,0,0,1-2.68-.39,2.18,2.18,0,0,1-1-1.06c-.69-5.12-.33-10.27-.22-15.41a2,2,0,0,1,.64-1.32l.06-.05c2.24-1.34,4.65-.8,7-.53,1.19.14,1.17,1.15,1.2,2.11C299.39,141.71,299,144.36,299.52,147Z"/> <path class="cls-15" d="M299.52,147c-1-2.21-.46-4.55-.39-6.8s-.7-2.92-2.84-2.71c-1.72.16-3.47,0-5.2,0q0-6.24,0-12.48c1.35-1.19,3-.74,4.52-.73,1.83,0,2.82-.53,2.71-2.54a3,3,0,0,1,.79-2.75c.61.61.42,1.4.42,2.12Q299.54,134,299.52,147Z"/> <path class="cls-17" d="M299.52,197.51l-8,0a2.12,2.12,0,0,1-1.18-2q-.22-4.44,0-8.89a2.14,2.14,0,0,1,1.18-2l8,0Q299.52,191,299.52,197.51Z"/> <path class="cls-17" d="M291.54,214.51c2.66-.27,5.38.52,8-.5q0,6.74,0,13.48c-2.61-1-5.33-.24-8-.49A32.83,32.83,0,0,1,291.54,214.51Z"/> <path class="cls-17" d="M291.55,155c2.65-.24,5.37.53,8-.48q0,6.51,0,13l-8,0c-.2-.14-.51-.22-.58-.45a22.37,22.37,0,0,1-.06-11.82C291,154.93,291.32,155,291.55,155Z"/> <path class="cls-17" d="M309.5,167.48c-2.25,0-4.49.06-6.74,0-1.3,0-1.76.49-1.74,1.77,0,2.91,0,5.82,0,8.73-1-3.16-.67-6.45-.33-9.59.49-4.49.16-9,.38-13.42h8c.91,0,1.09.74,1.13,1.36a54.72,54.72,0,0,1-.06,10.11A1.59,1.59,0,0,1,309.5,167.48Z"/> <path class="cls-17" d="M301,184.51l8,0a2.23,2.23,0,0,1,1.16,2.27q.08,4.2,0,8.39a2.22,2.22,0,0,1-1.17,2.27l-8,0Q301,191,301,184.51Z"/> <path class="cls-17" d="M309.51,137.49H301q0-6.25,0-12.5a10,10,0,0,1,8.46,0Q309.51,131.25,309.51,137.49Z"/> <path class="cls-17" d="M301.06,214.49l8.45,0q0,6.24,0,12.48l-8.44,0Q301.06,220.76,301.06,214.49Z"/> <path class="cls-11" d="M309.5,125H301a18.83,18.83,0,0,1,2.76-12.53c.61-1,.88-1.85,1.92-.26,1.31,2,2.88,3.81,4.34,5.71.15,2.37.78,4.78-.52,7.05Z"/> <path class="cls-11" d="M299.11,119c-.2,6-.2,6-6.26,6l-1.75,0,0,0a27.49,27.49,0,0,1,0-7.53c1.26-2.33,3.09-4.21,4.91-6.47C297.12,113.8,298.57,116.2,299.11,119Z"/> <path class="cls-43" d="M291,117.45a12.53,12.53,0,0,1,0,7.53c-1.85-.23-3.8.59-5.58-.51A53,53,0,0,1,291,117.45Z"/> <path class="cls-44" d="M309.55,125c.23-2.35-.6-4.77.52-7.05l5,6.54C313.34,125.56,311.4,124.75,309.55,125Z"/> <path class="cls-45" d="M322,125l-2,0,1.54-2.45C322.37,123.25,322,124.16,322,125Z"/> <path class="cls-46" d="M280.54,125l-2,0c.09-.81-.32-1.7.4-2.4A7.09,7.09,0,0,1,280.54,125Z"/> <path class="cls-11" d="M340,214.51h-18q0-.25,0-.49a1.31,1.31,0,0,1-.52-.82c-.29-5.18-.7-10.37.23-15.53a1.73,1.73,0,0,1,.74-.62,87.84,87.84,0,0,1,17.22,0,1.58,1.58,0,0,1,.71.65c.81,5.14.47,10.29.2,15.44a1.39,1.39,0,0,1-.49.83Z"/> <path class="cls-13" d="M340.11,214q0-8.24,0-16.47a2.26,2.26,0,0,1,1.76-.75c3.11-.14,6.23-.13,9.35,0a2.64,2.64,0,0,1,1.79.72h0q0,8.25,0,16.51A35.73,35.73,0,0,1,340.11,214Z"/> <path class="cls-11" d="M278.53,214.51h-18l-.05-.51a1.8,1.8,0,0,1-.61-1.31c-.09-4.93-.46-9.86.21-14.78a1.66,1.66,0,0,1,.62-.73c1.75-.75,3.59-.48,5.39-.44,4,.1,8.1-.43,12.12.34a1.56,1.56,0,0,1,.69.66c.8,5.06.42,10.13.23,15.21a1.54,1.54,0,0,1-.58,1.06Q278.55,214.27,278.53,214.51Z"/> <path class="cls-13" d="M260.48,197.53q0,8.24,0,16.48a35.78,35.78,0,0,1-12.9,0q0-8.25,0-16.5h0a2.88,2.88,0,0,1,2-.74c3-.09,5.9-.1,8.86,0A2.54,2.54,0,0,1,260.48,197.53Z"/> <path class="cls-14" d="M278.57,214q0-8.25,0-16.5a1.9,1.9,0,0,1,1.53-.7c3.65.12,7.38-.9,10.93.69q0,8.48,0,17C286.88,214.25,282.69,215,278.57,214Z"/> <path class="cls-14" d="M322,197.51q0,8.25,0,16.51a35.43,35.43,0,0,1-12.48,0q0-8.26,0-16.52a2.7,2.7,0,0,1,2-.69q4.2-.06,8.39,0A2.51,2.51,0,0,1,322,197.51Z"/> <path class="cls-13" d="M353,168q0,8.25,0,16.51h0a2.78,2.78,0,0,1-2,.72c-3.53-.06-7.08.41-10.59-.31a1.56,1.56,0,0,1-.69-.65,60.46,60.46,0,0,1,.06-16.27c.15-.19.26-.47.5-.54,4-1.24,8.08-1,12.14-.2C352.66,167.3,352.84,167.7,353,168Z"/> <path class="cls-16" d="M353,168a35,35,0,0,0-12.9,0,1.68,1.68,0,0,1-.57-.75,56.43,56.43,0,0,1,0-12.23,1.92,1.92,0,0,1,.57-.78c4.31-.73,8.61-1.15,12.88.24l.05.5q0,6.24,0,12.49Z"/> <path class="cls-13" d="M353,154.48h-12.9a1.47,1.47,0,0,1-.63-1c-.24-5.13-.65-10.27.23-15.38.09-.14.16-.34.29-.39,4.15-1.57,8.35-1.26,12.55-.25.22.05.31.37.46.58Z"/> <path class="cls-16" d="M353,138a35.29,35.29,0,0,0-12.89,0,1.7,1.7,0,0,1-.57-.76c-.54-3.46-.22-6.95-.21-10.42A2.65,2.65,0,0,1,340,125l.08-.06L353,125q0,6.25.05,12.51Q353,137.74,353,138Z"/> <path class="cls-13" d="M247.6,154.47q0-8.24,0-16.49a2,2,0,0,1,1.79-1.15,64.18,64.18,0,0,1,9.64,0,2.37,2.37,0,0,1,1.84,1.12c1,3.89.31,7.85.46,11.77.06,1.61.33,3.31-.63,4.81A23.4,23.4,0,0,1,247.6,154.47Z"/> <path class="cls-16" d="M247.6,154.47h12.9a1.69,1.69,0,0,1,.55.75,61.68,61.68,0,0,1,0,12.06,2.06,2.06,0,0,1-.46.79,78.58,78.58,0,0,1-13-.1l-.06-.51q0-6.24,0-12.49Z"/> <path class="cls-16" d="M260.49,138a35.45,35.45,0,0,0-12.89,0,4.79,4.79,0,0,1-.06-.5q0-6.26.06-12.51l12.88,0,.07.06a4.07,4.07,0,0,1,.76,3.06c-.09,3.06.3,6.13-.25,9.17A1.66,1.66,0,0,1,260.49,138Z"/> <path class="cls-13" d="M247.6,168a35.21,35.21,0,0,1,12.9,0,1.89,1.89,0,0,1,.72,1.52c.06,4.86.45,9.73-.23,14.59a1.64,1.64,0,0,1-.63.72c-4.27.55-8.55,1.12-12.77-.33h0Q247.58,176.24,247.6,168Z"/> <path class="cls-16" d="M340.1,184.5H353q0,6.49,0,13l-12.89,0-.08-.07a2.89,2.89,0,0,1-.75-2c-.09-3-.1-5.94,0-8.91A2.48,2.48,0,0,1,340.1,184.5Z"/> <path class="cls-16" d="M247.59,184.5H260.5a2.24,2.24,0,0,1,.76,1.76c.14,3.13.13,6.27,0,9.4a2.62,2.62,0,0,1-.72,1.8l-.07.07-12.89,0Q247.59,191,247.59,184.5Z"/> <path class="cls-1" d="M60.07,189.44c-.1,1.68.08,3.07-.39,4.47a4.24,4.24,0,0,1-3.32,3c-1.75.36-3-.63-4-1.94a8.44,8.44,0,0,1-1.48-4.92c-.17-3.53-1.32-7-.52-10.58.52-2.31,1.67-4,4.34-4s3.82,2,4.27,4.13A56.29,56.29,0,0,1,60.07,189.44Z"/> <path class="cls-47" d="M72.41,189.31l6.38-12.76c1,3.63.83,7,1.23,10.23.16,1.31-.73,1.7-1.89,1.71A13,13,0,0,0,72.41,189.31Z"/> <path class="cls-47" d="M33.31,180.52c1,3.46.66,6.63,1.21,9.69.28,1.53-.41,2.33-2.07,2.29a11.87,11.87,0,0,0-5.55.82Z"/> <path class="cls-48" d="M337.11,44.58c-1.33,4.6-4.14,8.21-7.57,11.42-2.63-1.14-2-3.52-1.95-5.53C327.75,45.88,332.89,42.77,337.11,44.58Z"/> <path class="cls-48" d="M269.55,46a27.86,27.86,0,0,1-9,11,7.32,7.32,0,0,1,4.47-13C266.7,44.12,269.12,42.94,269.55,46Z"/> <path class="cls-15" d="M260.55,137.49q0-6.24,0-12.48h18q0,6.24,0,12.48a3.48,3.48,0,0,1-2.54.79q-6.45.07-12.89,0A3.57,3.57,0,0,1,260.55,137.49Z"/> <path class="cls-15" d="M340,125V137.5a3.59,3.59,0,0,1-2.54.79q-6.45.07-12.89,0a3.45,3.45,0,0,1-2.54-.79q0-6.24,0-12.48Z"/> <path class="cls-11" d="M322.07,137.49h18l.07.52q0,8.23,0,16.46L340,155a3,3,0,0,1-2.05.76c-4.8.07-9.61.13-14.41,0a3,3,0,0,1-1.41-.43,1.89,1.89,0,0,1-.6-.78c-.63-5-.27-10-.21-15A2,2,0,0,1,322,138Q322,137.73,322.07,137.49Z"/> <path class="cls-14" d="M322,138q0,8.26,0,16.52a2.66,2.66,0,0,1-2,.74c-3.48-.23-7.06.87-10.45-.73q0-8.27,0-16.54A35.64,35.64,0,0,1,322,138Z"/> <path class="cls-11" d="M260.55,137.49h18q0,.24,0,.49a2,2,0,0,1,.67,1.55c.06,5,.39,9.92-.18,14.87a2,2,0,0,1-.55.82,5.66,5.66,0,0,1-3.15.57q-5.75,0-11.5,0c-1.16,0-2.36.06-3.31-.81l-.06-.51q0-8.24,0-16.47Z"/> <path class="cls-14" d="M278.57,154.49q0-8.26,0-16.51c4.13-1,8.31-.24,12.46-.43q0,8.48,0,17a2.61,2.61,0,0,1-2,.73C285.54,155,282,156.13,278.57,154.49Z"/> <path class="cls-16" d="M309.54,154.51H322q0,.24,0,.49c.88,1.05.77,2.33.73,3.55-.09,2.87.36,5.77-.33,8.62a1.57,1.57,0,0,1-.64.7c-4.1.51-8.21,1.06-12.27-.32l-.06,0c0-3.47,0-6.94,0-10.41,0-.72.19-1.51-.48-2.08Z"/> <path class="cls-49" d="M322,197.51H309.55l-.5,0a34.87,34.87,0,0,0,0-12.93l.5,0a3.63,3.63,0,0,1,2.82-.76c3.21.2,6.48-.63,9.62.6a1.88,1.88,0,0,1,.66,1.29,62.12,62.12,0,0,1-.11,11.84Z"/> <path class="cls-14" d="M291,167.53v17a3.19,3.19,0,0,1-2.54.76c-3.21-.1-6.45.39-9.64-.34a1.56,1.56,0,0,1-.69-.66c-.49-5.62-1.07-11.24.32-16.82A21.5,21.5,0,0,1,291,167.53Z"/> <path class="cls-16" d="M291,167.53H278.6l-.34-.34c-.67-4.09-1-8.17.27-12.21a4.88,4.88,0,0,1,0-.5h12.5l.48.48a32.66,32.66,0,0,0,0,12.5Z"/> <path class="cls-16" d="M278.57,184.51l12.48,0,.5,0a35,35,0,0,0,0,12.93l-.5,0H278.59l-.07-.06a3.21,3.21,0,0,1-.74-2.29c-.06-2.8-.07-5.6,0-8.39A2.85,2.85,0,0,1,278.57,184.51Z"/> <path class="cls-14" d="M322,184.52l-12.49,0q0-8.48,0-17H322a2.49,2.49,0,0,1,.77,2c.09,4.39.11,8.78,0,13.18a3.08,3.08,0,0,1-.39,1.43Z"/> <path class="cls-50" d="M305.5,162.52a1.39,1.39,0,0,1-1.56-1.55,1.33,1.33,0,0,1,1.33-1.49,1.43,1.43,0,0,1,1.7,1.42A1.42,1.42,0,0,1,305.5,162.52Z"/> <path class="cls-51" d="M307,190.6a1.4,1.4,0,0,1-1.6,1.49,1.28,1.28,0,0,1-1.44-1.36,1.41,1.41,0,0,1,1.41-1.68C306.39,189,306.79,189.7,307,190.6Z"/> <path class="cls-52" d="M305.44,133a1.46,1.46,0,0,1-1.49-1.61,1.31,1.31,0,0,1,1.34-1.46,1.38,1.38,0,0,1,1.66,1.41A1.54,1.54,0,0,1,305.44,133Z"/> <path class="cls-53" d="M305.49,221.79c-.92-.14-1.56-.56-1.54-1.59a1.48,1.48,0,0,1,3-.12A1.52,1.52,0,0,1,305.49,221.79Z"/> <path class="cls-17" d="M322.54,197.46c-1-2.71-.29-5.52-.47-8.27-.1-1.55,0-3.11,0-4.67h0a3.53,3.53,0,0,1,2.55-.79q6.45-.07,12.9,0a3.73,3.73,0,0,1,2.56.77l0,0q0,6.48-.06,13Z"/> <path class="cls-17" d="M278.57,184.51q0,6.48-.05,13h-18q0-6.48-.05-13h0a3.7,3.7,0,0,1,2.56-.77q6.45-.07,12.91,0a3.59,3.59,0,0,1,2.55.78Z"/> <path class="cls-11" d="M340.07,184.48l-18,0q0-8.48-.05-17l.07,0a3.49,3.49,0,0,1,2.54-.77q6.44-.07,12.87,0a3.64,3.64,0,0,1,2.55.76l.06.53Q340.09,176.24,340.07,184.48Z"/> <path class="cls-17" d="M340,167.48h-18q0-6.25,0-12.5h18Q340,161.23,340,167.48Z"/> <path class="cls-11" d="M278.54,184.5h-18q0-8.24,0-16.49l.05-.52a3.63,3.63,0,0,1,2.55-.76q6.44-.07,12.88,0a3.53,3.53,0,0,1,2.54.77l.07.05Q278.57,176,278.54,184.5Z"/> <path class="cls-15" d="M278.52,167.49h-18q0-6.24,0-12.49h18Q278.52,161.24,278.52,167.49Z"/> <path class="cls-16" d="M321.55,191.24c0,5.76,0,5.76-5.68,5.76s-5.82,0-5.82-5.87c0-6.13,0-6.13,6.05-6.13,5.45,0,5.45,0,5.45,5.5Z"/> </g> </g></svg>