<svg xmlns="http://www.w3.org/2000/svg" viewBox="0 0 468.18 332.84"><defs><style>.cls-1{fill:#939795;}.cls-2{fill:#f1cea8;}.cls-3{fill:#6b4f22;}.cls-4{fill:#16658f;}.cls-5{fill:#111;}.cls-6{fill:#231f20;}.cls-7{fill:#890909;}.cls-8{fill:#6c6a6f;}.cls-9{fill:#c00606;}.cls-10{fill:#c72121;}.cls-11{fill:#242021;}.cls-12{fill:#962424;}.cls-13{fill:#d35353;}.cls-14{fill:#d35252;}.cls-15{fill:#e9c7a3;}.cls-16{fill:#a23f3f;}.cls-17{fill:#a33f3f;}.cls-18{fill:#aaadad;}.cls-19{fill:#8f8b8a;}.cls-20{fill:#eccba7;}.cls-21{fill:#eac9a5;}.cls-22{fill:#d04a49;}.cls-23{fill:#cf4949;}.cls-24{fill:#a6a9a9;}.cls-25{fill:#ae3e3e;}.cls-26{fill:#ce4646;}.cls-27{fill:#cd3f3f;}.cls-28{fill:#cc3939;}.cls-29{fill:#b34242;}.cls-30{fill:#a82222;}.cls-31{fill:#a22;}.cls-32{fill:#ac2222;}.cls-33{fill:#ab2222;}.cls-34{fill:#ad2222;}.cls-35{fill:#179b58;}.cls-36{fill:#d5483a;}.cls-37{fill:#f8c943;}.cls-38{fill:#f0cda8;}.cls-39{fill:#e2c09b;}.cls-40{fill:#d8b792;}.cls-41{fill:#282420;}.cls-42{fill:#292929;}.cls-43{fill:#fbfbfa;}.cls-44{fill:#952424;}.cls-45{fill:#d15050;}.cls-46{fill:#d14f4e;}.cls-47{fill:#c54040;}.cls-48{fill:#c84444;}.cls-49{fill:#cf8e74;}.cls-50{fill:#45413a;}.cls-51{fill:#8b8b8a;}.cls-52{fill:#a43333;}.cls-53{fill:#9c958a;}.cls-54{fill:#686663;}.cls-55{fill:#686868;}.cls-56{fill:#f3e7e6;}.cls-57{fill:#efdedd;}.cls-58{fill:#f2e5e4;}.cls-59{fill:#d35352;}.cls-60{fill:#cf4848;}.cls-61{fill:#ce4040;}</style></defs><g id="Layer_2" data-name="Layer 2"><g id="Layer_1-2" data-name="Layer 1"><path class="cls-1" d="M381.13,88.44a4.75,4.75,0,0,1,4.5-1.3c11.8,1.8,23.6,3.5,35.3,5.3,9.3,1.4,18.6,2.9,28,4.3,5.1.8,10.1,1.5,15.2,2.1,4.2.5,5,2.3,3,6-5.8,10.4-11.4,20.9-17.1,31.4-3.2,6-6.5,11.9-9.7,17.9-1.7,3.1-4.6,3.1-7.4,2.7-11.5-1.7-23-3.6-34.5-5.3-12.8-1.9-25.5-3.7-38.3-5.6-3.2-.5-6.4-1-9.5-1.5-.7-1.1.2-1.9.6-2.7.9-1.9,2-3.6,2.9-5.5,5.7-10.5,11.6-20.9,17.4-31.4,2.2-4.1,4.4-8.2,6.6-12.2A16,16,0,0,1,381.13,88.44Z"/><path class="cls-2" d="M254.63,71.94c-.1,2.8,1.8,5,2.8,7.4,4.1,9.7,5.3,19.8,4.7,30.2-.1,2.8-.6,3.1-3.3,2.4-15.4-3.7-30.9-7.5-46.3-11.2-18.7-4.5-37.4-9.1-56.2-13.6L113,76.74c-2.6-.6-5.2-1.2-7.7-1.7-1.4-.3-2.1-.7-1.5-2.4a59.26,59.26,0,0,1,11-18.4c3.6-4,7.2-8,11.8-11a2.33,2.33,0,0,0,1-1.7c3,.2,4.3,1.7,3.7,4.5a49.82,49.82,0,0,0-.6,15.4,15.29,15.29,0,0,0,4.4,9.6c7.6,7.3,21.1,9.9,30.7,5.6a31.84,31.84,0,0,0,14.4-13,38.37,38.37,0,0,1,4.1-5.6c4.3-4.7,11.6-1.8,12.8,3.6.9,3.9,1,7.9,1.9,11.8,1.8,7.6,5.7,13.8,12.4,18a27.89,27.89,0,0,0,12.5,4,47,47,0,0,0,7.5,0c5.5-.2,9.3-3.3,12.1-7.7a50.4,50.4,0,0,0,6.2-13.3C250.83,71.44,252,70.94,254.63,71.94Z"/><path class="cls-3" d="M161.13,14.44c4.5-1.2,9-.7,13.5-.3a55.24,55.24,0,0,1,13.9,3.3c1.9.7,2.6,0,2.4-2-.2-1-.4-2-.7-3,12.9,2.5,25.5,5.6,35.1,15.4,1.1-1.1.7-2.3.8-3.4s0-2.2,0-3.6a76.89,76.89,0,0,1,14,14.5c.2,1.2-.9,1.5-1.5,2-.9.7-1.5,1.4-.5,2.5.8.9,1.6,1.8,2.9.8.6-.4,1.1-1.1,2-.7a33.48,33.48,0,0,1,5.6,18.9,9.2,9.2,0,0,1-6.9-2.1c-6.8-5.8-14.3-9.8-23.7-9.1a14.82,14.82,0,0,0-5.4,1.7c-.5.5-1.6,0-1.6,1.2a2.56,2.56,0,0,1-2.9.1,4.71,4.71,0,0,0-1.4-3.3,39.59,39.59,0,0,0-29.3-13.2,40.18,40.18,0,0,0-15,1.8,12.64,12.64,0,0,0-2.6,1.3,17.87,17.87,0,0,1-6.8-1.3c-.2-1.3,2-.9,1.8-2.4-2-.1-3.5,1.3-5.3,1.8-4.2-.1-8.2-1.5-12.3-2a2.23,2.23,0,0,1-1.7-.9,33.37,33.37,0,0,1,12.7-7.8c-1.1-.2-2.3-.4-3.4-.5s-2.3-.1-4-.2a32.91,32.91,0,0,1,14.8-8.5c1.7.4,1.4,2,1.7,3.2.2,1,.3,2.1,1.8,1.7,1.2-.3,2.4-.6,2.1-2.4C161,16.74,160.63,15.64,161.13,14.44Z"/><path class="cls-4" d="M154.53,262.14c-.5,4.5-2.5,8.3-4.9,12.1-6.8,10.6-13.5,21.1-20.1,31.8-.9,1.4-1.6,1.7-2.8.6-.9.3-1.6-.3-2.3-.7-8.1-5.1-16.1-10.2-24.2-15.3a6.69,6.69,0,0,1-2.1-2c-1.6-.9-1.3-1.8-.4-3.1,6.1-9.6,12.2-19.3,18.3-29a2.27,2.27,0,0,1,1.6-.6c6.1.9,12.2,1.7,18.2,2.8,4.1.5,8.1,1.1,12.2,1.8C150.13,261.14,152.63,260.54,154.53,262.14Z"/><path class="cls-5" d="M242.23,56.54c1.8,1.7,4.5,1.1,6.5,2.4l8.5,3.1c.7.3,1.5.5,1.3,1.5-.6,2.9-1.3,5.8-3.1,8.2-.2.2-.6.2-.9.3-2.4-.4-3.5.5-4.3,2.9a43.33,43.33,0,0,1-8.7,16.4,13.09,13.09,0,0,1-8.1,4.4c-8.2,1.2-16.2.3-23.2-4.4-8.1-5.5-11.6-13.8-12.7-23.3a50.48,50.48,0,0,0-1.1-6.6,6.82,6.82,0,0,0-8.3-5,6.68,6.68,0,0,0-3.7,2.4c-2.1,2.6-3.7,5.5-5.7,8.2-12,15.6-29,15.9-43.3,5.4-3.3-2.4-4.8-5.9-5.3-9.8a51.68,51.68,0,0,1,.2-15.2c.7-3.9.7-3.9-2.9-5.7-.7-2.9.1-5.7.6-8.5a1.44,1.44,0,0,1,1.9-1.1c1.8.3,3.6.4,5.4.6l14.6,2.5a2.33,2.33,0,0,1,3,.6l7,1.4c1-.8,2.1-.3,3.1-.1,7.4,1.4,14.4,3.8,20.6,8.4a26.61,26.61,0,0,0,20.6,4.8c1.2-.2,2.5-.5,3.6.4a4.21,4.21,0,0,0,3.1-.3c.4-.5,1-.5,1.5-.7a21.67,21.67,0,0,1,7.6.8c6.3,1.5,12.6,2.9,18.8,4.9A6.54,6.54,0,0,1,242.23,56.54Z"/><path class="cls-4" d="M190.53,306.14c-1.6.7-1.9,0-2.1-1.5l-6-38.1c.9-.9,2-.6,3.1-.4,3.9.6,7.7,1.1,11.6,1.7,4,.8,8.2,1.1,12.2,1.9a100.07,100.07,0,0,1,12.2,2,.83.83,0,0,1,.3.8c1.3,8.7,2.6,17.4,4.1,26.1.3,1.8-.4,2.1-1.7,2.5-3,1.4-6.3,1.5-9.4,2-7.1,1.1-14.2,2.4-21.3,3.3A3.91,3.91,0,0,1,190.53,306.14Z"/><path class="cls-6" d="M224.13,301.94c2.5-.6,3.4.6,3.4,2.9,0,1,.4,1.9,1.6,1.8,1.4-.1.9-1.3,1-2.1.1-1.1-1.1-2.9.4-3.2.9-.2.8,2,1,3.1s.6,1.9,1.7,1.6,1.1-1.2,1-2.2-.9-3,0-3.1c1.4-.1,1,1.8,1.2,2.9s.7,1.9,1.7,1.8c1.3-.2,1.2-1.3,1.1-2.4s-1.1-2.6.2-2.9c1.1-.2.8,1.7,1,2.6s.6,2.2,1.8,2,1.2-1.3,1.1-2.4a3.55,3.55,0,0,1-.2-1c0-.8-.7-1.9.5-2.1,1.4-.3.6,1.2,1,1.7a.35.35,0,0,0,.1.2c.5,1-.2,3,1.8,2.7s1.1-2.1.8-3.1c-.5-1.9-.1-2.3,1.9-2.5a41,41,0,0,1,12.6.1c7.9,1.6,9.5,5.7,11.2,12.9.3,1.1-.4,1.4-1.4,1.6-11.6,1.8-23.3,3.6-34.9,5.5-12.2,1.9-24.4,3.8-36.6,5.8-7.4,1.2-7.4,1.4-8.5-6-.4-3-.9-5.9-1.4-8.9-.1-.8-.6-1.9.9-2,2.1-1.3,4.6-1.2,7-1.6,8.1-1.4,16.2-2.6,24.4-3.9A5.86,5.86,0,0,1,224.13,301.94Z"/><path class="cls-6" d="M126.63,307.84c1,.7.8,1.3.2,2.2-2.5,3.9-5.1,7.8-7.5,11.8-1,1.7-1.8,1.6-3.3.6-11.1-7.1-22.3-14.2-33.5-21.2-10.5-6.6-20.9-13.3-31.4-19.9-1.8-1.1-1.7-1.9-.5-3.4,5.3-7.1,9.9-8.6,20.1-4.5,2.2.9,4.3,2.2,6.4,3.2,1.4.7,1.6,1.3.7,2.6-.7,1-2.4,2.4-.7,3.5s2-1.1,2.8-2.1c.5-.6.7-1.9,1.8-1.2.9.6-.2,1.3-.5,1.9-.5,1.2-2.4,2.5-.6,3.6,1.6,1,2.1-1.1,3-2.1.4-.5.4-1.8,1.4-1.1s-.1,1.3-.4,1.9c-.5,1.2-2.4,2.5-.7,3.6s2.2-1.1,3-2.1c.4-.5.6-1.8,1.6-1.1s-.3,1.2-.5,1.9a4.05,4.05,0,0,1-.5.9c-.6.9-1.3,2-.1,2.8s1.9-.4,2.5-1.4c.1-.2.3-.4.4-.6.5-.5.7-2,1.6-1.4s-.2,1.4-.5,2a9.13,9.13,0,0,1-.8,1.3c-.5.8-.7,1.7.1,2.2a1.35,1.35,0,0,0,2-.4.76.76,0,0,0,.2-.5c1-2.6,2.7-2.8,4.8-1.4,3.3,1.4,6.1,3.6,9.1,5.5,5.8,3.6,11.6,7.4,17.4,11A4.75,4.75,0,0,1,126.63,307.84Z"/><path class="cls-7" d="M158.13,262.54l-2-.2c-.5-1.3-.1-2.6.1-3.9.7-4,1.1-8,1.9-12,.6-4.6,1.4-9.3,2-13.9.9-5.3,1.5-10.7,2.5-16,.6-4.5,1.4-9,1.9-13.5,1-5.5,1.6-11,2.6-16.5.6-4.4,1.2-8.7,1.9-13.1.9-5.5,1.4-11.1,2.4-16.5.6-4.3,1.2-8.5,1.9-12.8a20.34,20.34,0,0,0-1-13.1,55.58,55.58,0,0,1-5,4.7c-2.2,1.9-4.3,4-6.3,6.1a1.38,1.38,0,0,0-.3.4c-3.5,3.4-3.5,3.4-5.8-1a19.65,19.65,0,0,0-1.3-2.5c-2.8-5.3-5.6-10.6-8.3-16-1.8-4-4.1-7.9-6-11.8-.2-.6-.6-1.1-.1-1.7l3.5.5a6,6,0,0,1,1.6,2.2c4.2,8.6,8.8,17,12.9,25.5.7,1.4,1.2,1.4,2.2.4,3.8-3.8,7.3-7.7,11.5-11,.7-.6,1.3-1.7,2.5-1.1,1.5,2.6,1.7,5.6,2.7,8.4.1.2.1.8.6.4,1.8-2.5,3.2-5.3,5.5-7.5,1.8.3,2.2,1.9,2.9,3.2,2.1,4.1,4.3,8.1,6.5,12.1,1.2,2.1,1.5,2.2,3.1.3,5.5-6.6,12.2-12,17.7-18.6a9.75,9.75,0,0,1,3.8-3.2l3.4.6c.2.8-.4,1.3-.8,1.8-3.1,3.1-6.2,6.1-9.2,9.4-3.8,4.6-8.4,8.6-12.5,12.9a22.84,22.84,0,0,0-2.2,2.2c-3.1,3-3.1,3-5.6-1.2-1.4-2.5-2.8-4.9-4.1-7.4-.9-1.7-2-3.4-2.9-5.2-.6-1.2-1-1.1-1.9-.1a16.87,16.87,0,0,0-4.2,11.5c-.7,4-1.2,8.1-1.8,12.1-.8,5.6-1.8,11.2-2.5,16.9-.8,4.2-1.2,8.4-2,12.6-.9,5.6-1.4,11.3-2.5,16.9-.5,4.2-1.2,8.5-1.9,12.7-.6,5.1-1.4,10.2-2.3,15.3-.6,4.7-1.4,9.3-2,14-.8,4.8-1.5,9.7-2.2,14.5C158.83,260.94,158.93,261.84,158.13,262.54Z"/><path class="cls-8" d="M314.13,111.44c0-2.1,1-2.8,3.1-2.6,3.8.3,7.5,1.4,11.3,1.2,10.5.5,20.7,2.9,31.1,4.1a14.19,14.19,0,0,1,4,1.2v.1c.9.6.6,1.3,0,2a3.48,3.48,0,0,1-3.2,1.1c-2.8-.4-5.7-.7-8.6-1.3,2.3,1.7,4,4.1,7.1,4.4a1.71,1.71,0,0,1,1.4,1.3,1.91,1.91,0,0,1-1.2,2.2c-4.6-1.5-9.5-1.7-14.2-2.5-5.3-.9-10.7-1.7-16.3-2.4,5.1,4.7,10.1,9.3,15.2,13.7,2.4,2.1,4.4,4.5,7.3,6,.4,1.5-.6,2.3-1.5,3.2-2.5-.3-4.1-2.4-5.8-3.9-9.4-8.3-18.7-16.8-28.1-25.1C315,113.54,313.83,112.94,314.13,111.44Z"/><path class="cls-9" d="M173,125.44c-4.9,4.1-9.2,8.6-13.7,13.1-1.1,1.2-1.8,1.2-2.5-.2L143,110.74a5.64,5.64,0,0,1-.4-1.2l14.4,2a9.39,9.39,0,0,1,2.6,1.4c4.7,3,8.4,7.1,12.7,10.7C172.83,124,173.53,124.64,173,125.44Z"/><path class="cls-9" d="M216.13,120.54c-4.6,5.2-9.5,10.2-14.4,15.1-2.6,2.6-5.2,5.4-7.7,8.2-1.2,1.3-1.7,1-2.4-.4-2.8-5.2-5.6-10.4-8.5-15.5a3.92,3.92,0,0,0-.8-1c-.5-.9.4-1.2.9-1.4,4.5-2.3,9.2-4.2,13.8-6.4.6-.3,1.2,0,1.7-.2,2.9-1.3,5.9-.1,8.8.2S213.23,120.14,216.13,120.54Z"/><path class="cls-10" d="M197.13,268.44c-4-.5-8-1.1-12-1.6a24.52,24.52,0,0,0-2.7-.2l-3.3-.6c-.8-.3-.8-1-.8-1.6.8-5.2,1.2-10.5,2.5-15.7a1.79,1.79,0,0,1,.7-.5,101.63,101.63,0,0,1,17.4,2.7,1.79,1.79,0,0,1,.5.7c.5,2.5-.4,4.9-.8,7.3A36.08,36.08,0,0,1,197.13,268.44Z"/><path class="cls-10" d="M221.53,272l-12.5-1.8c-.6-2.8.4-5.4.7-8a47.9,47.9,0,0,1,1.6-9.2,1.27,1.27,0,0,1,.7-.4,129.84,129.84,0,0,1,17.5,2.7,2.18,2.18,0,0,1,.5.8c.1,4.8-1.3,9.4-1.7,14.2-.2,2.1-1.3,2.9-3.4,2.4a.6.6,0,0,1-.4-.1C223.63,271.94,222.53,272.54,221.53,272Z"/><path class="cls-10" d="M95,253h-.2l-.2-.1c-1-.5-2.1.1-3-.4h0c-.9-.8-2.1.1-3-.6-.5-.1-1.2.2-1.5-.4a1.49,1.49,0,0,1-.3-.7c.6-5.3,1-10.7,2.6-15.8a1.79,1.79,0,0,1,.7-.5,6.53,6.53,0,0,1,3.4,0c3.8.5,7.6,1.2,11.4,1.7a4.78,4.78,0,0,1,2.8,1,2,2,0,0,1,.4.8c0,5.2-1.3,10.3-2.1,15.5a1.57,1.57,0,0,1-1,1.1l-.5-.1c-1-.5-2.1.1-3.1-.4h-.2l-.2-.1c-1-.5-2.1.1-3-.4h0C97.23,252.84,96,253.64,95,253Z"/><path class="cls-11" d="M47,283.64c.6.3,1,.6,1.4.8l65.9,41.8c.9.5,1.8.9.8,2.2-.8,1.1-1.3,1.9-2.9.8q-32.85-21-65.8-41.8c-.5-.3-1.6-.5-1.1-1.6A8.16,8.16,0,0,1,47,283.64Z"/><path class="cls-11" d="M273.53,319.24c.2,1.2-.7,1.2-1.5,1.3l-31.5,5c-15.1,2.4-30.2,4.7-45.3,7.2-1.6.3-2.2,0-2.6-1.6-.4-1.8.7-1.9,1.9-2.1l66.2-10.4c3.5-.5,6.9-1.1,10.3-1.6C273.13,316.74,273.53,317.14,273.53,319.24Z"/><path class="cls-2" d="M198.63,119l-14.8,6.9c-.6.3-1.3.3-1.6,1.1l-5.6,8.1c-.6.3-.8-.3-1.1-.6l-2.6-9c-3.1-3.8-7.1-6.6-10.6-9.9l-2.7-2.6,35.6,5.4C196.33,118.54,197.63,118.24,198.63,119Z"/><path class="cls-12" d="M109.13,104.64l17.5,2.6a1.68,1.68,0,0,1,1.1,1.8c-.4,3.6-.5,7.3-2,10.7a1.61,1.61,0,0,1-.9.3c-5.8-.7-11.6-1.1-17.3-2.8a1.27,1.27,0,0,1-.4-.9C107.33,112.34,107.33,108.24,109.13,104.64Z"/><path class="cls-12" d="M231.13,123c4.3,0,8.4,1.2,12.6,1.7,1.8.2,3.6.6,5.3.9a2.32,2.32,0,0,1,.6,2.1c-.6,3.3-.6,6.8-1.7,10a1.17,1.17,0,0,1-.6.6,154.08,154.08,0,0,1-16.6-2.3,2.07,2.07,0,0,1-1.4-1A30.47,30.47,0,0,1,231.13,123Z"/><path class="cls-13" d="M105.13,254.54c.7-4.1,1.4-8.1,2-12.2.2-1.5.4-2.9.6-4.4a1.23,1.23,0,0,1,1.4-.8,71.19,71.19,0,0,1,10.3,1.6,1.83,1.83,0,0,1,1,.7,4.16,4.16,0,0,1,.3,2.7c-.6,4-1.2,8-1.8,12.1-.1.9-.2,1.8-1.3,2.2h-1.7C112.43,255.54,108.63,255.64,105.13,254.54Z"/><path class="cls-14" d="M181.13,248.54c-.2,5.4-1.6,10.6-2.1,15.9a2.2,2.2,0,0,0,.1,1.4l-11-1.8c-.8-.5-2.1-.3-2.1-1.7.4-5.2.8-10.4,2.5-15.5a2.39,2.39,0,0,1,1.4-.5C173.73,246.74,177.63,246.64,181.13,248.54Z"/><path class="cls-13" d="M246,227.94l-2.5,17a1.84,1.84,0,0,1-1.6.5c-3.4-.6-7-.6-10.3-2a2,2,0,0,1-.4-.8c.2-4.9,1.3-9.7,2-14.5a3.7,3.7,0,0,1,.8-1.8,3,3,0,0,1,2.6-.4C239.83,226.64,243.13,226.34,246,227.94Z"/><path class="cls-13" d="M250.53,198.54c-.8,5.5-1.6,11.1-2.5,16.6-.1.6.1,1.3-.4,1.9-2.6-1.9-5.8-1.6-8.8-2.2-1.1-.2-2.4-.1-3-1.3-.2-4.1.9-8.1,1.4-12.1.2-1.5.1-3.2,1.3-4.5a1.5,1.5,0,0,1,1.1-.4C243.33,196.94,247.13,196.94,250.53,198.54Z"/><path class="cls-13" d="M254.93,169l-2.8,18c-2.8-1.1-5.8-1.2-8.7-1.8-1.1-.2-2.3-.2-3.1-1.3-.6-3.7.6-7.3,1.1-10.9.2-1.9,0-4,1.5-5.6a4.51,4.51,0,0,1,3.6-.1C249.43,167.94,252.33,167.64,254.93,169Z"/><path class="cls-13" d="M80.33,220.54l2.8-18c2.7,1.2,5.7,1.1,8.5,1.7,1.1.2,2.2.2,2.8,1.4a55.34,55.34,0,0,1-2.6,16.6,2.67,2.67,0,0,1-2.1.5C86.53,221.94,83.13,222.44,80.33,220.54Z"/><path class="cls-13" d="M84.73,191l2.5-17c4-.2,7.9.1,11.6,2,.5,2.3-.1,4.5-.5,6.6-.6,3.3-.4,6.8-2,9.9-1.4.9-2.9.3-4.4.1C89.43,192.24,86.83,192.64,84.73,191Z"/><path class="cls-13" d="M89.23,161.54l2.5-16.6a1.37,1.37,0,0,1,.8-.5c3.6.1,7.2.2,10.5,1.9.7,2,.1,3.9-.3,5.8-.7,3.6-.6,7.4-2.1,10.9a1.5,1.5,0,0,1-1.1.4C96.13,163,92.43,163.14,89.23,161.54Z"/><path class="cls-13" d="M93.73,132c.7-5.5,1.4-11.1,2.5-16.5.2-.2.5-.5.8-.5,3.5.2,7,.2,10.2,1.9a2.52,2.52,0,0,1,.5,1.6c-.6,5-1,10.1-2.5,15a1.39,1.39,0,0,1-1.4.5C100.53,133.54,96.83,133.84,93.73,132Z"/><path class="cls-13" d="M258.53,150c-1-.1-.9.6-1,1.3-.3,1.7-.7,3.5-1,5.2a21.87,21.87,0,0,1-11.8-1.9,4.15,4.15,0,0,1-.2-2.7c.5-3.9,1.1-7.7,1.7-11.6a2.94,2.94,0,0,1,1.2-2.3h0a14.35,14.35,0,0,1,9.1,1.4A94.32,94.32,0,0,1,258.53,150Z"/><path class="cls-15" d="M363.63,115.34c-5.9-.8-11.8-1.6-17.7-2.5-5.5-.8-11-1.7-16.5-2.5a3.55,3.55,0,0,1-.9-.4l14.4-3.6c8.8-2.2,15.4.5,20.3,8.1A3.92,3.92,0,0,0,363.63,115.34Z"/><path class="cls-16" d="M256.63,139.54l-9-1.6,1.5-12.4,10.2,1.5c.7.1,1.5,0,1.9.9-1.2,2.6-3.2,4.7-4,7.5.8-2.8,2.9-4.9,4-7.5l.9-.4c1.3,0,1.3,1.1,1.5,1.9.6,2,1.3,4,1.8,6.1a1.71,1.71,0,0,1-.7,1.3C262,137.94,259,137.74,256.63,139.54Z"/><path class="cls-13" d="M225,272.54c1.8,0,2.5-.6,2.7-2.6.4-4.7,1.3-9.3,2-14a2.38,2.38,0,0,1,1.1-.6c3.7.4,7.4.4,10.8,2-.5,7.7-4,12.8-10.4,14.6C229.23,272.74,227.13,273.54,225,272.54Z"/><path class="cls-16" d="M231.13,123c0,4-1.2,7.9-1.5,11.9a.47.47,0,0,1-.1.6.35.35,0,0,1-.2.1,56.94,56.94,0,0,1-12.3-1.7,1.42,1.42,0,0,1-.8-.9c.6-3.5.4-7.2,2.2-10.5l1-1.3C223.43,121.84,227.33,121.94,231.13,123Z"/><path class="cls-16" d="M125.63,119.44c.4-3,.8-6,1.3-9a3.83,3.83,0,0,0-.3-3.3l12.5,1.9.5,1.4c.8,3.7-.3,7.2-1.1,10.7a.9.9,0,0,1-.6.6c-4.2.3-8.1-.7-12.2-1.6A.47.47,0,0,1,125.63,119.44Z"/><path class="cls-16" d="M245.13,154.54l8.6,1.5,2.9.5c-.1,4.2-1.1,8.3-1.6,12.5-4,0-7.9-1.2-11.8-1.5l-.3-.3c-.2-4.3.8-8.4,1.6-12.6.1-.2.3-.3.6-.1Z"/><path class="cls-16" d="M240.63,184c3.1.5,6.2,1.1,9.4,1.5,1.1.1,2,.2,2.1,1.5l-1.6,11.5c-4,0-7.9-1.3-11.9-1.5l-.3-.3a38,38,0,0,1,1.9-12.5Z"/><path class="cls-16" d="M241.53,257.54c-4-.1-7.9-1.5-11.9-1.5l-.1-.5a28.13,28.13,0,0,1,2-12.5,118.16,118.16,0,0,0,11.9,2Z"/><path class="cls-16" d="M236.13,213.44c3,.9,6.1.9,9.2,1.5,1.2.2,2.3.4,2.3,2a100.47,100.47,0,0,1-1.6,11c-4-.2-7.9-1.5-11.9-1.5l-.3-.3a49.75,49.75,0,0,1,1.7-12.1Z"/><path class="cls-13" d="M89.63,235l-2.5,16.6c-5.7-1.8-10.1-8.7-9.2-14.5.2-1.5-.1-3.1.7-4.6,3.1.3,6.2,1,9.3,1.4A1.58,1.58,0,0,1,89.63,235Z"/><path class="cls-16" d="M93.73,132l11.3,1.4a1.08,1.08,0,0,1,.3.7c-.6,4-.7,8.1-2,12.1l-.3.3c-3.8-.5-7.5-1.5-11.3-1.6A95.91,95.91,0,0,1,93.73,132Z"/><path class="cls-16" d="M89.23,161.54l11.4,1.5a1.61,1.61,0,0,1,.4.7c-.6,4-.6,8.2-2.1,12.1l-.3.3c-3.1-.5-6.2-1-9.2-1.5a5,5,0,0,1-2.1-.5Z"/><path class="cls-16" d="M84.73,191l11.4,1.5a1,1,0,0,1,.4.7c-.6,4-.6,8.2-2.1,12.1l-.3.2a44.75,44.75,0,0,0-8.9-1.5c-1.1-.1-1.9-.3-2.1-1.6Z"/><path class="cls-16" d="M89.63,235l-8.7-1.5c-.9-.1-1.8-.1-2.3-1.1l1.7-12c3.8.4,7.5,1.5,11.3,1.5a1,1,0,0,1,.4.7,73.16,73.16,0,0,1-1.9,12.3Z"/><path class="cls-16" d="M107.13,117l-10.9-1.5c0-3.9,1.2-7.7,1.5-11.5.1-1.3,1.1-1,1.9-.8l9.6,1.5-1.5,12.4c-.2,0-.4.1-.6-.1Z"/><path class="cls-12" d="M256.63,139.54c.1-.6,0-1.4.9-1.5,2.4-.4,4.7-1.4,7.1-1.5a.71.71,0,0,1,.9.6h0c1.1,4.6,3,9,3.3,13.9-2.2,2.2-5.1,2.1-7.8,2.7a9,9,0,0,1-2.5-3.6A21.73,21.73,0,0,1,256.63,139.54Z"/><path class="cls-10" d="M168.63,247l-2.1,15.5c-.3.7-.5,1.6-1.6,1h-.2l-.2-.1c-1-.5-2.1.1-3.1-.4h-.2l-.2-.1c-1-.5-2.1.1-3.1-.4h0a125.91,125.91,0,0,1,2.5-17.1c2.8-1.1,5.3-.1,7.9.8C168.73,246.44,168.83,246.74,168.63,247Z"/><path class="cls-10" d="M158.63,246.44a142.08,142.08,0,0,1-2.5,15.9l-1.6-.2L148,261c-.5-2.7.4-5.2.7-7.8a57.12,57.12,0,0,1,1.6-9.2,1.79,1.79,0,0,1,.7-.5,17.91,17.91,0,0,1,6.1.7C158.43,244.44,159.23,245,158.63,246.44Z"/><path class="cls-13" d="M280,120.44l12.1-3.3a19.88,19.88,0,0,1,2.7,10.9,3.82,3.82,0,0,1-2.8,1.4c-3,.5-5.8,2-8.9,1.8-1.7-1.6-1.6-4-2.3-6.1a28.65,28.65,0,0,1-.7-2.8A6.23,6.23,0,0,1,280,120.44Z"/><path class="cls-13" d="M302.13,114.54a113.79,113.79,0,0,1,11.5-2.9,9.63,9.63,0,0,1,1.6,2.5c.5,1.9,1,3.8,1.5,5.8.2.9.6,1.8,0,2.7a30.76,30.76,0,0,1-11.6,2.7c-2.2-1.8-2-4.6-2.8-7C301.93,117.24,301.23,115.84,302.13,114.54Z"/><path class="cls-15" d="M344.63,140.94a96,96,0,0,0-12,3.1c-1.2-.5-1.3-1.6-1.6-2.6-.7-2.4-1.2-4.9-1.9-7.4-.4-2.4-1.7-4.7-1.5-7.2.5-1.5,1.3-.9,2-.2,3,2.6,6,5.2,8.9,7.9,1.6,1.5,3.6,2.7,5,4.4C344,139.54,344.93,139.94,344.63,140.94Z"/><path class="cls-17" d="M290.13,157.44a58.52,58.52,0,0,1-10,2.5,2,2,0,0,1-1.1-1.1,78.85,78.85,0,0,1-2.3-9.3,2.35,2.35,0,0,1,.2-.8c3-1.8,6.5-2.2,9.9-2.8a.91.91,0,0,1,.7.3c1.1,2.9,1.6,6,2.5,9C290.23,155.94,290.73,156.74,290.13,157.44Z"/><path class="cls-17" d="M311.63,151.94l-10,2.5a5.38,5.38,0,0,1-1-2c-.8-2.8-1.5-5.6-2.3-8.4a1.56,1.56,0,0,1,.8-1.3c3.1-.9,6.1-2.2,9.4-2.1a1.61,1.61,0,0,1,.7.4c1.5,3,1.8,6.3,2.8,9.5A2,2,0,0,1,311.63,151.94Z"/><path class="cls-17" d="M302.13,114.54a52.75,52.75,0,0,0,3,10.5.78.78,0,0,1,0,1.1c-3.2,1-6.3,2.3-9.8,2.3a1.16,1.16,0,0,1-.7-.5c-.3-3.8-1.8-7.2-2.5-10.9Z"/><path class="cls-17" d="M329.73,133.94l3,10.1c.7,2.3-.5,2.8-2.5,3.1s-4.2,1.3-6.4,1.5c-1.7-.1-1-1.6-1.5-2.4-.4-2.7-1.7-5.3-1.9-8.1a.91.91,0,0,1,.3-.7c1.8-1.1,3.9-1.4,5.8-1.9A13.69,13.69,0,0,0,329.73,133.94Z"/><path class="cls-2" d="M161.13,14.44A10.23,10.23,0,0,1,162,19c0,2.4-2.5,1.5-3.8,2.1s-.9-.9-1.2-1.4c-.6-1.4.1-3.2-1.3-4.4,2.2-1.6.3-3.5.3-5.3a41.78,41.78,0,0,0-.9-7.1c-.2-1.4.1-2.7,1.5-2.9,1.6-.3,2.3,1.2,2.5,2.5.5,2.6.7,5.2,1.1,7.8A9.14,9.14,0,0,0,161.13,14.44Z"/><path class="cls-13" d="M265.13,135.54c-1.3-1.6-1.2-3.6-1.9-5.4-.3-.9-.3-1.9-1.1-2.7,1-1.4,2.8-1.9,4-2.9,1.5.1,2.8-1.3,4.4-.8a2.65,2.65,0,0,1,.6.5c1,3.1,2.3,6.1,2.2,9.4C270.73,135.14,268.13,136.44,265.13,135.54Z"/><path class="cls-14" d="M277.13,149.44l2.5,9.5c-.9,1.7-2.8.7-4,1.5-1.5.1-3.1.3-4.5-.5a11,11,0,0,1-2.2-8.6C271.43,149.84,274,148.74,277.13,149.44Z"/><path class="cls-2" d="M243.13,40a5.58,5.58,0,0,0-.8.5c-.8.6-1.8,2-2.5,1.6-1.2-.6-2-1.9-2.9-3-.6-.7.1-1,.5-1.4l2.8-2.3c3,0,4.4-2.7,6.6-4a41.72,41.72,0,0,0,4.7-3.6,1.93,1.93,0,0,1,2.8,0c.1.1.2.2.2.3,1,1,.2,2-.4,2.6-2.5,2-5.2,3.8-7.6,5.9C245.33,37.64,243.43,38,243.13,40Z"/><path class="cls-18" d="M363.63,117a1.6,1.6,0,0,0,.1-1.5c1.7.2,2.2-1.1,2.9-2.3,3.8-7.1,7.6-14.3,11.5-21.4.7-1.3,1.2-3,3.1-3.3l-13.5,24.6c-4.3,7.8-8.6,15.6-13,23.4-1,.1-.9-.7-1-1.4,1.4-3.6,2.8-7.2,5.6-10.1a3.81,3.81,0,0,0,1-2C360.33,120.44,362,118.74,363.63,117Z"/><path class="cls-19" d="M344.63,140.94c-3.8-4.2-8.4-7.7-12.6-11.4-1.2-1.1-2-3.1-4.1-3-1.9-1-3-2.9-4.7-4.2-2.9-2.7-6.4-4.8-8.7-8.2-.4-.8-1.2-1.4-1-2.4l.5-.2c3.6,4.1,8,7.4,12,11.1,4.1,3.9,8.5,7.6,12.8,11.4,3.2,2.9,6.4,5.7,9.6,8.6a2.1,2.1,0,0,0,1.1.4.64.64,0,0,1,.1.9l-.1.1C347.53,143.74,346.93,140.94,344.63,140.94Z"/><path class="cls-17" d="M100.73,106.14a2.27,2.27,0,0,0-1.7-2.4c-1.8-.9-3.4-2.2-5.4-2.7a.91.91,0,0,1-.3-1,72.32,72.32,0,0,1,4-6.6,1.06,1.06,0,0,1,1.3-.3A16.87,16.87,0,0,1,100.73,106.14Z"/><path class="cls-17" d="M269.13,151.44c.1,3,1.3,5.7,2,8.5a15.79,15.79,0,0,1-10.1-6.3c2.2-1.8,5.2-1.3,7.5-2.7A1,1,0,0,1,269.13,151.44Z"/><path class="cls-20" d="M224.13,301.94l-26.9,4.4-7.1,1.1.4-1.3c10.4-1.6,20.8-3.3,31.2-4.9a9.74,9.74,0,0,1,2.4-.2Z"/><path class="cls-21" d="M126.63,307.84c-8.9-5.7-17.9-11.3-26.8-17a11.51,11.51,0,0,1-1.7-1.4v-.9l28.6,18Z"/><path class="cls-22" d="M301.13,152.54c.7.5.4,1.3.5,1.9l-11.5,3-.5-1.9A114.28,114.28,0,0,0,301.13,152.54Z"/><path class="cls-23" d="M322.63,145.94c.9.6,0,2,1.1,2.6l-12.1,3.3v-1.4c2.2-1.6,4.9-1.8,7.4-2.5A5.68,5.68,0,0,0,322.63,145.94Z"/><path class="cls-24" d="M349.63,143.94v-1l1.6-2.9a5.73,5.73,0,0,1,3-5.1c0,.6-.1,1.2.5,1.5l-4,8Z"/><path class="cls-25" d="M280,120.44a1.66,1.66,0,0,1,.6,1.6c-3.3.6-6.5,2.3-10,2h0a1,1,0,0,1,0-1.4Z"/><path class="cls-26" d="M98.63,93l-1,.5a30.92,30.92,0,0,0-6.5-6l.5-1.4C94.93,87.34,96.83,90.14,98.63,93Z"/><path class="cls-27" d="M270.63,122.64V124c-1.5-.3-2.8,1.6-4.5.5C267.23,122.94,269.13,123.34,270.63,122.64Z"/><path class="cls-28" d="M275.63,160.54c1-1.4,2.8-.7,4-1.5l.5.9C278.63,160.64,277.23,161.24,275.63,160.54Z"/><path class="cls-29" d="M165,263.54c.8,0,1.1-.6,1.6-1-.1,1.1,1.2.8,1.5,1.5C167.13,263.84,165.93,264.34,165,263.54Z"/><path class="cls-30" d="M101.53,254c1,.1,2.1-.4,3.1.4C103.53,254.44,102.43,254.74,101.53,254Z"/><path class="cls-31" d="M158,262.54c1,.1,2.1-.4,3.1.4C160.13,262.94,159,263.24,158,262.54Z"/><path class="cls-32" d="M161.53,263c1,.1,2.2-.4,3.1.4C163.53,263.44,162.43,263.74,161.53,263Z"/><path class="cls-32" d="M221.53,272c1.1,0,2.2-.4,3.1.4h-2.9A.76.76,0,0,1,221.53,272Z"/><path class="cls-31" d="M98,253.54c1,.1,2.1-.4,3,.4C100.13,253.94,99,254.24,98,253.54Z"/><path class="cls-33" d="M95,253c1,.1,2.2-.5,3.1.5C97.13,253.44,95.93,253.74,95,253Z"/><path class="cls-32" d="M91.63,252.54c1,.1,2.1-.4,3,.4C93.63,252.94,92.53,253.24,91.63,252.54Z"/><path class="cls-34" d="M88.63,252c1,.2,2.2-.4,3,.6C90.63,252.34,89.53,252.84,88.63,252Z"/><path class="cls-35" d="M387.13,104.64a3.92,3.92,0,0,1-4.4-3.3,4.73,4.73,0,0,1,.1-1.7,6.32,6.32,0,0,1,2.1-3.6c1.2.8.8,2.4,1.6,3.4,1.1.9,2.9.3,3.6,1.9A3.43,3.43,0,0,1,387.13,104.64Z"/><path class="cls-36" d="M386.33,100.14c-1-1.2-.8-2.7-1.2-4.1,2.9-2.2,5.5-2.6,7.6-1.2,1,.7,2.1,1.4,1.8,2.9-1.4.7-2.9-.2-4.3.1S388.13,100.44,386.33,100.14Z"/><path class="cls-37" d="M390,97.44a13.52,13.52,0,0,1,4.5.4c.4,4.3-3.5,7.9-7.4,6.8a15.68,15.68,0,0,0,3.1-3.2C389.83,100.14,389,98.84,390,97.44Z"/><path class="cls-2" d="M208,50.34c-3.5.1-6.9.8-10.4.6a22.89,22.89,0,0,1-12.6-4.2c-7.4-5.6-15.9-8.4-25-9.9-.5-1.5.9-1.2,1.4-1.3A43.64,43.64,0,0,1,191,36a37.8,37.8,0,0,1,17.6,12.6C209.63,49.94,208.93,50,208,50.34Z"/><path class="cls-38" d="M242.23,56.54l-18.9-4.8a48.71,48.71,0,0,0-10.7-1.7c-.3-.2-.8-.4-.5-1,5.2-3.1,10.7-2.5,16.2-.8a46.19,46.19,0,0,1,12.9,7A2,2,0,0,1,242.23,56.54Z"/><path class="cls-39" d="M153.13,35.54l-3-.6c1.4-1.8,3.6-1.8,5.9-2.6C155.73,34.34,155.53,35.94,153.13,35.54Z"/><path class="cls-40" d="M212.13,49l.5,1-1.5.1C210.73,49,211.63,49.24,212.13,49Z"/><path class="cls-10" d="M117.63,256.44c.7-4,1.4-8,2-12.1.2-1.6.8-3.2.6-4.9a1.79,1.79,0,0,1,.7-.5,78.86,78.86,0,0,1,17.3,2.7,3,3,0,0,1,.5.7c.1,5-1.4,9.9-1.8,14.8a2.28,2.28,0,0,1-1,1.9A155,155,0,0,1,117.63,256.44Z"/><path class="cls-13" d="M135.73,259.24l2.5-16.7a1.42,1.42,0,0,1,1.4-.7,83.13,83.13,0,0,1,10,1.5,1.83,1.83,0,0,1,1,.7,109.13,109.13,0,0,1-2.6,17C143.93,260.64,139.73,260,135.73,259.24Z"/><path class="cls-41" d="M231.63,58c3.2,1.2,6.4,2.3,9.5,3.6,3.8,1.6,5.5,5.4,4.6,9.6a75.31,75.31,0,0,1-3.9,13.3c-1.9,4.8-5.1,7.8-10.2,8.3-7.9.8-15.4-.5-21.5-5.8a23.17,23.17,0,0,1-7.5-15.6,67.58,67.58,0,0,1,0-9c.2-4.7,2.5-7.1,8-7.8a28,28,0,0,1,12.5,1.4c-.4,1.3-1.4,1.5-2.6,1.7-3,0-5.9-.7-8.9,0s-4.6,2-5.4,4.8a17.91,17.91,0,0,0-.2,10c.8,3.1,2.5,4.3,5.7,3.6a15.7,15.7,0,0,0,5.5-2.3,11.37,11.37,0,0,1,3.2-1.8,4.16,4.16,0,0,1,2.2.2,6.7,6.7,0,0,0,7.7-2,8.55,8.55,0,0,0,2.2-8.8C232.13,60.34,231.23,59.34,231.63,58Z"/><path class="cls-41" d="M164.13,42c4.7,1.4,9.3,3,13.1,6.2a5.7,5.7,0,0,1,2.3,5.9c-1.9,9.1-9.5,19.8-19.5,21.5a26.1,26.1,0,0,1-24.2-7.7c-2.3-2.3-2.6-5.6-2.2-8.7.7-5.4,1-10.9,3.5-15.9a7.3,7.3,0,0,1,7.1-4.5c3.5.1,7-.1,10.3,1,0,1.7-1.3,1.5-2.4,1.7h-6.2a6.71,6.71,0,0,0-5.9,3.6,18.06,18.06,0,0,0-2.3,11.8c.4,2.8,1.5,3.7,4.3,3.8a18.55,18.55,0,0,0,8.3-2.4,14.7,14.7,0,0,1,4-1.9,10.28,10.28,0,0,1,1.7-.1c7.3-.1,11-5.9,8.2-12.7C164.23,43.14,163.83,42.64,164.13,42Z"/><path class="cls-42" d="M231.63,58c2.2,3.7,2.8,7.3.4,11.2-1.8,3-6.4,5.5-9.8,3.6a4.67,4.67,0,0,0-1.7-.3c-.2-.8.4-1,.8-1.4a28.13,28.13,0,0,0,6.1-7.2c1.2-2.3.9-3.2-1.5-4.3-1.7-.8-3.6-1.1-5.4-1.9a.76.76,0,0,1-.2-.4c0-.2,0-.2.1-.2a4,4,0,0,0,2.6-1C226.13,55.94,228.83,57.24,231.63,58Z"/><path class="cls-42" d="M152.13,41c1,0,2,.2,2.5-1a38.28,38.28,0,0,1,9.5,2c2.6,3.3,2.5,6.9.6,10.5a8.06,8.06,0,0,1-8.4,4.5h-1.8a.85.85,0,0,1,0-.7c1.8-1.9,4.2-3.2,5.9-5.3,3.5-4.2,3.2-5.6-1.8-7.6a20.74,20.74,0,0,0-3.3-1C154.23,41.84,152.63,42.74,152.13,41Z"/><path class="cls-14" d="M211.63,253a123,123,0,0,1-2.6,17.2,117.92,117.92,0,0,1-11.9-1.9c-.6-2.7.5-5.3.8-7.9.3-3,.8-6,1.3-9a2.38,2.38,0,0,1,1.1-.6C204.13,251.24,208,251.24,211.63,253Z"/><path class="cls-43" d="M207,315.34a4.44,4.44,0,0,1-4.6,4.2,4.38,4.38,0,0,1-4.2-4.3,4.6,4.6,0,0,1,4.5-4.4,4.51,4.51,0,0,1,4.3,4.5Z"/><path class="cls-43" d="M116.63,310.34a4.25,4.25,0,0,1-4.2,4.3h0a4.34,4.34,0,0,1-4.5-4.4V310a4.27,4.27,0,0,1,4.4-4.2,4.44,4.44,0,0,1,4.3,4.5Z"/><path class="cls-10" d="M145.63,122.44l8.4,16c-.2.9.4,1.9-.5,2.7a1.14,1.14,0,0,1-.8.3c-5.8-.7-11.5-1.2-17.2-2.8a1.79,1.79,0,0,1-.5-.7c.1-5.2,1.2-10.2,2-15.3.1-.5.5-.8.9-1.2l.1-.1A9.6,9.6,0,0,1,145.63,122.44Z"/><path class="cls-10" d="M216.63,133l.5.5c.6,2.6-.4,5.1-.7,7.6a44,44,0,0,1-1.6,8.8,1.79,1.79,0,0,1-.7.5c-1.4.5-2.8,0-4.2-.2-4.2-.7-8.5-1.1-12.7-2a2.51,2.51,0,0,1-.7-.4c-.8-.9-.2-1.9,0-2.8,3.3-3.4,6.7-6.8,10-10.3.9-.9,1.7-1.8,2.5-2.7A11.08,11.08,0,0,1,216.63,133Z"/><path class="cls-16" d="M189.63,146c.1,0,.1.1.2.1,1.9,3.1,1.9,3.1,4.8.9a1.71,1.71,0,0,1,2,.5h0a2.87,2.87,0,0,1,.2,2.4c-.7,3.4-.4,7-2.2,10.2a3.14,3.14,0,0,1-2.1.5c-3.5-.5-7-.7-10.4-1.8a1.79,1.79,0,0,1-.5-.7,66,66,0,0,1,1.7-12.5,1.79,1.79,0,0,1,.7-.5A9.67,9.67,0,0,1,189.63,146Z"/><path class="cls-16" d="M153.13,141h.5a1.22,1.22,0,0,1,1.6,0c2.1,3.3,2.1,3.3,5.4.5a17.74,17.74,0,0,1,5.6.9,2.51,2.51,0,0,1,.4.7,56.41,56.41,0,0,1-2,12.3l-.6.6a41.82,41.82,0,0,1-12.2-1.7,3,3,0,0,1-.5-.7A40.44,40.44,0,0,1,153.13,141Z"/><path class="cls-10" d="M182.13,158v.5a.76.76,0,0,1,.2.4c-.5,5.4-.8,10.9-2.7,16.1-3,1.1-5.8.2-8.6-1.1l2.5-17A12.7,12.7,0,0,1,182.13,158Z"/><path class="cls-10" d="M166.63,203.44l2.5-17c2.9-1.2,5.6.1,8.4.8a1.79,1.79,0,0,1,.5.7c-.7,5.6-.8,11.2-2.9,16.6A11,11,0,0,1,166.63,203.44Z"/><path class="cls-10" d="M162.63,231.54l2.1-15.5c2.9-1.1,5.6-.1,8.4.7a1.79,1.79,0,0,1,.5.7,81.32,81.32,0,0,1-2.5,16.3l-.6.6c-2.3.5-4.4-.2-6.6-.7C162.63,233.44,162,232.74,162.63,231.54Z"/><path class="cls-10" d="M167.63,186.44c-.6,5.6-1.4,11.1-2.5,16.6-2.8,1.2-5.4.1-8-.8a1.23,1.23,0,0,1-.4-.8c.2-5,1.4-9.8,2-14.8a3.7,3.7,0,0,1,.8-1.8C162.43,184.34,165.23,184.34,167.63,186.44Z"/><path class="cls-10" d="M163.13,216.44c-.6,5.4-1.4,10.7-2.5,16-2.7,1.1-5.2,0-7.8-.6a1.47,1.47,0,0,1-.5-.6,115.12,115.12,0,0,1,2.4-16.5.9.9,0,0,1,.6-.6,15.74,15.74,0,0,1,6.8.8C162.93,215.14,163.63,215.44,163.13,216.44Z"/><path class="cls-10" d="M172.13,157c-.7,4.5-1.3,9.1-2,13.6a29.31,29.31,0,0,1-.5,2.9c-2.8,1.2-5.4.1-8-.8a3,3,0,0,1-.5-.7,111.33,111.33,0,0,1,2.2-15.2,3.29,3.29,0,0,1,.7-1.3l.1-.1C167,154.94,169.73,155,172.13,157Z"/><path class="cls-44" d="M161.63,172.54c2.7.1,5.3,1.1,8,1l-2,13a36.43,36.43,0,0,0-8-1.5l-.2-.3c-.2-3.7.9-7.1,1.4-10.7A1.65,1.65,0,0,1,161.63,172.54Z"/><path class="cls-44" d="M163.13,216.44a1,1,0,0,0-.9-1c-2.4-.3-4.7-.7-7-1a25.58,25.58,0,0,1,2-12.5c2.7.1,5.3,1.1,8,1A118.66,118.66,0,0,1,163.13,216.44Z"/><path class="cls-12" d="M152.63,231.54l8,1a109.74,109.74,0,0,1-2,14c.1-1-.4-1.4-1.4-1.6-2-.2-4.1-.6-6.1-.9a2.38,2.38,0,0,1-.6-1.1C150.93,239,150.93,235.14,152.63,231.54Z"/><path class="cls-44" d="M172.13,157c-2.6-1-5.3-.9-8-1.5l2-12.5c2.8-1,5.4-.2,8,1Z"/><path class="cls-12" d="M177.63,187.54c-2.9.2-5.6-1.1-8.5-1l2-12.5c2.9,0,5.6,1.2,8.5,1l.2.3a48.3,48.3,0,0,1-1.4,10.7A1.9,1.9,0,0,1,177.63,187.54Z"/><path class="cls-12" d="M182.13,158l-8.5-1c.6-4.2.9-8.4,2-12.5a9.41,9.41,0,0,1,8,1C183.73,149.74,182.53,153.84,182.13,158Z"/><path class="cls-12" d="M162.63,231.54c-.1,1,.4,1.4,1.4,1.6l6.6.9a1.84,1.84,0,0,1,.5,1.6c-.4,3.1-.8,6.3-1.4,9.4a1.78,1.78,0,0,1-1.1,1.5l-8-1A109.74,109.74,0,0,1,162.63,231.54Z"/><path class="cls-12" d="M173.13,217l-8.4-1,2-12.6,8.4,1,.3.3c.2,3.8-.7,7.4-1.4,11A1.6,1.6,0,0,1,173.13,217Z"/><path class="cls-10" d="M183.63,145.54l-8-1c-.4-5.3,2.4-9.2,5.7-13.3,1.8,2.2,2.8,4.9,4.2,7.3-.5,2.3-.1,4.8-1.4,7Z"/><path class="cls-10" d="M174.13,143.94l-8-1v-.5c-1.1-2.4.4-4.7.6-7,1.6-1.5,3.1-2.9,4.6-4.5,1-1.1,1.4-.9,1.9.5A22.32,22.32,0,0,1,174.13,143.94Z"/><path class="cls-12" d="M216.63,133a38.6,38.6,0,0,1-7.5-1,106.47,106.47,0,0,1,9.5-9.5C217.83,125.94,217.93,129.64,216.63,133Z"/><path class="cls-12" d="M145.63,122.44l-7.5-1,1.5-11A96,96,0,0,1,145.63,122.44Z"/><path class="cls-45" d="M166.63,135.54c1,1.7-.3,3.2-.2,4.9a7.61,7.61,0,0,1-.3,2.1c-1.9-.1-3.9.3-5.6-1.1Z"/><path class="cls-46" d="M184.13,145.44c.2-2.4-.2-4.9,1.4-7l4.1,7.5A17.13,17.13,0,0,1,184.13,145.44Z"/><path class="cls-47" d="M196.63,147.44a2.88,2.88,0,0,1-2-.5,6.36,6.36,0,0,1,2-2C197.53,145.84,196.33,146.64,196.63,147.44Z"/><path class="cls-48" d="M155.23,140.94h-1.6c.1-.8-.3-1.8.5-2.4Z"/><path class="cls-49" d="M175.53,134.54l1.1.6c-.1.4-.3.9-.8.7S175.53,135,175.53,134.54Z"/><path class="cls-50" d="M354.13,134.94l-2.9,5.1c-1.7.6-2.4-.9-3.3-1.7-6.7-5.8-13.3-11.8-19.9-17.8a6.42,6.42,0,0,1-1-1.3c3.7.5,7,1,10.2,1.4,6.1.9,12.3,1.8,18.4,2.8,1.3.2,2.9-.2,3.6,1.5Z"/><path class="cls-51" d="M363.63,117l-3.4,6a2.23,2.23,0,0,0-1.7-.9c-3.7-.1-5.2-3.3-7.4-5.6,2.9.4,5.8.8,8.6,1.3A4.27,4.27,0,0,0,363.63,117Z"/><path class="cls-44" d="M199.13,251l-17.5-2.5a2.44,2.44,0,0,1-.6-2.3c.6-3.3.7-6.7,1.7-9.9a1.17,1.17,0,0,1,.6-.6,82.39,82.39,0,0,1,17.8,2.7,2.92,2.92,0,0,1,.4,2.4c-.3,2.7-.8,5.4-1.2,8.1A2.25,2.25,0,0,1,199.13,251Z"/><path class="cls-16" d="M183.13,236c-.1,4.2-1.6,8.3-1.5,12.5h-.5c-4.2-.3-8.2-1.6-12.4-1.5v-.5c1.1-4.1,1.4-8.3,2-12.5h.1A24.8,24.8,0,0,1,183.13,236Z"/><path class="cls-16" d="M199.13,251c.9-4.1,1.5-8.3,2-12.5l.4-.2a48.37,48.37,0,0,1,12,1.8,2.65,2.65,0,0,1,.5.6,36.2,36.2,0,0,1-1.9,12.2h-.5c-4.2-.2-8.2-1.6-12.4-1.5Z"/><path class="cls-44" d="M212.13,253c0-4.2,1.3-8.3,1.6-12.5a2.89,2.89,0,0,1,2.4-.3c4.7.6,9.3,1.4,14,2.1a3.29,3.29,0,0,1,1.6.7h0a104.93,104.93,0,0,1-2,12.5C223.73,255,217.93,253.94,212.13,253Z"/><path class="cls-44" d="M90.13,234.94c-.2-4.2,1-8.3,1.5-12.5a3.1,3.1,0,0,1,2.3-.6c4.6.6,9.1,1.3,13.7,2a4,4,0,0,1,2,.9,2.12,2.12,0,0,1,.4,1.9c-.4,3-.8,6-1.3,9a2.3,2.3,0,0,1-1.2,1.8Z"/><path class="cls-16" d="M107.63,237.44c1.1-4.1,1.4-8.3,2-12.5l.3-.3c4.2-.3,8.2.8,12.2,1.6a3,3,0,0,1,.5.7c-.2,4.2-.5,8.4-2,12.4h-.5c-4.1-.6-8.2-1.9-12.5-1.5Z"/><path class="cls-10" d="M107.13,117h.5l16,2.3a12.25,12.25,0,0,0,1.9.2v.5a4.2,4.2,0,0,1,.2,2.7c-.6,3.9-1.2,7.7-1.8,11.6a5,5,0,0,1-.9,2.3,3.34,3.34,0,0,1-2.6.2c-4.4-.6-8.8-1.3-13.2-2a3.1,3.1,0,0,1-2.2-.9l-.1-.5c.6-4.2,1.1-8.5,1.8-12.8A14.2,14.2,0,0,0,107.13,117Z"/><path class="cls-10" d="M245.13,154.54h-.5a2.18,2.18,0,0,1-2.3.5c-4.5-.6-8.9-1.4-13.3-2a3,3,0,0,1-2-1,2.62,2.62,0,0,1-.4-2.1c.7-4.2,1.2-8.4,1.9-12.6a2.87,2.87,0,0,1,1.1-1.9l.1-.5,12.1,2,5.8,1C246.53,143.44,245.73,148.94,245.13,154.54Z"/><path class="cls-10" d="M231.63,243c-6.1-.3-12-1.6-17.9-2.5h-.1a.76.76,0,0,1-.2-.4c.5-5.6,1-11.2,2.7-16.6a3.65,3.65,0,0,1,2.9-.2c4.2.6,8.4,1.2,12.6,1.9a3,3,0,0,1,2.6,1.3l.1.1Z"/><path class="cls-10" d="M236.13,213.44v.5c-3.1.6-6-.6-9.1-.8-2.2-.2-4.4-.7-6.6-1A3.19,3.19,0,0,1,218,211a2.66,2.66,0,0,1-.3-1.2c.7-4.9,1.2-9.9,2.3-14.8a2.38,2.38,0,0,1,.6-1.1,2.87,2.87,0,0,1,2.4-.2c4.5.7,9,1.3,13.6,2a2.47,2.47,0,0,1,2.1,1.2l.1.1Z"/><path class="cls-10" d="M243.13,167.54l-2.5,16.5-.1.1a3.47,3.47,0,0,1-2.8.6c-4.3-.7-8.7-1.2-13-2a3.72,3.72,0,0,1-2.2-1,2,2,0,0,1-.4-1.6c.9-5,1.1-10.1,2.5-15a1.79,1.79,0,0,1,.5-.7c1.7-.4,3.4.1,5.1.3,3.4.5,6.8,1.1,10.3,1.5,1,.1,2,.2,2.6,1.3Z"/><path class="cls-10" d="M109.63,225c-6-.9-11.9-2.1-18-2.5V222l2.5-16.5.1-.1a2.75,2.75,0,0,1,2.3-.5c4.6.6,9.1,1.4,13.7,2a3.37,3.37,0,0,1,2,.9,2.92,2.92,0,0,1,.4,2.4c-.6,4.2-1.3,8.4-1.9,12.5a3.33,3.33,0,0,1-1.1,2.1Z"/><path class="cls-10" d="M96.13,192.94v-.5l2.4-16.4.1-.1a2.68,2.68,0,0,1,2.3-.5c4.6.8,9.1,1.2,13.7,2.1a4,4,0,0,1,2,.9,2.62,2.62,0,0,1,.4,2.1c-.6,4.4-1.3,8.7-1.9,13.1a3,3,0,0,1-1,2c-.3.1.1.1-.2.1A63.59,63.59,0,0,1,96.13,192.94Z"/><path class="cls-10" d="M100.63,163.44l-.1-.5,2.5-16.5.1-.1a1.84,1.84,0,0,1,1.6-.5c5.4.8,10.8,1.2,16.1,2.6a1.17,1.17,0,0,1,.6.6c.2,4.1-1,8-1.5,12-.2,1.7-.1,3.5-1.3,4.9a2.09,2.09,0,0,1-1.7.4c-5.1-.8-10.2-1.4-15.3-2.4C101.23,164,100.93,163.84,100.63,163.44Z"/><path class="cls-10" d="M269.13,151.44l-.5-.5c-1.3-4.9-2.3-9.8-4-14.5l.5-.9a37.76,37.76,0,0,0,8-2.1,1.47,1.47,0,0,1,.6.5c1.6,4.3,2.3,8.9,3.6,13.3a1.76,1.76,0,0,1-.2,1.6v.5C274.43,149.94,271.73,150.64,269.13,151.44Z"/><path class="cls-52" d="M261.13,127.94c.1.3.3.7.1.9-1.6,2.5-3.5,4.8-4.4,7.8a16,16,0,0,1,4.3-8.7Z"/><path class="cls-14" d="M229.53,135.54,227,152l-.3.3c-3.8.1-7.4-.9-11-1.4a1.44,1.44,0,0,1-1.1-.9,134.26,134.26,0,0,1,2.5-16.5Z"/><path class="cls-13" d="M123.13,136.44c.7-5.5,1.4-11.1,2.5-16.5,4.2,0,8.3,1.3,12.4,1.6l-2.5,16.5a2,2,0,0,1-1.8.6c-3.5-.6-7-.6-10.4-1.8Z"/><path class="cls-12" d="M243.13,167.44l-15.8-2.4a5,5,0,0,1-2.1-.5,2,2,0,0,1-.4-1.8c.3-2.9.9-5.8,1.3-8.8a3.11,3.11,0,0,1,1.1-1.9h0c5.8,1,11.6,2,17.5,2.6.2,3.7-1,7.3-1.3,10.9A12.5,12.5,0,0,0,243.13,167.44Z"/><path class="cls-44" d="M222.63,181.44a181.41,181.41,0,0,0,18,2.6l-2,12.9-15.3-2.4a25.58,25.58,0,0,1-2.7-.5l-.2-.3a40.67,40.67,0,0,1,1.9-12Z"/><path class="cls-44" d="M218.13,211c5.3.8,10.7,1.7,16.1,2.5a13.32,13.32,0,0,1,1.9.5l-2,12.5L219,224l-2.9-.5-.2-.4a44.13,44.13,0,0,1,1.9-11.9Z"/><path class="cls-12" d="M121.13,148.94l-15.3-2.2-2.7-.4c.5-4.2.8-8.4,2-12.5,6,.4,12,1.7,18,2.5h0A25.61,25.61,0,0,1,121.13,148.94Z"/><path class="cls-44" d="M100.63,163.44l16,2.3c.6.1,1.3.1,1.9.2l.2.3a36.62,36.62,0,0,1-1.9,11.9l-.3.3c-4.9-.7-9.9-1.4-14.8-2.2-1.1-.2-2.1-.2-3.2-.3C99.23,171.84,99.53,167.54,100.63,163.44Z"/><path class="cls-44" d="M96.13,192.94c6.1.4,12,1.8,18,2.5l.3.3a35.06,35.06,0,0,1-1.9,12l-.3.2-18-2.6Z"/><path class="cls-16" d="M152.63,231.54c-.2,4.2-1.6,8.2-1.5,12.5h-.5c-4.2-.4-8.2-1.7-12.4-1.5V242a31.14,31.14,0,0,1,1.8-12.5c2.6-.9,5,.2,7.5.5,1.7.2,3.7-.1,5.1,1.5Z"/><path class="cls-10" d="M294.63,128h.5a3.86,3.86,0,0,1,1.1,2.2c.8,4.3,2.7,8.4,2.9,12.8l-.5.9c-3.5,1.6-7.1,2.8-11,2.6h-.5a3.36,3.36,0,0,1-1-1.6c-1.1-4.4-2.6-8.6-3.2-13.1a1,1,0,0,1,.4-.7Z"/><path class="cls-17" d="M283.13,130.94v.5c-3.1,1.5-6.4,2.8-10,2.5v-.5l-2.5-9.5,8.3-2.4c.6-.2,1.1.2,1.6.4Z"/><path class="cls-10" d="M320.63,137.44v.5c-.7,1.1-1.9,1.2-3.1,1.4-2.8.5-5.5,2-8.4,1.6h-.5a68.54,68.54,0,0,1-3.9-14.1c-.1-.3.2-.6.4-.9V125l11.5-2.6a.48.48,0,0,1,.7.1c1.4,4.4,2.4,8.8,3.5,13.2A1.65,1.65,0,0,1,320.63,137.44Z"/><path class="cls-17" d="M317.13,122.54h-.5l-2-8.4,9,7.9C321.43,122.14,319.33,123,317.13,122.54Z"/><path class="cls-44" d="M317.13,122.54c2.1-.4,4.2-1.6,6.5-.5a17.14,17.14,0,0,1,4.4,4.5l1.7,7.4c-.1.7-.1,1.4-1.1,1.6-2.7.6-5.3,1.3-7.9,2C319.53,132.44,317.53,127.74,317.13,122.54Z"/><path class="cls-12" d="M273.13,134c3.3-.8,6.5-2,10-2.5l4,15-10,2.5Z"/><path class="cls-13" d="M287.63,146.54l11-2.6c1.6,2.6,1.8,5.7,2.5,8.6-.1.4-.2.8-.6.9-3.2.8-6.5,1.7-9.7,2.5-.3.1-.8-.3-1.1-.4C288.93,152.54,287.33,149.74,287.63,146.54Z"/><path class="cls-44" d="M305.13,125.94c1.1,4.3,2.1,8.5,3.2,12.8a16.6,16.6,0,0,1,.3,2.2c-3.3.1-6.2,1.8-9.5,2a110.5,110.5,0,0,1-4-15,29.39,29.39,0,0,0,7.1-1.7A13.58,13.58,0,0,1,305.13,125.94Z"/><path class="cls-13" d="M309.13,141l11.5-3c.8,2.6,1.9,5.2,2,8-.1.9.2,1.8-1.2,2.1-3.3.7-6.6,1.6-9.9,2.4A62.94,62.94,0,0,1,309.13,141Z"/><path class="cls-53" d="M390,97.44c-.2,1.3.6,2.6.2,4-1.1-1.1-2.7-.4-3.9-1.2C387.83,99.54,388.33,97.74,390,97.44Z"/><path class="cls-44" d="M140.13,229.44c-.7,4.2-.9,8.4-2,12.5l-17.5-2.5c0-4.2,1.1-8.3,1.5-12.5a2.11,2.11,0,0,1,1.8-.6c5,.7,10,1.3,15,2.3a3.55,3.55,0,0,1,.9.4Z"/><path class="cls-54" d="M220.53,57c0,.1.1.3.1.4.4,1-.5,1.7-.9,2.5a11.14,11.14,0,0,0-1.4,6.4,7.24,7.24,0,0,0,3.2,5.1l-.9,1c-2.7,1.6-5.2,3.5-8.4,4.2-3.8.9-6-.2-6.9-4a19.5,19.5,0,0,1,0-9.6c1.6-6,3.6-6,9.5-6.6A55.09,55.09,0,0,1,220.53,57Z"/><path class="cls-54" d="M154.63,56.54a.9.9,0,0,1-.1.5c-3.2,1.5-6.2,3.5-9.8,4.2-5.4,1.1-7.8-.5-7.9-6a20.51,20.51,0,0,1,2.4-10,7.38,7.38,0,0,1,7.1-4.2H152c1,1,2.5,0,3.5,1-3,.7-4.3,2.7-4.7,5.6a8.15,8.15,0,0,0,2.7,7.6C154,55.54,154.53,55.84,154.63,56.54Z"/><path class="cls-55" d="M221.53,71.44c-3-.7-4.7-4.5-3.8-8.3a18.32,18.32,0,0,1,2.8-5.8,15.51,15.51,0,0,1,6.6,2.1,2.4,2.4,0,0,1,1.6,3l-.3.6A20.22,20.22,0,0,1,221.53,71.44Z"/><path class="cls-55" d="M154.63,56.54c-4.5-1.7-6-8.7-2.7-13.5.9-1.4,2.4-.9,3.7-1a10.94,10.94,0,0,1,4,1.2c4.7,1.9,5.1,3,2.1,7.2A22,22,0,0,1,154.63,56.54Z"/><path class="cls-12" d="M153.13,141c.1,4.2-1.1,8.3-1.5,12.5a2.27,2.27,0,0,1-2.1.5l-14.1-2.1a3.7,3.7,0,0,1-1.8-.8,2.29,2.29,0,0,1-.4-2.1c.5-2.9.9-5.8,1.3-8.8a2.19,2.19,0,0,1,1.1-1.8Z"/><path class="cls-16" d="M135.63,138.54l-2,12.5-.3.3c-3.9.3-7.7-.7-11.5-1.5a1.58,1.58,0,0,1-.7-.7l-.1-.1,2-12.5,12.5,1.5Z"/><path class="cls-12" d="M194.63,160l2-12.5,17.5,2.5a3,3,0,0,1,.6,2.6,87,87,0,0,1-1.7,10,.9.9,0,0,1-.6.6,86.14,86.14,0,0,1-17.6-2.8Z"/><path class="cls-16" d="M212.63,162.94c.1-4.4,1.7-8.5,1.5-12.9h.5l12.4,2-1.9,12.5a.9.9,0,0,1-.1.5A29.5,29.5,0,0,1,212.63,162.94Z"/><path class="cls-14" d="M179.63,175l2.5-16.5,12.5,1.5h0a2.51,2.51,0,0,1,.5,1.9c-.7,4.2-1.2,8.5-1.9,12.8a4,4,0,0,1-.9,2,2.51,2.51,0,0,1-1.9.5c-3.7-.6-7.5-.4-10.8-2.2Z"/><path class="cls-10" d="M133.63,150.94l15.5,2.3a19.42,19.42,0,0,0,2.4.2v.5a1.5,1.5,0,0,1,.4,1.1c-.7,5.1-1.1,10.1-2.4,15.1a1.17,1.17,0,0,1-.6.6,3.21,3.21,0,0,1-1.7.2c-4.9-.8-9.8-1.3-14.7-2.3a5.78,5.78,0,0,1-1.4-.5,1.79,1.79,0,0,1-.5-.7c.1-5.1,1.3-10,2-15a2.37,2.37,0,0,1,.9-1.5Z"/><path class="cls-13" d="M149.13,170.44l2.5-16.5c4.2,0,8.3,1.3,12.4,1.6l-2.5,16.5a2.38,2.38,0,0,1-1.1.6C156.63,172.24,152.73,172.24,149.13,170.44Z"/><path class="cls-14" d="M175.13,204.54l2.5-16.5a1.91,1.91,0,0,1,1.6-.6c3.7.5,7.4.5,10.9,2a2.89,2.89,0,0,1,.5,2.4c-.7,4.2-1.2,8.4-1.9,12.5a3.72,3.72,0,0,1-1,2.2c-2.7.8-5.3-.4-8-.6-1.6-.2-3.3,0-4.6-1.4Z"/><path class="cls-16" d="M190.13,189.54c-4.2-.2-8.2-1.6-12.4-1.5v-.5l2-12.5c4.2.2,8.2,1.6,12.5,1.5a1,1,0,0,1,.4.7c-.4,4.1-.6,8.2-2.1,12.1Z"/><path class="cls-14" d="M183.13,236l-12.4-2,2.5-16.5a1.61,1.61,0,0,1,1.3-.6c3.8.3,7.6.3,11.2,2a3.31,3.31,0,0,1,.5,2.9c-.7,3.8-1.1,7.6-1.7,11.4a4.7,4.7,0,0,1-1.4,2.8Z"/><path class="cls-16" d="M185.63,219c-4.2-.4-8.2-1.6-12.5-1.5V217l2-12.5,12.4,1.9.3.3a31.33,31.33,0,0,1-1.9,12.1Z"/><path class="cls-13" d="M159.63,185l-2.5,16.5a1.61,1.61,0,0,1-1.1.5c-3.9-.3-7.8-.3-11.4-2,0-.1-.1-.1-.1-.2a49.68,49.68,0,0,1,2.6-16.6,2.51,2.51,0,0,1,1.9-.5c3.5.6,7.2.4,10.6,2.3Z"/><path class="cls-16" d="M144.63,199.94c4.2.4,8.2,1.5,12.4,1.6v.5l-2,12.5h0a2.47,2.47,0,0,1-1.9.4c-3.4-.7-7.1-.6-10.4-1.9a1.79,1.79,0,0,1-.5-.7c.3-4.1.6-8.2,2-12.1Z"/><path class="cls-13" d="M142.73,212.54l12.4,2c-.6,5.7-1.4,11.3-2.5,16.9l-12.4-2h0a3,3,0,0,1-.2-2.6c.5-4,1.2-7.9,1.8-11.8A2.58,2.58,0,0,1,142.73,212.54Z"/><path class="cls-16" d="M159.63,185c-4.2-.3-8.2-1.6-12.5-1.5a1,1,0,0,1-.4-.7c.1-3.6,1-7,1.4-10.6a2.7,2.7,0,0,1,1-1.7h.1c4.2.2,8.2,1.6,12.4,1.5v.5Z"/><path class="cls-56" d="M176.23,180.74c-.2.8-.6,1.5-1.6,1.4s-1.5-.6-1.4-1.6a1.41,1.41,0,0,1,1.3-1.4h.2a1.47,1.47,0,0,1,1.6,1.4C176.23,180.54,176.23,180.64,176.23,180.74Z"/><path class="cls-56" d="M180.63,151.44c-.2,1-.7,1.6-1.7,1.4a1.45,1.45,0,0,1-1.4-1.5V151a1.32,1.32,0,0,1,1.3-1.3h.3a1.73,1.73,0,0,1,1.5,1.7Z"/><path class="cls-57" d="M165.93,237.64a1.58,1.58,0,0,1,1.5,1.7c0,1-.7,1.4-1.7,1.3s-1.4-.4-1.4-1.4A1.72,1.72,0,0,1,165.93,237.64Z"/><path class="cls-58" d="M170.13,211.44a1.37,1.37,0,0,1-1.4-1.6c.1-1,.6-1.6,1.6-1.5a1.44,1.44,0,0,1,1.5,1.3v.2a1.54,1.54,0,0,1-1.5,1.5C170.23,211.54,170.23,211.44,170.13,211.44Z"/><path class="cls-10" d="M183.13,235.94c1-5.6,2-11.3,2.5-17h.1a2.66,2.66,0,0,1,1.9-.4c5.3.9,10.7,1.2,16,2.6a1.79,1.79,0,0,1,.5.7,104.59,104.59,0,0,1-2.2,15.6,1.83,1.83,0,0,1-.7,1h-.1Z"/><path class="cls-13" d="M201.13,238.54l2.5-16.5a2.38,2.38,0,0,1,1.1-.6c3.9.2,7.8.4,11.4,2h0c-.6,5.7-1.5,11.4-2.5,17C209.43,239.94,205.23,239.44,201.13,238.54Z"/><path class="cls-10" d="M142.73,212.54l-2.6,16.9-15.5-2.2a19.42,19.42,0,0,0-2.4-.2v-.5c-.6-1.7,0-3.4.2-5.1a84.49,84.49,0,0,1,1.9-11.2,1.17,1.17,0,0,1,.6-.6,3.94,3.94,0,0,1,2.4-.1c4.2.6,8.4,1.4,12.6,1.9a4.3,4.3,0,0,1,2.8,1.1Z"/><path class="cls-13" d="M124.63,210c-.6,5.5-1.4,11-2.5,16.5-4.2,0-8.3-1.2-12.4-1.6l2.5-16.9h0a2.57,2.57,0,0,1,2.4-.3c2.6.3,5.2.7,7.8,1.1A2.63,2.63,0,0,1,124.63,210Z"/><path class="cls-13" d="M220.63,194l-2.5,17h0a2.62,2.62,0,0,1-2.1.4l-8.3-1.2a3.86,3.86,0,0,1-2.2-1.1,3.29,3.29,0,0,1-.4-1.7c.7-4.4,1.2-8.9,2-13.3a3.1,3.1,0,0,1,.9-1.8,1.5,1.5,0,0,1,1.1-.4c3.9.5,7.8.5,11.5,2.1Z"/><path class="cls-14" d="M212.63,162.94a104.93,104.93,0,0,1,12.5,2l-2.5,16.5h0a2.87,2.87,0,0,1-2.4.2c-3.4-.7-7.1-.4-10.3-2.1-.6-2.5,1.3-14.7,2.7-16.6Z"/><path class="cls-13" d="M114.13,195.44l2.5-17h0c.9-.7,1.9-.3,2.9-.2,3.1.6,6.4.6,9.4,1.8a1.79,1.79,0,0,1,.5.7c.1,4.9-1.3,9.5-1.8,14.3a3,3,0,0,1-1.1,2.2,26.62,26.62,0,0,1-12.4-1.8Z"/><path class="cls-13" d="M133.63,151l-2.5,16.5a1.61,1.61,0,0,1-1.1.5c-3.8-.4-7.7-.5-11.4-2h0l2.5-17Z"/><path class="cls-16" d="M210.13,179.54l12.4,2-2,12.5-12.4-1.5a1,1,0,0,1-.4-.7,83.47,83.47,0,0,1,1.8-12.2c.1-.3.4-.3.6-.1Z"/><path class="cls-16" d="M205.63,208.94l12.4,2c-.6,4.2-1,8.4-2,12.5-4.2-.2-8.2-1.6-12.5-1.5v-.5c-.7-.9-.3-1.9-.2-2.9.6-3.1.5-6.4,1.9-9.4Z"/><path class="cls-16" d="M118.63,166l12.5,1.5v.5c.8,3.5-.6,6.8-.9,10.1a3.19,3.19,0,0,1-1.1,2.4l-12.5-2Z"/><path class="cls-16" d="M114.13,195.44l12.5,1.6a1,1,0,0,1,.4.7,77,77,0,0,1-1.4,10.6,3,3,0,0,1-1,1.7h-.1L112,208Z"/><path class="cls-10" d="M210.13,179.54h-.5a2.71,2.71,0,0,1-2.6.5c-4.2-.7-8.4-1.2-12.5-1.9a4.12,4.12,0,0,1-2.4-1.1v-.5l2.5-16.5c5.3.8,10.7,1.6,16.1,2.5a13.32,13.32,0,0,1,1.9.5Z"/><path class="cls-44" d="M129.13,180.44l2-12.5,15.5,2.3,2.4.3L147,183a2.63,2.63,0,0,1-2.1.6c-4.7-.8-9.4-1.3-14.1-2.2a4.25,4.25,0,0,1-1.7-1Z"/><path class="cls-10" d="M208.13,192v.5l-2.5,16.5-.1.1a3,3,0,0,1-2.6.5c-4.3-.6-8.6-1.3-12.9-1.9a4.12,4.12,0,0,1-2.4-1.1h-.1l2.5-16.9h.1a2.47,2.47,0,0,1,1.9-.4c4.9.7,9.8,1.4,14.7,2.2A2.39,2.39,0,0,1,208.13,192Z"/><path class="cls-44" d="M208.13,192c-6-.4-12-1.6-17.9-2.5l2-12.5,17.5,2.5C209.83,183.84,208.53,187.84,208.13,192Z"/><path class="cls-44" d="M187.63,206.54l17.9,2.5-2,12.5c-6-.5-12-1.6-17.9-2.5Z"/><path class="cls-10" d="M129.13,180.54l15.5,2.2a19.42,19.42,0,0,0,2.4.2v.5l-2.5,16.5h-.1a2.51,2.51,0,0,1-1.9.5c-4.8-.6-9.5-1.4-14.3-2.1a3.7,3.7,0,0,1-1.8-.8V197Z"/><path class="cls-44" d="M126.63,197.54l16,2.3,1.9.2-2,12.5-15.5-2.2-2.5-.3Z"/><path class="cls-15" d="M26.13,90.54c-2.5-2.7-6-3.7-9-5.7-3.3-2.3-7.1-3.8-10.3-6.3-6.8-5.2-9.3-14.8-3.9-22.7s15.4-9.8,23.9-4.5c4.7,2.9,9.6,5.6,14.4,8.4a3.89,3.89,0,0,0,2.3.7c.4,1.5-.8,2.4-1.3,3.5-.9,1.8-2.1,3.5-3.1,5.3-2.5,4.5-5.2,8.9-7.7,13.3-1.3,2.1-2.4,4.2-3.7,6.3C27.43,89.64,27.23,90.54,26.13,90.54Z"/><path class="cls-12" d="M100.73,106.14a17.67,17.67,0,0,1-7.4,12,11.84,11.84,0,0,1-7.4-4,4.82,4.82,0,0,1,1.1-3c1.7-2.8,3.3-5.7,4.9-8.6.5-.8.8-1.7,1.8-1.9,2.5.2,4.4,1.8,6.4,3.1A1.85,1.85,0,0,1,100.73,106.14Z"/><path class="cls-59" d="M52.63,63.54c3.5,2.1,7.2,3.9,10.5,6.3a.76.76,0,0,1,.2.4c-1.2,3.6-2.7,7-5.7,9.4-3.8-1.6-7.4-3.3-10.4-6.2C48.23,69.84,50.53,66.74,52.63,63.54Z"/><path class="cls-14" d="M72.13,74.94l11.1,6.5c-1.1,2.9-2.9,5.4-4.4,8.1a2.65,2.65,0,0,1-1.7,1.4,33.3,33.3,0,0,1-10.2-5.8c-.4-1.5.5-2.6,1.2-3.7C69.43,79.24,70.23,76.74,72.13,74.94Z"/><path class="cls-17" d="M72.63,119.54a73.21,73.21,0,0,1-8.6-4.9,1.91,1.91,0,0,1,0-1.8c1.6-2.8,3.1-5.7,4.9-8.4a1.45,1.45,0,0,1,.7-.2,49.73,49.73,0,0,1,9,5.1,1.45,1.45,0,0,1,.2.7c-1.4,3-3.2,5.8-4.8,8.7C73.63,119.14,73.43,119.84,72.63,119.54Z"/><path class="cls-17" d="M77.13,90.54c2.1-1.9,2.9-4.7,4.5-7,.5-.7.7-1.7,1.6-2.1a86,86,0,0,1,8.4,4.7c.5.6.2,1.1,0,1.7a53.22,53.22,0,0,1-4.9,8.3,4.88,4.88,0,0,1-.7.3c-3.3-1-6.1-3.1-9.1-4.8A1.09,1.09,0,0,1,77.13,90.54Z"/><path class="cls-16" d="M72.13,74.94c-.9,2.7-2.7,4.8-3.9,7.3-.4.9-.8,1.8-1.1,2.7a.86.86,0,0,1-.6.3,45.74,45.74,0,0,1-8.9-5.1.62.62,0,0,1,.1-.7,35.21,35.21,0,0,0,5.5-9.6A60.27,60.27,0,0,1,72.13,74.94Z"/><path class="cls-17" d="M52.63,108l-8-4.6c-.6-.7-.1-1.4.1-2.1,1.4-2.7,3-5.4,4.7-8a1.45,1.45,0,0,1,.7-.2,27.58,27.58,0,0,1,9.1,5.2,1.7,1.7,0,0,1,.1.7c-1.6,2.8-3.3,5.5-4.9,8.3C53.93,107.84,53.53,108.54,52.63,108Z"/><path class="cls-17" d="M26.13,90.54l4.9-8.1c1.6-.4,2.6.7,3.8,1.3a38.8,38.8,0,0,1,4.8,3,1.45,1.45,0,0,1,.2.7c-1.3,3-3.3,5.7-4.8,8.7-.4.4-.6,1.2-1.4.9-2.2-1.2-4.4-2.5-6.6-3.6C25.33,92.74,25.43,91.84,26.13,90.54Z"/><path class="cls-17" d="M52.63,63.54c-.9,3.2-3,5.7-4.5,8.6-.2.4-.4.9-.6,1.3a.86.86,0,0,1-.6.3,22.32,22.32,0,0,1-8.3-4.8l4.8-8.6c.7-1.3,1.5-1.5,2.8-.6A71.62,71.62,0,0,0,52.63,63.54Z"/><path class="cls-13" d="M73.63,118.44a40.36,40.36,0,0,1,5-8.5,18.28,18.28,0,0,1,7.2,4,11.24,11.24,0,0,1-4.6,8h-2c-.6-1.2-1.9-.8-2.8-1.1C75.13,120.34,73.63,120.24,73.63,118.44Z"/><path class="cls-17" d="M81.13,121.94a28,28,0,0,0,4.4-7.9c.1-.1.3-.2.4-.1l.1.1,7.1,4A15.78,15.78,0,0,1,81.13,121.94Z"/><path class="cls-60" d="M52.63,108c.8.1,1-.7,1.5-1a109.26,109.26,0,0,1,10.5,6l-.6,1.6Z"/><path class="cls-60" d="M33.63,97l1-1c2.5.6,4.3,2.4,6.6,3.4,1.3.7,2.6,1.4,4,2.1l-.5,1.9Z"/><path class="cls-61" d="M73.63,118.44c1.3,1.8,3.5,2,5.4,2.4,1.4.3.2.6.1,1-2.3-.6-4.8-.5-6.6-2.4Z"/><path class="cls-44" d="M38.73,69l8.4,4.5c.5.6.2,1.1,0,1.6-2.1,3.8-4.2,7.5-6.5,11.2a1.45,1.45,0,0,1-1,.7c-3.1-1-5.5-3.4-8.5-4.5A137.37,137.37,0,0,1,38.73,69Z"/><path class="cls-10" d="M86.13,114h-.5a48.61,48.61,0,0,1-7-4v-.5a2.14,2.14,0,0,1,.3-1.9c2-3.4,4-6.9,6-10.3a4.89,4.89,0,0,1,1.2-1.3h.5a13.74,13.74,0,0,1,7,4v.9Z"/><path class="cls-10" d="M39.63,87c2.4-4.6,5.4-8.8,7.5-13.5h.5l10,6V80a.88.88,0,0,1,.1.7c-2.3,4.4-4.4,8.9-7.6,12.8h-.5c-3.2-.4-5.5-2.8-8.2-4.2-.7-.4-1.8-.6-1.8-1.8Z"/><path class="cls-10" d="M59.13,98.94v-.5a1.35,1.35,0,0,1,.1-1.6c2-3.7,4.1-7.3,6.3-10.9a2.17,2.17,0,0,1,1.1-1h.5l10,5.6v.9c.3.7-.2,1.3-.5,1.8-1.9,3.2-3.6,6.5-5.5,9.6a2.94,2.94,0,0,1-1.5,1.6h-.5a.76.76,0,0,1-.4.2C65.23,103.24,61.83,101.64,59.13,98.94Z"/><path class="cls-12" d="M69.63,104.54l7.5-13c3.3.9,5.8,3.3,9,4.5-2.2,4.7-5.1,8.9-7.5,13.5A71.42,71.42,0,0,1,69.63,104.54Z"/><path class="cls-13" d="M59.13,98.94l10,5.6c-1,3.1-3.1,5.6-4.5,8.5a30.54,30.54,0,0,1-10.5-6C55.63,104.24,56.83,101.24,59.13,98.94Z"/><path class="cls-13" d="M93.63,100l-7-4c1.1-3.1,3.3-5.5,4.6-8.5,3.2.8,5.2,3.1,6.5,6A27.44,27.44,0,0,1,93.63,100Z"/><path class="cls-44" d="M66.63,85l-7.5,13.4-9-5L57.63,80C60.83,81.34,63.63,83.34,66.63,85Z"/><path class="cls-13" d="M39.63,87.54l10,6a42,42,0,0,1-4.5,8,1.68,1.68,0,0,1-1.9-.2c-2.8-1.8-6-3.1-8.7-5.3A42.58,42.58,0,0,1,39.63,87.54Z"/><path class="cls-58" d="M46,63.44c1,.2,1.8.7,1.6,1.8s-.7,1.9-2,1.8a1.54,1.54,0,0,1-1.5-1.5v-.1A2,2,0,0,1,46,63.44Z"/></g></g></svg>