<svg xmlns="http://www.w3.org/2000/svg" viewBox="0 0 498.15 332.75"> <defs> <style> .cls-1{fill:#939795;}.cls-2{fill:#f1cea8;}.cls-3{fill:#6b4f22;}.cls-4{fill:#16658f;}.cls-5{fill:#111;}.cls-6{fill:#231f20;}.cls-7{fill:#e9c7a3;}.cls-8{fill:#890909;}.cls-9{fill:#6c6a6f;}.cls-10{fill:#c00606;}.cls-11{fill:#c72121;}.cls-12{fill:#242021;}.cls-13{fill:#962424;}.cls-14{fill:#d35353;}.cls-15{fill:#d35252;}.cls-16{fill:#a23f3f;}.cls-17{fill:#d35352;}.cls-18{fill:#a33f3f;}.cls-19{fill:#aaadad;}.cls-20{fill:#8f8b8a;}.cls-21{fill:#eccba7;}.cls-22{fill:#eac9a5;}.cls-23{fill:#cf4848;}.cls-24{fill:#d04a49;}.cls-25{fill:#cf4949;}.cls-26{fill:#a6a9a9;}.cls-27{fill:#ae3e3e;}.cls-28{fill:#ce4646;}.cls-29{fill:#ce4040;}.cls-30{fill:#cd3f3f;}.cls-31{fill:#cc3939;}.cls-32{fill:#b34242;}.cls-33{fill:#a82222;}.cls-34{fill:#a22;}.cls-35{fill:#ac2222;}.cls-36{fill:#ab2222;}.cls-37{fill:#ad2222;}.cls-38{fill:#179b58;}.cls-39{fill:#d5483a;}.cls-40{fill:#f8c943;}.cls-41{fill:#f0cda8;}.cls-42{fill:#e2c09b;}.cls-43{fill:#d8b792;}.cls-44{fill:#282420;}.cls-45{fill:#292929;}.cls-46{fill:#fbfbfa;}.cls-47{fill:#952424;}.cls-48{fill:#d15050;}.cls-49{fill:#d14f4e;}.cls-50{fill:#c54040;}.cls-51{fill:#c84444;}.cls-52{fill:#cf8e74;}.cls-53{fill:#45413a;}.cls-54{fill:#8b8b8a;}.cls-55{fill:#a43333;}.cls-56{fill:#f2e5e4;}.cls-57{fill:#9c958a;}.cls-58{fill:#686663;}.cls-59{fill:#686868;}.cls-60{fill:#f3e7e6;}.cls-61{fill:#efdedd;} </style> </defs> <title>Asset 2</title> <g id="Layer_2" data-name="Layer 2"> <g id="Layer_1-2" data-name="Layer 1"> <path class="cls-1" d="M411.07,88.39a4.68,4.68,0,0,1,4.51-1.3c11.77,1.79,23.56,3.51,35.33,5.29,9.32,1.41,18.63,2.9,28,4.31,5.07.77,10.14,1.52,15.23,2.14,4.17.51,5,2.35,3,6-5.76,10.43-11.38,20.93-17.06,31.41-3.24,6-6.51,11.93-9.71,17.93-1.68,3.15-4.59,3.1-7.38,2.69-11.52-1.69-23-3.59-34.53-5.33-12.75-1.92-25.51-3.73-38.26-5.61-3.19-.47-6.36-1-9.54-1.54-.73-1.09.16-1.89.57-2.71.91-1.85,2-3.58,2.9-5.46,5.7-10.51,11.65-20.87,17.36-31.38,2.21-4.08,4.39-8.17,6.61-12.25A15.69,15.69,0,0,1,411.07,88.39Z"/> <path class="cls-2" d="M284.59,71.94c-.07,2.83,1.8,5,2.82,7.37,4.09,9.71,5.28,19.82,4.71,30.22-.15,2.77-.59,3.08-3.31,2.42q-23.14-5.62-46.27-11.24-28.08-6.8-56.17-13.57L143,76.7c-2.57-.62-5.16-1.18-7.74-1.74-1.37-.3-2.14-.74-1.48-2.44a60,60,0,0,1,11-18.44c3.58-4,7.23-8,11.82-11a2.14,2.14,0,0,0,1-1.65c3,.25,4.3,1.74,3.74,4.52a48.39,48.39,0,0,0-.55,15.38,15.07,15.07,0,0,0,4.39,9.55c7.65,7.34,21.09,9.89,30.74,5.59a32,32,0,0,0,14.43-13,35.84,35.84,0,0,1,4.13-5.63c4.28-4.68,11.58-1.79,12.77,3.56.87,3.91,1,7.94,1.92,11.83,1.8,7.61,5.69,13.84,12.39,18.05a27.85,27.85,0,0,0,12.52,4,58.48,58.48,0,0,0,7.49,0c5.53-.22,9.26-3.34,12.12-7.74a54.77,54.77,0,0,0,6.23-13.31C280.84,71.4,282,70.95,284.59,71.94Z"/> <path class="cls-3" d="M191.09,14.43c4.49-1.16,9-.7,13.53-.26a59.06,59.06,0,0,1,13.94,3.28c1.9.67,2.65,0,2.42-2a23.22,23.22,0,0,0-.73-3c12.94,2.53,25.48,5.58,35.09,15.39,1.14-1.06.7-2.29.78-3.39s0-2.16,0-3.59a78.16,78.16,0,0,1,14,14.5c.2,1.19-.86,1.49-1.5,2-.85.72-1.46,1.4-.48,2.45.81.87,1.57,1.79,2.92.8.56-.41,1.08-1.1,2-.74a33.48,33.48,0,0,1,5.59,18.87c-2.54.08-4.94-.29-6.92-2.08-6.8-5.85-14.34-9.79-23.66-9.12a14.37,14.37,0,0,0-5.42,1.7c-.48.48-1.64,0-1.64,1.18a2.44,2.44,0,0,1-2.87.07,4.33,4.33,0,0,0-1.37-3.26c-7.89-8.59-17.71-12.88-29.31-13.25-5.09-.16-10.12.08-15,1.81a10.07,10.07,0,0,0-2.64,1.34,17.05,17.05,0,0,1-6.78-1.34c-.18-1.34,2-.89,1.75-2.37-2-.11-3.47,1.34-5.27,1.79-4.2-.09-8.18-1.47-12.29-2a2.27,2.27,0,0,1-1.71-.92,35,35,0,0,1,12.68-7.84c-1.15-.18-2.29-.4-3.45-.52s-2.26-.12-4-.2a32.48,32.48,0,0,1,14.82-8.51c1.72.44,1.4,2,1.7,3.17.24,1,.29,2.09,1.78,1.71,1.24-.31,2.42-.63,2.08-2.4C191,16.7,190.57,15.57,191.09,14.43Z"/> <path class="cls-4" d="M184.47,262.1c-.5,4.47-2.46,8.32-4.87,12.06Q169.42,290,159.47,305.93c-.85,1.36-1.58,1.73-2.81.63-.93.31-1.59-.27-2.28-.71-8.06-5.1-16.09-10.25-24.2-15.28a7.31,7.31,0,0,1-2.13-2c-1.57-.85-1.3-1.78-.44-3.13,6.14-9.62,12.2-19.3,18.28-29a2,2,0,0,1,1.64-.55c6.09.87,12.19,1.73,18.25,2.76,4.08.55,8.15,1.13,12.22,1.77C180.13,261.12,182.59,260.47,184.47,262.1Z"/> <path class="cls-5" d="M272.16,56.48c1.84,1.7,4.51,1.11,6.5,2.38l8.53,3.08c.72.26,1.54.53,1.34,1.46-.62,2.87-1.26,5.75-3.06,8.18-.16.22-.59.24-.89.35-2.39-.44-3.54.49-4.27,2.91a43.16,43.16,0,0,1-8.66,16.4,13,13,0,0,1-8.15,4.4c-8.23,1.2-16.19.35-23.18-4.42-8.12-5.54-11.63-13.8-12.7-23.3a54.23,54.23,0,0,0-1.1-6.63,6.86,6.86,0,0,0-12-2.67c-2.08,2.62-3.68,5.54-5.71,8.17-12,15.63-29,15.88-43.29,5.36-3.28-2.42-4.79-5.93-5.32-9.83a48.1,48.1,0,0,1,.24-15.15c.71-3.91.74-3.9-2.85-5.73-.73-2.9.12-5.69.65-8.49.17-.91.86-1.28,1.87-1.13,1.79.25,3.6.38,5.4.56l14.59,2.51a2.27,2.27,0,0,1,3,.6l7,1.41c1-.76,2.1-.27,3.12-.07,7.43,1.44,14.45,3.85,20.63,8.39A26.35,26.35,0,0,0,234.44,50c1.22-.2,2.48-.45,3.61.39a4.16,4.16,0,0,0,3.07-.28c.38-.51,1-.53,1.52-.66a23.13,23.13,0,0,1,7.62.78c6.29,1.51,12.61,2.9,18.77,4.87A10.42,10.42,0,0,1,272.16,56.48Z"/> <path class="cls-4" d="M220.54,306.1c-1.59.74-1.87,0-2.09-1.49-2-12.72-4-25.43-6-38.14.91-.9,2-.61,3.06-.43,3.85.64,7.73,1.09,11.57,1.74,4,.75,8.16,1.07,12.18,1.94a93.07,93.07,0,0,1,12.2,2,.67.67,0,0,1,.28.75c1.34,8.7,2.58,17.41,4.1,26.08.32,1.8-.41,2.14-1.66,2.52-3,1.44-6.26,1.5-9.41,2-7.11,1.09-14.19,2.35-21.32,3.32A3.89,3.89,0,0,1,220.54,306.1Z"/> <path class="cls-6" d="M254.14,301.89c2.46-.59,3.38.62,3.43,2.9,0,1,.4,1.89,1.59,1.77,1.36-.14.94-1.27,1.05-2.13.15-1.13-1.07-2.89.36-3.2.86-.19.84,2,1,3.11s.6,1.86,1.74,1.63,1.13-1.22,1-2.2-.94-3,0-3.06c1.44-.14,1,1.82,1.24,2.91s.66,1.91,1.71,1.77c1.32-.17,1.19-1.32,1.08-2.37s-1.15-2.65.21-2.93c1.08-.22.81,1.66,1,2.65s.56,2.16,1.75,2,1.24-1.34,1.08-2.37a9.31,9.31,0,0,1-.21-1c0-.75-.73-1.87.45-2.11,1.43-.29.63,1.16,1,1.74a2.34,2.34,0,0,1,.08.24c.48,1-.16,3,1.77,2.68s1.06-2.06.77-3.13c-.51-1.86-.07-2.26,1.88-2.5a39.81,39.81,0,0,1,12.61.15c7.86,1.57,9.53,5.71,11.21,12.85.26,1.09-.41,1.43-1.38,1.58q-17.47,2.72-34.94,5.49c-12.22,1.92-24.45,3.76-36.65,5.81-7.42,1.25-7.38,1.39-8.48-5.95-.44-3-.94-5.92-1.38-8.88-.12-.83-.64-1.9.9-2,2.14-1.34,4.62-1.2,7-1.6,8.1-1.37,16.23-2.6,24.35-3.87A5.28,5.28,0,0,1,254.14,301.89Z"/> <path class="cls-6" d="M156.62,307.82c1,.66.78,1.34.2,2.23-2.54,3.91-5.12,7.8-7.46,11.83-1,1.74-1.79,1.58-3.26.64-11.13-7.13-22.31-14.18-33.47-21.25-10.46-6.63-20.9-13.3-31.41-19.86-1.79-1.11-1.67-1.85-.52-3.41,5.29-7.14,9.93-8.62,20.12-4.54,2.22.89,4.26,2.21,6.43,3.24,1.4.66,1.56,1.33.67,2.64-.69,1-2.44,2.42-.66,3.51,1.57,1,2-1.12,2.8-2.07.47-.58.7-1.88,1.75-1.16.88.61-.22,1.27-.46,1.89-.47,1.19-2.38,2.51-.6,3.58,1.62,1,2.14-1.15,3-2.13.4-.45.37-1.81,1.42-1.15s-.12,1.26-.36,1.87c-.47,1.19-2.37,2.51-.65,3.6s2.2-1.08,3-2.11c.41-.51.61-1.76,1.55-1.12s-.29,1.22-.48,1.85a4.31,4.31,0,0,1-.52.85c-.56.93-1.35,2-.1,2.82s1.9-.4,2.47-1.35a3.19,3.19,0,0,1,.42-.62c.53-.54.67-2,1.64-1.43s-.25,1.36-.5,2a8.29,8.29,0,0,1-.78,1.28c-.47.78-.66,1.71.12,2.25a1.45,1.45,0,0,0,2.24-.85c1-2.62,2.65-2.77,4.78-1.39,3.31,1.38,6.12,3.61,9.14,5.48,5.84,3.62,11.62,7.35,17.42,11A6.06,6.06,0,0,1,156.62,307.82Z"/> <path class="cls-7" d="M26.14,76.48c-2.49-2.67-6-3.66-9-5.66C13.83,68.54,10,67,6.8,64.52,0,59.31-2.46,49.76,2.91,41.81S18.33,32,26.81,37.33c4.7,2.93,9.56,5.59,14.36,8.36a4,4,0,0,0,2.34.73c.42,1.48-.75,2.4-1.31,3.51-.91,1.83-2.1,3.5-3.07,5.31-2.52,4.46-5.16,8.87-7.66,13.34-1.29,2.08-2.42,4.25-3.71,6.33C27.37,75.57,27.21,76.52,26.14,76.48Z"/> <path class="cls-8" d="M188.07,262.5l-2-.2c-.49-1.32-.09-2.61.13-3.9.69-4,1.07-8,1.86-12,.6-4.65,1.35-9.27,2-13.92.94-5.33,1.52-10.71,2.5-16,.56-4.52,1.38-9,1.87-13.53,1-5.46,1.64-11,2.63-16.46.58-4.36,1.25-8.72,1.87-13.07.92-5.49,1.37-11.05,2.38-16.53.58-4.27,1.2-8.53,1.92-12.78a20.06,20.06,0,0,0-1-13.08,54.67,54.67,0,0,1-5,4.68q-3.28,2.92-6.31,6.1c-.11.12-.23.24-.34.35-3.5,3.39-3.5,3.39-5.77-1-.4-.85-.83-1.69-1.27-2.53-2.78-5.32-5.6-10.63-8.28-16-1.84-4-4.09-7.86-6-11.85-.22-.56-.61-1.11-.06-1.7l3.46.5a5.22,5.22,0,0,1,1.57,2.2c4.18,8.59,8.76,17,12.92,25.55.69,1.43,1.16,1.45,2.24.37,3.76-3.75,7.31-7.72,11.49-11,.73-.58,1.27-1.65,2.51-1.14,1.53,2.59,1.73,5.6,2.67,8.37.14.24.08.76.62.42,1.82-2.51,3.19-5.33,5.47-7.48,1.8.27,2.22,1.89,2.87,3.15q3.14,6.1,6.53,12.05c1.22,2.14,1.5,2.24,3.12.29,5.48-6.6,12.24-12,17.69-18.58a9.37,9.37,0,0,1,3.79-3.16l3.44.55c.22.82-.4,1.26-.82,1.79-3.05,3.14-6.25,6.14-9.23,9.36-3.82,4.65-8.38,8.58-12.52,12.92q-1.13,1.06-2.19,2.2c-3.09,3-3.09,3-5.62-1.22-1.35-2.5-2.81-4.93-4.13-7.44-.95-1.73-2-3.4-2.86-5.19-.57-1.2-1-1.13-1.85-.11a17.63,17.63,0,0,0-4.25,11.54c-.71,4-1.19,8.1-1.82,12.15-.81,5.62-1.76,11.22-2.49,16.86-.79,4.18-1.23,8.42-2,12.61-.93,5.63-1.44,11.32-2.48,16.94-.52,4.25-1.18,8.47-1.93,12.68-.63,5.1-1.4,10.19-2.26,15.26-.62,4.68-1.37,9.34-2,14-.78,4.83-1.47,9.68-2.21,14.52C188.78,260.86,188.85,261.83,188.07,262.5Z"/> <path class="cls-9" d="M344.08,111.43c0-2.11,1-2.77,3.12-2.62,3.8.26,7.5,1.4,11.34,1.18,10.48.46,20.71,2.87,31.08,4.14a11.93,11.93,0,0,1,4,1.22v.07c.86.64.57,1.31,0,2a3.35,3.35,0,0,1-3.16,1.09c-2.83-.44-5.69-.72-8.62-1.29,2.28,1.71,4,4.07,7.1,4.43a1.74,1.74,0,0,1,1.42,1.27,1.82,1.82,0,0,1-1.2,2.2c-4.61-1.52-9.47-1.72-14.21-2.5-5.33-.88-10.66-1.72-16.31-2.41,5.14,4.73,10.13,9.26,15.22,13.68,2.38,2.06,4.42,4.54,7.28,6,.44,1.5-.56,2.34-1.47,3.22-2.54-.34-4.11-2.36-5.8-3.85-9.43-8.3-18.7-16.77-28.12-25.09C345,113.47,343.79,112.89,344.08,111.43Z"/> <path class="cls-10" d="M203,125.45c-4.85,4.07-9.24,8.61-13.66,13.12-1.13,1.16-1.75,1.19-2.47-.25q-6.91-13.81-13.84-27.61a9.06,9.06,0,0,1-.4-1.17l14.43,2c1,.15,1.73.91,2.59,1.38,4.72,3,8.41,7.14,12.67,10.65C202.78,124,203.5,124.56,203,125.45Z"/> <path class="cls-10" d="M246.1,120.54c-4.65,5.21-9.5,10.22-14.44,15.14-2.64,2.63-5.17,5.39-7.68,8.16-1.16,1.28-1.69,1-2.45-.42-2.75-5.21-5.62-10.35-8.47-15.51a6.75,6.75,0,0,0-.78-1c-.46-.92.38-1.15.86-1.39,4.51-2.27,9.18-4.22,13.75-6.36.55-.26,1.16,0,1.69-.24,2.95-1.26,5.87-.06,8.77.21S243.19,120.07,246.1,120.54Z"/> <path class="cls-11" d="M227.09,268.36c-4-.55-8-1.11-12-1.64-.89-.12-1.8-.17-2.7-.25l-3.3-.63c-.81-.3-.84-1-.75-1.65.75-5.25,1.2-10.54,2.52-15.7a1.64,1.64,0,0,1,.72-.47,106.27,106.27,0,0,1,17.4,2.66,1.64,1.64,0,0,1,.52.68c.53,2.51-.43,4.88-.75,7.31C228.35,261.92,228.19,265.23,227.09,268.36Z"/> <path class="cls-11" d="M251.46,272,239,270.22c-.59-2.75.43-5.36.74-8a49.79,49.79,0,0,1,1.61-9.2,1.53,1.53,0,0,1,.74-.44,120.72,120.72,0,0,1,17.47,2.7,1.91,1.91,0,0,1,.48.75c.15,4.82-1.28,9.44-1.74,14.18-.2,2.11-1.29,2.92-3.35,2.35a.47.47,0,0,1-.39-.14C253.6,271.9,252.46,272.49,251.46,272Z"/> <path class="cls-11" d="M125,253l-.22,0-.19-.11c-1-.52-2.08.11-3-.42l0,0c-.9-.77-2.09.1-3-.55-.53-.07-1.17.24-1.51-.45-.13-.21-.32-.43-.29-.67.56-5.33,1-10.68,2.58-15.84a1.87,1.87,0,0,1,.72-.49,7.65,7.65,0,0,1,3.45,0c3.79.52,7.56,1.19,11.35,1.69a4.71,4.71,0,0,1,2.77,1,2.19,2.19,0,0,1,.44.77c0,5.25-1.33,10.32-2.05,15.48a1.37,1.37,0,0,1-1,1.06l-.5-.13c-1-.5-2.11.11-3.09-.41l-.21,0-.19-.11c-1-.52-2.09.11-3-.42l0,0C127.16,252.76,126,253.57,125,253Z"/> <path class="cls-12" d="M77,283.65c.58.34,1,.57,1.43.83l65.88,41.75c.85.54,1.82.87.82,2.22-.83,1.12-1.32,1.85-2.9.84q-32.85-20.93-65.76-41.75c-.54-.34-1.64-.5-1.14-1.57A5.45,5.45,0,0,1,77,283.65Z"/> <path class="cls-12" d="M303.55,319.19c.24,1.24-.7,1.18-1.53,1.31l-31.54,5c-15.12,2.38-30.24,4.72-45.34,7.18-1.61.26-2.2,0-2.55-1.58-.39-1.81.67-1.9,1.89-2.09l66.2-10.43c3.45-.54,6.89-1.1,10.34-1.58C303.08,316.69,303.52,317.12,303.55,319.19Z"/> <path class="cls-2" d="M228.59,119l-14.75,6.93c-.57.27-1.32.3-1.55,1.06l-5.6,8.1c-.62.29-.8-.3-1.15-.56l-2.59-9c-3.13-3.77-7.15-6.58-10.65-9.94l-2.69-2.56,35.6,5.42C226.34,118.54,227.56,118.19,228.59,119Z"/> <path class="cls-13" d="M139.11,104.55l17.49,2.56a1.61,1.61,0,0,1,1.08,1.78c-.43,3.61-.51,7.29-2,10.71a1.41,1.41,0,0,1-.91.35c-5.81-.68-11.65-1.1-17.28-2.85a1.39,1.39,0,0,1-.42-.87C137.32,112.26,137.34,108.25,139.11,104.55Z"/> <path class="cls-13" d="M261.11,123c4.28,0,8.41,1.24,12.65,1.65,1.79.17,3.56.56,5.33.86a2.28,2.28,0,0,1,.59,2.08c-.57,3.35-.65,6.78-1.68,10.05a1.23,1.23,0,0,1-.64.57c-5.61-.29-11.11-1.41-16.65-2.28a2,2,0,0,1-1.38-1A30.14,30.14,0,0,1,261.11,123Z"/> <path class="cls-14" d="M135.08,254.53c.67-4.06,1.35-8.12,2-12.18.23-1.46.37-2.94.56-4.42a1.37,1.37,0,0,1,1.41-.82,71.14,71.14,0,0,1,10.31,1.6,1.87,1.87,0,0,1,1,.73,4,4,0,0,1,.3,2.67c-.57,4-1.23,8-1.81,12.06-.13.9-.2,1.85-1.26,2.24l-1.67.05C142.36,255.46,138.6,255.64,135.08,254.53Z"/> <path class="cls-15" d="M211.09,248.48c-.17,5.38-1.59,10.59-2.09,15.93a2.58,2.58,0,0,0,.11,1.43l-11-1.84c-.81-.45-2.08-.32-2.12-1.72.4-5.22.8-10.44,2.51-15.46a2,2,0,0,1,1.37-.49C203.67,246.7,207.57,246.58,211.09,248.48Z"/> <path class="cls-14" d="M276,227.95l-2.49,17a1.77,1.77,0,0,1-1.59.46c-3.44-.59-7-.55-10.26-2a1.67,1.67,0,0,1-.41-.75c.18-4.91,1.3-9.69,2-14.53a3.06,3.06,0,0,1,.84-1.77,3.13,3.13,0,0,1,2.61-.42C269.8,226.57,273.12,226.26,276,227.95Z"/> <path class="cls-14" d="M280.52,198.46c-.81,5.54-1.62,11.08-2.45,16.62-.09.63.11,1.34-.44,1.87-2.62-1.95-5.84-1.57-8.79-2.22-1.11-.24-2.36-.13-3-1.34-.22-4.11.88-8.06,1.43-12.08.21-1.54.12-3.19,1.31-4.46a1.62,1.62,0,0,1,1.14-.42C273.32,196.95,277.08,196.87,280.52,198.46Z"/> <path class="cls-14" d="M284.94,169l-2.81,18c-2.78-1.12-5.77-1.24-8.68-1.77-1.14-.21-2.31-.25-3.08-1.31-.58-3.74.64-7.32,1.13-10.95.25-1.89,0-4,1.53-5.59,1.17-.73,2.42-.35,3.58-.08C279.37,167.89,282.33,167.55,284.94,169Z"/> <path class="cls-14" d="M110.27,220.47l2.77-18c2.71,1.22,5.68,1.15,8.52,1.74,1.05.22,2.19.25,2.8,1.37a55.22,55.22,0,0,1-2.63,16.56,2.64,2.64,0,0,1-2.13.5C116.48,221.93,113.1,222.41,110.27,220.47Z"/> <path class="cls-14" d="M114.68,191l2.5-17c4-.19,7.93.06,11.57,2,.54,2.27-.1,4.47-.51,6.64-.63,3.32-.43,6.82-2,9.95-1.43.93-2.94.34-4.36.07C119.44,192.21,116.81,192.61,114.68,191Z"/> <path class="cls-14" d="M119.18,161.47l2.5-16.55a1.3,1.3,0,0,1,.85-.48c3.61.13,7.23.2,10.54,1.93.71,2,.07,3.93-.28,5.83-.67,3.62-.6,7.39-2.07,10.85a1.57,1.57,0,0,1-1.14.43C126.09,163,122.45,163.15,119.18,161.47Z"/> <path class="cls-14" d="M123.65,132c.67-5.54,1.42-11.06,2.51-16.53.25-.22.53-.49.84-.47,3.49.22,7,.22,10.22,1.94a2.54,2.54,0,0,1,.51,1.64c-.61,5-1,10.07-2.47,15a1.66,1.66,0,0,1-1.35.51C130.47,133.46,126.84,133.82,123.65,132Z"/> <path class="cls-14" d="M288.55,150c-1-.09-.87.65-1,1.27-.3,1.74-.66,3.46-1,5.19-4.07.26-8,0-11.75-1.94a4.24,4.24,0,0,1-.2-2.68c.55-3.86,1.1-7.72,1.73-11.57a2.84,2.84,0,0,1,1.21-2.33h0a14.73,14.73,0,0,1,9.14,1.36C287.29,142.86,288.12,146.39,288.55,150Z"/> <path class="cls-7" d="M393.65,115.35c-5.91-.82-11.83-1.62-17.73-2.47-5.5-.8-11-1.65-16.49-2.49a3.71,3.71,0,0,1-.89-.4l14.36-3.61c8.79-2.19,15.43.47,20.26,8.11C393.33,114.77,393.49,115.07,393.65,115.35Z"/> <path class="cls-16" d="M286.57,139.49l-9-1.55,1.49-12.4c3.4.48,6.8,1,10.19,1.46.69.1,1.52,0,1.88.9-1.23,2.57-3.21,4.73-4,7.53.83-2.78,2.85-4.93,4-7.54l.93-.45c1.28,0,1.27,1.1,1.5,1.87.6,2,1.27,4,1.75,6.1a1.56,1.56,0,0,1-.72,1.33C292,137.9,289,137.71,286.57,139.49Z"/> <path class="cls-14" d="M255,272.54c1.78.05,2.52-.59,2.71-2.59.43-4.67,1.28-9.31,2-14a1.52,1.52,0,0,1,1.07-.56c3.66.38,7.4.35,10.82,2-.52,7.71-4.05,12.84-10.36,14.65C259.22,272.68,257.13,273.53,255,272.54Z"/> <path class="cls-16" d="M261.11,123c0,4-1.25,7.93-1.49,11.95a.41.41,0,0,1-.22.66,53.77,53.77,0,0,1-12.26-1.72,1.29,1.29,0,0,1-.78-.94c.56-3.54.35-7.25,2.23-10.52l1-1.35C253.38,121.81,257.33,121.89,261.11,123Z"/> <path class="cls-16" d="M155.56,119.45c.43-3,.82-6,1.32-9a4.36,4.36,0,0,0-.28-3.34L169.12,109l.48,1.42c.8,3.7-.34,7.19-1.11,10.73a1.44,1.44,0,0,1-.59.61c-4.16.31-8.15-.74-12.16-1.59A.57.57,0,0,1,155.56,119.45Z"/> <path class="cls-16" d="M275.11,154.46l8.6,1.48,2.87.51c-.06,4.23-1.1,8.33-1.64,12.5-4,0-7.86-1.16-11.82-1.48l-.28-.29c-.21-4.29.78-8.44,1.59-12.61A.45.45,0,0,1,275.11,154.46Z"/> <path class="cls-16" d="M270.63,184c3.13.5,6.25,1.06,9.38,1.48,1.06.14,2,.22,2.11,1.51l-1.61,11.51c-4,0-7.88-1.31-11.88-1.48l-.28-.3a37.2,37.2,0,0,1,1.94-12.47Z"/> <path class="cls-16" d="M271.55,257.46c-4-.13-7.87-1.45-11.9-1.47l-.06-.52a29.12,29.12,0,0,1,2-12.48c3.91,1,7.92,1.38,11.89,2Z"/> <path class="cls-16" d="M266.13,213.45c3,.91,6.15.95,9.22,1.5,1.24.22,2.31.43,2.28,2a96,96,0,0,1-1.62,11c-4-.19-7.85-1.49-11.86-1.47l-.26-.32a50.55,50.55,0,0,1,1.7-12.09A1.52,1.52,0,0,1,266.13,213.45Z"/> <path class="cls-14" d="M119.57,235l-2.5,16.55c-5.69-1.77-10.14-8.69-9.19-14.46.25-1.54-.06-3.15.66-4.62,3.11.3,6.17,1,9.27,1.4C118.56,233.93,119.28,234.12,119.57,235Z"/> <path class="cls-16" d="M123.65,132,135,133.42a1.07,1.07,0,0,1,.33.74c-.58,4-.7,8.15-2,12.07l-.33.26c-3.78-.53-7.5-1.46-11.34-1.56A116.51,116.51,0,0,1,123.65,132Z"/> <path class="cls-16" d="M119.18,161.47l11.36,1.46a1.19,1.19,0,0,1,.39.72c-.59,4-.65,8.17-2.06,12.07l-.33.26c-3.07-.51-6.15-1-9.23-1.5a5.33,5.33,0,0,1-2.14-.51Z"/> <path class="cls-16" d="M114.68,191l11.38,1.47a1.3,1.3,0,0,1,.42.7c-.56,4-.59,8.19-2.09,12.07l-.33.25a49.26,49.26,0,0,0-8.91-1.48c-1.09-.14-1.95-.3-2.11-1.56Z"/> <path class="cls-16" d="M119.57,235c-2.9-.5-5.8-1-8.72-1.46-.92-.13-1.84-.06-2.32-1.06l1.73-12c3.78.43,7.46,1.52,11.3,1.48a1.36,1.36,0,0,1,.45.67,66.89,66.89,0,0,1-1.94,12.29Z"/> <path class="cls-13" d="M100.66,92.08a17.4,17.4,0,0,1-7.42,12,12.22,12.22,0,0,1-7.41-4,5.12,5.12,0,0,1,1.11-3c1.67-2.85,3.26-5.74,4.95-8.58.46-.77.78-1.67,1.79-1.93,2.54.15,4.39,1.78,6.39,3.06A1.87,1.87,0,0,1,100.66,92.08Z"/> <path class="cls-16" d="M137.11,117l-10.94-1.53c0-3.91,1.25-7.66,1.47-11.54.07-1.26,1.13-1,1.92-.85,3.19.48,6.37,1,9.55,1.5l-1.5,12.38A.3.3,0,0,1,137.11,117Z"/> <path class="cls-13" d="M286.57,139.49c.07-.63,0-1.35.89-1.51,2.4-.42,4.66-1.45,7.13-1.53a.77.77,0,0,1,.94.59c1.15,4.61,3,9,3.33,13.87-2.16,2.21-5.14,2.08-7.84,2.74a8.89,8.89,0,0,1-2.47-3.65A20.07,20.07,0,0,1,286.57,139.49Z"/> <path class="cls-11" d="M198.64,247l-2.08,15.51c-.31.68-.46,1.61-1.59,1.05h-.2l-.17-.11c-1-.52-2.12.11-3.1-.42l-.21,0-.19-.11c-1-.52-2.09.1-3.05-.41h0a120.9,120.9,0,0,1,2.52-17.05c2.75-1.07,5.3-.14,7.86.75A.61.61,0,0,1,198.64,247Z"/> <path class="cls-11" d="M188.64,246.44c-.71,5.31-1.2,10.66-2.54,15.87l-1.64-.21L178,261c-.52-2.67.41-5.2.74-7.79a53.26,53.26,0,0,1,1.6-9.2,1.72,1.72,0,0,1,.73-.5,17.79,17.79,0,0,1,6.11.67C188.37,244.42,189.24,245,188.64,246.44Z"/> <path class="cls-17" d="M52.6,49.55c3.5,2.13,7.21,3.91,10.55,6.31.1.14.25.31.21.43-1.16,3.58-2.67,7-5.65,9.45-3.76-1.6-7.44-3.32-10.43-6.21C48.22,55.77,50.53,52.72,52.6,49.55Z"/> <path class="cls-14" d="M310,120.36l12.13-3.3A20,20,0,0,1,324.86,128a3.84,3.84,0,0,1-2.8,1.4c-3,.54-5.78,2-8.91,1.77-1.74-1.65-1.64-4-2.32-6.06-.31-.93-.51-1.89-.72-2.85A6.18,6.18,0,0,1,310,120.36Z"/> <path class="cls-15" d="M72.14,60.89l11.08,6.47c-1.1,2.89-2.89,5.42-4.41,8.09a2.6,2.6,0,0,1-1.69,1.38A33.35,33.35,0,0,1,66.87,71c-.36-1.46.5-2.58,1.19-3.65C69.42,65.18,70.23,62.68,72.14,60.89Z"/> <path class="cls-14" d="M332.08,114.53c3.83-1,7.59-2.26,11.52-2.89a9.76,9.76,0,0,1,1.59,2.54c.51,1.93,1,3.85,1.48,5.8.2.87.56,1.77,0,2.65-3.73,1.47-7.5,2.72-11.58,2.73-2.2-1.82-2-4.64-2.79-7C331.86,117.17,331.19,115.85,332.08,114.53Z"/> <path class="cls-7" d="M374.63,140.9a91.75,91.75,0,0,0-12,3.08c-1.18-.46-1.32-1.6-1.59-2.6-.67-2.45-1.21-4.93-1.88-7.38-.38-2.43-1.71-4.66-1.53-7.2.51-1.46,1.29-.9,2-.25,3,2.59,5.95,5.21,8.85,7.89,1.63,1.51,3.56,2.68,5,4.42C374,139.47,374.85,139.89,374.63,140.9Z"/> <path class="cls-18" d="M320.07,157.36a66.58,66.58,0,0,1-10,2.54,1.74,1.74,0,0,1-1.07-1.06,70.09,70.09,0,0,1-2.28-9.34,1.76,1.76,0,0,1,.25-.75c3-1.83,6.47-2.2,9.86-2.77a1.84,1.84,0,0,1,.72.29c1.07,2.92,1.6,6,2.55,9C320.22,155.93,320.7,156.66,320.07,157.36Z"/> <path class="cls-18" d="M72.56,105.48A70.19,70.19,0,0,1,64,100.57a1.74,1.74,0,0,1,0-1.78c1.61-2.81,3.12-5.69,4.9-8.41a1.51,1.51,0,0,1,.68-.23,56.1,56.1,0,0,1,9,5.13,1.17,1.17,0,0,1,.16.69c-1.45,3-3.21,5.78-4.84,8.65C73.58,105.05,73.39,105.79,72.56,105.48Z"/> <path class="cls-18" d="M341.59,151.85l-10,2.52a4.49,4.49,0,0,1-1-2c-.84-2.79-1.49-5.63-2.26-8.44a1.59,1.59,0,0,1,.8-1.32c3.07-.93,6.06-2.2,9.35-2.15a2,2,0,0,1,.72.37c1.53,3,1.81,6.34,2.75,9.5A1.76,1.76,0,0,1,341.59,151.85Z"/> <path class="cls-18" d="M332.08,114.53c.82,3.55,1.46,7.15,3,10.49a.83.83,0,0,1,0,1.11c-3.21,1-6.34,2.31-9.79,2.28a1.39,1.39,0,0,1-.67-.46c-.33-3.75-1.83-7.23-2.5-10.9Z"/> <path class="cls-18" d="M77.1,76.49c2.12-1.95,2.94-4.72,4.48-7,.5-.74.69-1.71,1.63-2.1a78.86,78.86,0,0,1,8.38,4.7c.49.58.19,1.14,0,1.71a60,60,0,0,1-4.87,8.33,1.9,1.9,0,0,1-.69.26c-3.34-1-6.11-3.09-9.07-4.82A.88.88,0,0,1,77.1,76.49Z"/> <path class="cls-16" d="M72.14,60.89c-.88,2.67-2.68,4.85-3.92,7.33-.44.87-.76,1.8-1.13,2.7a1.07,1.07,0,0,1-.63.31,44.53,44.53,0,0,1-8.92-5.13.56.56,0,0,1,.08-.65,36.94,36.94,0,0,0,5.52-9.59A55.78,55.78,0,0,1,72.14,60.89Z"/> <path class="cls-18" d="M52.56,94l-8-4.59c-.57-.72-.14-1.38.12-2.05a91.06,91.06,0,0,1,4.72-8,1.63,1.63,0,0,1,.69-.24,28,28,0,0,1,9.08,5.15,1.41,1.41,0,0,1,.09.71c-1.6,2.78-3.3,5.5-4.88,8.29C53.93,93.85,53.46,94.49,52.56,94Z"/> <path class="cls-18" d="M359.66,133.86l3,10.12c.67,2.26-.53,2.76-2.5,3.09-2.15.35-4.2,1.31-6.41,1.48-1.7-.07-1-1.64-1.55-2.45-.41-2.74-1.68-5.28-1.91-8.06a1.52,1.52,0,0,1,.29-.72c1.76-1.15,3.85-1.35,5.8-1.93A10.64,10.64,0,0,0,359.66,133.86Z"/> <path class="cls-18" d="M26.14,76.48,31,68.43c1.56-.42,2.63.67,3.79,1.33a32.55,32.55,0,0,1,4.79,3,1.16,1.16,0,0,1,.18.69c-1.35,3-3.35,5.71-4.85,8.66-.36.44-.55,1.17-1.38.88-2.2-1.2-4.35-2.49-6.62-3.55C25.35,78.68,25.37,77.75,26.14,76.48Z"/> <path class="cls-18" d="M52.6,49.55c-.87,3.18-3,5.69-4.45,8.59-.21.43-.38.88-.57,1.32a1.36,1.36,0,0,1-.62.35A21.66,21.66,0,0,1,38.7,55l4.81-8.58c.68-1.35,1.45-1.55,2.8-.61C48.31,47.21,50.49,48.32,52.6,49.55Z"/> <path class="cls-2" d="M191.09,14.43a9.61,9.61,0,0,1,.85,4.56c0,2.35-2.49,1.49-3.82,2.12s-.95-.85-1.21-1.44c-.61-1.39.13-3.2-1.29-4.36,2.18-1.6.28-3.53.3-5.27a43.5,43.5,0,0,0-.92-7.1c-.21-1.37.1-2.69,1.49-2.92,1.65-.27,2.3,1.24,2.54,2.54.49,2.59.72,5.23,1.11,7.84A11.19,11.19,0,0,0,191.09,14.43Z"/> <path class="cls-14" d="M295.08,135.52c-1.31-1.57-1.25-3.64-1.94-5.44-.34-.89-.32-1.92-1.06-2.65,1.05-1.38,2.76-1.87,4-2.95,1.54.12,2.79-1.35,4.41-.79a1.64,1.64,0,0,1,.57.5c1,3.09,2.31,6.1,2.16,9.45C300.7,135.08,298.14,136.38,295.08,135.52Z"/> <path class="cls-15" d="M307.09,149.43l2.5,9.54c-.9,1.66-2.77.74-4,1.51-1.53.09-3.07.29-4.5-.51a11.1,11.1,0,0,1-2.25-8.58C301.37,149.81,304,148.67,307.09,149.43Z"/> <path class="cls-2" d="M273.07,40c-.28.17-.57.32-.84.51-.84.61-1.77,2-2.54,1.58-1.16-.57-2-1.9-2.88-2.95-.58-.68.09-1,.52-1.36l2.83-2.34c3,.05,4.37-2.72,6.59-4a41,41,0,0,0,4.72-3.61,2,2,0,0,1,3.05.3c1,1,.25,2-.43,2.57-2.48,2-5.17,3.84-7.61,5.93C275.28,37.63,273.35,38,273.07,40Z"/> <path class="cls-14" d="M73.58,104.45a44.5,44.5,0,0,1,5-8.49,18.28,18.28,0,0,1,7.18,4,11.21,11.21,0,0,1-4.61,8l-2,0c-.61-1.2-1.88-.76-2.82-1.14C75.13,106.26,73.62,106.24,73.58,104.45Z"/> <path class="cls-19" d="M393.59,117a1.62,1.62,0,0,0,.06-1.53c1.74.21,2.23-1.13,2.85-2.3,3.83-7.14,7.62-14.3,11.5-21.41.72-1.32,1.22-3,3.07-3.32Q404.32,100.7,397.56,113q-6.46,11.73-13,23.44c-1,.05-.91-.73-1-1.35,1.41-3.62,2.84-7.22,5.62-10.08a3.82,3.82,0,0,0,1-2C390.34,120.42,392,118.73,393.59,117Z"/> <path class="cls-20" d="M374.63,140.9c-3.83-4.21-8.35-7.66-12.61-11.4-1.24-1.09-2-3.06-4.09-3-1.93-1-3-2.95-4.68-4.24-2.92-2.69-6.37-4.83-8.66-8.18-.37-.78-1.17-1.39-1-2.4l.48-.21c3.63,4.1,8,7.36,12,11.12,4.13,3.92,8.5,7.59,12.76,11.38,3.21,2.85,6.4,5.73,9.63,8.57a3.55,3.55,0,0,0,1.12.43.67.67,0,0,1,0,1C377.47,143.68,376.88,140.94,374.63,140.9Z"/> <path class="cls-18" d="M100.66,92.08A2.45,2.45,0,0,0,99,89.64c-1.8-.9-3.39-2.23-5.41-2.69a.92.92,0,0,1-.29-1q1.83-3.39,4-6.61A1.11,1.11,0,0,1,98.57,79,16.67,16.67,0,0,1,100.66,92.08Z"/> <path class="cls-18" d="M81.14,107.91A31.6,31.6,0,0,0,85.59,100a.32.32,0,0,1,.51,0L93.23,104A16,16,0,0,1,81.14,107.91Z"/> <path class="cls-18" d="M299.06,151.45c.1,3,1.31,5.69,2,8.53A15.28,15.28,0,0,1,291,153.64c2.19-1.81,5.2-1.3,7.55-2.68A.85.85,0,0,1,299.06,151.45Z"/> <path class="cls-21" d="M254.14,301.89l-26.93,4.35-7.09,1.13.42-1.27q15.58-2.44,31.16-4.9a7.33,7.33,0,0,1,2.45-.16Q254.15,301.46,254.14,301.89Z"/> <path class="cls-22" d="M156.62,307.82q-13.41-8.49-26.82-17c-.62-.39-1.16-.9-1.74-1.35q0-.47,0-.94l28.6,18Z"/> <path class="cls-23" d="M52.56,94c.77.05,1-.7,1.53-1a119.79,119.79,0,0,1,10.48,6L64,100.57Z"/> <path class="cls-24" d="M331.1,152.46c.7.49.42,1.26.52,1.91l-11.55,3-.48-1.9A118.77,118.77,0,0,0,331.1,152.46Z"/> <path class="cls-25" d="M352.61,145.94c.92.63,0,2,1.1,2.6l-12.13,3.31v-1.39c2.21-1.63,4.93-1.78,7.44-2.51A6.21,6.21,0,0,0,352.61,145.94Z"/> <path class="cls-23" d="M33.57,83l1-1c2.49.57,4.34,2.36,6.56,3.45,1.33.65,2.63,1.39,4,2.07l-.5,1.94Z"/> <path class="cls-26" d="M379.59,143.93l0-1,1.58-2.94a5.61,5.61,0,0,1,2.95-5.06c0,.55-.08,1.16.51,1.53l-4,8Z"/> <path class="cls-27" d="M310,120.36c.64.37.62,1,.61,1.6-3.34.59-6.46,2.3-10,2h0a1,1,0,0,1,0-1.36Z"/> <path class="cls-28" d="M98.57,79l-1,.51a30.39,30.39,0,0,0-6.48-6l.47-1.4C94.93,73.35,96.79,76.11,98.57,79Z"/> <path class="cls-29" d="M73.58,104.45c1.34,1.84,3.47,2,5.42,2.45,1.39.32.21.64.11,1-2.27-.55-4.77-.48-6.55-2.39Z"/> <path class="cls-30" d="M300.58,122.6q0,.68,0,1.36c-1.55-.32-2.84,1.62-4.48.52C297.21,122.93,299.1,123.26,300.58,122.6Z"/> <path class="cls-31" d="M305.59,160.48c1-1.43,2.8-.67,4-1.51l.49.93C308.65,160.6,307.2,161.19,305.59,160.48Z"/> <path class="cls-32" d="M195,263.51c.77,0,1.11-.62,1.59-1.05-.06,1.08,1.21.84,1.53,1.54C197.06,263.83,195.92,264.27,195,263.51Z"/> <path class="cls-33" d="M131.49,254c1,.11,2.15-.4,3.09.41C133.53,254.45,132.45,254.68,131.49,254Z"/> <path class="cls-34" d="M188,262.5c1,.09,2.13-.41,3.05.41C190.06,262.92,189,263.2,188,262.5Z"/> <path class="cls-35" d="M191.49,263c1,.11,2.16-.4,3.1.42C193.54,263.44,192.45,263.68,191.49,263Z"/> <path class="cls-35" d="M251.46,272c1.05,0,2.17-.44,3.13.38l-2.88,0A1.59,1.59,0,0,1,251.46,272Z"/> <path class="cls-34" d="M128,253.49c1,.1,2.13-.4,3,.42C130.06,253.92,129,254.2,128,253.49Z"/> <path class="cls-36" d="M125,253c1,.14,2.21-.48,3.1.53C127.06,253.37,125.94,253.71,125,253Z"/> <path class="cls-35" d="M121.55,252.49c1,.1,2.12-.4,3,.42C123.55,252.93,122.48,253.2,121.55,252.49Z"/> <path class="cls-37" d="M118.58,252c1,.17,2.16-.45,3,.55C120.59,252.34,119.47,252.76,118.58,252Z"/> <path class="cls-38" d="M417.08,104.57a3.86,3.86,0,0,1-4.22-5A6,6,0,0,1,415,96c1.22.81.83,2.39,1.65,3.39,1.09.88,2.93.32,3.65,1.9A3.74,3.74,0,0,1,417.08,104.57Z"/> <path class="cls-39" d="M416.26,100.12c-1-1.18-.79-2.73-1.22-4.09,2.91-2.19,5.53-2.64,7.65-1.16,1,.68,2.06,1.45,1.82,2.95-1.41.72-2.87-.18-4.3.14S418.1,100.37,416.26,100.12Z"/> <path class="cls-40" d="M420,97.4a12,12,0,0,1,4.52.42c.37,4.35-3.52,7.88-7.43,6.75a18.92,18.92,0,0,0,3.09-3.21C419.77,100.06,419,98.77,420,97.4Z"/> <path class="cls-2" d="M238,50.35c-3.48.14-6.92.82-10.44.64a22.17,22.17,0,0,1-12.56-4.21c-7.43-5.63-15.93-8.37-25-9.86-.53-1.49.92-1.17,1.43-1.34a43.94,43.94,0,0,1,29.55.45,37.88,37.88,0,0,1,17.59,12.59C239.64,49.86,238.9,50,238,50.35Z"/> <path class="cls-41" d="M272.16,56.48l-18.85-4.83a49.35,49.35,0,0,0-10.72-1.72c-.3-.25-.79-.41-.5-1,5.24-3.1,10.72-2.53,16.17-.81a45.17,45.17,0,0,1,12.89,7A1.94,1.94,0,0,1,272.16,56.48Z"/> <path class="cls-42" d="M183.12,35.5l-3-.6c1.41-1.82,3.6-1.76,5.88-2.63C185.69,34.34,185.52,35.91,183.12,35.5Z"/> <path class="cls-43" d="M242.1,49l.5,1-1.49.14C240.7,49,241.63,49.2,242.1,49Z"/> <path class="cls-11" d="M147.57,256.41c.67-4,1.42-8,2-12.07.23-1.61.8-3.2.55-4.87a1.6,1.6,0,0,1,.71-.49,76.33,76.33,0,0,1,17.28,2.74,1.93,1.93,0,0,1,.47.73c.15,5-1.35,9.87-1.83,14.83a2.25,2.25,0,0,1-1,1.89C159.61,258.47,153.56,257.63,147.57,256.41Z"/> <path class="cls-14" d="M165.68,259.16l2.46-16.72a1.33,1.33,0,0,1,1.44-.73,69.55,69.55,0,0,1,10,1.53,1.6,1.6,0,0,1,1,.74A119,119,0,0,1,178,261,104,104,0,0,1,165.68,259.16Z"/> <path class="cls-44" d="M261.6,58c3.18,1.19,6.41,2.27,9.54,3.6,3.83,1.63,5.48,5.39,4.64,9.64a75.65,75.65,0,0,1-3.9,13.34c-1.9,4.75-5.12,7.75-10.23,8.28-7.89.83-15.45-.52-21.51-5.83a22.8,22.8,0,0,1-7.49-15.59,69.83,69.83,0,0,1,0-9c.2-4.67,2.54-7.11,8-7.83A28.45,28.45,0,0,1,253.11,56c-.37,1.3-1.43,1.54-2.56,1.65-3,0-5.89-.69-8.93,0-2.85.63-4.6,2-5.38,4.83A19.07,19.07,0,0,0,236,72.49c.81,3.14,2.51,4.28,5.7,3.59a15.85,15.85,0,0,0,5.5-2.29A10.54,10.54,0,0,1,250.43,72a4,4,0,0,1,2.2.22,6.6,6.6,0,0,0,7.67-2c2.18-2.45,3.28-5.35,2.2-8.75C262.14,60.33,261.16,59.32,261.6,58Z"/> <path class="cls-44" d="M194.1,42c4.7,1.4,9.27,3,13.15,6.21a5.78,5.78,0,0,1,2.28,5.91c-1.9,9.13-9.5,19.79-19.46,21.54A26.12,26.12,0,0,1,165.91,68c-2.32-2.35-2.63-5.61-2.24-8.65.69-5.39,1-10.91,3.46-15.92a7.22,7.22,0,0,1,7.13-4.45c3.48.08,7-.08,10.33,1,0,1.71-1.34,1.47-2.39,1.67-2.07,0-4.15,0-6.23,0a6.62,6.62,0,0,0-5.89,3.56A18.48,18.48,0,0,0,167.8,57c.36,2.75,1.51,3.73,4.33,3.76,3,0,5.66-1.12,8.29-2.42a17.67,17.67,0,0,1,4-1.93,11.42,11.42,0,0,1,1.74-.09c7.26-.12,11-5.88,8.22-12.69C194.19,43.08,193.83,42.58,194.1,42Z"/> <path class="cls-45" d="M261.6,58c2.25,3.66,2.76,7.3.43,11.21-1.79,3-6.36,5.46-9.75,3.63a6,6,0,0,0-1.68-.35c-.23-.75.43-1,.79-1.43a28.72,28.72,0,0,0,6.07-7.15c1.21-2.26.86-3.17-1.46-4.3-1.72-.83-3.64-1.1-5.36-1.93a.56.56,0,0,1-.17-.41q0-.23.05-.23c1.06.14,1.78-.55,2.58-1C256.1,55.91,258.79,57.18,261.6,58Z"/> <path class="cls-45" d="M182.07,41c1,0,2,.17,2.53-1,3.29.06,6.38,1.13,9.5,2,2.65,3.35,2.5,6.92.65,10.51-1.75,3.4-4.67,4.8-8.45,4.5-.58,0-1.17,0-1.75,0a.73.73,0,0,1,0-.67c1.83-1.9,4.19-3.21,5.9-5.26,3.54-4.24,3.23-5.6-1.84-7.61a28.11,28.11,0,0,0-3.31-1.05C184.25,41.78,182.59,42.7,182.07,41Z"/> <path class="cls-15" d="M241.59,253A129.57,129.57,0,0,1,239,270.23c-4-.56-8-.93-11.94-1.86-.55-2.72.54-5.28.8-7.92.29-3,.83-6,1.26-9a1.6,1.6,0,0,1,1.08-.56C234.09,251.21,238,251.24,241.59,253Z"/> <path class="cls-46" d="M237,315.34a4.44,4.44,0,0,1-4.6,4.24,4.36,4.36,0,0,1-4.24-4.32,4.5,4.5,0,0,1,4.49-4.39A4.4,4.4,0,0,1,237,315.34Z"/> <path class="cls-46" d="M146.57,310.27a4.25,4.25,0,0,1-4.22,4.32,4.45,4.45,0,0,1-4.54-4.55,4.27,4.27,0,0,1,4.35-4.18A4.38,4.38,0,0,1,146.57,310.27Z"/> <path class="cls-47" d="M38.7,55l8.39,4.48c.49.55.24,1.09,0,1.6-2.09,3.77-4.19,7.53-6.5,11.17a1.51,1.51,0,0,1-1,.71c-3.09-1-5.51-3.37-8.54-4.53C33.34,63.82,36,59.41,38.7,55Z"/> <path class="cls-11" d="M175.6,122.45l8.45,16c-.18.89.38,1.91-.48,2.67a2.11,2.11,0,0,1-.78.3c-5.75-.74-11.54-1.25-17.17-2.79a1.75,1.75,0,0,1-.48-.72c.05-5.17,1.25-10.19,2-15.26.08-.51.51-.84.85-1.2l.08-.06A9.22,9.22,0,0,1,175.6,122.45Z"/> <path class="cls-11" d="M246.6,133l.5.48c.64,2.61-.36,5.09-.66,7.61a43.57,43.57,0,0,1-1.58,8.8,1.62,1.62,0,0,1-.67.52c-1.41.48-2.8,0-4.17-.22-4.24-.69-8.54-1.05-12.74-2a2.49,2.49,0,0,1-.67-.4c-.84-.92-.17-1.86,0-2.8q5-5.13,10-10.26c.86-.88,1.67-1.81,2.5-2.71A10.8,10.8,0,0,1,246.6,133Z"/> <path class="cls-16" d="M219.62,146c.07,0,.15.08.19.15,1.94,3.15,1.94,3.15,4.81.86a1.71,1.71,0,0,1,2,.48l0,0a2.72,2.72,0,0,1,.23,2.37c-.72,3.41-.38,7-2.19,10.22a2.7,2.7,0,0,1-2.1.48c-3.47-.54-7-.72-10.37-1.84a1.64,1.64,0,0,1-.52-.71,68.82,68.82,0,0,1,1.69-12.47,1.56,1.56,0,0,1,.72-.5A10.28,10.28,0,0,1,219.62,146Z"/> <path class="cls-16" d="M183.1,141l.48,0a1.19,1.19,0,0,1,1.58,0c2.12,3.34,2.12,3.34,5.37.47a19,19,0,0,1,5.59.86,1.58,1.58,0,0,1,.39.73,57,57,0,0,1-2,12.27,1.58,1.58,0,0,1-.65.55c-4.18.2-8.21-.74-12.24-1.68a1.8,1.8,0,0,1-.47-.74A47.45,47.45,0,0,1,183.1,141Z"/> <path class="cls-11" d="M212.08,158q0,.24,0,.49c.1.14.25.29.24.43-.5,5.45-.83,10.92-2.69,16.15-3,1.06-5.81.18-8.55-1.09l2.49-17C206.57,156.06,209.35,156.82,212.08,158Z"/> <path class="cls-11" d="M196.64,203.42l2.48-17c2.94-1.19,5.65.15,8.43.77a1.64,1.64,0,0,1,.48.73c-.67,5.58-.8,11.25-2.87,16.58A11.46,11.46,0,0,1,196.64,203.42Z"/> <path class="cls-11" d="M192.56,231.48,194.64,216c2.91-1.13,5.63-.05,8.38.71a1.65,1.65,0,0,1,.5.7A79.51,79.51,0,0,1,201,233.74a1.62,1.62,0,0,1-.65.58c-2.27.47-4.44-.17-6.61-.66C192.63,233.41,192,232.73,192.56,231.48Z"/> <path class="cls-11" d="M197.63,186.45C197,192,196.2,197.5,195.1,203c-2.8,1.22-5.38.13-8-.79a1.64,1.64,0,0,1-.43-.76c.23-5,1.37-9.83,2-14.76a3.11,3.11,0,0,1,.82-1.78C192.44,184.33,195.24,184.34,197.63,186.45Z"/> <path class="cls-11" d="M193.14,216.44a154.19,154.19,0,0,1-2.53,16c-2.69,1.09-5.2,0-7.75-.63a1.24,1.24,0,0,1-.54-.63,123.49,123.49,0,0,1,2.4-16.49,1.36,1.36,0,0,1,.6-.6c2.34-.38,4.58.22,6.82.75C192.87,215.05,193.59,215.41,193.14,216.44Z"/> <path class="cls-11" d="M202.08,157q-1,6.81-2,13.61c-.14,1-.33,1.94-.5,2.9-2.8,1.21-5.38.12-8-.79a1.74,1.74,0,0,1-.46-.74,129.14,129.14,0,0,1,2.16-15.17,2.71,2.71,0,0,1,.73-1.28l.07-.05C197,154.87,199.71,155,202.08,157Z"/> <path class="cls-47" d="M191.61,172.47c2.69.09,5.27,1.13,8,1l-2,13a41.24,41.24,0,0,0-8-1.48l-.25-.34c-.18-3.66.9-7.15,1.36-10.73A2,2,0,0,1,191.61,172.47Z"/> <path class="cls-47" d="M193.14,216.44a1.05,1.05,0,0,0-.95-1c-2.35-.33-4.69-.69-7-1a25.66,25.66,0,0,1,2-12.47c2.69.09,5.26,1.14,8,1A130,130,0,0,1,193.14,216.44Z"/> <path class="cls-13" d="M182.64,231.47l8,1a114.52,114.52,0,0,1-2,14c.06-1-.44-1.44-1.45-1.56-2-.25-4.06-.61-6.09-.93a1.69,1.69,0,0,1-.55-1.09C180.85,239,180.87,235.07,182.64,231.47Z"/> <path class="cls-47" d="M202.08,157c-2.56-1-5.32-.9-8-1.51l2-12.47c2.81-1,5.41-.22,8,1Z"/> <path class="cls-13" d="M207.58,187.46c-2.88.17-5.6-1.08-8.47-1l2-12.53c2.86,0,5.58,1.16,8.46,1l.25.34c.12,3.65-.73,7.18-1.35,10.73A2.06,2.06,0,0,1,207.58,187.46Z"/> <path class="cls-13" d="M212.08,158l-8.47-1c.64-4.17.9-8.41,2-12.51a9.38,9.38,0,0,1,8,1C213.72,149.72,212.5,153.8,212.08,158Z"/> <path class="cls-13" d="M192.56,231.48c-.07,1,.42,1.45,1.44,1.57,2.2.26,4.38.63,6.57.95a1.69,1.69,0,0,1,.52,1.59c-.39,3.13-.76,6.26-1.37,9.35a1.81,1.81,0,0,1-1.12,1.53l-8-1A111.43,111.43,0,0,1,192.56,231.48Z"/> <path class="cls-13" d="M203.09,217l-8.45-1,2-12.57,8.45,1,.27.33c.18,3.76-.69,7.38-1.38,11A1.67,1.67,0,0,1,203.09,217Z"/> <path class="cls-11" d="M213.6,145.49l-8-1c-.44-5.3,2.42-9.21,5.71-13.26,1.76,2.23,2.79,4.9,4.23,7.31-.5,2.32-.14,4.81-1.45,7Z"/> <path class="cls-11" d="M204.06,143.94l-8-1,0-.5c-1.14-2.44.4-4.67.55-7,1.55-1.48,3.15-2.93,4.65-4.46,1-1.07,1.44-.9,1.95.51A22.47,22.47,0,0,1,204.06,143.94Z"/> <path class="cls-13" d="M246.6,133a40.75,40.75,0,0,1-7.49-1,108.89,108.89,0,0,1,9.48-9.51C247.78,125.93,247.93,129.59,246.6,133Z"/> <path class="cls-13" d="M175.6,122.45l-7.49-1,1.49-11A100.45,100.45,0,0,1,175.6,122.45Z"/> <path class="cls-48" d="M196.62,135.46c1,1.67-.33,3.23-.25,4.87a10.94,10.94,0,0,1-.3,2.14c-1.9-.07-3.89.32-5.55-1.05Z"/> <path class="cls-49" d="M214.1,145.45c.25-2.37-.18-4.88,1.45-7l4.07,7.47A19,19,0,0,1,214.1,145.45Z"/> <path class="cls-50" d="M226.58,147.45a3.24,3.24,0,0,1-2-.48,5.21,5.21,0,0,1,2-2C227.49,145.77,226.29,146.61,226.58,147.45Z"/> <path class="cls-51" d="M185.16,140.95h-1.58c.11-.83-.3-1.75.47-2.45Z"/> <path class="cls-52" d="M205.54,134.48l1.15.56c-.08.44-.31.89-.77.72S205.52,135,205.54,134.48Z"/> <path class="cls-53" d="M384.08,134.92,381.14,140c-1.66.6-2.43-.91-3.29-1.66-6.69-5.84-13.26-11.81-19.86-17.75a12.67,12.67,0,0,1-1-1.27c3.74.53,7,1,10.16,1.44,6.14.9,12.29,1.78,18.42,2.75,1.28.2,2.91-.18,3.58,1.53Z"/> <path class="cls-54" d="M393.59,117l-3.42,6a2.28,2.28,0,0,0-1.69-.94c-3.68-.14-5.18-3.29-7.44-5.57,2.88.42,5.78.76,8.64,1.3A4.19,4.19,0,0,0,393.59,117Z"/> <path class="cls-47" d="M229.09,251l-17.5-2.51a2.64,2.64,0,0,1-.62-2.3c.57-3.3.74-6.67,1.72-9.9a1.34,1.34,0,0,1,.62-.6,79.86,79.86,0,0,1,17.84,2.74,3,3,0,0,1,.37,2.39c-.31,2.73-.84,5.43-1.24,8.15C230.17,249.76,230,250.6,229.09,251Z"/> <path class="cls-16" d="M213.09,236c-.1,4.21-1.57,8.26-1.49,12.49l-.51,0c-4.17-.33-8.22-1.65-12.44-1.53l0-.5c1.1-4.09,1.37-8.3,2-12.46l.08,0A25.06,25.06,0,0,1,213.09,236Z"/> <path class="cls-16" d="M229.09,251a125.4,125.4,0,0,0,2-12.46l.35-.21a48.84,48.84,0,0,1,12,1.84,1.48,1.48,0,0,1,.54.65A35.8,35.8,0,0,1,242.1,253l-.51,0c-4.19-.19-8.23-1.59-12.45-1.52Z"/> <path class="cls-47" d="M242.1,253c0-4.23,1.32-8.28,1.55-12.47.73-.61,1.58-.38,2.38-.28,4.69.55,9.33,1.41,14,2.07a2.89,2.89,0,0,1,1.56.7l0,0a107.82,107.82,0,0,1-2,12.48C253.71,255,247.91,253.94,242.1,253Z"/> <path class="cls-47" d="M120.08,234.92c-.2-4.24,1-8.32,1.53-12.47a2.76,2.76,0,0,1,2.33-.57c4.58.61,9.15,1.32,13.72,2a3.55,3.55,0,0,1,2,.93,2.35,2.35,0,0,1,.43,1.86c-.38,3-.75,6-1.3,9a2.12,2.12,0,0,1-1.18,1.75Z"/> <path class="cls-16" d="M137.6,237.43c1.1-4.08,1.39-8.3,2-12.46l.32-.29c4.17-.27,8.17.8,12.21,1.58a1.82,1.82,0,0,1,.47.74c-.2,4.21-.5,8.41-2,12.43l-.5,0c-4.15-.57-8.21-1.85-12.46-1.53Q137.61,237.68,137.6,237.43Z"/> <path class="cls-11" d="M137.11,117l.5,0,16,2.29c.65.09,1.3.15,1.94.23q0,.24,0,.48a4.21,4.21,0,0,1,.18,2.69q-.89,5.8-1.75,11.6a4.09,4.09,0,0,1-.88,2.3,3.33,3.33,0,0,1-2.62.25c-4.4-.6-8.78-1.32-13.17-2a3.28,3.28,0,0,1-2.25-.86l-.07-.52c.58-4.25,1.1-8.52,1.79-12.76A29.94,29.94,0,0,0,137.11,117Z"/> <path class="cls-11" d="M275.11,154.46l-.5,0a2.56,2.56,0,0,1-2.34.53c-4.45-.59-8.88-1.35-13.33-2a3.08,3.08,0,0,1-2-1,2.77,2.77,0,0,1-.42-2.14c.7-4.18,1.16-8.39,1.91-12.56a2.62,2.62,0,0,1,1.08-1.89l.06-.49,12.13,2,5.82,1C276.52,143.42,275.68,148.92,275.11,154.46Z"/> <path class="cls-11" d="M261.59,243c-6.05-.33-12-1.63-17.95-2.48l-.05,0c-.1-.14-.25-.28-.24-.42.47-5.59,1-11.16,2.67-16.56.92-.64,1.94-.35,2.9-.2,4.19.63,8.39,1.23,12.58,1.88,1,.15,2,.26,2.58,1.27l.06.07Z"/> <path class="cls-11" d="M266.13,213.45a4.63,4.63,0,0,0-.05.49c-3.1.64-6-.57-9.07-.82-2.23-.18-4.41-.72-6.63-1A3.38,3.38,0,0,1,248,211a1.83,1.83,0,0,1-.3-1.19c.69-4.93,1.23-9.88,2.29-14.76a2.37,2.37,0,0,1,.57-1.09,3,3,0,0,1,2.41-.24c4.52.68,9.05,1.29,13.56,2a2.52,2.52,0,0,1,2.08,1.16l.06.07Z"/> <path class="cls-11" d="M273.12,167.47,270.63,184l-.07.06a3.3,3.3,0,0,1-2.83.57c-4.33-.69-8.68-1.21-13-2a3.61,3.61,0,0,1-2.2-1,2.09,2.09,0,0,1-.42-1.65c.87-5,1.11-10.06,2.47-15a1.9,1.9,0,0,1,.54-.68c1.74-.39,3.43.11,5.14.34,3.43.46,6.83,1.07,10.26,1.54,1,.13,2,.17,2.55,1.21Z"/> <path class="cls-11" d="M139.57,225c-6-.86-11.92-2.07-18-2.53q0-.25,0-.5l2.49-16.48.07-.06a2.74,2.74,0,0,1,2.34-.53c4.58.64,9.13,1.39,13.71,2a3.46,3.46,0,0,1,2,.93,3,3,0,0,1,.44,2.37c-.56,4.19-1.3,8.35-1.85,12.54a3.24,3.24,0,0,1-1.12,2.15Z"/> <path class="cls-11" d="M126.11,192.95l0-.5L128.54,176l.07-.06a2.69,2.69,0,0,1,2.33-.54c4.55.78,9.14,1.25,13.68,2.11a4,4,0,0,1,2,.87,2.6,2.6,0,0,1,.42,2.13c-.57,4.36-1.33,8.7-1.93,13.06a3.27,3.27,0,0,1-1,2c-.32.08.11.12-.21.12A63,63,0,0,1,126.11,192.95Z"/> <path class="cls-11" d="M130.6,163.44l-.06-.51L133,146.48l.08-.07a2,2,0,0,1,1.61-.52c5.38.79,10.82,1.22,16.1,2.63a1.43,1.43,0,0,1,.59.63c.24,4.08-1,8-1.46,12-.19,1.69-.12,3.49-1.32,4.93a2.16,2.16,0,0,1-1.66.39c-5.1-.8-10.23-1.36-15.29-2.4A2,2,0,0,1,130.6,163.44Z"/> <path class="cls-11" d="M299.06,151.45l-.49-.49c-1.28-4.85-2.33-9.76-4-14.51l.49-.92a41.91,41.91,0,0,0,8-2.05,1.66,1.66,0,0,1,.61.52c1.6,4.32,2.3,8.89,3.64,13.29a1.8,1.8,0,0,1-.22,1.65q0,.25,0,.5A54.19,54.19,0,0,0,299.06,151.45Z"/> <path class="cls-55" d="M291.15,127.88c.06.32.27.74.14.94-1.56,2.53-3.52,4.84-4.43,7.76a15.46,15.46,0,0,1,4.3-8.69Z"/> <path class="cls-15" d="M259.55,135.47l-2.46,16.48-.33.27c-3.75.15-7.35-.85-11-1.38a1.61,1.61,0,0,1-1.14-.89,147.55,147.55,0,0,1,2.49-16.49Z"/> <path class="cls-14" d="M153.07,136.45c.67-5.53,1.39-11.06,2.52-16.52,4.21,0,8.26,1.33,12.44,1.57l-2.47,16.46a2.11,2.11,0,0,1-1.81.6c-3.47-.56-7-.57-10.38-1.78Z"/> <path class="cls-13" d="M273.06,167.41c-5.26-.82-10.53-1.65-15.8-2.43a5.74,5.74,0,0,1-2.14-.52,2,2,0,0,1-.42-1.84c.29-2.94.92-5.84,1.29-8.77a3.08,3.08,0,0,1,1.07-1.89h0c5.82,1,11.64,2,17.52,2.56.22,3.73-1,7.29-1.27,10.95C273.28,166.11,273.15,166.76,273.06,167.41Z"/> <path class="cls-47" d="M252.6,181.45a169.37,169.37,0,0,0,18,2.57l-2,12.89-15.3-2.45c-.89-.14-1.78-.31-2.66-.47l-.24-.33a40.84,40.84,0,0,1,1.91-12Z"/> <path class="cls-47" d="M248.11,211q8,1.25,16.06,2.51c.64.1,1.27.32,1.9.48l-2,12.46L249,224l-2.91-.49-.2-.36a44.74,44.74,0,0,1,1.87-11.89Z"/> <path class="cls-13" d="M151.06,148.94l-15.29-2.17-2.67-.35c.52-4.18.78-8.41,2-12.48,6,.45,12,1.7,18,2.51l0,0A25.81,25.81,0,0,1,151.06,148.94Z"/> <path class="cls-47" d="M130.6,163.44l16,2.28c.65.09,1.3.15,1.95.22l.24.33a37.84,37.84,0,0,1-1.91,11.95l-.32.26c-4.94-.73-9.88-1.41-14.8-2.24-1.07-.18-2.12-.22-3.18-.31C129.23,171.75,129.51,167.53,130.6,163.44Z"/> <path class="cls-47" d="M126.11,192.95c6.05.43,12,1.78,18,2.49l.26.32c-.09,4.09-.39,8.14-1.91,12l-.34.23-18-2.57Z"/> <path class="cls-11" d="M86.1,100l-.51,0a45.26,45.26,0,0,1-7-4q0-.25,0-.5a1.93,1.93,0,0,1,.33-1.88c2-3.44,4-6.87,6-10.35A6.2,6.2,0,0,1,86.09,82l.48,0a14.34,14.34,0,0,1,7,4l0,.94Z"/> <path class="cls-16" d="M182.64,231.47c-.21,4.2-1.58,8.25-1.54,12.48l-.5,0c-4.16-.45-8.21-1.74-12.45-1.54q0-.24,0-.49A30.89,30.89,0,0,1,170,229.39c2.56-.9,5,.19,7.48.53,1.72.24,3.69-.06,5.06,1.49Z"/> <path class="cls-11" d="M39.57,73C42,68.41,45,64.18,47.09,59.48l.5,0,10,6q0,.25,0,.51a.84.84,0,0,1,.1.72c-2.29,4.4-4.39,8.92-7.62,12.76l-.5,0c-3.24-.45-5.5-2.81-8.25-4.21-.74-.38-1.82-.55-1.79-1.77Z"/> <path class="cls-11" d="M324.61,128l.49,0a3.86,3.86,0,0,1,1.11,2.18c.81,4.3,2.66,8.36,2.88,12.79l-.5.92c-3.49,1.64-7.09,2.83-11,2.59l-.51,0a3.26,3.26,0,0,1-1-1.63c-1.08-4.38-2.61-8.65-3.25-13.14a1.2,1.2,0,0,1,.35-.71Z"/> <path class="cls-18" d="M313.11,130.95l0,.51c-3.14,1.54-6.36,2.79-10,2.51l-.05-.51L300.61,124l8.34-2.38c.64-.18,1.12.17,1.65.39Z"/> <path class="cls-11" d="M59.08,84.93l0-.51a1.4,1.4,0,0,1,.1-1.62c2-3.67,4.1-7.32,6.32-10.89a2.22,2.22,0,0,1,1.1-1l.52,0,10,5.56v.95c.32.73-.15,1.28-.47,1.82C74.77,82.45,73,85.7,71.1,88.87a3.14,3.14,0,0,1-1.48,1.59l-.53,0c-.13.11-.31.25-.43.2C65.19,89.23,61.8,87.64,59.08,84.93Z"/> <path class="cls-11" d="M350.62,137.45l0,.51c-.74,1.08-1.94,1.24-3.06,1.44-2.82.5-5.45,2-8.44,1.56l-.5,0a71,71,0,0,1-3.89-14.07c-.07-.32.17-.63.36-.91l0-.93,11.45-2.59a.55.55,0,0,1,.74.11c1.38,4.36,2.38,8.83,3.55,13.25A1.79,1.79,0,0,1,350.62,137.45Z"/> <path class="cls-18" d="M347.08,122.47l-.52,0-2-8.38,9,7.94C351.39,122.12,349.29,123,347.08,122.47Z"/> <path class="cls-47" d="M347.08,122.47c2.13-.44,4.2-1.61,6.45-.5a17.45,17.45,0,0,1,4.39,4.49l1.73,7.39c-.1.73-.09,1.41-1.12,1.64-2.66.57-5.28,1.3-7.92,2C349.54,132.43,347.5,127.65,347.08,122.47Z"/> <path class="cls-13" d="M303.13,134c3.33-.8,6.55-2,10-2.51l4,15-9.95,2.49Z"/> <path class="cls-14" d="M317.57,146.48l11-2.59c1.59,2.64,1.82,5.67,2.51,8.57-.06.42-.17.83-.64.95-3.24.83-6.48,1.68-9.73,2.46-.33.08-.76-.26-1.14-.4C318.85,152.48,317.32,149.68,317.57,146.48Z"/> <path class="cls-13" d="M69.62,90.46l7.5-13c3.29.93,5.82,3.34,9,4.54-2.15,4.69-5.12,8.92-7.52,13.48C75.36,94.2,72.54,92.23,69.62,90.46Z"/> <path class="cls-14" d="M59.08,84.93l10,5.57C68.13,93.6,66,96.1,64.58,99A31.08,31.08,0,0,1,54.1,93C55.56,90.16,56.84,87.25,59.08,84.93Z"/> <path class="cls-47" d="M335.06,125.95c1.07,4.26,2.14,8.52,3.19,12.78.18.72.23,1.46.34,2.2-3.29.14-6.24,1.83-9.51,2a105,105,0,0,1-4-15,33,33,0,0,0,7.08-1.66A9.89,9.89,0,0,1,335.06,125.95Z"/> <path class="cls-14" d="M339.1,141l11.5-3c.75,2.64,1.86,5.19,2,8-.07.86.2,1.77-1.17,2.07-3.3.72-6.57,1.62-9.85,2.45A53.81,53.81,0,0,1,339.1,141Z"/> <path class="cls-14" d="M93.6,86l-7-4c1.09-3.06,3.29-5.53,4.56-8.5,3.25.82,5.2,3.05,6.48,6A25.52,25.52,0,0,1,93.6,86Z"/> <path class="cls-47" d="M66.57,71,59.05,84.42l-8.95-5L57.63,66C60.8,67.28,63.57,69.33,66.57,71Z"/> <path class="cls-14" d="M39.57,73.48l10,6a41.33,41.33,0,0,1-4.51,8,1.63,1.63,0,0,1-1.86-.18c-2.85-1.83-6-3.12-8.65-5.33A41.23,41.23,0,0,1,39.57,73.48Z"/> <path class="cls-56" d="M46,49.41c1,.19,1.75.72,1.6,1.8s-.7,1.86-1.95,1.76a1.51,1.51,0,0,1-1.48-1.64A1.88,1.88,0,0,1,46,49.41Z"/> <path class="cls-57" d="M420,97.4c-.19,1.33.63,2.62.19,4-1.1-1.07-2.73-.44-3.91-1.25C417.75,99.54,418.33,97.74,420,97.4Z"/> <path class="cls-47" d="M170.13,229.45c-.73,4.16-.9,8.4-2,12.49l-17.5-2.51c0-4.22,1.13-8.3,1.53-12.47a2.18,2.18,0,0,1,1.84-.55c5,.68,10,1.33,15,2.3a2.69,2.69,0,0,1,.9.41Z"/> <path class="cls-58" d="M250.52,57a2.79,2.79,0,0,1,.09.43c.36,1-.46,1.69-.86,2.47a10.92,10.92,0,0,0-1.39,6.45,7.39,7.39,0,0,0,3.16,5.1l-.93,1c-2.72,1.56-5.25,3.47-8.4,4.24-3.78.93-6-.24-6.92-4a19.32,19.32,0,0,1,0-9.58c1.55-6,3.65-6,9.54-6.61A31.22,31.22,0,0,1,250.52,57Z"/> <path class="cls-58" d="M184.62,56.47a4.54,4.54,0,0,1-.07.46c-3.21,1.51-6.18,3.5-9.77,4.24-5.4,1.12-7.83-.51-7.92-5.95a20.45,20.45,0,0,1,2.42-10,7.4,7.4,0,0,1,7.05-4.24l5.74,0c1,1,2.54,0,3.52,1-3,.66-4.33,2.66-4.69,5.56a8.4,8.4,0,0,0,2.68,7.61C184,55.52,184.49,55.85,184.62,56.47Z"/> <path class="cls-59" d="M251.53,71.44c-3-.67-4.7-4.51-3.76-8.26a16.25,16.25,0,0,1,2.84-5.75,17,17,0,0,1,6.6,2.07,2.43,2.43,0,0,1,1.3,3.66A22.55,22.55,0,0,1,251.53,71.44Z"/> <path class="cls-59" d="M184.62,56.47c-4.53-1.68-6-8.71-2.69-13.53.94-1.36,2.37-.89,3.66-1a11.2,11.2,0,0,1,4,1.2c4.74,1.94,5.09,3,2.06,7.18A21.09,21.09,0,0,1,184.62,56.47Z"/> <path class="cls-13" d="M183.1,141c.11,4.24-1.09,8.31-1.53,12.48a2.42,2.42,0,0,1-2.08.54c-4.72-.67-9.44-1.4-14.15-2.13a3.37,3.37,0,0,1-1.78-.8,2.47,2.47,0,0,1-.43-2.1c.46-2.91.86-5.84,1.31-8.76a1.93,1.93,0,0,1,1.15-1.75Z"/> <path class="cls-16" d="M165.6,138.46l-2,12.47-.31.3c-3.95.32-7.72-.73-11.53-1.5-.31-.06-.47-.45-.66-.72l-.06-.06,2-12.48,12.46,1.48Z"/> <path class="cls-13" d="M224.56,160l2-12.5L244.1,150a2.91,2.91,0,0,1,.64,2.56c-.54,3.33-.75,6.72-1.71,10a1.29,1.29,0,0,1-.6.59,87.32,87.32,0,0,1-17.63-2.81Z"/> <path class="cls-16" d="M242.6,162.92c.14-4.35,1.66-8.54,1.5-12.93l.51,0,12.45,2-1.94,12.5q0,.25-.05.5A28.71,28.71,0,0,1,242.6,162.92Z"/> <path class="cls-15" d="M209.57,175l2.53-16.51L224.56,160l0,0a2.12,2.12,0,0,1,.48,1.86c-.69,4.25-1.18,8.54-1.95,12.78a3.67,3.67,0,0,1-.93,2,2.59,2.59,0,0,1-1.86.5c-3.61-.52-7.36-.37-10.72-2.15Z"/> <path class="cls-11" d="M163.62,150.93l15.51,2.29c.81.12,1.63.16,2.44.24q0,.24,0,.48a1.51,1.51,0,0,1,.35,1.15c-.7,5.05-1.15,10.15-2.44,15.1a1.52,1.52,0,0,1-.61.6,2.89,2.89,0,0,1-1.7.21c-4.88-.83-9.82-1.33-14.68-2.3a3.67,3.67,0,0,1-1.38-.53,1.67,1.67,0,0,1-.47-.73c.11-5.07,1.32-10,2-15a2.86,2.86,0,0,1,.87-1.48Z"/> <path class="cls-14" d="M179.12,170.43l2.48-16.49c4.21,0,8.26,1.34,12.45,1.56L191.58,172a1.67,1.67,0,0,1-1.09.55C186.63,172.2,182.72,172.18,179.12,170.43Z"/> <path class="cls-15" d="M205.09,204.46,207.61,188a2,2,0,0,1,1.58-.62c3.67.5,7.43.53,10.92,2a2.66,2.66,0,0,1,.5,2.35c-.71,4.17-1.17,8.38-1.9,12.54a4,4,0,0,1-1,2.24c-2.74.83-5.32-.4-8-.63-1.59-.14-3.34,0-4.61-1.36Z"/> <path class="cls-16" d="M220.07,189.49c-4.19-.2-8.24-1.56-12.45-1.54q0-.25,0-.49l2-12.48c4.19.25,8.24,1.61,12.48,1.5a1.39,1.39,0,0,1,.45.69c-.35,4.09-.62,8.2-2.11,12.1Z"/> <path class="cls-15" d="M213.09,236l-12.44-2,2.48-16.5a1.91,1.91,0,0,1,1.34-.6c3.8.26,7.63.33,11.17,2a3.31,3.31,0,0,1,.48,2.86c-.67,3.77-1.09,7.58-1.71,11.36a4.17,4.17,0,0,1-1.29,2.88Z"/> <path class="cls-16" d="M215.59,219c-4.16-.43-8.23-1.63-12.46-1.54q0-.25,0-.49l2-12.48,12.44,1.95.3.29a31.88,31.88,0,0,1-1.88,12.1Z"/> <path class="cls-14" d="M189.61,185l-2.52,16.52a1.72,1.72,0,0,1-1.1.53c-3.87-.27-7.78-.3-11.41-2,0-.07-.14-.14-.13-.21A50.35,50.35,0,0,1,177,183.29a2.57,2.57,0,0,1,1.86-.5c3.61.52,7.37.35,10.72,2.16Z"/> <path class="cls-16" d="M174.64,199.93c4.16.42,8.24,1.49,12.45,1.55q0,.24,0,.48l-2,12.47-.06,0a2.11,2.11,0,0,1-1.88.35c-3.45-.74-7.05-.61-10.4-1.9a1.52,1.52,0,0,1-.5-.66c.3-4.09.6-8.18,2-12.09Z"/> <path class="cls-14" d="M172.66,212.5l12.44,2c-.56,5.69-1.44,11.33-2.52,16.94l-12.45-2h0c-.64-.83-.36-1.76-.24-2.65.53-4,1.22-7.88,1.76-11.83A3.41,3.41,0,0,1,172.66,212.5Z"/> <path class="cls-16" d="M189.58,185c-4.18-.29-8.24-1.6-12.47-1.52a1.45,1.45,0,0,1-.45-.71c.1-3.57,1-7,1.39-10.57a2.77,2.77,0,0,1,1-1.67l.07,0c4.19.2,8.23,1.57,12.45,1.53l0,.5Z"/> <path class="cls-60" d="M206.16,180.7c-.17.84-.56,1.52-1.63,1.39s-1.53-.59-1.42-1.64a1.31,1.31,0,0,1,1.46-1.35A1.48,1.48,0,0,1,206.16,180.7Z"/> <path class="cls-60" d="M210.59,151.4c-.2,1-.7,1.62-1.73,1.44a1.43,1.43,0,0,1-1.33-1.76,1.26,1.26,0,0,1,1.53-1.23A1.5,1.5,0,0,1,210.59,151.4Z"/> <path class="cls-61" d="M195.85,237.58a1.67,1.67,0,0,1,1.54,1.69c0,1-.74,1.41-1.69,1.34s-1.43-.44-1.37-1.38A1.67,1.67,0,0,1,195.85,237.58Z"/> <path class="cls-56" d="M200.12,211.44c-.88-.14-1.52-.57-1.42-1.59s.58-1.55,1.6-1.46a1.43,1.43,0,0,1,1.5,1.59A1.48,1.48,0,0,1,200.12,211.44Z"/> <path class="cls-11" d="M213.12,235.94c1-5.63,2-11.26,2.47-17l.07,0a2.44,2.44,0,0,1,1.91-.36c5.32.89,10.73,1.23,16,2.64a1.68,1.68,0,0,1,.5.71,102.54,102.54,0,0,1-2.19,15.55,1.67,1.67,0,0,1-.71,1l-.07,0Z"/> <path class="cls-14" d="M231.14,238.46l2.49-16.5a1.68,1.68,0,0,1,1.09-.56c3.88.21,7.77.35,11.38,2l0,0q-.94,8.53-2.54,17C239.42,239.9,235.25,239.39,231.14,238.46Z"/> <path class="cls-11" d="M172.66,212.5l-2.55,16.94-15.54-2.24c-.81-.12-1.63-.16-2.44-.23q0-.24,0-.47c-.62-1.73,0-3.42.22-5.1a93.65,93.65,0,0,1,1.9-11.17,1.44,1.44,0,0,1,.61-.6,4.47,4.47,0,0,1,2.45-.11c4.2.56,8.37,1.35,12.58,1.86a4.56,4.56,0,0,1,2.73,1.09Z"/> <path class="cls-14" d="M154.59,210q-.91,8.31-2.5,16.52c-4.22,0-8.28-1.17-12.45-1.57L142.11,208h0a2.7,2.7,0,0,1,2.35-.34c2.61.33,5.21.68,7.8,1.13A2.88,2.88,0,0,1,154.59,210Z"/> <path class="cls-14" d="M250.6,194l-2.49,17h0a2.47,2.47,0,0,1-2.13.35c-2.78-.43-5.56-.83-8.34-1.23a3.22,3.22,0,0,1-2.17-1.08,2.32,2.32,0,0,1-.35-1.67c.7-4.42,1.19-8.88,2-13.28a3.3,3.3,0,0,1,.87-1.76,1.75,1.75,0,0,1,1.15-.41c3.84.47,7.78.47,11.41,2.1Z"/> <path class="cls-15" d="M242.6,162.92a116.1,116.1,0,0,1,12.47,2l-2.47,16.49h0a2.7,2.7,0,0,1-2.37.24c-3.43-.71-7.06-.43-10.27-2.15-.69-2.51,1.25-14.73,2.64-16.62Z"/> <path class="cls-14" d="M144.1,195.43l2.5-17h0c.91-.69,1.94-.34,2.87-.17,3.15.59,6.41.57,9.44,1.78a1.53,1.53,0,0,1,.54.66c.14,4.85-1.32,9.5-1.77,14.28a3.08,3.08,0,0,1-1.07,2.18,25.36,25.36,0,0,1-12.5-1.75Z"/> <path class="cls-14" d="M163.55,151l-2.48,16.47A1.6,1.6,0,0,1,160,168c-3.84-.38-7.74-.47-11.37-2h0L151.12,149Z"/> <path class="cls-16" d="M240.13,179.46l12.45,2-2,12.51-12.45-1.5a1.34,1.34,0,0,1-.45-.67,85.84,85.84,0,0,1,1.76-12.25A.46.46,0,0,1,240.13,179.46Z"/> <path class="cls-16" d="M235.63,208.95l12.45,2c-.56,4.18-1,8.37-2,12.49-4.2-.18-8.24-1.58-12.47-1.49q0-.25,0-.5c-.66-.92-.34-1.94-.16-2.87.63-3.13.46-6.42,1.86-9.39Z"/> <path class="cls-16" d="M148.61,166l12.46,1.5q0,.25,0,.5c.79,3.47-.6,6.76-.9,10.13a3,3,0,0,1-1.13,2.36l-12.46-2Z"/> <path class="cls-16" d="M144.12,195.45,156.58,197a1.45,1.45,0,0,1,.45.71,83,83,0,0,1-1.38,10.56,2.92,2.92,0,0,1-1,1.67l-.07,0-12.46-2Z"/> <path class="cls-11" d="M240.13,179.46l-.51,0A2.7,2.7,0,0,1,237,180c-4.16-.72-8.35-1.18-12.51-1.89a4.18,4.18,0,0,1-2.43-1.14l0-.5L224.59,160q8,1.23,16.08,2.47c.64.1,1.27.31,1.9.47Z"/> <path class="cls-47" d="M159.08,180.45l2-12.5,15.51,2.26c.81.12,1.62.18,2.44.27l-2,12.47a2.34,2.34,0,0,1-2.07.55c-4.7-.8-9.45-1.28-14.13-2.2a3.57,3.57,0,0,1-1.76-.83Z"/> <path class="cls-11" d="M238.08,192a4.77,4.77,0,0,0,0,.49l-2.49,16.48-.07.06a3,3,0,0,1-2.58.5c-4.32-.59-8.63-1.28-12.95-1.91a3.91,3.91,0,0,1-2.41-1.13l-.07,0,2.51-16.93.07,0a2.24,2.24,0,0,1,1.89-.38c4.92.73,9.84,1.4,14.74,2.25A2.66,2.66,0,0,1,238.08,192Z"/> <path class="cls-47" d="M238.08,192c-6-.42-12-1.63-17.95-2.53l2-12.47,17.5,2.52C239.84,183.75,238.53,187.81,238.08,192Z"/> <path class="cls-47" d="M217.63,206.47,235.56,209l-2,12.46c-6-.46-12-1.65-17.93-2.53Z"/> <path class="cls-11" d="M159.11,180.46l15.53,2.25c.81.12,1.63.16,2.44.23q0,.24,0,.49l-2.48,16.49-.07,0a2.27,2.27,0,0,1-1.87.46c-4.78-.6-9.54-1.38-14.29-2.14a3.35,3.35,0,0,1-1.78-.83q0-.24,0-.48Z"/> <path class="cls-47" d="M156.62,197.46l16,2.26,1.94.25-2,12.47-15.46-2.23c-.82-.12-1.64-.2-2.46-.3Z"/> </g> </g></svg>