<svg xmlns="http://www.w3.org/2000/svg" viewBox="0 0 358.7 236.3"><defs><style>.cls-1{fill:#167d3f;}.cls-2{fill:#b7a639;}.cls-3{fill:#96959b;}.cls-4{fill:#bbb8c1;}.cls-5{fill:#aca8b0;}.cls-6{fill:#252528;}.cls-7{fill:#3b3b43;}.cls-8{fill:#0a0a0b;}.cls-9{fill:#2d2d35;}.cls-10{fill:#61535f;}.cls-11{fill:#e5e5e5;}.cls-12{fill:#fffffa;}.cls-13{fill:#201e23;}</style></defs><g id="Layer_1-2" data-name="Layer 1"><path class="cls-1" d="M325.4,0H12.7A12.72,12.72,0,0,0,0,12.7V208.3A12.72,12.72,0,0,0,12.7,221H325.4a12.72,12.72,0,0,0,12.7-12.7V12.7A12.72,12.72,0,0,0,325.4,0Zm-77,8.3a5.8,5.8,0,0,1,5.8,5.8h0a5.8,5.8,0,0,1-5.8,5.8h0a5.8,5.8,0,1,1,0-11.6Zm-5.8,197.6a5.8,5.8,0,1,1,11.6,0h0a5.8,5.8,0,0,1-5.8,5.8h0A5.87,5.87,0,0,1,242.6,205.9Zm-233.4,0a5.8,5.8,0,1,1,11.6,0h0a5.8,5.8,0,0,1-5.8,5.8h0A5.8,5.8,0,0,1,9.2,205.9ZM15,8.3a5.8,5.8,0,0,1,5.8,5.8h0A5.8,5.8,0,0,1,15,19.9h0A5.8,5.8,0,0,1,15,8.3Z"/><path class="cls-2" d="M15,2.3h0A11.85,11.85,0,1,0,26.9,14.2,11.84,11.84,0,0,0,15,2.3Zm5.8,11.8A5.8,5.8,0,0,1,15,19.9h0a5.8,5.8,0,1,1,5.8-5.8Z"/><path class="cls-2" d="M256.8,5.8a11.54,11.54,0,0,0-8.4-3.5,11.91,11.91,0,0,0-11.9,11.8,12,12,0,0,0,12,11.9,11.82,11.82,0,0,0,11.8-11.8A11.54,11.54,0,0,0,256.8,5.8Zm-2.5,8.3a5.8,5.8,0,0,1-5.8,5.8h0a5.8,5.8,0,1,1,0-11.6,5.87,5.87,0,0,1,5.8,5.8Z"/><path class="cls-2" d="M15,194a11.85,11.85,0,1,0,11.8,11.8A11.82,11.82,0,0,0,15,194Zm5.8,11.8a5.8,5.8,0,0,1-5.8,5.8h0a5.8,5.8,0,1,1,5.8-5.8Z"/><path class="cls-2" d="M256.8,197.5a11.88,11.88,0,1,0,3.4,8.3A11,11,0,0,0,256.8,197.5Zm-2.5,8.3a5.8,5.8,0,0,1-5.8,5.8h0a5.8,5.8,0,1,1,0-11.6,5.87,5.87,0,0,1,5.8,5.8Z"/><path class="cls-3" d="M285.3,9h70.4a3,3,0,0,1,3,3V63.5a3,3,0,0,1-3,3H285.3a3,3,0,0,1-3-3V12A3,3,0,0,1,285.3,9Z"/><path class="cls-4" d="M285.3,5h70.4a3,3,0,0,1,3,3V59.5a3,3,0,0,1-3,3H285.3a3,3,0,0,1-3-3V8A3,3,0,0,1,285.3,5Z"/><polygon class="cls-5" points="352.9 17.3 352.9 24.4 327 28.4 327 25.2 350 22.1 350 19.6 327 16.4 327 13.2 352.9 17.3"/><polygon class="cls-5" points="352.9 43 352.9 50.1 327 54.2 327 51 350 47.8 350 45.3 327 42.2 327 39 352.9 43"/><path class="cls-3" d="M285,79.2h70.4a3,3,0,0,1,3,3v51.5a3,3,0,0,1-3,3H285a3,3,0,0,1-3-3V82.2A3,3,0,0,1,285,79.2Z"/><path class="cls-4" d="M285,75.2h70.4a3,3,0,0,1,3,3v51.5a3,3,0,0,1-3,3H285a3,3,0,0,1-3-3V78.2A3,3,0,0,1,285,75.2Z"/><polygon class="cls-5" points="352.9 89.5 352.9 96.6 327 100.7 327 97.5 350 94.3 350 91.8 327 88.7 327 85.5 352.9 89.5"/><polygon class="cls-5" points="352.9 115.3 352.9 122.4 327 126.4 327 123.2 350 120.1 350 117.6 327 114.4 327 111.2 352.9 115.3"/><path class="cls-3" d="M268.7,149.5h87a.94.94,0,0,1,1,1v64.4a.94.94,0,0,1-1,1h-87a.94.94,0,0,1-1-1V150.5A1,1,0,0,1,268.7,149.5Z"/><path class="cls-4" d="M268.7,145.5h87a.94.94,0,0,1,1,1v64.4a.94.94,0,0,1-1,1h-87a.94.94,0,0,1-1-1V146.5A1,1,0,0,1,268.7,145.5Z"/><path class="cls-6" d="M79,70.8h54.8a2,2,0,0,1,2,2v54.8a2,2,0,0,1-2,2H79a2,2,0,0,1-2-2V72.8A2,2,0,0,1,79,70.8Z"/><path class="cls-7" d="M79,66.8h54.8a2,2,0,0,1,2,2v54.8a2,2,0,0,1-2,2H79a2,2,0,0,1-2-2V68.8A2,2,0,0,1,79,66.8Z"/><path class="cls-6" d="M223.5,73.5h33.3a.94.94,0,0,1,1,1v33.2a.94.94,0,0,1-1,1H223.5a.94.94,0,0,1-1-1V74.5A1,1,0,0,1,223.5,73.5Z"/><path class="cls-7" d="M223.5,69.5h33.3a.94.94,0,0,1,1,1v33.2a.94.94,0,0,1-1,1H223.5a.94.94,0,0,1-1-1V70.5A1,1,0,0,1,223.5,69.5Z"/><path class="cls-3" d="M156.6,188.2v41.1a3,3,0,0,1-3,3H98.9a3,3,0,0,1-3-3V188.2a3,3,0,0,1,3-3h54.6A3,3,0,0,1,156.6,188.2Z"/><path class="cls-4" d="M156.6,184.2v41.1a3,3,0,0,1-3,3H98.9a3,3,0,0,1-3-3V184.2a3,3,0,0,1,3-3h54.6A3,3,0,0,1,156.6,184.2Z"/><polygon class="cls-5" points="110.5 200.5 110.5 218.7 101 218.7 101 200.5 104.1 200.5 104.1 215.4 107.5 215.4 107.5 200.5 110.5 200.5"/><polygon class="cls-5" points="151.5 200.5 151.5 218.7 142 218.7 142 200.5 145 200.5 145 215.4 148.4 215.4 148.4 200.5 151.5 200.5"/><path class="cls-3" d="M61.6,208.9v19.8a1.22,1.22,0,0,1-1.2,1.2H33a1.22,1.22,0,0,1-1.2-1.2V208.9a1.22,1.22,0,0,1,1.2-1.2H60.4A1.38,1.38,0,0,1,61.6,208.9Z"/><path class="cls-4" d="M61.6,204.9v19.8a1.22,1.22,0,0,1-1.2,1.2H33a1.22,1.22,0,0,1-1.2-1.2V204.9a1.22,1.22,0,0,1,1.2-1.2H60.4A1.38,1.38,0,0,1,61.6,204.9Z"/><rect class="cls-5" x="54.6" y="213.8" width="3.6" height="6.8"/><rect class="cls-5" x="35.2" y="213.8" width="3.6" height="6.8"/><path class="cls-8" d="M32.8,7.7h198a2,2,0,0,1,2,2v17a2,2,0,0,1-2,2H32.8a2,2,0,0,1-2-2V9.7A1.94,1.94,0,0,1,32.8,7.7Z"/><path class="cls-9" d="M32.8,3.7h198a2,2,0,0,1,2,2v17a2,2,0,0,1-2,2H32.8a2,2,0,0,1-2-2V5.7A1.94,1.94,0,0,1,32.8,3.7Z"/><rect class="cls-4" x="34.5" y="16.9" width="4.5" height="4.5"/><rect class="cls-4" x="44.5" y="16.9" width="4.5" height="4.5"/><rect class="cls-4" x="54.5" y="16.9" width="4.5" height="4.5"/><rect class="cls-4" x="64.5" y="16.9" width="4.5" height="4.5"/><rect class="cls-4" x="94.5" y="16.9" width="4.5" height="4.5"/><rect class="cls-4" x="74.5" y="16.9" width="4.5" height="4.5"/><rect class="cls-4" x="104.5" y="16.9" width="4.5" height="4.5"/><rect class="cls-4" x="114.5" y="16.9" width="4.5" height="4.5"/><rect class="cls-4" x="124.5" y="16.9" width="4.5" height="4.5"/><rect class="cls-4" x="134.5" y="16.9" width="4.5" height="4.5"/><rect class="cls-4" x="144.5" y="16.9" width="4.5" height="4.5"/><rect class="cls-4" x="164.5" y="16.9" width="4.5" height="4.5"/><rect class="cls-4" x="154.5" y="16.9" width="4.5" height="4.5"/><rect class="cls-4" x="174.5" y="16.9" width="4.5" height="4.5"/><rect class="cls-4" x="224.5" y="16.9" width="4.5" height="4.5"/><rect class="cls-4" x="214.5" y="16.9" width="4.5" height="4.5"/><rect class="cls-4" x="204.5" y="16.9" width="4.5" height="4.5"/><rect class="cls-4" x="194.5" y="16.9" width="4.5" height="4.5"/><rect class="cls-4" x="184.5" y="16.9" width="4.5" height="4.5"/><rect class="cls-4" x="84.5" y="16.9" width="4.5" height="4.5"/><rect class="cls-4" x="34.5" y="6.9" width="4.5" height="4.5"/><rect class="cls-4" x="44.5" y="6.9" width="4.5" height="4.5"/><rect class="cls-4" x="54.5" y="6.9" width="4.5" height="4.5"/><rect class="cls-4" x="64.5" y="6.9" width="4.5" height="4.5"/><rect class="cls-4" x="94.5" y="6.9" width="4.5" height="4.5"/><rect class="cls-4" x="74.5" y="6.9" width="4.5" height="4.5"/><rect class="cls-4" x="104.5" y="6.9" width="4.5" height="4.5"/><rect class="cls-4" x="114.5" y="6.9" width="4.5" height="4.5"/><rect class="cls-4" x="124.5" y="6.9" width="4.5" height="4.5"/><rect class="cls-4" x="134.5" y="6.9" width="4.5" height="4.5"/><rect class="cls-4" x="144.5" y="6.9" width="4.5" height="4.5"/><rect class="cls-4" x="164.5" y="6.9" width="4.5" height="4.5"/><rect class="cls-4" x="154.5" y="6.9" width="4.5" height="4.5"/><rect class="cls-4" x="174.5" y="6.9" width="4.5" height="4.5"/><rect class="cls-4" x="224.5" y="6.9" width="4.5" height="4.5"/><rect class="cls-4" x="214.5" y="6.9" width="4.5" height="4.5"/><rect class="cls-4" x="204.5" y="6.9" width="4.5" height="4.5"/><rect class="cls-4" x="194.5" y="6.9" width="4.5" height="4.5"/><rect class="cls-4" x="184.5" y="6.9" width="4.5" height="4.5"/><rect class="cls-4" x="84.5" y="6.9" width="4.5" height="4.5"/><polygon class="cls-8" points="226.7 176.3 226.7 227.6 224 227.6 224 236.3 200.2 236.3 200.2 227.6 197.5 227.6 197.5 176.3 226.7 176.3"/><polygon class="cls-9" points="226.7 172.3 226.7 223.6 224 223.6 224 232.3 200.2 232.3 200.2 223.6 197.5 223.6 197.5 172.3 226.7 172.3"/><polygon class="cls-10" points="226.7 207.1 226.7 221 197.5 221 197.5 207.1 204.3 207.1 208.5 185.1 215.7 185.1 219.9 207.1 226.7 207.1"/><polygon class="cls-11" points="3.2 137.1 3.2 91.9 6.9 88.5 6.9 69.6 19.5 69.6 19.5 160.7 6.9 160.7 6.9 140.5 3.2 137.1"/><polygon class="cls-12" points="3.2 133.1 3.2 87.9 6.9 84.5 6.9 65.6 19.5 65.6 19.5 156.7 6.9 156.7 6.9 136.5 3.2 133.1"/><rect class="cls-13" x="13.7" y="77.9" width="5.8" height="65.7"/><rect class="cls-4" x="16.4" y="138.2" width="6.1" height="2.4"/><rect class="cls-4" x="16.4" y="134.2" width="6.1" height="2.4"/><rect class="cls-4" x="16.4" y="130.1" width="6.1" height="2.4"/><rect class="cls-4" x="16.4" y="126.1" width="6.1" height="2.4"/><rect class="cls-4" x="16.4" y="122.1" width="6.1" height="2.4"/><rect class="cls-4" x="16.4" y="118" width="6.1" height="2.4"/><rect class="cls-4" x="16.4" y="114" width="6.1" height="2.4"/><rect class="cls-4" x="16.4" y="110" width="6.1" height="2.4"/><rect class="cls-4" x="16.4" y="105.9" width="6.1" height="2.4"/><rect class="cls-4" x="16.4" y="101.9" width="6.1" height="2.4"/><rect class="cls-4" x="16.4" y="97.9" width="6.1" height="2.4"/><rect class="cls-4" x="16.4" y="93.8" width="6.1" height="2.4"/><rect class="cls-4" x="16.4" y="89.8" width="6.1" height="2.4"/><rect class="cls-4" x="16.4" y="85.8" width="6.1" height="2.4"/><rect class="cls-4" x="16.4" y="81.7" width="6.1" height="2.4"/><polygon class="cls-11" points="189.6 153.6 189.6 198.7 185.9 202.2 185.9 221 173.3 221 173.3 130 185.9 130 185.9 150.1 189.6 153.6"/><polygon class="cls-12" points="189.6 149.6 189.6 194.7 185.9 198.2 185.9 217 173.3 217 173.3 126 185.9 126 185.9 146.1 189.6 149.6"/><rect class="cls-13" x="173.3" y="139" width="5.8" height="65.7"/><rect class="cls-4" x="170.3" y="142.1" width="6.1" height="2.4"/><rect class="cls-4" x="170.3" y="146.1" width="6.1" height="2.4"/><rect class="cls-4" x="170.3" y="150.1" width="6.1" height="2.4"/><rect class="cls-4" x="170.3" y="154.2" width="6.1" height="2.4"/><rect class="cls-4" x="170.3" y="158.2" width="6.1" height="2.4"/><rect class="cls-4" x="170.3" y="162.2" width="6.1" height="2.4"/><rect class="cls-4" x="170.3" y="166.3" width="6.1" height="2.4"/><rect class="cls-4" x="170.3" y="170.3" width="6.1" height="2.4"/><rect class="cls-4" x="170.3" y="174.4" width="6.1" height="2.4"/><rect class="cls-4" x="170.3" y="178.4" width="6.1" height="2.4"/><rect class="cls-4" x="170.3" y="182.4" width="6.1" height="2.4"/><rect class="cls-4" x="170.3" y="186.4" width="6.1" height="2.4"/><rect class="cls-4" x="170.3" y="190.5" width="6.1" height="2.4"/><rect class="cls-4" x="170.3" y="194.5" width="6.1" height="2.4"/><rect class="cls-4" x="170.3" y="198.6" width="6.1" height="2.4"/></g></svg>