<?xml version="1.0" encoding="utf-8"?>
<!-- Generator: Adobe Illustrator 20.1.0, SVG Export Plug-In . SVG Version: 6.00 Build 0)  -->
<svg version="1.1" id="Layer_1" xmlns="http://www.w3.org/2000/svg" xmlns:xlink="http://www.w3.org/1999/xlink" x="0px" y="0px"
	 viewBox="0 0 358.7 236.3" style="enable-background:new 0 0 358.7 236.3;" xml:space="preserve">
<style type="text/css">
	.st0{fill:#11602D;}
	.st1{fill:#9B8931;}
	.st2{fill:#167D3F;}
	.st3{fill:#B7A639;}
	.st4{fill:#96959B;}
	.st5{fill:#BBB8C1;}
	.st6{fill:#ACA8B0;}
	.st7{fill:#252528;}
	.st8{fill:#3B3B43;}
	.st9{fill:#0A0A0B;}
	.st10{fill:#2D2D35;}
	.st11{fill:#61535F;}
	.st12{fill:#E5E5E5;}
	.st13{fill:#FFFFFA;}
	.st14{fill:#201E23;}
</style>
<path class="st0" d="M325.4,4H12.7C5.7,4,0,9.7,0,16.7v195.6c0,7,5.7,12.7,12.7,12.7h312.7c7,0,12.7-5.7,12.7-12.7V16.7
	C338.1,9.7,332.4,4,325.4,4z M248.4,12.3c3.2,0,5.8,2.6,5.8,5.8c0,0,0,0,0,0l0,0c0,3.2-2.6,5.8-5.8,5.8l0,0l0,0
	c-3.2,0-5.8-2.6-5.8-5.8S245.2,12.3,248.4,12.3C248.4,12.3,248.4,12.3,248.4,12.3z M242.6,209.9c0-3.2,2.6-5.8,5.8-5.8
	s5.8,2.6,5.8,5.8l0,0c0,3.2-2.6,5.8-5.8,5.8l0,0l0,0C245.2,215.7,242.6,213.1,242.6,209.9L242.6,209.9z M9.2,209.9
	c0-3.2,2.6-5.8,5.8-5.8s5.8,2.6,5.8,5.8c0,0,0,0,0,0l0,0c0,3.2-2.6,5.8-5.8,5.8c0,0,0,0,0,0l0,0C11.8,215.7,9.2,213.1,9.2,209.9
	L9.2,209.9L9.2,209.9z M15,12.3c3.2,0,5.8,2.6,5.8,5.8l0,0c0,3.2-2.6,5.8-5.8,5.8l0,0c-3.2,0-5.8-2.6-5.8-5.8
	C9.2,14.9,11.8,12.3,15,12.3z"/>
<path class="st1" d="M15,6.3L15,6.3c-6.5,0-11.8,5.4-11.8,11.9C3.2,24.7,8.6,30,15.1,30c6.5,0,11.8-5.3,11.8-11.8
	c0-6.5-5.2-11.9-11.8-11.9C15.1,6.3,15,6.3,15,6.3z M20.8,18.1c0,3.2-2.6,5.8-5.8,5.8l0,0c-3.2,0-5.8-2.6-5.8-5.8s2.6-5.8,5.8-5.8
	S20.8,14.9,20.8,18.1C20.8,18.1,20.8,18.1,20.8,18.1z"/>
<path class="st1" d="M256.8,9.8c-2.2-2.3-5.2-3.5-8.4-3.5c-6.5,0-11.8,5.3-11.9,11.8c0.1,6.6,5.4,11.9,12,11.9
	c6.5,0,11.8-5.3,11.8-11.8C260.3,15,259.1,12,256.8,9.8z M254.3,18.1c0,3.2-2.6,5.8-5.8,5.8l0,0l0,0c-3.2,0-5.8-2.6-5.8-5.8
	s2.6-5.8,5.8-5.8c0,0,0,0,0,0C251.7,12.3,254.3,14.9,254.3,18.1z"/>
<path class="st1" d="M9.2,209.8c0-3.2,2.6-5.8,5.8-5.8s5.8,2.6,5.8,5.8c0,1.3-0.4,2.5-1.1,3.4h6.6c0.3-1.1,0.5-2.2,0.5-3.3
	c0,0,0-0.1,0-0.1c0-6.5-5.3-11.8-11.8-11.8c-6.5,0-11.9,5.3-11.9,11.8c0,1.2,0.2,2.3,0.5,3.4h6.7C9.6,212.3,9.2,211.1,9.2,209.8z"/>
<path class="st1" d="M242.7,209.8c0-3.2,2.6-5.8,5.8-5.8c3.2,0,5.8,2.6,5.8,5.8c0,1.3-0.4,2.5-1.1,3.4h6.5c0.3-1.1,0.5-2.2,0.5-3.4
	c0.1-3.1-1.1-6.1-3.4-8.3c-4.6-4.7-12.1-4.8-16.8-0.2c-3.3,3.2-4.3,7.8-3.1,11.9h6.9C243.1,212.3,242.7,211.1,242.7,209.8z"/>
<path class="st2" d="M325.4,0H12.7C5.7,0,0,5.7,0,12.7v195.6c0,7,5.7,12.7,12.7,12.7h312.7c7,0,12.7-5.7,12.7-12.7V12.7
	C338.1,5.7,332.4,0,325.4,0z M248.4,8.3c3.2,0,5.8,2.6,5.8,5.8c0,0,0,0,0,0l0,0c0,3.2-2.6,5.8-5.8,5.8l0,0l0,0
	c-3.2,0-5.8-2.6-5.8-5.8S245.2,8.3,248.4,8.3C248.4,8.3,248.4,8.3,248.4,8.3z M242.6,205.9c0-3.2,2.6-5.8,5.8-5.8s5.8,2.6,5.8,5.8
	l0,0c0,3.2-2.6,5.8-5.8,5.8l0,0l0,0C245.2,211.7,242.6,209.1,242.6,205.9L242.6,205.9z M9.2,205.9c0-3.2,2.6-5.8,5.8-5.8
	s5.8,2.6,5.8,5.8c0,0,0,0,0,0l0,0c0,3.2-2.6,5.8-5.8,5.8c0,0,0,0,0,0l0,0C11.8,211.7,9.2,209.1,9.2,205.9L9.2,205.9L9.2,205.9z
	 M15,8.3c3.2,0,5.8,2.6,5.8,5.8l0,0c0,3.2-2.6,5.8-5.8,5.8l0,0c-3.2,0-5.8-2.6-5.8-5.8C9.2,10.9,11.8,8.3,15,8.3z"/>
<path class="st3" d="M15,2.3L15,2.3C8.5,2.3,3.2,7.7,3.2,14.2C3.2,20.7,8.6,26,15.1,26c6.5,0,11.8-5.3,11.8-11.8
	c0-6.5-5.2-11.9-11.8-11.9C15.1,2.3,15,2.3,15,2.3z M20.8,14.1c0,3.2-2.6,5.8-5.8,5.8l0,0c-3.2,0-5.8-2.6-5.8-5.8s2.6-5.8,5.8-5.8
	S20.8,10.9,20.8,14.1C20.8,14.1,20.8,14.1,20.8,14.1z"/>
<path class="st3" d="M256.8,5.8c-2.2-2.3-5.2-3.5-8.4-3.5c-6.5,0-11.8,5.3-11.9,11.8c0.1,6.6,5.4,11.9,12,11.9
	c6.5,0,11.8-5.3,11.8-11.8C260.3,11,259.1,8,256.8,5.8z M254.3,14.1c0,3.2-2.6,5.8-5.8,5.8l0,0l0,0c-3.2,0-5.8-2.6-5.8-5.8
	s2.6-5.8,5.8-5.8c0,0,0,0,0,0C251.7,8.3,254.3,10.9,254.3,14.1z"/>
<path class="st3" d="M15,194c-6.5,0-11.9,5.3-11.9,11.8c0,6.5,5.3,11.9,11.8,11.9c6.5,0,11.9-5.3,11.9-11.8c0,0,0-0.1,0-0.1
	C26.8,199.3,21.5,194,15,194z M20.8,205.8c0,3.2-2.6,5.8-5.8,5.8c0,0,0,0,0,0l0,0c-3.2,0-5.8-2.6-5.8-5.8s2.6-5.8,5.8-5.8
	S20.8,202.6,20.8,205.8z"/>
<path class="st3" d="M256.8,197.5c-4.6-4.7-12.1-4.8-16.8-0.2s-4.8,12.1-0.2,16.8c4.6,4.7,12.1,4.8,16.8,0.2
	c2.3-2.2,3.6-5.3,3.6-8.5C260.3,202.7,259.1,199.7,256.8,197.5z M254.3,205.8c0,3.2-2.6,5.8-5.8,5.8l0,0l0,0c-3.2,0-5.8-2.6-5.8-5.8
	s2.6-5.8,5.8-5.8C251.7,200,254.3,202.6,254.3,205.8z"/>
<path class="st4" d="M285.3,9h70.4c1.7,0,3,1.3,3,3v51.5c0,1.7-1.3,3-3,3h-70.4c-1.7,0-3-1.3-3-3V12C282.3,10.3,283.6,9,285.3,9z"/>
<path class="st5" d="M285.3,5h70.4c1.7,0,3,1.3,3,3v51.5c0,1.7-1.3,3-3,3h-70.4c-1.7,0-3-1.3-3-3V8C282.3,6.3,283.6,5,285.3,5z"/>
<polygon class="st6" points="352.9,17.3 352.9,24.4 327,28.4 327,25.2 350,22.1 350,19.6 327,16.4 327,13.2 "/>
<polygon class="st6" points="352.9,43 352.9,50.1 327,54.2 327,51 350,47.8 350,45.3 327,42.2 327,39 "/>
<path class="st4" d="M285,79.2h70.4c1.7,0,3,1.3,3,3v51.5c0,1.7-1.3,3-3,3H285c-1.7,0-3-1.3-3-3V82.2C282,80.5,283.3,79.2,285,79.2z
	"/>
<path class="st5" d="M285,75.2h70.4c1.7,0,3,1.3,3,3v51.5c0,1.7-1.3,3-3,3H285c-1.7,0-3-1.3-3-3V78.2C282,76.5,283.3,75.2,285,75.2z
	"/>
<polygon class="st6" points="352.9,89.5 352.9,96.6 327,100.7 327,97.5 350,94.3 350,91.8 327,88.7 327,85.5 "/>
<polygon class="st6" points="352.9,115.3 352.9,122.4 327,126.4 327,123.2 350,120.1 350,117.6 327,114.4 327,111.2 "/>
<path class="st4" d="M268.7,149.5h87c0.5,0,1,0.4,1,0.9c0,0,0,0.1,0,0.1v64.4c0,0.5-0.4,1-0.9,1c0,0-0.1,0-0.1,0h-87
	c-0.5,0-1-0.4-1-0.9c0,0,0-0.1,0-0.1v-64.4C267.7,149.9,268.1,149.5,268.7,149.5z"/>
<path class="st5" d="M268.7,145.5h87c0.5,0,1,0.4,1,0.9c0,0,0,0.1,0,0.1v64.4c0,0.5-0.4,1-0.9,1c0,0-0.1,0-0.1,0h-87
	c-0.5,0-1-0.4-1-0.9c0,0,0-0.1,0-0.1v-64.4C267.7,145.9,268.1,145.5,268.7,145.5z"/>
<path class="st7" d="M79,70.8h54.8c1.1,0,2,0.9,2,2v54.8c0,1.1-0.9,2-2,2H79c-1.1,0-2-0.9-2-2V72.8C77,71.7,77.9,70.8,79,70.8z"/>
<path class="st8" d="M79,66.8h54.8c1.1,0,2,0.9,2,2v54.8c0,1.1-0.9,2-2,2H79c-1.1,0-2-0.9-2-2V68.8C77,67.7,77.9,66.8,79,66.8z"/>
<path class="st7" d="M223.5,73.5h33.3c0.5,0,1,0.4,1,0.9c0,0,0,0.1,0,0.1v33.2c0,0.5-0.4,1-0.9,1c0,0-0.1,0-0.1,0h-33.3
	c-0.5,0-1-0.4-1-0.9c0,0,0-0.1,0-0.1V74.5C222.5,73.9,222.9,73.5,223.5,73.5z"/>
<path class="st8" d="M223.5,69.5h33.3c0.5,0,1,0.4,1,0.9c0,0,0,0.1,0,0.1v33.2c0,0.5-0.4,1-0.9,1c0,0-0.1,0-0.1,0h-33.3
	c-0.5,0-1-0.4-1-0.9c0,0,0-0.1,0-0.1V70.5C222.5,69.9,222.9,69.5,223.5,69.5z"/>
<path class="st4" d="M156.6,188.2v41.1c0,1.7-1.3,3-3,3H98.9c-1.7,0-3-1.3-3-3v-41.1c0-1.7,1.3-3,3-3h54.6c1.7-0.1,3,1.2,3.1,2.9
	C156.6,188.1,156.6,188.2,156.6,188.2z"/>
<path class="st5" d="M156.6,184.2v41.1c0,1.7-1.3,3-3,3H98.9c-1.7,0-3-1.3-3-3v-41.1c0-1.7,1.3-3,3-3h54.6c1.7-0.1,3,1.2,3.1,2.9
	C156.6,184.1,156.6,184.2,156.6,184.2z"/>
<polygon class="st6" points="110.5,200.5 110.5,218.7 101,218.7 101,200.5 104.1,200.5 104.1,215.4 107.5,215.4 107.5,200.5 "/>
<polygon class="st6" points="151.5,200.5 151.5,218.7 142,218.7 142,200.5 145,200.5 145,215.4 148.4,215.4 148.4,200.5 "/>
<path class="st4" d="M61.6,208.9v19.8c0,0.7-0.5,1.2-1.2,1.2H33c-0.7,0-1.2-0.5-1.2-1.2v-19.8c0-0.7,0.5-1.2,1.2-1.2h27.4
	C61,207.8,61.5,208.3,61.6,208.9z"/>
<path class="st5" d="M61.6,204.9v19.8c0,0.7-0.5,1.2-1.2,1.2H33c-0.7,0-1.2-0.5-1.2-1.2v-19.8c0-0.7,0.5-1.2,1.2-1.2h27.4
	C61,203.8,61.5,204.3,61.6,204.9z"/>
<rect x="54.6" y="213.8" class="st6" width="3.6" height="6.8"/>
<rect x="35.2" y="213.8" class="st6" width="3.6" height="6.8"/>
<path class="st9" d="M32.8,7.7h198c1.1,0,2,0.9,2,2v17c0,1.1-0.9,2-2,2h-198c-1.1,0-2-0.9-2-2v-17c0-1.1,0.8-2,1.9-2
	C32.7,7.7,32.8,7.7,32.8,7.7z"/>
<path class="st10" d="M32.8,3.7h198c1.1,0,2,0.9,2,2v17c0,1.1-0.9,2-2,2h-198c-1.1,0-2-0.9-2-2v-17c0-1.1,0.8-2,1.9-2
	C32.7,3.7,32.8,3.7,32.8,3.7z"/>
<rect x="34.5" y="16.9" class="st5" width="4.5" height="4.5"/>
<rect x="44.5" y="16.9" class="st5" width="4.5" height="4.5"/>
<rect x="54.5" y="16.9" class="st5" width="4.5" height="4.5"/>
<rect x="64.5" y="16.9" class="st5" width="4.5" height="4.5"/>
<rect x="94.5" y="16.9" class="st5" width="4.5" height="4.5"/>
<rect x="74.5" y="16.9" class="st5" width="4.5" height="4.5"/>
<rect x="104.5" y="16.9" class="st5" width="4.5" height="4.5"/>
<rect x="114.5" y="16.9" class="st5" width="4.5" height="4.5"/>
<rect x="124.5" y="16.9" class="st5" width="4.5" height="4.5"/>
<rect x="134.5" y="16.9" class="st5" width="4.5" height="4.5"/>
<rect x="144.5" y="16.9" class="st5" width="4.5" height="4.5"/>
<rect x="164.5" y="16.9" class="st5" width="4.5" height="4.5"/>
<rect x="154.5" y="16.9" class="st5" width="4.5" height="4.5"/>
<rect x="174.5" y="16.9" class="st5" width="4.5" height="4.5"/>
<rect x="224.5" y="16.9" class="st5" width="4.5" height="4.5"/>
<rect x="214.5" y="16.9" class="st5" width="4.5" height="4.5"/>
<rect x="204.5" y="16.9" class="st5" width="4.5" height="4.5"/>
<rect x="194.5" y="16.9" class="st5" width="4.5" height="4.5"/>
<rect x="184.5" y="16.9" class="st5" width="4.5" height="4.5"/>
<rect x="84.5" y="16.9" class="st5" width="4.5" height="4.5"/>
<rect x="34.5" y="6.9" class="st5" width="4.5" height="4.5"/>
<rect x="44.5" y="6.9" class="st5" width="4.5" height="4.5"/>
<rect x="54.5" y="6.9" class="st5" width="4.5" height="4.5"/>
<rect x="64.5" y="6.9" class="st5" width="4.5" height="4.5"/>
<rect x="94.5" y="6.9" class="st5" width="4.5" height="4.5"/>
<rect x="74.5" y="6.9" class="st5" width="4.5" height="4.5"/>
<rect x="104.5" y="6.9" class="st5" width="4.5" height="4.5"/>
<rect x="114.5" y="6.9" class="st5" width="4.5" height="4.5"/>
<rect x="124.5" y="6.9" class="st5" width="4.5" height="4.5"/>
<rect x="134.5" y="6.9" class="st5" width="4.5" height="4.5"/>
<rect x="144.5" y="6.9" class="st5" width="4.5" height="4.5"/>
<rect x="164.5" y="6.9" class="st5" width="4.5" height="4.5"/>
<rect x="154.5" y="6.9" class="st5" width="4.5" height="4.5"/>
<rect x="174.5" y="6.9" class="st5" width="4.5" height="4.5"/>
<rect x="224.5" y="6.9" class="st5" width="4.5" height="4.5"/>
<rect x="214.5" y="6.9" class="st5" width="4.5" height="4.5"/>
<rect x="204.5" y="6.9" class="st5" width="4.5" height="4.5"/>
<rect x="194.5" y="6.9" class="st5" width="4.5" height="4.5"/>
<rect x="184.5" y="6.9" class="st5" width="4.5" height="4.5"/>
<rect x="84.5" y="6.9" class="st5" width="4.5" height="4.5"/>
<polygon class="st9" points="226.7,176.3 226.7,227.6 224,227.6 224,236.3 200.2,236.3 200.2,227.6 197.5,227.6 197.5,176.3 "/>
<polygon class="st10" points="226.7,172.3 226.7,223.6 224,223.6 224,232.3 200.2,232.3 200.2,223.6 197.5,223.6 197.5,172.3 "/>
<polygon class="st11" points="226.7,207.1 226.7,221 197.5,221 197.5,207.1 204.3,207.1 208.5,185.1 215.7,185.1 219.9,207.1 "/>
<polygon class="st12" points="3.2,137.1 3.2,91.9 6.9,88.5 6.9,69.6 19.5,69.6 19.5,160.7 6.9,160.7 6.9,140.5 "/>
<polygon class="st13" points="3.2,133.1 3.2,87.9 6.9,84.5 6.9,65.6 19.5,65.6 19.5,156.7 6.9,156.7 6.9,136.5 "/>
<rect x="13.7" y="77.9" class="st14" width="5.8" height="65.7"/>
<rect x="16.4" y="138.2" class="st5" width="6.1" height="2.4"/>
<rect x="16.4" y="134.2" class="st5" width="6.1" height="2.4"/>
<rect x="16.4" y="130.1" class="st5" width="6.1" height="2.4"/>
<rect x="16.4" y="126.1" class="st5" width="6.1" height="2.4"/>
<rect x="16.4" y="122.1" class="st5" width="6.1" height="2.4"/>
<rect x="16.4" y="118" class="st5" width="6.1" height="2.4"/>
<rect x="16.4" y="114" class="st5" width="6.1" height="2.4"/>
<rect x="16.4" y="110" class="st5" width="6.1" height="2.4"/>
<rect x="16.4" y="105.9" class="st5" width="6.1" height="2.4"/>
<rect x="16.4" y="101.9" class="st5" width="6.1" height="2.4"/>
<rect x="16.4" y="97.9" class="st5" width="6.1" height="2.4"/>
<rect x="16.4" y="93.8" class="st5" width="6.1" height="2.4"/>
<rect x="16.4" y="89.8" class="st5" width="6.1" height="2.4"/>
<rect x="16.4" y="85.8" class="st5" width="6.1" height="2.4"/>
<rect x="16.4" y="81.7" class="st5" width="6.1" height="2.4"/>
<polygon class="st12" points="189.6,153.6 189.6,198.7 185.9,202.2 185.9,221 173.3,221 173.3,130 185.9,130 185.9,150.1 "/>
<polygon class="st13" points="189.6,149.6 189.6,194.7 185.9,198.2 185.9,217 173.3,217 173.3,126 185.9,126 185.9,146.1 "/>
<rect x="173.3" y="139" class="st14" width="5.8" height="65.7"/>
<rect x="170.3" y="142.1" class="st5" width="6.1" height="2.4"/>
<rect x="170.3" y="146.1" class="st5" width="6.1" height="2.4"/>
<rect x="170.3" y="150.1" class="st5" width="6.1" height="2.4"/>
<rect x="170.3" y="154.2" class="st5" width="6.1" height="2.4"/>
<rect x="170.3" y="158.2" class="st5" width="6.1" height="2.4"/>
<rect x="170.3" y="162.2" class="st5" width="6.1" height="2.4"/>
<rect x="170.3" y="166.3" class="st5" width="6.1" height="2.4"/>
<rect x="170.3" y="170.3" class="st5" width="6.1" height="2.4"/>
<rect x="170.3" y="174.4" class="st5" width="6.1" height="2.4"/>
<rect x="170.3" y="178.4" class="st5" width="6.1" height="2.4"/>
<rect x="170.3" y="182.4" class="st5" width="6.1" height="2.4"/>
<rect x="170.3" y="186.4" class="st5" width="6.1" height="2.4"/>
<rect x="170.3" y="190.5" class="st5" width="6.1" height="2.4"/>
<rect x="170.3" y="194.5" class="st5" width="6.1" height="2.4"/>
<rect x="170.3" y="198.6" class="st5" width="6.1" height="2.4"/>
</svg>
