<svg xmlns="http://www.w3.org/2000/svg" viewBox="0 0 176.25 176.25"><defs><style>.cls-1{fill:#fdfdfd;}.cls-2{fill:#ededed;}.cls-3{fill:#cee4fc;}.cls-4{fill:#010101;}.cls-5{fill:#454545;}.cls-6{fill:#444;}.cls-7{fill:#464646;}.cls-8{fill:#474747;}.cls-9{fill:#494949;}.cls-10{fill:#4e4e4e;}.cls-11{fill:#4d4d4d;}.cls-12{fill:#4c4c4c;}.cls-13{fill:#020202;}.cls-14{fill:#060606;}.cls-15{fill:#8ac1fa;}.cls-16{fill:#6fa7e2;}.cls-17{fill:#8cc2fa;}.cls-18{fill:#86bffa;}.cls-19{fill:#030303;}.cls-20{fill:#fefefe;}.cls-21{fill:#fcfcfc;}.cls-22{fill:#fafafa;}.cls-23{fill:#fbfbfb;}.cls-24{fill:#f9f9f9;}.cls-25{fill:#ebebeb;}.cls-26{fill:#eaeaea;}.cls-27{fill:#e5e5e5;}.cls-28{fill:#e9e9e9;}.cls-29{fill:#040404;}.cls-30{fill:#dcdcdc;}.cls-31{fill:#f5f5f5;}.cls-32{fill:#050505;}.cls-33{fill:#080808;}</style></defs><g id="Layer_1-2" data-name="Layer 1"><path class="cls-1" d="M88.12,176.23q-43.87,0-87.73,0c-.32,0-.39-.18-.39-1Q0,88.12,0,1C0,.18.07,0,.39,0Q88.12,0,175.86,0c.32,0,.39.18.39,1q0,87.13,0,174.26c0,.81-.07,1-.39,1Q132,176.22,88.12,176.23Z"/><path class="cls-2" d="M111.19,41.41h8.56c.32,0,.43.07.43.41,0,1.59,0,3.18,0,4.77,0,.28-.05.4-.37.4H102.54c-.31,0-.38-.11-.37-.39q0-2.4,0-4.8c0-.31.1-.38.39-.38Z"/><path class="cls-3" d="M88.12,64.17H21.53a1.39,1.39,0,0,1-.95-.26,1.25,1.25,0,0,1-.42-1q0-5.09,0-10.19a1.2,1.2,0,0,1,1.33-1.31H154.74c.92,0,1.34.43,1.34,1.36,0,3.34,0,6.67,0,10a1.3,1.3,0,0,1-1.42,1.44Q121.39,64.16,88.12,64.17Z"/><path class="cls-2" d="M80.21,47c-2.44,0-4.89,0-7.33,0-.34,0-.42-.1-.42-.43q0-2.38,0-4.77c0-.3.08-.39.38-.39q7.35,0,14.7,0c.33,0,.4.1.4.41q0,2.38,0,4.77c0,.32-.08.41-.4.4C85.1,47,82.66,47,80.21,47Z"/><path class="cls-2" d="M93.29,40.47c-1.59,0-3.18,0-4.77,0-.3,0-.38-.09-.38-.39q0-2.42,0-4.84c0-.26.07-.35.34-.35h9.6c.26,0,.33.08.33.33,0,1.64,0,3.27,0,4.91,0,.29-.11.33-.36.33Z"/><path class="cls-2" d="M120.77,34.9h3.5c.26,0,.38,0,.38.35,0,1.62,0,3.25,0,4.87,0,.27-.07.35-.34.35h-7.07c-.26,0-.32-.09-.32-.33,0-1.64,0-3.27,0-4.91,0-.29.11-.33.36-.33Z"/><path class="cls-2" d="M68.6,34.9h3.5c.26,0,.38,0,.38.35,0,1.62,0,3.25,0,4.87,0,.27-.07.35-.34.35h-7c-.25,0-.36,0-.36-.33q0-2.45,0-4.91c0-.29.12-.33.36-.33Z"/><path d="M97.1,19.7a3.66,3.66,0,0,0,0,.58,1,1,0,0,1-.63,1.05,2.66,2.66,0,0,1-4.07-2,5.15,5.15,0,0,1,.17-2.39A2.23,2.23,0,0,1,95,15.38a2,2,0,0,1,2,1.5c0,.12.19.35,0,.37s-.57.22-.72-.16a1.34,1.34,0,0,0-1.44-1,1.42,1.42,0,0,0-1.46,1.11,4.66,4.66,0,0,0,0,2.6A1.8,1.8,0,0,0,96,20.8a.47.47,0,0,0,.3-.48c0-.36.11-.83-.07-1s-.68-.08-1-.07-.35-.06-.34-.34,0-.36.33-.35c.53,0,1.06,0,1.59,0,.29,0,.35.09.33.35S97.1,19.42,97.1,19.7Z"/><path d="M79.57,21.16c-.17.12.08.47-.32.45s-.49,0-.49-.49c0-1.9,0-3.8,0-5.7,0-.4.22-.29.43-.31s.39,0,.38.32c0,.67,0,1.34,0,2.07a1.88,1.88,0,0,1,1-.53,1.59,1.59,0,0,1,1.82,1,3.32,3.32,0,0,1,0,2.73,1.66,1.66,0,0,1-2.64.54Z"/><path d="M63.28,17.55A1.8,1.8,0,0,1,64.81,17,1.23,1.23,0,0,1,66,18.14c.12,1.09,0,2.19.05,3.28,0,.15-.06.19-.19.18a1.51,1.51,0,0,0-.32,0c-.24,0-.28-.07-.27-.28,0-.89,0-1.78,0-2.67,0-.6-.2-.92-.62-1a1.24,1.24,0,0,0-1.36.59.74.74,0,0,0,0,.35c0,.9,0,1.81,0,2.71,0,.37-.19.31-.4.31s-.41.07-.4-.3q0-2.94,0-5.88c0-.4.22-.3.43-.31s.39,0,.38.33C63.26,16.11,63.28,16.79,63.28,17.55Z"/><path d="M117.69,21.15a1.86,1.86,0,0,1-1.8.46,1.34,1.34,0,0,1-.27-2.51,3.42,3.42,0,0,1,1.65-.27c.45,0,.47,0,.42-.46a.81.81,0,0,0-.73-.77,1.06,1.06,0,0,0-1.18.5.77.77,0,0,1-.77.17c-.08-.07,0-.16,0-.23a1.52,1.52,0,0,1,.94-.93,2.27,2.27,0,0,1,1.2-.13,1.48,1.48,0,0,1,1.34,1.63c0,.67,0,1.35,0,2,0,.18,0,.36,0,.54s.26.35,0,.43-.67,0-.76-.31Z"/><path d="M76.76,21.16a2.2,2.2,0,0,1-1,.49,1.4,1.4,0,1,1-.65-2.72,4.62,4.62,0,0,1,1.36-.1c.2,0,.27,0,.27-.26,0-.55-.17-.84-.62-1a1,1,0,0,0-1.28.52.78.78,0,0,1-.73.14c-.17-.14,0-.31,0-.45a2,2,0,0,1,3.07-.33,1.64,1.64,0,0,1,.33,1.11c0,.66,0,1.32,0,2a4.27,4.27,0,0,1,0,.54c0,.16.28.38,0,.47s-.66,0-.75-.36A.38.38,0,0,0,76.76,21.16Z"/><path d="M100.42,19.53c-.42,0-.84,0-1.26,0-.22,0-.27.07-.23.27a1.35,1.35,0,0,0,.9,1.16,1.31,1.31,0,0,0,1.43-.33c.19-.19.29-.14.47,0s.18.25,0,.42a2.16,2.16,0,0,1-3.07,0,2.82,2.82,0,0,1,.13-3.55,1.85,1.85,0,0,1,2-.42,1.76,1.76,0,0,1,1.14,1.58c.13.89.12.89-.77.89Z"/><path d="M109.79,19.53c-.45,0-.89,0-1.34,0-.18,0-.23,0-.2.22a1.39,1.39,0,0,0,.9,1.2,1.3,1.3,0,0,0,1.46-.34c.26-.28.36,0,.52.07s0,.26,0,.37a2.1,2.1,0,0,1-3.47-.74,2.9,2.9,0,0,1,.21-2.37,1.89,1.89,0,0,1,2.11-.95,1.77,1.77,0,0,1,1.36,1.59c.14,1,.14,1-.8,1Z"/><path d="M87.84,19.53H86.51c-.18,0-.23,0-.2.23a1.37,1.37,0,0,0,.9,1.2,1.3,1.3,0,0,0,1.45-.34c.26-.28.36,0,.52.07s0,.27-.05.36A2,2,0,0,1,87,21.6a1.84,1.84,0,0,1-1.42-1.43,2.9,2.9,0,0,1,.29-2.33A1.89,1.89,0,0,1,88,17a1.74,1.74,0,0,1,1.34,1.51c.18,1,.18,1-.82,1Z"/><path d="M122.23,19.36a2.17,2.17,0,0,1,1.7-2.38,2.05,2.05,0,0,1,2.44,2,3.17,3.17,0,0,1-.07,1.14,2,2,0,0,1-2.09,1.57,2,2,0,0,1-1.93-1.85C122.24,19.66,122.24,19.49,122.23,19.36Z"/><path d="M103.7,17.56a1.71,1.71,0,0,1,1.47-.6,1.22,1.22,0,0,1,1.27,1.22c0,1.08,0,2.16,0,3.25,0,.14,0,.18-.19.19-.58,0-.58,0-.58-.54q0-1.21,0-2.42c0-.72-.27-1-.91-1a1,1,0,0,0-1.12,1.07c0,.87,0,1.73,0,2.6,0,.26-.08.32-.32.31-.46,0-.46,0-.46-.48,0-1.24,0-2.48,0-3.72,0-.16-.12-.42.23-.39s.59-.08.52.38C103.64,17.43,103.67,17.47,103.7,17.56Z"/><path class="cls-4" d="M49.54,18.86c0,.82,0,1.64,0,2.46,0,.24-.07.32-.3.29a.82.82,0,0,0-.25,0c-.24,0-.27-.08-.27-.29,0-1.16,0-2.31,0-3.47,0-.48,0-1,0-1.44,0-.22,0-.29-.28-.28-.48,0-1,0-1.44,0-.3,0-.27-.15-.26-.33s-.06-.35.24-.35q2.13,0,4.26,0c.31,0,.25.17.25.34s.05.36-.25.34c-.48,0-1,0-1.44,0-.23,0-.28.06-.28.28C49.54,17.22,49.54,18,49.54,18.86Z"/><path d="M57.74,21.17a2,2,0,0,1-1.29.51,1.37,1.37,0,0,1-1.54-1.4c0-1,0-2,0-3,0-.19.09-.21.24-.21.53,0,.52,0,.53.49,0,.91-.06,1.83,0,2.74a.75.75,0,0,0,.88.74c.73-.06,1.12-.38,1.13-.92,0-.9,0-1.81,0-2.71,0-.33.12-.37.39-.36s.41,0,.41.34c0,1.28,0,2.55,0,3.83,0,.15.13.43-.22.4S57.66,21.74,57.74,21.17Z"/><path d="M71,18.87c0-.81,0-1.61,0-2.42,0-.28-.08-.34-.34-.33-.47,0-.94,0-1.41,0-.3,0-.22-.18-.22-.33s-.1-.35.2-.34h4.33c.33,0,.18.24.21.38s0,.3-.22.29c-.48,0-1,0-1.44,0-.25,0-.32.06-.32.32,0,1.61,0,3.23,0,4.84,0,.41-.22.32-.45.33s-.4,0-.38-.32C71,20.48,71,19.67,71,18.87Z"/><path class="cls-4" d="M121.59,21c.05.65.17.67-.6.69a.91.91,0,0,1-1-.9c-.09-.8,0-1.61,0-2.42,0-.07,0-.14,0-.22,0-.51,0-.53-.5-.5-.29,0-.33-.09-.33-.35s.09-.27.29-.27c.54,0,.54,0,.54-.55v-.11c0-.41.29-.6.69-.45a.12.12,0,0,1,.09.13c0,.08,0,.17,0,.25,0,.68,0,.69.66.72.31,0,.17.22.2.36s0,.25-.22.26c-.63,0-.63,0-.63.67s0,1.28,0,1.91S120.88,21.07,121.59,21Z"/><path d="M61.59,21c0,.68,0,.74-.66.7a.93.93,0,0,1-1-1c0-.91,0-1.83,0-2.74,0-.27-.07-.38-.34-.33-.08,0-.17,0-.25,0-.25,0-.27-.09-.26-.29s0-.32.24-.32c.6,0,.6,0,.6-.63,0-.46.21-.61.65-.48a.13.13,0,0,1,.11.15c0,.1,0,.19,0,.29,0,.64,0,.65.64.67.26,0,.21.16.21.3s.06.3-.21.31c-.64,0-.64,0-.64.7s0,1.28,0,1.91S60.89,21.08,61.59,21Z"/><path class="cls-4" d="M84.47,18.36c0,1,0,1.95,0,2.92,0,.24,0,.34-.3.33-.49,0-.49,0-.49-.49,0-1.91,0-3.83,0-5.74,0-.24.07-.27.28-.27.51,0,.51,0,.51.51Q84.47,17,84.47,18.36Z"/><path class="cls-4" d="M52.77,17.53A1.27,1.27,0,0,1,53.93,17c.41,0,.23.33.27.53s-.12.23-.29.22a1.11,1.11,0,0,0-1,.4.81.81,0,0,0-.17.54c0,.89,0,1.78,0,2.67,0,.37-.21.28-.41.29s-.39,0-.39-.32c0-1.3,0-2.6,0-3.9,0-.27,0-.4.35-.37s.51,0,.42.35A.69.69,0,0,0,52.77,17.53Z"/><path class="cls-4" d="M113,17.51a1.31,1.31,0,0,1,1.13-.57c.41,0,.26.3.29.52s-.12.25-.3.25c-.82,0-1.14.34-1.14,1.16s0,1.64,0,2.45c0,.35-.19.28-.38.28s-.42.11-.42-.28c0-1.31,0-2.62,0-3.94,0-.24,0-.4.32-.36s.54-.08.47.35A.62.62,0,0,0,113,17.51Z"/><path d="M128.18,17.48a1.3,1.3,0,0,1,1-.53c.22,0,.41,0,.37.33s.08.46-.33.44c-.77,0-1.11.34-1.11,1.11s0,1.68,0,2.52c0,.34-.2.26-.37.25s-.41.12-.41-.25q0-2,0-4c0-.28.09-.35.35-.33s.49-.06.41.33C128.11,17.38,128.09,17.44,128.18,17.48Z"/><path class="cls-5" d="M56.69,38.32q0-1,0-1.9c0-.14,0-.28.2-.29s.24.12.24.29c0,.84,0,1.68,0,2.53,0,.1.08.27-.11.29s-.32,0-.44-.15c-.4-.64-.82-1.27-1.24-1.9a.29.29,0,0,0-.16-.13c0,.64,0,1.28,0,1.92,0,.12,0,.27-.18.28s-.27-.06-.26-.26c0-.84,0-1.68,0-2.53,0-.11-.09-.29.12-.32a.37.37,0,0,1,.43.16c.37.6.77,1.19,1.16,1.78l.18.26Z"/><path class="cls-5" d="M91.23,44.82c0-.63,0-1.27,0-1.9,0-.14,0-.29.2-.29s.24.11.24.29c0,.84,0,1.68,0,2.53,0,.1.08.27-.11.29s-.32,0-.44-.15c-.4-.64-.82-1.27-1.24-1.9a.3.3,0,0,0-.17-.13c0,.63,0,1.25,0,1.88,0,.1,0,.22-.07.3a.24.24,0,0,1-.37-.2c0-.89,0-1.78,0-2.67,0-.09,0-.21.12-.21s.31,0,.43.16c.35.57.73,1.13,1.1,1.69l.24.35Z"/><path class="cls-6" d="M62.73,43.56q0,1,0,1.91c0,.14,0,.28-.2.29s-.24-.12-.24-.29c0-.84,0-1.68,0-2.53,0-.1-.08-.27.1-.29s.32-.06.44.14c.4.64.82,1.27,1.24,1.9l.12.17a.65.65,0,0,0,0-.38c0-.51,0-1,0-1.52,0-.16-.05-.34.23-.33s.2.18.2.32c0,.83,0,1.66,0,2.49,0,.1.08.27-.09.3s-.32.05-.44-.14c-.37-.6-.77-1.19-1.16-1.78l-.2-.28Z"/><path class="cls-6" d="M56.81,43.55c0,.61,0,1.22,0,1.83,0,.15.11.38-.22.37s-.2-.24-.21-.39c0-.79,0-1.59,0-2.38,0-.11-.09-.29.09-.34a.4.4,0,0,1,.49.19c.37.61.78,1.21,1.17,1.81l.19.28c0-.73,0-1.36,0-2,0-.15,0-.31.22-.31s.22.16.22.31c0,.83,0,1.66,0,2.49,0,.11.1.29-.11.32a.37.37,0,0,1-.43-.17c-.43-.69-.89-1.37-1.33-2Z"/><path class="cls-6" d="M104.7,36.94c0,.75,0,1.38,0,2,0,.18,0,.29-.25.28s-.19-.16-.19-.29c0-.84,0-1.68,0-2.53,0-.1-.09-.27.1-.29s.32,0,.44.15c.39.62.8,1.23,1.2,1.84,0,.07.06.18.21.21,0-.65,0-1.3,0-1.94,0-.16,0-.27.22-.27s.22.11.22.27c0,.84,0,1.68,0,2.53,0,.11.1.29-.12.32a.38.38,0,0,1-.44-.16c-.4-.63-.81-1.25-1.22-1.87Z"/><path class="cls-6" d="M136.63,31.56c0-.31,0-.63,0-.94s.14-.26.24-.19.4,0,.59,0a.68.68,0,0,1,.65.08c.21.2.33.11.52,0a.76.76,0,0,1,1.21.71c0,.43,0,.87,0,1.3,0,.15,0,.25-.2.25s-.21-.11-.2-.25q0-.58,0-1.16c0-.4-.16-.61-.46-.61s-.53.25-.53.64,0,.75,0,1.12c0,.17,0,.26-.23.26s-.2-.1-.2-.25c0-.42,0-.84,0-1.26a.45.45,0,0,0-.48-.5.47.47,0,0,0-.48.51q0,.63,0,1.26c0,.16,0,.24-.22.24s-.2-.1-.2-.25C136.64,32.18,136.63,31.87,136.63,31.56Z"/><path class="cls-6" d="M83.57,39.2c-.33.1-.53,0-.65-.28s-.26-.49-.39-.73a.29.29,0,0,0-.27-.19c-.53,0-.53,0-.53.5,0,.17,0,.34,0,.51s0,.25-.2.25-.24-.08-.24-.26c0-.87,0-1.73,0-2.6,0-.21.06-.28.27-.26a8.49,8.49,0,0,1,1.15,0,.79.79,0,0,1,.69.64.85.85,0,0,1-.32,1c-.19.13-.18.22-.08.39C83.2,38.5,83.38,38.85,83.57,39.2Z"/><path class="cls-6" d="M97.59,45.7c-.33.1-.53,0-.65-.28a4.53,4.53,0,0,0-.34-.64c-.07-.13-.1-.28-.32-.29-.54,0-.54,0-.54.5,0,.17,0,.34,0,.51s0,.25-.2.25-.24-.07-.24-.25c0-.88,0-1.76,0-2.64,0-.11,0-.23.15-.22a7.38,7.38,0,0,1,1.29,0,.78.78,0,0,1,.66.63.85.85,0,0,1-.32,1c-.19.12-.19.21-.08.39C97.22,45,97.4,45.35,97.59,45.7Z"/><path class="cls-6" d="M65.39,44.16c0-.42,0-.84,0-1.26,0-.19,0-.29.25-.27a4.83,4.83,0,0,1,1.11.07,1.22,1.22,0,0,1,.69.54c.35.57.32,2-.44,2.32a3.31,3.31,0,0,1-1.48.17c-.18,0-.12-.15-.12-.24C65.39,45.05,65.39,44.61,65.39,44.16Z"/><path class="cls-6" d="M57.8,37.68c0-.43,0-.86,0-1.3,0-.21.06-.28.26-.26a5,5,0,0,1,1.07.06,1.2,1.2,0,0,1,.72.56A1.64,1.64,0,0,1,59,39.21a5.8,5.8,0,0,1-1,0c-.17,0-.14-.12-.14-.22C57.8,38.57,57.8,38.13,57.8,37.68Z"/><path class="cls-6" d="M80.71,37.7a2.26,2.26,0,0,1-.05.64,1.21,1.21,0,0,1-2.36,0,2.66,2.66,0,0,1,0-1.28,1.18,1.18,0,0,1,1.28-1,1.23,1.23,0,0,1,1.15,1.21C80.72,37.43,80.71,37.56,80.71,37.7Z"/><path class="cls-6" d="M94.75,44.19a4.43,4.43,0,0,1,0,.54,1.16,1.16,0,0,1-1.14,1,1.14,1.14,0,0,1-1.25-.95,2.52,2.52,0,0,1,0-1.28,1.16,1.16,0,0,1,1.29-1,1.21,1.21,0,0,1,1.11,1.17c0,.14,0,.29,0,.43Z"/><path class="cls-6" d="M109.71,37.68a4.44,4.44,0,0,1,0,.54,1.16,1.16,0,0,1-1.14,1,1.14,1.14,0,0,1-1.25-.95,2.52,2.52,0,0,1,0-1.28,1.17,1.17,0,0,1,1.29-1,1.21,1.21,0,0,1,1.11,1.16c0,.14,0,.29,0,.43Z"/><path class="cls-6" d="M129.14,32.61c-.63.26-1.07.18-1.33-.25a1.56,1.56,0,0,1,.22-1.83.82.82,0,0,1,.72-.14c.2,0,.38.2.61,0s.23,0,.23.2c0,.72,0,1.44,0,2.16a.76.76,0,0,1-.58.78,1.16,1.16,0,0,1-1.15-.21c-.11-.1-.07-.17,0-.27s.16-.07.25,0a.65.65,0,0,0,.76.13A.53.53,0,0,0,129.14,32.61Z"/><path class="cls-6" d="M73.49,32.62c-.64.26-1.07.18-1.33-.25a1.58,1.58,0,0,1,.19-1.8.81.81,0,0,1,.74-.17c.2,0,.38.2.61,0s.24,0,.23.19c0,.72,0,1.44,0,2.16a.76.76,0,0,1-.58.78,1.16,1.16,0,0,1-1.15-.21c-.11-.09-.08-.17,0-.27s.16-.08.25,0a.65.65,0,0,0,.76.13A.53.53,0,0,0,73.49,32.62Z"/><path class="cls-6" d="M121.71,31.94l.4-1.29c0-.13.07-.24.25-.24s.21.12.25.24a11.72,11.72,0,0,0,.47,1.33l.32-1.23c.09-.36.09-.36.5-.31-.21.7-.41,1.4-.61,2.1,0,.12-.07.18-.21.19s-.21-.06-.25-.2c-.14-.47-.3-.93-.48-1.48-.17.53-.32,1-.45,1.44,0,.14-.08.23-.26.23s-.19-.11-.22-.22l-.6-2.07c.3-.1.45,0,.51.29s.2.79.31,1.18Z"/><path class="cls-5" d="M32.63,32.71c-.31,0-.73.12-.9,0s-.06-.61-.07-.93c0-.63,0-1.25,0-1.88,0-.19,0-.25.24-.25.5,0,1,0,1.51,0,.12,0,.2,0,.2.17s-.06.2-.21.2H32.32c-.17,0-.22.05-.23.22,0,.73,0,.73.66.73h.5c.14,0,.19.05.19.19s-.08.17-.2.17h-.9c-.1,0-.24,0-.25.13s0,.55,0,.83.13.11.22.11h1c.12,0,.31-.09.31.17s-.2.18-.33.19-.46,0-.69,0Z"/><path class="cls-6" d="M59.18,45.71c.38-1,.76-2,1.13-3,0-.13.13-.12.22-.12s.2,0,.26.12c.37,1,.75,2,1.13,3-.35.11-.53,0-.58-.34a.46.46,0,0,0-.63-.43.59.59,0,0,1-.22,0c-.44-.08-.7.07-.77.53S59.45,45.77,59.18,45.71Z"/><path class="cls-6" d="M54.35,39.2c-.32.13-.51,0-.56-.29a.5.5,0,0,0-.67-.47.49.49,0,0,1-.18,0,.57.57,0,0,0-.77.53c0,.09-.06.22-.12.24a.47.47,0,0,1-.35,0c-.1-.05,0-.17,0-.25l1-2.62c0-.12.08-.22.24-.21s.23,0,.29.15C53.6,37.25,54,38.22,54.35,39.2Z"/><path class="cls-5" d="M83.72,32.61c0,.28,0,.54,0,.79s-.08.21-.24.22-.18-.1-.18-.23c0-.91,0-1.83,0-2.74,0-.26.21-.28.28-.2s.27,0,.41,0a.87.87,0,0,1,1.2.63,1.91,1.91,0,0,1,.06.71C85.13,32.67,84.6,33,83.72,32.61Z"/><path class="cls-6" d="M52.47,30.56l.39-.15a.79.79,0,0,1,.43,0,.82.82,0,0,1,.67.71,1.45,1.45,0,0,1-.31,1.48.88.88,0,0,1-1,.06s-.07-.08-.15,0c-.38.21-.4.2-.4-.23,0-.88,0-1.76,0-2.63,0-.15,0-.28.22-.27s.19.12.19.26S52.47,30.25,52.47,30.56Z"/><path class="cls-5" d="M142.17,31.71c0,.25,0,.5,0,.76,0,.09.13.2,0,.25s-.31.08-.37,0-.18-.07-.27,0a.82.82,0,0,1-1.17-.34.7.7,0,0,1,.54-1,2.65,2.65,0,0,1,.61-.06c.24,0,.26-.12.2-.3a.49.49,0,0,0-.81-.16,1.63,1.63,0,0,0-.1.14.3.3,0,0,1-.39,0c-.12-.07,0-.19,0-.28a1,1,0,0,1,1.09-.37.7.7,0,0,1,.6.77c0,.18,0,.36,0,.54Z"/><path class="cls-5" d="M64.54,31.72c0,.25,0,.51,0,.76s-.15.39-.32.24-.27-.06-.42,0a.93.93,0,0,1-1-.19.72.72,0,0,1,.43-1.16,3,3,0,0,1,.64-.06c.18,0,.2-.09.18-.23a.41.41,0,0,0-.29-.34.5.5,0,0,0-.51.09,1.06,1.06,0,0,0-.14.17.3.3,0,0,1-.39,0c-.11-.07,0-.2.05-.28a1,1,0,0,1,1.13-.36.71.71,0,0,1,.57.8c0,.17,0,.34,0,.51Z"/><path class="cls-5" d="M38.94,31.71c-.17,0-.34,0-.51,0s-.26.13-.18.31a.64.64,0,0,0,1,.24c.14-.1.25-.16.36,0s-.05.24-.14.31a1.12,1.12,0,0,1-1.1.13.91.91,0,0,1-.61-.79c-.12-.82.2-1.41.84-1.52a1,1,0,0,1,1.11,1.2c0,.14-.12.12-.22.13Z"/><path class="cls-5" d="M88.26,31.71c-.17,0-.34,0-.51,0-.32,0-.31.13-.2.34a.63.63,0,0,0,1,.21c.14-.1.25-.16.36,0s-.05.24-.14.31a1.12,1.12,0,0,1-1.1.13.91.91,0,0,1-.61-.79c-.12-.82.2-1.41.84-1.52A1,1,0,0,1,89,31.58c0,.11-.09.13-.18.13Z"/><path class="cls-5" d="M79.94,31.71H79.4c-.23,0-.23.1-.16.27a.64.64,0,0,0,1,.29c.15-.12.26-.18.38,0s-.07.23-.15.3a1.1,1.1,0,0,1-1,.16,1.2,1.2,0,0,1-.64-1.59,1,1,0,0,1,1.29-.71,1.09,1.09,0,0,1,.6,1.19c0,.11-.12.1-.2.1Z"/><path class="cls-5" d="M110.23,31.71h-.43c-.1,0-.24-.06-.3.05s0,.23.08.33a.61.61,0,0,0,1,.15c.14-.12.24-.13.35,0s0,.21-.11.28a1.16,1.16,0,0,1-1.37,0,1.38,1.38,0,0,1,.09-2,1,1,0,0,1,1.09,0,1.15,1.15,0,0,1,.39,1c0,.14-.09.15-.2.14Z"/><path class="cls-5" d="M61.54,31.71h-.43c-.1,0-.24-.05-.3,0s0,.23.09.33a.61.61,0,0,0,1,.16c.15-.12.24-.13.35,0s0,.22-.12.28a1.07,1.07,0,0,1-1.09.17,1,1,0,0,1-.66-.9c-.13-.87.46-1.57,1.21-1.41a1,1,0,0,1,.76,1.18c0,.13-.11.14-.21.14Z"/><path class="cls-5" d="M107.17,30.58a4.07,4.07,0,0,1,.39-.16.71.71,0,0,1,1,.7c0,.46,0,.91,0,1.37,0,.15,0,.25-.21.25s-.22-.08-.21-.24c0-.42,0-.84,0-1.26a.44.44,0,0,0-.43-.51.55.55,0,0,0-.55.5c0,.42,0,.84,0,1.26,0,.15,0,.24-.21.24s-.2-.11-.2-.25c0-.93,0-1.85,0-2.78,0-.15,0-.24.21-.24s.2.11.2.25S107.17,30.27,107.17,30.58Z"/><path class="cls-6" d="M134.69,31.59a1,1,0,0,1-1.3,1.15,1.19,1.19,0,0,1-.77-1.52,1,1,0,0,1,1.12-.85C134.36,30.44,134.69,30.87,134.69,31.59Z"/><path class="cls-6" d="M46.68,31.58c0,.85-.51,1.3-1.29,1.16a1.18,1.18,0,0,1-.78-1.52,1,1,0,0,1,1.12-.86C46.34,30.43,46.68,30.86,46.68,31.58Z"/><path class="cls-6" d="M69.5,31.58c0-.74.4-1.2,1-1.21s1.07.48,1.06,1.22a1,1,0,0,1-1.06,1.18C69.88,32.76,69.5,32.33,69.5,31.58Z"/><path class="cls-6" d="M56.85,31.57c0-.74.4-1.2,1-1.2S59,30.85,59,31.59a1,1,0,0,1-1.06,1.17C57.23,32.76,56.85,32.32,56.85,31.57Z"/><path class="cls-5" d="M54.38,31.56c0-.73.42-1.2,1.05-1.19s1.05.49,1,1.24a1,1,0,0,1-1.08,1.16C54.75,32.75,54.37,32.31,54.38,31.56Z"/><path class="cls-5" d="M118.47,31.56c0-.73.42-1.2,1-1.2s1.06.48,1,1.23a1,1,0,0,1-1.07,1.16C118.85,32.75,118.47,32.31,118.47,31.56Z"/><path class="cls-5" d="M96.94,31.56c0,.86-.53,1.33-1.32,1.18a.91.91,0,0,1-.3-.11,1.37,1.37,0,0,1,0-2.09,1,1,0,0,1,1.09,0A1.11,1.11,0,0,1,96.94,31.56Z"/><path class="cls-6" d="M116,31.6a1,1,0,0,1-1.47,1.09,1.29,1.29,0,0,1-.55-1.62,1,1,0,0,1,1.3-.65C115.75,30.55,116,30.95,116,31.6Z"/><path class="cls-5" d="M65.1,31.57c0-.3,0-.6,0-.9s.22-.33.32-.23.27,0,.4,0a.73.73,0,0,1,1.09.74c0,.44,0,.89,0,1.33,0,.16,0,.24-.21.23s-.22-.08-.22-.24c0-.43,0-.86,0-1.3a.41.41,0,0,0-.42-.47.52.52,0,0,0-.53.48c0,.43,0,.86,0,1.3,0,.16,0,.23-.22.24s-.22-.07-.21-.23C65.11,32.2,65.1,31.88,65.1,31.57Z"/><path class="cls-5" d="M97.4,31.54c0-.29,0-.58,0-.86s.2-.38.34-.23.22.06.34,0a.74.74,0,0,1,1.13.71c0,.44,0,.89,0,1.33,0,.15,0,.25-.21.24s-.23-.06-.22-.23c0-.42,0-.84,0-1.26s-.11-.49-.42-.52a.53.53,0,0,0-.54.54c0,.37,0,.74,0,1.12,0,.14.09.34-.2.35s-.21-.19-.22-.33S97.4,31.83,97.4,31.54Z"/><path class="cls-5" d="M42.41,30.45c.35-.11.51,0,.59.34s.26.79.42,1.27c.16-.49.31-.89.41-1.3s.23-.42.56-.3c-.33.92-.65,1.85-1,2.77a.63.63,0,0,1-.62.42c-.1,0-.22,0-.23-.16s0-.2.18-.23a.56.56,0,0,0,.41-.8Z"/><path class="cls-7" d="M49,31.57c0,.31,0,.63,0,.94s-.15.31-.25.21-.38,0-.56,0c-.65.11-1-.11-1-.76,0-.46,0-.91,0-1.37,0-.18.08-.19.22-.19s.21,0,.21.2q0,.63,0,1.26c0,.36.17.54.45.53a.5.5,0,0,0,.54-.54q0-.6,0-1.19c0-.16,0-.27.22-.27s.2.11.2.25C49,31,49,31.27,49,31.57Z"/><path class="cls-5" d="M92.43,32.77a.85.85,0,0,1-.77-.39c-.06-.1-.19-.26-.05-.34a.28.28,0,0,1,.42.12.55.55,0,0,0,.78.2.26.26,0,0,0,0-.48,2.44,2.44,0,0,0-.65-.21c-.3-.1-.56-.25-.54-.62a.67.67,0,0,1,.59-.63,1,1,0,0,1,1.06.35c.07.11.16.27,0,.35a.26.26,0,0,1-.39-.11.46.46,0,0,0-.68-.2.29.29,0,0,0-.18.25.25.25,0,0,0,.19.24c.16.06.32.1.48.15.52.15.72.37.67.75S93,32.78,92.43,32.77Z"/><path class="cls-5" d="M90.15,32.77a.83.83,0,0,1-.71-.38c-.07-.11-.17-.27-.06-.35a.28.28,0,0,1,.42.11.54.54,0,0,0,.75.21.3.3,0,0,0,.19-.24.26.26,0,0,0-.19-.28l-.65-.2c-.27-.1-.5-.24-.49-.58a.65.65,0,0,1,.52-.64,1,1,0,0,1,1.12.34c.06.11.17.26,0,.34A.27.27,0,0,1,90.7,31a.46.46,0,0,0-.64-.21.31.31,0,0,0-.22.26c0,.14.1.21.22.25l.45.13c.54.15.74.39.67.77S90.77,32.78,90.15,32.77Z"/><path class="cls-5" d="M101.9,31.56c0-.3,0-.6,0-.9s.27-.37.36-.21.16.1.27,0a.74.74,0,0,1,1.17.7c0,.41,0,.82,0,1.23,0,.13.09.32-.19.33s-.21-.17-.21-.31c0-.39,0-.77,0-1.16s-.17-.55-.44-.55a.55.55,0,0,0-.54.55c0,.41,0,.82,0,1.23,0,.16,0,.23-.22.23s-.22-.08-.21-.24C101.9,32.19,101.9,31.87,101.9,31.56Z"/><path class="cls-5" d="M125.34,31.56c0-.31,0-.63,0-.94,0-.08,0-.18.1-.19s.24-.05.26,0,.15.08.24,0c.66-.34,1.2,0,1.21.7,0,.42,0,.84,0,1.26,0,.14,0,.28-.2.29s-.21-.16-.21-.31c0-.4,0-.79,0-1.19a.44.44,0,0,0-.43-.52.55.55,0,0,0-.56.53c0,.41,0,.82,0,1.23,0,.14,0,.25-.2.25s-.21-.09-.21-.24C125.34,32.19,125.34,31.87,125.34,31.56Z"/><path class="cls-5" d="M34.07,31.58c0-.31,0-.63,0-.94s.28-.34.34-.2.21.07.3,0a.75.75,0,0,1,1.17.7c0,.44,0,.89,0,1.33,0,.16,0,.23-.22.24s-.2-.1-.2-.25c0-.42,0-.84,0-1.26a.43.43,0,0,0-.44-.5.55.55,0,0,0-.55.51c0,.41,0,.82,0,1.23,0,.15,0,.28-.21.27s-.19-.12-.19-.26C34.07,32.18,34.07,31.88,34.07,31.58Z"/><path class="cls-5" d="M82.94,32.7c-.71.21-.66-.5-1-.73-.34.23-.29.95-1,.73.21-.32.41-.63.62-.93a.31.31,0,0,0,0-.42c-.2-.28-.39-.58-.58-.88.38-.19.54,0,.69.31.24.43.25.43.51,0s.24-.39.71-.35c-.21.32-.39.62-.6.91a.31.31,0,0,0,0,.42C82.53,32.07,82.73,32.38,82.94,32.7Z"/><path class="cls-7" d="M111,37.86c0-.37,0-.75,0-1.12,0-.18,0-.27-.24-.25s-.38,0-.58,0-.19,0-.19-.18,0-.19.19-.19h2c.13,0,.19,0,.2.18s-.08.19-.22.19-.6-.12-.72.06,0,.51,0,.77c0,.54,0,1.08,0,1.62,0,.14,0,.28-.2.29s-.22-.15-.22-.3Q111,38.4,111,37.86Z"/><path class="cls-5" d="M75.44,31.62c0-.93.6-1.44,1.35-1.2a.81.81,0,0,1,.55.52c0,.09.12.23,0,.27s-.28.09-.36-.12a.49.49,0,0,0-.59-.35.6.6,0,0,0-.48.56,1.5,1.5,0,0,0,0,.71.57.57,0,0,0,.5.41.48.48,0,0,0,.51-.27.26.26,0,0,1,.41-.13c.14.09,0,.24-.07.34a1,1,0,0,1-1.67-.06A1.23,1.23,0,0,1,75.44,31.62Z"/><path class="cls-5" d="M131.38,31.71c0-.22,0-.43,0-.65s0-.35-.24-.32c-.11,0-.12-.08-.12-.17s0-.16.15-.15.21-.11.22-.26c.06-.54.36-.8.85-.75.12,0,.22,0,.21.18s0,.21-.19.19a.37.37,0,0,0-.39.2c-.14.25-.06.42.23.44.1,0,.22,0,.22.15s-.11.19-.23.17-.28.08-.27.29c0,.49,0,1,0,1.48,0,.16,0,.23-.22.23s-.22-.08-.21-.24S131.38,32,131.38,31.71Z"/><path class="cls-6" d="M112.69,31.72c0-.23,0-.46,0-.69s0-.32-.23-.3-.13-.07-.13-.17,0-.16.1-.15c.3,0,.25-.17.27-.34a.71.71,0,0,1,.84-.67c.13,0,.19.05.19.2s-.06.18-.2.17a.37.37,0,0,0-.42.31c-.05.21-.05.36.23.33.12,0,.24,0,.24.17s-.11.16-.22.15c-.26,0-.29.11-.28.32,0,.48,0,1,0,1.44,0,.16,0,.24-.22.23s-.2-.09-.19-.22S112.69,32,112.69,31.72Z"/><path class="cls-7" d="M106,32.77a.48.48,0,0,1-.53-.52c0-.41,0-.82,0-1.22,0-.18,0-.32-.24-.28s-.19,0-.19-.18.09-.15.19-.14c.27,0,.24-.15.24-.32s0-.25.19-.26.24.1.23.27,0,.35.28.31c.1,0,.15,0,.15.14s0,.2-.16.18-.29.11-.28.32,0,.67,0,1c0,.13,0,.29.17.31s.33,0,.28.23S106.12,32.71,106,32.77Z"/><path class="cls-5" d="M36.57,31.53c0-.14,0-.29,0-.43s0-.4-.28-.36c-.12,0-.12-.08-.13-.17s0-.17.15-.15.27-.11.26-.3,0-.27.22-.28.22.13.21.28,0,.34.26.3.18,0,.18.15,0,.18-.17.17S37,30.83,37,31s0,.67,0,1,0,.37.29.35.15,0,.15.13,0,.18-.11.22a.53.53,0,0,1-.73-.43,1,1,0,0,1,0-.18c0-.2,0-.41,0-.61Z"/><path class="cls-5" d="M142.9,31.59c0-.18,0-.36,0-.54s0-.34-.26-.31-.16-.06-.16-.18,0-.16.15-.14.28-.11.26-.3,0-.28.21-.28.2.13.19.26,0,.36.28.31.15.06.16.17-.07.16-.18.15-.26.08-.26.27,0,.67,0,1,0,.4.32.36c.12,0,.14.06.14.15s0,.16-.1.2a.53.53,0,0,1-.75-.43c0-.24,0-.48,0-.72Z"/><path class="cls-8" d="M68.58,31.11c0-.46,0-.91,0-1.37,0-.15,0-.28.21-.28s.22.1.22.27c0,.91,0,1.82,0,2.74,0,.14,0,.28-.2.28s-.23-.14-.22-.3C68.58,32,68.58,31.55,68.58,31.11Z"/><path class="cls-8" d="M116.92,31.07c0,.47,0,.94,0,1.4,0,.16,0,.27-.22.27s-.21-.09-.21-.24c0-.94,0-1.87,0-2.81,0-.17.05-.23.22-.23s.21.09.21.24C116.91,30.16,116.92,30.62,116.92,31.07Z"/><path class="cls-7" d="M117.56,31.11c0-.47,0-.94,0-1.4,0-.15,0-.24.21-.24s.23.05.23.23c0,.94,0,1.87,0,2.81,0,.16,0,.24-.21.24s-.22-.11-.22-.26C117.57,32,117.56,31.57,117.56,31.11Z"/><path class="cls-9" d="M59.46,31.11c0-.47,0-.94,0-1.41,0-.15,0-.24.21-.24s.22.09.22.24q0,1.39,0,2.78c0,.17,0,.26-.24.26s-.18-.14-.18-.26Q59.45,31.8,59.46,31.11Z"/><path class="cls-6" d="M85.74,31.58c0-.31,0-.62,0-.94s.08-.3.22-.21.41,0,.61-.05.3,0,.29.19,0,.21-.18.22c-.43,0-.53.16-.53.6s0,.74,0,1.12c0,.16,0,.24-.22.23s-.19-.09-.19-.22C85.74,32.21,85.74,31.89,85.74,31.58Z"/><path class="cls-6" d="M135.17,31.56c0-.31,0-.63,0-.94s.14-.27.24-.19.37,0,.54,0,.3-.11.34.13,0,.27-.24.28-.48.21-.47.55,0,.77,0,1.15c0,.14,0,.25-.2.25s-.21-.1-.21-.25C135.17,32.18,135.17,31.87,135.17,31.56Z"/><path class="cls-6" d="M49.54,31.58c0-.31,0-.62,0-.94s.08-.3.22-.21.41,0,.61-.05.3,0,.29.19,0,.21-.18.22c-.43,0-.53.16-.53.6s0,.74,0,1.12c0,.16,0,.24-.22.23s-.19-.09-.19-.22C49.54,32.21,49.54,31.89,49.54,31.58Z"/><path class="cls-6" d="M40.14,31.54c0-.3,0-.6,0-.9s.08-.3.22-.21.41,0,.61-.05.3,0,.29.19,0,.21-.18.22c-.43,0-.53.16-.53.6s0,.74,0,1.12c0,.16,0,.24-.22.23s-.19-.09-.19-.22C40.15,32.19,40.14,31.87,40.14,31.54Z"/><path class="cls-8" d="M93.93,31.56c0-.31,0-.63,0-.94,0-.16.05-.21.21-.2s.23,0,.23.19q0,1,0,1.95c0,.18-.1.18-.23.19s-.21-.05-.2-.21C93.94,32.21,93.93,31.88,93.93,31.56Z"/><path class="cls-8" d="M101.31,31.59c0,.31,0,.63,0,.94,0,.14,0,.22-.2.22s-.24,0-.24-.22c0-.64,0-1.27,0-1.91,0-.17.08-.19.22-.2s.22,0,.21.2C101.3,30.94,101.31,31.26,101.31,31.59Z"/><path class="cls-6" d="M74.94,31.59c0,.31,0,.62,0,.94,0,.15,0,.22-.2.21s-.21,0-.21-.2q0-1,0-1.91c0-.15,0-.22.2-.21s.21,0,.21.2C74.94,30.94,74.94,31.27,74.94,31.59Z"/><path class="cls-6" d="M124.73,31.6c0,.31,0,.62,0,.94,0,.16-.05.2-.21.2s-.2-.07-.2-.21c0-.64,0-1.27,0-1.91,0-.16.06-.2.21-.2s.2.07.2.21C124.73,31,124.73,31.28,124.73,31.6Z"/><path class="cls-6" d="M99.86,44h-.69c-.12,0-.18,0-.17-.16s0-.21.17-.2h1.48c.14,0,.15.08.15.18s0,.19-.15.18Z"/><path class="cls-8" d="M99.9,44.89h-.69c-.11,0-.21,0-.21-.16s.05-.21.21-.21h1.41c.14,0,.19,0,.19.19s-.05.19-.19.19Z"/><path class="cls-6" d="M85.88,37.14h.72c.14,0,.18,0,.19.19s-.06.18-.19.18H85.15c-.12,0-.17,0-.17-.17s0-.21.18-.2Z"/><path class="cls-8" d="M85.91,38h.69c.13,0,.19,0,.19.18s0,.19-.18.19H85.16c-.15,0-.18-.06-.18-.2s.08-.18.2-.18Z"/><path class="cls-7" d="M70.16,44.52h.65c.12,0,.23,0,.24.17s-.07.2-.22.2H69.46c-.13,0-.2,0-.2-.17s.07-.2.22-.2Z"/><path class="cls-7" d="M62.59,38h.68c.15,0,.18.06.18.19s-.06.18-.19.18H61.86c-.14,0-.19-.05-.19-.19s.06-.19.19-.18Z"/><path class="cls-7" d="M114.78,38h.65c.12,0,.2,0,.2.17s-.06.2-.21.2h-1.37c-.12,0-.21,0-.21-.17s.06-.21.21-.2Z"/><path class="cls-6" d="M70.15,44h-.68c-.12,0-.2,0-.21-.17s.06-.2.21-.2h1.37c.12,0,.2,0,.21.17s-.06.21-.21.2Z"/><path class="cls-6" d="M62.6,37.14h.65c.15,0,.21,0,.21.2s-.09.17-.21.17H61.88c-.11,0-.21,0-.21-.16s.05-.21.21-.21Z"/><path class="cls-6" d="M114.71,37.51h-.65c-.14,0-.22,0-.22-.2s.08-.17.2-.17h1.37c.15,0,.22,0,.21.2s-.08.18-.2.17Z"/><path class="cls-9" d="M144.42,32.75c-.17,0-.27-.06-.27-.24a.23.23,0,0,1,.24-.24.23.23,0,0,1,.27.26C144.67,32.68,144.58,32.75,144.42,32.75Z"/><path class="cls-10" d="M75,29.82c0,.14-.08.24-.25.24s-.25-.06-.26-.23a.22.22,0,0,1,.23-.26C74.88,29.57,75,29.66,75,29.82Z"/><path class="cls-10" d="M124.51,30.07a.21.21,0,0,1-.22-.24.22.22,0,0,1,.25-.24.23.23,0,0,1,.25.25C124.78,30,124.68,30.07,124.51,30.07Z"/><path class="cls-7" d="M144.41,30.88c-.15,0-.25-.07-.25-.23s.11-.25.28-.24a.21.21,0,0,1,.23.25C144.66,30.83,144.56,30.88,144.41,30.88Z"/><path class="cls-11" d="M94.14,29.58c.13,0,.23.06.24.23s-.06.25-.22.26-.25-.06-.25-.22S94,29.6,94.14,29.58Z"/><path class="cls-12" d="M101.34,29.84a.23.23,0,0,1-.26.22c-.17,0-.23-.09-.23-.25a.21.21,0,0,1,.25-.23A.23.23,0,0,1,101.34,29.84Z"/><path class="cls-4" d="M113,44.19c.49.29.59.45.51.89s-.37.56-.74.62a1.76,1.76,0,0,1-1.09,0c-.2-.11-.06-.58-.06-.89,0-.57,0-1.13,0-1.7,0-.16,0-.25.21-.23s.51,0,.76,0,.65.08.75.44A.68.68,0,0,1,113,44.19Z"/><path class="cls-4" d="M108.47,45.71c-.38.15-.44-.1-.52-.35s0-.42-.21-.46a2.12,2.12,0,0,0-.89,0c-.19,0-.18.35-.22.54s-.19.36-.48.27c.3-.89.6-1.79.9-2.68,0-.15.15-.15.28-.15s.2,0,.25.15Z"/><path class="cls-13" d="M115.48,44.52a2.32,2.32,0,0,1-.76,1.81c-.09.09-.17.21-.32.06s0-.2.09-.26a2.23,2.23,0,0,0,0-3.22c-.06-.07-.24-.11-.08-.27s.21,0,.3,0A2.33,2.33,0,0,1,115.48,44.52Z"/><path class="cls-13" d="M105.3,42.54a1,1,0,0,1,.16.16c.07.11-.06.14-.11.19a2.2,2.2,0,0,0-.66,2.1,2.15,2.15,0,0,0,.66,1.17c.07.07.2.11.06.24s-.18.06-.27,0a2.53,2.53,0,0,1,0-3.73Z"/><path class="cls-13" d="M109,44.29c0-.09,0-.14.12-.14a1.2,1.2,0,0,1,.22,0c.39.08.51-.11.45-.47a2.07,2.07,0,0,1,0-.22c0-.13.06-.16.18-.16s.11.1.12.18,0,0,0,0c0,.2-.09.45,0,.59s.37,0,.56,0,.19,0,.19.14-.1.16-.21.16h0c-.54,0-.53,0-.55.57,0,.1.07.26-.14.26s-.14-.14-.15-.25a.67.67,0,0,1,0-.07c0-.51,0-.51-.5-.51C109,44.44,109,44.44,109,44.29Z"/><path class="cls-14" d="M117.92,43.15c0,.26-.07.58-.11.9,0,.08,0,.16-.12.17s-.15-.09-.16-.18c0-.32-.07-.64-.1-1s0-.34.25-.34S117.9,42.93,117.92,43.15Z"/><path class="cls-15" d="M20.74,52a1,1,0,0,1,.71-.29h133a1.28,1.28,0,0,1,1,.28.42.42,0,0,1-.33.1H21.48C21.23,52.06,21,52.13,20.74,52Z"/><path class="cls-16" d="M20.74,52H155.5l.07.07a2,2,0,0,1,.11.71q0,5,0,10.07a2,2,0,0,1-.11.71.14.14,0,0,1-.15.15,2.58,2.58,0,0,1-.93.11H21.61a2,2,0,0,1-.75-.1.15.15,0,0,1-.14-.08,1.75,1.75,0,0,1-.11-.67q0-5.14,0-10.29a1.5,1.5,0,0,1,.11-.67Z"/><path class="cls-17" d="M20.87,63.67H155.43a.91.91,0,0,1-.6.21H21.64A.92.92,0,0,1,20.87,63.67Z"/><path class="cls-18" d="M20.74,52V63.59a.83.83,0,0,1-.22-.62q0-5.19,0-10.38A.77.77,0,0,1,20.74,52Z"/><path class="cls-17" d="M155.58,63.52q0-5.74,0-11.49a1,1,0,0,1,.21.67q0,5.08,0,10.15A1,1,0,0,1,155.58,63.52Z"/><path class="cls-4" d="M80.64,44.21a.69.69,0,0,1,.56.81c0,.37-.28.57-.73.68a5.88,5.88,0,0,1-1,0c-.14,0-.19,0-.19-.18q0-1.24,0-2.49c0-.16.06-.21.21-.2l.86,0a.64.64,0,0,1,.66.45C81.1,43.7,81,43.94,80.64,44.21Z"/><path class="cls-4" d="M76.36,45.72c.3-.9.6-1.78.89-2.66a.26.26,0,0,1,.29-.19.24.24,0,0,1,.26.18l.89,2.66c-.3.11-.45,0-.5-.28,0-.11-.07-.21-.09-.31a.25.25,0,0,0-.32-.24h-.07c-.69,0-.69,0-.9.63C76.73,45.75,76.73,45.75,76.36,45.72Z"/><path class="cls-13" d="M83.1,44.52a2.32,2.32,0,0,1-.78,1.84c-.08.08-.16.18-.3,0s0-.2.08-.27a2.23,2.23,0,0,0,0-3.22c-.06-.06-.26-.1-.1-.27s.23,0,.32,0A2.32,2.32,0,0,1,83.1,44.52Z"/><path class="cls-13" d="M74.55,44.51a2.38,2.38,0,0,1,.79-1.83c.08-.08.16-.18.3,0s0,.2-.08.27a2.23,2.23,0,0,0,0,3.22c.06.06.25.1.1.27s-.23,0-.32-.06A2.34,2.34,0,0,1,74.55,44.51Z"/><path class="cls-14" d="M85.55,43.21l-.08.82c0,.1,0,.18-.16.19s-.13-.1-.14-.19c0-.33-.06-.66-.1-1s0-.29.27-.3.23.13.22.29S85.55,43.11,85.55,43.21Z"/><path class="cls-4" d="M96.4,37.69c.49.29.59.45.51.89s-.38.56-.74.62a1.75,1.75,0,0,1-1.09,0c-.2-.11-.06-.58-.06-.89,0-.57,0-1.13,0-1.7,0-.16,0-.25.22-.23s.58,0,.86,0a.65.65,0,0,1,.66.46C96.84,37.19,96.74,37.42,96.4,37.69Z"/><path class="cls-4" d="M91.84,39.2c-.34.13-.44,0-.5-.3s0-.46-.21-.5a1.92,1.92,0,0,0-.89,0c-.21.05-.2.36-.25.56s-.19.34-.47.25l.36-1.06c.17-.52.35-1,.52-1.57a.3.3,0,0,1,.57,0C91.25,37.44,91.55,38.32,91.84,39.2Z"/><path class="cls-13" d="M94.22,37.79c0,.08,0,.15-.11.15h-.18c-.5,0-.5,0-.51.51,0,.07,0,.14,0,.22s-.07.11-.15.11-.14,0-.14-.12,0-.17,0-.25c0-.46,0-.46-.48-.47-.1,0-.29.11-.3-.12s.19-.15.31-.16c.47,0,.47,0,.47-.48,0-.08,0-.17,0-.25s.07-.11.15-.11.14,0,.14.11,0,.07,0,.11c0,.2-.09.46.06.58s.37,0,.56,0S94.24,37.65,94.22,37.79Z"/><path class="cls-4" d="M118.37,39.21c.3-.89.6-1.77.89-2.66.05-.16.15-.18.29-.18a.23.23,0,0,1,.26.19c.27.82.55,1.64.82,2.46,0,.07.14.19,0,.22s-.25.07-.31-.08,0-.09,0-.14c-.23-.69-.31-.73-1.07-.64a.2.2,0,0,0-.2.16l-.13.41C118.74,39.25,118.74,39.25,118.37,39.21Z"/><path class="cls-19" d="M122.36,36.82c0,.19-.06.45-.08.71,0,.1,0,.19-.15.18s-.13-.08-.14-.17c0-.36-.05-.71-.09-1.07s.11-.23.28-.24.23.09.19.26A2.08,2.08,0,0,0,122.36,36.82Z"/><path class="cls-19" d="M70.49,37.69c.46.25.59.45.54.84s-.29.58-.77.68a6.48,6.48,0,0,1-1,0c-.15,0-.18-.07-.18-.2q0-1.24,0-2.49c0-.14.05-.19.19-.19l.86,0a.65.65,0,0,1,.68.47A.67.67,0,0,1,70.49,37.69Z"/><path class="cls-4" d="M66.2,39.2c.29-.88.59-1.75.88-2.63a.25.25,0,0,1,.28-.2.25.25,0,0,1,.28.2c.27.82.55,1.64.82,2.46,0,.07.11.18,0,.2s-.27.09-.34-.09S68,38.9,68,38.79s0-.39-.22-.41a2.44,2.44,0,0,0-.89,0c-.14,0-.15.33-.2.52S66.52,39.32,66.2,39.2Z"/><path class="cls-20" d="M79.55,19.28q0-.31,0-.61a1,1,0,0,1,.74-1,1.07,1.07,0,0,1,1.31.48,2.54,2.54,0,0,1,0,2.38,1,1,0,0,1-1.26.44,1,1,0,0,1-.76-1Q79.55,19.63,79.55,19.28Z"/><path class="cls-1" d="M117.68,19.9a1.14,1.14,0,0,1-1.6,1,.74.74,0,0,1,0-1.38,3.85,3.85,0,0,1,1.42-.15c.11,0,.14.06.14.16S117.68,19.78,117.68,19.9Z"/><path class="cls-1" d="M76.75,19.92a1.13,1.13,0,0,1-1.6,1,.7.7,0,0,1-.43-.65.68.68,0,0,1,.39-.67,3.34,3.34,0,0,1,1.52-.19c.13,0,.12.09.12.18S76.75,19.8,76.75,19.92Z"/><path class="cls-1" d="M100,18.89h-.9c-.1,0-.21,0-.2-.16a1.25,1.25,0,0,1,1.12-1.13,1.1,1.1,0,0,1,1.13,1.15c0,.16-.09.15-.18.15Z"/><path class="cls-20" d="M109.38,18.89h-.86c-.17,0-.24,0-.21-.22a1.23,1.23,0,0,1,1.16-1.08,1.07,1.07,0,0,1,1.07,1.05c0,.2,0,.26-.22.25S109.69,18.89,109.38,18.89Z"/><path class="cls-1" d="M87.45,18.89h-.9c-.15,0-.22,0-.2-.2a1.24,1.24,0,0,1,1.18-1.1,1.08,1.08,0,0,1,1.05,1.07c0,.17,0,.24-.2.23Z"/><path class="cls-20" d="M125.59,19.33a2,2,0,0,1-.1.73,1.21,1.21,0,0,1-2.36.06,2.48,2.48,0,0,1,.07-1.76,1.13,1.13,0,0,1,1.07-.77,1.16,1.16,0,0,1,1.12.71A2,2,0,0,1,125.59,19.33Z"/><path class="cls-21" d="M81.74,37c0-.62-.07-.54.41-.54s.84.17.85.55-.29.59-.86.59S81.74,37.7,81.74,37Z"/><path class="cls-21" d="M95.76,43.55c0-.27-.14-.61.4-.57s.87.2.85.59-.3.57-.85.56S95.76,44.2,95.76,43.55Z"/><path class="cls-20" d="M65.83,44.19c0-.31,0-.62,0-.93s.07-.26.27-.26c.79,0,1.13.36,1.12,1.23s-.4,1.2-1.16,1.16c-.17,0-.23-.05-.23-.23C65.84,44.83,65.83,44.51,65.83,44.19Z"/><path class="cls-20" d="M59.62,37.68c0,.84-.39,1.23-1.16,1.2-.17,0-.23-.06-.22-.23,0-.65,0-1.29,0-1.94,0-.18.07-.21.23-.22C59.26,36.46,59.62,36.83,59.62,37.68Z"/><path class="cls-20" d="M80.29,37.68a2,2,0,0,1-.1.72.73.73,0,0,1-.69.49.71.71,0,0,1-.73-.49,2.05,2.05,0,0,1,0-1.34.72.72,0,0,1,.77-.58.76.76,0,0,1,.71.6A2.74,2.74,0,0,1,80.29,37.68Z"/><path class="cls-20" d="M92.7,44.16a1.47,1.47,0,0,1,.11-.7.74.74,0,0,1,.73-.47.71.71,0,0,1,.68.5,2.21,2.21,0,0,1,0,1.3.72.72,0,0,1-.74.61.76.76,0,0,1-.75-.6A2,2,0,0,1,92.7,44.16Z"/><path class="cls-20" d="M109.3,37.68a3.9,3.9,0,0,1-.12.72.74.74,0,0,1-.68.49.7.7,0,0,1-.73-.48,2.07,2.07,0,0,1,0-1.41.71.71,0,0,1,.73-.53.73.73,0,0,1,.72.58A4.85,4.85,0,0,1,109.3,37.68Z"/><path class="cls-1" d="M129.17,31.6c0,.1,0,.19,0,.29a.47.47,0,0,1-.38.5.5.5,0,0,1-.6-.21,1.22,1.22,0,0,1,0-1.2.53.53,0,0,1,1,.3C129.17,31.38,129.17,31.49,129.17,31.6Z"/><path class="cls-1" d="M73.53,31.54c0,.62-.15.87-.53.87s-.61-.33-.59-.9a.72.72,0,0,1,.41-.73.51.51,0,0,1,.56.12C73.6,31.07,73.51,31.33,73.53,31.54Z"/><path class="cls-22" d="M60.56,43.22,61,44.56c-1,.1-1,.09-.69-.79C60.4,43.61,60.47,43.46,60.56,43.22Z"/><path class="cls-22" d="M53.48,38.08H52.7c-.14,0-.21,0-.15-.18L53,36.72Z"/><path class="cls-1" d="M83.72,31.59c0-.11,0-.22,0-.32a.44.44,0,0,1,.35-.51.49.49,0,0,1,.61.24,1.1,1.1,0,0,1,0,1.13.49.49,0,0,1-.6.27.45.45,0,0,1-.38-.52A2.85,2.85,0,0,0,83.72,31.59Z"/><path class="cls-1" d="M52.48,31.48a1.15,1.15,0,0,1,0-.43.53.53,0,0,1,.42-.31.5.5,0,0,1,.55.26,1.22,1.22,0,0,1-.07,1.23.51.51,0,0,1-.59.13C52.41,32.22,52.46,31.87,52.48,31.48Z"/><path class="cls-21" d="M141.51,31.63c.17,0,.28,0,.26.27a.53.53,0,0,1-.55.49c-.25,0-.43-.09-.44-.36S141,31.63,141.51,31.63Z"/><path class="cls-23" d="M63.84,31.63c.18,0,.27,0,.25.27a.51.51,0,0,1-.55.49c-.25,0-.43-.11-.44-.36S63.38,31.63,63.84,31.63Z"/><path class="cls-24" d="M38.73,31.36h-.07c-.14,0-.33.08-.42-.06s0-.25.12-.35a.5.5,0,0,1,.5-.21.54.54,0,0,1,.19.09.45.45,0,0,1,.23.45c0,.17-.24.06-.37.08A.85.85,0,0,1,38.73,31.36Z"/><path class="cls-24" d="M88,31.36h0c-.15-.07-.41.16-.46-.14s.29-.49.53-.5a.58.58,0,0,1,.53.49c0,.11,0,.15-.14.15Z"/><path class="cls-24" d="M79.75,31.36h-.07c-.15-.06-.43.13-.44-.11a.52.52,0,0,1,1,0c0,.1,0,.16-.14.15Z"/><path class="cls-24" d="M110,31.36h0c-.16,0-.38.1-.46-.07s.07-.29.19-.4a.45.45,0,0,1,.56-.11.67.67,0,0,1,.15.1.39.39,0,0,1,.14.42c-.06.13-.21,0-.33.06Z"/><path class="cls-24" d="M61.33,31.36h-.07c-.14,0-.34.09-.42-.07s0-.25.13-.35a.49.49,0,0,1,.51-.19.66.66,0,0,1,.27.17.38.38,0,0,1,.13.39c-.05.13-.21,0-.32.06Z"/><path class="cls-1" d="M134.27,31.59a1.66,1.66,0,0,1,0,.27.63.63,0,0,1-.57.56.61.61,0,0,1-.62-.51,1.26,1.26,0,0,1,0-.64.66.66,0,0,1,.62-.55.71.71,0,0,1,.59.64C134.27,31.43,134.27,31.5,134.27,31.59Z"/><path class="cls-1" d="M46.26,31.58a2.52,2.52,0,0,1,0,.25.6.6,0,0,1-1.21,0,1.77,1.77,0,0,1,0-.57.66.66,0,0,1,.64-.58.72.72,0,0,1,.58.65,2,2,0,0,1,0,.22Z"/><path class="cls-1" d="M71.16,31.57a1.56,1.56,0,0,1,0,.22.61.61,0,1,1-1.23,0,1.72,1.72,0,0,1,0-.22c0-.48.27-.83.62-.84S71.17,31.08,71.16,31.57Z"/><path class="cls-1" d="M58.53,31.63a1.3,1.3,0,0,1,0,.17.61.61,0,1,1-1.23,0,1.72,1.72,0,0,1,0-.22c0-.48.28-.83.62-.83S58.53,31.08,58.53,31.63Z"/><path class="cls-1" d="M56.06,31.56c0,.51-.29.89-.66.87s-.64-.46-.6-.93.31-.79.64-.78A.76.76,0,0,1,56.06,31.56Z"/><path class="cls-1" d="M120.16,31.49c0,.58-.28,1-.66.94s-.66-.47-.6-1c0,0,0-.1,0-.14a.67.67,0,0,1,.58-.6c.27,0,.55.23.64.58A1.42,1.42,0,0,1,120.16,31.49Z"/><path class="cls-1" d="M96.53,31.52c0,.56-.3.94-.67.91a.81.81,0,0,1-.59-.94s0-.1,0-.14a.7.7,0,0,1,.59-.63.72.72,0,0,1,.64.63A1.33,1.33,0,0,1,96.53,31.52Z"/><path class="cls-1" d="M115.58,31.55c0,.51-.28.89-.65.88s-.62-.41-.61-.89.29-.83.64-.83A.76.76,0,0,1,115.58,31.55Z"/><path class="cls-25" d="M112,44.9c.07-.2-.18-.57.34-.54s.84.17.85.51-.3.54-.84.58S112,45.13,112,44.9Z"/><path class="cls-26" d="M112.31,44.08c-.21,0-.39,0-.3-.31s-.26-.6.27-.6.73.14.74.44S112.8,44.08,112.31,44.08Z"/><path class="cls-27" d="M107.3,43.22l.36,1.17c0,.11,0,.17-.12.19-.57.09-.66,0-.49-.53Z"/><path class="cls-18" d="M88.13,52H154.9c.59,0,.53-.06.53.51,0,3.52,0,7,0,10.55,0,.36-.11.43-.45.43H21.24c-.34,0-.45-.07-.45-.43q0-5.31,0-10.62c0-.38.11-.45.47-.45Z"/><path class="cls-26" d="M80,44.37c.57,0,.85.18.85.51s-.32.54-.83.56c-.29,0-.42-.06-.38-.37a1,1,0,0,0,0-.32C79.58,44.43,79.71,44.31,80,44.37Z"/><path class="cls-25" d="M79.64,43.61c0-.2-.11-.47.3-.44s.73.15.73.44-.23.44-.7.48S79.66,43.83,79.64,43.61Z"/><path class="cls-27" d="M77.52,43.21l.36,1.15c0,.15,0,.21-.16.22-.61,0-.62,0-.44-.54Z"/><path class="cls-25" d="M95.72,37.87c.57,0,.84.18.84.51s-.3.53-.82.56c-.3,0-.41-.08-.37-.38a1,1,0,0,0,0-.32C95.32,37.92,95.45,37.8,95.72,37.87Z"/><path class="cls-26" d="M95.7,37.58c-.17,0-.4,0-.31-.29s-.26-.63.29-.62.71.14.72.42S96.19,37.57,95.7,37.58Z"/><path class="cls-27" d="M90.68,36.72,91,37.88c0,.11,0,.17-.12.19-.58.09-.66,0-.49-.53Z"/><path class="cls-27" d="M119.53,36.71c.13.44.23.79.35,1.12s0,.25-.19.24c-.7,0-.56,0-.41-.51Z"/><path class="cls-28" d="M69.46,38.38c0-.25-.13-.56.37-.52s.84.19.83.54-.32.54-.84.54C69.46,38.94,69.46,38.94,69.46,38.38Z"/><path class="cls-28" d="M69.46,37.11c0-.2-.11-.48.32-.45s.73.17.72.46-.26.41-.69.46S69.47,37.35,69.46,37.11Z"/><path class="cls-27" d="M67.35,36.71c.13.44.24.8.35,1.14,0,.15,0,.21-.15.22-.61,0-.62,0-.45-.53Z"/><path class="cls-3" d="M88.12,63.23H21.75c-.66,0-.66,0-.66-.67q0-4.84,0-9.68c0-.53,0-.56.54-.56h133c.52,0,.55,0,.55.56q0,4.9,0,9.79c0,.54,0,.56-.58.56Z"/><path class="cls-20" d="M88.13,62.94H22c-.53,0-.53,0-.53-.52q0-4.59,0-9.18c0-.63-.08-.57.55-.57H154.34c.51,0,.51,0,.51.5q0,4.61,0,9.21c0,.61.07.55-.53.55Z"/><path class="cls-13" d="M29.27,57.24c.16-.07.27-.14.39-.18a.82.82,0,0,1,1.12.57,1.54,1.54,0,0,1,0,.92.91.91,0,0,1-1.33.55c-.11-.06-.21-.19-.27,0,0,.07-.13,0-.2,0s-.07-.11-.07-.17c0-.91,0-1.83,0-2.74,0-.13,0-.19.17-.2s.2.06.19.21C29.26,56.59,29.27,56.9,29.27,57.24Z"/><path class="cls-4" d="M43.31,57.2c0-.33,0-.62,0-.9,0-.13,0-.23.18-.23s.18.1.18.23c0,.89,0,1.78,0,2.67,0,.09,0,.21-.11.22s-.19,0-.21-.12-.11-.05-.17,0A.93.93,0,0,1,42,59a1.39,1.39,0,0,1-.22-1.42.92.92,0,0,1,1-.59A2.14,2.14,0,0,1,43.31,57.2Z"/><path class="cls-13" d="M27.81,58.92a1.46,1.46,0,0,1-.87.3c-.31,0-.58-.11-.65-.45a.59.59,0,0,1,.45-.75,3.19,3.19,0,0,1,.74-.16c.1,0,.27,0,.28-.13a.37.37,0,0,0-.2-.32.74.74,0,0,0-.69,0l-.26.13c-.1.05-.15,0-.2-.09s0-.15.06-.2a1.52,1.52,0,0,1,1.18-.18.74.74,0,0,1,.51.79c0,.35,0,.7,0,1,0,.1.09.25-.1.3S27.81,59.1,27.81,58.92Z"/><path class="cls-13" d="M36.63,58.13a1,1,0,0,1,.55-1,1.21,1.21,0,0,1,1.23,0c.07,0,.23.08.11.24s-.15.12-.29,0a.77.77,0,0,0-1,.13.81.81,0,0,0,0,1,.83.83,0,0,0,1.07.16c.11-.06.21-.19.32,0s-.08.22-.18.28A1.13,1.13,0,0,1,36.63,58.13Z"/><path class="cls-19" d="M32.8,58A2.4,2.4,0,0,1,32,59.79c-.08.08-.16.18-.3.05s0-.2.07-.27a2.22,2.22,0,0,0,0-3.23c-.07-.07-.24-.12-.07-.27s.21,0,.3.05A2.39,2.39,0,0,1,32.8,58Z"/><path class="cls-19" d="M24.21,57.94A2.43,2.43,0,0,1,25,56.17c.09-.09.19-.25.35-.07s0,.21-.11.27a2.24,2.24,0,0,0,0,3.2c.07.07.25.12.1.28s-.24,0-.33-.07A2.45,2.45,0,0,1,24.21,57.94Z"/><path class="cls-13" d="M41.11,57.74c0,.09,0,.14-.11.14h-.18c-.5,0-.5,0-.5.51,0,.07,0,.14,0,.22s-.07.11-.15.11-.14,0-.14-.11,0-.17,0-.25c0-.47,0-.47-.47-.47h-.18c-.11,0-.13-.06-.14-.16s.06-.14.15-.14a1.2,1.2,0,0,1,.18,0c.38.07.51-.1.45-.46a1.49,1.49,0,0,1,0-.25c0-.11.07-.13.17-.13s.12,0,.13.13,0,0,0,0c0,.21-.06.49,0,.62s.4,0,.61.05S41.12,57.64,41.11,57.74Z"/><path class="cls-29" d="M35.21,56.75c0,.18-.06.45-.08.72,0,.1,0,.19-.15.19s-.14-.08-.14-.16c0-.36-.05-.71-.09-1.07s.1-.24.27-.24.24.08.2.25A1.88,1.88,0,0,0,35.21,56.75Z"/><path class="cls-1" d="M29.27,58.14c0-.55.22-.84.63-.83s.57.32.57.75-.26.84-.65.83S29.27,58.73,29.27,58.14Z"/><path class="cls-1" d="M43.31,58.09c0,.59-.16.81-.6.81s-.58-.28-.59-.75.28-.84.65-.84S43.31,57.53,43.31,58.09Z"/><path class="cls-22" d="M27.78,58.29c.07.38-.17.45-.37.55a.58.58,0,0,1-.67,0c-.18-.17-.12-.36.06-.48a1.59,1.59,0,0,1,.86-.22C27.87,58.09,27.77,58.26,27.78,58.29Z"/><path class="cls-30" d="M141.13,171.14V85.6c0-1.36,0-2.72,0-4.08,0-.49,0-.49-.48-.49H35.58c-.3,0-.47,0-.47.4q0,25.15,0,50.29,0,22.26,0,44.52h106Q141.13,173.69,141.13,171.14Z"/><path class="cls-13" d="M101.26,76.08c.47.27.6.48.54.84s-.29.58-.78.68a6.6,6.6,0,0,1-1,0c-.15,0-.18-.06-.18-.19q0-1.24,0-2.49c0-.14,0-.2.18-.19l.86,0c.32,0,.61.11.69.47A.66.66,0,0,1,101.26,76.08Z"/><path class="cls-4" d="M53,76.09c.47.28.58.46.49.88s-.4.56-.78.63a8.12,8.12,0,0,1-1,0c-.14,0-.15-.07-.15-.18,0-.83,0-1.66,0-2.49,0-.16.05-.21.21-.2l.76,0a.74.74,0,0,1,.77.47C53.41,75.55,53.31,75.79,53,76.09Z"/><path class="cls-19" d="M134.36,76.19c0-.37,0-.75,0-1.12s.08-.34.33-.31h.14a1.42,1.42,0,0,1,1.45,2.09,1.18,1.18,0,0,1-1.18.78c-.73,0-.73,0-.73-.69Z"/><path class="cls-19" d="M74.53,76.2c0-.4,0-.79,0-1.19,0-.19,0-.27.24-.24H75a1.45,1.45,0,0,1,1.34,2.28,1.19,1.19,0,0,1-1.05.58c-.78.06-.78.05-.78-.71Z"/><path class="cls-4" d="M95,77.6c-.29.1-.42,0-.48-.25s0-.49-.21-.54a3.43,3.43,0,0,0-.89,0c-.1,0-.1.08-.12.15a3.79,3.79,0,0,0-.13.41c-.05.26-.18.38-.48.27l.91-2.72c0-.15.17-.11.27-.11s.19,0,.23.11Z"/><path class="cls-4" d="M39.74,77.61,40.62,75a.3.3,0,0,1,.57,0c.29.87.58,1.75.88,2.64-.24.07-.41.08-.48-.22s0-.51-.22-.58a3,3,0,0,0-.86,0c-.11,0-.14.07-.17.15a3.16,3.16,0,0,0-.13.41C40.17,77.61,40,77.7,39.74,77.61Z"/><path class="cls-4" d="M120.46,76.2c0-1,.54-1.53,1.41-1.46a1,1,0,0,1,.52.21c.11.08.12.15,0,.26s-.12.11-.22,0a.81.81,0,0,0-1.29.49,1.58,1.58,0,0,0,0,1,.79.79,0,0,0,1.27.4c.11-.08.18-.13.29,0s0,.21-.09.28a1.19,1.19,0,0,1-1.73-.3A1.69,1.69,0,0,1,120.46,76.2Z"/><path class="cls-4" d="M64.23,74.73a.87.87,0,0,1,.62.22c.08.06.15.12,0,.23s-.12.13-.26.05a.8.8,0,0,0-1.28.54,1.47,1.47,0,0,0,.09,1.09.77.77,0,0,0,1.2.31c.12-.09.19-.17.32,0s0,.23-.13.3a1.17,1.17,0,0,1-1.71-.36,1.88,1.88,0,0,1-.07-1.63A1.12,1.12,0,0,1,64.23,74.73Z"/><path class="cls-19" d="M86.51,76.39a2.44,2.44,0,0,1,.78-1.8c.09-.09.18-.21.32-.06s0,.21-.11.27a2.24,2.24,0,0,0,0,3.2c.07.07.25.12.1.28s-.24,0-.33-.06A2.46,2.46,0,0,1,86.51,76.39Z"/><path class="cls-13" d="M108,76.41a2.32,2.32,0,0,1-.78,1.83c-.08.08-.16.18-.3,0s0-.2.07-.27a2.22,2.22,0,0,0,0-3.25c-.06-.06-.21-.1-.07-.24s.2-.07.3,0A2.34,2.34,0,0,1,108,76.41Z"/><path class="cls-29" d="M128.4,75.2c.08,0,.14,0,.14.12s0,.17,0,.25c0,.47,0,.47.47.47h.22c.1,0,.11.06.11.14s0,.14-.1.15h-.14c-.53,0-.53,0-.55.57,0,.1.06.26-.14.27s-.14-.15-.15-.25a.26.26,0,0,1,0,0c0-.54,0-.54-.54-.55-.1,0-.25.07-.25-.15s.15-.12.25-.14h.07c.36.06.53-.06.46-.45a1.35,1.35,0,0,1,0-.29C128.26,75.21,128.32,75.19,128.4,75.2Z"/><path class="cls-29" d="M114.78,75.2c0,.23-.06.5-.09.77,0,.07,0,.13-.12.14s-.16,0-.17-.14c0-.38-.06-.76-.1-1.14s.15-.18.28-.19.23.05.19.22A1.71,1.71,0,0,0,114.78,75.2Z"/><path class="cls-20" d="M111.2,141.73h29.3c.48,0,.48,0,.48.49,0,3,0,6,0,9,0,.33-.08.42-.42.42H81.87c-.35,0-.44-.1-.44-.44q0-4.52,0-9c0-.35.09-.44.44-.44Z"/><path class="cls-20" d="M111.18,111.31H81.91c-.47,0-.47,0-.47-.46,0-3,0-6,0-9,0-.33.07-.45.43-.45h58.71c.32,0,.43.07.43.41q0,4.53,0,9.07c0,.36-.11.43-.45.43Z"/><path class="cls-20" d="M111.2,171.79H81.93c-.49,0-.49,0-.49-.48,0-3,0-6,0-9,0-.36.11-.43.45-.43h58.67c.34,0,.45.08.45.43q0,4.53,0,9.07c0,.34-.11.41-.43.41Z"/><path class="cls-20" d="M111.19,131.47H81.93c-.49,0-.49,0-.49-.48,0-3,0-6,0-9,0-.35.06-.47.45-.47q29.33,0,58.67,0c.34,0,.45.08.44.43q0,4.53,0,9.07c0,.35-.11.41-.43.41Z"/><path class="cls-20" d="M111.19,91.15H81.93c-.49,0-.49,0-.49-.48,0-3,0-6,0-9,0-.35.06-.47.45-.47q29.33,0,58.67,0c.34,0,.45.08.44.43q0,4.52,0,9c0,.38-.12.45-.47.45Z"/><path class="cls-20" d="M141,172.49c0-.48,0-.48-.49-.48H81.86c-.32,0-.43.08-.43.42,0,1.28,0,2.55,0,3.83H141C141,175,141,173.74,141,172.49Z"/><path class="cls-20" d="M111.2,151.85h29.3c.48,0,.48,0,.48.49,0,3,0,5.95,0,8.92,0,.32-.08.43-.42.43H81.87c-.35,0-.44-.1-.44-.44,0-3,0-5.95,0-8.92,0-.47,0-.47.46-.47Z"/><path class="cls-20" d="M111.18,141.52H81.95c-.51,0-.51,0-.51-.5,0-3,0-5.92,0-8.89,0-.33.06-.45.43-.45h58.71c.32,0,.43.07.43.42q0,4.5,0,9c0,.35-.1.43-.45.43Z"/><path class="cls-20" d="M111.19,121.36H81.93c-.49,0-.49,0-.49-.48,0-3,0-5.92,0-8.89,0-.35.06-.47.45-.47q29.34,0,58.67,0c.34,0,.44.09.44.44q0,4.48,0,9c0,.38-.12.45-.47.45Z"/><path class="cls-20" d="M111.2,101.2H81.93c-.49,0-.49,0-.49-.48,0-3,0-6,0-9,0-.33.09-.4.41-.4h58.74c.31,0,.41.06.41.39q0,4.52,0,9c0,.34-.1.42-.42.42Z"/><path class="cls-20" d="M52.49,151.63c-1.76,0-3.51,0-5.27,0-.29,0-.39-.07-.39-.38q0-4.59,0-9.17c0-.29.09-.36.37-.36H57.81c.27,0,.37.06.37.36q0,4.6,0,9.21c0,.27-.08.35-.35.34Z"/><path class="cls-20" d="M52.51,131.47c-1.77,0-3.54,0-5.31,0-.31,0-.38-.09-.38-.39q0-4.57,0-9.14c0-.29.07-.39.38-.39q5.31,0,10.62,0c.29,0,.36.09.36.37q0,4.59,0,9.17c0,.32-.11.37-.4.37Z"/><path class="cls-20" d="M41,171.79c-1.75,0-3.49,0-5.24,0-.29,0-.39-.07-.39-.38q0-4.59,0-9.17c0-.3.1-.36.37-.36H46.25c.28,0,.37.06.37.36q0,4.59,0,9.17c0,.31-.1.38-.39.38C44.47,171.79,42.71,171.79,41,171.79Z"/><path class="cls-20" d="M64,151.63H58.76c-.27,0-.37-.06-.37-.36q0-4.6,0-9.21c0-.27.08-.34.35-.34q5.29,0,10.58,0c.3,0,.35.11.35.38q0,4.59,0,9.17c0,.29-.09.36-.37.36Z"/><path class="cls-20" d="M64,101.41c1.76,0,3.52,0,5.27,0,.3,0,.38.09.38.39q0,4.57,0,9.14c0,.29-.07.39-.38.39q-5.27,0-10.55,0c-.29,0-.36-.09-.36-.37q0-4.59,0-9.17c0-.32.12-.37.4-.37Z"/><path class="cls-20" d="M52.5,131.69c1.76,0,3.52,0,5.27,0,.31,0,.41.06.41.39q0,4.53,0,9.06c0,.3-.08.39-.38.39q-5.29,0-10.58,0c-.33,0-.39-.11-.39-.41q0-4.51,0-9c0-.32.08-.41.4-.4C49,131.7,50.74,131.69,52.5,131.69Z"/><path class="cls-20" d="M52.51,161.68c-1.77,0-3.54,0-5.31,0-.31,0-.38-.09-.38-.39q0-4.53,0-9.06c0-.29.07-.39.38-.39q5.31,0,10.62,0c.29,0,.36.09.36.37q0,4.55,0,9.1c0,.32-.11.37-.4.37Z"/><path class="cls-20" d="M75.59,91.37h5.27c.28,0,.37.07.37.36q0,4.55,0,9.1c0,.31-.1.38-.39.38H70.26c-.3,0-.39-.08-.39-.38q0-4.55,0-9.1c0-.3.1-.36.37-.36Z"/><path class="cls-20" d="M75.55,141.52H70.24c-.28,0-.37-.06-.37-.36q0-4.57,0-9.14c0-.27.08-.34.35-.34q5.33,0,10.65,0c.31,0,.35.12.35.38q0,4.55,0,9.1c0,.29-.09.36-.37.36Z"/><path class="cls-20" d="M81.23,172.38c0-.26,0-.38-.35-.38q-5.33,0-10.65,0c-.27,0-.35.07-.35.35,0,1.3,0,2.6,0,3.9H81.23C81.23,175,81.23,173.67,81.23,172.38Z"/><path class="cls-20" d="M75.53,121.36c-1.76,0-3.52,0-5.27,0-.3,0-.39-.08-.39-.38q0-4.55,0-9.1c0-.29.09-.36.37-.36H80.86c.28,0,.37.07.37.36q0,4.55,0,9.1c0,.31-.09.38-.39.38C79.07,121.35,77.3,121.36,75.53,121.36Z"/><path class="cls-20" d="M75.54,151.85c1.77,0,3.54,0,5.31,0,.31,0,.38.09.38.39q0,4.53,0,9.07c0,.29-.07.39-.38.39q-5.31,0-10.62,0c-.29,0-.36-.09-.36-.37q0-4.55,0-9.1c0-.32.11-.37.4-.37Z"/><path class="cls-20" d="M46.62,172.37c0-.29-.09-.36-.37-.36H35.7c-.28,0-.37.06-.37.36,0,1.29,0,2.59,0,3.88H46.62C46.62,175,46.62,173.66,46.62,172.37Z"/><path class="cls-20" d="M64,121.36H58.75c-.28,0-.37-.07-.37-.36q0-4.55,0-9.1c0-.31.1-.38.39-.38H69.28c.29,0,.39.07.39.38q0,4.55,0,9.1c0,.29-.09.36-.37.36Z"/><path class="cls-20" d="M64,151.85c1.76,0,3.52,0,5.27,0,.31,0,.38.09.38.39q0,4.53,0,9.07c0,.29-.07.39-.38.39q-5.27,0-10.55,0c-.29,0-.36-.09-.36-.37q0-4.55,0-9.1c0-.32.12-.37.4-.37Z"/><path class="cls-20" d="M52.52,101.41c1.76,0,3.51,0,5.27,0,.29,0,.39.07.39.38q0,4.59,0,9.17c0,.29-.09.36-.37.36H47.19c-.28,0-.37-.07-.37-.36q0-4.6,0-9.21c0-.28.09-.34.35-.34Z"/><path class="cls-20" d="M52.51,171.79c-1.77,0-3.54,0-5.31,0-.31,0-.38-.1-.38-.39q0-4.57,0-9.14c0-.29.07-.39.38-.39q5.31,0,10.62,0c.29,0,.36.09.36.37q0,4.59,0,9.17c0,.32-.12.37-.4.37Z"/><path class="cls-20" d="M52.46,91.15c-1.76,0-3.51,0-5.27,0-.28,0-.37-.08-.37-.36q0-4.59,0-9.17c0-.31.1-.38.39-.38H57.79c.3,0,.39.08.38.38q0,4.57,0,9.14c0,.33-.1.4-.41.39C56,91.14,54.23,91.15,52.46,91.15Z"/><path class="cls-20" d="M75.54,101.41c1.77,0,3.54,0,5.31,0,.31,0,.38.09.38.39q0,4.57,0,9.14c0,.29-.07.39-.38.39q-5.31,0-10.62,0c-.29,0-.36-.09-.36-.37q0-4.59,0-9.17c0-.32.12-.37.4-.37Z"/><path class="cls-20" d="M75.53,151.63c-1.76,0-3.51,0-5.27,0-.3,0-.39-.07-.39-.38q0-4.59,0-9.17c0-.3.1-.36.37-.36H80.86c.28,0,.37.07.37.36q0,4.59,0,9.17c0,.31-.1.38-.39.38C79.07,151.63,77.3,151.63,75.53,151.63Z"/><path class="cls-20" d="M75.53,171.79c-1.76,0-3.51,0-5.27,0-.29,0-.39-.07-.39-.38q0-4.59,0-9.17c0-.29.09-.36.37-.36H80.86c.27,0,.37.06.37.36q0,4.6,0,9.21c0,.27-.08.34-.35.34Z"/><path class="cls-20" d="M75.54,81.25c1.76,0,3.52,0,5.27,0,.3,0,.42.05.42.39q0,4.57,0,9.14c0,.3-.08.39-.38.39H70.27c-.28,0-.4-.05-.4-.37q0-4.59,0-9.17c0-.28.07-.37.36-.37C72,81.26,73.77,81.25,75.54,81.25Z"/><path class="cls-20" d="M75.56,131.47c-1.77,0-3.54,0-5.31,0-.31,0-.38-.09-.38-.39q0-4.57,0-9.14c0-.29.07-.39.38-.39q5.31,0,10.62,0c.29,0,.36.09.36.37q0,4.59,0,9.17c0,.32-.11.37-.4.37Z"/><path class="cls-20" d="M64,121.57c1.75,0,3.49,0,5.24,0,.29,0,.39.07.39.38q0,4.59,0,9.17c0,.29-.09.36-.37.36H58.75c-.27,0-.37-.06-.37-.36q0-4.6,0-9.21c0-.28.09-.34.35-.34Z"/><path class="cls-20" d="M64,161.9c1.75,0,3.49,0,5.24,0,.3,0,.42,0,.42.39q0,4.57,0,9.14c0,.3-.08.39-.38.39q-5.27,0-10.55,0c-.29,0-.36-.09-.36-.37q0-4.59,0-9.17c0-.28.07-.37.36-.37C60.5,161.9,62.26,161.9,64,161.9Z"/><path class="cls-20" d="M64,91.15c-1.76,0-3.52,0-5.27,0-.3,0-.38-.09-.38-.39q0-4.57,0-9.14c0-.29.07-.39.38-.39q5.27,0,10.55,0c.29,0,.36.09.36.37q0,4.59,0,9.17c0,.32-.12.37-.4.37Z"/><path class="cls-20" d="M41,101.41c1.75,0,3.49,0,5.24,0,.29,0,.39.07.39.38q0,4.59,0,9.17c0,.3-.1.36-.37.36H35.7c-.27,0-.37-.06-.37-.36q0-4.61,0-9.21c0-.28.09-.34.35-.34Z"/><path class="cls-20" d="M41,81.25c1.76,0,3.52,0,5.27,0,.3,0,.38.09.38.39q0,4.57,0,9.14c0,.29-.07.39-.38.39q-5.27,0-10.55,0c-.29,0-.36-.09-.36-.37q0-4.59,0-9.17c0-.32.12-.37.4-.37Z"/><path class="cls-20" d="M41,131.47c-1.76,0-3.52,0-5.27,0-.31,0-.38-.09-.38-.39q0-4.57,0-9.14c0-.3.08-.39.38-.39q5.27,0,10.55,0c.29,0,.36.09.36.37q0,4.59,0,9.17c0,.28-.07.37-.36.37C44.5,131.47,42.74,131.47,41,131.47Z"/><path class="cls-20" d="M41,151.63c-1.76,0-3.52,0-5.27,0-.3,0-.38-.09-.38-.39q0-4.57,0-9.14c0-.29.07-.39.38-.39q5.27,0,10.55,0c.29,0,.36.09.36.37q0,4.59,0,9.17c0,.32-.12.37-.4.37Z"/><path class="cls-20" d="M52.49,111.53c1.76,0,3.52,0,5.27,0,.3,0,.42.05.41.39q0,4.53,0,9.06c0,.29-.07.39-.38.39H47.22c-.28,0-.4-.06-.4-.37q0-4.55,0-9.1c0-.32.12-.37.4-.37Z"/><path class="cls-20" d="M58.18,172.36c0-.3-.1-.36-.37-.36H47.19c-.28,0-.37.08-.37.36,0,1.29,0,2.59,0,3.88H58.18C58.18,175,58.17,173.66,58.18,172.36Z"/><path class="cls-20" d="M52.51,101.2c-1.76,0-3.52,0-5.27,0-.3,0-.42-.05-.42-.39q0-4.53,0-9.06c0-.29.07-.39.38-.39H57.78c.29,0,.4.06.4.37q0,4.55,0,9.1c0,.32-.12.37-.4.37Z"/><path class="cls-20" d="M64,101.2c-1.76,0-3.52,0-5.27,0-.31,0-.38-.09-.38-.39q0-4.53,0-9.07c0-.29.07-.39.38-.39q5.27,0,10.55,0c.29,0,.36.09.36.37q0,4.55,0,9.1c0,.32-.11.37-.4.37Z"/><path class="cls-20" d="M64,131.69c1.76,0,3.52,0,5.27,0,.31,0,.38.09.38.39q0,4.53,0,9.07c0,.29-.07.39-.38.39q-5.27,0-10.55,0c-.29,0-.36-.09-.36-.37q0-4.55,0-9.1c0-.32.11-.37.4-.37Z"/><path class="cls-20" d="M69.67,172.37c0-.28-.07-.37-.36-.37q-5.27,0-10.55,0c-.31,0-.38.1-.38.39,0,1.28,0,2.57,0,3.85H69.67C69.67,175,69.67,173.66,69.67,172.37Z"/><path class="cls-20" d="M41,111.53c1.76,0,3.52,0,5.27,0,.31,0,.38.09.38.39q0,4.53,0,9.07c0,.29-.07.39-.38.39q-5.27,0-10.55,0c-.29,0-.36-.09-.36-.37q0-4.55,0-9.1c0-.32.12-.37.4-.37Z"/><path class="cls-20" d="M41,161.68c-1.75,0-3.49,0-5.24,0-.29,0-.39-.07-.39-.38q0-4.55,0-9.1c0-.29.09-.36.37-.36H46.25c.28,0,.37.06.37.36q0,4.57,0,9.14c0,.28-.09.34-.35.34Z"/><path class="cls-20" d="M40.94,101.2H35.7c-.28,0-.37-.07-.37-.36q0-4.55,0-9.1c0-.31.1-.38.39-.38H46.23c.29,0,.39.07.39.38q0,4.55,0,9.1c0,.3-.1.36-.37.36Z"/><path class="cls-20" d="M40.94,141.52H35.7c-.28,0-.37-.07-.37-.36q0-4.55,0-9.1c0-.31.1-.38.39-.38H46.23c.29,0,.39.07.39.38q0,4.55,0,9.1c0,.3-.1.36-.37.36Z"/><path class="cls-23" d="M100.24,76.77c0-.25-.13-.56.37-.52s.84.2.83.54-.33.54-.84.54S100.24,77.4,100.24,76.77Z"/><path class="cls-23" d="M100.24,75.52c0-.22-.1-.49.32-.45s.7.15.71.43-.22.44-.69.49S100.25,75.74,100.24,75.52Z"/><path class="cls-21" d="M51.94,76.77c0-.22-.14-.55.36-.51s.83.18.82.53-.3.55-.82.54S52,77.4,51.94,76.77Z"/><path class="cls-1" d="M51.94,75.52c0-.21-.11-.49.32-.46s.7.16.7.45-.23.44-.72.47S52,75.72,51.94,75.52Z"/><path class="cls-21" d="M134.73,76.18c0-.28,0-.55,0-.83s.08-.28.29-.27c.64,0,1,.38,1,1.07s-.34,1.14-1,1.17c-.21,0-.31,0-.3-.28S134.73,76.47,134.73,76.18Z"/><path class="cls-21" d="M74.89,76.2c0-.3,0-.6,0-.9,0-.15,0-.23.2-.22a1.59,1.59,0,0,1,.53.08,1.17,1.17,0,0,1,.5,1.4.92.92,0,0,1-1,.76c-.16,0-.21-.07-.2-.22S74.89,76.5,74.89,76.2Z"/><path class="cls-31" d="M93.83,75.1c.13.44.22.79.35,1.13s0,.24-.18.24c-.58,0-.58,0-.42-.51Z"/><path class="cls-31" d="M40.9,75.1l.36,1.19c0,.12,0,.16-.14.18-.6.08-.65,0-.47-.54Z"/><path class="cls-19" d="M111.46,146.67c0,.31,0,.63,0,.94s.08.35.33.32H112c.11,0,.19,0,.19.15s0,.17-.17.17H110.5c-.12,0-.17,0-.17-.16s.06-.15.18-.16.44.09.55,0,0-.42,0-.63,0-.67,0-1,0-.36-.31-.33c-.1,0-.26.07-.29-.11s.15-.14.24-.17c.71-.2.71-.2.71.55Z"/><path class="cls-19" d="M111.46,106.35c0,.31,0,.63,0,.94s.08.35.33.32c.08,0,.17,0,.25,0s.15,0,.15.15,0,.17-.13.17h-1.59c-.12,0-.13-.07-.13-.16s0-.16.14-.16h0c.59-.06.59-.06.59-.65,0-.35,0-.7,0-1s0-.36-.31-.33c-.1,0-.26.07-.29-.11s.15-.14.24-.17c.71-.2.71-.2.71.55Z"/><path class="cls-4" d="M112.18,167a2.1,2.1,0,0,1-.1.78.85.85,0,0,1-.88.65.84.84,0,0,1-.88-.65,2.39,2.39,0,0,1,0-1.59.83.83,0,0,1,.86-.62.85.85,0,0,1,.88.61A2,2,0,0,1,112.18,167Z"/><path class="cls-4" d="M112.18,126.64a2.17,2.17,0,0,1-.1.82.86.86,0,0,1-.85.65.84.84,0,0,1-.9-.63,2.4,2.4,0,0,1,0-1.59.84.84,0,0,1,.88-.64.86.86,0,0,1,.88.65A2,2,0,0,1,112.18,126.64Z"/><path class="cls-4" d="M112.18,86.35a2.11,2.11,0,0,1-.1.78.85.85,0,0,1-.88.65.84.84,0,0,1-.88-.65,2.39,2.39,0,0,1,0-1.59.84.84,0,0,1,.86-.62.85.85,0,0,1,.88.61A2,2,0,0,1,112.18,86.35Z"/><path class="cls-19" d="M110.77,175.81c-.1,0-.32,0-.27.18s.22.11.33.11.21,0,.24.15h.39C111.46,175.63,111.43,175.62,110.77,175.81Z"/><path class="cls-19" d="M111.46,156.72c0,.29,0,.58,0,.87s.06.43.37.38a1.79,1.79,0,0,1,.22,0c.11,0,.14.06.14.16s0,.16-.14.16h-1.59c-.12,0-.13-.08-.13-.17s0-.15.11-.15h.07c.59-.06.59-.06.59-.66,0-.36,0-.72,0-1.08s-.05-.31-.28-.28a.82.82,0,0,1-.22,0c-.09,0-.15-.11-.1-.15a1.45,1.45,0,0,1,.8-.29c.23,0,.15.17.15.28C111.46,156.09,111.46,156.41,111.46,156.72Z"/><path class="cls-19" d="M111.46,136.55c0,.31,0,.63,0,.94s.07.36.32.32c.08,0,.17,0,.25,0s.15,0,.15.15,0,.17-.16.17h-1.55c-.12,0-.14-.06-.14-.16s0-.17.13-.16h0c.19,0,.44.09.55-.05s0-.42,0-.63,0-.72,0-1.08-.07-.27-.27-.26-.29.09-.33-.11.17-.15.27-.18c.68-.2.68-.19.68.52Z"/><path class="cls-19" d="M111.46,116.4c0,.31,0,.63,0,.94s.07.33.3.3.19,0,.29,0,.13.07.13.16,0,.16-.14.15h-1.55c-.13,0-.16-.06-.16-.18s0-.14.15-.15.48.1.57-.06a1.52,1.52,0,0,0,0-.67c0-.32,0-.65,0-1s-.07-.34-.32-.31-.26.07-.28-.13.16-.13.26-.16c.7-.2.7-.2.7.53Z"/><path class="cls-19" d="M111.46,96.24c0,.3,0,.6,0,.9s.06.39.34.34a2.19,2.19,0,0,1,.25,0c.11,0,.14.06.14.16s0,.16-.14.16h-1.59c-.13,0-.12-.08-.12-.17s0-.14.15-.15.48.1.57-.06a1.5,1.5,0,0,0,0-.67c0-.32,0-.65,0-1s-.06-.35-.32-.32c-.1,0-.26.07-.28-.12s.16-.14.25-.16c.7-.2.7-.2.7.52Z"/><path class="cls-19" d="M52.78,146.69c0,.31,0,.63,0,.94s.08.33.31.3h.25c.13,0,.17,0,.17.17s0,.15-.15.15H51.8c-.1,0-.15,0-.15-.14s0-.17.16-.18.47.11.57-.07,0-.42,0-.63,0-.67,0-1,0-.34-.29-.31-.29.09-.31-.13.17-.13.26-.16c.69-.2.7-.2.7.53Z"/><path class="cls-19" d="M52.78,126.56c0,.3,0,.6,0,.9s.07.33.31.3c.08,0,.17,0,.25,0s.17,0,.17.17,0,.15-.15.15H51.8c-.14,0-.16-.07-.15-.18s.05-.13.15-.14.48.1.57-.06a1.55,1.55,0,0,0,0-.67c0-.26,0-.53,0-.79s0-.58-.43-.49a.13.13,0,0,1-.17-.13c0-.12.07-.12.16-.14.81-.24.81-.24.81.59Z"/><path class="cls-4" d="M41.26,166.85c0,.3,0,.6,0,.9s.09.36.35.33a2.21,2.21,0,0,1,.25,0c.12,0,.13.07.13.17s0,.15-.14.15H40.25c-.11,0-.14-.05-.14-.16s0-.17.14-.16h0c.2,0,.48.1.58-.06s0-.42,0-.64,0-.65,0-1,0-.39-.33-.35c-.1,0-.26.07-.27-.14s.15-.12.23-.15c.72-.21.72-.21.72.54Z"/><path class="cls-19" d="M64.3,146.72v.58c0,.57,0,.57.54.63.1,0,.18,0,.18.15s-.09.17-.21.16H63.34c-.13,0-.2,0-.19-.18s.09-.14.19-.14c.6,0,.6,0,.6-.64,0-.36,0-.72,0-1.08s-.06-.32-.3-.3-.29.08-.3-.13.17-.13.27-.16c.7-.21.7-.2.7.53Z"/><path class="cls-19" d="M64.3,106.37c0,.32,0,.65,0,1s.06.29.27.26h.18c.11,0,.28-.07.28.16s-.18.15-.29.15H63.37c-.1,0-.21,0-.22-.15s.11-.17.23-.17c.55,0,.55,0,.55-.58,0-.37,0-.75,0-1.12s0-.36-.31-.33c-.1,0-.26.07-.3-.11s.14-.15.24-.18c.73-.21.73-.21.73.54Z"/><path class="cls-19" d="M52.78,136.57c0,.31,0,.63,0,.94s.08.33.31.3.17,0,.25,0,.17.05.16.17,0,.15-.15.15H51.8c-.11,0-.15,0-.15-.15s0-.17.16-.18.44.09.55,0,0-.44.05-.66,0-.67,0-1,0-.33-.29-.31-.29.09-.31-.13.17-.13.26-.15c.69-.2.69-.2.69.54Z"/><path class="cls-19" d="M52.78,156.73c0,.31,0,.63,0,.94s.06.34.3.3.19,0,.29,0,.13.07.13.16,0,.16-.14.15H51.81c-.13,0-.16-.06-.16-.18s0-.14.15-.15.48.1.57-.06a1.52,1.52,0,0,0,0-.67c0-.34,0-.67,0-1s-.07-.29-.29-.28-.29.08-.31-.12.16-.13.26-.16c.7-.2.7-.2.7.53Z"/><path class="cls-13" d="M75.81,96.23c0,.32,0,.65,0,1s.07.31.29.28.22,0,.32,0,.12.06.12.14,0,.18-.12.18H74.8c-.12,0-.12-.09-.13-.17s.06-.13.16-.14.49.1.58-.06,0-.44,0-.67,0-.65,0-1,0-.35-.31-.32c-.1,0-.26.07-.28-.12s.16-.14.25-.16c.7-.2.71-.2.71.55Z"/><path class="cls-13" d="M75.81,136.56c0,.3,0,.6,0,.9s.09.39.36.35h.22c.11,0,.15,0,.15.14s0,.18-.16.17H74.83c-.13,0-.16-.07-.16-.18s.08-.13.16-.14.48.1.57-.06a1.52,1.52,0,0,0,0-.67c0-.34,0-.67,0-1s-.06-.3-.28-.28-.29.08-.31-.12.16-.13.25-.16c.7-.2.7-.2.7.52Z"/><path class="cls-13" d="M75.11,175.82c-.09,0-.27,0-.25.16s.18.13.28.12.27,0,.3.15h.37C75.81,175.63,75.78,175.63,75.11,175.82Z"/><path class="cls-13" d="M75.81,116.39c0,.31,0,.63,0,.94s.08.35.33.31c.08,0,.17,0,.25,0s.16,0,.15.14,0,.17-.12.17H74.8c-.12,0-.12-.09-.12-.18s0-.13.13-.14h0c.2,0,.48.1.58-.06s0-.44,0-.67,0-.65,0-1-.06-.35-.32-.32c-.1,0-.26.07-.28-.12s.16-.14.25-.16c.7-.2.7-.2.7.52Z"/><path class="cls-13" d="M75.81,156.7c0,.34,0,.67,0,1s.07.28.27.26h.32c.12,0,.13.07.13.16s0,.16-.14.16H74.81c-.11,0-.14-.06-.14-.16s0-.16.14-.16h.07c.56,0,.56,0,.56-.6,0-.37,0-.75,0-1.12s-.05-.33-.3-.3-.26.08-.3-.11.17-.16.27-.18c.68-.2.68-.19.68.51Z"/><path class="cls-4" d="M40.56,175.81c-.09,0-.27,0-.25.17s.18.13.28.12.27,0,.3.15h.38C41.26,175.62,41.23,175.62,40.56,175.81Z"/><path class="cls-19" d="M64.3,116.41c0,.31,0,.63,0,.94s.06.34.3.3a2,2,0,0,1,.29,0c.1,0,.15,0,.14.15s0,.16-.14.16H63.27c-.1,0-.12-.06-.11-.14s0-.18.12-.17h.07c.59,0,.59,0,.59-.65,0-.36,0-.72,0-1.08s0-.31-.27-.3-.3.09-.33-.1.2-.17.3-.2c.66-.21.66-.2.66.48Z"/><path class="cls-19" d="M64.3,156.72q0,.32,0,.65c0,.53,0,.53.54.59.1,0,.18,0,.19.15s-.09.17-.21.17H63.34c-.13,0-.2,0-.19-.17s.08-.14.19-.15c.6,0,.6-.05.6-.67,0-.35,0-.7,0-1s-.06-.33-.3-.3-.29.08-.31-.13.17-.13.27-.16c.7-.21.7-.2.7.53Z"/><path class="cls-4" d="M53.5,106.51a2.11,2.11,0,0,1-.1.78.85.85,0,0,1-.88.65.84.84,0,0,1-.88-.65,2.39,2.39,0,0,1,0-1.59.83.83,0,0,1,.86-.62.85.85,0,0,1,.88.61A2,2,0,0,1,53.5,106.51Z"/><path class="cls-4" d="M53.5,167a2,2,0,0,1-.11.78.85.85,0,0,1-.86.64.84.84,0,0,1-.89-.64,2.38,2.38,0,0,1,0-1.62.83.83,0,0,1,.84-.6.85.85,0,0,1,.89.59A2.06,2.06,0,0,1,53.5,167Z"/><path class="cls-4" d="M53.5,86.33a2.13,2.13,0,0,1-.1.8.85.85,0,0,1-.88.65.84.84,0,0,1-.88-.65,2.4,2.4,0,0,1,0-1.59.83.83,0,0,1,.87-.61.85.85,0,0,1,.87.61A2,2,0,0,1,53.5,86.33Z"/><path class="cls-4" d="M74.56,106.6a2.35,2.35,0,0,1,.13-.93.84.84,0,0,1,.86-.58.82.82,0,0,1,.85.58,2.42,2.42,0,0,1,0,1.69.8.8,0,0,1-.82.58.83.83,0,0,1-.88-.55A2,2,0,0,1,74.56,106.6Z"/><path class="cls-4" d="M76.55,146.85a2.09,2.09,0,0,1-.12.78.84.84,0,0,1-.85.64.81.81,0,0,1-.88-.6,2.4,2.4,0,0,1,0-1.69.82.82,0,0,1,.86-.57.83.83,0,0,1,.85.59,1.65,1.65,0,0,1,.1.34C76.54,146.51,76.54,146.68,76.55,146.85Z"/><path class="cls-4" d="M76.53,167a1.88,1.88,0,0,1-.1.78.84.84,0,0,1-.85.64.83.83,0,0,1-.9-.62,2.44,2.44,0,0,1,0-1.66.82.82,0,0,1,.86-.57.84.84,0,0,1,.85.59A1.92,1.92,0,0,1,76.53,167Z"/><path class="cls-4" d="M76.53,86.36a1.88,1.88,0,0,1-.1.78.84.84,0,0,1-.85.64.83.83,0,0,1-.9-.62,2.44,2.44,0,0,1,0-1.66.82.82,0,0,1,.86-.57.84.84,0,0,1,.85.59A1.92,1.92,0,0,1,76.53,86.36Z"/><path class="cls-4" d="M74.55,126.64a2.31,2.31,0,0,1,.14-.81.85.85,0,0,1,.89-.59.82.82,0,0,1,.84.61,2.45,2.45,0,0,1,0,1.66.8.8,0,0,1-.85.59.81.81,0,0,1-.86-.58,1.51,1.51,0,0,1-.11-.34C74.57,127,74.56,126.82,74.55,126.64Z"/><path class="cls-4" d="M65,126.69a2.24,2.24,0,0,1-.13.81.92.92,0,0,1-1.72,0,2.44,2.44,0,0,1,0-1.66.92.92,0,0,1,1.74,0A2.25,2.25,0,0,1,65,126.69Z"/><path class="cls-4" d="M65,167a2.24,2.24,0,0,1-.13.81.84.84,0,0,1-.84.61.83.83,0,0,1-.89-.59,2.45,2.45,0,0,1,0-1.69.83.83,0,0,1,.86-.58.84.84,0,0,1,.86.58A2.2,2.2,0,0,1,65,167Z"/><path class="cls-4" d="M65,86.33a2.27,2.27,0,0,1-.13.81.92.92,0,0,1-1.74,0,2.43,2.43,0,0,1,0-1.63.93.93,0,0,1,1.73,0A2.21,2.21,0,0,1,65,86.33Z"/><path class="cls-4" d="M42,106.53a2.17,2.17,0,0,1-.15.81.83.83,0,0,1-.84.6.82.82,0,0,1-.88-.6,2.52,2.52,0,0,1,0-1.66.83.83,0,0,1,.85-.6.84.84,0,0,1,.88.6,2,2,0,0,1,.1.38C42,106.22,42,106.37,42,106.53Z"/><path class="cls-4" d="M42,86.37a1.94,1.94,0,0,1-.13.81.83.83,0,0,1-.84.6.82.82,0,0,1-.88-.6,2.52,2.52,0,0,1,0-1.66.83.83,0,0,1,.85-.6.84.84,0,0,1,.88.6A2,2,0,0,1,42,86.37Z"/><path class="cls-4" d="M42,126.68a1.82,1.82,0,0,1-.07.63.89.89,0,0,1-.89.79.86.86,0,0,1-.94-.75,2.48,2.48,0,0,1,0-1.52.92.92,0,0,1,1.72,0A2,2,0,0,1,42,126.68Z"/><path class="cls-4" d="M42,146.85a1.78,1.78,0,0,1-.07.64.89.89,0,0,1-.89.78.85.85,0,0,1-.93-.73,2.49,2.49,0,0,1,0-1.49.84.84,0,0,1,.89-.64.85.85,0,0,1,.88.65A1.94,1.94,0,0,1,42,146.85Z"/><path class="cls-4" d="M53.5,116.55a2.14,2.14,0,0,1-.1.78.86.86,0,0,1-.87.66.84.84,0,0,1-.88-.64,2.38,2.38,0,0,1,0-1.59.84.84,0,0,1,.89-.63.85.85,0,0,1,.86.63A2.07,2.07,0,0,1,53.5,116.55Z"/><path class="cls-4" d="M53.39,176.21a.85.85,0,0,0-.89-.6.83.83,0,0,0-.84.6v0h1.75Z"/><path class="cls-4" d="M53.51,96.41a2.32,2.32,0,0,1-.12.78.85.85,0,0,1-.85.64.84.84,0,0,1-.89-.63,2.38,2.38,0,0,1,0-1.62.82.82,0,0,1,.84-.6.85.85,0,0,1,.89.59,1.37,1.37,0,0,1,.09.31C53.49,96,53.5,96.23,53.51,96.41Z"/><path class="cls-4" d="M65,96.39a2.26,2.26,0,0,1-.13.81.84.84,0,0,1-.86.62.83.83,0,0,1-.87-.61,2.43,2.43,0,0,1,0-1.63.92.92,0,0,1,1.75,0A2.24,2.24,0,0,1,65,96.39Z"/><path class="cls-4" d="M65,136.71a2.25,2.25,0,0,1-.13.81.84.84,0,0,1-.86.63.83.83,0,0,1-.87-.61,2.44,2.44,0,0,1,0-1.66.93.93,0,0,1,1.73,0A2.21,2.21,0,0,1,65,136.71Z"/><path class="cls-4" d="M64.89,176.22a.93.93,0,0,0-1.73,0v0H64.9Z"/><path class="cls-4" d="M42,116.55a2.28,2.28,0,0,1-.08.64A.89.89,0,0,1,41,118a.86.86,0,0,1-.94-.75,2.48,2.48,0,0,1,0-1.52.92.92,0,0,1,1.71,0,1.94,1.94,0,0,1,.11.38C42,116.24,42,116.4,42,116.55Z"/><path class="cls-4" d="M42,156.89a1.8,1.8,0,0,1-.07.63.89.89,0,0,1-.89.79.85.85,0,0,1-.94-.75,2.48,2.48,0,0,1,0-1.52.83.83,0,0,1,.86-.58.84.84,0,0,1,.86.58A2,2,0,0,1,42,156.89Z"/><path class="cls-4" d="M42,96.4a1.83,1.83,0,0,1-.07.63.89.89,0,0,1-.88.79.86.86,0,0,1-.95-.75,2.48,2.48,0,0,1,0-1.52A.83.83,0,0,1,41,95a.84.84,0,0,1,.86.58A2,2,0,0,1,42,96.4Z"/><path class="cls-4" d="M42,136.71a2.33,2.33,0,0,1-.08.64.9.9,0,0,1-.88.8.86.86,0,0,1-.95-.75,2.48,2.48,0,0,1,0-1.52.92.92,0,0,1,1.72,0,1.94,1.94,0,0,1,.11.38C42,136.4,42,136.55,42,136.71Z"/><path class="cls-1" d="M110.55,167a1.58,1.58,0,0,1,.16-.8.52.52,0,0,1,.95,0,1.76,1.76,0,0,1,0,1.66.52.52,0,0,1-1,0A1.6,1.6,0,0,1,110.55,167Z"/><path class="cls-1" d="M110.55,126.66a1.62,1.62,0,0,1,.15-.77.55.55,0,0,1,.51-.34.51.51,0,0,1,.48.33,1.93,1.93,0,0,1,0,1.6.51.51,0,0,1-.48.32.54.54,0,0,1-.51-.34A1.63,1.63,0,0,1,110.55,126.66Z"/><path class="cls-1" d="M110.55,86.36a1.66,1.66,0,0,1,.13-.77.55.55,0,0,1,.53-.36.53.53,0,0,1,.49.36,2,2,0,0,1,0,1.5.53.53,0,0,1-.51.38.57.57,0,0,1-.54-.41A1.6,1.6,0,0,1,110.55,86.36Z"/><path class="cls-1" d="M51.87,106.5a1.63,1.63,0,0,1,.14-.77.55.55,0,0,1,.5-.35.5.5,0,0,1,.48.32,1.93,1.93,0,0,1,0,1.6.51.51,0,0,1-.51.33.55.55,0,0,1-.49-.36A1.62,1.62,0,0,1,51.87,106.5Z"/><path class="cls-1" d="M51.87,167a1.63,1.63,0,0,1,.15-.77.55.55,0,0,1,.51-.34.51.51,0,0,1,.48.32,1.93,1.93,0,0,1,0,1.6.51.51,0,0,1-.48.33.54.54,0,0,1-.51-.33A1.64,1.64,0,0,1,51.87,167Z"/><path class="cls-1" d="M51.87,86.34a1.63,1.63,0,0,1,.14-.77.55.55,0,0,1,.51-.34.51.51,0,0,1,.48.32,1.93,1.93,0,0,1,0,1.6.51.51,0,0,1-.51.33.55.55,0,0,1-.49-.36A1.62,1.62,0,0,1,51.87,86.34Z"/><path class="cls-1" d="M76.19,106.5a1.62,1.62,0,0,1-.11.74.57.57,0,0,1-.51.39.54.54,0,0,1-.55-.39,2,2,0,0,1,0-1.51.53.53,0,0,1,.5-.35.55.55,0,0,1,.51.34A1.56,1.56,0,0,1,76.19,106.5Z"/><path class="cls-1" d="M76.19,146.82a1.64,1.64,0,0,1-.11.73.57.57,0,0,1-.53.4.53.53,0,0,1-.52-.38,2,2,0,0,1,0-1.51.53.53,0,0,1,.49-.36.55.55,0,0,1,.53.36A1.56,1.56,0,0,1,76.19,146.82Z"/><path class="cls-1" d="M76.19,167a1.53,1.53,0,0,1-.12.74.56.56,0,0,1-.52.37.53.53,0,0,1-.52-.37,2,2,0,0,1,0-1.51.53.53,0,0,1,.49-.36.55.55,0,0,1,.53.36A1.6,1.6,0,0,1,76.19,167Z"/><path class="cls-1" d="M76.19,86.33a1.65,1.65,0,0,1-.11.73.57.57,0,0,1-.53.41A.53.53,0,0,1,75,87.1a2,2,0,0,1,0-1.51.53.53,0,0,1,.49-.36.55.55,0,0,1,.53.36A1.55,1.55,0,0,1,76.19,86.33Z"/><path class="cls-1" d="M76.19,126.69a1.51,1.51,0,0,1-.13.74.56.56,0,0,1-.49.36.52.52,0,0,1-.53-.36,1.94,1.94,0,0,1,0-1.54.53.53,0,0,1,.5-.35.56.56,0,0,1,.53.37A1.64,1.64,0,0,1,76.19,126.69Z"/><path class="cls-1" d="M64.66,126.67a1.43,1.43,0,0,1-.12.74.55.55,0,0,1-.51.39.54.54,0,0,1-.54-.4,2,2,0,0,1,0-1.44.54.54,0,0,1,.54-.4.56.56,0,0,1,.53.41A1.4,1.4,0,0,1,64.66,126.67Z"/><path class="cls-1" d="M64.66,167a1.43,1.43,0,0,1-.13.77.54.54,0,0,1-.5.36.51.51,0,0,1-.51-.34,1.94,1.94,0,0,1,0-1.57.52.52,0,0,1,.51-.34.54.54,0,0,1,.5.35A1.41,1.41,0,0,1,64.66,167Z"/><path class="cls-1" d="M64.66,86.35a1.42,1.42,0,0,1-.11.72.55.55,0,0,1-1.07,0,2,2,0,0,1,0-1.41.55.55,0,0,1,.53-.42.57.57,0,0,1,.56.43A1.41,1.41,0,0,1,64.66,86.35Z"/><path class="cls-1" d="M41.63,106.5a1.46,1.46,0,0,1-.15.82.53.53,0,0,1-1,0,1.84,1.84,0,0,1,0-1.6.51.51,0,0,1,.51-.33.55.55,0,0,1,.49.36A1.48,1.48,0,0,1,41.63,106.5Z"/><path class="cls-1" d="M41.63,86.35a1.46,1.46,0,0,1-.13.77.54.54,0,0,1-.5.35.52.52,0,0,1-.51-.34,1.91,1.91,0,0,1,0-1.57.52.52,0,0,1,.51-.34.55.55,0,0,1,.5.35A1.51,1.51,0,0,1,41.63,86.35Z"/><path class="cls-1" d="M41.63,126.68a1.46,1.46,0,0,1-.14.78.54.54,0,0,1-.51.34.51.51,0,0,1-.48-.32,1.89,1.89,0,0,1,0-1.61.51.51,0,0,1,.48-.32.55.55,0,0,1,.51.34A1.5,1.5,0,0,1,41.63,126.68Z"/><path class="cls-1" d="M41.63,146.82a1.49,1.49,0,0,1-.13.78A.54.54,0,0,1,41,148a.52.52,0,0,1-.51-.33,1.91,1.91,0,0,1,0-1.57.52.52,0,0,1,.51-.34.56.56,0,0,1,.52.38A1.48,1.48,0,0,1,41.63,146.82Z"/><path class="cls-1" d="M53.15,116.55a1.34,1.34,0,0,1-.13.78.53.53,0,0,1-.5.34.51.51,0,0,1-.5-.35,2,2,0,0,1,0-1.57.51.51,0,0,1,.48-.33.53.53,0,0,1,.51.34A1.31,1.31,0,0,1,53.15,116.55Z"/><path class="cls-1" d="M53,176.24a.51.51,0,0,0-.48-.32.54.54,0,0,0-.5.33h1Z"/><path class="cls-1" d="M51.87,96.38a1.63,1.63,0,0,1,.15-.77.55.55,0,0,1,.51-.34.51.51,0,0,1,.48.32,1.93,1.93,0,0,1,0,1.6.51.51,0,0,1-.48.33.54.54,0,0,1-.51-.33A1.62,1.62,0,0,1,51.87,96.38Z"/><path class="cls-1" d="M64.66,96.39a1.43,1.43,0,0,1-.13.77.54.54,0,0,1-.5.36.53.53,0,0,1-.52-.37,2,2,0,0,1,0-1.51.53.53,0,0,1,.52-.37.55.55,0,0,1,.52.38A1.43,1.43,0,0,1,64.66,96.39Z"/><path class="cls-1" d="M64.66,136.73a1.38,1.38,0,0,1-.15.8.52.52,0,0,1-1,0,1.8,1.8,0,0,1,0-1.64.52.52,0,0,1,1,0A1.39,1.39,0,0,1,64.66,136.73Z"/><path class="cls-1" d="M64,175.91a.51.51,0,0,0-.48.32h1A.54.54,0,0,0,64,175.91Z"/><path class="cls-1" d="M41.63,116.55a1.46,1.46,0,0,1-.15.82.53.53,0,0,1-1,0,1.78,1.78,0,0,1,0-1.63.53.53,0,0,1,1,0A1.46,1.46,0,0,1,41.63,116.55Z"/><path class="cls-1" d="M41.63,156.89a1.44,1.44,0,0,1-.15.8.53.53,0,0,1-1,0,1.78,1.78,0,0,1,0-1.63.53.53,0,0,1,1,0A1.5,1.5,0,0,1,41.63,156.89Z"/><path class="cls-1" d="M41.63,96.37a1.49,1.49,0,0,1-.14.82.54.54,0,0,1-.47.33.51.51,0,0,1-.51-.33,1.91,1.91,0,0,1,0-1.57.52.52,0,0,1,.5-.35.56.56,0,0,1,.52.37A1.46,1.46,0,0,1,41.63,96.37Z"/><path class="cls-1" d="M41.63,136.72a1.46,1.46,0,0,1-.13.77.54.54,0,0,1-.5.35.52.52,0,0,1-.51-.34,1.91,1.91,0,0,1,0-1.57.52.52,0,0,1,.51-.34.55.55,0,0,1,.5.35A1.52,1.52,0,0,1,41.63,136.72Z"/><path class="cls-32" d="M111.46,167c0,.21-.09.31-.29.3a.25.25,0,0,1-.25-.29c0-.18.08-.3.28-.3A.24.24,0,0,1,111.46,167Z"/><path class="cls-32" d="M111.46,126.63c0,.18-.06.3-.26.3a.25.25,0,0,1-.28-.26c0-.17.06-.31.25-.32S111.46,126.44,111.46,126.63Z"/><path class="cls-32" d="M111.46,86.32c0,.19-.08.3-.27.29a.25.25,0,0,1-.26-.28c0-.18.07-.31.27-.31S111.46,86.13,111.46,86.32Z"/><path class="cls-32" d="M52.78,106.47c0,.18-.06.3-.26.3a.25.25,0,0,1-.27-.27c0-.18.06-.31.26-.32S52.78,106.28,52.78,106.47Z"/><path class="cls-32" d="M52.78,166.93c0,.23-.09.32-.27.32a.26.26,0,0,1-.27-.3c0-.18.1-.3.29-.28A.24.24,0,0,1,52.78,166.93Z"/><path class="cls-32" d="M52.78,86.31c0,.18-.06.3-.26.3a.25.25,0,0,1-.27-.27c0-.17.06-.31.25-.32S52.78,86.11,52.78,86.31Z"/><path class="cls-29" d="M75.81,106.49c0,.2-.1.28-.29.27s-.24-.13-.24-.29.08-.3.28-.3S75.83,106.31,75.81,106.49Z"/><path class="cls-29" d="M75.81,146.81c0,.2-.09.29-.28.29s-.25-.11-.25-.28.07-.31.27-.31S75.82,146.62,75.81,146.81Z"/><path class="cls-29" d="M75.81,167c0,.2-.1.28-.29.27s-.24-.13-.24-.29.08-.3.28-.3S75.83,166.79,75.81,167Z"/><path class="cls-29" d="M75.81,86.34c0,.2-.11.28-.29.27s-.24-.13-.24-.29.09-.3.28-.29S75.83,86.15,75.81,86.34Z"/><path class="cls-29" d="M75.81,126.65c0,.19-.08.28-.27.28s-.25-.11-.26-.28.07-.31.26-.31S75.82,126.45,75.81,126.65Z"/><path class="cls-33" d="M64,126.33a.28.28,0,0,1,.28.33.28.28,0,1,1-.55,0A.28.28,0,0,1,64,126.33Z"/><path class="cls-33" d="M64.3,167c0,.18-.09.29-.29.28a.25.25,0,0,1-.26-.28.26.26,0,0,1,.27-.31C64.21,166.66,64.3,166.78,64.3,167Z"/><path class="cls-33" d="M64,86a.27.27,0,0,1,.28.3c0,.18-.09.29-.28.29a.25.25,0,0,1-.27-.28A.28.28,0,0,1,64,86Z"/><path class="cls-32" d="M41.27,106.47c0,.21-.11.3-.3.3s-.25-.14-.25-.29.08-.31.28-.3A.26.26,0,0,1,41.27,106.47Z"/><path class="cls-32" d="M41.27,86.26c0,.25-.09.35-.28.35s-.26-.12-.26-.27S40.78,86,41,86A.25.25,0,0,1,41.27,86.26Z"/><path class="cls-32" d="M41,126.93c-.21,0-.28-.12-.29-.29a.27.27,0,1,1,.29.29Z"/><path class="cls-32" d="M41,147.09c-.21,0-.28-.13-.28-.3a.27.27,0,1,1,.28.3Z"/><path class="cls-32" d="M52.78,116.51c0,.21-.09.31-.28.3a.25.25,0,0,1-.25-.29c0-.18.08-.3.27-.3A.24.24,0,0,1,52.78,116.51Z"/><path class="cls-32" d="M52.78,96.34c0,.2-.07.32-.27.32a.25.25,0,0,1-.27-.27c0-.18.07-.31.26-.32A.24.24,0,0,1,52.78,96.34Z"/><path class="cls-33" d="M64.09,96.65c-.25,0-.34-.11-.34-.28a.26.26,0,0,1,.28-.3.25.25,0,0,1,.27.27C64.31,96.51,64.24,96.64,64.09,96.65Z"/><path class="cls-33" d="M64,136.38a.27.27,0,0,1,.29.29.26.26,0,0,1-.24.3.26.26,0,0,1-.31-.27A.28.28,0,0,1,64,136.38Z"/><path class="cls-32" d="M41.27,116.49c0,.23-.1.33-.29.33s-.25-.13-.26-.28.07-.31.27-.31A.25.25,0,0,1,41.27,116.49Z"/><path class="cls-32" d="M41.27,156.86a.26.26,0,0,1-.29.28c-.19,0-.25-.13-.25-.28s.07-.31.27-.31S41.26,156.67,41.27,156.86Z"/><path class="cls-32" d="M41.26,96.41c0,.16-.11.25-.3.24s-.24-.14-.25-.29.08-.31.28-.3S41.27,96.2,41.26,96.41Z"/><path class="cls-32" d="M41,137c-.21,0-.27-.14-.27-.31a.25.25,0,0,1,.26-.28c.19,0,.28.11.28.29A.26.26,0,0,1,41,137Z"/></g></svg>