<svg xmlns="http://www.w3.org/2000/svg" viewBox="0 0 1080.19 1920.21">
    <defs>
        <style>
            .cls-1{fill:#f8f8f8;}.cls-2{fill:#03a8f2;}.cls-3{fill:#ededed;}.cls-4{fill:#0287d0;}.cls-5{fill:#e9e9e9;}.cls-6{fill:#e5e5e5;}.cls-7{fill:#d7d7d7;}.cls-8{fill:#cfcfcf;}.cls-9{fill:#dfdfdf;}.cls-10{fill:#737373;}.cls-11{fill:#747474;}.cls-12{fill:#787878;}.cls-13{fill:#767676;}.cls-14{fill:#777;}.cls-15{fill:#c2c2c2;}.cls-16{fill:#fefefe;}.cls-17{fill:#fdfefe;}.cls-18{fill:#fbfdfe;}.cls-19{fill:#fcfdfe;}.cls-20{fill:#f5fbfe;}.cls-21{fill:#69cbf8;}.cls-22{fill:#6e6e6e;}.cls-23{fill:#6f6f6f;}.cls-24{fill:#707070;}.cls-25{fill:#717171;}.cls-26{fill:#e3e3e3;}.cls-27{fill:#e4e4e4;}.cls-28{fill:#efefef;}.cls-29{fill:#f0f0f0;}.cls-30{fill:#eee;}.cls-31{fill:#ececec;}.cls-32{fill:#4cabde;}.cls-33{fill:#fafcfd;}.cls-34{fill:#4eabde;}.cls-35{fill:#fbfdfd;}.cls-36{fill:#f3f9fc;}.cls-37{fill:#f2f8fc;}.cls-38{fill:#f1f8fc;}.cls-39{fill:#d1e9f6;}.cls-40{fill:#f5f5f5;}.cls-41{fill:#f9f9f9;}.cls-42{fill:#03a8f3;}.cls-43{fill:#04a9f3;}.cls-44{fill:#010101;}.cls-45{fill:#ebebeb;}.cls-46{fill:#088ad1;}.cls-47{fill:#5bb1e0;}.cls-48{fill:#0b8cd2;}.cls-49{fill:#1a93d5;}
        </style>
    </defs>
    <title>Asset 1</title>
    <g id="Layer_2" data-name="Layer 2">
        <g id="Layer_1-2" data-name="Layer 1">
            <path class="cls-1"
                  d="M1,1795V929c1.44-1.35,3.25-1.58,5.11-1.66s4-.06,6-.06q528.9,0,1057.79,0c3.74,0,7.72-1,11.1,1.68v866c-1.44,1.35-3.25,1.58-5.11,1.66s-4,.06-6,.06q-528.9,0-1057.8,0C8.36,1796.68,4.38,1797.65,1,1795Z"
                  transform="translate(-0.92 -0.87)"/>
            <path class="cls-2"
                  d="M1081,64V641a6.61,6.61,0,0,1-1.71,1.05,29.4,29.4,0,0,1-7.46.44H10.17a29.83,29.83,0,0,1-7.46-.43A6.45,6.45,0,0,1,1,641V64c1.44-1.35,3.25-1.58,5.11-1.66s4-.06,6-.06q528.9,0,1057.79,0C1073.64,62.32,1077.62,61.35,1081,64Z"
                  transform="translate(-0.92 -0.87)"/>
            <path class="cls-3"
                  d="M1081,929H1V656a6.21,6.21,0,0,1,4.63-1.49c1.5,0,3,0,4.5,0q530.88,0,1061.75,0c3.07,0,6.39-.92,9.12,1.46Z"
                  transform="translate(-0.92 -0.87)"/>
            <path d="M1,1795H1081c0,40.83,0,81.67.08,122.5,0,3-.6,3.58-3.58,3.58q-536.5-.13-1073,0c-3,0-3.59-.6-3.58-3.58C1,1876.67,1,1835.83,1,1795Z"
                  transform="translate(-0.92 -0.87)"/>
            <path class="cls-4"
                  d="M1081,64H1C1,44,1.05,24,.93,4,.92,1.5,1.5.52,4,1A8.24,8.24,0,0,0,5.5,1Q541,1,1076.5.91c3.75,0,4.64.84,4.6,4.59C1080.88,25,1081,44.5,1081,64Z"
                  transform="translate(-0.92 -0.87)"/>
            <path class="cls-5"
                  d="M1081,656H1v-3a6.21,6.21,0,0,1,4.63-1.49c1.5,0,3,0,4.5,0q530.88,0,1061.75,0c3.07,0,6.39-.92,9.12,1.46Z"
                  transform="translate(-0.92 -0.87)"/>
            <path class="cls-6"
                  d="M1081,653H1v-3c1.32-1.24,3-1.38,4.66-1.41s3.67,0,5.5,0q529.84,0,1059.68,0c3.4,0,7-1,10.16,1.39Z"
                  transform="translate(-0.92 -0.87)"/>
            <path class="cls-7"
                  d="M1081,644v4c-2.42,1.68-5.18,1-7.78,1q-207.74.05-415.48,0-324.23,0-648.47,0c-2.76,0-5.68.77-8.27-1v-4c4.62.1,9.22.6,13.86.6q526.14-.07,1052.28,0C1071.78,644.6,1076.38,644.1,1081,644Z"
                  transform="translate(-0.92 -0.87)"/>
            <path class="cls-8"
                  d="M1081,644a15.32,15.32,0,0,1-8.58,2Q541,646,9.58,646A15.31,15.31,0,0,1,1,644v-3l1,.17c3.12,1.56,6.47,1.34,9.8,1.34H1070.18c3.33,0,6.68.21,9.8-1.34l1-.17Z"
                  transform="translate(-0.92 -0.87)"/>
            <path class="cls-9" d="M1,648H1081v2H1Z" transform="translate(-0.92 -0.87)"/>
            <path d="M921.13,1025c6.15,0,12.3,0,18.45,0,4.32,0,6.44,2,6.42,6.35q-.05,17.21,0,34.41c0,4.35-2.1,6.37-6.42,6.35-12.3,0-24.6-.05-36.91,0a6.37,6.37,0,0,1-5.9-2.94c-4.11-6.24-8.23-12.48-12.45-18.65a3,3,0,0,1,0-4c4.2-6.19,8.31-12.43,12.41-18.67a6.31,6.31,0,0,1,5.91-2.92C908.83,1025,915,1025,921.13,1025Z"
                  transform="translate(-0.92 -0.87)"/>
            <path class="cls-10"
                  d="M405.43,1070.35c-9.55-8.09-11-18.77-3.56-26.32,7.1-7.2,21.77-7,28.57.38,7.12,7.73,5.52,18.12-4.19,26.05,5.3,3.47,9.56,7.61,9.82,14.47.19,5-1,9.55-4.58,13.25-7.91,8.08-24.2,7.75-31.6-.65C392.76,1089.46,395,1078.33,405.43,1070.35Z"
                  transform="translate(-0.92 -0.87)"/>
            <path class="cls-10"
                  d="M396,1657.92c0-7.31-.32-14,1.89-20.43,3-8.68,8.57-12.63,18.13-12.6s15.62,3.87,17.9,12.77a78.29,78.29,0,0,1-.06,39.49c-2.25,8.66-8.44,12.69-17.46,12.79-9.41.1-15.35-3.93-18.35-12.42C395.75,1670.93,395.91,1664.1,396,1657.92Z"
                  transform="translate(-0.92 -0.87)"/>
            <path class="cls-10"
                  d="M675.85,1076.14c-1.63,1.18-2.79,2.1-4,2.89-9.37,6-21.06,2.5-25.44-7.74a26.07,26.07,0,0,1-.47-20c2.75-7.38,7.94-11.68,15.95-12.37,8.53-.73,15.64,2.22,18.85,10.14,5.91,14.58,5.43,29.45-2.48,43.22-4.73,8.24-13.32,10.43-22.4,10.71-2.36.07-2.89-1-2.71-3,.15-1.68-.68-4,2.35-3.91a9.2,9.2,0,0,0,1,0C669.18,1094.88,674.31,1089.79,675.85,1076.14Z"
                  transform="translate(-0.92 -0.87)"/>
            <path class="cls-10"
                  d="M656,1260.06c13.36-8.32,26.85-2.27,29.52,13.24,2.91,16.9-10.48,29.8-25.73,24.62-8.1-2.75-12.28-9.24-13.49-17.18-1.38-9.08-1.17-18.29,1.75-27.18,3.78-11.49,12.57-18.15,24.48-18.69,2.07-.1,4.41-.87,4.42,2.8,0,2.86-.62,4-3.78,4.26-10.25.79-15.87,5.88-18.36,16C654.57,1259,653.78,1260.36,656,1260.06Z"
                  transform="translate(-0.92 -0.87)"/>
            <path class="cls-10"
                  d="M408.29,1258.71c2.3-.63,4.13-1.32,6-1.64,13.33-2.25,22,5,23.23,19.3,1.42,16.77-13.82,27.61-29.24,20.79a16.36,16.36,0,0,1-9.62-10.8c-.47-1.65-2.29-4.29.66-4.94,2.28-.51,5.43-1.74,6.8,2.61,2,6.46,7,9,13.6,8,5.2-.83,8.86-5.27,9.35-11.41.46-5.72-.14-11.22-5.51-14.56s-10.83-2.76-15.86,1c-2.42,1.79-4.52.17-6.58-.43-1.88-.54-1.08-2.58-.94-3.94.8-8.11,1.83-16.19,2.54-24.31.24-2.72,1.16-3.68,3.95-3.63q12.73.24,25.46,0c2.85,0,3.74,1,3.73,3.75s-.72,3.88-3.65,3.79c-6.15-.18-12.32,0-18.47-.1-2.63-.06-3.9.53-4,3.48C409.53,1249.86,408.82,1254.1,408.29,1258.71Z"
                  transform="translate(-0.92 -0.87)"/>
            <path class="cls-10"
                  d="M674.19,1460.48c8.53,4.94,11.06,10,9.74,18.7-1.09,7.24-6.56,12.55-14.74,14.31-11.35,2.44-22.13-3-24.57-12.48-.42-1.63-2-4.39,1.21-4.68,2.31-.21,5.52-1.86,6.85,2.53,2.23,7.38,9.38,10.32,16.78,7.42,5.66-2.21,8.33-9.37,5.63-15.55s-8.24-6.59-13.86-6.69c-2.4,0-4.64.34-4.39-3.42.17-2.55.84-3.65,3.47-3.43a26.4,26.4,0,0,0,5-.13c5.85-.63,9.5-4.45,9.75-10.08.26-5.86-2.44-9.93-7.27-11-6.88-1.51-12.3,1-14.46,6.63-.45,1.17.16,3-1.48,3.42-2.08.5-4.55,1-6.29-.25s-.56-3.4,0-5.06c2.81-8.74,12.88-13.57,23.86-11.54,8.85,1.63,14.2,8.63,13.8,18C682.92,1453.32,679.25,1457.18,674.19,1460.48Z"
                  transform="translate(-0.92 -0.87)"/>
            <path class="cls-10"
                  d="M406.5,1486.22c9.79,0,18.41,0,27,0,2.49,0,4.44-.15,4.46,3.48,0,3.8-2.18,3.33-4.52,3.33-10.82,0-21.65,0-32.47-.06-1.61,0-4,1.14-4.7-1.29a6,6,0,0,1,1.29-6c5.76-6.23,11.41-12.57,17-18.93,3.75-4.23,7.86-8.22,10.35-13.39,2.23-4.63,2.42-9.34-.73-13.7-3-4.09-7.31-4.29-11.73-3.62-5,.77-8.17,3.92-8.84,8.86s-4,3.77-6.68,3.39c-3.52-.5-1.81-3.32-1.39-5.11,2.2-9.23,9.82-14.39,20.74-14.23,9.85.14,16.34,4.81,18.18,13.12,1.32,6-.75,11.21-3.81,16.09-5.52,8.82-13.39,15.67-20.13,23.47C409.53,1482.81,408.43,1484,406.5,1486.22Z"
                  transform="translate(-0.92 -0.87)"/>
            <path class="cls-10"
                  d="M181.2,1256c0,5.33.22,10.66-.07,16-.2,3.69.9,5.27,4.72,4.8,2.14-.26,4.17-.45,4.25,3,.09,3.69-1.95,3.71-4.39,3.44-3.41-.37-5,.83-4.55,4.43.22,1.8,0,3.66.06,5.49.16,2.87.19,4.9-4,5-4.38.08-4.3-2-4.28-5.14.07-9.72,0-9.72-9.52-9.72-5,0-10,0-15,0-4.68,0-5.85-2-3.31-6.15,4.08-6.66,8.44-13.16,12.68-19.73s8.61-12.68,12.34-19.35c2.45-4.37,6-3.43,9.49-3.15,2.17.17,1.45,2.29,1.47,3.64C181.25,1244.37,181.2,1250.2,181.2,1256Z"
                  transform="translate(-0.92 -0.87)"/>
            <path class="cls-10"
                  d="M153.7,1102.47c2.59-5.72,5.09-11.3,7.64-16.84,5.29-11.48,10.61-22.94,15.9-34.43,2.23-4.84,2.2-4.86-3.3-4.87-8.33,0-16.65-.07-25,0-2.66,0-3.92-.6-3.88-3.6s1.7-3.07,3.87-3.06c11.82,0,23.65.15,35.47-.06,3.85-.07,4.09,1.87,3.53,4.64a18.39,18.39,0,0,1-1.42,3.71c-7.31,16.41-14.94,32.68-21.77,49.28C162.43,1103,159.28,1103.89,153.7,1102.47Z"
                  transform="translate(-0.92 -0.87)"/>
            <path class="cls-11"
                  d="M173.87,1461.36c0,9.16-.12,18.32.07,27.48.07,3.2-.78,4.3-4.15,4.29s-4.56-.91-4.51-4.46c.19-14.82,0-29.64.16-44.46.06-4-1.17-4.54-4.49-3a55.4,55.4,0,0,1-7.48,2.75c-1.31.37-3.35,2.52-4-.14-.51-2-1.51-5,1.35-6.21,6.92-2.84,13.93-5.48,21-7.85,3.07-1,2,1.9,2,3.18C173.91,1442.38,173.87,1451.87,173.87,1461.36Z"
                  transform="translate(-0.92 -0.87)"/>
            <path class="cls-10"
                  d="M929.28,1386.4c-1.4-1.29-2.14-1.91-2.82-2.6-3.17-3.19-6.48-6.26-9.41-9.66-2.15-2.49-3.47-2.07-5.43.18-3,3.38-6.38,6.35-9.35,9.72-2,2.24-3.2,1.46-4.71-.34-1.33-1.6-3.47-2.74-.77-5.16,3.46-3.11,6.47-6.73,9.9-9.88,2.16-2,1.93-3.32-.07-5.19-3.16-3-5.91-6.37-9.19-9.17-2.83-2.42-1.55-3.78.32-5.87,2.12-2.36,3.3-1.62,5,.34,2.88,3.23,6.13,6.13,9,9.33,1.85,2.05,3.16,2.28,5.12,0,3.07-3.5,6.6-6.6,9.68-10.09,1.84-2.08,3-1.39,4.28.33,1.05,1.47,4.17,2.33,1.31,5-3.51,3.31-6.71,7-10.22,10.27-1.91,1.8-1.92,3,0,4.79,3.41,3.18,6.62,6.57,9.83,10,.78.82,2.57,1.47,1.28,3.17S930.63,1384.7,929.28,1386.4Z"
                  transform="translate(-0.92 -0.87)"/>
            <path class="cls-10"
                  d="M910,1692.59c0-9.74,0-9.74-10-9.74a32.79,32.79,0,0,0-4,0c-3.1.38-4-.93-4-4s.86-4,4-4c4.57-.06,10.67,2.21,13.27-1,2.22-2.74.71-8.59.66-13.06,0-2.74,0-4.69,3.8-4.63,3.55.05,4.46,1.19,4.44,4.59,0,4.58-2.1,10.5.89,13.41,2.73,2.65,8.56.81,13,.71,3.17-.08,3.88,1.07,3.89,4s-.92,4.15-4,3.95c-3.48-.23-7,.07-10.47-.09-2.56-.11-3.57.75-3.47,3.4.17,4.48-.12,9,.09,13.46.16,3.41-1.93,3.14-4.17,3.19s-4.34,0-4-3.3C910.19,1697.26,910,1694.92,910,1692.59Z"
                  transform="translate(-0.92 -0.87)"/>
            <path class="cls-10"
                  d="M913.53,1213c-6,0-12-.21-18,.08-3.58.17-3.57-1.69-3.58-4.28s.24-4,3.42-3.93q18.22.25,36.45,0c3.14,0,4,1,3.93,4-.06,2.75-.4,4.31-3.77,4.17C925.85,1212.79,919.69,1213,913.53,1213Z"
                  transform="translate(-0.92 -0.87)"/>
            <path class="cls-12"
                  d="M665.53,1646.36c5,0,10,.12,14.94,0,3-.1,3.52,1.28,3.57,3.91.06,2.87-.94,3.71-3.73,3.67q-14.69-.21-29.38,0c-3,0-3.61-1.23-3.66-3.87-.05-2.86,1.06-3.8,3.82-3.71C655.9,1646.47,660.72,1646.36,665.53,1646.36Z"
                  transform="translate(-0.92 -0.87)"/>
            <path class="cls-13"
                  d="M914.6,1517c5,0,10,.13,15-.05,2.8-.1,3.32,1.18,3.29,3.59,0,2.22-.54,3.36-3.07,3.33-10.15-.1-20.31-.12-30.46,0-2.8,0-3.22-1.23-3.29-3.62-.09-2.77,1.11-3.38,3.57-3.31C904.61,1517.14,909.6,1517,914.6,1517Z"
                  transform="translate(-0.92 -0.87)"/>
            <path class="cls-11"
                  d="M666,1671.85c-5.14,0-10.28-.11-15.42,0-2.84.09-3.21-1.4-3.27-3.7-.07-2.51.75-3.56,3.4-3.53,9.95.11,19.9.15,29.85,0,3.13-.05,3.38,1.45,3.44,4,.07,2.77-1.13,3.35-3.58,3.29C675.63,1671.75,670.82,1671.85,666,1671.85Z"
                  transform="translate(-0.92 -0.87)"/>
            <path class="cls-13"
                  d="M913.82,1196c-3.09-.1-4.85-1.65-4.77-4.89s2-4.87,5.06-4.81,4.91,1.78,4.88,5S917,1196,913.82,1196Z"
                  transform="translate(-0.92 -0.87)"/>
            <path class="cls-14"
                  d="M166.66,1679.95c3.5,0,5.41,1.4,5.52,4.69s-2,4.89-5,4.92c-2.82,0-4.88-1.5-5-4.48S163.67,1680.06,166.66,1679.95Z"
                  transform="translate(-0.92 -0.87)"/>
            <path class="cls-13"
                  d="M914.42,1221.95c3,.15,4.66,1.8,4.55,5.06-.1,3.09-2.12,4.54-4.88,4.57-3,0-5.08-1.57-5-4.9S911,1221.93,914.42,1221.95Z"
                  transform="translate(-0.92 -0.87)"/>
            <path class="cls-15"
                  d="M656,1260.06c-.36.71-1.14,1.7-1.64,1.16-.93-1-.43-2.3.45-3.33C655.12,1258.69,655.08,1259.65,656,1260.06Z"
                  transform="translate(-0.92 -0.87)"/>
            <path class="cls-15"
                  d="M1080,641.17c-1.46,2.14-3.6,2.81-6.05,2.82H11.57c-3.44,0-7.12.69-9.55-2.82,2.33-.05,4.66-.15,7-.15H1074.49C1076.32,641,1078.15,641.11,1080,641.17Z"
                  transform="translate(-0.92 -0.87)"/>
            <path class="cls-16"
                  d="M969.89,295.39c0,9.83.24,19.67-.11,29.48-.15,4.34,1.32,5.67,5.34,5,1-.15,2,.12,3,0,5-.87,6.64,1,6.33,6.11-.23,3.84-1.06,5.1-5.05,5-9.49-.24-9.5,0-9.5,9.6,0,3.83-.08,7.67,0,11.49.06,2.1-.58,3.19-2.81,2.92a2.94,2.94,0,0,0-.5,0c-10.42.54-10.42.54-10.42-9.81,0-3.5-.21-7,.06-10.49.24-3.18-1-3.91-4-3.88-12.33.15-24.66.06-37,.06-6.84,0-9-3.84-5.26-9.95,4.25-7,8.81-13.73,13.24-20.58q15.18-23.49,30.38-47c1.68-2.59,13.18-4.59,15.49-2.72,1.25,1,.72,2.48.73,3.74C969.91,274.73,969.89,285.06,969.89,295.39Z"
                  transform="translate(-0.92 -0.87)"/>
            <path class="cls-16"
                  d="M775.71,287.16c11.49,0,23,.24,34.47-.12,4.46-.14,4.92,1.83,4.66,5.3-.22,3,1.06,6.39-4.37,6.12-6.84-.35-6.86,0-6.86,6.88,0,12.82,0,25.65,0,38.47,0,8.88,1.94,10.62,10.58,10.41,1.51,0,4.41-1.38,3.88,1.83s3,7.61-2.72,9.13c-15,4-25.08-3.51-25.25-19.16q-.24-21.73,0-43.47c0-3.19-.74-4.4-4.12-4.28-6.82.24-13.66.24-20.48,0-3.4-.12-4.19,1.16-4.17,4.33.12,19-.07,38,.16,57,.05,4.24-.81,5.79-5.4,5.56-8.06-.41-8.08-.1-8.08-8.19,0-18-.12-36,.09-54,0-3.78-1-5.22-4.72-4.65-1.14.17-2.34-.09-3.49,0-2.9.34-4.49-.54-4-3.78a10.49,10.49,0,0,0,0-3c-.49-3.42.76-4.58,4.34-4.51C752.06,287.3,763.89,287.16,775.71,287.16Z"
                  transform="translate(-0.92 -0.87)"/>
            <path class="cls-16"
                  d="M527.15,285.89c11.31.06,19.92,2.82,26.29,10.72a14.79,14.79,0,0,1,1.64,2.5c1.68,3.27,4.37,7.81,2.22,10.14-2.43,2.63-7.56.74-11.51.82-1.65,0-1.41-1.48-1.77-2.54-3.65-10.86-20.18-14.62-28.26-6.45a9.24,9.24,0,0,0,2.34,15.07c4.93,2.57,10.42,3.39,15.72,4.78,5.5,1.44,10.89,3.13,15.7,6.23a19.73,19.73,0,0,1,3.4,30.67c-12.64,13-40.74,11.23-51.62-3.24a18.17,18.17,0,0,1-1.38-2.08c-1.88-3.38-4.66-7.83-2.46-10.61,2.05-2.59,7.2-.61,11-.84,2-.12,1.8,1.61,2.2,2.77,3.91,11.57,22.87,15.93,31.68,7.27,4.54-4.47,3.63-11.9-2-15.47-4.15-2.63-8.91-3.61-13.61-4.7-5.84-1.35-11.65-2.81-16.92-5.83-12.51-7.16-14.08-22.13-3.28-31.77A29.5,29.5,0,0,1,527.15,285.89Z"
                  transform="translate(-0.92 -0.87)"/>
            <path class="cls-16"
                  d="M625.16,296.72c8.52-9.65,18.5-12.25,29.67-10.28,10.84,1.91,17.63,9.91,18,22.06.5,17.81.22,35.64.37,53.46,0,2.43-.86,3-3.17,3.11-10.17.47-10.16.55-10.16-9.57,0-13.49,0-27,0-40.48,0-10.42-3.15-15.49-10.3-17.13-9.5-2.18-19.29,2.2-23.32,10.35-.94,1.9-.84,3.87-.84,5.86,0,15.32-.12,30.65.08,46,0,3.77-.78,5.18-4.87,5-8.55-.29-8.56,0-8.56-8.69,0-21.49.12-43-.1-64.46,0-4.1,1.26-5.38,5.05-4.8a6.15,6.15,0,0,0,2,0c4.84-.88,6.75,1.14,6,5.93A24,24,0,0,0,625.16,296.72Z"
                  transform="translate(-0.92 -0.87)"/>
            <path class="cls-16"
                  d="M1028.9,323.41c-.4,23.12-6.23,44.41-21,62.73a47.6,47.6,0,0,1-10.39,10c-1.28.86-3,3.38-4.34,1.08-1.21-2.14-3.64-4.85-1.24-7.7,30.6-36.32,28.56-76,11.87-117.05A36.36,36.36,0,0,0,993.44,258c-4.23-3.47-1.36-6.57-.27-9.72.63-1.82,2-.25,2.78.25a52.65,52.65,0,0,1,13,12.35C1023.22,279.26,1028.59,300.53,1028.9,323.41Z"
                  transform="translate(-0.92 -0.87)"/>
            <path class="cls-16"
                  d="M727.45,247.25c3,5.16,2.86,8.77-1.81,13.49-11,11.13-15.75,25.65-18,40.85-3.52,23.28-2.23,46.13,7.56,68A60.93,60.93,0,0,0,728,388.4c2.08,2,2,7.27,0,9.33-1.31,1.37-2.09,0-2.9-.52a49.49,49.49,0,0,1-11.34-10.44c-16.23-19.8-22.06-42.93-21.28-68,.68-21.65,6.74-41.61,20.48-58.79C717.06,254.91,721.56,250.29,727.45,247.25Z"
                  transform="translate(-0.92 -0.87)"/>
            <path class="cls-16"
                  d="M99.89,128.95c-.12,1.94-1.51,2.46-2.48,3.29-4.63,4-4.86,6.78-.16,10.28,2.86,2.13,2.92,3.9,1,6.48a23.05,23.05,0,0,0-2.44,4.34c-1,2.25-2.36,2.61-4.74,1.69-6.51-2.53-8.14-1.57-9.56,5.51-.47,2.35-1.31,3.58-3.87,3.38a42,42,0,0,0-6,0c-2.45.16-3.45-.8-3.92-3.29-1.3-7-3.18-8.1-9.58-5.63-2.29.88-3.68.76-4.76-1.6a30.85,30.85,0,0,0-3-5.16c-1.61-2.24-1.14-3.61,1-5.32,5.2-4.14,5.19-6.61-.1-10.85-2.22-1.78-2.39-3.21-.84-5.36A23.52,23.52,0,0,0,53.18,122c1.21-2.95,3-2.82,5.52-1.73,5.35,2.28,8.11.83,8.84-5,.44-3.54,2-4.2,5.2-4.21,4.82,0,9.13-.52,9.4,6.56.11,2.9,3.2,4.68,6.8,3.37,1.74-.64,3.82-2.91,5.37-1.08C96.64,122.66,98.17,126.07,99.89,128.95Z"
                  transform="translate(-0.92 -0.87)"/>
            <path class="cls-16"
                  d="M1024.29,495.52c8.85,6.16,11.66,12.67,9.09,21.07-2.39,7.81-9.66,12.4-19.58,12.36-9.66,0-16.75-4.57-19.16-12.24-2.64-8.41.25-15.32,8.86-21.15-9.68-8.88-11-19.24-3.44-26.69,7.11-7,21.39-6.79,28.22.38C1035.57,476.91,1034,487.14,1024.29,495.52Z"
                  transform="translate(-0.92 -0.87)"/>
            <path class="cls-16"
                  d="M844.41,496.12c-.45-6.66-.68-13.33,1.54-19.78,3-8.6,8.65-12.52,18.24-12.46,9.29.06,15.42,3.86,17.67,12.43a78,78,0,0,1,0,40c-2.26,8.61-8.49,12.59-17.56,12.65-9.38.06-15.31-4-18.21-12.58a26.19,26.19,0,0,1-1.59-6.78C844.24,505.11,844.41,500.61,844.41,496.12Z"
                  transform="translate(-0.92 -0.87)"/>
            <path class="cls-16"
                  d="M734,496.74c.12,6.5.16,13-1.91,19.29-2.87,8.74-8.63,12.9-17.95,12.91s-15.66-4-18-12.78a77.36,77.36,0,0,1,0-40c2.31-8.67,8.64-12.42,18.25-12.31,9.25.11,14.79,4.08,17.65,12.58C734.25,483.08,734,489.91,734,496.74Z"
                  transform="translate(-0.92 -0.87)"/>
            <path class="cls-16"
                  d="M570.82,496.15c.15-6.67-.1-13.33,2.12-19.78,2.92-8.47,8.46-12.42,17.72-12.49,9.61-.07,15.89,3.71,18.19,12.4a77.91,77.91,0,0,1,0,40c-2.25,8.63-8.47,12.61-17.54,12.68-9.39.07-15.33-4-18.24-12.54a29.72,29.72,0,0,1-1.6-6.78C571.08,505.14,571,500.64,570.82,496.15Z"
                  transform="translate(-0.92 -0.87)"/>
            <path class="cls-17"
                  d="M905,490.06c13.39-8.31,26.93-2.23,29.53,13.26,2.85,16.95-10.56,29.82-25.77,24.61-8.1-2.78-12.24-9.27-13.47-17.22a58,58,0,0,1,1.78-27.19c3.78-11.49,12.46-18,24.51-18.67,2.09-.11,4.38-.88,4.37,2.81,0,2.87-.6,4-3.77,4.27-10.28.8-15.87,5.87-18.38,16C903.57,489,902.78,490.36,905,490.06Z"
                  transform="translate(-0.92 -0.87)"/>
            <path class="cls-17"
                  d="M590.68,326c0,11.49-.1,23,.07,34.46,0,3.25-.49,4.7-4.26,4.65-9.4-.14-9.41.06-9.41-9.37,0-21.31.09-42.62-.09-63.93,0-3.73.94-4.83,4.71-4.74,9,.2,9,0,9,9Q590.68,311,590.68,326Z"
                  transform="translate(-0.92 -0.87)"/>
            <path class="cls-16"
                  d="M861.52,322c-10.49,0-21-.14-31.46.08-3.38.07-4.13-1.06-4.1-4.23.06-9.13-.07-9.13,9.17-9.13,19.31,0,38.62.12,57.93-.1,4.07,0,5,1.25,4.91,5.08-.23,8.3,0,8.31-8.48,8.31Z"
                  transform="translate(-0.92 -0.87)"/>
            <path class="cls-17"
                  d="M951.15,527.51c-.34-1.63.85-3,1.52-4.43,7.2-15.71,14.3-31.47,21.75-47.06,2-4.29.87-4.83-3.2-4.72-8.31.22-16.64,0-25,.08-2.3,0-4.18.11-4.19-3.24,0-3.12,1.41-3.5,4-3.48,11.81.08,23.63.15,35.44,0,3.34-.05,4.15,1.32,3.57,4.13a21,21,0,0,1-1.48,4.2c-7.22,16.24-14.7,32.38-21.6,48.76C959.71,527.07,957,529.55,951.15,527.51Z"
                  transform="translate(-0.92 -0.87)"/>
            <path class="cls-16"
                  d="M750.64,527.45l20.74-45.07c1.18-2.57,2.28-5.18,3.6-7.67,1.41-2.65.69-3.42-2.2-3.38-8.65.12-17.31.06-26,0-2.19,0-4.67.77-4.77-3.14-.11-4.14,2.44-3.52,4.89-3.52,11.32,0,22.64.21,33.94-.1,4.86-.13,4.69,2.3,3.87,5.55a20.61,20.61,0,0,1-1.39,3.19c-7.17,16.09-14.61,32.06-21.36,48.32C759.75,527.13,756.9,529.29,750.64,527.45Z"
                  transform="translate(-0.92 -0.87)"/>
            <path class="cls-16"
                  d="M663.85,464.69c5.82,0,11.66.23,17.47-.08,3.76-.2,4.27,1.63,3.67,4.49a21.15,21.15,0,0,1-1.59,4.17c-7.49,16.85-15.12,33.65-22.42,50.58-1.43,3.32-3.22,4.25-6.67,4.28-4.09,0-3.39-1.5-2.2-4,6.8-14.61,13.53-29.26,20.28-43.89,4.07-8.82,4.08-8.82-5.53-8.82-7,0-14-.09-21,0-2.71.05-3.85-.68-3.83-3.63s1.58-3.13,3.8-3.11C651.87,464.73,657.86,464.69,663.85,464.69Z"
                  transform="translate(-0.92 -0.87)"/>
            <path class="cls-18"
                  d="M820.87,496.3c0,9.31-.2,18.63.1,27.93.12,3.84-1.78,3.77-4.52,3.85s-4.18-.38-4.14-3.73c.18-15-.06-29.93.16-44.89.06-4.15-1-5-4.67-3.24a37.34,37.34,0,0,1-7,2.58c-1.42.35-3.64,2.76-4.39-.11-.57-2.19-1.51-5.33,2.26-6.64q9.4-3.28,18.65-7c3.18-1.27,3.61,0,3.58,2.81C820.8,477.34,820.87,486.82,820.87,496.3Z"
                  transform="translate(-0.92 -0.87)"/>
            <path class="cls-18"
                  d="M862.06,294c-5.1-.08-8.1-3.09-8-8s3.32-7.92,8.28-7.88,8.63,3.6,8.41,8.42S867.2,294.08,862.06,294Z"
                  transform="translate(-0.92 -0.87)"/>
            <path class="cls-19"
                  d="M862.3,336.83c5,0,8.32,3.08,8.44,7.79s-3.71,8.3-8.66,8.19-8.11-3.34-8-8.15S857.25,336.81,862.3,336.83Z"
                  transform="translate(-0.92 -0.87)"/>
            <path class="cls-18"
                  d="M583.84,274.24c-4.93,0-7.87-2.95-7.78-7.68s3.21-7.58,8-7.52,7.85,3.15,7.82,7.77S588.78,274.29,583.84,274.24Z"
                  transform="translate(-0.92 -0.87)"/>
            <path class="cls-20"
                  d="M627.89,518.94c2.5,0,4.26,1.61,4.3,4.81s-2,4.8-5,4.81-5.06-1.67-5-4.85S624,518.9,627.89,518.94Z"
                  transform="translate(-0.92 -0.87)"/>
            <path class="cls-21"
                  d="M905,490.06c-.35.73-1.16,1.71-1.65,1.18-.93-1-.42-2.32.45-3.35C904.14,488.67,904.06,489.66,905,490.06Z"
                  transform="translate(-0.92 -0.87)"/>
            <path class="cls-22"
                  d="M817.85,752.44c-8,3.38-13.1,2.29-16.29-3.29-3.88-6.79-2.55-17.67,2.75-21.62a9.54,9.54,0,0,1,8.45-1.83c2.59.69,4.92,2.56,8,.47,1.52-1,2.46.67,2.44,2.49-.08,8.8,0,17.61-.19,26.41-.11,4.63-2.78,7.84-7.1,9.26a13.61,13.61,0,0,1-13.57-2.48c-1-.84-1.38-1.68-.45-2.95,1.4-1.91,2.36-.77,3.61.16,2.88,2.15,6,2.78,9.33,1C817.62,758.51,818.44,756,817.85,752.44Z"
                  transform="translate(-0.92 -0.87)"/>
            <path class="cls-23"
                  d="M125.51,828c3.83,0,7.65,0,11.48,0,1.16,0,2.45-.09,2.61,1.56.13,1.3-.2,2.32-1.76,2.43-.17,0-.42,0-.48.06-3.86,5-.76,10.69-1.63,16-.34,2.08.25,4.09,3.1,4,1.45,0,2.09.62,2,2.11s-1.1,1.79-2.31,2c-4.28.8-7.27-1-7.72-5.53a99.24,99.24,0,0,1-.41-14.93c.22-4.43-2.54-3.76-5.14-3.73s-5.44-.81-5.14,3.71c.36,5.47.12,11,.06,16.46,0,1.67.69,3.8-2.37,3.86s-2.62-1.84-2.62-3.67c0-5.32,0-10.64,0-16,0-2,.77-4.57-2.79-4.53-1.37,0-1.33-1.21-1.32-2.21,0-1.74,1.3-1.64,2.46-1.65C117.52,828,121.52,828,125.51,828Z"
                  transform="translate(-0.92 -0.87)"/>
            <path class="cls-23"
                  d="M294.42,843.63c-1.49,0-3-.09-4.48,0s-3.38-.8-4.08.81c-.76,1.76.36,3.55,1.49,5,2.49,3.23,7.47,3.91,11.2,1.32,1.61-1.12,3-2.54,4.42-.23,1.27,2.11-1,2.9-2.17,3.73-3.62,2.59-7.69,2.88-11.87,1.6-7.13-2.2-10.56-10.89-7.79-19.56,2.16-6.75,8.71-10.33,15.27-8.34,5.13,1.56,9.28,9.24,7.7,14.07-.49,1.5-1.55,1.52-2.72,1.54C299.07,843.64,296.74,843.63,294.42,843.63Z"
                  transform="translate(-0.92 -0.87)"/>
            <path class="cls-22"
                  d="M452.33,729.54c-2.42.14-4.55.69-5.82,3.1a3,3,0,0,1-4.35.93c-1.7-1.12-.11-2.66.63-3.76,2.53-3.71,8.48-5.33,13.5-3.89s6.76,4.85,6.71,9.74-.48,10.06.36,14.91-2.58,4.1-4,3c-2-1.64-3.09-.62-4.66.05-4,1.7-7.79,1.44-11.2-1.41-2.95-2.47-3.3-5.77-2.13-9.09,1.45-4.1,5.1-5.4,9-6a16.65,16.65,0,0,0,2.48-.14c1.81-.58,5.2,1.8,5.07-2.47C457.88,731,455.53,729.7,452.33,729.54Z"
                  transform="translate(-0.92 -0.87)"/>
            <path class="cls-24"
                  d="M135.36,739.63c0-3.66.1-7.31,0-11-.1-2.83,2.57-3.54,3.4-2.48,2.52,3.2,4.31.52,6.29-.15,6.37-2.16,11.76.62,12.46,7.26.64,6.08.25,12.27.35,18.42,0,1.72-.82,2.26-2.44,2.32-2,.07-2.59-.83-2.57-2.67q.08-7.48,0-15c0-3.66-.93-6.66-5.53-6.59-4.2.06-6.53,2.38-6.6,6.94s0,9.3,0,14c0,1.72.08,3.27-2.47,3.35-2.73.08-2.9-1.43-2.87-3.46C135.4,746.94,135.36,743.29,135.36,739.63Z"
                  transform="translate(-0.92 -0.87)"/>
            <path class="cls-24"
                  d="M492.84,743c0,2.82-.06,5.65,0,8.47.06,2-1,2.5-2.77,2.5s-2.25-.91-2.24-2.48c0-4.65,0-9.31,0-14,0-3.76,0-7.65-5.35-7.76-4.51-.09-6.76,2.44-6.8,7.74q0,6.48,0,13c0,2,0,3.59-2.79,3.53-2.49-.05-2.55-1.49-2.54-3.27,0-7.31.09-14.62,0-21.93-.05-3.13,2.77-3.81,3.69-2.58,2,2.69,3.2,1.06,4.95.25,6.91-3.19,12.88,0,13.73,7.56a80.12,80.12,0,0,1,.05,9Z"
                  transform="translate(-0.92 -0.87)"/>
            <path class="cls-24"
                  d="M619.36,739.6c0-3.66.09-7.31,0-11-.09-2.85,2.6-3.5,3.43-2.45,2.52,3.16,4.3.5,6.29-.16,6.38-2.14,11.75.65,12.44,7.29.64,6.08.25,12.27.34,18.42,0,1.74-.87,2.23-2.47,2.29-2,.08-2.56-.88-2.54-2.7.05-4.82,0-9.64,0-14.46,0-3.77-.61-7.12-5.57-7.05-4.37.06-6.53,2.43-6.58,7.46,0,4.49,0,9,0,13.46,0,1.75,0,3.25-2.5,3.32-2.75.07-2.86-1.48-2.84-3.49C619.4,746.91,619.36,743.26,619.36,739.6Z"
                  transform="translate(-0.92 -0.87)"/>
            <path class="cls-22"
                  d="M305.93,740.31c-.06,8.4-5.31,14.33-12.73,14.38s-13-6.19-13-14.73,5.66-14.85,13.07-14.67S306,731.68,305.93,740.31Z"
                  transform="translate(-0.92 -0.87)"/>
            <path class="cls-22"
                  d="M794.93,740.25c0,8.41-5.24,14.35-12.66,14.45s-13-6.12-13.09-14.66,5.59-14.86,13-14.74S795,731.63,794.93,740.25Z"
                  transform="translate(-0.92 -0.87)"/>
            <path class="cls-23"
                  d="M105.72,754.71c-3.93-.39-8-1.25-10.26-5.4-.62-1.14-2-2.9,0-3.87,1.4-.69,3.34-.78,4.25,1.27,1.85,4.18,5.39,3.83,8.92,3.28a3.53,3.53,0,0,0,3.15-3.37,3.37,3.37,0,0,0-2.38-3.46c-2.65-.95-5.41-1.58-8.07-2.51-3.35-1.17-6.14-3.23-6-7.09.2-4.09,2.9-6.52,6.8-7.62,5.06-1.43,10.66.17,13,3.81.78,1.22,2,3,.69,4a3,3,0,0,1-4.66-.95c-1.63-3.07-4.33-3.28-7.28-2.89a3.74,3.74,0,0,0-3.45,3.1c-.4,2,1,3.09,2.62,3.68,1.87.68,3.84,1.07,5.74,1.65,5.86,1.79,8.48,4.64,8,8.66C116.26,751.44,111.8,754.65,105.72,754.71Z"
                  transform="translate(-0.92 -0.87)"/>
            <path class="cls-23"
                  d="M321.81,754.72c-3.68-.37-7.63-1.07-10-4.87-.8-1.28-2.35-3.11-.46-4.32a2.92,2.92,0,0,1,4.51,1.49c1.49,3.45,4.55,3.41,7.63,3.18,2.19-.16,4-1.11,4.24-3.44.24-2.13-1.24-3.33-3.12-3.95-2.67-.88-5.41-1.58-8.06-2.52-3.06-1.09-5.19-3.23-5.2-6.6s2-5.56,4.82-7c4.76-2.51,11.66-1.31,14.59,2.58,1,1.38,2.67,3.28.79,4.67-1.26.93-3.44.8-4.6-1.43-1.59-3.06-4.5-3-7.41-2.53a3.58,3.58,0,0,0-3.16,3.37c-.17,1.75,1.07,2.75,2.55,3.27,1.88.66,3.83,1.09,5.73,1.67,6.09,1.84,8.8,4.89,8.09,9.05S327.75,754.58,321.81,754.72Z"
                  transform="translate(-0.92 -0.87)"/>
            <path class="cls-23"
                  d="M252.17,740.09c-.1-10.7,8.15-17.39,17.16-13.86a9.6,9.6,0,0,1,6.06,6.22c.37,1.19,1.33,2.71-.7,3.24-1.2.31-2.88.64-3.45-1-1.55-4.63-5-5.84-9.09-4.49-4.41,1.44-4.67,5.68-4.91,9.53a19.42,19.42,0,0,0,.62,4.93c.57,2.83,2.08,4.94,5.07,5.49,3.16.58,6.24.14,7.74-3,1.09-2.31,2.94-2.62,4.4-1.7,2,1.26.17,3-.63,4.24-4.57,7.07-16,6.55-20.14-.88A17.77,17.77,0,0,1,252.17,740.09Z"
                  transform="translate(-0.92 -0.87)"/>
            <path class="cls-22"
                  d="M954.51,848.23c3.35-9.14,6.43-17.55,9.51-26a17,17,0,0,1,1.31-3.23c.87-1.38,2.43-1.09,3.63-.75,1.75.48.88,1.84.51,2.85-4.05,10.91-8.17,21.8-12.19,32.72-.54,1.46-1.25,2.15-2.85,2.15s-2.2-1.08-2.69-2.4c-1.17-3.11-2.44-6.19-3.64-9.29-.89-2.28-1.29-4.94-4.83-4.52-1.54.18-1.86-1.13-1.8-2.39s1-1.55,2.07-1.64c3.83-.33,7.28-.32,8.19,4.72C952.16,842.9,953.38,845.16,954.51,848.23Z"
                  transform="translate(-0.92 -0.87)"/>
            <path class="cls-23"
                  d="M618.18,840.92c.45-9.31,2.66-18,9.55-24.91.9-.9,1.95-3,3.59-1.44,1.47,1.35,0,2.57-.9,3.79-9.48,12.2-9.59,32.52-.31,44.75.95,1.25,3,2.57,1.08,4.12-1.55,1.27-2.6-.85-3.53-1.76C620.83,858.76,618.67,850.19,618.18,840.92Z"
                  transform="translate(-0.92 -0.87)"/>
            <path class="cls-23"
                  d="M795.91,841c-.41,9.42-2.85,18-9.77,24.87-.81.8-1.8,2.57-3.21,1.47-1.65-1.29-.28-2.49.68-3.73,9.59-12.39,9.66-32.69.2-45.19-.86-1.14-2.61-2.25-1-3.74s2.68.46,3.57,1.35C793.22,822.88,795.5,831.57,795.91,841Z"
                  transform="translate(-0.92 -0.87)"/>
            <path class="cls-23"
                  d="M426.13,740.07c0-2.16-.06-4.32,0-6.48s0-4-3-3.75c-1.46.14-2-.76-2-2.18s.93-1.74,2-1.62c3,.33,3.18-1.5,3-3.71-.12-1.78,0-3.27,2.51-3.28s2.58,1.55,2.46,3.29c-.15,2.25.13,4,3.08,3.7,1-.11,2,.21,2,1.56s-.5,2.36-2,2.23c-3.38-.3-3.2,1.9-3.16,4.16.06,3.49,0,7,0,10.47,0,2.88-.31,5.93,4.09,5.76,1.31,0,1.47,1.07,1.46,2.13,0,1.21-.81,1.68-1.81,2.06-3.54,1.34-7.85-1.18-8.45-5.4-.42-2.93-.08-6-.08-8.95Z"
                  transform="translate(-0.92 -0.87)"/>
            <path class="cls-23"
                  d="M762.94,734c0,5.65,0,11.31,0,17,0,1.92-.28,3.15-2.68,3.09-2.22-.06-2.29-1.32-2.29-2.93q0-17,0-33.91c0-1.87.2-3.2,2.64-3.12,2.63.09,2.3,1.83,2.31,3.47C763,723,762.94,728.51,762.94,734Z"
                  transform="translate(-0.92 -0.87)"/>
            <path class="cls-23"
                  d="M607,733.5c0-5.32,0-10.64,0-16,0-1.59-.43-3.41,2.26-3.47,2.4-.06,2.69,1.21,2.68,3.12q-.05,17,0,33.91c0,1.64-.13,2.86-2.31,2.94-2.43.09-2.67-1.18-2.65-3.08C607,745.14,607,739.32,607,733.5Z"
                  transform="translate(-0.92 -0.87)"/>
            <path class="cls-24"
                  d="M458,825.14c-1.63,4-2.88,6.82-3.9,9.72-.69,2-2,2.72-3.81,2.17-2.68-.83-.56-2.5-.19-3.51,1.58-4.36,3.42-8.62,5.2-12.91.5-1.21,1-2.46,2.71-2.46s2.22,1.25,2.72,2.45c1.78,4.28,3.59,8.56,5.18,12.91.38,1,2.44,2.69-.22,3.52-1.83.57-3.1-.28-3.79-2.21C460.89,831.93,459.65,829.13,458,825.14Z"
                  transform="translate(-0.92 -0.87)"/>
            <path class="cls-23"
                  d="M123,739.6c0-3.64,0-7.28,0-10.92,0-1.8.48-2.72,2.5-2.71s2.48,1,2.47,2.77c0,7.61-.06,15.23,0,22.84,0,2.07-1,2.44-2.78,2.44s-2.19-1-2.18-2.5C123,747.54,123,743.57,123,739.6Z"
                  transform="translate(-0.92 -0.87)"/>
            <path class="cls-25"
                  d="M958,729.82c0,3.47,0,6.94,0,10.42,0,1.47.17,3.07-2.12,3.1-2,0-2.56-1.06-2.57-2.79-.06-7.27-.11-14.55-.21-21.82,0-1.9.77-2.63,2.67-2.62s2.54,1,2.51,2.8c0,3.64,0,7.27,0,10.91Z"
                  transform="translate(-0.92 -0.87)"/>
            <path class="cls-11"
                  d="M955.89,754.18c-1.76-.14-2.85-1-2.73-2.84a2.44,2.44,0,0,1,2.66-2.4c1.77-.06,3,.8,3,2.58S957.64,754.15,955.89,754.18Z"
                  transform="translate(-0.92 -0.87)"/>
            <path class="cls-10"
                  d="M128.18,718.67c-.14,1.82-1.22,2.57-2.95,2.49a2.32,2.32,0,0,1-2.43-2.5,2.42,2.42,0,0,1,2.69-2.76A2.47,2.47,0,0,1,128.18,718.67Z"
                  transform="translate(-0.92 -0.87)"/>
            <path class="cls-26" d="M541,1833.64a24.4,24.4,0,1,1-24.39,24.51A24.49,24.49,0,0,1,541,1833.64Z"
                  transform="translate(-0.92 -0.87)"/>
            <path class="cls-27"
                  d="M258,1857.72c0,6.32.05,12.64,0,19-.06,5.74-2.51,7.06-7.57,4.13q-15.31-8.87-30.58-17.83c-5.17-3-5.28-6.13-.28-9.17q15.35-9.3,30.76-18.49c5.21-3.11,7.63-1.71,7.68,4.44C258.07,1845.74,258,1851.73,258,1857.72Z"
                  transform="translate(-0.92 -0.87)"/>
            <path class="cls-26"
                  d="M826,1879.1a2,2,0,0,1-2-2.06c.16-12.69.13-25.38,0-38.07a2,2,0,0,1,2-2c12.69.09,25.37.13,38.06,0a2,2,0,0,1,2.07,2c-.17,12.7-.2,25.4,0,38.1a2,2,0,0,1-2.06,2.07C851.36,1878.9,838.66,1878.94,826,1879.1Z"
                  transform="translate(-0.92 -0.87)"/>
            <path class="cls-28"
                  d="M823.93,1839c.29.39.84.78.84,1.17q.06,17.87,0,35.73c0,.39-.55.78-.85,1.17-1.68-7.45-.54-15-.64-22.5C823.21,1849.37,822.28,1844.09,823.93,1839Z"
                  transform="translate(-0.92 -0.87)"/>
            <path class="cls-29"
                  d="M864,1836.92c-.39.29-.78.84-1.17.84q-17.86.07-35.71,0c-.39,0-.79-.54-1.18-.83,3.28-1.56,6.78-.77,10.14-.69C845.42,1836.5,854.76,1835.27,864,1836.92Z"
                  transform="translate(-0.92 -0.87)"/>
            <path class="cls-30"
                  d="M866.12,1877a131.7,131.7,0,0,1,0-38.1c1.51,4,.73,8.1.65,12.13C866.59,1859.73,867.72,1868.43,866.12,1877Z"
                  transform="translate(-0.92 -0.87)"/>
            <path class="cls-31"
                  d="M826,1879.1a132,132,0,0,1,38.1,0c-7.46,1.66-15,.53-22.51.63C836.36,1879.81,831.09,1880.75,826,1879.1Z"
                  transform="translate(-0.92 -0.87)"/>
            <path class="cls-32"
                  d="M923.15,34.17c0-3-.3-6,0-8.94s-1.81-7.31,1.58-8.63c5.56-2.16,10.52-5.64,18-1.71,5.93,3.12,5.1,6.43,5.19,10.69q.23,10.44.19,20.89c0,1.49.84,3.42-1.33,4.32-2.1-3.16-1-6.72-1.22-10.1-.19-2.43.27-5-2.27-6.64a11.38,11.38,0,0,0-2.1-1.3c-6-2-6-2-2.64-7.46a1.73,1.73,0,0,0,.37-1.37c-5.57-1-6.89-.31-7.6,3.84a3.88,3.88,0,0,0,2,4.52c2.83,1.83,3.24,4.06-.19,5.93C930.84,34.28,926.7,35,923.15,34.17Z"
                  transform="translate(-0.92 -0.87)"/>
            <path class="cls-19"
                  d="M891.76,49.83h-25.7L891,24c1.82,0,2.2,1.44,2.3,2.67a114.74,114.74,0,0,1,0,20.67A3.71,3.71,0,0,1,891.76,49.83Z"
                  transform="translate(-0.92 -0.87)"/>
            <path class="cls-33"
                  d="M923.15,34.17c2.88-2,5.76-.13,8.59.14,2.45.24,1,2.24,1,3.53a4,4,0,0,1-.11,2.56,3.89,3.89,0,0,0-.27.87c0,.48.13.53.37.12,3.36-2.92,5.1-7.79,10.32-8.33,2.91,0,4.63.92,4.27,4.37-.46,4.43.48,8.94-.55,13.37-6.64,0-13.29-.1-19.93,0-2.81.06-3.84-.88-3.72-3.72C923.29,42.81,923.16,38.49,923.15,34.17Z"
                  transform="translate(-0.92 -0.87)"/>
            <path class="cls-34"
                  d="M891.76,49.83c-.61-8.59.85-17.25-.76-25.81a66.86,66.86,0,0,1,10-10c0,11.72,0,22.57,0,33.41,0,1.93-1,2.64-2.82,2.58Z"
                  transform="translate(-0.92 -0.87)"/>
            <path class="cls-35"
                  d="M1006.32,34.06a55.92,55.92,0,0,1-.85,7.29c-.93,3.82-3.52,5.89-7.57,6s-7.21-1.63-8.27-5.73a32.61,32.61,0,0,1-.09-15.33c.91-4.06,3.93-6.1,8.08-6.07a7.65,7.65,0,0,1,7.95,6.27A52.91,52.91,0,0,1,1006.32,34.06Z"
                  transform="translate(-0.92 -0.87)"/>
            <path class="cls-33"
                  d="M1046.1,30.81c7.19-2.28,10.76-.69,12.14,5s-1.49,10.57-6.6,11.4c-5.52.9-9.83-2.63-10.52-8.63-1.06-9.19,2.59-16.19,9.33-17.54,1.4-.28,3.48-1.65,4.25.79s-1.48,2.48-3,2.86C1048.71,25.43,1046.74,27.09,1046.1,30.81Z"
                  transform="translate(-0.92 -0.87)"/>
            <path class="cls-33"
                  d="M1039.82,39c-4.51,2-4.73,4.93-5.67,7.61-.22.61-3.88,1.21-3.7-1.14.36-4.86-2.49-4.37-5.59-4.4-1.88,0-4.41,1.08-5.55-.77-1.34-2.17.92-4,2-5.74,2.42-4,5.07-7.78,7.46-11.76a4,4,0,0,1,4.54-2.14c2.61.47,1.48,2.57,1.58,4a40.62,40.62,0,0,1,0,7.45C1034.51,35.3,1035.32,37.71,1039.82,39Z"
                  transform="translate(-0.92 -0.87)"/>
            <path class="cls-36"
                  d="M975.25,26.4l-5.83,1.47c-1.73-5,2.66-4.58,4.95-5.53C979.89,20,980,20.2,980,26c0,6,0,12,0,17.93,0,1.42.4,3-2,3.11s-2.72-1.11-2.7-3.06C975.29,38.23,975.25,32.47,975.25,26.4Z"
                  transform="translate(-0.92 -0.87)"/>
            <path class="cls-37"
                  d="M873.59,22.16c2.26.25,4.73-1.62,5.27,1.35.42,2.32,1.33,5.53-2.47,6.55-2.92.78-5.86.87-7.27-2.32a13.13,13.13,0,0,1-.17-10.2,5.44,5.44,0,0,1,7.94-2.31c1.19.87,2.57,2.33,1.52,3.7s-2.16.17-3-1a1.58,1.58,0,0,0-2.86,0,9.93,9.93,0,0,0-.12,9,1.74,1.74,0,0,0,2.95.41C877.31,25.26,874.51,24.44,873.59,22.16Z"
                  transform="translate(-0.92 -0.87)"/>
            <path class="cls-38"
                  d="M861.58,30.18A4.78,4.78,0,0,1,858,29.09c-.73-.71-1.51-1.58-.87-2.54a1.62,1.62,0,0,1,2.58,0c1.06,1.17,2,2,3,.18.57-1,.57-2.33-.88-2.89-2.54-1-3.19-1.87-.12-3.19a1.83,1.83,0,0,0,.53-3c-.9-1.12-1.65-.42-2.43.33s-1.93.94-2.54-.05.26-2,1-2.49a5.11,5.11,0,0,1,2.74-.92c2.75.06,6,1.61,4.61,4.19C863.75,22.43,870.16,29.46,861.58,30.18Z"
                  transform="translate(-0.92 -0.87)"/>
            <path class="cls-39"
                  d="M1015.69,29.83a2.46,2.46,0,0,1-2.6,2.36c-1.5,0-2.67-.64-2.73-2.19a2.48,2.48,0,0,1,2.77-2.74C1014.62,27.3,1015.44,28.35,1015.69,29.83Z"
                  transform="translate(-0.92 -0.87)"/>
            <path class="cls-39"
                  d="M1015.71,44.8a2.47,2.47,0,0,1-2.57,2.4c-1.5,0-2.68-.61-2.76-2.16a2.48,2.48,0,0,1,2.73-2.77C1014.6,42.28,1015.41,43.33,1015.71,44.8Z"
                  transform="translate(-0.92 -0.87)"/>
            <path class="cls-40"
                  d="M909.74,1035.15c1.25,1,1.87,1.51,2.44,2,.85.8,1.65,1.64,2.47,2.47,5.07,5.15,5.07,5.15,10.35-.09.83-.82,1.72-1.58,2.46-2.47,1.35-1.63,2.4-1.08,3.67.18s1.56,2.21.05,3.64c-2.52,2.39-6.65,5-6.66,7.58s4.14,5.16,6.63,7.59c1.43,1.4,1.29,2.33,0,3.68s-2.19,1.63-3.68.19c-2.49-2.4-4.51-6.64-7.61-6.7s-5.11,4.25-7.6,6.63c-1.32,1.25-2.18,1.64-3.62.14s-1.67-2.49-.1-4.09c2.4-2.44,6.78-4.45,6.46-7.6-.26-2.61-4.15-4.85-6.39-7.29-.72-.78-2.05-1.42-1-2.86C908.32,1037.26,909,1036.28,909.74,1035.15Z"
                  transform="translate(-0.92 -0.87)"/>
            <path class="cls-41"
                  d="M415.78,1097.11c-7.25-.06-11.74-4.35-11.79-11.28s4.78-11.9,11.89-11.9S428,1078.8,428,1085.7,423.25,1097.17,415.78,1097.11Z"
                  transform="translate(-0.92 -0.87)"/>
            <path class="cls-41"
                  d="M405.7,1055.6c.24-6.34,4.18-10,10.61-9.84s10.16,4.45,10,11.1c-.17,6.41-4.54,10.47-10.93,10.16C409.17,1066.72,405.44,1062.32,405.7,1055.6Z"
                  transform="translate(-0.92 -0.87)"/>
            <path class="cls-41"
                  d="M404.23,1657.05a59.43,59.43,0,0,1,.76-15.37c1.41-6.84,4.86-10,11-9.94s9.86,3.21,10.92,10a101.59,101.59,0,0,1,0,31.24c-1,6.53-4.88,10-10.42,10.12-5.93.16-9.81-3.13-11.34-9.71a28.75,28.75,0,0,1-.86-5.4C404.14,1664.36,404.23,1660.7,404.23,1657.05Z"
                  transform="translate(-0.92 -0.87)"/>
            <path class="cls-41"
                  d="M676.09,1063.24c1.13,5.53-5.47,10.68-10,11.62-5.43,1.13-10-1.4-12.25-7a19.35,19.35,0,0,1,0-15.08c1.64-4,4.44-6.54,9-6.93,4.71-.41,8,1.67,10.29,5.62C675.17,1055,675.89,1058.89,676.09,1063.24Z"
                  transform="translate(-0.92 -0.87)"/>
            <path class="cls-41"
                  d="M653.93,1275.22c0-5.94,3.8-10.4,10.06-11.66,5.55-1.12,10.42,1.68,12.47,7.37a19.54,19.54,0,0,1,0,13.64c-1.54,4.21-4.46,7-9.09,7.43s-8-1.59-10.41-5.41A21.21,21.21,0,0,1,653.93,1275.22Z"
                  transform="translate(-0.92 -0.87)"/>
            <path class="cls-1"
                  d="M153.57,1276.73c6-9.36,11.33-17.78,16.71-26.19.61-.95,1.28-1.85,2.74-3.95,0,10.17,0,19,0,27.91,0,1.39-.54,2.22-2,2.22Z"
                  transform="translate(-0.92 -0.87)"/>
            <path class="cls-42"
                  d="M924,329.89,955.27,281c1.6.69.89,2,.89,3,.06,13.83-.07,27.67.11,41.5,0,3.45-.87,4.59-4.43,4.49C942.9,329.73,933.94,329.89,924,329.89Z"
                  transform="translate(-0.92 -0.87)"/>
            <path class="cls-43" d="M83.68,137.56a9.15,9.15,0,1,1-9.24-9.2A9.34,9.34,0,0,1,83.68,137.56Z"
                  transform="translate(-0.92 -0.87)"/>
            <path class="cls-42"
                  d="M1013.94,522.12c-7.5,0-12.09-4.48-12-11.63.13-6.86,4.85-11.51,11.73-11.57,7.11-.06,12.16,4.72,12.28,11.63S1021.39,522.13,1013.94,522.12Z"
                  transform="translate(-0.92 -0.87)"/>
            <path class="cls-42"
                  d="M1024.34,481.36c0,6.5-4.14,10.73-10.49,10.67-6.12-.06-10.11-4.15-10.21-10.44-.11-6.75,3.71-10.82,10.18-10.85S1024.32,474.83,1024.34,481.36Z"
                  transform="translate(-0.92 -0.87)"/>
            <path class="cls-42"
                  d="M875.84,496.56a71,71,0,0,1-.81,14.89c-1.23,6.86-4.81,10.49-10.49,10.67-6.1.19-10.3-3.2-11.45-10.13a95.3,95.3,0,0,1,0-31.72c1.12-6.56,4.88-9.54,10.81-9.55s9.53,3,10.93,9.48C876,485.58,876,491.07,875.84,496.56Z"
                  transform="translate(-0.92 -0.87)"/>
            <path class="cls-42"
                  d="M702.25,496a59,59,0,0,1,.74-15.38c1.41-6.82,4.91-10,11-9.95s9.87,3.23,10.92,10a101.56,101.56,0,0,1,0,31.25c-1.06,6.78-5,10.14-10.92,10.11s-9.53-3.5-10.94-10.21a28.46,28.46,0,0,1-.75-4.92C702.17,503.35,702.25,499.7,702.25,496Z"
                  transform="translate(-0.92 -0.87)"/>
            <path class="cls-42"
                  d="M602.84,496.24a72,72,0,0,1-.84,15.39c-1.26,6.82-4.89,10.38-10.63,10.5-6.05.12-10.17-3.33-11.3-10.31a96.58,96.58,0,0,1,0-31.24c1.12-6.84,4.9-9.92,11-9.86s9.58,3.34,10.88,10.13A71.55,71.55,0,0,1,602.84,496.24Z"
                  transform="translate(-0.92 -0.87)"/>
            <path class="cls-42"
                  d="M926.7,508c-.31,3-.57,6.13-2.31,8.91-2.52,4-7.12,6.18-11.54,5-5.42-1.48-8-5.64-9.15-10.79s-2-10.17,2.71-14.25c3.9-3.4,9.29-4.6,13.41-2.48C925.27,497.14,926.35,502.32,926.7,508Z"
                  transform="translate(-0.92 -0.87)"/>
            <path class="cls-31"
                  d="M818.14,740.16c0,4.08,1,8.75-4.84,9.89-4,.77-6.85-.86-8.13-4.78a17.49,17.49,0,0,1-.25-9.35c.91-4.11,3.2-6.53,7.69-6s5.89,3.17,5.54,7.29C818.07,738.16,818.14,739.17,818.14,740.16Z"
                  transform="translate(-0.92 -0.87)"/>
            <path class="cls-31"
                  d="M292.64,839.5c-2-1.51-6.16,2-6.39-2.25-.18-3.3,2.65-5.5,6.42-5.53,3.61,0,6.12,2.05,6.09,5.25C298.71,841.63,294.55,838,292.64,839.5Z"
                  transform="translate(-0.92 -0.87)"/>
            <path class="cls-31"
                  d="M454.19,740.68c2.68-.39,4.11.36,3.9,3.41-.25,3.61-2.92,6.05-7,6-3.08,0-5.41-1.26-5.13-4.61C446.37,740.25,450.77,741.11,454.19,740.68Z"
                  transform="translate(-0.92 -0.87)"/>
            <path class="cls-31"
                  d="M301,739.8c0,6.56-3,10.56-8.05,10.48-4.78-.07-7.8-4.08-7.73-10.29s3-10.22,7.8-10.25S301,733.61,301,739.8Z"
                  transform="translate(-0.92 -0.87)"/>
            <path class="cls-31"
                  d="M790,740.14c-.09,6.34-3,10.14-7.89,10.15s-7.89-3.89-7.9-10.12c0-6.54,3.12-10.56,8.14-10.42C787.09,729.88,790.09,733.95,790,740.14Z"
                  transform="translate(-0.92 -0.87)"/>
            <path d="M559.81,1858.19a18.78,18.78,0,1,1-18.61-18.93A18.85,18.85,0,0,1,559.81,1858.19Z"
                  transform="translate(-0.92 -0.87)"/>
            <path class="cls-44" d="M222.33,1858.34l30.19-18.1v35.57Z" transform="translate(-0.92 -0.87)"/>
            <path class="cls-44"
                  d="M860.65,1841.19l1.08.88c1.52,2.45.65,5.16.7,7.73.15,6.83.05,13.66,0,20.49,0,1.81.31,3.73-1.54,5-10.41.48-20.83.09-31.25.22a1.48,1.48,0,0,1-1.57-.89l0,.28.28,0c-1.66-1.26-.81-3-.82-4.55-.09-8.72,0-17.45,0-26.17-.08-1.89.67-3.56,2.62-3.52C840.31,1840.81,850.51,1839.68,860.65,1841.19Z"
                  transform="translate(-0.92 -0.87)"/>
            <path class="cls-45"
                  d="M860.65,1841.19c-9.38.09-18.75.19-28.13.24-2,0-4.06-.25-4.38,2.56q-.57.79-1.14,0c-.15-2.65,1-4,3.76-4,9.78,0,19.55,0,29.33,0a1,1,0,0,1,.77.34C861,1840.57,860.74,1840.91,860.65,1841.19Z"
                  transform="translate(-0.92 -0.87)"/>
            <path class="cls-30"
                  d="M860.93,1874.81c1.58-6.72.36-13.53.67-20.29.19-4.14.1-8.3.13-12.45,2.34,11,1.54,22,.41,33,0,.33-.75.58-1.15.87Q860.16,1875.45,860.93,1874.81Z"
                  transform="translate(-0.92 -0.87)"/>
            <path class="cls-30" d="M860.93,1874.81,861,1876c-9.33,0-18.65.05-28,0-1.68,0-3.76.86-4.89-1.36Z"
                  transform="translate(-0.92 -0.87)"/>
            <path class="cls-31"
                  d="M827,1844h1.14q.12,15.43.23,30.86c-2.2-1.14-1.32-3.22-1.34-4.9C827,1861.31,827,1852.65,827,1844Z"
                  transform="translate(-0.92 -0.87)"/>
            <path class="cls-46"
                  d="M931.93,39.93c.07-.77,0-1.6.79-2.09,1.89-2.11,3.43-4.26-1.09-4.78-2.33-.27-2.52-1.13-2.14-3.26,1.5-8.5,1.93-8.86,11.87-7.24-.64,3.18-3.51,5.1-4.59,7.88,1.84,1.76,5.42-1.21,6.25,2.62L932.76,42.8C930.69,42.36,931.6,41.06,931.93,39.93Z"
                  transform="translate(-0.92 -0.87)"/>
            <path class="cls-47"
                  d="M931.93,39.93c.32.95-.26,2.15.82,2.87a2.14,2.14,0,0,1-2.41,1.93A6,6,0,0,1,931.93,39.93Z"
                  transform="translate(-0.92 -0.87)"/>
            <path class="cls-46"
                  d="M1001.88,34c-.24,2.19-.42,4.18-.68,6.15s-1.43,3.48-3.53,3.57-3.38-1.19-3.8-3.25a33.19,33.19,0,0,1,0-13.38,3.64,3.64,0,0,1,7.21.17C1001.5,29.53,1001.65,31.85,1001.88,34Z"
                  transform="translate(-0.92 -0.87)"/>
            <path class="cls-48"
                  d="M1054.07,38.94c-.32,2.59-1.38,4.85-4.2,4.64-3.67-.27-4.14-3.29-4.13-6.27a3.7,3.7,0,0,1,4.13-4C1053.25,33.46,1054,36.08,1054.07,38.94Z"
                  transform="translate(-0.92 -0.87)"/>
            <path class="cls-49" d="M1023.89,37.22l5.32-8.52C1032,35.58,1030.73,37.89,1023.89,37.22Z"
                  transform="translate(-0.92 -0.87)"/>
        </g>
    </g>
</svg>