<svg xmlns="http://www.w3.org/2000/svg" viewBox="0 0 1080.19 1920.21"><defs><style>.cls-1{fill:#303030;}.cls-2{fill:#212121;}.cls-3{fill:#5f7c89;}.cls-4{fill:#5f7b89;}.cls-5{fill:#0da818;}.cls-6{fill:#007ebf;}.cls-7{fill:#fd0036;}.cls-8{fill:#bfbfbf;}.cls-9{fill:#bebebe;}.cls-10{fill:#b3b3b3;}.cls-11{fill:#bababa;}.cls-12{fill:#e3e3e3;}.cls-13{fill:#e4e4e4;}.cls-14{fill:#f0f0f0;}.cls-15{fill:#efefef;}.cls-16{fill:#eee;}.cls-17{fill:#ececec;}.cls-18{fill:#626262;}.cls-19{fill:#fcfcfc;}.cls-20{fill:#fbfbfb;}.cls-21{fill:#646464;}.cls-22{fill:#fafafa;}.cls-23{fill:#f4f4f4;}.cls-24{fill:#f3f3f3;}.cls-25{fill:#d6d6d6;}.cls-26{fill:#fdfdfd;}.cls-27{fill:#fefefe;}.cls-28{fill:#fcfdfd;}.cls-29{fill:#08a30f;}.cls-30{fill:#0076bb;}.cls-31{fill:#f6fefe;}.cls-32{fill:#fa0f2d;}.cls-33{fill:#fd0029;}.cls-34{fill:#343434;}.cls-35{fill:#313131;}.cls-36{fill:#010101;}.cls-37{fill:#ebebeb;}.cls-38{fill:#262626;}.cls-39{fill:#6f6f6f;}.cls-40{fill:#282828;}.cls-41{fill:#363636;}.cls-42{fill:#607c8a;}.cls-43{fill:#617e8b;}.cls-44{fill:#6e8894;}.cls-45{fill:#009f03;}.cls-46{fill:#05a50f;}.cls-47{fill:#017fbf;}.cls-48{fill:#006fb7;}.cls-49{fill:#fd0021;}.cls-50{fill:#fd081b;}.cls-51{fill:#fd081c;}.cls-52{fill:#fd091e;}.cls-53{fill:#fd091d;}.cls-54{fill:#fd071d;}.cls-55{fill:#fd061c;}.cls-56{fill:#e6f6e7;}.cls-57{fill:#f7fbf7;}.cls-58{fill:#f5fbf5;}.cls-59{fill:#f1f9f2;}.cls-60{fill:#f0f9f1;}.cls-61{fill:#06a00c;}.cls-62{fill:#069f07;}.cls-63{fill:#03a106;}.cls-64{fill:#fdfefd;}.cls-65{fill:#fcfdfc;}.cls-66{fill:#eff9f0;}.cls-67{fill:#21b02b;}.cls-68{fill:#e2f4e4;}.cls-69{fill:#36b63d;}.cls-70{fill:#f6fbf6;}.cls-71{fill:#17ac21;}.cls-72{fill:#edf8ee;}.cls-73{fill:#02a40b;}.cls-74{fill:#87d48b;}.cls-75{fill:#ddf2df;}.cls-76{fill:#049e08;}.cls-77{fill:#e7f6e8;}.cls-78{fill:#01a206;}.cls-79{fill:#e5f5e6;}.cls-80{fill:#079f08;}.cls-81{fill:#eef8ef;}.cls-82{fill:#e8f6e9;}.cls-83{fill:#e4f5e5;}.cls-84{fill:#10a717;}.cls-85{fill:#f7fcf8;}.cls-86{fill:#3bb741;}.cls-87{fill:#c2e8c5;}.cls-88{fill:#029c04;}.cls-89{fill:#05a10a;}.cls-90{fill:#f4fbf5;}.cls-91{fill:#fbfdfb;}.cls-92{fill:#bee7c1;}.cls-93{fill:#def3e0;}.cls-94{fill:#fbfdfc;}.cls-95{fill:#cdedcf;}.cls-96{fill:#09a30f;}.cls-97{fill:#0ea817;}.cls-98{fill:#10a818;}.cls-99{fill:#019e02;}.cls-100{fill:#eaf7eb;}.cls-101{fill:#0b9e0b;}.cls-102{fill:#01a104;}.cls-103{fill:#e6f5e7;}.cls-104{fill:#edf8ed;}.cls-105{fill:#c8ebca;}.cls-106{fill:#ebf7ec;}.cls-107{fill:#c6e9c8;}.cls-108{fill:#f7fbf8;}.cls-109{fill:#049e07;}.cls-110{fill:#7fcf82;}.cls-111{fill:#049d07;}.cls-112{fill:#c7ebc9;}.cls-113{fill:#ceedd0;}.cls-114{fill:#d0eed2;}.cls-115{fill:#d1eed3;}.cls-116{fill:#c9ebcb;}.cls-117{fill:#039e05;}.cls-118{fill:#e1f4e2;}.cls-119{fill:#009b01;}.cls-120{fill:#009c00;}.cls-121{fill:#06a00b;}.cls-122{fill:#029d05;}.cls-123{fill:#f8fbfd;}.cls-124{fill:#eaf4f9;}.cls-125{fill:#f1f7fb;}.cls-126{fill:#e1eff6;}.cls-127{fill:#f6fafc;}.cls-128{fill:#e1f0f7;}.cls-129{fill:#8dc4e3;}.cls-130{fill:#dcedf6;}.cls-131{fill:#1080c0;}.cls-132{fill:#0374ba;}.cls-133{fill:#0071b8;}.cls-134{fill:#9bcce5;}.cls-135{fill:#0075bb;}.cls-136{fill:#2b8fc8;}.cls-137{fill:#1382c0;}.cls-138{fill:#fee7ec;}.cls-139{fill:#fefafb;}.cls-140{fill:#feeff2;}.cls-141{fill:#fefdfd;}.cls-142{fill:#fec3d0;}.cls-143{fill:#fd0022;}.cls-144{fill:#fefbfb;}.cls-145{fill:#fd143c;}.cls-146{fill:#fefdfe;}.cls-147{fill:#fd001c;}.cls-148{fill:#feb6c5;}.cls-149{fill:#fd0025;}.cls-150{fill:#fef7f9;}.cls-151{fill:#feeef1;}.cls-152{fill:#fee4e9;}.cls-153{fill:#fef8f9;}.cls-154{fill:#fec9d5;}.cls-155{fill:#fd001b;}.cls-156{fill:#fd143f;}.cls-157{fill:#fda7ba;}.cls-158{fill:#fd0014;}.cls-159{fill:#fee8ed;}.cls-160{fill:#fd001f;}.cls-161{fill:#fecdd8;}.cls-162{fill:#fd001e;}.cls-163{fill:#fee0e6;}.cls-164{fill:#fd0018;}.cls-165{fill:#fee5ea;}.cls-166{fill:#fd001a;}.cls-167{fill:#fd2e53;}.cls-168{fill:#feecf0;}.cls-169{fill:#fd0027;}.cls-170{fill:#fef1f3;}.cls-171{fill:#fedee2;}.cls-172{fill:#feebef;}.cls-173{fill:#feedf0;}.cls-174{fill:#fef2f5;}.cls-175{fill:#fd1126;}.cls-176{fill:#fee2e8;}.cls-177{fill:#fd0020;}.cls-178{fill:#fec2ce;}.cls-179{fill:#feecef;}.cls-180{fill:#fefcfc;}.cls-181{fill:#fd2e52;}.cls-182{fill:#fd2147;}.cls-183{fill:#fd2146;}.cls-184{fill:#fef4f6;}.cls-185{fill:#fee9ed;}.cls-186{fill:#fed8e0;}.cls-187{fill:#fef0f3;}.cls-188{fill:#fee4ea;}.cls-189{fill:#fedee5;}.cls-190{fill:#fd0a33;}.cls-191{fill:#fef9fa;}.cls-192{fill:#fd133e;}.cls-193{fill:#fef5f7;}.cls-194{fill:#fe879c;}.cls-195{fill:#fee1e7;}.cls-196{fill:#fe9eb2;}</style></defs><title>Asset 1</title><g id="Layer_2" data-name="Layer 2"><g id="Layer_1-2" data-name="Layer 1"><path class="cls-1" d="M1081,64V1795c-1.55,1.52-3.53,1.76-5.55,1.84s-4,.06-6,.06q-528.45,0-1056.89,0c-3.9,0-8.07,1-11.55-1.85V64c1.55-1.52,3.53-1.76,5.55-1.84s4-.06,6-.06q528.45,0,1056.89,0C1073.35,62.15,1077.52,61.13,1081,64Z" transform="translate(-0.92 -0.87)"/><path d="M1,1795H1081c0,40.83,0,81.67.08,122.5,0,3-.6,3.58-3.58,3.58q-536.5-.13-1073,0c-3,0-3.59-.6-3.58-3.58C1,1876.67,1,1835.83,1,1795Z" transform="translate(-0.92 -0.87)"/><path class="cls-2" d="M1081,64H1C1,44,1.05,24,.93,4,.92,1.5,1.5.52,4,1A8.24,8.24,0,0,0,5.5,1Q541,1,1076.5.91c3.75,0,4.64.84,4.6,4.59C1080.88,25,1081,44.5,1081,64Z" transform="translate(-0.92 -0.87)"/><path class="cls-3" d="M318.12,770q-103,0-206,.13c-5.18,0-6.3-1.43-6.26-6.38q.36-43.49,0-87c0-4.48,1-5.86,5.74-5.86q206.49.2,413,0c3.89,0,5.52.63,5.49,5.08q-.3,44.49,0,89c0,4.45-1.6,5.09-5.49,5.08Q421.37,769.92,318.12,770Z" transform="translate(-0.92 -0.87)"/><path class="cls-3" d="M763.88,671q103,0,206-.13c5.18,0,6.3,1.43,6.26,6.38q-.36,43.49,0,87c0,4.48-1,5.86-5.74,5.86q-206.49-.2-413,0c-3.89,0-5.52-.63-5.49-5.08q.3-44.49,0-89c0-4.45,1.6-5.09,5.49-5.08Q660.63,671.08,763.88,671Z" transform="translate(-0.92 -0.87)"/><path class="cls-4" d="M541.13,629H112.64c-6.63,0-6.64,0-6.64-6.75q0-186.24,0-372.49c0-6.75,0-6.76,6.64-6.76H969.11c7.77,0,6.87-.84,6.88,7q0,186.24,0,372.49c0,6.5,0,6.5-6.39,6.51Z" transform="translate(-0.92 -0.87)"/><path class="cls-5" d="M540.81,1073.91h-126c-9.77,0-13.67-3.86-13.68-13.5q0-71,0-142c0-9.29,4-13.34,13.4-13.34q126.46,0,252.92,0c9.48,0,13.35,3.92,13.35,13.34q0,71,0,142c0,9.89-3.63,13.5-13.58,13.5Z" transform="translate(-0.92 -0.87)"/><path class="cls-5" d="M831,1073.91H705c-10.06,0-13.87-3.79-13.87-13.81q0-70.73,0-141.46c0-9.59,4-13.54,13.7-13.54q126.21,0,252.42,0c9.76,0,13.55,3.86,13.55,13.65q0,70.73,0,141.46c0,10.2-3.55,13.7-13.88,13.7Z" transform="translate(-0.92 -0.87)"/><path class="cls-5" d="M540.89,1252.91h-126c-10,0-13.76-3.84-13.76-13.92q0-70.73,0-141.46c0-9.34,4-13.42,13.32-13.42q126.46,0,252.92,0c9.53,0,13.43,3.89,13.43,13.27q0,71.23,0,142.46c0,9.27-3.77,13.08-13,13.08Q604.37,1252.92,540.89,1252.91Z" transform="translate(-0.92 -0.87)"/><path class="cls-5" d="M250.88,1431.91h-126c-10,0-13.75-3.84-13.75-13.93q0-70.73,0-141.46c0-9.34,4-13.42,13.32-13.42q126.46,0,252.92,0c9.53,0,13.42,3.89,13.42,13.27q0,71.23,0,142.46c0,9.27-3.78,13.07-13,13.07Z" transform="translate(-0.92 -0.87)"/><path class="cls-5" d="M830.88,1431.91h-126c-10,0-13.74-3.84-13.74-13.94q0-70.73,0-141.46c0-9.33,4-13.41,13.33-13.41q126.46,0,252.92,0c9.52,0,13.41,3.9,13.42,13.28q0,71.23,0,142.46c0,9.26-3.78,13.06-13,13.06Z" transform="translate(-0.92 -0.87)"/><path class="cls-6" d="M541.1,1610.86H416.61c-12.27,0-14.79-2.55-14.79-15q0-70.25,0-140.49c0-9.85,3.31-13.19,13.18-13.19H667c10.14,0,13.79,3.68,13.79,13.83q0,70.75,0,141.49c0,9.6-3.7,13.36-13.18,13.36Z" transform="translate(-0.92 -0.87)"/><path class="cls-6" d="M541.1,1431.86h-125c-11.59,0-14.29-2.75-14.29-14.5q0-70.5,0-141c0-9.85,3.31-13.19,13.18-13.19H667c10.15,0,13.79,3.68,13.79,13.83q0,70.75,0,141.49c0,9.6-3.7,13.36-13.18,13.36Z" transform="translate(-0.92 -0.87)"/><path class="cls-6" d="M831.41,1252.86h-126c-10.6,0-13.6-3-13.6-13.7q0-71,0-142c0-9.53,3.39-13,12.87-13q126.24,0,252.49,0c9.86,0,13.59,3.75,13.6,13.52q0,71,0,142c0,9.48-3.74,13.17-13.38,13.17Z" transform="translate(-0.92 -0.87)"/><path class="cls-7" d="M250.47,1073.86H125c-10.21,0-13.71-3.53-13.71-13.8q0-70.73,0-141.45c0-9.76,3.72-13.44,13.64-13.44H377.36c9.9,0,13.37,3.56,13.37,13.63q0,70.73,0,141.45c0,10.36-3.29,13.61-13.8,13.61Z" transform="translate(-0.92 -0.87)"/><path class="cls-7" d="M251.25,1252.86H124.79c-9.88,0-13.49-3.62-13.49-13.52q0-71,0-142c0-9.43,3.81-13.22,13.36-13.22H377.58c9.59,0,13.15,3.64,13.15,13.35q0,71,0,142c0,10-3.38,13.39-13.52,13.39Z" transform="translate(-0.92 -0.87)"/><path class="cls-7" d="M251,1610.86h-126c-10.25,0-13.75-3.51-13.75-13.75q0-71,0-142c0-9.12,3.87-13,13.09-13q126.71,0,253.42,0c9.28,0,12.91,3.72,12.92,13.08q0,71.23,0,142.45c0,9.72-3.46,13.15-13.25,13.15Z" transform="translate(-0.92 -0.87)"/><path class="cls-7" d="M831,1610.86h-126c-10.25,0-13.75-3.51-13.75-13.75q0-71,0-142c0-9.11,3.87-13,13.09-13q126.71,0,253.42,0c9.28,0,12.91,3.72,12.91,13.08q0,71.23,0,142.45c0,9.72-3.46,13.15-13.26,13.15Z" transform="translate(-0.92 -0.87)"/><path class="cls-8" d="M557.4,851.65c-3.93,1.31-6.41,0-7.67-3.91-.35-1.09-1.12-2-1.59-3.1a3,3,0,0,0-3.59-2c-2.33.34-1.23,2.27-1.69,3.51-.72,2,2.06,5.37-2.34,5.82-2.08.21-3.47-.16-3.42-2.84.14-6.82.06-13.65,0-20.47,0-1.65.23-3.06,2.33-3,3.82.11,7.72-.18,11.44.5,5.57,1,8.37,8,4.48,12-3.08,3.19-2,5.24-.4,8.07C556,848,557.26,849.59,557.4,851.65Z" transform="translate(-0.92 -0.87)"/><path class="cls-8" d="M533,838.85c0,8.09-3.71,13-10.24,13.46-5.7.42-10.08-2.57-11.6-8.07a21.6,21.6,0,0,1-.77-4.91c-.3-8.3,4.46-14.17,11.37-14.14S533,830.48,533,838.85Z" transform="translate(-0.92 -0.87)"/><path class="cls-8" d="M474.35,852.37c-4.21-.05-7.7-1-9.91-4.36-.71-1.1-2.16-2.82-.49-3.87,1.4-.88,3.68-1.24,4.84.7.82,1.36,1.63,2.56,3.16,2.92,2.2.52,4.63.58,5.6-1.84s-1.21-3.4-3.08-4.2a67.34,67.34,0,0,1-6.82-3,6.56,6.56,0,0,1-3.55-7.1c.46-2.93,2.42-4.58,5.1-5.56,5-1.84,10.71-.49,13,3.22.75,1.22,1.93,2.83.34,3.94a3.34,3.34,0,0,1-4.5-.42,19.91,19.91,0,0,0-1.48-2c-1.57-1.31-3.39-1.15-5.17-.5a2.21,2.21,0,0,0-1.54,2.31c.1,2.09,1.81,2.61,3.32,3.25,1.22.52,2.53.82,3.75,1.33,5.12,2.1,7.22,5.17,6.28,9.36C482.09,851.56,478.07,852.06,474.35,852.37Z" transform="translate(-0.92 -0.87)"/><path class="cls-8" d="M561.16,839c0-3.32.07-6.65,0-10-.06-2.17.46-3.47,3-3.4,4.15.12,8.3.05,12.45,0,1.6,0,2.42.55,2.42,2.32s-1.11,2.12-2.57,2.11c-2,0-4,.11-6,0-2.39-.16-3.66.38-3.61,3.21,0,2.64,1.29,3,3.41,2.9,1.66-.09,3.32,0,5,0s2,.94,2,2.27-.43,2.27-1.94,2.29-3,.13-4.48,0c-2.51-.19-4,.23-3.95,3.39s1.42,3.6,4,3.45c2-.12,4,0,6,0,1.74,0,2.3.82,2.27,2.46s-.87,1.94-2.2,1.93c-4.32,0-8.64-.09-13,0-2.34.07-2.76-1.12-2.71-3.08C561.22,845.64,561.16,842.32,561.16,839Z" transform="translate(-0.92 -0.87)"/><path class="cls-9" d="M492,839.64c.19,1.15.4,2.62.66,4.09a4.54,4.54,0,0,0,3.89,4c2.32.4,4.5-.15,5.37-2.52,1.11-3,3.72-2.71,5.23-1.71,1.95,1.28.11,3.33-.81,4.71-3.67,5.53-13.25,5.6-17.32.24-3.61-4.75-3.53-14.68.15-19.31,4.78-6,14.95-5,17.92,1.8.49,1.13,1.67,2.65.14,3.51-1.37.78-3.83,1.09-4.5-.5-1.44-3.39-3.66-4.95-7-3.66C491.7,831.88,492.32,835.88,492,839.64Z" transform="translate(-0.92 -0.87)"/><path class="cls-8" d="M610.93,825.65c1.92,1.22,6.72-2.33,6.68,2.38,0,3.93-4.45,1.53-6.86,1.94-1.94.33-3.55.21-3.7,2.83-.18,3.11,1.87,2,3.32,1.93,4.82-.13,7.52,2.37,8.28,6.91.73,4.37-.7,8-4.85,10-3.64,1.76-9.11.44-11.37-2.61-.85-1.14-2.26-2.66-.8-3.88a3.24,3.24,0,0,1,4.52.38c1.64,2,3.29,3.64,5.76,1.6,1.93-1.59,1.71-4,.91-6-1.12-2.8-3.54-2.49-5.93-1.7-3.91,1.29-5.83.21-4.92-4.19a12.23,12.23,0,0,0,.11-1.49C602.7,825.65,602.7,825.65,610.93,825.65Z" transform="translate(-0.92 -0.87)"/><path class="cls-10" d="M588.12,834.37c0,2.26-1.18,3.21-2.8,3.24a2.76,2.76,0,0,1-3.08-3.07c.11-1.69,1.34-2.56,3.08-2.52A2.6,2.6,0,0,1,588.12,834.37Z" transform="translate(-0.92 -0.87)"/><path class="cls-11" d="M585.39,846.72c1.73.19,2.79,1.05,2.66,2.89s-1.34,2.57-3.05,2.48-2.84-1.08-2.72-2.85S583.69,846.76,585.39,846.72Z" transform="translate(-0.92 -0.87)"/><path class="cls-12" d="M541.05,1833.64a24.4,24.4,0,1,1-24.41,24.49A24.5,24.5,0,0,1,541.05,1833.64Z" transform="translate(-0.92 -0.87)"/><path class="cls-13" d="M258,1858c0,6.32.07,12.64,0,19-.07,5.22-2.5,6.71-6.93,4.18q-16-9.15-31.89-18.54c-4.32-2.55-4.42-5.82-.21-8.4q15.94-9.76,32.05-19.24c4.4-2.59,6.9-1.08,7,4.1C258.11,1845.36,258,1851.68,258,1858Z" transform="translate(-0.92 -0.87)"/><path class="cls-12" d="M826,1879.1a2,2,0,0,1-2-2.06c.16-12.69.13-25.38,0-38.07a2,2,0,0,1,2-2c12.69.09,25.37.13,38.06,0a2,2,0,0,1,2.07,2c-.17,12.7-.2,25.4,0,38.1a2,2,0,0,1-2.06,2.07C851.36,1878.9,838.66,1878.94,826,1879.1Z" transform="translate(-0.92 -0.87)"/><path class="cls-14" d="M864,1836.92c-.39.29-.79.83-1.18.83q-17.84.07-35.68,0c-.4,0-.8-.53-1.19-.82,3.28-1.56,6.78-.77,10.14-.69C845.42,1836.5,854.76,1835.27,864,1836.92Z" transform="translate(-0.92 -0.87)"/><path class="cls-15" d="M823.93,1839c.29.4.82.79.82,1.19q.06,17.85,0,35.7c0,.4-.54.79-.83,1.18-1.68-7.45-.54-15-.64-22.5C823.21,1849.37,822.28,1844.09,823.93,1839Z" transform="translate(-0.92 -0.87)"/><path class="cls-16" d="M866.12,1877a131.74,131.74,0,0,1,0-38.1c1.51,4,.73,8.1.65,12.13C866.59,1859.73,867.72,1868.43,866.12,1877Z" transform="translate(-0.92 -0.87)"/><path class="cls-17" d="M826,1879.1c.39-.29.79-.84,1.18-.84q17.87-.06,35.74,0c.39,0,.78.55,1.17.85-7.46,1.66-15,.53-22.51.63C836.36,1879.81,831.09,1880.75,826,1879.1Z" transform="translate(-0.92 -0.87)"/><path class="cls-18" d="M944.16,34.18a71.15,71.15,0,0,1,0-8.45c.35-3.13-2-7.71,1.57-9.11,5.51-2.16,10.49-5.75,18-1.68,5.59,3,5,6,5.13,10.21.15,7.13.3,14.26.31,21.39,0,1.46.9,3.44-1.39,4.24-2.24-3.09-1.07-6.65-1.35-10-.2-2.41.3-5-2.22-6.62a8.94,8.94,0,0,0-1.22-.86c-6.59-2.87-6.6-2.86-3.06-9.43-2.55-.54-5.13-1.22-6.59,1.4s-1.83,5.12,1.49,7.26c2.69,1.74,2.37,4.12-.67,5.69C951.72,34.63,947.66,35.07,944.16,34.18Z" transform="translate(-0.92 -0.87)"/><path class="cls-19" d="M912.76,49.82c-8.68.88-17.35.19-26.15.42L912,24c2.05.05,2.37,1.72,2.49,3.12a110.46,110.46,0,0,1,0,19.77A4.28,4.28,0,0,1,912.76,49.82Z" transform="translate(-0.92 -0.87)"/><path class="cls-20" d="M944.16,34.18c2.91-1.84,5.82-.12,8.69.14,2.62.24.73,2.27.89,3.5a4.07,4.07,0,0,1,0,2.56c.11.22-.56.54.12.66a57.22,57.22,0,0,1,6.1-6.3c1.11-1,2.12-2.63,4.09-1.67,3.2,0,4.74,1.33,4.33,4.84-.5,4.27.55,8.63-.62,12.88-6.65,0-13.31-.13-20,0-2.83.07-3.82-.83-3.68-3.68C944.32,42.83,944.16,38.5,944.16,34.18Z" transform="translate(-0.92 -0.87)"/><path class="cls-21" d="M912.76,49.82c-.77-8.59.62-17.24-.76-25.81l10-10.49c0,12.3,0,23.15,0,34,0,2-1.09,2.61-2.85,2.54Z" transform="translate(-0.92 -0.87)"/><path class="cls-22" d="M1001.1,37c-4.34,1.74-8.15,2.19-10.74-1.65a9.89,9.89,0,0,1,.08-11.7,7.63,7.63,0,0,1,8.77-3.16,7,7,0,0,1,2.69,1.24c5,4.15,4.49,9.72,3.55,15.19-1,5.68-4.36,9.22-9.17,9.85-1.3.17-3.55,1.51-3.93-1.31-.3-2.18,1.41-2.19,2.94-2.41C998.42,42.63,1000.39,40.89,1001.1,37Z" transform="translate(-0.92 -0.87)"/><path class="cls-22" d="M1029,47.4c-3.18-.06-6-1-7.59-3.91-.53-1-2-2.44-.31-3.33,1.1-.59,3-1,3.9.83,1.38,2.75,3.51,3.68,6.1,2,2.43-1.61,2.55-4.33,1.55-6.74-1.27-3-3.85-3.35-6.69-2.15-4,1.69-5.07.12-4.58-3.8,1.24-9.88,1.18-9.93,11.46-9.62,1.54,0,4.13-1.08,4,2.07s-2.68,1.52-4.19,2c-2.16.65-5.26-1.67-6.47,1.69-.86,2.38-.42,3.78,3,3.5,5.39-.43,8.58,3.2,8.56,8.68C1037.69,43.86,1034.22,47.37,1029,47.4Z" transform="translate(-0.92 -0.87)"/><path class="cls-22" d="M1053.7,47c-1.62.18-2.74-.36-2.44-2.16.66-4-1.91-3.79-4.53-3.67-1.33.06-2.67-.07-4,0-3.19.22-3.49-1.61-2.25-3.68,3.15-5.28,6.57-10.4,9.89-15.58,1.13-1.76,2.91-1.55,4.48-1.14,1.82.48,1,2.22,1,3.4.11,3.33,0,6.66.06,10,0,1.07-.57,2.51.86,3.08,4.26,1.7,3.25,2.85-.22,4.23-1.22.49-.68,2.11-.64,3.21C1056,46.42,1055.45,47.23,1053.7,47Z" transform="translate(-0.92 -0.87)"/><path class="cls-23" d="M894.84,22.2c1.92.11,4.39-1.55,5,1.08.5,2.22,1.54,5.55-2.19,6.7-2.86.88-6,1.09-7.42-2a12.74,12.74,0,0,1,0-11.13c1.54-3.16,7.07-3.25,8.8-.31.45.77,1.35,1.76.24,2.62-.92.71-1.7.35-2.48-.6-2.35-2.88-3.56-1.3-4.07,1.33a23.54,23.54,0,0,0-.15,5,2.84,2.84,0,0,0,2.09,3,1.59,1.59,0,0,0,2.06-.91c.56-1.47.21-2.55-1.46-3.07C895.05,23.81,895,23,894.84,22.2Z" transform="translate(-0.92 -0.87)"/><path class="cls-24" d="M882.59,30.19a4.58,4.58,0,0,1-3.29-.88c-.87-.76-2-1.66-1.11-2.87a1.66,1.66,0,0,1,2.6.12c1,1.26,2,2,3,.2.64-1.24.48-2.48-1.26-3.15-2.37-.91-2.48-1.89.11-2.87a1.85,1.85,0,0,0,.82-2.92c-1-1.53-1.79-.55-2.73.3a1.47,1.47,0,0,1-2.49-.34c-.42-.88.32-1.64.89-2.15,1.69-1.52,3.68-1.41,5.61-.59s2.94,2.72,2.07,4.48c-1,2.05-.4,3.54.13,5.44C887.75,27.89,885.73,30.07,882.59,30.19Z" transform="translate(-0.92 -0.87)"/><path class="cls-25" d="M1015.73,29.82a2.51,2.51,0,0,1-2.63,2.41c-1.53,0-2.7-.66-2.76-2.22a2.5,2.5,0,0,1,2.8-2.78C1014.65,27.27,1015.46,28.34,1015.73,29.82Z" transform="translate(-0.92 -0.87)"/><path class="cls-25" d="M1012.88,47.24c-1.56-.08-2.63-.92-2.56-2.44a2.53,2.53,0,0,1,3-2.56,2.48,2.48,0,0,1,2.31,2.77C1015.53,46.58,1014.42,47.26,1012.88,47.24Z" transform="translate(-0.92 -0.87)"/><path class="cls-26" d="M343.39,722c-.15,3.4-.55,6.67-2.34,9.64-2.56,4.26-7.11,6.31-12.39,5.62s-8.74-4-10.19-9a22.91,22.91,0,0,1,0-12.34,11.73,11.73,0,0,1,11.61-9.17c6.1-.15,10.53,3,12.29,8.89A47.76,47.76,0,0,1,343.39,722Z" transform="translate(-0.92 -0.87)"/><path class="cls-26" d="M278.12,706.75c4,0,7.65.91,9.91,4.58.82,1.32,2.2,3.28.33,4.28-1.46.78-3.83,1.22-5.35-.75a19.46,19.46,0,0,0-1.08-1.65c-1.75-1.83-3.94-1.56-6-1a2.67,2.67,0,0,0-2,3c.24,2.26,2.21,2.74,3.83,3.47,2.42,1.08,5,1.83,7.31,3.09,3.42,1.87,4.79,5,4.13,8.83s-3.35,5.54-6.82,6.33c-5.88,1.35-12-.42-14.39-4.33-.87-1.42-2.67-3.5-.71-4.74,1.72-1.08,4.52-1.66,5.8,1.43a4.14,4.14,0,0,0,3.78,2.79c2.28.12,5,.72,6-2.15,1-3.08-1.68-3.92-3.8-4.84-1.37-.59-2.84-.94-4.22-1.5-5.5-2.25-8.21-5.89-7.4-9.9C268.19,709.5,272.35,706.8,278.12,706.75Z" transform="translate(-0.92 -0.87)"/><path class="cls-26" d="M356,707.05c2.8.07,5.62-.22,8.35.89,4.39,1.8,6.53,5.14,6.25,9.72s-2.83,7.31-7.26,8.35a5.82,5.82,0,0,1-1.95.37c-6.34-.85-8.55,2-7.49,8.07.42,2.41-1.26,2.57-3.11,2.58s-3.17-.28-3.15-2.64c.07-8.13.06-16.26,0-24.39,0-2.06.69-3.08,2.88-3C352.33,707.14,354.16,707.06,356,707.05Z" transform="translate(-0.92 -0.87)"/><path class="cls-27" d="M300.83,724.36a43.55,43.55,0,0,1,0-6c.66-4.79-.73-7.28-6.05-6.29-1.93.36-3.12-.35-3-2.68.08-2.11,1.22-2.38,2.9-2.37,6.14,0,12.29.06,18.43,0,2,0,3.11.41,3.06,2.73,0,2.13-1.22,2.65-2.87,2.34-5.93-1.1-6.81,1.95-6.4,6.95s0,10,.13,14.93c.07,2.45-.87,3.07-3.18,3.09-2.47,0-3.15-1-3.06-3.24C300.93,730.67,300.83,727.52,300.83,724.36Z" transform="translate(-0.92 -0.87)"/><path class="cls-28" d="M776.26,719c0,2.5.08,5,0,7.49-.27,7.17-4.21,10.94-11.38,11s-11.36-3.81-11.63-10.85c-.21-5.32,0-10.65-.09-16,0-2.35.36-3.64,3.21-3.69,3.16-.05,3.49,1.47,3.44,4-.11,5.16,0,10.32,0,15.47,0,3.52,1.19,5.81,5.14,5.79s5.12-2.43,5.13-5.87c0-5.32.07-10.65,0-16,0-2.15.34-3.36,2.94-3.39s3.49,1,3.37,3.53c-.14,2.82,0,5.66,0,8.48Z" transform="translate(-0.92 -0.87)"/><path class="cls-26" d="M792.31,706.75c3.83,0,7.29,1,9.58,4.31.91,1.34,2.21,3.42.72,4.39s-4.2,1.68-5.65-.77c-1-1.74-2.26-2.82-4.32-2.8s-4.21.06-4.73,2.61c-.47,2.29,1.29,3.21,3,3.93,2.45,1,5,1.78,7.37,3,3.79,1.95,5.63,5.12,4.76,9.46-.8,4-3.77,5.67-7.47,6.25-5.18.81-10.06.27-13.52-4.2-1.09-1.4-3-3.67-.73-5.07,1.63-1,4.44-1.56,5.74,1.68s4.13,2.88,6.84,2.61a3.1,3.1,0,0,0,1.09-6c-1.95-.91-4-1.57-6-2.38-5.82-2.33-8.58-6-7.63-10.2S786.52,706.74,792.31,706.75Z" transform="translate(-0.92 -0.87)"/><path class="cls-26" d="M722.73,737.91c3.93-10.61,7.25-19.49,10.49-28.38a3.36,3.36,0,0,1,3.68-2.54c2,0,3.35.44,4.13,2.62,2.8,7.83,5.88,15.56,8.66,23.4.39,1.1,2.39,3,.26,3.69-1.83.57-5,1.68-5.93-1.5s-2.35-4.67-5.92-4.36-6.76-.46-7.95,4.43C729.32,738.74,725.89,736.05,722.73,737.91Z" transform="translate(-0.92 -0.87)"/><path class="cls-26" d="M702.65,722c0-4,.05-8,0-11.95,0-2,.61-3.08,2.84-3,3.65.13,7.32-.17,10.94.19,5.42.54,9.06,4.45,9.27,9.41s-3,8.59-8.78,9.67a5,5,0,0,1-1.47.24c-5.32-.68-7.61,1.39-6.54,6.87.44,2.24-.15,3.69-3.07,3.67s-3.27-1.33-3.2-3.66C702.73,729.62,702.65,725.8,702.65,722Z" transform="translate(-0.92 -0.87)"/><path class="cls-26" d="M807.65,722.68c0-4.49.11-8.15,0-11.81-.1-2.61.49-4,3.54-3.87,4.65.22,9.32.09,14,0,1.83,0,2.73.59,2.73,2.58s-1,2.57-2.78,2.53c-2.49-.05-5,.14-7.48,0-2.8-.22-3.71.77-3.77,3.64-.06,3.18,1.45,3.55,4,3.39,2-.13,4,0,6,0s2,1.25,2,2.71-.53,2.21-2,2.22c-1.66,0-3.33.08-5,0-2.77-.11-5-.39-5.06,3.86-.09,4.55,2.36,4.21,5.27,4.11,2-.06,4,0,6,0,1.7,0,2.86.28,2.87,2.4,0,2-.79,2.71-2.66,2.59-.83-.05-1.67,0-2.49,0-4.79-.23-11,2-14-.8C805.43,733.1,808.23,726.75,807.65,722.68Z" transform="translate(-0.92 -0.87)"/><path class="cls-1" d="M541.24,254h417c6.76,0,6.77,0,6.77,6.62q0,175.49,0,351c0,6.38,0,6.39-6.51,6.39h-835c-6.51,0-6.52,0-6.52-6.37q0-175.74-.13-351.49c0-5.18,1.44-6.25,6.38-6.25Q332.25,254.1,541.24,254Z" transform="translate(-0.92 -0.87)"/><path class="cls-27" d="M541.51,915c41,0,82,.08,122.93-.11,4.59,0,6.09.74,6.06,5.78q-.35,69,0,137.92c0,4.08-.57,5.57-5.25,5.56q-124.18-.27-248.35,0c-4.39,0-5-1.35-5-5.28q.21-69.46,0-138.92c0-4.34,1.27-5,5.25-5C458.56,915.06,500,915,541.51,915Z" transform="translate(-0.92 -0.87)"/><path class="cls-29" d="M671.75,916.61v146.2h-.43V916.18Z" transform="translate(-0.92 -0.87)"/><path class="cls-27" d="M831,1064c-41.31,0-82.62-.06-123.93.1-4,0-5.22-.81-5.21-5.07q.26-69.71,0-139.42c0-3.57.62-4.73,4.53-4.73q124.68.2,249.35,0c3.6,0,4.73.69,4.72,4.56q-.23,70,0,139.92c0,4.26-1.52,4.7-5.08,4.69Q893.18,1063.93,831,1064Z" transform="translate(-0.92 -0.87)"/><path class="cls-29" d="M961.28,1062.83V916.17h.47v146.66Z" transform="translate(-0.92 -0.87)"/><path class="cls-27" d="M540.92,1243c-41.31,0-82.62-.07-123.93.1-4.14,0-5.17-1-5.15-5.13q.25-69.46,0-138.92c0-4.09.88-5.19,5.1-5.18q124.18.21,248.35,0c4.13,0,5.19.94,5.17,5.13q-.25,69.46,0,138.92c0,4.12-.92,5.19-5.12,5.17C623.87,1243,582.39,1243,540.92,1243Z" transform="translate(-0.92 -0.87)"/><path class="cls-29" d="M671.29,1241.83V1095.18h.47v146.65Z" transform="translate(-0.92 -0.87)"/><path class="cls-27" d="M250.94,1273c41.48,0,83,.07,124.43-.11,4.25,0,5.11,1.13,5.1,5.21q-.23,69.46,0,138.92c0,4.23-1.11,5.11-5.19,5.1q-124.18-.19-248.35,0c-4.25,0-5.09-1.14-5.08-5.2q.23-69.46,0-138.92c0-4.21,1.06-5.13,5.17-5.11C168.32,1273.07,209.63,1273,250.94,1273Z" transform="translate(-0.92 -0.87)"/><path class="cls-29" d="M381.29,1420.83V1274.17h.47v146.65Z" transform="translate(-0.92 -0.87)"/><path class="cls-27" d="M830.94,1273c41.48,0,83,.07,124.43-.11,4.26,0,5.11,1.14,5.1,5.21q-.23,69.46,0,138.92c0,4.24-1.12,5.1-5.2,5.1q-124.18-.19-248.35,0c-4.26,0-5.09-1.15-5.07-5.2q.23-69.46,0-138.92c0-4.21,1.07-5.12,5.18-5.11C748.32,1273.07,789.63,1273,830.94,1273Z" transform="translate(-0.92 -0.87)"/><path class="cls-29" d="M961.28,1420.83V1274.16h.48v146.67Z" transform="translate(-0.92 -0.87)"/><path class="cls-27" d="M541.51,1452c41.33,0,82.65.05,124-.09,3.86,0,5,.92,5,4.9q-.22,69.74,0,139.48c0,4-1.19,4.86-5,4.86q-124.48-.16-249,0c-3.71,0-4.69-.88-4.68-4.65q.21-70,0-140c0-3.82,1-4.62,4.71-4.61C458.19,1452,499.85,1452,541.51,1452Z" transform="translate(-0.92 -0.87)"/><path class="cls-30" d="M671.75,1453.16v146.67h-.49V1453.16Z" transform="translate(-0.92 -0.87)"/><path class="cls-27" d="M541,1422c-41.33,0-82.65-.06-124,.1-4.13,0-5.21-1-5.2-5.15q.25-69.49,0-139c0-4.21,1.09-5.14,5.2-5.13q124,.19,248,0c4.31,0,5.51.92,5.5,5.4q-.28,69.24,0,138.48c0,4.5-1.21,5.41-5.5,5.39C623.65,1422,582.32,1422,541,1422Z" transform="translate(-0.92 -0.87)"/><path class="cls-30" d="M671.75,1274.16v146.67h-.49V1274.16Z" transform="translate(-0.92 -0.87)"/><path class="cls-27" d="M831.51,1094c41.33,0,82.65.05,124-.09,3.87,0,5,.93,5,4.9q-.22,69.74,0,139.48c0,4-1.2,4.86-5,4.86q-124.23-.16-248.46,0c-4.14,0-5.2-1-5.18-5.16q.24-69.49,0-139c0-4.23,1.12-5.14,5.22-5.12C748.53,1094,790,1094,831.51,1094Z" transform="translate(-0.92 -0.87)"/><path class="cls-30" d="M961.26,1241.84V1095.16h.49v146.68Z" transform="translate(-0.92 -0.87)"/><path class="cls-27" d="M380.09,916c.09,1,.26,2,.26,3q0,70.47.08,140.95c0,3.19-.74,4.19-4.08,4.18q-125.2-.14-250.41,0c-2.73,0-4.1-.21-4.09-3.64Q122,988.72,122,917a6.19,6.19,0,0,1,.16-1c1.73-1.44,3.81-1,5.77-1q123.21,0,246.42,0C376.28,915,378.34,914.64,380.09,916Z" transform="translate(-0.92 -0.87)"/><path class="cls-31" d="M380.09,916h-258a1,1,0,0,1-.1-.94c1.53-1,3.24-.54,4.86-.54q124.11,0,248.21,0c1.64,0,3.33-.38,4.91.44Z" transform="translate(-0.92 -0.87)"/><path class="cls-32" d="M380,915l-252,0c-2,0-4,0-6,.06,1.45-1.67,3.41-1,5.16-1q123.8,0,247.61,0C376.56,914,378.49,913.45,380,915Z" transform="translate(-0.92 -0.87)"/><path class="cls-33" d="M381.28,1062.83V916.17h.48v146.66Z" transform="translate(-0.92 -0.87)"/><path class="cls-27" d="M380.09,1095c.09,1,.26,2,.26,3q0,70.47.08,140.95c0,3.19-.74,4.19-4.08,4.18q-125.21-.14-250.41,0c-2.73,0-4.1-.21-4.09-3.64q.2-71.72.11-143.45a6.19,6.19,0,0,1,.16-1c1.73-1.44,3.81-1,5.77-1q123.21,0,246.42,0C376.27,1094,378.34,1093.64,380.09,1095Z" transform="translate(-0.92 -0.87)"/><path class="cls-31" d="M380.09,1095h-258a1,1,0,0,1-.1-.94c1.35-1,2.91-.54,4.36-.54q124.61,0,249.21,0c1.47,0,3-.34,4.41.44Z" transform="translate(-0.92 -0.87)"/><path class="cls-32" d="M380,1094l-252,0c-2,0-4,0-6,.06,1.45-1.67,3.41-1,5.16-1q123.8,0,247.61,0C376.56,1093,378.49,1092.45,380,1094Z" transform="translate(-0.92 -0.87)"/><path class="cls-33" d="M381.82,1095.36V1241.6h-.48V1095.36Z" transform="translate(-0.92 -0.87)"/><path class="cls-27" d="M380.09,1453c.09,1,.26,2,.26,3q0,70.47.08,140.95c0,3.19-.74,4.19-4.08,4.18q-125.21-.14-250.41,0c-2.73,0-4.1-.21-4.09-3.64q.2-71.72.11-143.45a6.19,6.19,0,0,1,.16-1c1.73-1.44,3.81-1,5.77-1q123.21,0,246.42,0C376.27,1452,378.34,1451.64,380.09,1453Z" transform="translate(-0.92 -0.87)"/><path class="cls-32" d="M122,1452.06c1.45-1.67,3.41-1,5.16-1q123.8,0,247.61,0c1.77,0,3.7-.57,5.22.94-1.54,1-3.25.51-4.88.51q-124.1,0-248.19,0C125.3,1452.47,123.61,1452.84,122,1452.06Z" transform="translate(-0.92 -0.87)"/><path class="cls-31" d="M122,1452.06l230-.07,28,0,.08,1h-258A1,1,0,0,1,122,1452.06Z" transform="translate(-0.92 -0.87)"/><path class="cls-33" d="M381.75,1453.17v146.67h-.48V1453.17Z" transform="translate(-0.92 -0.87)"/><path class="cls-27" d="M960.09,1453c.09,1,.26,2,.26,3q0,70.47.08,140.95c0,3.19-.74,4.19-4.08,4.18q-125.21-.14-250.41,0c-2.73,0-4.1-.21-4.09-3.64q.2-71.72.11-143.45a6.19,6.19,0,0,1,.16-1c1.73-1.44,3.81-1,5.77-1q123.21,0,246.42,0C956.27,1452,958.34,1451.64,960.09,1453Z" transform="translate(-0.92 -0.87)"/><path class="cls-31" d="M960.09,1453h-258a1,1,0,0,1-.1-.94c1.35-1,2.9-.54,4.36-.54q124.61,0,249.21,0c1.47,0,3-.34,4.41.44Z" transform="translate(-0.92 -0.87)"/><path class="cls-32" d="M960,1452l-252,0c-2,0-4,0-6,.07,1.45-1.67,3.41-1,5.16-1q123.8,0,247.61,0C956.55,1451,958.49,1450.45,960,1452Z" transform="translate(-0.92 -0.87)"/><path class="cls-33" d="M961.75,1453.17v146.67h-.48V1453.17Z" transform="translate(-0.92 -0.87)"/><path class="cls-34" d="M542.93,834.66c-.1-2.65-.47-4.93,3-4.61,2.62.24,5.11.47,5.2,3.87s-2.27,3.85-5,4.09C543.11,838.29,542.42,836.8,542.93,834.66Z" transform="translate(-0.92 -0.87)"/><path class="cls-35" d="M527.28,838.8c-.06,1.16-.07,2.34-.21,3.49-.37,2.92-1.73,5.2-4.86,5.46s-4.8-1.75-5.59-4.63a16.24,16.24,0,0,1-.18-7.91c.66-3,2-5.46,5.6-5.2s4.71,2.71,5.06,5.8C527.22,836.8,527.22,837.8,527.28,838.8Z" transform="translate(-0.92 -0.87)"/><path d="M559.8,1858.2a18.78,18.78,0,1,1-18.61-18.94A18.85,18.85,0,0,1,559.8,1858.2Z" transform="translate(-0.92 -0.87)"/><path class="cls-36" d="M222.31,1858.34l30.42-18.19v35.78Z" transform="translate(-0.92 -0.87)"/><path class="cls-36" d="M860.65,1841.19l1.08.88c1.53,2.45.65,5.16.71,7.73.14,6.83.05,13.66,0,20.49,0,1.81.3,3.73-1.54,5-10.42.48-20.84.09-31.26.22a1.46,1.46,0,0,1-1.56-.89l0,.28h.28c-1.69-1.25-.81-3-.83-4.54-.09-8.73,0-17.45,0-26.18-.08-1.89.67-3.56,2.62-3.53C840.31,1840.8,850.51,1839.68,860.65,1841.19Z" transform="translate(-0.92 -0.87)"/><path class="cls-37" d="M860.65,1841.19c-9.38.09-18.75.19-28.13.25-2,0-4.06-.25-4.38,2.56q-.57.83-1.14,0c-.13-2.64,1-4,3.77-4,9.75,0,19.49,0,29.24,0a1,1,0,0,1,.8.33C860.91,1840.54,860.72,1840.9,860.65,1841.19Z" transform="translate(-0.92 -0.87)"/><path class="cls-16" d="M860.93,1874.81c1.57-6.72.35-13.53.67-20.29.19-4.14.1-8.3.13-12.45.38.51,1.09,1,1.09,1.52q.13,14.86.09,29.71A3,3,0,0,1,861,1876Q860.11,1875.45,860.93,1874.81Z" transform="translate(-0.92 -0.87)"/><path class="cls-16" d="M860.93,1874.81,861,1876c-9.32,0-18.64,0-28,0-1.7,0-3.76.78-4.92-1.37Z" transform="translate(-0.92 -0.87)"/><path class="cls-17" d="M827,1844h1.14q.12,15.43.24,30.86c-2.14-1.17-1.33-3.22-1.35-4.92C827,1861.29,827,1852.65,827,1844Z" transform="translate(-0.92 -0.87)"/><path class="cls-38" d="M952.93,39.92c.08-.77-.07-1.63.8-2.1,2-2.13,3.37-4.24-1.08-4.75-2.33-.27-2.51-1.18-2.16-3.27,1.31-7.78,1.93-8.27,9.28-7.85,3.19.18,2.81,1.33,1.45,3.25-1.21,1.71-2.37,3.46-3.51,5.11,1.89,2,5.5-1,6.32,2.75l-10.28,9.75C951.7,42.36,952.58,41.07,952.93,39.92Z" transform="translate(-0.92 -0.87)"/><path class="cls-39" d="M952.93,39.92c.43.92-.29,2.17.82,2.9-.25,1.32-1.15,1.87-2.46,2.21A6.34,6.34,0,0,1,952.93,39.92Z" transform="translate(-0.92 -0.87)"/><path class="cls-40" d="M1001.27,30c.28,2.91-1.28,4.61-3.91,4.68-3.14.09-4.21-2.4-4.24-5.06s.75-5.72,4.21-5.54S1001.06,27.3,1001.27,30Z" transform="translate(-0.92 -0.87)"/><path class="cls-41" d="M1044.77,37.36l5.59-8.85C1052.76,36.24,1051.94,37.73,1044.77,37.36Z" transform="translate(-0.92 -0.87)"/><path class="cls-42" d="M337.12,722.3c-.31,1.69-.54,3.51-1,5.27-.76,2.88-2.56,4.59-5.71,4.56-2.92,0-4.6-1.67-5.48-4.26a18.21,18.21,0,0,1-.25-10.82c.82-3.05,2.52-5.11,5.88-5.06s5,2.2,5.74,5.25C336.66,718.85,336.83,720.5,337.12,722.3Z" transform="translate(-0.92 -0.87)"/><path class="cls-43" d="M356.7,721.34c-4,.57-2.45-3-2.8-5.3-.54-3.59,1.39-4.15,4.35-3.94,3.37.24,6,1.22,5.81,5.19C363.85,721.76,360.36,721.14,356.7,721.34Z" transform="translate(-0.92 -0.87)"/><path class="cls-44" d="M737.51,716.32c.72,2,1.41,3.84,2,5.69.36,1.18,1.61,2.83.26,3.52a6.5,6.5,0,0,1-4.83.13c-2.11-.85-.46-2.6-.06-3.82C735.45,720,735.46,717.88,737.51,716.32Z" transform="translate(-0.92 -0.87)"/><path class="cls-43" d="M709,716.36c-.58-3,.33-4.62,3.87-4.29,3.24.31,6.13.78,6.22,4.82.1,4.42-3.17,4.14-6.24,4.44C708.7,721.75,708.62,719.34,709,716.36Z" transform="translate(-0.92 -0.87)"/><path class="cls-27" d="M660.19,406.34c-16.4,0-31.88-.12-47.36.09-3.73.05-4.78-.92-4.73-4.71.16-12.42,0-12.42,12.43-12.42,19,0,38,.09,56.94-.08,3.55,0,4.93.62,4.88,4.57a35.72,35.72,0,0,1-3.08,14.4q-17.9,40.57-35.35,81.35c-1.43,3.34-3.06,4.85-6.9,4.56-5.46-.41-11-.1-17.21-.1Z" transform="translate(-0.92 -0.87)"/><path class="cls-27" d="M532.37,421.65a7.67,7.67,0,0,1-.36-1.18c.09-5.14-1.48-11.24.77-15.14,2.15-3.72,8.76-3.89,13.41-5.59,9.05-3.32,18.18-6.42,27.19-9.83,3.45-1.3,4.36-.42,4.35,3.12q-.13,48.74,0,97.48c0,2.94-1,3.69-3.73,3.56a110.84,110.84,0,0,0-13,0c-3.48.25-4.44-.81-4.42-4.35.17-23.16.09-46.32.09-69.48,0-6,0-6-5.68-4.31Z" transform="translate(-0.92 -0.87)"/><path class="cls-27" d="M431.54,414.26c-7.06,2.18-13.89,4.14-20.6,6.44-3.37,1.15-4.05.3-4-3.11,0-12.72-.08-12.73,11.82-17,9.69-3.5,19.42-6.89,29.08-10.5,3.52-1.32,5-1.09,5,3.32q-.22,48.24,0,96.48c0,3.17-.68,4.46-4.1,4.21a88.41,88.41,0,0,0-13,0c-3.47.26-4-1.12-4-4.23.12-24,.07-48,.06-72C431.7,416.88,431.62,415.89,431.54,414.26Z" transform="translate(-0.92 -0.87)"/><path class="cls-26" d="M499.89,436.09c-6.94.05-11.72-4.23-11.86-10.64-.15-6.73,4.6-11.4,11.63-11.43s12,4.69,12,11.2C511.59,431.54,506.73,436,499.89,436.09Z" transform="translate(-0.92 -0.87)"/><path class="cls-26" d="M499.81,494.89c-6.79,0-11.66-4.45-11.77-10.83-.12-6.68,4.7-11.36,11.71-11.38s12,4.8,11.88,11.3C511.5,490.28,506.53,494.87,499.81,494.89Z" transform="translate(-0.92 -0.87)"/><path class="cls-5" d="M541.41,928.34c12,19.81,23.87,39.39,35.77,58.94.82,1.34,1.43,2.34.42,4-12.09,19.76-24.09,39.58-36.48,60-5.33-8.71-10.34-16.87-15.32-25q-10.24-16.81-20.46-33.63c-1-1.71-1.84-3.07-.44-5.33,11.86-19.21,23.53-38.55,35.26-57.84C540.31,929.13,540.64,929,541.41,928.34Z" transform="translate(-0.92 -0.87)"/><path class="cls-5" d="M839.7,1051.06c-9.13.32-17.86-1.17-25.88-5.78-16.51-9.49-22-25.48-14.64-43A98,98,0,0,1,805.88,989c6.3-10.26,6.37-20.27-.45-30.23-3.09-4.52-6.42-8.88-9.39-13.48-4.41-6.83-2.7-12.14,5-14.85,24.77-8.74,53.14,5.2,60.07,28.79,2.82,9.58,1.44,18.67-2.45,27.59a31.4,31.4,0,0,1-1.73,3.55c-7.62,12.79-5.77,24.26,4.49,34.81a34.6,34.6,0,0,1,5.35,7.78c3.77,7,1.64,12.66-5.93,15.4C854,1050.81,846.88,1051.21,839.7,1051.06Z" transform="translate(-0.92 -0.87)"/><path class="cls-5" d="M923.95,1051c-9,.38-17.22-1-25-4.88-17-8.59-23.44-24.88-16.7-42.74a72.89,72.89,0,0,1,6.83-13.8c7.28-11.3,6.26-22.21-1.24-32.9-2.77-3.94-5.82-7.7-8.39-11.76-4.11-6.52-2.28-11.95,5.06-14.51,24.91-8.69,53.48,4.86,60.48,29.71a34.89,34.89,0,0,1-1.47,23.46c-1.54,3.66-3.25,7.25-4.95,10.84-4.7,9.92-3.46,19,3.66,27.34a65,65,0,0,1,7.18,9.56c5.26,9.09,2.79,15.18-7.55,17.79A57.33,57.33,0,0,1,923.95,1051Z" transform="translate(-0.92 -0.87)"/><path class="cls-5" d="M726.89,970c-2.57-9.17-8.75-16.21-13.92-23.88-5.47-8.12-3.35-13.49,6.15-16.3,24.39-7.22,50.79,5.91,58.16,28.83,3,9.18,2,18-1.75,26.69-1.46,3.34-3.16,6.58-4.59,9.93-4,9.35-3,18,3.61,26,2.87,3.43,5.88,6.76,8,10.78,4.44,8.4,2,14.64-7.36,16.94a75.19,75.19,0,0,1-32.13,1,39.9,39.9,0,0,1-22.08-11.7c-10.45-10.9-10.33-23.44-5.27-36.59,3.15-8.18,8.64-15.26,11.24-23.71A11.4,11.4,0,0,0,726.89,970Z" transform="translate(-0.92 -0.87)"/><path class="cls-45" d="M726.89,970a7,7,0,0,1,.06,8Z" transform="translate(-0.92 -0.87)"/><path class="cls-5" d="M550.74,1230c-9.78.44-18.55-1-26.59-5.52-16.95-9.53-22.52-26-14.72-43.77a160.23,160.23,0,0,1,7.84-15.5c5.12-8.88,4.2-17.51-.85-25.86-3.08-5.1-6.89-9.76-10.17-14.75-4.65-7.07-3-12.5,4.89-15.24,25-8.69,53.48,5.48,60.14,29.42a35.32,35.32,0,0,1-3.28,27.89c-8.33,14.46-7.67,27.35,4.8,39.07a18.54,18.54,0,0,1,2.79,4.11c5.63,9.39,3.09,15.78-7.71,18.4C562.09,1229.68,556.13,1230.54,550.74,1230Z" transform="translate(-0.92 -0.87)"/><path class="cls-5" d="M251.13,1409.27c-5.4-8.83-10.49-17.13-15.55-25.44q-10.12-16.59-20.18-33.22c-.87-1.44-2.5-2.86-.76-4.87a23.81,23.81,0,0,0,2.09-3.39l34.33-56.45c3.52,5.8,6.72,11.08,9.94,16.35q12.84,21,25.68,42.08c1,1.57,2.18,2.9.7,5.3C275.29,1369.24,263.43,1389,251.13,1409.27Z" transform="translate(-0.92 -0.87)"/><path class="cls-5" d="M794.15,1317c3.94-18.16,17.83-30.64,34.6-31.09,18.93-.51,33.86,10.21,38.82,27.91a39.79,39.79,0,0,1,1.32,10.86c0,15.16,0,30.32,0,45.49,0,20.37-14,36.53-33.56,38.8s-36.75-10.7-41.15-31c.78-14.37.2-28.75.3-43.12C794.51,1328.9,794.93,1322.95,794.15,1317Z" transform="translate(-0.92 -0.87)"/><path class="cls-46" d="M794.15,1317c1.05,1.08.84,2.46.84,3.77q0,26.69,0,53.39c0,1.31.21,2.69-.83,3.78Q792.63,1347.49,794.15,1317Z" transform="translate(-0.92 -0.87)"/><path class="cls-6" d="M592.9,1588c-14.14.17-25.68-2.8-35-11.67-9-8.54-11.75-19-8.62-31a59.93,59.93,0,0,1,8-18.16c8.12-12.19,6.61-23.68-1.83-34.92-2.49-3.32-5.05-6.61-7.3-10.1-4.33-6.72-2.51-12.07,5.2-14.75a45.67,45.67,0,0,1,30.78.12c16.67,5.84,32.41,21.32,29.94,43.69a41.11,41.11,0,0,1-5.4,15.92c-7.2,12.62-6,24,4,34.57a39.43,39.43,0,0,1,6,8.53c3.46,6.52,1.33,12.16-5.67,14.78S598.68,1588.12,592.9,1588Z" transform="translate(-0.92 -0.87)"/><path class="cls-6" d="M508.22,1588c-8.61.29-16.92-1-24.63-5-17.58-9.1-23.6-25.37-16-43.61a95.43,95.43,0,0,1,6.65-13.34c6.45-10.5,6.18-20.68-.72-30.76-3.09-4.52-6.45-8.87-9.37-13.5-4-6.35-2.55-11.1,4.46-13.87,24.39-9.6,54,4.77,60.69,28.93a37.43,37.43,0,0,1-1.54,24.41,23.51,23.51,0,0,1-1.71,3.58c-8.48,13.82-7.88,26.6,4.05,38.31a26.57,26.57,0,0,1,4.16,6.18c4.31,7.75,2.14,13.65-6.31,16.27A60.45,60.45,0,0,1,508.22,1588Z" transform="translate(-0.92 -0.87)"/><path class="cls-6" d="M550.3,1409c-8.86.22-16.65-1.07-24-4.61-18.08-8.7-24.68-25.61-17-44.07a91.06,91.06,0,0,1,6.55-12.85c6.8-11,6.21-21.63-.95-32.1-2.62-3.84-5.64-7.41-8.17-11.3-5.2-8-3.13-13.28,6.07-16.09,24.47-7.48,51.41,6.27,58.34,29.88a35.45,35.45,0,0,1-1.43,23.89c-1.5,3.68-3.26,7.25-5,10.85-4.86,10.34-3.12,19.63,4.38,28a46.49,46.49,0,0,1,7.51,10.51c3.46,7.13,1.14,12.63-6.44,15.3a21.57,21.57,0,0,1-4.81,1.27C560.12,1408.26,554.9,1409.58,550.3,1409Z" transform="translate(-0.92 -0.87)"/><path class="cls-47" d="M794.17,1139q4.92-26.34,31.24-31.74c13.44-2.76,29.3,4.36,37.4,16.88a33.07,33.07,0,0,1,5.65,17.32c.39,18.63,1.24,37.32-.34,55.9-1.5,17.59-16.73,31.57-34.19,32.63-18.72,1.14-34.91-10.74-39.07-28.68-.26-1.12-.45-2.26-.68-3.39.76-16,.15-32,.3-48.05C794.51,1146.28,794.87,1142.64,794.17,1139Z" transform="translate(-0.92 -0.87)"/><path class="cls-48" d="M794.17,1139c1,1.09.82,2.47.82,3.78q0,25.68,0,51.35c0,1.31.22,2.69-.82,3.78Q793.26,1168.49,794.17,1139Z" transform="translate(-0.92 -0.87)"/><path class="cls-7" d="M167.39,927.87c12.26,20.21,24.12,39.81,36.06,59.37,1,1.59,1.21,2.75.18,4.45-12,19.66-24,39.38-36.23,59.53-8.63-14.14-17-27.88-25.39-41.63-3.54-5.82-7-11.67-10.58-17.48-.88-1.43-1.63-2.54-.48-4.4C143,968,155,948.3,167.39,927.87Z" transform="translate(-0.92 -0.87)"/><path class="cls-7" d="M334.74,927.91c7.1,11.6,13.94,22.76,20.75,33.93q7.65,12.55,15.23,25.14c.84,1.39,1.68,2.48.48,4.43-11.93,19.37-23.69,38.83-35.52,58.26a5.61,5.61,0,0,1-1.2,1q-17.77-29.2-35.49-58.28c-1.11-1.82-1.48-3.24-.19-5.35C310.75,967.6,322.55,948,334.74,927.91Z" transform="translate(-0.92 -0.87)"/><path class="cls-7" d="M251.25,928.16c12.14,19.94,23.92,39.37,35.81,58.74a4.44,4.44,0,0,1,0,5.36c-11.88,19.37-23.69,38.79-35.65,58.43-2.2-1.5-3.06-3.87-4.29-5.9q-15.83-25.93-31.58-51.91c-1.11-1.83-2.13-3.29-.59-5.77,11.69-18.92,23.17-38,34.73-57A25,25,0,0,1,251.25,928.16Z" transform="translate(-0.92 -0.87)"/><path class="cls-7" d="M297,1107.17c19,2.25,32.59,15.86,33.43,35.41.79,18.28,1.14,36.65-.3,54.93s-18.16,32.58-37.31,32.54c-18.72,0-35.6-14.43-36.81-32.51a435.54,435.54,0,0,1,0-58.43c1.12-16.47,15.49-29.81,33-32A19.63,19.63,0,0,0,297,1107.17Z" transform="translate(-0.92 -0.87)"/><path class="cls-7" d="M172.17,1139c3.45-18.22,15-29.36,32.87-31.84a19.67,19.67,0,0,0,7.94,0c19.34,2,33.61,17.25,33.86,36.62.21,16.31.17,32.62,0,48.93A37.5,37.5,0,0,1,213.44,1230c-18.9,2.16-36.13-10.18-40.65-29.13-.23-1-.4-1.92-.61-2.88.74-16.35.16-32.7.3-49.05C172.5,1145.62,172.9,1142.3,172.17,1139Z" transform="translate(-0.92 -0.87)"/><path class="cls-49" d="M172.17,1139c1,1.09.83,2.47.83,3.78q0,25.68,0,51.36c0,1.31.21,2.69-.82,3.78Q171.3,1168.49,172.17,1139Z" transform="translate(-0.92 -0.87)"/><path class="cls-50" d="M297,1107.17a8.58,8.58,0,0,1-7.94,0Z" transform="translate(-0.92 -0.87)"/><path class="cls-51" d="M213,1107.16a8.59,8.59,0,0,1-7.94,0Z" transform="translate(-0.92 -0.87)"/><path class="cls-7" d="M334.43,1587.7c-11.87-19.56-23.68-39.11-35.62-58.59-1.26-2.06-1-3.49.16-5.35,11.86-19.4,23.65-38.83,35.8-58.81,5.63,9.21,11.09,18.09,16.5,27q9.71,16,19.37,31.95c.81,1.35,1.86,2.42.62,4.43-12,19.5-23.9,39.09-35.83,58.64C335.27,1587.21,334.91,1587.35,334.43,1587.7Z" transform="translate(-0.92 -0.87)"/><path class="cls-7" d="M250.91,1587.93c-3.25-5.33-6.35-10.38-9.42-15.45-8.54-14-17-28.14-25.67-42.09-1.7-2.74-1.92-4.6-.14-7.49,11-17.78,21.76-35.72,32.61-53.6.76-1.25,1.63-2.44,2.84-4.23,5.49,8.94,10.74,17.46,16,26,6.57,10.76,13.09,21.56,19.67,32.31,1.18,1.92,1.78,3.51.36,5.8-11.76,19.06-23.37,38.21-35,57.33A15.71,15.71,0,0,1,250.91,1587.93Z" transform="translate(-0.92 -0.87)"/><path class="cls-7" d="M167.61,1465.32c9.28,15.24,18.49,30.37,27.69,45.5,2.67,4.39,5.24,8.85,8,13.19,1.07,1.69,1.38,3,.21,4.87-12,19.53-23.84,39.14-36.08,59.31-5.91-9.65-11.62-18.89-17.26-28.17-6.22-10.22-12.36-20.48-18.58-30.69-1-1.57-1.77-2.81-.53-4.83,11.84-19.23,23.55-38.54,35.32-57.82A11.16,11.16,0,0,1,167.61,1465.32Z" transform="translate(-0.92 -0.87)"/><path class="cls-7" d="M875,1587.86c-16.52-.81-30.88-10.47-35.63-24.27-3-8.63-1.42-17.08,2-25.21a80.19,80.19,0,0,1,6.1-11.9c7.27-11.36,6.11-22.21-1.42-32.84-2.5-3.52-5.22-6.88-7.63-10.46-5.21-7.74-3.13-13.46,5.9-16.18,2.82-.85,5.79-1.23,8.69-1.83a37.16,37.16,0,0,0,10.94,0,47.47,47.47,0,0,1,28.2,13.39c12.47,12.1,16.68,29.48,8.29,44.67-8.59,15.58-7.59,28.08,4.44,41.47,10.5,11.68,6.13,20.45-9.55,22.27-2.79.32-5.49,1.51-8.37.87A40.67,40.67,0,0,0,875,1587.86Z" transform="translate(-0.92 -0.87)"/><path class="cls-7" d="M780,1465.17c18.93,2.81,32.7,12.24,39.16,30.82,3.29,9.46,1.72,18.64-2.26,27.56-1.35,3-2.74,6-4.13,9-4.21,9.06-2.8,17.36,3.23,25.12,3,3.8,6.42,7.21,8.64,11.55,4.08,8,1.69,14-6.91,16.56a44.22,44.22,0,0,1-14.73,2,41.76,41.76,0,0,0-12,0c-15.1-1.5-27.56-7.32-34.28-21.8-5.44-11.72-1.55-22.69,3.57-33.38,2.5-5.21,5.85-10,7.69-15.56,2.16-6.55.27-12.39-2.57-18.18-2.72-5.55-6.83-10.16-10.28-15.21-5.87-8.59-3.93-14.05,6.16-16.93,2.53-.72,5.16-1.06,7.74-1.58A38.61,38.61,0,0,0,780,1465.17Z" transform="translate(-0.92 -0.87)"/><path class="cls-52" d="M791,1587.84a18.43,18.43,0,0,1,12,0Z" transform="translate(-0.92 -0.87)"/><path class="cls-53" d="M875,1587.86a18.28,18.28,0,0,1,12,0Z" transform="translate(-0.92 -0.87)"/><path class="cls-54" d="M864,1465.18a15.58,15.58,0,0,1-10.94,0Z" transform="translate(-0.92 -0.87)"/><path class="cls-55" d="M780,1465.17a15.8,15.8,0,0,1-10.93,0Z" transform="translate(-0.92 -0.87)"/><path class="cls-27" d="M541.16,949.73c8,13.11,15.54,25.67,23.23,38.17.92,1.5.34,2.37-.38,3.56-7.5,12.32-15,24.66-22.84,37.67-5.52-9-10.8-17.52-16-26.1-2.75-4.52-7.47-9.12-7.46-13.68s4.76-9.16,7.52-13.68C530.37,967.21,535.59,958.79,541.16,949.73Z" transform="translate(-0.92 -0.87)"/><path class="cls-56" d="M823.32,936.08c2.44.05,2.9,1.48,2.9,3.64q-.07,49.72,0,99.44c0,2.57-.88,2.75-2.81,1.74-1.62-.85-.87-2.37-.87-3.56q-.07-48.8,0-97.6C822.54,938.52,821.93,937.06,823.32,936.08Z" transform="translate(-0.92 -0.87)"/><path class="cls-57" d="M829.18,938.05c2.82.09,2.89,2,2.89,4.14q-.06,48.84,0,97.67c0,2.15-.16,3.66-2.85,3.07-1.19-1.07-.69-2.5-.69-3.77q0-48.66,0-97.33C828.53,940.57,828.07,939.16,829.18,938.05Z" transform="translate(-0.92 -0.87)"/><path class="cls-58" d="M835,941c3.87-.07,3,2.82,3,5q.05,44.88,0,89.76c0,2-.15,4,0,6,.22,2.33-1.16,2.32-2.75,2.21-1.37-1-.77-2.45-.77-3.69q-.05-47.92,0-95.84C834.52,943.24,834.25,942,835,941Z" transform="translate(-0.92 -0.87)"/><path class="cls-59" d="M820.33,987.15c0,15.82,0,31.65-.06,47.47,0,1.4,1.2,3.93-1.14,4.1s-1.81-2.34-1.79-3.9c.33-18.8-.35-37.6.45-56.41.56-13.1-.3-26.27-.42-39.41,0-1.28-1-3.58,1.19-3.67,2.56-.1,1.72,2.39,1.73,3.85C820.36,955.17,820.33,971.16,820.33,987.15Z" transform="translate(-0.92 -0.87)"/><path class="cls-58" d="M843.71,1043.92c-3.79.48-2.74-2.33-2.75-4.22q-.05-43.1,0-86.2c0-3,0-5.93,0-9.46l3,2c.86,1,.57,2.21.57,3.35q0,45.42,0,90.84C844.46,1041.46,845,1042.91,843.71,1043.92Z" transform="translate(-0.92 -0.87)"/><path class="cls-60" d="M847,991.83V950.59C850.92,954.35,851.2,984.13,847,991.83Z" transform="translate(-0.92 -0.87)"/><path class="cls-61" d="M823.32,936.08q0,52.41.1,104.82c-2.14-1.16-1.39-3.21-1.39-4.92q-.06-47.46,0-94.92C822,939.35,821.29,937.32,823.32,936.08Z" transform="translate(-0.92 -0.87)"/><path class="cls-62" d="M829.18,938.05q0,52.44,0,104.89c-1.89-1.32-1.19-3.32-1.19-5q-.06-47.38,0-94.76C828,941.4,827.34,939.41,829.18,938.05Z" transform="translate(-0.92 -0.87)"/><path class="cls-63" d="M835,941q0,48.46,0,96.93c0,2,.15,4,.23,6-1.85-1.08-1.29-2.91-1.29-4.49q0-47.13,0-94.25C834,943.72,833.66,942.14,835,941Z" transform="translate(-0.92 -0.87)"/><path class="cls-63" d="M843.71,1043.92q.11-37,.21-73.92c0-8,0-16,0-24,1.71,1.43,1.06,3.39,1.07,5.14q.06,43.88,0,87.76C845,1040.64,845.69,1042.65,843.71,1043.92Z" transform="translate(-0.92 -0.87)"/><path class="cls-64" d="M811.81,995l1.23-2.87c2.79.47,1.36,2.65,1.38,3.94.13,11.31.06,22.63.09,33.94,0,1.82-.29,3.66.35,5.44-1.56.67-2.36-.28-3.07-1.44C811.33,1021,811.3,1008,811.81,995Z" transform="translate(-0.92 -0.87)"/><path class="cls-65" d="M808.68,1000.46v28.66C804.81,1026.14,804.39,1010,808.68,1000.46Z" transform="translate(-0.92 -0.87)"/><path class="cls-66" d="M846.93,1019.28c1.77,2.14,3,3.57,3,5.71,0,5.14,0,10.27,0,15.41,0,1.08.39,2.46-1.36,2.66-2,.22-1.54-1.29-1.55-2.32C846.92,1033.84,846.93,1027,846.93,1019.28Z" transform="translate(-0.92 -0.87)"/><path class="cls-64" d="M814.51,956.46c-2.35-1.12-2.66-2.8-2.66-4.65,0-4.46,0-8.92,0-13.37,0-1.09-.37-2.63,1.23-2.8,1.86-.2,1.39,1.46,1.39,2.48C814.54,944.13,814.51,950.15,814.51,956.46Z" transform="translate(-0.92 -0.87)"/><path class="cls-67" d="M814.85,1035.45c-1-12.89-.11-25.81-.51-38.7,0-1.53,1.27-3.71-1.3-4.63.4-.69.75-1.93,1.22-2,1.22-.13.82,1.09.82,1.77Q815,1013.68,814.85,1035.45Z" transform="translate(-0.92 -0.87)"/><path class="cls-68" d="M852.71,1027.66c2.51,2.52,4.08,11.17,2.83,13.34a2.19,2.19,0,0,1-1.54,1c-1.49.06-1.27-1.2-1.27-2.11C852.69,1036,852.71,1032.25,852.71,1027.66Z" transform="translate(-0.92 -0.87)"/><path class="cls-69" d="M811.81,995l0,39c-1.61-2.63-.71-5.53-.76-8.28-.13-8.65-.07-17.31,0-26C811,998.15,810.51,996.4,811.81,995Z" transform="translate(-0.92 -0.87)"/><path class="cls-64" d="M808.8,948.38c-4.44-2.68-2.68-6.8-2.84-10.34,0-1,1.06-1.14,1.86-1.15,1.32,0,.95,1.09,1,1.78C808.82,941.81,808.8,945,808.8,948.38Z" transform="translate(-0.92 -0.87)"/><path class="cls-70" d="M854,961.13a31.45,31.45,0,0,1-.11,17.4l-.47.14a34.23,34.23,0,0,1,.11-17.54S853.8,961.12,854,961.13Z" transform="translate(-0.92 -0.87)"/><path class="cls-71" d="M854,961.13a28.26,28.26,0,0,0-.11,17.4c-.33.74-1.45,2.29-1.52,1.11a187.12,187.12,0,0,1,.09-19.58C852.45,959.42,853.6,960.44,854,961.13Z" transform="translate(-0.92 -0.87)"/><path class="cls-72" d="M911.48,937.09c1.69.84,2.73,1.77,2.72,4.09q-.17,49.49,0,99c0,2.75-.74,3.32-3,1.82-1-1.13-.62-2.53-.62-3.81q0-48.54,0-97.08C910.56,939.76,909.68,938.05,911.48,937.09Z" transform="translate(-0.92 -0.87)"/><path class="cls-59" d="M905.11,936c4.14-.67,3.07,2.41,3.07,4.47q.06,45.9,0,91.81c0,2.16,0,4.32,0,6.49.05,3.4-1.76,1.72-3.16,1.18-1.41-1.83-1.53-4-1.53-6.16q0-46.11,0-92.23C903.56,939.62,903.38,937.55,905.11,936Z" transform="translate(-0.92 -0.87)"/><path class="cls-65" d="M917,940.19c3,.12,3,2,3,3.87q0,48.18-.06,96.37c0,1.11.87,3-1.06,3.23-2.35.26-1.88-1.81-1.88-3.2,0-10.82,0-21.64,0-32.46q0-31.46,0-62.91Z" transform="translate(-0.92 -0.87)"/><path class="cls-73" d="M905.11,936,905.06,1040l-2.21-1c-1.52-2-1.34-4.41-1.31-6.73.22-17.32-.33-34.64.38-52,.52-12.81-.76-25.64-.38-38.46.07-2.3-.41-4.71,1.26-6.72Z" transform="translate(-0.92 -0.87)"/><path class="cls-60" d="M929.05,995.28c0-15.57,0-31.14,0-46.91C933.18,952.46,933,988.51,929.05,995.28Z" transform="translate(-0.92 -0.87)"/><path class="cls-64" d="M896.58,993.38v41.18c-2.72-.15-2.91-2.06-2.91-4.13,0-10.12,0-20.23,0-30.35C893.63,997.51,894.87,995.45,896.58,993.38Z" transform="translate(-0.92 -0.87)"/><path class="cls-74" d="M902.8,935.07q0,51.94.05,103.88l-1.93-.87c.26-19.3-.18-38.61.28-57.92l0-12.39c-.69-8.82-.84-17.66-.67-26.5,0-2.1-.38-4.32,1.3-6.08A2.23,2.23,0,0,1,902.8,935.07Z" transform="translate(-0.92 -0.87)"/><path class="cls-75" d="M901.21,980.17c1.17,1.23.88,2.79.88,4.25q0,24.83,0,49.67c0,1.39.55,3.05-1.15,4-2.17-1.15-1.32-3.21-1.33-4.89-.07-14.26.05-28.53-.1-42.79C899.46,986.82,900.77,983.59,901.21,980.17Z" transform="translate(-0.92 -0.87)"/><path class="cls-76" d="M911.48,937.09c-.11,2-.32,4-.32,6q0,49.46,0,98.91c-1.79-1.39-1.12-3.37-1.12-5.11q-.06-47.2,0-94.39C910,940.62,909.13,938.36,911.48,937.09Z" transform="translate(-0.92 -0.87)"/><path class="cls-77" d="M924,1043.82l-.44.15h-.46c-.91-1-.6-2.2-.6-3.33q0-47.14,0-94.29c0-1.13-.32-2.35.62-3.32l.92.77c1.38,1.86,1.4,4,1.4,6.2q0,44.11,0,88.21C925.44,1040.18,925.67,1042.25,924,1043.82Z" transform="translate(-0.92 -0.87)"/><path class="cls-78" d="M923.14,943l0,100.94c-1.75-1.4-1.09-3.37-1.09-5.12q-.06-45.36,0-90.72C922,946.4,921.37,944.42,923.14,943Z" transform="translate(-0.92 -0.87)"/><path class="cls-79" d="M925.77,1043.94a2.31,2.31,0,0,1-.8-.18c-.69-1.06-.45-2.25-.45-3.4q0-46.33,0-92.66c0-1.14-.23-2.34.45-3.4l1.1.71c.68,1.25.41,2.6.41,3.91q0,45.38,0,90.76C926.46,1041.11,927.06,1042.7,925.77,1043.94Z" transform="translate(-0.92 -0.87)"/><path class="cls-27" d="M925,944.3v99.46l-.47.18-.49-.12q0-50,0-100Z" transform="translate(-0.92 -0.87)"/><path class="cls-80" d="M925.77,1043.94q.12-30,.23-59.95.06-19.49.07-39c1.39,1.36.92,3.11.92,4.72q0,44.58,0,89.16C927,1040.63,927.67,1042.63,925.77,1043.94Z" transform="translate(-0.92 -0.87)"/><path class="cls-81" d="M931.9,1043c-2.5,1.1-3.13.07-3.1-2.4.11-8.13,0-16.26,0-25.08,1.69,1.56,1.41,3.7,2.94,4.56A82.14,82.14,0,0,1,931.9,1043Z" transform="translate(-0.92 -0.87)"/><path class="cls-65" d="M901.86,935.19q.07,14.64.14,29.28a4.68,4.68,0,0,1-.77,3.3L899.75,962c-.19-9-.8-18,.31-27Z" transform="translate(-0.92 -0.87)"/><path class="cls-82" d="M935.94,957.2A40.43,40.43,0,0,1,936,982c-1.1.11-1.45-.54-1.45-1.48q-.09-11,0-21.92C934.55,957.7,934.75,956.93,935.94,957.2Z" transform="translate(-0.92 -0.87)"/><path class="cls-65" d="M896.7,954.51a5.45,5.45,0,0,1-3-5.38c0-3.31-.06-6.63,0-9.94,0-1.14-.76-3,1.35-3.07s1.61,1.69,1.62,2.9C896.73,944.09,896.7,949.17,896.7,954.51Z" transform="translate(-0.92 -0.87)"/><path class="cls-83" d="M935.27,1025.85c3.38,4.29,3.38,14.1,0,17.11Z" transform="translate(-0.92 -0.87)"/><path class="cls-84" d="M935.94,957.2c-2.34,5.35-.76,11-.94,16.43-.09,2.72-1.49,5.85,1,8.35-.4,1.46-1.69,2.45-1.78.34-.34-8.59-.32-17.2,0-25.78C934.31,955,935.49,956.5,935.94,957.2Z" transform="translate(-0.92 -0.87)"/><path class="cls-85" d="M889.11,1024.94c-2-5.62-1.62-11.24.08-16.84a1.49,1.49,0,0,1,1.61,1.51,91.54,91.54,0,0,1,0,13.89A1.47,1.47,0,0,1,889.11,1024.94Z" transform="translate(-0.92 -0.87)"/><path class="cls-86" d="M900.05,935l-.31,27C898.57,953,898,944,900.05,935Z" transform="translate(-0.92 -0.87)"/><path class="cls-87" d="M889.11,1024.94a33.47,33.47,0,0,0,.08-16.84l1.32-4c1.55.58,1,1.94.94,2.95-.31,7,.81,14-.57,21A3.9,3.9,0,0,1,889.11,1024.94Z" transform="translate(-0.92 -0.87)"/><path class="cls-88" d="M890.88,1028c0-8,.67-16-.37-23.91.27.18.77.34.79.55C892.14,1012.41,893,1020.22,890.88,1028Z" transform="translate(-0.92 -0.87)"/><path class="cls-89" d="M931.9,1043l-.12-22.92c2.26,2,1.26,4.68,1.13,7C932.6,1032.34,934.26,1037.8,931.9,1043Z" transform="translate(-0.92 -0.87)"/><path class="cls-90" d="M940.36,1032.4c2.39,3.17,4,5.08,2.36,7.67a2.31,2.31,0,0,1-1.6.55C939.8,1038.41,940.73,1036,940.36,1032.4Z" transform="translate(-0.92 -0.87)"/><path class="cls-91" d="M889.14,944.92c-1.88-4.23-1.67-6.26.79-7.7C891.07,939.93,892.52,942.68,889.14,944.92Z" transform="translate(-0.92 -0.87)"/><path class="cls-92" d="M889.14,944.92c1.71-2.42.6-5.13.79-7.7a1.46,1.46,0,0,1,.95-.2,16.11,16.11,0,0,1-.06,9.94A3,3,0,0,1,889.14,944.92Z" transform="translate(-0.92 -0.87)"/><path class="cls-88" d="M890.82,947l.06-9.94A9.79,9.79,0,0,1,890.82,947Z" transform="translate(-0.92 -0.87)"/><path class="cls-66" d="M743,1042.13l-1.52-.21c-1.59-.59-1-2-1-3q-.06-49.47,0-98.95c0-1-.18-2,.54-2.87l2.78-.06c1.15,1.29.63,2.86.63,4.3q0,48.1,0,96.2C744.41,1039.05,745.77,1041.34,743,1042.13Z" transform="translate(-0.92 -0.87)"/><path class="cls-93" d="M735.19,936.29c1.28-1.07,2.45-1.11,3.09.6a7.49,7.49,0,0,1,.07,2.48q0,48.69,0,97.37c0,2.11.31,4.56-3,2.15-2-1.77-1.83-4.16-1.84-6.47,0-13.65-.55-27.32.17-40.93.47-8.8,1.25-17.62.6-26.36-.57-7.63-.78-15.23-.76-22.86C733.57,940.18,733.12,937.87,735.19,936.29Z" transform="translate(-0.92 -0.87)"/><path class="cls-59" d="M747.14,990.79c0-16,0-32,.06-47.94,0-1.23-1-3.53,1-3.62,2.37-.11,1.85,2.29,1.85,3.86q0,48.44,0,96.89c0,1.08.93,3-1.19,3.12-2.4.08-1.68-2-1.68-3.35Q747.11,1015.26,747.14,990.79Z" transform="translate(-0.92 -0.87)"/><path class="cls-94" d="M761.61,1043.87c-2.2.3-2.74-.71-2.74-2.83q.1-46.36,0-92.72c0-3.08,1.17-2.3,2.73-1.21,1.51,2.67,1.38,5.64,1.37,8.54-.05,14.95.16,29.89-.87,44.84-.86,12.44,1.49,24.87.87,37.34C762.87,1039.9,763.67,1042.23,761.61,1043.87Z" transform="translate(-0.92 -0.87)"/><path class="cls-95" d="M732.91,1036.83c-2.77.36-3.45-1.25-3.45-3.58,0-13.13,0-26.27,0-39.4a7.61,7.61,0,0,1,3.46-6.74c1.28,1.17,1,2.74,1,4.2q0,20.67,0,41.35C734,1034.11,734.22,1035.68,732.91,1036.83Z" transform="translate(-0.92 -0.87)"/><path class="cls-96" d="M732.91,1036.83q0-24.86,0-49.73c1.52-8.43,2-16.85-.22-25.24-2.3-7.42-1.48-15-1.44-22.61a6.22,6.22,0,0,1,1.42-4.13,2.48,2.48,0,0,1,2.49,1.17c.08,17.43.19,34.86.23,52.29,0,16.77,0,33.54,0,50.32A3.18,3.18,0,0,1,732.91,1036.83Z" transform="translate(-0.92 -0.87)"/><path class="cls-97" d="M761.61,1043.87c.37-10.58.82-21.14-.3-31.72-.54-5.09.29-10.24.4-15.33.38-16.56,0-33.14-.1-49.71,2.43,2.48,2.26,5.65,2.39,8.76.72,17-.88,33.88-1.07,50.83-.12,10.64,1.8,21.2,1.07,31.85C763.86,1040.62,764.58,1043.07,761.61,1043.87Z" transform="translate(-0.92 -0.87)"/><path class="cls-98" d="M743,1042.13c1.5-.57,1.08-1.9,1.08-3q0-50.32,0-100.64a9.41,9.41,0,0,0-.23-1.47c1.81,1.38,1.13,3.36,1.14,5.1q.06,48-.06,96C744.91,1039.43,746.61,1042.24,743,1042.13Z" transform="translate(-0.92 -0.87)"/><path class="cls-99" d="M741.06,937.1q0,49.43.08,98.87c0,2,.23,4,.36,6-1.78-.8-1.49-2.42-1.49-3.88q0-49.46,0-98.92a13,13,0,0,1,.2-1.93c0-.1.24-.22.37-.23A1.37,1.37,0,0,1,741.06,937.1Z" transform="translate(-0.92 -0.87)"/><path class="cls-100" d="M754,1043.83l-.44.15h-.46c-.91-1-.6-2.2-.6-3.34q0-48,0-96c0-1.2-.74-2.71.86-3.58l1.79,1.64c.6,7.82.23,15.65.25,23.48q.09,35.24,0,70.48C755.43,1039.13,756,1041.76,754,1043.83Z" transform="translate(-0.92 -0.87)"/><path class="cls-101" d="M753.4,941.1a15.64,15.64,0,0,0-.38,2.45q0,50.21.1,100.42c-1.62-1.24-1.1-3-1.1-4.62q0-46.66,0-93.32C752,944.32,751.28,942.27,753.4,941.1Z" transform="translate(-0.92 -0.87)"/><path class="cls-27" d="M754,1043.83q0-47.72,0-95.44c0-1.93-.6-4.05,1.17-5.64h0c1.05,1.85.77,3.89.77,5.87q0,44.73,0,89.46c0,1.95.48,4-1,5.75l-.48.13Z" transform="translate(-0.92 -0.87)"/><path class="cls-102" d="M756,943c1.52,1.51.94,3.44.94,5.21q0,45.33,0,90.65c0,1.74.66,3.71-1.08,5.11a7.19,7.19,0,0,1-.37-3.43q0-46.84,0-93.68C755.52,945.56,755.18,944.19,756,943Z" transform="translate(-0.92 -0.87)"/><path class="cls-103" d="M756,943q-.07,50.49-.15,101h-.47l-.44-.15q0-47.31,0-94.62c0-2.15.13-4.31.21-6.46A1.52,1.52,0,0,1,756,943Z" transform="translate(-0.92 -0.87)"/><path class="cls-94" d="M725,1031.9a81.28,81.28,0,0,1,1.29-33.63v33.62Z" transform="translate(-0.92 -0.87)"/><path class="cls-104" d="M767.77,983.94l-2.53,4.29V952.34l2.7,3.67C768.73,965.33,769.05,974.64,767.77,983.94Z" transform="translate(-0.92 -0.87)"/><path class="cls-105" d="M732.7,935.12q0,13.37,0,26.74c-5.87-7.85-2.53-16.87-3.12-25.38C729.49,934.64,731.41,935,732.7,935.12Z" transform="translate(-0.92 -0.87)"/><path class="cls-106" d="M767.72,1042.93c-1.54.16-2.93.37-2.88-2,.11-6.08,0-12.17,0-19l3,3.11A46.31,46.31,0,0,1,767.72,1042.93Z" transform="translate(-0.92 -0.87)"/><path class="cls-107" d="M770.32,1029c4.61,3.42,3.48,7.55,3.28,11.38a1.83,1.83,0,0,1-2.21,1.51c-1.05-.11-1.07-1.08-1.07-1.9C770.31,1036.57,770.32,1033.16,770.32,1029Z" transform="translate(-0.92 -0.87)"/><path class="cls-108" d="M726.77,950.65c-2.37-2.44-3.91-11.46-2.53-13.58a2.13,2.13,0,0,1,1.59-.84c1.19.06.92,1.15.92,1.89C726.79,942.1,726.77,946.08,726.77,950.65Z" transform="translate(-0.92 -0.87)"/><path class="cls-109" d="M767.77,983.94l.17-27.93c2.37,5.71.77,11.66.93,17.49C769,976.94,770.34,980.72,767.77,983.94Z" transform="translate(-0.92 -0.87)"/><path class="cls-110" d="M770.15,974.1V964C772.68,968.06,772.22,971.08,770.15,974.1Z" transform="translate(-0.92 -0.87)"/><path class="cls-111" d="M767.72,1042.93l.11-17.89A27.22,27.22,0,0,1,767.72,1042.93Z" transform="translate(-0.92 -0.87)"/><path class="cls-112" d="M720.77,1013v9.31A14.32,14.32,0,0,1,720.77,1013Z" transform="translate(-0.92 -0.87)"/><path class="cls-113" d="M720.69,943.09c-2-2-2.3-3.38-.69-5.49C721.41,939.45,721,941.08,720.69,943.09Z" transform="translate(-0.92 -0.87)"/><path class="cls-56" d="M533.32,1115.08c2.44.05,2.9,1.48,2.9,3.64q-.07,49.72,0,99.44c0,2.57-.88,2.75-2.81,1.74-1.62-.85-.87-2.37-.87-3.56q-.07-48.8,0-97.6C532.54,1117.52,531.93,1116.06,533.32,1115.08Z" transform="translate(-0.92 -0.87)"/><path class="cls-57" d="M539.18,1117c2.82.09,2.89,2,2.89,4.15q-.06,48.84,0,97.67c0,2.15-.16,3.66-2.85,3.07-1.19-1.07-.69-2.5-.69-3.77q0-48.66,0-97.33C538.53,1119.57,538.07,1118.16,539.18,1117Z" transform="translate(-0.92 -0.87)"/><path class="cls-58" d="M545,1120c3.87-.07,3,2.82,3,5q.05,44.88,0,89.76c0,2-.15,4,0,6,.22,2.33-1.16,2.32-2.75,2.21-1.37-1-.77-2.45-.77-3.69q-.05-47.92,0-95.84C544.52,1122.24,544.25,1121,545,1120Z" transform="translate(-0.92 -0.87)"/><path class="cls-59" d="M530.33,1166.5c0,15.82,0,31.65,0,47.47,0,1.29,1,3.58-1,3.75-2.38.21-2-2.2-1.93-3.75.34-18.8-.38-37.6.45-56.41.56-12.77-.35-25.6-.37-38.41,0-1.56-1.67-4.73,1.47-4.71,2.36,0,1.38,3,1.38,4.59C530.36,1134.85,530.33,1150.68,530.33,1166.5Z" transform="translate(-0.92 -0.87)"/><path class="cls-58" d="M553.71,1222.92c-3.79.48-2.74-2.33-2.75-4.22q-.05-43.1,0-86.2c0-3,0-5.93,0-9.46l3,2c.86,1,.57,2.21.57,3.35q0,45.42,0,90.84C554.46,1220.46,555,1221.91,553.71,1222.92Z" transform="translate(-0.92 -0.87)"/><path class="cls-60" d="M557,1171v-41.29C560.88,1133.18,561.24,1163,557,1171Z" transform="translate(-0.92 -0.87)"/><path class="cls-62" d="M539.18,1117q0,52.44,0,104.89c-1.89-1.32-1.19-3.32-1.19-5q-.06-47.38,0-94.76C538,1120.39,537.34,1118.41,539.18,1117Z" transform="translate(-0.92 -0.87)"/><path class="cls-61" d="M533.32,1115.08q0,52.41.1,104.82c-2.14-1.16-1.39-3.21-1.39-4.92q-.06-47.46,0-94.92C532,1118.35,531.29,1116.32,533.32,1115.08Z" transform="translate(-0.92 -0.87)"/><path class="cls-63" d="M545,1120q0,48.46,0,96.93c0,2,.15,4,.23,6-1.85-1.08-1.29-2.91-1.29-4.49q0-47.13,0-94.25C544,1122.72,543.66,1121.14,545,1120Z" transform="translate(-0.92 -0.87)"/><path class="cls-63" d="M553.71,1222.92q.11-37,.21-73.92c0-8,0-16,0-24,1.71,1.43,1.06,3.39,1.07,5.14q.06,43.88,0,87.76C555,1219.64,555.69,1221.65,553.71,1222.92Z" transform="translate(-0.92 -0.87)"/><path class="cls-64" d="M524.85,1214.45c-1.56.67-2.36-.28-3.07-1.44-.45-13-.48-26,0-39l1.23-2.87c2.79.47,1.36,2.65,1.38,3.94.13,11.31.06,22.63.09,33.94C524.51,1210.82,524.21,1212.67,524.85,1214.45Z" transform="translate(-0.92 -0.87)"/><path class="cls-65" d="M518.62,1180.58v27.87C514.65,1204.17,514.64,1186.57,518.62,1180.58Z" transform="translate(-0.92 -0.87)"/><path class="cls-66" d="M556.93,1198.4c4.29,4.26,2.63,8.78,2.91,12.91.18,2.64.05,5.3,0,8,0,1.25.39,2.92-1.72,2.79-1.85-.12-1.16-1.71-1.18-2.67-.07-5.3,0-10.6,0-15.9C556.93,1202,556.93,1200.51,556.93,1198.4Z" transform="translate(-0.92 -0.87)"/><path class="cls-64" d="M524.51,1135.64c-3.37-2.14-2.59-5-2.64-7.46-.08-3.8,0-7.59,0-11.39,0-1.05.13-2.18,1.38-2.21,1.41,0,1.26,1.24,1.27,2.19C524.52,1122.88,524.51,1129,524.51,1135.64Z" transform="translate(-0.92 -0.87)"/><path class="cls-67" d="M524.85,1214.45c-1-12.89-.11-25.81-.51-38.7,0-1.53,1.27-3.71-1.3-4.63.4-.69.75-1.93,1.22-2,1.22-.13.82,1.09.82,1.77Q525,1192.68,524.85,1214.45Z" transform="translate(-0.92 -0.87)"/><path class="cls-68" d="M562.71,1207.29c4.55,3.68,2.57,8.28,2.84,12.51.06.9-.91,1.3-1.83,1.17-1.17-.16-1-1.15-1-1.9C562.69,1215.14,562.71,1211.22,562.71,1207.29Z" transform="translate(-0.92 -0.87)"/><path class="cls-69" d="M521.81,1174q0,19.51,0,39c-1.61-2.63-.71-5.53-.76-8.28-.13-8.65-.07-17.31,0-26C521,1177.15,520.51,1175.4,521.81,1174Z" transform="translate(-0.92 -0.87)"/><path class="cls-64" d="M518.8,1127.38c-4.43-2.71-2.69-6.82-2.83-10.36,0-1,1.08-1.13,1.88-1.13,1.32,0,.92,1.11.94,1.8C518.82,1120.83,518.8,1124,518.8,1127.38Z" transform="translate(-0.92 -0.87)"/><path class="cls-70" d="M564,1140.13a31.45,31.45,0,0,1-.11,17.4l-.47.14a34.23,34.23,0,0,1,.11-17.54S563.8,1140.12,564,1140.13Z" transform="translate(-0.92 -0.87)"/><path class="cls-71" d="M564,1140.13a28.26,28.26,0,0,0-.11,17.4c-.33.74-1.45,2.29-1.52,1.11a187.08,187.08,0,0,1,.09-19.58C562.45,1138.42,563.6,1139.44,564,1140.13Z" transform="translate(-0.92 -0.87)"/><path class="cls-27" d="M249.39,1383.54c-2.26-1.61-2.55-3.79-2.54-6.19q.06-29.95,0-59.9a10.24,10.24,0,0,1,2.54-7.08Z" transform="translate(-0.92 -0.87)"/><path class="cls-114" d="M256,1380l-2.83,3.58v-72.36L256,1315a4,4,0,0,1,.49,2.39q0,30.12,0,60.23A3.63,3.63,0,0,1,256,1380Z" transform="translate(-0.92 -0.87)"/><path class="cls-115" d="M258.63,1320.62c4.35,5.87,4.22,48.4,0,53.11Z" transform="translate(-0.92 -0.87)"/><path class="cls-116" d="M264.23,1330.05c2.63,1.94,3.33,4.6,3.27,7.76-.13,6.41-.16,12.83,0,19.24a9.57,9.57,0,0,1-3.18,7.87c-1.14-.62-.8-1.72-.81-2.66q0-14.73,0-29.46C263.52,1331.85,263.26,1330.78,264.23,1330.05Z" transform="translate(-0.92 -0.87)"/><path class="cls-64" d="M237.87,1330.28v34C233.9,1359.78,233.7,1335.67,237.87,1330.28Z" transform="translate(-0.92 -0.87)"/><path class="cls-117" d="M256,1380l0-65c1.33,1.15,1,2.73,1,4.18q0,28.33,0,56.66C257,1377.29,257.34,1378.87,256,1380Z" transform="translate(-0.92 -0.87)"/><path class="cls-118" d="M243.7,1374.93l-1.65-3-.09-.9q-1-23.56,0-47.12l.06-.91,1.8-3c.91.76.68,1.81.68,2.78q0,24.7,0,49.41C244.48,1373.19,244.78,1374.27,243.7,1374.93Z" transform="translate(-0.92 -0.87)"/><path class="cls-119" d="M243.7,1374.93c.58-18.29.37-36.59.11-54.88,1.57,1,1.18,2.62,1.18,4.06q0,23.41,0,46.83C245,1372.38,245.36,1374,243.7,1374.93Z" transform="translate(-0.92 -0.87)"/><path class="cls-103" d="M242,1371.94l-1.11-1c-1-8.55-.34-17.14-.37-25.7,0-7.08-.57-14.18.34-21.25l1.1-1a3,3,0,0,0,.24.44c.43,16,.38,32,0,48.06Z" transform="translate(-0.92 -0.87)"/><path class="cls-120" d="M240.91,1324q0,23.48,0,47c-1-.88-.93-2.07-.93-3.23q0-20.24,0-40.47C240,1326.11,239.93,1324.92,240.91,1324Z" transform="translate(-0.92 -0.87)"/><path class="cls-91" d="M270.15,1354.53v-13.88C274.25,1344.38,274.34,1349.59,270.15,1354.53Z" transform="translate(-0.92 -0.87)"/><path class="cls-104" d="M229.21,1343.05l2.66-3.16V1355l-2.57-3A11.52,11.52,0,0,1,229.21,1343.05Z" transform="translate(-0.92 -0.87)"/><path class="cls-121" d="M264.23,1330.05q0,17.44.09,34.87c-1.25-.63-1.33-1.78-1.33-3q0-14.43,0-28.86C263,1331.91,263,1330.75,264.23,1330.05Z" transform="translate(-0.92 -0.87)"/><path class="cls-122" d="M229.21,1343.05l.09,8.87C227.18,1349,227.33,1346,229.21,1343.05Z" transform="translate(-0.92 -0.87)"/><path class="cls-27" d="M859.15,1347.57c0,8.32-.37,16.67.09,25,.6,10.71-8.48,21.94-18.19,25.51a28.11,28.11,0,0,1-29.89-6.58c-5.21-5.45-8.34-11.77-8.25-19.63.19-16.31,0-32.63.07-48.94a28.41,28.41,0,0,1,24.53-27.68c13.64-1.77,28.35,7.59,31.06,21,1.4,6.89.47,14.25.56,21.41C859.19,1340.91,859.15,1344.24,859.15,1347.57Z" transform="translate(-0.92 -0.87)"/><path class="cls-27" d="M528,1332.29c1.07-11-5.08-19.24-11-27.45-6.52-9-6.6-8.92,4.7-11,18.91-3.51,40.75,12,43.37,30.79.83,6-1,11.47-3.6,16.77-3.61,7.47-7,14.82-6.64,23.62a28.72,28.72,0,0,0,6.73,18.21,87.49,87.49,0,0,1,7.91,10.86c1.49,2.45,1.23,4-1.55,4.87-16.52,5.39-32.39,4.36-46.08-6.88-6.93-5.69-9.89-13.87-7-23.3a87,87,0,0,1,8.13-18.08C526.16,1345,528.7,1339.11,528,1332.29Z" transform="translate(-0.92 -0.87)"/><path class="cls-123" d="M835,1168.34c0-16,0-31.95.07-47.92,0-1.29-1.42-3.9,1.34-3.83,2.38.06,1.55,2.54,1.55,4q.06,47.92,0,95.84c0,1.48.78,4-1.73,3.82s-1.16-2.67-1.17-4C835,1200.29,835,1184.31,835,1168.34Z" transform="translate(-0.92 -0.87)"/><path class="cls-124" d="M826.24,1169c0,15.65,0,31.31-.06,47,0,1.38,1.18,3.94-1.33,4s-1.61-2.49-1.61-4q-.07-47.71,0-95.43c0-1.48-.76-3.93,1.85-3.71,2.14.18,1.09,2.43,1.1,3.68C826.27,1136.7,826.24,1152.85,826.24,1169Z" transform="translate(-0.92 -0.87)"/><path class="cls-125" d="M843.82,1218c-1.1,0-3,2.23-2.88-1,0-.67,0-1.33,0-2q0-46.47,0-92.94c0-1.59-1.39-5.19,2.86-3,1,1,.64,2.18.64,3.31q0,46.16,0,92.32C844.48,1215.79,844.83,1217,843.82,1218Z" transform="translate(-0.92 -0.87)"/><path class="cls-126" d="M818,1217.93c-.83-1.54-.66-3.22-.66-4.87q0-44.58,0-89.15c0-1.65-.19-3.33.65-4.87,1.07-.72,2-.44,2.34.71a11.86,11.86,0,0,1,.14,3.47c0,30.2,0,60.39-.08,90.59C820.4,1215.28,822.12,1218.51,818,1217.93Z" transform="translate(-0.92 -0.87)"/><path class="cls-127" d="M847.19,1121.41c2.67.89,2.76,2.64,2.76,4.56q0,42.46,0,84.93c0,2.09-.05,4-2.7,4.53C846.78,1211.38,846.71,1126.51,847.19,1121.41Z" transform="translate(-0.92 -0.87)"/><path class="cls-128" d="M854,1127l1.73,3.07a68.3,68.3,0,0,1,1.69,14.05q.19,24.39,0,48.79a65.15,65.15,0,0,1-1.71,14l-1.71,3c-2.29-.08-1.44-1.88-1.44-2.94q-.08-38.53,0-77.06C852.55,1128.88,851.72,1127.08,854,1127Z" transform="translate(-0.92 -0.87)"/><path class="cls-27" d="M808.21,1208.2c-2.22-1.31-2.34-3.4-2.34-5.58q0-34.18,0-68.36c0-2.25.73-4.15,2.36-7.09Z" transform="translate(-0.92 -0.87)"/><path class="cls-27" d="M831.82,1117q0,51.46,0,102.93c-1.49.88-2.15,0-2.55-1.25a12.76,12.76,0,0,1-.26-4c0-30.83,0-61.65.09-92.48C829.11,1120.42,827.27,1116.83,831.82,1117Z" transform="translate(-0.92 -0.87)"/><path class="cls-27" d="M812.87,1214.16l-1.12-1.16c-.55-11.93-.23-23.86-.21-35.79,0-17.73-.34-35.47.21-53.2a3.43,3.43,0,0,1,2.25-1.85c1.43,1.54,1,3.46,1,5.24q0,40.73,0,81.47C814.93,1210.72,816.2,1213.44,812.87,1214.16Z" transform="translate(-0.92 -0.87)"/><path class="cls-30" d="M855.71,1206.94q0-38.44,0-76.87c2.78,2.1,0,5.65,2.07,7.94,1.16,2.27,1.19,4.73,1.19,7.19q0,23.31,0,46.62c0,2.46,0,4.92-1.19,7.19C855.73,1201.28,858.54,1204.85,855.71,1206.94Z" transform="translate(-0.92 -0.87)"/><path class="cls-129" d="M857.81,1199q0-30.5,0-61c2.68,0,1.65,2.45,1.68,3.43.63,18,.59,36.07.09,54.11a16.07,16.07,0,0,1-1,3.71c0,.05-.29.08-.41,0A1.61,1.61,0,0,1,857.81,1199Z" transform="translate(-0.92 -0.87)"/><path class="cls-130" d="M831.82,1117c-2.41.53-1.8,2.49-1.8,4q0,47.43,0,94.86c0,1.54-.62,3.5,1.79,4-.32,1.77-1.72.68-2.59,1-1.18-1.08-.69-2.5-.69-3.77q0-48.68,0-97.36c0-1.27-.48-2.69.68-3.78C830.09,1116.35,831.5,1115.24,831.82,1117Z" transform="translate(-0.92 -0.87)"/><path class="cls-131" d="M818,1217.93c3.78.15,2.11-2.8,2.12-4.26.11-28.46.08-56.92.08-85.38,0-2.33,0-4.66,0-7,0-1.54-.3-2.66-2.21-2.27,1.26-1.26,2.37-1.31,2.88.59a11.72,11.72,0,0,1,.14,3q0,45.9-.07,91.8C820.95,1215.95,822.59,1219.79,818,1217.93Z" transform="translate(-0.92 -0.87)"/><path class="cls-132" d="M829.21,1116q-.1,47.71-.2,95.43c0,3.16.14,6.32.21,9.48-1.88-1.33-1.19-3.33-1.19-5.05q-.06-47.39,0-94.79C828,1119.38,827.34,1117.38,829.21,1116Z" transform="translate(-0.92 -0.87)"/><path class="cls-133" d="M843.82,1218q0-49.46,0-98.92c1.8,1.37,1.13,3.35,1.13,5.09q.06,44.38,0,88.76C845,1214.62,845.65,1216.6,843.82,1218Z" transform="translate(-0.92 -0.87)"/><path class="cls-134" d="M812.87,1214.16c1.92-1.55,1.09-3.71,1.09-5.59q.08-43.21,0-86.41l.58-1.09c1.61.85.88,2.37.88,3.57q.07,43.9,0,87.81c0,1.18.77,2.72-.93,3.52Z" transform="translate(-0.92 -0.87)"/><path class="cls-135" d="M814.52,1215.95a25.66,25.66,0,0,0,.46-3.44q0-44,0-88a28.9,28.9,0,0,0-.4-3.45c2.13,1.15,1.39,3.19,1.39,4.9q.06,42.57,0,85.13C816,1212.79,816.71,1214.84,814.52,1215.95Z" transform="translate(-0.92 -0.87)"/><path class="cls-136" d="M811.75,1124q0,44.5,0,89c-1.17-1.26-.79-2.83-.79-4.29q0-40.21,0-80.42C811,1126.83,810.59,1125.27,811.75,1124Z" transform="translate(-0.92 -0.87)"/><path class="cls-137" d="M854,1127c-2,.77-1.18,2.54-1.18,3.85q-.09,37.63,0,75.26c0,1.31-.86,3.08,1.17,3.85-.71.73-1.51.92-1.8-.23a14.45,14.45,0,0,1-.22-3.45c0-25.19,0-50.38.08-75.57C852.06,1129.46,850.32,1126.59,854,1127Z" transform="translate(-0.92 -0.87)"/><path class="cls-138" d="M170.88,1023.43v-67c2.45,1.72,2.88,4,2.87,6.54,0,17.66-.07,35.32,0,53C173.8,1018.64,172.8,1020.6,170.88,1023.43Z" transform="translate(-0.92 -0.87)"/><path class="cls-27" d="M161.6,1018.74c-2.35-1.92-2.7-4-2.69-6.45q.08-22.92,0-45.84a8.19,8.19,0,0,1,2.7-6.54Z" transform="translate(-0.92 -0.87)"/><path class="cls-139" d="M166.19,1026.9c-1.33-1.31-1.2-3-1.19-4.66q0-32.74,0-65.48c0-1.65-.22-3.36,1.13-4.68,2.43.47,1.81,2.48,1.82,4q.1,33.42,0,66.83C168,1024.37,168.57,1026.35,166.19,1026.9Z" transform="translate(-0.92 -0.87)"/><path class="cls-140" d="M153,973l2.85-4v40.67L153,1006A227,227,0,0,1,153,973Z" transform="translate(-0.92 -0.87)"/><path class="cls-141" d="M177.93,966.19a16.28,16.28,0,0,1,1.42,7.16q-.14,15.86,0,31.71a16.52,16.52,0,0,1-1.45,7.65c-1.73.35-1.37-1-1.37-1.84q-.06-21.39,0-42.78C176.53,967.21,176.28,966,177.93,966.19Z" transform="translate(-0.92 -0.87)"/><path class="cls-142" d="M166.19,1026.9c1.22-1.24.8-2.81.8-4.26q0-33.16,0-66.33c0-1.45.43-3-.86-4.24a2.41,2.41,0,0,1,1.7-2c1,1,.64,2.18.64,3.31q0,36.17,0,72.34c0,1.12.37,2.36-.68,3.28A2.9,2.9,0,0,1,166.19,1026.9Z" transform="translate(-0.92 -0.87)"/><path class="cls-143" d="M167.79,1029q0-39.46,0-78.92c1.67,1.2,1.14,3,1.14,4.59q0,34.89,0,69.77C169,1026,169.52,1027.79,167.79,1029Z" transform="translate(-0.92 -0.87)"/><path class="cls-144" d="M149.88,999.56c-4.07-5.23-4-15.49,0-20Z" transform="translate(-0.92 -0.87)"/><path class="cls-145" d="M177.93,966.19c-1.71.4-1.13,1.82-1.14,2.83q-.07,20.4,0,40.81c0,1-.5,2.42,1.12,2.89-3.52,1-1.86-1.95-1.87-2.9-.13-12.62-.09-25.24-.09-37.86,0-2-.34-4.07.1-6C176.58,963.73,177.4,965,177.93,966.19Z" transform="translate(-0.92 -0.87)"/><path class="cls-146" d="M183.93,977c2.61,6.3.61,12.89,1.18,19.32.17,1.93.33,4-1.23,5.55-1.65,0-1.77-1.25-1.79-2.38-.14-6.71-.15-13.43,0-20.14C182.12,978.25,182.29,977,183.93,977Z" transform="translate(-0.92 -0.87)"/><path class="cls-147" d="M153,973q0,16.5,0,33c-1.34-1.14-1-2.7-1-4.14q0-12.35,0-24.7C152,975.71,151.68,974.15,153,973Z" transform="translate(-0.92 -0.87)"/><path class="cls-148" d="M183.93,977a70.29,70.29,0,0,0-.05,24.87,2.43,2.43,0,0,1-1.77,2.06A152.69,152.69,0,0,1,182,975,2.1,2.1,0,0,1,183.93,977Z" transform="translate(-0.92 -0.87)"/><path class="cls-149" d="M182,975l.09,28.95c-1.44-1.08-1.09-2.66-1.09-4.1,0-7.59,0-15.18,0-22.77C181,976.41,180.2,975,182,975Z" transform="translate(-0.92 -0.87)"/><path class="cls-150" d="M188.52,985c3,3,3.18,5.59,0,8.73Z" transform="translate(-0.92 -0.87)"/><path class="cls-151" d="M335.15,951.17a7.59,7.59,0,0,1,2.72,6.49q-.08,31.71,0,63.42c0,2.43-.36,4.55-2.73,6.6Z" transform="translate(-0.92 -0.87)"/><path class="cls-152" d="M342,960.89a14.57,14.57,0,0,1,1.69,7.11q-.15,21.44,0,42.89A14.72,14.72,0,0,1,342,1018c-1.92,0-1.47-1.45-1.47-2.48q-.05-26,0-52.1C340.53,962.33,340.21,961,342,960.89Z" transform="translate(-0.92 -0.87)"/><path class="cls-153" d="M326,965.07v48.16C322,1009.44,321.64,970.66,326,965.07Z" transform="translate(-0.92 -0.87)"/><path class="cls-139" d="M330,1021c-1.67-1.45-1-3.41-1-5.16,0-17.62,0-35.24,0-52.86,0-2.31-.35-4.71,1.94-6.31,1.43,1.31,1.06,3.07,1.07,4.68,0,18.26.06,36.52,0,54.78C331.93,1017.84,333,1020.33,330,1021Z" transform="translate(-0.92 -0.87)"/><path class="cls-141" d="M346.44,970.45c4,3.56,4.31,33.58,0,38Z" transform="translate(-0.92 -0.87)"/><path class="cls-140" d="M317.11,978l2.54-2.94v28.47l-2.49-2.6A84.17,84.17,0,0,1,317.11,978Z" transform="translate(-0.92 -0.87)"/><path class="cls-154" d="M330,1021c1.24-1,1-2.38,1-3.67q0-30.32-.09-60.65a1.48,1.48,0,0,1,.92-1.63c1,.95.65,2.18.65,3.3q0,31.19,0,62.37c0,1.1.43,2.37-.74,3.22Z" transform="translate(-0.92 -0.87)"/><path class="cls-155" d="M331.73,1023.94q0-34.45.1-68.9c1.69,1.2,1.15,3,1.15,4.58q0,29.9,0,59.8C333,1021,333.54,1022.82,331.73,1023.94Z" transform="translate(-0.92 -0.87)"/><path class="cls-156" d="M342,960.89c-2,.44-1.27,2.09-1.27,3.23q-.08,25.32,0,50.65c0,1.13-.75,2.78,1.25,3.24-.41.69-.93,1.8-1.72.85-.52-.61-.32-1.89-.32-2.86,0-17.65,0-35.3.1-53C340.06,962.49,338,958.39,342,960.89Z" transform="translate(-0.92 -0.87)"/><path class="cls-146" d="M353.89,981.08a24.22,24.22,0,0,1,0,16.8,1.44,1.44,0,0,1-1.63-1.46,89.84,89.84,0,0,1,0-13.91A1.44,1.44,0,0,1,353.89,981.08Z" transform="translate(-0.92 -0.87)"/><path class="cls-157" d="M353.89,981.08a33.51,33.51,0,0,0,0,16.8,2.42,2.42,0,0,1-1.78,2.11,82.64,82.64,0,0,1,0-21A2.29,2.29,0,0,1,353.89,981.08Z" transform="translate(-0.92 -0.87)"/><path class="cls-158" d="M317.11,978l.05,22.93c-2.27-2.75-1.16-6-1.06-9C316.26,987.33,314.78,982.52,317.11,978Z" transform="translate(-0.92 -0.87)"/><path class="cls-159" d="M314,985v9C310.3,989.79,310.31,989,314,985Z" transform="translate(-0.92 -0.87)"/><path class="cls-160" d="M352,979q0,10.49,0,21A43.89,43.89,0,0,1,352,979Z" transform="translate(-0.92 -0.87)"/><path class="cls-27" d="M249.41,1025.56c-2.29-1.65-2.57-3.83-2.56-6.24q.05-29.94,0-59.88a10,10,0,0,1,2.56-7Z" transform="translate(-0.92 -0.87)"/><path class="cls-161" d="M256,1022l-2.84,3.54V953.25L256,957a4,4,0,0,1,.49,2.39q0,30.12,0,60.24A3.64,3.64,0,0,1,256,1022Z" transform="translate(-0.92 -0.87)"/><path class="cls-146" d="M261.1,1013l-2.27,2.91v-52.3c1.37.25,1.52,1.64,2.33,2.37C261.68,981.66,261.78,997.34,261.1,1013Z" transform="translate(-0.92 -0.87)"/><path class="cls-141" d="M237.8,1006.32c-4-4.87-4-28.88,0-33.79Z" transform="translate(-0.92 -0.87)"/><path class="cls-162" d="M256,1022q0-32.5,0-65c1.33,1.15,1,2.73,1,4.18q0,28.33,0,56.66C257,1019.29,257.34,1020.87,256,1022Z" transform="translate(-0.92 -0.87)"/><path class="cls-27" d="M265,972.78c3.35,5,3.36,28.29,0,33.3A242.82,242.82,0,0,1,265,972.78Z" transform="translate(-0.92 -0.87)"/><path class="cls-163" d="M242,965l1.81-3c.9.77.67,1.82.67,2.79q0,24.69,0,49.38c0,1,.29,2-.77,2.7l-1.66-3-.09-.9q-1-23.56,0-47.12Z" transform="translate(-0.92 -0.87)"/><path class="cls-164" d="M243.71,1016.92c.56-18.29.35-36.58.1-54.87,1.56,1,1.17,2.62,1.18,4.07q0,23.41,0,46.82C245,1014.37,245.37,1016,243.71,1016.92Z" transform="translate(-0.92 -0.87)"/><path class="cls-165" d="M242,1013.94l-1.11-.95c-1-8.56-.34-17.14-.37-25.71,0-7.08-.57-14.19.34-21.26l1.1-1,.23.42c.45,16,.4,32.06,0,48.09Z" transform="translate(-0.92 -0.87)"/><path class="cls-166" d="M240.9,966q0,23.49,0,47c-1-.88-.93-2.07-.93-3.24q0-20.24,0-40.48C240,968.1,239.94,966.92,240.9,966Z" transform="translate(-0.92 -0.87)"/><path class="cls-167" d="M261.1,1013q0-23.51.06-47c1.19,1,1,2.39,1,3.68q0,19.83,0,39.67C262.11,1010.65,262.29,1012,261.1,1013Z" transform="translate(-0.92 -0.87)"/><path class="cls-144" d="M270.24,996.71V982.45C274.22,986.76,274.28,991.66,270.24,996.71Z" transform="translate(-0.92 -0.87)"/><path class="cls-167" d="M265,972.78q-.75,16.65,0,33.3c-1,.56-1.07-.27-1.07-.84q0-16.1,0-32.2c0-.3.08-.76.28-.88C264.81,971.77,264.89,972.32,265,972.78Z" transform="translate(-0.92 -0.87)"/><path class="cls-168" d="M229.22,985.05l2.66-3.14v15l-2.56-3A11.49,11.49,0,0,1,229.22,985.05Z" transform="translate(-0.92 -0.87)"/><path class="cls-147" d="M229.22,985.05l.1,8.88C227.17,991,227.33,988,229.22,985.05Z" transform="translate(-0.92 -0.87)"/><path class="cls-27" d="M321.1,1168.67c0,7.82-.45,15.68.1,23.46.93,13-9.94,26.27-24.14,28.52-13,2.06-26.21-6.09-30.92-19.11a21,21,0,0,1-1.24-7.3c0-17.14-.11-34.28.06-51.42.14-14.76,13.19-26.76,28.53-26.73,15.87,0,28.2,14.75,27.68,27.13C320.82,1151.68,321.1,1160.18,321.1,1168.67Z" transform="translate(-0.92 -0.87)"/><path class="cls-27" d="M237.41,1168.62c0,8-.19,16,0,24,.47,16.5-14.4,28.6-28.56,28.34A28.62,28.62,0,0,1,181,1192.29q0-24,0-47.93c0-15.33,12.59-28.11,27.68-28.27,15.81-.17,28.39,11.84,28.69,27.56C237.54,1152,237.41,1160.3,237.41,1168.62Z" transform="translate(-0.92 -0.87)"/><path class="cls-169" d="M238.28,1195.83v-53.67h.48v53.67Z" transform="translate(-0.92 -0.87)"/><path class="cls-170" d="M865.33,1473.32c2.92-.09,2.81,1.81,2.81,3.72q0,49.4,0,98.79c0,.91.82,2.61-1.09,2.6-1.26,0-2-1-1.88-2.41.06-.66,0-1.33,0-2q0-48.9,0-97.79C865.13,1475.27,865.26,1474.29,865.33,1473.32Z" transform="translate(-0.92 -0.87)"/><path class="cls-171" d="M876.93,1529.1c0-15.8,0-31.6.06-47.4,0-1.2-1.05-3.42,1.21-3.51,2-.07,1.87,1.92,1.87,3.44q0,48.15,0,96.29c0,1.1.81,3-1.4,3-2.41,0-1.65-2.11-1.66-3.42C876.91,1561.37,876.93,1545.24,876.93,1529.1Z" transform="translate(-0.92 -0.87)"/><path class="cls-150" d="M859,1518c1.7-3.49,1.06-7.27.69-10.77-1.11-10.31-.31-20.62-.51-30.92,0-1.36-1.25-3.95,1.31-4s1.54,2.53,1.54,4q.08,43.49,0,87c0,3.5,0,7,0,10.5.06,3.19-1.43,2.21-3,1.18-.8-.81-.6-1.85-.6-2.83q0-25.63,0-51.27A4.27,4.27,0,0,1,859,1518Z" transform="translate(-0.92 -0.87)"/><path class="cls-172" d="M885.61,1580.9c-3.85.5-2.76-2.38-2.76-4.25q-.07-41.71,0-83.43v-12.41l3,2.24c1.19,1.08.69,2.5.69,3.77q0,45.24,0,90.48C886.46,1578.51,887.18,1580,885.61,1580.9Z" transform="translate(-0.92 -0.87)"/><path class="cls-173" d="M889,1528.05V1487.5C893,1491.6,893.07,1522,889,1528.05Z" transform="translate(-0.92 -0.87)"/><path class="cls-174" d="M871.16,1475.05l1.94.85.17,1c.43,28.12.07,56.24.19,84.36,0,4.33,0,8.65,0,13,0,2,.23,4-1.43,5.61a1.46,1.46,0,0,1-.86.14c-1.06-1.13-.63-2.53-.63-3.81q0-48.64,0-97.29C870.53,1477.58,870.09,1476.17,871.16,1475.05Z" transform="translate(-0.92 -0.87)"/><path class="cls-175" d="M871.16,1475.05q0,52.45,0,104.9c-1.8-1.38-1.12-3.36-1.13-5.09q-.06-47.36,0-94.72C870,1478.41,869.34,1476.42,871.16,1475.05Z" transform="translate(-0.92 -0.87)"/><path class="cls-169" d="M874,1476c1.59,1.48,1,3.42,1,5.18q.05,46.82,0,93.65c0,1.75.61,3.7-1,5.17-1.35-1.76-.94-3.83-.95-5.79q0-46.21,0-92.42C873,1479.82,872.61,1477.75,874,1476Z" transform="translate(-0.92 -0.87)"/><path class="cls-176" d="M874,1476q0,52,0,104l-1-.11c-.7-1.06-.47-2.25-.47-3.4q0-48.87,0-97.73a8.12,8.12,0,0,1,.25-2.47,1.17,1.17,0,0,1,.35-.38A1.51,1.51,0,0,1,874,1476Z" transform="translate(-0.92 -0.87)"/><path class="cls-27" d="M872.75,1476.28c.08,16.1.2,32.2.24,48.3,0,18.43,0,36.86,0,55.3l-1-.06q0-49.38,0-98.76C872,1479.46,871.47,1477.71,872.75,1476.28Z" transform="translate(-0.92 -0.87)"/><path class="cls-177" d="M885.61,1580.9q.11-37.94.21-75.88c0-7.32,0-14.65,0-22,1.89,1.33,1.19,3.33,1.2,5.05Q887,1532,887,1576C887,1577.68,887.73,1579.72,885.61,1580.9Z" transform="translate(-0.92 -0.87)"/><path class="cls-27" d="M853.9,1531l2.5-3.51c0,14.41,0,28.13-.08,41.85,0,1,1.79,4.62-2.23,2.64-1.2-4.21-.55-8.51-.52-12.76C853.63,1549.8,853,1540.38,853.9,1531Z" transform="translate(-0.92 -0.87)"/><path class="cls-178" d="M856.68,1494.69c-4-3.28-3.36-7.05-3.38-10.63,0-3,0-6,0-9,0-1.53.46-2.82,2.11-2.75s1.25,1.69,1.26,2.74C856.71,1481.37,856.68,1487.67,856.68,1494.69Z" transform="translate(-0.92 -0.87)"/><path class="cls-179" d="M888.76,1556.52c2.53,2.38,3.17,4.24,3.12,6.53-.11,4.81,0,9.63,0,14.44,0,1.14.2,2.48-1.5,2.59-1.87.12-1.56-1.34-1.57-2.42C888.75,1570.89,888.76,1564.12,888.76,1556.52Z" transform="translate(-0.92 -0.87)"/><path class="cls-160" d="M859,1518q0,28.48.09,57c-1.47-1.07-1.11-2.66-1.11-4.1q0-24.35,0-48.7C858,1520.72,857.67,1519.14,859,1518Z" transform="translate(-0.92 -0.87)"/><path class="cls-180" d="M849,1566a56.29,56.29,0,0,1,0-25.86c1.14-.17,1.42.54,1.42,1.46q.08,11.46,0,22.93C850.45,1565.41,850.13,1566.08,849,1566Z" transform="translate(-0.92 -0.87)"/><path class="cls-181" d="M853.9,1531c-.16,13.66-.52,27.32.18,41-1.19-.71-1.19-1.88-1.19-3.05q0-17.62,0-35.24A3.37,3.37,0,0,1,853.9,1531Z" transform="translate(-0.92 -0.87)"/><path class="cls-153" d="M850.5,1485.47c-4.16-3.15-2.37-7-2.58-10.4,0-.35.86-1.07,1.35-1.09,1.05,0,1.22.89,1.22,1.74C850.51,1478.71,850.5,1481.69,850.5,1485.47Z" transform="translate(-0.92 -0.87)"/><path class="cls-181" d="M849,1566c1.41-.2,1.26-1.33,1.26-2.26q0-10.67,0-21.33c0-.92.19-2.07-1.24-2.26.65-1.07,1.85-3.12,2-.07.32,8.58.23,17.19,0,25.78C851,1568.52,849.82,1567.37,849,1566Z" transform="translate(-0.92 -0.87)"/><path class="cls-141" d="M895.95,1565.15a16.45,16.45,0,0,1,.06,14c-3.19-3-.88-6.86-1.38-10.27C894.47,1567.79,893.12,1565.5,895.95,1565.15Z" transform="translate(-0.92 -0.87)"/><path class="cls-153" d="M895.84,1498.41a28.57,28.57,0,0,1,0,16.29c-.41,0-1.08.41-1.14-.36a105.56,105.56,0,0,1,0-15.62C894.79,1497.9,895.44,1498.43,895.84,1498.41Z" transform="translate(-0.92 -0.87)"/><path class="cls-182" d="M895.84,1498.41a21.54,21.54,0,0,0,0,16.29c-1.72,1.5-1.93,1.5-1.95.2-.09-5.58,0-11.15,0-16.73,0-.67.15-1.47.94-1.27C895.28,1497,895.52,1497.88,895.84,1498.41Z" transform="translate(-0.92 -0.87)"/><path class="cls-183" d="M895.95,1565.15a15.22,15.22,0,0,0,.06,14c-1.14.84-2,.4-2-.84-.1-4.27-.13-8.55,0-12.82C894.08,1564.2,895.05,1564,895.95,1565.15Z" transform="translate(-0.92 -0.87)"/><path class="cls-27" d="M901.23,1577.57c-1.31-2-1-3.41-.79-4.9C901.82,1573.93,902.91,1575.16,901.23,1577.57Z" transform="translate(-0.92 -0.87)"/><path class="cls-179" d="M780.26,1576.74c-3.18,0-3.08-1.84-3.08-3.74q0-48.49.06-97c0-1.18-1-3.47,1.51-3.3,2.2.15,1.48,2.26,1.49,3.62.05,7.83,0,15.66,0,23.5v76.92Z" transform="translate(-0.92 -0.87)"/><path class="cls-139" d="M789,1527.82c0-15.83,0-31.66.07-47.48,0-1.39-1.25-4,1-4.09,2.64-.15,1.93,2.58,1.93,4.27q.05,45,0,90c0,2.33.08,4.67,0,7,0,1,.69,2.57-1.22,2.65-2.08.09-1.75-1.53-1.76-2.82,0-3,0-6,0-9Q789,1548.07,789,1527.82Z" transform="translate(-0.92 -0.87)"/><path class="cls-140" d="M797.8,1580.95c-3.86.65-2.83-2.21-2.83-4.11q-.06-32.23,0-64.46c0-10.33.08-20.65,0-31,0-3.3,1.17-2.79,3-1.39.91,1.18.54,2.56.54,3.86q0,46.65,0,93.29C798.47,1578.44,798.94,1579.85,797.8,1580.95Z" transform="translate(-0.92 -0.87)"/><path class="cls-184" d="M801.14,1482.95c2.79,1.12,2.69,3,2.65,4.82-.37,16.6.29,33.2-.5,49.83-.6,12.57.29,25.21.5,37.83,0,1.33,0,2.66-.1,4a1.44,1.44,0,0,1-1.69,1.38c-.89,0-1-.7-1.07-1.36s-.06-1.33-.06-2q0-46.15,0-92.3A19.82,19.82,0,0,1,801.14,1482.95Z" transform="translate(-0.92 -0.87)"/><path class="cls-185" d="M773,1574c-1.69-1.22-1.81-2.94-1.8-4.86.06-12.32.11-24.64,0-37,0-2.66,1.31-4.74,1.86-7.12,2-.07,1.44,1.48,1.44,2.48q.07,22,0,44C774.46,1572.55,775,1574.06,773,1574Z" transform="translate(-0.92 -0.87)"/><path class="cls-186" d="M783,1474l1,.1a5.42,5.42,0,0,1,1.07,1.62,27.49,27.49,0,0,1,.37,7c0,31.45,0,62.9,0,94.35a2.94,2.94,0,0,1-.48,1.83l-1.76.09c-1.26-1-.73-2.48-.73-3.73q0-48.9,0-97.81C782.52,1476.25,782.29,1475.05,783,1474Z" transform="translate(-0.92 -0.87)"/><path class="cls-187" d="M784,1475q0-.47,0-.94l1.77,0c1.07.91.69,2.15.69,3.27q0,49.15,0,98.3c0,1.13.29,2.35-.57,3.35l-.46,0-.43-.15q0-.41,0-.83c-.92-1.72-.46-3.59-.47-5.38q0-46.11,0-92.22C784.48,1478.62,784.93,1476.76,784,1475Z" transform="translate(-0.92 -0.87)"/><path class="cls-33" d="M785.91,1579q-.06-52.46-.13-104.92c1.88,1.33,1.18,3.32,1.19,5.05q.06,47.36,0,94.73C787,1575.59,787.61,1577.55,785.91,1579Z" transform="translate(-0.92 -0.87)"/><path class="cls-158" d="M783,1474q0,49.48,0,99c0,2,.16,4,.25,6-1.79-1.13-1.24-2.94-1.24-4.52q0-48.11,0-96.22C782,1476.74,781.66,1475.16,783,1474Z" transform="translate(-0.92 -0.87)"/><path class="cls-155" d="M797.8,1580.95q.06-50.47.13-100.93c1.67,1.44,1,3.4,1,5.15q.05,45.36,0,90.73C799,1577.61,799.67,1579.6,797.8,1580.95Z" transform="translate(-0.92 -0.87)"/><path class="cls-141" d="M768.65,1534.35v34.44C764.74,1566,764.36,1542.39,768.65,1534.35Z" transform="translate(-0.92 -0.87)"/><path class="cls-176" d="M809.89,1519.82l-2,5c-1.65.23-1.41-1-1.41-1.92q-.05-15.46,0-30.92c0-1,0-2.08,1.48-2l1.75,3.08c1.66,4.45.59,9.06.65,13.58S811.18,1515.48,809.89,1519.82Z" transform="translate(-0.92 -0.87)"/><path class="cls-188" d="M773,1497c-3.25-7.45-1.28-15.31-1.72-23-.1-1.82,1.3-2.05,2.74-2,1,7.83.24,15.7.44,23.55C774.48,1496.49,774.06,1497.1,773,1497Z" transform="translate(-0.92 -0.87)"/><path class="cls-189" d="M806.64,1559.38c2.1,1.29,3,2.57,3,4.35,0,4.67,0,9.33,0,14,0,1-.06,2.09-1.38,2.25s-1.62-.84-1.63-1.91C806.63,1572,806.64,1565.91,806.64,1559.38Z" transform="translate(-0.92 -0.87)"/><path class="cls-190" d="M773,1574c1.62-.43,1.21-1.78,1.21-2.85q0-21.63,0-43.26c0-1,.48-2.43-1.19-2.83.29-.85.49-2.42,1.65-.85.58.78.33,2.23.33,3.37,0,14.38,0,28.75-.06,43.13C774.93,1571.89,776.45,1574.61,773,1574Z" transform="translate(-0.92 -0.87)"/><path class="cls-191" d="M768.71,1489c-4.2-5.27-2.71-10-2.79-14.43a1.46,1.46,0,0,1,1.67-1.43c1.14.06,1.11,1,1.11,1.8C768.72,1479.19,768.71,1483.41,768.71,1489Z" transform="translate(-0.92 -0.87)"/><path class="cls-192" d="M808,1490c-1.45.14-1.3,1.28-1.3,2.22q0,15.16,0,30.33c0,.93-.17,2.07,1.23,2.3-1.83,2.58-2,1.05-2-.81q0-12.49,0-25a87.39,87.39,0,0,1,.08-9C806.27,1487.78,807.28,1488.8,808,1490Z" transform="translate(-0.92 -0.87)"/><path class="cls-193" d="M812.44,1566.11c4.06,3.66,2.56,7.64,2.65,11.27a1.38,1.38,0,0,1-1.7,1.36c-1.14-.18-.93-1.19-.94-2C812.42,1573.46,812.44,1570.16,812.44,1566.11Z" transform="translate(-0.92 -0.87)"/><path class="cls-190" d="M773,1497c1.4-.22,1.23-1.36,1.23-2.28,0-7.58-.13-15.16-.21-22.74,2.08,3.87.7,8,.94,12.05s.11,8.22,0,12.34C774.93,1498,774.64,1499.9,773,1497Z" transform="translate(-0.92 -0.87)"/><path class="cls-149" d="M809.89,1519.82l-.14-26.76a2.61,2.61,0,0,1,1.23,2.53q0,11.92,0,23.84c0,.13-.11.37-.2.38A4.9,4.9,0,0,1,809.89,1519.82Z" transform="translate(-0.92 -0.87)"/><path class="cls-194" d="M812.33,1501.38c2,3.67,1.87,6.61,0,10.67Z" transform="translate(-0.92 -0.87)"/><path class="cls-195" d="M763.26,1480.34c-2.31-1.88-3.6-2.78-2.79-4.5.18-.39,1.43-.76,1.68-.54C763.49,1476.46,762.34,1478.05,763.26,1480.34Z" transform="translate(-0.92 -0.87)"/><path class="cls-196" d="M762.91,1550v8.72C760.94,1555.29,761.53,1552.66,762.91,1550Z" transform="translate(-0.92 -0.87)"/><path class="cls-27" d="M242.27,1371.51c-.47-16-.42-32,0-48.07.95.72.75,1.76.75,2.73q0,21.3,0,42.61C243,1369.74,243.22,1370.79,242.27,1371.51Z" transform="translate(-0.92 -0.87)"/><path class="cls-27" d="M242.26,1013.52c-.45-16-.4-32.07,0-48.1a2.49,2.49,0,0,1,.77,2.23q0,21.82,0,43.63A2.46,2.46,0,0,1,242.26,1013.52Z" transform="translate(-0.92 -0.87)"/><path class="cls-27" d="M784,1475c1.64,1.68.94,3.79.94,5.7q.06,48.64,0,97.28c-1.47-1.32-1-3.09-1-4.69Q784,1524.18,784,1475Z" transform="translate(-0.92 -0.87)"/></g></g></svg>