<svg xmlns="http://www.w3.org/2000/svg" viewBox="0 0 1080.19 1920.19"> <defs> <style> .cls-1{fill:#393c3f;}.cls-2{fill:#91979f;}.cls-3{fill:#91969e;}.cls-4{fill:#90969e;}.cls-5{fill:#8f959d;}.cls-6{fill:#8d939a;}.cls-7{fill:#8e949c;}.cls-8{fill:#3a3d40;} </style> </defs> <title>Asset 2</title> <g id="Layer_2" data-name="Layer 2"> <g id="Layer_1-2" data-name="Layer 1"> <path class="cls-1" d="M1,961Q1,483.25.91,5.5C.91,1.75,1.75.91,5.5.91q535.5.15,1071,0c3.75,0,4.59.84,4.59,4.59q-.15,955.5,0,1911c0,3.75-.84,4.6-4.59,4.59q-535.5-.15-1071,0c-3.75,0-4.59-.84-4.59-4.59Q1.06,1438.75,1,961Z" transform="translate(-0.91 -0.91)"/> <path class="cls-2" d="M533.93,1032.05c-8.3-.57-15.82-2.71-19.88-10.91-.92-1.85-2.76-4.69.31-6,2.54-1.07,5.14-.89,6.58,2.93,3,7.93,17,10.44,23,4.47a8.2,8.2,0,0,0-1.22-12.58c-2.91-2-6.28-3-9.63-4-4.63-1.4-9.23-2.91-13.1-5.95-5.77-4.52-7.38-12.33-3.51-18.29,4.51-6.94,11.54-8.67,19.21-8.15,7.83.54,14.16,3.8,17.11,11.6.65,1.72,2.6,4.46-.67,5.42-2.5.73-5.21,1.19-6.43-3.07-2.27-7.94-15.32-10.56-21.2-4.65-3.63,3.64-3.2,9,1,12.15,2.86,2.13,6.26,3,9.6,4.07,4.14,1.26,8.26,2.56,11.92,5,5.21,3.48,7.56,8.34,6.81,14.52-.71,5.87-4.31,9.53-9.65,11.68A25.7,25.7,0,0,1,533.93,1032.05Z" transform="translate(-0.91 -0.91)"/> <path class="cls-2" d="M297.39,906.72c0-8,.1-16,0-24-.06-3.39,1.09-4.8,4.62-4.67,6,.22,12-.14,18,.12,13,.58,20.41,9.36,18.23,21.35-1.43,7.88-7.24,12.71-16.4,13.32a112,112,0,0,1-12.48.09c-3.2-.15-4.5.89-4.34,4.23.22,4.82,0,9.66.07,14.49.06,2.56-.93,3.56-3.49,3.57s-4.28-.55-4.11-3.54c0-.33,0-.67,0-1Q297.39,918.71,297.39,906.72Z" transform="translate(-0.91 -0.91)"/> <path class="cls-2" d="M693,896.57c2-1.19,3.13-1.9,4.29-2.49,8.86-4.52,18.67-1.07,22.25,8.17a31.62,31.62,0,0,1,.07,23.41c-3.87,10-14.17,13.32-23.4,7.88-1.51-.89-2.73-2.77-3.93.47-.72,1.94-2.89,1.14-4.46,1-2.14-.15-2-1.93-2-3.38,0-17.62,0-35.25-.05-52.87,0-2.84,1.21-3.71,3.93-3.7s3.36,1.34,3.32,3.71C692.94,884.45,693,890.09,693,896.57Z" transform="translate(-0.91 -0.91)"/> <path class="cls-2" d="M658,1028.23c0,5.84-.09,10.82,0,15.79.06,2.57-1,3.6-3.49,3.58-2.35,0-3.77-.65-3.76-3.37.05-17.29,0-34.58,0-51.87,0-1.26-.23-3,1.59-3.16s4.07-1.15,4.9,1c1.1,2.86,2.22,1.34,3.63.57,10.76-5.92,21.41-1.49,24.52,10.33a34.17,34.17,0,0,1,0,17.76c-3.21,11.91-13.42,16.41-24.46,10.86Z" transform="translate(-0.91 -0.91)"/> <path class="cls-2" d="M504.1,1013.94c0,4.32,0,8.64,0,13,0,1.34,1.72,3.15-.35,3.92s-5,1.31-6.07-.5c-1.92-3.28-3.36-1.32-5.12-.38a16.63,16.63,0,0,1-13.51,1.2c-5.2-1.7-8.62-5.83-8.83-10.92a12.2,12.2,0,0,1,7.15-12.13c4.62-2.36,9.63-2.51,14.63-2.29,4.18.18,4.79-2,4.06-5.32a6.54,6.54,0,0,0-5.23-5.41c-4-.85-8-.71-11.09,2.62-.55.6-.79,1.49-1.35,2.08a5,5,0,0,1-6,.7c-2.35-1.19-.47-3.26.31-4.69,3.3-5.94,12.28-9,20.32-7,7,1.72,10.49,6.15,10.84,14.17.16,3.65,0,7.32,0,11Z" transform="translate(-0.91 -0.91)"/> <path class="cls-2" d="M422.94,1015.52c0,3.82.06,7.64,0,11.46,0,1.32,1.53,3.22-.59,3.89s-4.76,1.29-6-.66c-1.75-2.73-3-1.46-4.76-.42a16.28,16.28,0,0,1-13.47,1.46c-5.3-1.62-8.68-5.68-9-10.72-.4-5.61,2.13-10,7.27-12.52,4.48-2.22,9.31-2.2,14.15-2.26,4.55-.05,5.79-2,4.11-6.29-2.22-5.58-11.83-6.63-16.12-1.72-.65.74-.92,2-1.69,2.43-1.95,1.18-4.42,1.35-6.08,0-1.5-1.21,0-3.11.77-4.49,3.3-5.74,12.07-8.78,19.9-7,7.11,1.63,10.51,5.51,11.08,13.36.33,4.46.06,9,.06,13.46Z" transform="translate(-0.91 -0.91)"/> <path class="cls-2" d="M657.65,892.15c10.64-.13,16.21,4.83,16.86,14.54.59,8.79-.53,17.63.74,26.4.13.9,0,1.79-1,1.88-2.08.18-4.68,1.22-6-.86-1.54-2.39-2.64-1.57-4.35-.51a16.08,16.08,0,0,1-13.91,1.6c-5-1.62-8.26-4.91-8.88-10.31a12.15,12.15,0,0,1,6.9-12.73c4.6-2.38,9.61-2.36,14.61-2.42,4.4,0,5.53-1.77,4.1-5.95-1.93-5.65-11.56-7.07-16-2.33-.56.6-.87,1.42-1.39,2.06-1.83,2.23-4.51,1.87-6.31.82-2.11-1.23-.32-3.36.56-4.74C647,894.17,652.5,892.57,657.65,892.15Z" transform="translate(-0.91 -0.91)"/> <path class="cls-2" d="M748.13,914.39c.17-8,2.39-15.13,9.67-19.62,6.16-3.8,14-3.54,19.26.68,6.09,4.86,7.23,11.67,6.83,18.91-.15,2.8-2.55,2.18-4.22,2.21-6.49.11-13,0-19.48.1-4.49.07-5.23,1.34-3.53,5.54,2.73,6.75,10.73,9.49,17.62,6a9.23,9.23,0,0,0,2.49-1.63c1.76-1.8,3.38-1.81,5.1,0,2.33,2.44-.2,3.61-1.44,4.8-9.76,9.37-27.42,4.5-31.24-8.59A22.15,22.15,0,0,1,748.13,914.39Z" transform="translate(-0.91 -0.91)"/> <path class="cls-2" d="M554.11,914.34c-.09-11.59,5.54-19.71,15-21.81,12.28-2.72,24,9.67,20.68,21.83-.7,2.59-2.62,2.2-4.34,2.22-6.65.08-13.31.19-20,0-4-.11-4.45,1.71-3.4,4.93,2.41,7.35,11.4,10.48,18.56,6.37a18.76,18.76,0,0,0,2.82-2c1.85-1.58,3-.14,4.29.89,1.84,1.52.39,2.66-.6,3.69-5.74,5.92-12.78,6.83-20.24,4.59-7.87-2.36-11.72-8.3-12.8-16.19A33.29,33.29,0,0,1,554.11,914.34Z" transform="translate(-0.91 -0.91)"/> <path class="cls-2" d="M513.12,916.65c-3.49,0-7,.08-10.48,0s-3.83,1.39-2.93,4.33c2.58,8.39,12.19,11.52,19.86,6.08,2.37-1.68,4.41-2.79,6.2,0,1.7,2.67-1.19,3.83-2.63,5-8.58,7.17-23.55,4.61-28.62-5.31-4.52-8.85-4.25-18.12,1.15-26.65a17.48,17.48,0,0,1,21.54-6.68c6.87,2.81,11.79,12.68,10.38,20.46-.4,2.19-1.65,2.65-3.48,2.65h-11Z" transform="translate(-0.91 -0.91)"/> <path class="cls-2" d="M364.69,914.68c-.11-6.4,1.36-12.23,5.94-17a17.58,17.58,0,0,1,21.07-3.51c5.87,3.18,10.24,13.23,8.87,19.89-.53,2.59-2.3,2.49-4.12,2.5-6.82,0-13.65.13-20.47,0-3.52-.06-4.31,1.2-3.23,4.51,2.48,7.57,11,10.9,18.32,7a9.79,9.79,0,0,0,2.45-1.7c1.92-2,3.51-1.22,5.07.41,1.84,1.93,0,3-1.1,4.08-5.76,5.55-12.68,6.31-20,4.1s-11.13-7.55-12.43-14.84A52.2,52.2,0,0,1,364.69,914.68Z" transform="translate(-0.91 -0.91)"/> <path class="cls-2" d="M441.39,917.06c0,4.66,0,9.31,0,14,0,1.35,1.44,3.22-.69,3.84s-4.91,1.37-6-.76c-1.62-3.25-2.86-1.36-4.46-.43a16.51,16.51,0,0,1-14,1.5c-5.26-1.71-8.63-5.79-8.83-10.93a12.15,12.15,0,0,1,7.14-12.15c4.64-2.34,9.65-2.49,14.66-2.27,4.6.2,5-2.14,3.94-5.67a6.73,6.73,0,0,0-5.51-5.16c-3.91-.71-7.68-.48-10.68,2.6-.56.58-.79,1.48-1.33,2.1-1.72,2-4.26,1.64-6,.81-2.31-1.12-.65-3.23.18-4.71,3.35-6,12.3-9,20.37-7,7.06,1.74,10.5,6.28,10.69,14.26.08,3.33,0,6.66,0,10Z" transform="translate(-0.91 -0.91)"/> <path class="cls-2" d="M605.87,897.37a18.34,18.34,0,0,1,9.68-5c8.4-1.35,14.61,2.92,15.61,11.33,1.12,9.43.3,18.93.41,28.4,0,2.78-1.68,3.14-3.94,3.17-2.57,0-3.53-1.08-3.51-3.6.06-7.82,0-15.63,0-23.45,0-6.77-2.33-9.43-8.06-9.5-6-.08-10.3,3.77-10.38,9.61-.11,7,.05,14-.08,21,0,2.54,1.18,5.93-3.62,6s-3.8-3.13-3.82-5.79c-.05-10.31-.1-20.62,0-30.93,0-2-1.39-4.85,2.36-5.54C603.76,892.42,605.46,893.72,605.87,897.37Z" transform="translate(-0.91 -0.91)"/> <path class="cls-2" d="M465.75,936c-4.68-.15-10.54-2-13.91-8.33-.86-1.62-2.42-4.1.05-5.14,1.93-.82,4.62-1.41,6.37,1.77,2.83,5.14,9.34,6.87,14.69,4.46,2.09-.94,3.66-2.39,3.7-4.87a5,5,0,0,0-3.35-5.07,74,74,0,0,0-7.12-2.21c-3.38-.91-6.79-1.74-9.74-3.73-4.4-3-5.9-8.07-3.51-12.74,2.89-5.65,8.05-7.83,14-7.92,6.26-.1,12,1.55,15.27,7.54.89,1.61,2.5,4.11.29,5.28s-4.9,1.52-6.78-1.74c-2.6-4.5-8.45-5.91-13.06-3.74-2,.92-3.26,2.33-3.33,4.57a4.33,4.33,0,0,0,3.28,4.48c2.84.93,5.74,1.69,8.62,2.49,9.67,2.68,13.51,6.9,12.68,14C483.17,931.62,476.67,936,465.75,936Z" transform="translate(-0.91 -0.91)"/> <path class="cls-3" d="M378.83,996.74c0,6.33.26,12.67-.06,19-.48,9.28-6.36,15.29-15.26,16.19-10.22,1-17.88-3.16-20.06-11-1.25-4.46.14-6.12,4.37-5.55,1.86.25,2.38,1.33,2.93,2.85,2.15,6,6,8.28,11.78,7.26,5.42-1,8.42-4.44,8.51-10.62.16-12,.06-24,.09-36,0-2.31-.39-4.76,3.28-4.84,3.09-.06,4.61.75,4.51,4.17-.19,6.15-.05,12.32-.05,18.48Z" transform="translate(-0.91 -0.91)"/> <path class="cls-2" d="M560.78,1011.72c0-14.36,5.71-22.08,16.33-23.46,8.22-1.06,16.11,3.49,18.33,10.65.46,1.49,1.56,3.54-.63,4.3-1.9.66-4.13,1.08-5.69-1.41-4.18-6.68-7.54-8.3-13.14-6.72-4.72,1.32-7.69,6-7.93,12.61-.12,3.49-.25,7,1,10.38,1.53,4.32,4.42,7.05,9,7.52s8.46-.9,10.51-5.11c1.68-3.44,4.56-3.14,6.61-1.93s.17,3.62-.73,5.23c-3.39,6-11,9.26-18.54,8s-13.27-7.07-14.68-15.07A39.48,39.48,0,0,1,560.78,1011.72Z" transform="translate(-0.91 -0.91)"/> <path class="cls-4" d="M708.73,1032c-6.47,0-9.91-3-10.36-9.88-.47-7.29-.29-14.63-.22-21.94,0-3.33-.14-6.06-4.61-5.65-1.77.16-2.69-.87-2.7-2.76s.75-3,2.63-2.71c4.46.63,4.84-2,4.68-5.39-.1-2.24-.57-4.76,3.16-4.91,3.34-.14,4.57,1.23,4.3,4.37-.33,3.79.28,6.67,5.2,5.93,1.87-.28,2.7.81,2.71,2.66s-.84,3-2.66,2.82c-5.39-.61-5.35,2.8-5.27,6.58.13,6.32,0,12.64.07,19,0,2.69.62,5.14,3.79,5.52,2.28.28,4.92-.39,4.37,3.44C713.34,1032.5,710.6,1031.65,708.73,1032Z" transform="translate(-0.91 -0.91)"/> <path class="cls-2" d="M447.79,1019.1l8.15-25c.36-1.11.64-2.25,1.11-3.31,1.32-3,4.1-2,6.08-1.59,2.72.6.81,2.74.38,4-4,11.44-8.18,22.83-12.24,34.25-.77,2.17-1.53,3.87-4.39,3.78-2.66-.08-3.23-1.8-3.93-3.72-4.06-11.25-8.19-22.47-12.17-33.75-.51-1.43-2.45-3.71.1-4.5s5.5-1.2,6.7,2.86c2.31,7.8,5,15.47,7.62,23.19.41,1.23,1,2.42,1.46,3.62Z" transform="translate(-0.91 -0.91)"/> <path class="cls-5" d="M731.12,905.51c0-8.65,0-17.29,0-25.94,0-2.59.22-4.5,3.65-4.51,3.26,0,3.9,1.59,3.89,4.33q-.06,25.69,0,51.38c0,2.57-.29,4.46-3.7,4.5-3.75,0-3.86-2.1-3.84-4.83C731.15,922.14,731.12,913.82,731.12,905.51Z" transform="translate(-0.91 -0.91)"/> <path class="cls-5" d="M354.88,905.57c0,8.48-.07,17,0,25.44,0,2.83-.72,4.3-3.91,4.26-3,0-3.64-1.52-3.63-4.05q0-25.94,0-51.88c0-2.79.75-4.28,4-4.27,3.47,0,3.6,2,3.59,4.56C354.86,888.27,354.88,896.92,354.88,905.57Z" transform="translate(-0.91 -0.91)"/> <path class="cls-4" d="M604.13,1010.11c0-5.81,0-11.62,0-17.43,0-1.4-.4-3.33,1.76-3.51,1.7-.14,4.14-1.15,5,.83,1.23,2.94,2.29,1.26,3.58.4a12.62,12.62,0,0,1,6.51-2.23c2.15-.11,3.54.66,3.59,3.05,0,2.12,0,3.68-2.94,4.09-8.95,1.27-10,2.63-10,11.47,0,6.81,0,13.61,0,20.42,0,2.5-.59,4-3.61,4.07s-4-1.37-3.93-4.23C604.21,1021.4,604.13,1015.75,604.13,1010.11Z" transform="translate(-0.91 -0.91)"/> <path class="cls-2" d="M639,1010c0,5.8-.08,11.61,0,17.41.06,2.71-.83,3.9-3.7,3.85-2.68,0-3.37-1.26-3.35-3.68.06-11.61.08-23.21,0-34.82,0-2.74.84-3.83,3.7-3.79,2.7,0,3.4,1.18,3.36,3.62C638.93,998.37,639,1004.17,639,1010Z" transform="translate(-0.91 -0.91)"/> <path class="cls-6" d="M730.84,1027.92c-.37,2.73-2.12,4-4.76,3.84-2.4-.14-4.06-1.38-4.06-4,0-2.92,1.77-4.22,4.42-4.19S730.71,1025,730.84,1027.92Z" transform="translate(-0.91 -0.91)"/> <path class="cls-7" d="M635.6,973.85c2.55.1,4.13,1.4,4.14,4,0,2.82-1.71,4.22-4.48,4.11a3.72,3.72,0,0,1-3.91-4.19C631.46,975.31,633,973.83,635.6,973.85Z" transform="translate(-0.91 -0.91)"/> <path class="cls-8" d="M305,895.87c0-11.33,0-11.33,11.28-11.25,3,0,6-.09,8.78,1.32,4.59,2.33,6.24,6.32,5.81,11.16s-3.07,8-7.89,9c-5.09,1.15-10.25.53-15.39.56-1.9,0-2.62-1.06-2.6-2.86C305.06,901.18,305,898.52,305,895.87Z" transform="translate(-0.91 -0.91)"/> <path class="cls-8" d="M693,914.29c0-1.82,0-3.65,0-5.47.06-5.52,2.77-9,7.71-9.92,5.68-1,10.19,1.1,12.07,6.28a25.54,25.54,0,0,1-.1,18c-1.92,5.11-6.41,7.33-11.58,6.25-5.37-1.12-8-4.49-8.1-10.18C693,917.6,693,915.94,693,914.29Z" transform="translate(-0.91 -0.91)"/> <path class="cls-8" d="M679.11,1010.13a19.37,19.37,0,0,1-2.12,10.12,10.13,10.13,0,0,1-11.85,5.06c-5.17-1.28-7.11-3.91-7.14-9.7,0-3.66.22-7.33-.06-11-.4-5.17,1.94-8.25,6.7-9.6,5-1.43,9.55.33,12.12,4.54A18.07,18.07,0,0,1,679.11,1010.13Z" transform="translate(-0.91 -0.91)"/> <path class="cls-8" d="M496.27,1015.9c.47,4.78-2,7-5.41,8.55-3.65,1.65-7.41,2-10.81-.58a6.75,6.75,0,0,1,.38-10.71c4.27-2.89,9.19-2.65,13.94-2C497.45,1011.54,495.9,1014.6,496.27,1015.9Z" transform="translate(-0.91 -0.91)"/> <path class="cls-8" d="M408.88,1010.87c6.34-.06,6.74.43,6.25,6.76-.34,4.46-3.53,6.16-7.06,7.39s-7.31,1.1-10.12-2-2-8,1.78-10.28C401.77,1011.51,404.64,1010.92,408.88,1010.87Z" transform="translate(-0.91 -0.91)"/> <path class="cls-8" d="M660.84,914.88c6.38-.07,6.75.39,6.28,6.72-.33,4.47-3.5,6.18-7,7.41s-7.31,1.12-10.13-1.94a6.64,6.64,0,0,1,1.73-10.28C654.51,915.1,657.65,914.82,660.84,914.88Z" transform="translate(-0.91 -0.91)"/> <path class="cls-8" d="M766.18,910.12c-1.66,0-3.33.08-5,0s-3.78.71-4.67-.78c-1.13-1.87.31-3.85,1.31-5.54,2.49-4.22,6.31-5.73,11.06-4.92,4.12.7,6.19,3.49,7.29,7.3.81,2.78,0,4.12-3,4C770.84,910,768.51,910.12,766.18,910.12Z" transform="translate(-0.91 -0.91)"/> <path class="cls-8" d="M571.76,910.12a36,36,0,0,1-4,0c-1.88-.2-4.47,1-5.45-1.1-1.07-2.29.66-4.48,2-6.35,2.53-3.45,6.09-4.42,10.19-3.79,3.71.57,5.88,3,7.1,6.29,1.12,3.07.73,5.27-3.37,5C576.1,910,573.93,910.12,571.76,910.12Z" transform="translate(-0.91 -0.91)"/> <path class="cls-8" d="M509.78,910.12c-1.83,0-3.65,0-5.48,0-5-.06-5.72-1.34-3.28-5.87a10,10,0,0,1,10.27-5.54c4.35.33,6.86,2.94,8.24,6.87,1.09,3.1.34,4.79-3.29,4.56C514.1,910,511.94,910.12,509.78,910.12Z" transform="translate(-0.91 -0.91)"/> <path class="cls-8" d="M382.52,910.13c-1.49,0-3,.11-4.48,0-1.73-.17-4.11.92-5-1-1-2.06.49-4.15,1.67-6,2.46-3.75,6.06-5,10.36-4.37,4.13.57,6.33,3.3,7.56,7,.95,2.86.23,4.48-3.13,4.3-2.32-.12-4.64,0-7,0Z" transform="translate(-0.91 -0.91)"/> <path class="cls-8" d="M433.7,919.63c.45,4.67-1.94,7-5.3,8.68-3.64,1.78-7.41,2.21-10.89-.26-3.92-2.78-3.46-8.84.78-11.3s8.69-2.08,13.16-1.72C434.84,915.3,433.33,918.28,433.7,919.63Z" transform="translate(-0.91 -0.91)"/> </g> </g></svg>