<svg xmlns="http://www.w3.org/2000/svg" viewBox="0 0 176.25 176.26"><defs><style>.cls-1{fill:#222;}.cls-2{fill:#282828;}.cls-3{fill:#3ccb3e;}.cls-4{font-size:4.84px;font-family:SourceCodePro-Semibold, Source Code Pro;font-weight:700;}.cls-4,.cls-6{fill:#bbb;}.cls-5{letter-spacing:0.08em;}</style></defs><g id="Layer_1-2" data-name="Layer 1"><path class="cls-1" d="M88.12,176.23H.39c-.32,0-.39-.18-.39-1Q0,88.12,0,1C0,.18.07,0,.39,0H175.86c.32,0,.39.18.39,1V175.26c0,.81-.07,1-.39,1Q132,176.22,88.12,176.23Z"/><path class="cls-2" d="M88.12,111.22H.39c-.32,0-.39-.11-.39-.61Q0,57.33,0,4.05c0-.5.07-.61.39-.61H175.86c.32,0,.39.11.39.61V110.62c0,.5-.07.61-.39.61Q132,111.21,88.12,111.22Z"/><path class="cls-3" d="M150.25,14a2.36,2.36,0,0,1,.12-.8,1.77,1.77,0,0,1,.35-.59,1.45,1.45,0,0,1,.52-.37,1.68,1.68,0,0,1,.66-.13,1.24,1.24,0,0,1,.61.14,1.68,1.68,0,0,1,.41.31l-.36.4a1.19,1.19,0,0,0-.28-.21.81.81,0,0,0-.39-.08.87.87,0,0,0-.4.09.91.91,0,0,0-.31.26,1.27,1.27,0,0,0-.2.41,2,2,0,0,0-.07.55,1.65,1.65,0,0,0,.25,1,.86.86,0,0,0,.74.35.94.94,0,0,0,.28,0,.52.52,0,0,0,.21-.12v-.78h-.63v-.53H153v1.6a1.54,1.54,0,0,1-.47.31,1.6,1.6,0,0,1-.64.13,1.69,1.69,0,0,1-.64-.12,1.42,1.42,0,0,1-.51-.36,1.75,1.75,0,0,1-.34-.59A2.36,2.36,0,0,1,150.25,14Z"/><path class="cls-3" d="M153.78,13.1h1.82v2.73H155V13.61h-1.18Zm1.45-.48a.46.46,0,0,1-.32-.12.4.4,0,0,1-.13-.31.41.41,0,0,1,.13-.31.51.51,0,0,1,.65,0,.41.41,0,0,1,.13.31.4.4,0,0,1-.13.31A.47.47,0,0,1,155.23,12.63Z"/><path class="cls-3" d="M157.7,13.61H157v-.48l.76,0,.08-.74h.53v.74h1.24v.51h-1.24v1.12a.75.75,0,0,0,.14.5.63.63,0,0,0,.49.16,1.52,1.52,0,0,0,.32,0l.28-.08.12.47-.41.11a2.21,2.21,0,0,1-.47,0,1.42,1.42,0,0,1-.52-.08.85.85,0,0,1-.34-.24.91.91,0,0,1-.19-.37,1.79,1.79,0,0,1-.06-.48Z"/><path class="cls-3" d="M160.37,12.2H161v1.46h1.24V12.2h.64v3.63h-.64V14.22H161v1.61h-.64Z"/><path class="cls-3" d="M166.17,15.83h-.52l0-.43h0a1.66,1.66,0,0,1-.43.36,1.05,1.05,0,0,1-.54.14.82.82,0,0,1-.7-.29,1.34,1.34,0,0,1-.22-.82V13.1h.64v1.6a.82.82,0,0,0,.11.49.47.47,0,0,0,.4.15.68.68,0,0,0,.35-.09,1.3,1.3,0,0,0,.34-.32V13.1h.64Z"/><path class="cls-3" d="M167.09,11.91h.64v1l0,.48a1.41,1.41,0,0,1,.4-.26,1.11,1.11,0,0,1,.44-.1,1.09,1.09,0,0,1,.47.1,1,1,0,0,1,.35.28,1.27,1.27,0,0,1,.22.44,2,2,0,0,1,.07.57,1.82,1.82,0,0,1-.1.62,1.45,1.45,0,0,1-.27.46,1.19,1.19,0,0,1-.39.29,1.08,1.08,0,0,1-.45.1,1,1,0,0,1-.4-.09,1.26,1.26,0,0,1-.39-.27h0l-.06.3h-.51Zm.64,3.21a.91.91,0,0,0,.6.25.6.6,0,0,0,.48-.24,1.09,1.09,0,0,0,.19-.7,1.15,1.15,0,0,0-.15-.64.53.53,0,0,0-.48-.23.73.73,0,0,0-.32.08,1.17,1.17,0,0,0-.33.25Z"/><rect class="cls-3" x="6.58" y="10.61" width="23.22" height="6.26"/><path class="cls-2" d="M9.62,12.34h.58l.87,1.82.3.69h0q0-.25,0-.54a5.39,5.39,0,0,1,0-.56V12.34h.55v3.24h-.58l-.87-1.83-.3-.68h0q0,.26,0,.54a5.18,5.18,0,0,1,0,.56v1.42H9.62Z"/><path class="cls-2" d="M12.64,13.15h1.62v2.43H13.7v-2H12.64Zm1.3-.43a.42.42,0,0,1-.29-.1.35.35,0,0,1-.12-.28.36.36,0,0,1,.12-.28.45.45,0,0,1,.58,0,.37.37,0,0,1,.11.28.36.36,0,0,1-.11.28A.42.42,0,0,1,13.94,12.73Z"/><path class="cls-2" d="M16.33,14.32l-.82-1.17h.62l.32.46.13.21.14.21h0l.12-.21.12-.21.29-.46h.6L17,14.38l.89,1.2H17.3l-.35-.48-.15-.21-.15-.22h0l-.13.22-.13.22-.32.48h-.6Z"/><path class="cls-2" d="M19.17,15.14a.49.49,0,0,1,.14-.36.51.51,0,0,1,.7,0,.54.54,0,0,1,0,.72.51.51,0,0,1-.7,0A.49.49,0,0,1,19.17,15.14Z"/><path class="cls-2" d="M21.56,13.15h1.62v2.39a1.59,1.59,0,0,1-.05.42.89.89,0,0,1-.17.34.79.79,0,0,1-.33.23,1.42,1.42,0,0,1-.52.08,1.59,1.59,0,0,1-.39,0,1.87,1.87,0,0,1-.33-.12l.17-.41a1.36,1.36,0,0,0,.27.09l.25,0A.5.5,0,0,0,22.5,16a.72.72,0,0,0,.11-.44v-2H21.56Zm1.3-.43a.42.42,0,0,1-.29-.1.35.35,0,0,1-.12-.28.36.36,0,0,1,.12-.28.45.45,0,0,1,.58,0,.37.37,0,0,1,.11.28.36.36,0,0,1-.11.28A.42.42,0,0,1,22.86,12.73Z"/><path class="cls-2" d="M24.69,14.91a1.93,1.93,0,0,0,.43.23,1.49,1.49,0,0,0,.51.08.84.84,0,0,0,.42-.08.24.24,0,0,0,.13-.21c0-.09-.06-.16-.17-.22a3.23,3.23,0,0,0-.54-.19l-.34-.11a1.48,1.48,0,0,1-.29-.15.73.73,0,0,1-.2-.19.43.43,0,0,1-.07-.25.62.62,0,0,1,.28-.52,1.33,1.33,0,0,1,.8-.2,1.58,1.58,0,0,1,.56.1,2.3,2.3,0,0,1,.45.22l-.26.35a1.6,1.6,0,0,0-.35-.18,1.15,1.15,0,0,0-.39-.07.75.75,0,0,0-.4.08.23.23,0,0,0-.11.19.16.16,0,0,0,.05.12.48.48,0,0,0,.14.09l.22.08.27.07.38.12a1.4,1.4,0,0,1,.29.15.62.62,0,0,1,.19.2.51.51,0,0,1,.07.26.61.61,0,0,1-.07.3.7.7,0,0,1-.22.24,1.15,1.15,0,0,1-.36.16,1.83,1.83,0,0,1-.49.06,2,2,0,0,1-.65-.11,2.19,2.19,0,0,1-.54-.27Z"/><text class="cls-4" transform="translate(6.58 26.22)">Nix.js is an OS for your browser, similar to UNIX and wr<tspan x="0" y="6.33">itten entirely in JavaScript. It has a virtual file syst</tspan><tspan x="0" y="12.65">em, a package manager for installing additional function</tspan><tspan x="0" y="18.98">s, and a command line interface.</tspan><tspan x="0" y="31.63">To get started, type </tspan><tspan class="cls-5" x="61.02" y="31.63">&apos;</tspan><tspan x="64.31" y="31.63">setUser&apos; to change your username o</tspan><tspan x="0" y="37.95">r type &apos;pkg available&apos; for a list of commands available </tspan><tspan x="0" y="44.28">to install. More packages can be added dynamically with </tspan><tspan x="0" y="50.6">the ‘pkg install’ command.</tspan><tspan class="cls-3"><tspan x="0" y="63.25">/ scott$</tspan><tspan class="cls-6" x="23.24" y="63.25" xml:space="preserve"> ls</tspan></tspan><tspan x="0" y="69.58">bin/ dev/ etc/ home/ root/ sbin/ tmp/ usr/ var/</tspan><tspan class="cls-3"><tspan x="0" y="75.9">/ scott$</tspan></tspan></text></g></svg>