<svg xmlns="http://www.w3.org/2000/svg" viewBox="0 0 1080.19 1920.21">
    <defs>
        <style>
            .cls-1{fill:#3f50b3;}.cls-2{fill:#eaedef;}.cls-3{fill:#e3e6e8;}.cls-4{fill:#303f9e;}.cls-5{fill:#3c4dac;}.cls-6{fill:#f5f6f7;}.cls-7{fill:#edeff1;}.cls-8{fill:#fefefe;}.cls-9{fill:#fbdb2b;}.cls-10{fill:#feb900;}.cls-11{fill:#3b4ba8;}.cls-12{fill:#3c4dab;}.cls-13{fill:#394aa4;}.cls-14{fill:#3d4daa;}.cls-15{fill:#d0d5d8;}.cls-16{fill:#4db5ab;}.cls-17{fill:#7f8b8f;}.cls-18{fill:#38484f;}.cls-19{fill:#384850;}.cls-20{fill:#38474f;}.cls-21{fill:#37474f;}.cls-22{fill:#5d6b71;}.cls-23{fill:#808b91;}.cls-24{fill:#5c6a70;}.cls-25{fill:#6e7a80;}.cls-26{fill:#394850;}.cls-27{fill:#6f7a80;}.cls-28{fill:#6f7b81;}.cls-29{fill:#6f7b80;}.cls-30{fill:#707c82;}.cls-31{fill:#5e6b71;}.cls-32{fill:#5f6c72;}.cls-33{fill:#3b4b53;}.cls-34{fill:#3c4b53;}.cls-35{fill:#3e4d55;}.cls-36{fill:#3c4c54;}.cls-37{fill:#657278;}.cls-38{fill:#e4e4e4;}.cls-39{fill:#e3e3e3;}.cls-40{fill:#f0f0f0;}.cls-41{fill:#efefef;}.cls-42{fill:#eee;}.cls-43{fill:#ececec;}.cls-44{fill:#5b686e;}.cls-45{fill:#5d6a71;}.cls-46{fill:#c9cfd1;}.cls-47{fill:#6d77bb;}.cls-48{fill:#fcfcfd;}.cls-49{fill:#fafbfc;}.cls-50{fill:#6e78bb;}.cls-51{fill:#fafafc;}.cls-52{fill:#fbfbfd;}.cls-53{fill:#f5f6fa;}.cls-54{fill:#f4f5f9;}.cls-55{fill:#e0e2f0;}.cls-56{fill:#d9dbed;}.cls-57{fill:#334191;}.cls-58{fill:#36459b;}.cls-59{fill:#252525;}.cls-60{fill:#272727;}.cls-61{fill:#242424;}.cls-62{fill:#2b2b2b;}.cls-63{fill:#37479e;}.cls-64{fill:#313131;}.cls-65{fill:#3f3f3f;}.cls-66{fill:#363636;}.cls-67{fill:#edcd1d;}.cls-68{fill:#3949a3;}.cls-69{fill:#4052b5;}.cls-70{fill:#fbfdfc;}.cls-71{fill:#e9ecee;}.cls-72{fill:#ebeef0;}.cls-73{fill:#e9edef;}.cls-74{fill:#e7eaec;}.cls-75{fill:#e5e9eb;}.cls-76{fill:#dfe2e5;}.cls-77{fill:#e5e8ea;}.cls-78{fill:#e2e6e8;}.cls-79{fill:#d9dde0;}.cls-80{fill:#101010;}.cls-81{fill:#171717;}.cls-82{fill:#010101;}.cls-83{fill:#ebebeb;}.cls-84{fill:#3443a0;}.cls-85{fill:#7982c0;}.cls-86{fill:#3543a1;}.cls-87{fill:#fdfdfd;}.cls-88{fill:#f6f6f6;}
        </style>
    </defs>
    <title>Asset 1</title>
    <g id="Layer_2" data-name="Layer 2">
        <g id="Layer_1-2" data-name="Layer 1">
            <path class="cls-1"
                  d="M1081,64v952c-1.55,1.52-3.53,1.75-5.56,1.83s-4,.05-6,.05q-528.44,0-1056.89,0c-3.9,0-8.07,1-11.56-1.85V64c1.55-1.52,3.53-1.75,5.56-1.83s4-.06,6-.06q528.45,0,1056.89,0C1073.34,62.15,1077.51,61.13,1081,64Z"
                  transform="translate(-0.92 -0.87)"/>
            <path class="cls-2"
                  d="M1081,1128v667c-1.55,1.52-3.53,1.75-5.56,1.83s-4,.06-6,.06q-528.44,0-1056.89,0c-3.9,0-8.07,1-11.56-1.85V1128a5.82,5.82,0,0,1,4.6-1.5c1.33,0,2.67,0,4,0q531.4,0,1062.8,0C1075.3,1126.54,1078.46,1125.61,1081,1128Z"
                  transform="translate(-0.92 -0.87)"/>
            <path d="M1,1795H1081c0,40.83,0,81.67.08,122.5,0,3-.6,3.58-3.58,3.58q-536.5-.13-1073,0c-3,0-3.59-.6-3.58-3.58C1,1876.67,1,1835.83,1,1795Z"
                  transform="translate(-0.92 -0.87)"/>
            <path class="cls-3"
                  d="M1,1125V1023a5.82,5.82,0,0,1,4.6-1.5c1.33,0,2.67,0,4,0q531.4,0,1062.8,0c2.9,0,6.06-.92,8.6,1.46v102a5.82,5.82,0,0,1-4.6,1.5c-1.33,0-2.67,0-4,0q-531.4,0-1062.79,0C6.7,1126.46,3.54,1127.39,1,1125Z"
                  transform="translate(-0.92 -0.87)"/>
            <path class="cls-4"
                  d="M1081,64H1C1,44,1.05,24,.93,4,.92,1.5,1.5.52,4,1A8.24,8.24,0,0,0,5.5,1Q541,1,1076.5.91c3.75,0,4.64.84,4.6,4.59C1080.88,25,1081,44.5,1081,64Z"
                  transform="translate(-0.92 -0.87)"/>
            <path class="cls-5"
                  d="M1,1016H1081v4a6,6,0,0,1-4.61,1.5c-1.33,0-2.67,0-4,0q-531.38,0-1062.77,0c-2.91,0-6.07.87-8.62-1.47Z"
                  transform="translate(-0.92 -0.87)"/>
            <path class="cls-6" d="M1,1125H1081v3H1Z" transform="translate(-0.92 -0.87)"/>
            <path class="cls-7" d="M1,1020H1081v3H1Z" transform="translate(-0.92 -0.87)"/>
            <path class="cls-8"
                  d="M70,727l1.91-.43c2-1.75,4.47-1,6.73-1q256,0,511.92,0,206.22,0,412.44,0c2,0,4-.55,5.87.52.86.9,2,.88,3.12.93,5.8,1.15,6.1,6.1,7.22,10.49a28.72,28.72,0,0,1,.24,5.47c-.1,40.2.22,80.4-.15,120.59a13.46,13.46,0,0,1-10.93,10.79c-2.67.24-5.33.17-8,.17H82.66c-3,0-6,.07-9-.16-4.33-.93-7.74-3.1-9.69-7.24a23,23,0,0,1-1.31-4.41c-.27-41.42-.17-82.83-.06-124.24C63.92,733.9,63.79,728.4,70,727Z"
                  transform="translate(-0.92 -0.87)"/>
            <path class="cls-9"
                  d="M540,326.68c2.14,2.92,5.28,2.63,8.2,2.18a309.14,309.14,0,0,1,60.07-3.58c42,1.74,82.68,9.63,121.09,27.32,10,4.62,19,2,27.67-3.31,6.54-4,12.32-8.9,16.24-15.7a53.78,53.78,0,0,1,3.4-4.83c4.68-6.38,8.88-6.94,14.78-1.63a98.16,98.16,0,0,1,19.33,24.52A158.68,158.68,0,0,1,831,412.35c.69,5.9,1.43,11.78,2.15,17.68.34,10.69,1.18,21.31.22,32.08-.69,7.73-2,15.32-2.93,23a17.81,17.81,0,0,1-3.49,9.17c-30.47,23-64.3,39.61-100.16,52.3A505.72,505.72,0,0,1,611.43,572.3c-25,2.67-50.14,4.18-75.3,3.26-43.24-1.57-86-6.94-127.79-18.46-1.93-.53-3.77-1.34-5.73-1.73-2.9-.78-4.79-2.92-6.61-5.08-9-10.62-16.54-22.1-21.57-35.14a36.35,36.35,0,0,0-1.83-3.55c-4.12-10.56-6.25-21.42-5.09-32.8.17-2.58-.33-5.19.31-7.75,1.46-25.77,11.84-47.82,28.1-67.42.41-.5.74-1.07,1.11-1.61a7.07,7.07,0,0,1,1.17-3.94c.82-4.83-.89-7.73-6.27-10.33-4.49-2.16-9.2-3.83-13.61-6.19-23.28-12.48-39.86-31.16-51-54.89Q310,286.09,324,244.31c.64-1.9,1.26-3.81,3-5.06,4.72-8.51,8.77-17.38,14.8-25.14C360,190.77,383.28,175.8,412.64,171c39.86-6.52,73.69,5.54,101.27,34.6,17.56,18.5,27.23,40.89,29.17,66.47.25,3.32.63,6.62,1,9.94,1.58,6.78-.32,13.4-1,20.08-.49,5-2.08,9.7-3.39,14.5C538.75,320,538.06,323.38,540,326.68Z"
                  transform="translate(-0.92 -0.87)"/>
            <path class="cls-10"
                  d="M327,239.25c-2,8.53-5,16.76-6.34,25.54-2.92,19.67-.56,38.59,6.27,57.1.63,1.71,1.33,3.4,2,5.1-1.32,1.6-3.19,1.66-5,1.67-4.31,0-8.59.88-12.85.84-12.91-.1-25.76,1.48-38.66,1.23-3.17-.06-6.31-.16-8.93-2.32-1.76-.93-2.19-2.64-2.54-4.39-1.69-4.8.75-8.59,2.93-12.51,3.75-6.72,9.7-11.37,15.2-16.46a3.11,3.11,0,0,1,1.7-2.21c1.45-1,3.43-1.25,4.9-3.33C269.31,280,256.53,267.17,250,249a14.54,14.54,0,0,1-.83-7.05c.08-3.41-1-6.93.69-10.19,2.59-4.85,7.48-6,15.26-4.4C285.73,231.44,306.4,235.29,327,239.25Z"
                  transform="translate(-0.92 -0.87)"/>
            <path class="cls-11"
                  d="M1018.13,736a14,14,0,0,0-6.13-9c2.49-1,4.87-.32,5.71,2,1.46,4,3.33,8,3.33,12.45q-.09,62,0,124c0,9.54-4.67,13.8-15.73,14.59-1.33.09-2.67,0-4,0H81a37,37,0,0,1-5.49-.14c-10-1.52-14.41-6.31-14.43-16.62-.1-40.82,0-81.65,0-122.47,0-3.94,1.48-7.52,3.19-10.91,1.06-2.09,2.73-4.26,5.81-2.85-3.74,2.31-5.36,5.92-6.15,10-.59,1.27-.36,2.62-.36,3.93q0,59.56,0,119.11c0,1.27-.49,2.67.54,3.82.91.86.89,2,.92,3.1,2.19,7.18,8.26,8.47,14.47,9.45a35.2,35.2,0,0,0,5.49.07q456.54,0,913.07,0c4.19,0,8.34,0,12.23-1.82,2.93-1.39,5.61-3,6.07-6.66l1.5-3.36c1.25-1.06.67-2.5.67-3.75q0-60.74,0-121.49A7.32,7.32,0,0,0,1018.13,736Z"
                  transform="translate(-0.92 -0.87)"/>
            <path class="cls-12"
                  d="M367.83,479c0,11.38,2.75,22.22,6.41,32.89,1.36,8.21,5.32,15.4,9.31,22.46,15,26.53,36.78,46.13,62.88,61.41,35.46,20.75,74,31.56,114.53,35.83a336.08,336.08,0,0,0,104.37-4.81,291.51,291.51,0,0,0,68.53-22.9c25.91-12.61,48.61-29.63,66.7-52.31,10.63-13.33,18.24-28.16,21.24-45.12.6-4.43,1.55-8.74,4.2-12.48,3.77-9.22,4.52-19.06,6-28.76,1.78-11.69.53-23.47,1.16-35.19a9,9,0,0,1,1.12,7c-1,5.08.94,10.15.81,15.35-.48,18.55-2.47,36.94-7.5,54.74a143.14,143.14,0,0,1-17.72,39.64c-4.83,7.4-10.54,14-16.2,20.51-4.49,5.18-10.54,9.27-15.91,13.81-7.79,6.57-16.48,11.67-24.77,17.43-12.2,8.48-25.93,13.78-39.61,19.19-20.09,8-41,12.93-62.27,16.24a438.14,438.14,0,0,1-46,4.2c-17.3.84-34.31-1.41-51.42-2.93-15.77-1.4-31.1-5.07-46.34-8.85-14.1-3.49-27.46-9.53-40.92-15.11-20.12-8.34-37.78-20.49-54.32-34.37a137.36,137.36,0,0,1-30.18-36,91.46,91.46,0,0,1-9.65-21.65c-2-7.37-4.17-14.66-5.28-22.23-.25-1.33-1-2.66,0-4-.12-4.67-2.42-9.33,0-14C367.28,478.5,367.55,478.53,367.83,479Z"
                  transform="translate(-0.92 -0.87)"/>
            <path class="cls-8"
                  d="M1033,129.27c-.68,2.13-2.56,2.8-3.86,4-2.81,2.63-3.36,6-.23,8,5.66,3.53,2.78,6.63.81,10.5-1.79,3.53-3.64,4.83-7.19,2.54-1.87-1.2-3.58-.89-5.5.32a4.38,4.38,0,0,0-2.27,4.08c.05,4.42-2.2,5.68-6.31,5.21-3.55-.4-7.76,1.33-8.06-5-.22-4.75-3.73-6.57-8-4.45-3.63,1.81-5.45.82-6.81-2.59a14.45,14.45,0,0,0-2-3.43c-1.8-2.31-1.45-3.85,1-5.7,5-3.83,5-6.7,0-10.53-2.35-1.83-2.78-3.33-1-5.71a28.62,28.62,0,0,0,3-5.15c1-2.21,2.34-2.18,4.4-1.43,6.73,2.46,8.57,1.5,9.72-5.36.47-2.78,1.66-3.69,4.27-3.48a22.28,22.28,0,0,0,4.48,0c3.26-.39,4.75.83,5.24,4.21.84,5.84,3.39,7.27,8.77,4.86,3.08-1.38,4.5-.48,5.76,2.26C1030.27,124.85,1031.74,127.08,1033,129.27Z"
                  transform="translate(-0.92 -0.87)"/>
            <path class="cls-13"
                  d="M1008.88,726.06l-484.25,0q-222.64,0-445.27,0c-2.48,0-5,.34-7.44.52-.24-.67-.32-1.43.56-1.51,1.49-.14,3-.06,4.5-.06h927.45q2.5,0,5,0a.44.44,0,0,1,.34.23C1009.9,726,1009.27,725.89,1008.88,726.06Z"
                  transform="translate(-0.92 -0.87)"/>
            <path class="cls-12"
                  d="M261,324l2.05,2.87c1.46,7.62,6.7,9,13.54,8.92,10.82-.1,21.6-1,32.41-1.21,5-.11,10,0,15-.12,4.07-.09,6.93,1.63,9.17,5s4.41,6.67,6.58,10a113.22,113.22,0,0,0,51.93,43.75c2.82,1.2,6.73,1.49,7.31,5.75a5,5,0,0,1-2,3c-4.61-5.5-11.56-6.85-17.62-9.61-8.28-3.76-15-9.38-21.85-15.17-5.46-4.63-10.13-9.94-15-15.09s-8.37-11.42-11.3-17.86c-1.61-3.55-4.16-5.33-7.67-5.19-12.17.49-24.34.93-36.51,1.44-6.74.28-13.79,1.93-20.51-.82C259.66,336.88,257.24,330.08,261,324Z"
                  transform="translate(-0.92 -0.87)"/>
            <path class="cls-12"
                  d="M281,293.83l-1.85,1.22c-13.88-7.45-22.17-19.91-28.43-33.56-2.65-5.79-4.81-12.76-1.54-19.56a20.82,20.82,0,0,1,1.91,6.88c3.62,14.92,11.85,27,23,37.27C276.6,288.42,280.65,289.5,281,293.83Z"
                  transform="translate(-0.92 -0.87)"/>
            <path class="cls-14"
                  d="M540,326.68a6.56,6.56,0,0,1-2.66-8.28c4.34-11.77,5.54-24.07,6.68-36.4,2.6,2.33,2.21,5.45,1.84,8.33-1.47,11.53-2.24,23.19-5.79,34.38A7.44,7.44,0,0,0,540,326.68Z"
                  transform="translate(-0.92 -0.87)"/>
            <path class="cls-12" d="M367.83,479H367c.34-2.64-.8-5.44.81-8Z" transform="translate(-0.92 -0.87)"/>
            <path class="cls-12" d="M367,493c-.42,1.33,1,2.66,0,4A2.46,2.46,0,0,1,367,493Z"
                  transform="translate(-0.92 -0.87)"/>
            <path class="cls-15"
                  d="M541,1669H788.51c10,0,13.49,3.53,13.49,13.52q0,18.25,0,36.5c0,9.27-3.72,13-13,13H297c-2.33,0-4.67.09-7,0-5.3-.27-9.9-4.68-10-10q-.2-21.5,0-43c.05-5.29,4.68-9.67,10-10,1.5-.08,3,0,4.5,0Z"
                  transform="translate(-0.92 -0.87)"/>
            <path class="cls-16" d="M1047.07,1701.06a47.05,47.05,0,1,1-46.88-47.09A46.8,46.8,0,0,1,1047.07,1701.06Z"
                  transform="translate(-0.92 -0.87)"/>
            <path class="cls-17"
                  d="M1012.63,1512h18c4.28,0,6.42,2.12,6.41,6.45,0,11.47,0,22.95,0,34.42,0,4.07-2.11,6.17-6.15,6.19-12.47,0-24.94,0-37.41,0-2.87,0-4.66-1.39-6.11-3.59-3.86-5.82-7.64-11.69-11.63-17.41-1.4-2-1.15-3.46.15-5.35,3.79-5.46,7.5-11,11-16.61a8,8,0,0,1,7.8-4.21C1000.66,1512.13,1006.65,1512,1012.63,1512Z"
                  transform="translate(-0.92 -0.87)"/>
            <path class="cls-17"
                  d="M107.78,1544.18c-6.17,0-10.78.11-15.39,0-2.89-.09-4.23.78-4.25,3.93,0,3.77,1.74,8.64-.81,11-2.71,2.54-7.63.78-11.57.82-10.77.13-11,0-10.87-10.85,0-4.16-1.53-5.18-5.28-5-4.27.25-8.56.06-12.92.06,0-2.42,1.67-3.25,2.72-4.37,8.14-8.79,16.4-17.47,24.56-26.24,1.56-1.67,2.66-2.62,4.71-.39C87.91,1523.18,97.3,1533.05,107.78,1544.18Z"
                  transform="translate(-0.92 -0.87)"/>
            <path class="cls-18"
                  d="M839.45,1542.15c0-4.83,0-9.65,0-14.48,0-1.22-.63-3,1.08-3.44,1.53-.41,4.09-1,4.63.44,1.05,2.71,1.91,1.55,3.44.72,6.37-3.45,11.36-3,16.76,2,1.77,1.64,2.16.3,3-.45a13.89,13.89,0,0,1,8.56-3.65c7.36-.66,12.62,3.43,12.94,10.62.35,7.81.05,15.64.2,23.46,0,2.4-1.1,2.6-3,2.66-2.26.07-3.29-.48-3.24-3,.15-6.49.11-13,0-19.47s-2.09-8.79-7.52-8.74-8.23,3.13-8.31,9c-.08,6.32-.09,12.65,0,19,0,2.24-.45,3.25-3,3.27s-3.45-.81-3.39-3.41q.23-9.73,0-19.47c-.15-6.24-2.46-8.52-8-8.36s-7.7,2.71-7.72,8.68c0,6.49-.1,13,0,19.47.06,2.49-.88,3.12-3.19,3.07-2.14,0-3.44-.31-3.36-2.94C839.56,1552.14,839.45,1547.14,839.45,1542.15Z"
                  transform="translate(-0.92 -0.87)"/>
            <path class="cls-19"
                  d="M548.87,1392.78c-15.06,8.44-23.12-2.63-23.71-13.8a26.35,26.35,0,0,1,1.7-11.73c3.49-8.4,11.72-11.36,19.67-7,1.58.87,2.71,2.48,3.78-.68.42-1.25,2.74-.61,4.15-.41,1.62.23,1.25,1.73,1.25,2.81,0,11,.14,22-.09,32.94-.12,5.9-2.66,10.75-8.48,13-6.31,2.39-12.44,1.71-17.92-2.47-1.26-1-2.74-2-1.09-4s2.67-1.51,4.39-.07c3.78,3.17,8.2,3.82,12.55,1.4C548.87,1400.59,549.65,1396.95,548.87,1392.78Z"
                  transform="translate(-0.92 -0.87)"/>
            <path class="cls-19"
                  d="M139.5,1194.56c4.53-1.59,6.58-.21,7.5,4.29,1.4,6.83,3.44,13.52,5.6,21.73,2.51-8.09,4.52-15,6.83-21.74.65-1.9.17-4.77,3.81-4.9,3.93-.14,3.55,2.9,4.25,5,2.31,6.9,4.38,13.88,7,22.17,2.18-8.73,3.95-16.08,5.88-23.38.41-1.56.22-3.72,3-3.74s4.38.12,3.25,3.72c-3,9.67-5.81,19.43-8.57,29.19-.56,2-1.1,3.2-3.55,3.21s-3-1.33-3.58-3.22c-2.32-7.46-4.76-14.87-7.58-23.61-2.7,8.55-5.11,16-7.37,23.44-.63,2.1-1.25,3.67-3.94,3.37-1.49-.17-2.46-.44-2.91-2C146,1216.84,142.72,1205.69,139.5,1194.56Z"
                  transform="translate(-0.92 -0.87)"/>
            <path class="cls-19"
                  d="M333.16,1361.3c0-4.61.11-9.06,0-13.5-.08-2.54.28-4,3.41-3.9,2.88.05,3.18,1.33,3.17,3.66-.07,14.63,0,29.25-.06,43.88,0,1.2.68,2.92-1.11,3.39-1.39.36-3.7.83-4.2-.26-1.22-2.68-2.2-1.64-3.94-.7-7.62,4.14-15.56,1.57-19.13-6.32a24.87,24.87,0,0,1-.16-20.8C314.83,1358.14,322,1356.38,333.16,1361.3Z"
                  transform="translate(-0.92 -0.87)"/>
            <path class="cls-19"
                  d="M63.14,1227.86c-10.33,4.59-17,3.29-21.22-3.86-5.1-8.69-3.35-22.92,3.52-28.07a12.86,12.86,0,0,1,10.86-2.34c3.2.69,6,3.36,9.78.59,1.54-1.14,3.63-.12,3.61,2.87-.13,14.64-.1,29.28,0,43.92,0,2.54-1.16,3-3.36,3s-3.29-.66-3.2-3.11C63.25,1236.6,63.14,1232.32,63.14,1227.86Z"
                  transform="translate(-0.92 -0.87)"/>
            <path class="cls-20"
                  d="M640.91,1526.68c13.84-7.2,23.68-1.26,24.1,14a27.14,27.14,0,0,1-1.39,10.82c-3.41,8.73-11.69,11.77-19.94,7.27-1.25-.68-2.32-2.68-3.5.4-.66,1.72-3,.93-4.55.62s-1-1.89-1-3c0-14.82,0-29.65-.07-44.47,0-2.58.74-3.4,3.38-3.45,3.07-.05,3,1.6,3,3.77C640.86,1517.17,640.91,1521.66,640.91,1526.68Z"
                  transform="translate(-0.92 -0.87)"/>
            <path class="cls-20"
                  d="M1018.91,1227.66c0,4.84-.09,9.16,0,13.48.06,2.23-.88,2.84-3,2.83s-3.45-.28-3.43-2.91c.08-14.65,0-29.3.05-44,0-1.07-.43-2.6,1.12-2.9,1.4-.27,3.45-.91,4.18.45,1.09,2.06,1.66,1.86,3.53.82,9-5.06,17.79-1.24,20.64,8.76a29.38,29.38,0,0,1,.52,13.36C1040.39,1229.84,1031.42,1233.77,1018.91,1227.66Z"
                  transform="translate(-0.92 -0.87)"/>
            <path class="cls-20"
                  d="M123,1379.34c.18,3.6-.33,7.76.45,11.9.22,1.17,1.45,3-.15,3.49s-4.73,1.24-5.55-.5c-1.42-3-2.45-1.25-3.87-.47-7.72,4.24-17.16,1.22-19-6-1.48-6,1.38-11.13,7.54-13.31a25.42,25.42,0,0,1,10.83-1.28c3.53.32,3.92-1.44,3.29-4.18s-2-4.61-4.79-5.1c-3.41-.59-6.67-.47-9.14,2.44-.42.49-.49,1.28-.93,1.73a4.72,4.72,0,0,1-5.91.53c-1.35-.77.11-2.68.82-3.88,3-5.15,10.8-7.61,17.76-5.71,5.82,1.59,8.5,5.4,8.6,12.32C123.05,1373.8,123,1376.3,123,1379.34Z"
                  transform="translate(-0.92 -0.87)"/>
            <path class="cls-21"
                  d="M882.21,1394.6c-5.07,1.2-8.3,0-10.64-4.11a56.46,56.46,0,0,0-6.28-8.38c-.91-1.07-1.24-3.75-3.4-2.55a5.05,5.05,0,0,0-3,4.81c.16,2.32,0,4.66.05,7s0,3.78-3,3.74c-2.7,0-3.35-1-3.33-3.49q.14-22.23,0-44.45c0-2.29.58-3.2,3.06-3.24,2.7,0,3.36.91,3.32,3.47-.14,8.59-.05,17.18-.05,26.72,4.05-4.28,7.68-7.64,10.73-11.45,2.76-3.46,6-4.28,10.83-3.16-3.77,4-7.06,7.91-10.72,11.4-2.38,2.27-2.63,3.89-.47,6.55C873.69,1382.84,877.69,1388.55,882.21,1394.6Z"
                  transform="translate(-0.92 -0.87)"/>
            <path class="cls-21"
                  d="M641.91,1362.41c2.64-1.44,4.52-3,7-3.64,8.23-2,14.54,2.15,14.94,10.57.36,7.63,0,15.29.18,22.94,0,2.27-.89,2.78-2.94,2.77s-3.44-.17-3.38-2.87c.15-6.65.14-13.3,0-20-.11-6.26-2.16-8.48-7.31-8.39s-8.44,3.42-8.47,8.87c0,6.32-.12,12.64,0,19,.07,2.62-.75,3.44-3.37,3.42s-3-1-3-3.26q.11-22.2,0-44.4c0-2.47.56-3.49,3.29-3.52,3,0,3.15,1.41,3.1,3.68C641.84,1352.36,641.91,1357.13,641.91,1362.41Z"
                  transform="translate(-0.92 -0.87)"/>
            <path class="cls-19"
                  d="M274.16,1213.91a58.55,58.55,0,0,1-7.48-.06c-4.5-.58-4.64,1.62-3.44,4.86,2.47,6.72,10.49,8.95,16.45,4.44,1.82-1.38,3.31-2.92,5.26-.43,2.1,2.69-.85,3.6-2,4.54-5.3,4.14-11.26,4.62-17.39,2-7.06-3-10.4-10.33-9.39-20.16.83-8.1,5.93-14.12,13.2-15.59,10.21-2.06,20.26,8.8,17.42,18.74-.54,1.89-1.85,1.59-3.11,1.6C280.48,1213.94,277.32,1213.91,274.16,1213.91Z"
                  transform="translate(-0.92 -0.87)"/>
            <path class="cls-19"
                  d="M903,1212.22c.1-13.48,9.55-21.43,21.05-18.23,7.31,2,11.85,9,11.81,18.2,0,9.45-4.69,16.12-12.57,18.08a15.65,15.65,0,0,1-17.88-7.55A19,19,0,0,1,903,1212.22Z"
                  transform="translate(-0.92 -0.87)"/>
            <path class="cls-19"
                  d="M717.92,1211.87c0,5,0,10,0,15,0,1,.62,2.61-1,3s-4,1-4.57-.41c-1-2.53-1.77-1.31-3.09-.66-11.07,5.44-19.42.63-19.88-11.59-.25-6.65,0-13.32-.1-20,0-2.33.68-3.21,3.12-3.22s3.55.63,3.48,3.34c-.17,6.49-.1,13,0,19.47s2,8.52,7.14,8.45c5.82-.09,8.55-2.75,8.59-8.52q.07-9.49,0-19c0-2.18,0-3.74,3-3.8,3.24-.06,3.41,1.5,3.35,4C717.84,1202.55,717.92,1207.21,717.92,1211.87Z"
                  transform="translate(-0.92 -0.87)"/>
            <path class="cls-19"
                  d="M217.78,1395.89c-5.83-.46-11-2-13.67-7.69-.56-1.2-2.44-3.31.15-4,1.7-.48,4.07-1.33,5.61,1.45,2.48,4.46,6.52,5.84,11.3,4.47,2.24-.64,3.94-1.81,4.1-4.38a4.51,4.51,0,0,0-3.44-4.88c-3.15-1-6.4-1.79-9.53-2.86-5.61-1.92-8.32-5.21-8-9.49.3-4.46,3.77-8.16,8.94-9.53,7.08-1.88,14.46.63,17,5.93.74,1.53,2.16,3.76-.13,4.67-1.55.62-4.09,1.42-5.4-1.64-2-4.57-6.05-4.71-10.2-3.82a4.43,4.43,0,0,0-3.71,4.16,4,4,0,0,0,3.11,4.52c2.83.94,5.78,1.55,8.63,2.45,6.5,2.06,9.49,5.39,9.28,10.19-.23,5.17-4.14,8.9-10.66,10.1C220,1395.71,218.84,1395.77,217.78,1395.89Z"
                  transform="translate(-0.92 -0.87)"/>
            <path class="cls-19"
                  d="M579.85,1194.6c4.82-1.7,7.15-.25,8.43,4.49,1.86,6.87,4.46,13.53,7.13,21.44,2.46-7.9,4.59-14.71,6.7-21.52,1.64-5.28,1.64-5.28,8.15-4.57-3.93,11.35-7.8,22.61-11.73,33.84a97.41,97.41,0,0,1-4,10.2,10,10,0,0,1-9.54,6.1c-1.65,0-3.28-.26-3.31-2.72,0-2.15.72-2.63,2.81-3a9,9,0,0,0,6.92-12C587.65,1216.13,583.73,1205.38,579.85,1194.6Z"
                  transform="translate(-0.92 -0.87)"/>
            <path class="cls-20"
                  d="M771,1546.18c0,3.67-.1,7.34,0,11,.08,2.18-.68,2.95-2.85,2.87-2-.08-3.53,0-3.47-2.79.16-6.66.14-13.33,0-20-.11-6.28-2.15-8.51-7.31-8.42s-8.44,3.43-8.47,8.91c0,6.33-.13,12.67,0,19,.08,2.73-1,3.31-3.46,3.34s-3-1.2-2.94-3.35c.07-9.83,0-19.67.06-29.5,0-1.2-.52-3.06,1.49-3.06,1.56,0,3.94-1.37,4.53,1.44s1.67.93,2.59.38c10.95-6.47,19.59-1.57,19.72,11.19C771,1540.18,771,1543.18,771,1546.18Z"
                  transform="translate(-0.92 -0.87)"/>
            <path class="cls-21"
                  d="M210.64,1555c6.56,0,12.17,0,17.78,0,1.79,0,3.24,0,3.25,2.51s-1.38,2.56-3.21,2.54c-7,0-14,0-21-.07-1.49,0-3.62,1.09-4.4-.95a5.7,5.7,0,0,1,1.19-5.58q7.45-9.68,14.72-19.51c1-1.29,2.35-2.35,2.65-4.73h-15.3c-1.69,0-3.25.2-3.33-2.41-.09-2.86,1.55-2.76,3.49-2.75,6.32,0,12.64-.07,19,.07,1.66,0,4-1.12,4.91,1s-.37,4.1-1.74,5.89c-4.86,6.33-9.64,12.72-14.44,19.1C213.22,1551.42,212.26,1552.77,210.64,1555Z"
                  transform="translate(-0.92 -0.87)"/>
            <path class="cls-19"
                  d="M424.24,1541.22c0,9.24,3.14,13.81,9.06,14.17,3.61.22,6.89-.84,8.28-4.28,1.27-3.15,3.84-3.17,5.58-2.18,2.3,1.32.37,3.59-.6,5.11a14.31,14.31,0,0,1-13.12,6.73c-5.91-.16-10.7-2.71-13.24-8.22a23.87,23.87,0,0,1,.12-21.2c2.85-5.85,8.09-8.27,14.37-8,5.91.25,10.54,2.95,12.8,8.7.55,1.39,1.76,3.56-.39,4.3-1.75.6-4.18,1.19-5.18-2-1.38-4.45-4.85-6.05-9.38-5.52s-6.62,3.45-7.57,7.47A46.08,46.08,0,0,0,424.24,1541.22Z"
                  transform="translate(-0.92 -0.87)"/>
            <path class="cls-18"
                  d="M309.91,1524.45c10.84-2.78,9.56,8,15.17,11.64,1.36-2.14,3.29-4.54,4.52-7.26,2-4.35,4.9-5.94,9.94-4.26-3,4.58-5.76,9.28-9,13.61-2.09,2.78-1.88,4.75.11,7.42,3.26,4.37,6.09,9.05,9.17,13.69-6.44,1.3-6.44,1.31-9.59-3.8-1.48-2.4-3-4.82-4.46-7.21-.17-.26-.49-.42-1.22-1-1.63,2.61-3.53,5-4.76,7.78-1.94,4.31-4.87,6-10.1,4.5,3.23-4.9,6.23-9.78,9.59-14.4,1.74-2.4,1.81-4.15,0-6.57C316.08,1534.17,313.22,1529.49,309.91,1524.45Z"
                  transform="translate(-0.92 -0.87)"/>
            <path class="cls-19"
                  d="M428.61,1379.29c0-3,.08-6,0-9s1.51-7.12-4.34-6.51c-1.67.18-1.13-1.67-1.22-2.73s.19-2.19,1.53-2c4.59.76,4-2.46,4.22-5.21.66-7.27,5.91-11.54,12.91-10.68,1.79.22,3.23.52,3.09,2.92-.13,2.19-1.08,2.87-3.16,2.68-3-.27-5.22.81-6.3,3.76-1.55,4.23-.29,6.23,4.21,6.43,1.83.08,3.24.1,3.19,2.59s-1.79,2.58-3.41,2.3c-4.13-.7-4.53,1.43-4.44,4.81.21,7.66,0,15.33.12,23,.05,2.65-.8,3.4-3.4,3.4s-3.06-1.07-3-3.3C428.7,1387.62,428.61,1383.45,428.61,1379.29Z"
                  transform="translate(-0.92 -0.87)"/>
            <path class="cls-19"
                  d="M526.15,1524.44c4.56-1.19,6.83-.15,8,4.33,1.84,7,4.5,13.88,6.83,20.79a6.45,6.45,0,0,0,.7,1.08c2.43-7.43,5.15-14.58,7-21.94,1.17-4.54,3.43-5.48,7.86-4.21-4,11.23-8,22.42-12,33.64-.65,1.84-2,1.83-3.53,1.91-2,.1-2.5-1.12-3-2.61C534.14,1546.51,530.18,1535.61,526.15,1524.44Z"
                  transform="translate(-0.92 -0.87)"/>
            <path class="cls-19"
                  d="M482.82,1212.11c0-2.16,0-4.32,0-6.48-.08-3.38,1.4-7.87-5-6.78-1.57.27-1.66-1.17-1.71-2.39-.07-1.62.49-2.71,2.23-2.39,4.65.86,4.76-2,4.46-5.25-.21-2.26.14-3.71,3.09-3.72s3.28,1.41,3.09,3.68c-.26,3.13-.48,6.19,4.32,5.28,1.91-.36,2.61.68,2.56,2.6s-.87,2.53-2.45,2.23c-4.62-.88-4.56,1.94-4.47,5.18.14,5.48,0,11,0,16.44,0,2.9,1,4.95,4.34,4.64,1.92-.17,2.64.44,2.65,2.44s-.76,2.61-2.47,3c-5.26,1.26-9.93-1.67-10.45-7.07-.36-3.78-.07-7.63-.07-11.45Z"
                  transform="translate(-0.92 -0.87)"/>
            <path class="cls-21"
                  d="M759.94,1381.41c0,6.48.19,13-.06,19.43-.22,5.86-4.29,9.3-9.83,8.77-1.67-.16-3.25-.33-3.28-2.77,0-2.21.74-2.81,2.88-2.8,4.09,0,4.14-3.12,4.15-6,0-11.46,0-22.92.05-34.38,0-2-1.1-4.68,3-4.75s3.14,2.39,3.15,4.56c0,6,0,12,0,17.94Z"
                  transform="translate(-0.92 -0.87)"/>
            <path class="cls-19"
                  d="M970.08,1369.08c0-7.16.05-14.33,0-21.49,0-2.27.13-3.72,3.1-3.69,2.75,0,3.3,1.07,3.29,3.54q-.13,22,0,44c0,2.27-.17,3.7-3.13,3.69-2.77,0-3.31-1.06-3.26-3.54C970.16,1384.07,970.08,1376.57,970.08,1369.08Z"
                  transform="translate(-0.92 -0.87)"/>
            <path class="cls-19"
                  d="M372.59,1211.91c0-4.81-.05-9.63,0-14.44,0-3.06,4.12-5.3,5.43-3,1.87,3.24,2.74,1,4.1.25a11.22,11.22,0,0,1,5.22-1.43c2.23-.05,2.81,1.2,2.69,3.19-.1,1.67.18,3-2.44,3.24-7.72.73-8.69,2-8.69,9.56,0,5.81-.12,11.62.05,17.42.08,2.61-.75,3.43-3.37,3.41s-3.1-1-3-3.24C372.67,1221.87,372.59,1216.89,372.59,1211.91Z"
                  transform="translate(-0.92 -0.87)"/>
            <path class="cls-22"
                  d="M120.66,1700.65c3.62,2.35,5.18,5.59,3.86,9.82a8,8,0,0,1-6.89,5.72c-4,.62-7.68,0-10.3-3.42-1-1.28-2.26-3.12-.61-4.36s2.81-.11,3.66,1.83c1.4,3.2,4.39,3.37,7.26,2.56,2.59-.74,3.51-3,3.29-5.51-.27-3.25-2.51-4.35-5.44-4.78-1.24-.19-3.44.62-3.38-1.81s2.19-1.42,3.46-1.62c2.84-.44,4.59-1.79,4.73-4.81.11-2.39-.63-4.39-3.11-5s-5.14-.25-6.42,2.41c-.94,2-2.24,3.39-4,1.89-1.51-1.27.09-3.07,1-4.33,2.84-3.91,10.24-4.65,14-1.5S125.14,1696.05,120.66,1700.65Z"
                  transform="translate(-0.92 -0.87)"/>
            <path class="cls-23"
                  d="M73.53,1595.17c-6.66,0-13.31,0-20,0-2,0-3.66-.12-3.54-2.85.11-2.58,1.86-2.32,3.51-2.32q20,0,39.93,0c1.62,0,3.41-.32,3.53,2.29s-1.47,2.9-3.5,2.89C86.84,1595.14,80.19,1595.17,73.53,1595.17Z"
                  transform="translate(-0.92 -0.87)"/>
            <path class="cls-24"
                  d="M87.62,1712.91c4.74,0,8.52,0,12.29,0,1,0,2,.14,2.06,1.53s-1,1.53-2,1.53c-5.16,0-10.33.12-15.49,0-3.43-.1-2.31-2.23-1.11-3.67,2.87-3.46,6-6.68,8.94-10.1a27.11,27.11,0,0,0,3.73-5.25c1.45-2.88,1-5.75-2-7.31s-6-.7-7.55,2.5c-.86,1.81-1.57,3.88-3.65,2.58s-.42-3.37.45-4.84c2.44-4.1,9.52-5.46,13.85-2.81,3.92,2.4,4.7,7,2,11.87S91.65,1707.38,87.62,1712.91Z"
                  transform="translate(-0.92 -0.87)"/>
            <path class="cls-25"
                  d="M844.93,1172.23c-6.37,0-9.23-4.35-6.16-9.78a3.24,3.24,0,0,0,0-3.88c-1.57-2.79-1.21-5.64,1.53-7.5a7.65,7.65,0,0,1,9.33.1c2.8,2.09,3.26,5.06,1,7.87-1.14,1.44-.53,2,.23,3.26C854.12,1167.6,851.27,1172.22,844.93,1172.23Z"
                  transform="translate(-0.92 -0.87)"/>
            <path class="cls-26"
                  d="M808.08,1211.53c0-4.82.11-9.65,0-14.47-.08-2.45.85-3.11,3.18-3.1s3.24.66,3.22,3.1q-.15,15,0,29.94c0,2.46-.91,3.07-3.21,3.07s-3.27-.59-3.19-3.07C808.19,1221.85,808.08,1216.69,808.08,1211.53Z"
                  transform="translate(-0.92 -0.87)"/>
            <path class="cls-27"
                  d="M1068.31,1161c0,8.26-2.24,11.45-7.84,11.2-4.86-.21-7.13-3.49-7.27-10.51-.16-7.81,1.94-11.49,6.82-11.92C1065.87,1149.25,1068.32,1152.57,1068.31,1161Z"
                  transform="translate(-0.92 -0.87)"/>
            <path class="cls-28"
                  d="M626.84,1157.76c4-1.21,7.08-.67,8.94,2.77a7.88,7.88,0,0,1-.59,8.9c-1.88,2.61-4.57,3.06-7.53,2.66a6.46,6.46,0,0,1-3.88-2.05c-5.07-5.31-2.07-17.55,4.89-19.69,1.44-.44,3.49-1.49,4.36.59,1,2.3-1.1,2.61-2.73,3.06S627.6,1155.21,626.84,1157.76Z"
                  transform="translate(-0.92 -0.87)"/>
            <path class="cls-28"
                  d="M954.89,1164.51c-3.53.83-6.74.61-8.65-2.84a8.06,8.06,0,0,1,.2-8.53c2.25-3.73,7.64-4.68,10.81-1.83,3.91,3.51,3.17,8.19,2.52,12.58a9.07,9.07,0,0,1-6.81,7.8c-1.41.39-3.55,1.46-4.36-.68s1.11-2.62,2.84-3A3.81,3.81,0,0,0,954.89,1164.51Z"
                  transform="translate(-0.92 -0.87)"/>
            <path class="cls-28"
                  d="M520.7,1149.94a12,12,0,0,1,2.1,0c1.68.53,4.69-1.35,4.89,1.65.25,3.69-3.1,1.72-4.87,2.21-1.42.39-3.61-.82-3.84,1.87-.29,3.29,2.16,1.5,3.42,1.71,3.35.56,5.45,2.35,6,5.74s-.3,6.45-3.43,8.15a7.93,7.93,0,0,1-8.94-.64c-1.31-1-2.94-2.57-1.77-4.11,1-1.37,2.93-.94,4.26.62,1.62,1.91,3.47,2.13,4.86-.18a3.89,3.89,0,0,0-.94-5.37c-1.16-1-2.47-.62-3.78-.17-3.76,1.27-5-.29-4.28-3.93a6,6,0,0,0,.28-1.47C514.31,1150.77,516.51,1148.55,520.7,1149.94Z"
                  transform="translate(-0.92 -0.87)"/>
            <path class="cls-28"
                  d="M195.95,1168.24c2.65,0,4.43,0,6.21,0,1.48,0,2.67.44,2.57,2.25s-1.51,1.48-2.6,1.5c-3.32.05-6.64,0-10,0-.94,0-2.1.31-2.63-.83s0-2.27.83-3.16c1.89-2.1,3.83-4.15,5.72-6.24a21.71,21.71,0,0,0,2.21-2.69c1.05-1.63,1.61-3.56,0-5-1.82-1.56-3.41-.61-4.33,1.37a2.6,2.6,0,0,1-4.14,1.07c-1.57-1.14-.14-2.74.62-3.87,2-3,7.69-4,10.8-1.9,3.63,2.49,3.49,5.91,1.43,9.18C201,1162.58,198.72,1164.84,195.95,1168.24Z"
                  transform="translate(-0.92 -0.87)"/>
            <path class="cls-29"
                  d="M304.41,1149.73c6.4-.13,9.06,4,5.88,9.6-.87,1.53-.12,1.84.48,2.78,2.42,3.8,1.6,7.45-2,9.3-3.75,1.95-9.57.63-11.16-2.55-.43-.85-1.12-2,.06-2.6a3.05,3.05,0,0,1,3.72.35c1.07,1.19,2.11,2.19,3.77,1.91a2.76,2.76,0,0,0,2.48-2.72,2.66,2.66,0,0,0-2.18-2.9c-1.29-.36-3.27.41-3.48-1.89s1.84-1.76,3.1-2.21a2.68,2.68,0,0,0,1.75-4c-.93-2-2.63-1.7-4.21-.69-.54.35-.86,1.1-1.42,1.35-1.24.56-2.81.89-3.65-.3-.73-1,.29-2.2,1-3.11C300.07,1150.21,302.17,1149.78,304.41,1149.73Z"
                  transform="translate(-0.92 -0.87)"/>
            <path class="cls-28"
                  d="M421.54,1165.84c-2.69,1.33-2.36,4-3.64,5.71-.66.88-3.59,1.14-3.6-.64,0-4.36-2.79-3.62-5.38-3.68-4.5-.11-5.08-1.08-2.78-4.95,2.12-3.57,4.48-7,6.63-10.55,1.05-1.74,2.56-2,4.29-1.7,2.25.36,1.53,2.21,1.63,3.57C419,1157.71,417.49,1162.16,421.54,1165.84Z"
                  transform="translate(-0.92 -0.87)"/>
            <path class="cls-30"
                  d="M731.5,1171.5c2.16-4.72,4.14-9.29,6.33-13.74,1.37-2.77,1.39-4.05-2.35-4.13-2.16,0-6.39,2-6.2-2.11.15-3.09,4.11-1.45,6.29-1.49,10.09-.2,10.1-.09,6,9.36-1.38,3.2-2.94,6.34-4.16,9.6C736.44,1171.66,734.87,1172.69,731.5,1171.5Z"
                  transform="translate(-0.92 -0.87)"/>
            <path class="cls-31"
                  d="M67.05,1691.1c-1.79.57-3.17,1-4.56,1.45-1.06.32-2.37,1.17-3-.33s.51-2.44,1.85-2.94c2.92-1.1,5.86-2.15,9.62-3.53,0,9.88,0,19.2,0,28.52,0,1.25-.7,1.67-1.88,1.71-2,.08-2-1.23-2-2.62C67.05,1706.07,67.05,1698.79,67.05,1691.1Z"
                  transform="translate(-0.92 -0.87)"/>
            <path class="cls-32"
                  d="M45.87,1685.77c3,0,5.67.64,7.23,3.46a8.57,8.57,0,0,1-.33,9c-1.76,2.95-5.08,4.82-5.78,8.55-.23,1.22-1.52,1.09-2.5.91-1.34-.25-1.31-1.27-1.12-2.31a11.15,11.15,0,0,1,3.52-5.88c1.41-1.4,2.9-2.79,3.16-4.92.23-1.89.08-3.68-1.82-4.78a4.33,4.33,0,0,0-5.51.62c-1.24,1.19-1.67,3.39-4.13,2.64a1.13,1.13,0,0,1-.87-1.48,6.57,6.57,0,0,1,3.36-4.68A9.65,9.65,0,0,1,45.87,1685.77Z"
                  transform="translate(-0.92 -0.87)"/>
            <path class="cls-27"
                  d="M92.13,1161.08c0,2.5,0,5,0,7.49,0,1.6.39,3.52-2.31,3.4-2.33-.1-2-1.77-2-3.21,0-3,0-6,0-9,0-2.24.29-4.69-3.31-3.55-.86.27-1.66.27-2-.79-.26-.85-.22-1.88.58-2.22a51.47,51.47,0,0,1,7.94-2.85c1.29-.31,1.11,1.33,1.13,2.24C92.16,1155.42,92.12,1158.25,92.13,1161.08Z"
                  transform="translate(-0.92 -0.87)"/>
            <path class="cls-33"
                  d="M221.26,1721.92a16.66,16.66,0,0,1-3.94,11c-1.12,1.41-2.15,1.71-3.74.61s-1.37-1.93-.57-3.28a14.48,14.48,0,0,0,2.06-8.57c-.16-2.36-.07-4.08,3.24-4.09C222,1717.58,221.19,1719.88,221.26,1721.92Z"
                  transform="translate(-0.92 -0.87)"/>
            <path class="cls-34"
                  d="M864.88,1718c2.28.12,3.49,1.51,3.45,3.82s-1.59,3.53-3.9,3.48-3.67-1.37-3.56-3.78S862.36,1718,864.88,1718Z"
                  transform="translate(-0.92 -0.87)"/>
            <path class="cls-35"
                  d="M811.78,1188c-2.46,0-3.86-.89-4-3.1s.86-3.82,3.39-3.87,3.74,1.24,3.73,3.6A3.11,3.11,0,0,1,811.78,1188Z"
                  transform="translate(-0.92 -0.87)"/>
            <path class="cls-36"
                  d="M756,1346c3.15-.13,4.42,1.29,4.42,3.56A3.17,3.17,0,0,1,757,1353c-2.17.06-3.57-1-3.75-3.08C753,1347.62,754.23,1346.18,756,1346Z"
                  transform="translate(-0.92 -0.87)"/>
            <path class="cls-37"
                  d="M45.54,1712c1.32.14,2.18.85,2.1,2.19a2,2,0,0,1-2.34,1.92c-1.3-.07-2.19-.76-2.09-2.16S44.23,1712,45.54,1712Z"
                  transform="translate(-0.92 -0.87)"/>
            <path class="cls-38"
                  d="M1028.29,1840.17c6.49,0,13,0,19.48,0,5.2,0,7,1.7,7,6.76.08,7.82,0,15.65,0,23.47,0,4.28-2.15,6.54-6.4,6.56q-20,.07-40,0c-4,0-6.26-2.08-6.3-6.14q-.1-12.23,0-24.47c0-4.31,2.32-6.28,6.63-6.21C1015.31,1840.24,1021.8,1840.17,1028.29,1840.17Z"
                  transform="translate(-0.92 -0.87)"/>
            <path class="cls-39" d="M541.26,1833.64a24.4,24.4,0,1,1-24.62,24.28A24.51,24.51,0,0,1,541.26,1833.64Z"
                  transform="translate(-0.92 -0.87)"/>
            <path class="cls-38"
                  d="M237,1837c6.32,0,12.64-.07,19,0,5.23.08,6.73,2.51,4.2,6.94q-9.16,16-18.54,31.88c-2.56,4.33-5.83,4.44-8.41.23q-9.77-15.93-19.24-32c-2.59-4.39-1.08-6.92,4.09-7C224.35,1836.92,230.67,1837,237,1837Z"
                  transform="translate(-0.92 -0.87)"/>
            <path class="cls-39"
                  d="M826,1879.1a2,2,0,0,1-2-2.06c.16-12.69.13-25.38,0-38.07a2,2,0,0,1,2-2c12.69.09,25.37.13,38.06,0a2,2,0,0,1,2.07,2c-.17,12.7-.2,25.4,0,38.1a2,2,0,0,1-2.06,2.07C851.36,1878.9,838.66,1878.94,826,1879.1Z"
                  transform="translate(-0.92 -0.87)"/>
            <path class="cls-40"
                  d="M864,1836.92c-.39.29-.79.83-1.18.83q-17.84.07-35.68,0c-.4,0-.8-.53-1.19-.82,3.28-1.56,6.78-.77,10.14-.69C845.42,1836.5,854.76,1835.27,864,1836.92Z"
                  transform="translate(-0.92 -0.87)"/>
            <path class="cls-41"
                  d="M823.93,1839c.29.4.82.79.83,1.19q.06,17.85,0,35.7c0,.4-.54.79-.83,1.18-1.68-7.45-.54-15-.64-22.5C823.21,1849.37,822.28,1844.09,823.93,1839Z"
                  transform="translate(-0.92 -0.87)"/>
            <path class="cls-42"
                  d="M866.12,1877a131.74,131.74,0,0,1,0-38.1c1.51,4,.73,8.1.65,12.13C866.59,1859.73,867.72,1868.43,866.12,1877Z"
                  transform="translate(-0.92 -0.87)"/>
            <path class="cls-43"
                  d="M826,1879.1c.39-.29.78-.84,1.18-.84q17.87-.06,35.75,0c.39,0,.78.55,1.17.85-7.46,1.66-15,.53-22.51.63C836.36,1879.81,831.09,1880.75,826,1879.1Z"
                  transform="translate(-0.92 -0.87)"/>
            <path class="cls-44"
                  d="M1025.07,1064.1c0-2.65-.18-5.32,0-8,.38-4.55,3.54-7.42,7.81-7.39a7.53,7.53,0,0,1,7.82,7.4,156.28,156.28,0,0,1,0,16.41,7.62,7.62,0,0,1-7.81,7.46c-4.4,0-7.53-3.11-7.81-8-.15-2.65,0-5.31,0-8Z"
                  transform="translate(-0.92 -0.87)"/>
            <path class="cls-45"
                  d="M1032.75,1098.31c-2,.16-2.91-.93-2.56-2.7.91-4.6-1.65-6.21-5.45-7.7-5.05-2-8.18-6.16-9.63-11.38-.37-1.35-1.67-3.43.84-4.2s2.86,1.06,3.49,3c3.54,10.81,16.24,13.82,23.84,5.76a13.14,13.14,0,0,0,3.32-6.59c.37-1.86,1.41-2.61,3.17-2.14s1.35,2.11,1.07,3.3c-1.48,6.25-5.15,10.87-11.24,13-3.24,1.11-4.7,2.6-4.29,6C1035.52,1096.4,1035.64,1098.5,1032.75,1098.31Z"
                  transform="translate(-0.92 -0.87)"/>
            <path class="cls-46"
                  d="M378,1074.13c0-8.16-.11-16.32.08-24.47,0-2.1-1.38-5.92,1.31-6,2.93-.08,1.52,3.73,1.53,5.74q.21,25.22,0,50.44c0,1.95,1.15,5.58-1.31,5.52-3-.07-1.5-3.74-1.55-5.76C377.89,1091.11,378,1082.62,378,1074.13Z"
                  transform="translate(-0.92 -0.87)"/>
            <path class="cls-46"
                  d="M702,1074.49c0,9.16,0,18.31,0,27.47,0,1.36.64,3.6-1.46,3.62S699,1103.34,699,1102q-.06-27.47,0-54.94c0-1.36-.63-3.6,1.46-3.62s1.47,2.23,1.48,3.59C702,1056.17,702,1065.33,702,1074.49Z"
                  transform="translate(-0.92 -0.87)"/>
            <path class="cls-47"
                  d="M923.16,34.17a71.06,71.06,0,0,1,0-8.43c.34-3.13-2-7.67,1.58-9.11,5.52-2.26,10.55-5.76,18-1.71,5.53,3,5.11,6,5.18,10.2.12,7.12.22,14.24.21,21.36,0,1.5.81,3.42-1.35,4.31-2.24-3.09-1.08-6.64-1.36-10-.2-2.41.3-5-2.21-6.62a11,11,0,0,0-2.52-1.49c-5.7-1.72-5.69-1.74-2.6-6.91a2.21,2.21,0,0,0,.44-2.14c-2.42-.09-5.19-1-6.54,2.25-1.06,2.6-1.09,4.8,1.88,6.73,2.62,1.71,2.3,4.1-.73,5.62C930.72,34.61,926.66,35.08,923.16,34.17Z"
                  transform="translate(-0.92 -0.87)"/>
            <path class="cls-48"
                  d="M891.76,49.82H866.07L891,24c2.06.05,2.36,1.72,2.48,3.12a111,111,0,0,1,0,19.77A4.26,4.26,0,0,1,891.76,49.82Z"
                  transform="translate(-0.92 -0.87)"/>
            <path class="cls-49"
                  d="M943,33.07c3.38-.09,4.64,1.47,4.28,4.87-.45,4.26.5,8.61-.56,12.86-6.64,0-13.29-.11-19.93,0-2.81.07-3.83-.87-3.71-3.71.19-4.31,0-8.64,0-13,2.88-1.92,5.76-.14,8.6.15,2.47.25.93,2.24,1,3.51a4,4,0,0,1,0,2.56c.11.22-.55.54.12.66a57.4,57.4,0,0,1,6.11-6.3C940.05,33.74,941.06,32.11,943,33.07Z"
                  transform="translate(-0.92 -0.87)"/>
            <path class="cls-50"
                  d="M891.76,49.82c-.63-8.59.75-17.24-.75-25.81a65.83,65.83,0,0,1,10-9.93c0,11.71,0,22.54,0,33.36,0,1.93-1.06,2.63-2.83,2.58Z"
                  transform="translate(-0.92 -0.87)"/>
            <path class="cls-48"
                  d="M1006.23,32.8c-.24,3.62,0,6.29-.82,8.89-1.25,3.84-3.9,5.67-7.85,5.67s-6.85-1.71-7.86-5.61a31.93,31.93,0,0,1,0-15.79c1-3.9,3.92-5.71,7.81-5.74,4.16,0,7,2.08,8,6.12A40.73,40.73,0,0,1,1006.23,32.8Z"
                  transform="translate(-0.92 -0.87)"/>
            <path class="cls-51"
                  d="M1029.6,20.64c1.66,0,3.33,0,5,0,1.28,0,2.25.33,2.26,1.94s-.8,2.06-2.16,2.08c-1.83,0-3.67.13-5.49,0-2.36-.16-3.2.82-3.3,3.15-.13,3.1,1.88,2,3.33,1.92,4.79-.09,7.48,2.35,8.23,6.94.71,4.34-.38,8.2-4.7,9.94-3.91,1.57-7.91,1.21-10.89-2.38-.91-1.09-2.18-2.88-1-3.84s3.29-1.15,4.47,1.16a3.6,3.6,0,0,0,5.49,1.55c2.55-1.55,2.7-4.13,1.9-6.62s-2.91-3.41-5.57-2.87c-6.38,1.31-6.38,1.3-5.48-5.09,0-.33.1-.66.14-1C1022.67,20.62,1022.67,20.62,1029.6,20.64Z"
                  transform="translate(-0.92 -0.87)"/>
            <path class="cls-52"
                  d="M1043.39,46.78c3.08-6.74,5.89-13.12,8.9-19.39,1.2-2.5.61-3.26-2-3.16s-5.32,0-8,0c-1,0-2-.18-2.11-1.52-.14-1.57.77-2,2.11-2.05l14,0c2.56,0,2.71,1.44,1.91,3.29-3.09,7.17-6.22,14.31-9.34,21.46C1047.8,47.72,1045.88,47,1043.39,46.78Z"
                  transform="translate(-0.92 -0.87)"/>
            <path class="cls-53"
                  d="M969.37,27.75c-1.67-4.88,2.72-4.46,5-5.41C979.89,20.05,980,20.21,980,26c0,6,0,12,0,18,0,1.43.4,3-2,3.09s-2.71-1.15-2.67-3.08c.08-3.82,0-7.65,0-11.47C975.25,26.36,975.25,26.36,969.37,27.75Z"
                  transform="translate(-0.92 -0.87)"/>
            <path class="cls-54"
                  d="M873.52,21.92c2.29.67,4.91-1.57,5.37,1.68.34,2.37,1.25,5.54-2.62,6.48-2.95.71-5.85.79-7.21-2.47a13.87,13.87,0,0,1-.1-10.23,4.41,4.41,0,0,1,4.25-2.9c1.86-.13,3.73,0,4.78,1.93.45.8,1.32,1.77.33,2.66s-1.68.44-2.49-.48c-3-3.44-3.6-.63-4.15,1.77a12.81,12.81,0,0,0-.1,3c0,1.82-.17,3.82,2.15,4.46a2,2,0,0,0,1.74-.55C877.16,25.14,874.43,24.35,873.52,21.92Z"
                  transform="translate(-0.92 -0.87)"/>
            <path class="cls-54"
                  d="M862.32,30.17c-2.54,0-3.77-.38-4.68-1.5-.53-.65-1-1.41-.44-2.2a1.57,1.57,0,0,1,2.23-.16c1.12.75,2.12,2.76,3.34.34.86-1.71-.15-2.61-1.88-3.24-1.36-.49-1.7-1.73,0-2.37,1.54-.58,2.33-1.59,1.62-3-1-2-2-.47-3.07.24a1.45,1.45,0,0,1-2.16-.37c-.5-.86.18-1.62.74-2.18,1.63-1.62,3.61-1.51,5.55-.75s3,2.56,2.24,4.4c-.79,2-.43,3.53,0,5.5C866.69,28.32,864.67,30.11,862.32,30.17Z"
                  transform="translate(-0.92 -0.87)"/>
            <path class="cls-55"
                  d="M1013.15,47.2c-1.49,0-2.65-.6-2.75-2.14a2.62,2.62,0,1,1,5.23-.3A2.29,2.29,0,0,1,1013.15,47.2Z"
                  transform="translate(-0.92 -0.87)"/>
            <path class="cls-56"
                  d="M1015.66,30.08a2.49,2.49,0,0,1-2.83,2.13c-1.54-.08-2.6-1-2.49-2.45a2.51,2.51,0,0,1,3-2.47A2.6,2.6,0,0,1,1015.66,30.08Z"
                  transform="translate(-0.92 -0.87)"/>
            <path class="cls-57"
                  d="M72.43,872.85c2.33,0,4.66.14,7,.14h923.19c2.33,0,4.66-.09,7-.14.63-.3,1.43-.49,1.9-.06.84.78.32,1.46-.53,1.9a18.3,18.3,0,0,1-7.07,2.26c-1.49.11-3,0-4.5,0q-457.87,0-915.73.05a32.41,32.41,0,0,1-12.15-2.23c-.65-.26-1.8-.45-1.25-1.62S71.65,872.64,72.43,872.85Z"
                  transform="translate(-0.92 -0.87)"/>
            <path class="cls-58"
                  d="M72.43,872.85c-.46.23-1.54.72-1.19.8,3.06.7,5.87,2.44,9.12,2.35,1.17,0,2.33,0,3.5,0q457.67,0,915.34,0c3.92,0,7.72-.33,11.13-2.13,1.66-.87-.47-.68-.73-1.06,2.52-1.19,5.11-2.3,6.71-4.79,2,4.45-1.61,6.2-4.29,7.62a21.51,21.51,0,0,1-10.09,2.37q-460.36-.09-920.71-.14c-5.67,0-11.79-.28-15.19-6.36-.79-1.42-1.86-2.76-1.06-4.55A15.2,15.2,0,0,0,72.43,872.85Z"
                  transform="translate(-0.92 -0.87)"/>
            <path class="cls-59"
                  d="M597.64,816.51c0,3.26,0,5.73,0,8.21,0,1.59,0,3-2.25,3s-2.32-1.24-2.32-2.88q0-14.48,0-29c0-1.54.32-3.86,2.08-2.69,2.87,1.9,4.92,0,7.34-.29a13,13,0,0,1,4.93.2c5.69,1.58,8.56,10.26,6.12,18.06-1.89,6-6.68,8.52-12.9,6.63C599.88,817.61,599.17,817.2,597.64,816.51Z"
                  transform="translate(-0.92 -0.87)"/>
            <path class="cls-60"
                  d="M141.64,795c10.2-4.78,15.19-1.7,15.26,8.56,0,4,0,8,0,12,0,1.45-.05,2.57-2,2.57s-2.64-.64-2.61-2.59c.09-4.65,0-9.3,0-14,0-3.26-1.51-5.11-4.76-5-3.07.12-5.63,1.46-5.8,4.93-.21,4.48-.1,9-.06,13.46,0,1.82,0,3.22-2.54,3.16s-2-1.64-2-3.06c0-9.8,0-19.61,0-29.41,0-1.58,0-3,2.22-2.94s2.38,1.25,2.36,2.91C141.61,788.54,141.64,791.51,141.64,795Z"
                  transform="translate(-0.92 -0.87)"/>
            <path class="cls-60"
                  d="M276.64,794.77a39.65,39.65,0,0,1,5.67-1.89c5.38-.89,9,1.59,9.39,7s.12,10.63.22,15.94c0,1.74-.67,2.28-2.34,2.28s-2.32-.71-2.3-2.38c0-4.65,0-9.3,0-14,0-3.15-1.2-5.26-4.56-5.18s-5.91,1.46-6,5.21c-.15,4.48-.07,9,0,13.46,0,1.65-.12,2.85-2.33,2.87s-2.27-1.24-2.26-2.85q0-15,0-29.91c0-1.44,0-2.6,2-2.64s2.62.83,2.57,2.69C276.58,788.34,276.64,791.31,276.64,794.77Z"
                  transform="translate(-0.92 -0.87)"/>
            <path class="cls-61"
                  d="M478,805.15a13.13,13.13,0,0,1,3-8.7,10.66,10.66,0,0,1,12.66-2.77c3.59,1.79,6.14,7.38,5.55,11.47-.3,2-1.57,1.77-2.85,1.77-3.66,0-7.32.15-11,0-2.85-.14-3,1.19-2.3,3.33,1.52,4.44,6.54,5.93,11.09,3.18,1.26-.76,2.36-2.3,3.72-.47,1.64,2.2-.77,2.92-1.86,3.66a11.27,11.27,0,0,1-11.84.73C479.51,815,478,810.71,478,805.15Z"
                  transform="translate(-0.92 -0.87)"/>
            <path class="cls-61"
                  d="M349,805.18a13.08,13.08,0,0,1,3.36-9.12,10.7,10.7,0,0,1,12.33-2.38c3.59,1.8,6.14,7.41,5.53,11.47-.31,2-1.6,1.75-2.86,1.76-3.66,0-7.32.15-11,0-2.87-.14-3,1.23-2.28,3.34,1.53,4.44,6.54,5.91,11.1,3.15,1.27-.77,2.38-2.28,3.72-.45,1.61,2.2-.79,2.92-1.89,3.66a11.28,11.28,0,0,1-11.84.71C350.49,815,349,810.69,349,805.18Z"
                  transform="translate(-0.92 -0.87)"/>
            <path class="cls-61"
                  d="M308.33,792.71c6.25.13,10.91,6.08,9.94,12.38-.31,2-1.5,1.82-2.8,1.83-3.82,0-7.65.09-11.47,0-2.28-.07-2.44,1-2,2.79,1.14,4.71,6.55,6.61,11.2,3.71,1.52-1,2.92-2.23,4-.15.88,1.62-1,2.56-2.07,3.33a11.52,11.52,0,0,1-10,1.46c-5.85-1.59-9-7.36-8-14.76C298,796.88,302.53,792.59,308.33,792.71Z"
                  transform="translate(-0.92 -0.87)"/>
            <path class="cls-60"
                  d="M504.08,805.23c0-3.33.06-6.66,0-10,0-1.81,1.24-2.94,2.32-2.05,2.71,2.21,4.84.32,7.25-.22,5.73-1.27,9.71,1.41,10.13,7.2.37,5.14.09,10.32.17,15.48,0,1.62-.41,2.38-2.21,2.42-2.13,0-2.46-1-2.44-2.77.06-4.33,0-8.66,0-13,.07-3.51-1-6-5-5.76-3.64.26-5.76,2.19-5.67,6.15.1,4.16,0,8.32,0,12.49,0,1.64-.09,2.86-2.31,2.89s-2.3-1.22-2.28-2.85C504.11,811.89,504.08,808.56,504.08,805.23Z"
                  transform="translate(-0.92 -0.87)"/>
            <path class="cls-61"
                  d="M439,805.51c0-7.72,4.61-12.9,11.44-12.82s11.35,5.29,11.37,13-4.81,13-11.51,12.89S439,813.25,439,805.51Z"
                  transform="translate(-0.92 -0.87)"/>
            <path class="cls-61"
                  d="M568.59,793.57c3.24-1.15,4.88-.44,5.76,2.78,1.21,4.46,3,8.78,4.49,13.15.1.29.41.5.77.92,1.47-4.64,3.11-9.09,4.27-13.67.82-3.27,2.23-4.62,5.73-3.15-3.31,9.53-6.55,19.09-10,28.58-1.17,3.24-3.21,5.88-7.21,5.82-1.15,0-2.43.1-2.49-1.63,0-1.27.28-1.87,1.76-2.36,5-1.67,6.19-4.41,4.41-9.44C573.62,807.57,571.1,800.58,568.59,793.57Z"
                  transform="translate(-0.92 -0.87)"/>
            <path class="cls-59"
                  d="M183.29,818.6c-3.42-.22-6.66-1-8.7-4-.81-1.19-2.67-2.87-.56-4.17,1.27-.78,3-.55,4,1.56,1.43,3,4.29,3.36,7.26,2.63,1.48-.36,2.87-1,3.06-2.84.2-2-.89-3.14-2.62-3.7-2.36-.77-4.81-1.28-7.13-2.17-2.61-1-4.59-2.66-4.62-5.82s1.85-5.23,4.56-6.51c4.43-2.08,10.9-.62,13,3,.64,1.1,2.23,2.72.26,3.81a2.57,2.57,0,0,1-3.81-1.1c-1.27-2.67-3.56-3.26-6.25-2.8-1.79.31-3.16,1.22-3.28,3.18-.11,1.8,1.2,2.64,2.68,3.14s2.88.77,4.32,1.18c5.73,1.66,8.08,4.31,7.39,8.32C192.25,816,188.32,818.61,183.29,818.6Z"
                  transform="translate(-0.92 -0.87)"/>
            <path class="cls-59"
                  d="M230.38,818.61c-3.8-.23-7.26-1.2-9.28-4.78-.57-1-1.91-2.51-.16-3.4,1.2-.61,3-.84,3.84,1,1.38,3.19,4,3.77,7,3.28,1.85-.3,3.64-1.07,3.66-3.38,0-2-1.31-2.93-3-3.44-2.22-.66-4.5-1.17-6.66-2-2.81-1.07-4.86-2.88-4.69-6.27s2.2-5.11,4.93-6.27c4.17-1.76,10.05-.47,12.28,2.73.85,1.22,2.59,2.87.66,4.21-1.26.87-3,.66-4.07-1.38-1.46-2.75-4.07-3.06-6.91-2.21a3.13,3.13,0,0,0-2.41,2.85,2.8,2.8,0,0,0,2.15,3c1.57.53,3.17.94,4.76,1.4,5.78,1.68,8.12,4.25,7.49,8.25C239.31,816,235.43,818.57,230.38,818.61Z"
                  transform="translate(-0.92 -0.87)"/>
            <path class="cls-61"
                  d="M394,793.4c-2.11,3.19-3.73,6.11-5.82,8.66s-1.84,4.47.11,6.9,3.72,5.48,5.58,8.29c-3.72.84-3.72.84-10.22-7.76-3.57,2.45-2.95,9.88-9.92,8.36-.06-.3-.26-.67-.15-.84,2.43-3.94,6.8-7.86,6.8-11.78s-4.4-7.78-7-11.86c4.42-.3,4.42-.3,10.22,8.41a71.4,71.4,0,0,0,3.84-6.28C388.76,792.77,390.88,792.77,394,793.4Z"
                  transform="translate(-0.92 -0.87)"/>
            <path class="cls-59"
                  d="M117.81,803.39c0-1.83,0-3.65,0-5.48-.06-3,.83-6.56-.53-8.75s-5.21-.6-8-.88c-1.23-.13-2.29-.13-2.28-1.83,0-1.52.72-2,2.12-2q11,0,21.91,0c1.53,0,1.95.81,1.94,2.2s-.81,1.57-1.91,1.66c-2.77.23-6.55-1.3-8.08.69-2.06,2.66-.61,6.69-.71,10.13-.14,5.14,0,10.29-.07,15.44,0,1.45.81,3.42-2,3.53-3.18.11-2.33-2.08-2.36-3.71C117.76,810.69,117.81,807,117.81,803.39Z"
                  transform="translate(-0.92 -0.87)"/>
            <path class="cls-59"
                  d="M529,805.67c.06-9.18,5.72-14.29,13.58-12.74a8.36,8.36,0,0,1,5.7,3.68c1,1.51,3,3.55.71,5.06-1.85,1.23-3.19-.47-4-2.4a4.4,4.4,0,0,0-2-2.11c-3.05-1.51-5.86-1-8,1.75-2.73,3.62-2,12.59,1.33,14.79,3,2,6,1.63,8.48-1.11a2.69,2.69,0,0,0,.51-.85,2.48,2.48,0,0,1,4-1.3c1.42,1.14-.09,2.73-.87,3.85-4.5,6.4-14.8,5.39-18.18-1.75A14,14,0,0,1,529,805.67Z"
                  transform="translate(-0.92 -0.87)"/>
            <path class="cls-61"
                  d="M264.47,818.58c-3.38-.31-5.46-1.91-5.61-5.3-.17-3.65,0-7.32-.22-11-.12-2.48,1.43-6.07-3.49-5.84-1,0-1.07-1.08-1-1.94a1.31,1.31,0,0,1,1.59-1.42c3.07.39,3.16-1.52,3-3.69-.13-1.62.45-2.44,2.25-2.39,1.47,0,2.2.54,2.06,2-.25,2.57-.06,4.65,3.47,4.12,1-.15,1.33.72,1.32,1.66a1.6,1.6,0,0,1-1.9,1.75c-3.16-.35-2.92,1.68-2.89,3.76.06,3.49,0,7,0,10.48,0,1.78.24,3.42,2.36,3.79,1.3.23,2.82,0,2.5,2.1S265.66,818.22,264.47,818.58Z"
                  transform="translate(-0.92 -0.87)"/>
            <path class="cls-61"
                  d="M343.08,818.6c-3.79-.19-6.06-1.75-6.23-5.41s-.07-7.31-.19-11c-.08-2.56,1.23-6-3.58-5.8-.94,0-1-1.14-1-2s.45-1.36,1.18-1.28c3,.35,3.73-1.22,3.41-3.83-.21-1.69.6-2.31,2.32-2.31,2,0,2.09,1.22,2,2.61-.19,2.26.09,3.94,3.06,3.48,1.16-.18,1.81.54,1.73,1.8a1.63,1.63,0,0,1-2,1.68c-2.71-.3-2.88,1.26-2.82,3.34.11,3.66,0,7.32,0,11,0,1.81.33,3.42,2.44,3.71,1.4.19,2.7.18,2.42,2.18S343.79,818,343.08,818.6Z"
                  transform="translate(-0.92 -0.87)"/>
            <path class="cls-61"
                  d="M405.69,818.6c-3.66-.35-5.69-2-5.84-5.38-.16-3.65,0-7.32-.2-11-.11-2.51,1.36-6.07-3.54-5.81-.94,0-1-1.12-1-2s.41-1.39,1.15-1.31c3,.32,3.79-1.14,3.44-3.8-.21-1.65.53-2.34,2.28-2.34,2,0,2.12,1.15,2,2.58-.17,2.2,0,4,3,3.51,1.13-.18,1.84.47,1.77,1.77a1.63,1.63,0,0,1-2,1.71c-2.66-.29-2.93,1.18-2.85,3.31.13,3.66.05,7.32,0,11,0,1.79.29,3.42,2.41,3.74,1.36.21,2.76.12,2.45,2.15C408.5,819,406.48,818,405.69,818.6Z"
                  transform="translate(-0.92 -0.87)"/>
            <path class="cls-61"
                  d="M432.47,818.58c-3.38-.31-5.46-1.91-5.61-5.31-.17-3.65,0-7.32-.21-11-.12-2.48,1.42-6.07-3.5-5.84-.95,0-1.06-1.08-1-1.94a1.31,1.31,0,0,1,1.6-1.41c3.08.39,3.15-1.53,3-3.7-.13-1.62.46-2.43,2.25-2.38,1.47,0,2.2.55,2.05,2-.25,2.58,0,4.65,3.47,4.11,1-.15,1.33.72,1.31,1.67a1.6,1.6,0,0,1-1.9,1.75c-3.17-.35-2.92,1.7-2.88,3.77.06,3.49,0,7,0,10.48,0,1.78.25,3.42,2.36,3.79,1.31.23,2.82,0,2.49,2.1S433.65,818.23,432.47,818.58Z"
                  transform="translate(-0.92 -0.87)"/>
            <path class="cls-61"
                  d="M626.56,818.58c-3.65-.26-5.65-2.11-5.76-5.69-.12-4.15-.14-8.31-.11-12.47,0-2.12.13-4.1-2.94-3.85-1.25.1-1.68-.75-1.66-1.94s.55-1.63,1.5-1.51c2.9.35,3.34-1.27,3.1-3.6-.16-1.52.24-2.48,2.13-2.51s2.25.85,2.19,2.43c-.07,2-.49,4.22,2.84,3.67,1-.17,2,.23,1.93,1.61,0,1.23-.65,2-1.8,1.85-3-.33-3.08,1.45-3,3.67.11,3.49,0,7,0,10.48,0,1.75.13,3.51,2.25,3.86,1.6.26,3.16.36,2.55,2.52C629.34,818.74,627.68,818.31,626.56,818.58Z"
                  transform="translate(-0.92 -0.87)"/>
            <path class="cls-62"
                  d="M555.07,805.5c0-3.31,0-6.62,0-9.94,0-1.08-.21-2.86,1.48-2.4,3,.83,5.74.37,8.61-.41,1.32-.36,2.17.41,2.12,1.94,0,1.22,0,2.31-1.77,2.28-5.33-.09-6.11,3.28-5.9,7.62.18,3.63,0,7.29.06,10.93.06,2-.79,2.53-2.66,2.53-2,0-2-1.24-2-2.62C555.08,812.13,555.07,808.82,555.07,805.5Z"
                  transform="translate(-0.92 -0.87)"/>
            <path class="cls-63"
                  d="M1018.13,736c1.2,1.24.86,2.8.86,4.26q0,60.86,0,121.71a21.06,21.06,0,0,1-.32,2.85c0,.06-.29.12-.42.1a1.5,1.5,0,0,1-.43-.24q.09-34.91.19-69.82Q1018.07,765.46,1018.13,736Z"
                  transform="translate(-0.92 -0.87)"/>
            <path class="cls-58"
                  d="M64.05,863.9c-2.14-.38-1-2-1-3Q63,801.1,63,741.3c0-1.46-.34-3,.85-4.26q.08,47.95.17,95.9Q64.05,848.42,64.05,863.9Z"
                  transform="translate(-0.92 -0.87)"/>
            <path class="cls-64"
                  d="M215,805.53c0,3.32,0,6.63,0,10,0,1.39.06,2.61-2,2.6-1.87,0-2.68-.55-2.66-2.54.08-6.63.07-13.27,0-19.9,0-1.88.63-2.65,2.6-2.64s2,1.16,2,2.58C215,798.89,215,802.21,215,805.53Z"
                  transform="translate(-0.92 -0.87)"/>
            <path class="cls-64"
                  d="M168,805.6c0,3.32,0,6.64,0,10,0,1.48-.11,2.52-2.07,2.53s-2.61-.7-2.59-2.62q.11-10,0-19.9c0-1.95.78-2.58,2.67-2.56,2,0,2,1.29,2,2.65Q168,800.62,168,805.6Z"
                  transform="translate(-0.92 -0.87)"/>
            <path class="cls-65"
                  d="M663.74,815.66a2.53,2.53,0,0,1-2.47,2.58c-1.75.14-3-.62-3.06-2.45a2.49,2.49,0,0,1,2.4-2.7C662.4,812.9,663.34,814,663.74,815.66Z"
                  transform="translate(-0.92 -0.87)"/>
            <path class="cls-65"
                  d="M648.94,813.05c1.8.19,2.82,1.22,2.72,2.95-.09,1.55-1.23,2.27-2.76,2.26s-2.62-.77-2.69-2.33C646.14,814.16,647.21,813.22,648.94,813.05Z"
                  transform="translate(-0.92 -0.87)"/>
            <path class="cls-65"
                  d="M639.73,815.55a2.52,2.52,0,0,1-2.43,2.69c-1.73.16-3-.57-3.1-2.4a2.49,2.49,0,0,1,2.35-2.73C638.36,812.87,639.29,814,639.73,815.55Z"
                  transform="translate(-0.92 -0.87)"/>
            <path class="cls-66"
                  d="M168.27,786.59c-.25,1.74-1.13,2.47-2.68,2.41a2.26,2.26,0,0,1-2.43-2.44,2.4,2.4,0,0,1,2.92-2.46A2.35,2.35,0,0,1,168.27,786.59Z"
                  transform="translate(-0.92 -0.87)"/>
            <path class="cls-66"
                  d="M215.26,786.61a2.55,2.55,0,0,1-5.09.13,2.36,2.36,0,0,1,2.72-2.65C214.46,784.13,215.13,785.15,215.26,786.61Z"
                  transform="translate(-0.92 -0.87)"/>
            <path class="cls-67"
                  d="M826,494c.3,4.65-2.84,8.47-3.14,13-6,22.61-18.71,41-35.94,56.42C745,600.91,694.68,618.7,639.77,625.56c-14.7,1.84-29.5,3.19-44.28,2.86C552.19,627.43,510,620.66,470,603c-23.77-10.51-45.73-23.92-64.38-42.28-1.86-1.83-4-3.58-3.84-6.65,9,2.13,18.05,4.29,27.09,6.38a503.68,503.68,0,0,0,56.77,9.62c13.35,1.52,26.75,2.17,40.12,3.16a351.52,351.52,0,0,0,42.38.53c18.16-.85,36.33-2.14,54.43-4.52a535.3,535.3,0,0,0,68.25-13.3,443.89,443.89,0,0,0,71.3-25.41A363.81,363.81,0,0,0,822.09,496C823.27,495.14,824.36,494,826,494Z"
                  transform="translate(-0.92 -0.87)"/>
            <path class="cls-8"
                  d="M516,494.2c0-15,.51-30-.18-45-.44-9.45,8.35-17.55,17.63-17.36,21.82.44,43.65,0,65.48.24,4.19,0,5.28-1.12,5.19-5.25q-.42-18.49-.06-37c.37-20.44,12.92-35.51,30.29-40.21,22.94-6.21,46.43,9.38,49.8,33.05,1.63,11.46.37,22.94.88,34.4.09,2.13-.66,3.15-2.85,2.89a3,3,0,0,0-.5,0c-10.66.54-10.66.54-10.66-10.06,0-7.33,0-14.66,0-22,0-13-10.6-24.92-23-25.93-14.46-1.19-26.4,7.42-29.12,20.84a46.06,46.06,0,0,0-.91,9.4c0,11.66.14,23.33-.06,35-.06,3.5.54,4.93,4.54,4.87,11.32-.17,17.62,6.26,17.63,17.44,0,29.82-.2,59.65.13,89.47.11,9.85-6.22,17.79-17.64,17.88-29.66.25-59.32.2-89,0-10.63-.06-18.16-7.44-17.75-18.26C516.42,523.87,516,509,516,494.2Z"
                  transform="translate(-0.92 -0.87)"/>
            <path class="cls-68"
                  d="M401.8,554.07c11.64,13.76,26,24.23,41.33,33.37,28.68,17.1,59.8,27.61,92.56,33.63a322.07,322.07,0,0,0,63.45,5.74C649.92,626,698.86,616.6,744,592c26.56-14.5,50-32.77,66.31-58.9,5.16-8.25,8.76-17.25,12.62-26.13,0,5.88-2.39,11.18-4.31,16.54-5.87,16.43-16.08,30.29-28.33,42.21a214.94,214.94,0,0,1-43.82,33.08c-22.37,12.72-46.17,21.08-70.79,27.29a264.5,264.5,0,0,1-58.38,8.27c-8.27.2-16.6.69-24.88.59-26.58-.33-52.82-3.23-78.56-10.39-19.74-5.49-39.11-11.74-57.32-21.29-21.37-11.2-40.74-25.11-56.79-43.2a129.85,129.85,0,0,1-24.37-39.63c-1-2.69-2.25-5.5-1.09-8.53,6.33,14.95,14.62,28.65,25.71,40.58A22.36,22.36,0,0,0,401.8,554.07Z"
                  transform="translate(-0.92 -0.87)"/>
            <path class="cls-68"
                  d="M399,399c-2.42-2.75-5.93-3.65-9.09-4.93-19.17-7.76-34.17-20.84-46.87-36.72-4.52-5.65-8.08-12.06-11.94-18.22a6.08,6.08,0,0,0-5.73-3.13q-22.55,0-45,1.66a49.6,49.6,0,0,1-12.32-.9c-5.63-1-5.2-5.59-5-9.84,8,4.23,16.52,1.55,24.8,1.83,3.43.11,6.87-.49,10.31-.62,10.27-.4,20.54-.74,30.81-1.1,11,23.19,27.54,41.28,50.29,53.41,4.49,2.4,9.29,4.22,13.93,6.35C399.67,389.72,401.5,393.6,399,399Z"
                  transform="translate(-0.92 -0.87)"/>
            <path class="cls-68"
                  d="M281,293.83c-2.31-2.85-5.57-4.59-8.25-7-10-9-17.36-19.72-21.4-32.6-.52-1.67-.19-3.61-.25-5.42,7.5,18.39,20.47,31.72,38.84,41.2Z"
                  transform="translate(-0.92 -0.87)"/>
            <path class="cls-69" d="M1016.67,137.65a9.14,9.14,0,1,1-9.15-9.28A9.28,9.28,0,0,1,1016.67,137.65Z"
                  transform="translate(-0.92 -0.87)"/>
            <path class="cls-70"
                  d="M985,1700.29h30.75c1.78,0,2.18-1.17,2.17-2.67,0-1.67.07-3.33,0-5-.07-1.92.77-2.68,2.69-2.62,1.65.05,2.44.68,2.43,2.38q0,5.5,0,11c0,2.87-2,2.52-3.83,2.53-9.83,0-19.67,0-29.5,0-1.6,0-3.28-.46-6.28,1.28,2.63,2.16,4.9,4,7.14,5.88,1.3,1.1,1.84,2.24.41,3.78s-2.75,1.27-4.15-.17c-3.73-3.81-7.48-7.61-11.33-11.29-1.7-1.63-1.78-2.86,0-4.52,3.85-3.68,7.59-7.49,11.33-11.3,1.35-1.38,2.48-2,4.13-.3s.81,2.94-.58,4.11c-2.12,1.78-4.28,3.52-6.42,5.28Z"
                  transform="translate(-0.92 -0.87)"/>
            <path class="cls-71"
                  d="M1007.21,1534.41a68.79,68.79,0,0,1-6.18-5c-1.27-1.28-4.26-2.33-1.7-5.09s3.87,0,5.25,1.23c6.36,5.68,6.3,5.73,12.66-.24,1.38-1.29,2.55-3.36,4.83-1,2,2.09.31,3.14-.89,4.49-6,6.81-6,6.86.36,13.74,1.31,1.41,2.1,2.42.49,4.13s-2.85,1.06-4.12-.34a4.9,4.9,0,0,0-.36-.35c-6.67-6-6.69-6.06-13.62.26-1.46,1.33-2.64,2.46-4.55.51s-.49-3.18.81-4.48c1.53-1.52,3.08-3,4.59-4.57A8.67,8.67,0,0,0,1007.21,1534.41Z"
                  transform="translate(-0.92 -0.87)"/>
            <path class="cls-72"
                  d="M549.18,1377.24c0,1.67-.11,3.34,0,5,.34,4.23-1.9,6.72-5.64,7.67-4,1-7.87.34-10-3.69a19.49,19.49,0,0,1,0-18.25c2-4,5.86-4.86,9.89-3.83s6.17,3.7,5.71,8.11A49.05,49.05,0,0,0,549.18,1377.24Z"
                  transform="translate(-0.92 -0.87)"/>
            <path class="cls-72"
                  d="M333.16,1377.14c0,1.66-.12,3.33,0,5,.38,4.18-1.74,6.76-5.46,7.75-4.15,1.11-8.18.37-10.29-3.84a19.36,19.36,0,0,1,.17-18.16c2.14-4.17,6.24-4.81,10.36-3.62,3.73,1.08,5.68,3.78,5.22,7.92A45.51,45.51,0,0,0,333.16,1377.14Z"
                  transform="translate(-0.92 -0.87)"/>
            <path class="cls-72"
                  d="M63.13,1212.09a44.74,44.74,0,0,0,0,5c.46,4.11-1.29,6.84-5.15,7.91-4.18,1.16-8.17.5-10.37-3.65a19.05,19.05,0,0,1,.08-18.59c2.2-4.16,6.24-4.77,10.4-3.61,3.87,1.08,5.53,3.89,5,8A42.34,42.34,0,0,0,63.13,1212.09Z"
                  transform="translate(-0.92 -0.87)"/>
            <path class="cls-72"
                  d="M640.91,1542.11c0-1.66.08-3.32,0-5-.28-4.65,2.28-7.2,6.43-8.08s8,.29,9.9,4.65a20.94,20.94,0,0,1,.26,16c-1.61,4.41-5.28,6.35-10,5.33-4.4-1-7-3.61-6.62-8.45C641,1545.11,640.91,1543.61,640.91,1542.11Z"
                  transform="translate(-0.92 -0.87)"/>
            <path class="cls-72"
                  d="M1018.91,1212.23a45.18,45.18,0,0,0,0-5c-.49-4.38,1.59-7.1,5.59-8.12,4.22-1.07,8.12-.06,10.24,4.06a18.87,18.87,0,0,1-.19,18.14c-2.19,4.15-6.19,4.79-10.36,3.67-3.84-1-5.71-3.67-5.27-7.81A47.26,47.26,0,0,0,1018.91,1212.23Z"
                  transform="translate(-0.92 -0.87)"/>
            <path class="cls-73"
                  d="M111.22,1377.64c1.93.59,4.71-1.06,5.36,1.42s1,5.67-1.37,8a10.33,10.33,0,0,1-7.62,3.11c-3.35-.06-5.95-1.3-6.57-4.82-.67-3.8,1.47-6,4.93-6.9A43.82,43.82,0,0,1,111.22,1377.64Z"
                  transform="translate(-0.92 -0.87)"/>
            <path class="cls-74"
                  d="M271.18,1208.73a19.4,19.4,0,0,1-3,0c-1.71-.27-4.11,1-5-.89-1-2.09.66-4.13,1.91-5.86,2.07-2.87,5-3.61,8.38-3.13,3.18.44,4.88,2.53,6,5.3,1.38,3.37.6,5.06-3.35,4.64A47.17,47.17,0,0,0,271.18,1208.73Z"
                  transform="translate(-0.92 -0.87)"/>
            <path class="cls-72"
                  d="M929.31,1213.42a15.14,15.14,0,0,1-1.74,7.11c-3.55,6.41-12.27,6.86-16,.56a17.35,17.35,0,0,1,0-18.09c3.39-6,11.51-5.9,15.42-.21C929,1205.69,929.38,1209,929.31,1213.42Z"
                  transform="translate(-0.92 -0.87)"/>
            <path class="cls-75"
                  d="M844.64,1162.82c2.1.11,3.13,1.07,3.13,2.81a2.88,2.88,0,1,1-5.75-.16A2.59,2.59,0,0,1,844.64,1162.82Z"
                  transform="translate(-0.92 -0.87)"/>
            <path class="cls-76"
                  d="M847.19,1155.81c-.08,1.78-.7,2.94-2.27,2.91-1.78,0-2.56-1.36-2.44-3a2.31,2.31,0,0,1,2.57-2.34A2.22,2.22,0,0,1,847.19,1155.81Z"
                  transform="translate(-0.92 -0.87)"/>
            <path class="cls-74"
                  d="M1057.84,1160.82c.53-2.75-1.11-7.24,3.15-7.13,4,.1,2.89,4.51,2.89,7.28s1.08,7.28-2.84,7.31C1056.4,1168.32,1058.53,1163.53,1057.84,1160.82Z"
                  transform="translate(-0.92 -0.87)"/>
            <path class="cls-77"
                  d="M632.1,1164.23c.06,2.32-.61,4.18-2.8,4.28-2.55.12-3.16-2-3.29-4.12-.13-2,.81-3.25,2.81-3.37C631.17,1160.88,631.94,1162.47,632.1,1164.23Z"
                  transform="translate(-0.92 -0.87)"/>
            <path class="cls-78"
                  d="M955.8,1157.5c0,2.37-.83,3.66-2.91,3.65-2.44,0-3-1.75-3-3.75s.63-3.94,2.86-3.94C955.45,1153.48,955.27,1156.08,955.8,1157.5Z"
                  transform="translate(-0.92 -0.87)"/>
            <path class="cls-79"
                  d="M413.43,1157.91c.48,1.94,1.59,4-.48,5.64-.48.37-2.17.17-2.27-.13C409.82,1161,412.16,1159.75,413.43,1157.91Z"
                  transform="translate(-0.92 -0.87)"/>
            <path class="cls-80"
                  d="M1028.06,1871.88c-2.31,0-4.63-.11-6.93,0s-3.29-.37-3.24-2.93,1.28-2.58,3.13-2.56c5.12.06,10.24.11,15.35,0,2.3-.06,2.72,1,2.72,3s-.69,2.62-2.61,2.54C1033.68,1871.79,1030.87,1871.88,1028.06,1871.88Z"
                  transform="translate(-0.92 -0.87)"/>
            <path class="cls-81"
                  d="M1015.57,1858.51c.36,2.31-.88,2.78-2.91,2.77s-2.54-.72-2.61-2.64c-.09-2.33,1-2.75,3-2.74S1015.87,1856.49,1015.57,1858.51Z"
                  transform="translate(-0.92 -0.87)"/>
            <path class="cls-81"
                  d="M1013.19,1853.18c-2.24.33-3.19-.39-3.14-2.67,0-1.94.66-2.6,2.6-2.61s3.12.39,3,2.73C1015.54,1852.46,1015.12,1853.59,1013.19,1853.18Z"
                  transform="translate(-0.92 -0.87)"/>
            <path d="M1038.94,1858.25c.24,1.91,0,3-2.18,3-1.85-.06-3.13-.16-3-2.56.11-1.64.14-2.85,2.31-2.69C1037.81,1856.09,1039.62,1855.8,1038.94,1858.25Z"
                  transform="translate(-0.92 -0.87)"/>
            <path d="M1031.09,1858.47c.48,2.64-1,2.66-2.85,2.74-2.18.1-2.17-1.1-2.29-2.72-.18-2.42,1.11-2.5,3-2.53C1031,1855.92,1031.51,1856.84,1031.09,1858.47Z"
                  transform="translate(-0.92 -0.87)"/>
            <path d="M1020.53,1856c1.74-.25,2.73.17,2.69,2.26,0,1.91-.28,2.95-2.61,3s-2.66-.88-2.67-2.88S1018.7,1855.73,1020.53,1856Z"
                  transform="translate(-0.92 -0.87)"/>
            <path d="M1047,1850.07c.08,1.77.26,3.26-2.07,3.13-1.68-.09-3.2.16-3.13-2.4.06-2,.4-3,2.67-2.84C1046.1,1848.08,1047.5,1848.08,1047,1850.07Z"
                  transform="translate(-0.92 -0.87)"/>
            <path d="M1036.1,1848.06c1.88-.24,3,0,2.95,2.17-.08,1.8-.07,3.17-2.52,3-1.62-.12-2.88-.1-2.73-2.3C1033.92,1849.21,1033.65,1847.4,1036.1,1848.06Z"
                  transform="translate(-0.92 -0.87)"/>
            <path d="M1028.6,1853.1c-2.71.48-2.53-1.18-2.64-2.91-.15-2.26,1.18-2.11,2.75-2.24,2.46-.2,2.45,1.21,2.5,3C1031.26,1853.12,1030.15,1853.42,1028.6,1853.1Z"
                  transform="translate(-0.92 -0.87)"/>
            <path d="M1023,1849.87c.46,3.51-1.17,3.19-2.64,3.33-2.59.24-2.28-1.43-2.37-3.09-.15-2.83,1.86-2,3.31-2.09C1023.79,1847.84,1023,1849.76,1023,1849.87Z"
                  transform="translate(-0.92 -0.87)"/>
            <path d="M1047,1858.41c.18,1.66,0,2.89-2.17,2.8-1.8-.07-3.18-.08-3-2.52.12-1.59,0-2.86,2.27-2.74C1045.82,1856.06,1047.44,1855.92,1047,1858.41Z"
                  transform="translate(-0.92 -0.87)"/>
            <path d="M559.8,1858A18.78,18.78,0,1,1,541,1839.26,18.84,18.84,0,0,1,559.8,1858Z"
                  transform="translate(-0.92 -0.87)"/>
            <path class="cls-82" d="M254.82,1842.52l-17.45,30.17-18.14-30.17Z" transform="translate(-0.92 -0.87)"/>
            <path class="cls-82"
                  d="M860.65,1841.19l1.09.88c1.53,2.45.65,5.16.71,7.73.14,6.83.05,13.66,0,20.49,0,1.81.3,3.73-1.54,5-10.42.48-20.84.09-31.26.22a1.46,1.46,0,0,1-1.56-.89l0,.28h.28c-1.68-1.25-.81-3-.83-4.54-.09-8.73,0-17.45,0-26.18-.08-1.89.67-3.56,2.62-3.53C840.31,1840.8,850.51,1839.68,860.65,1841.19Z"
                  transform="translate(-0.92 -0.87)"/>
            <path class="cls-83"
                  d="M860.65,1841.19c-9.38.09-18.75.19-28.13.25-2,0-4.06-.25-4.38,2.56q-.57.83-1.14,0c-.13-2.64,1-4,3.77-4,9.75,0,19.49,0,29.24,0a1,1,0,0,1,.79.33C860.91,1840.54,860.72,1840.9,860.65,1841.19Z"
                  transform="translate(-0.92 -0.87)"/>
            <path class="cls-42"
                  d="M860.93,1874.81c1.58-6.72.35-13.53.67-20.29.19-4.14.1-8.3.13-12.45.38.51,1.09,1,1.09,1.52q.13,14.86.09,29.71A3,3,0,0,1,861,1876Q860.11,1875.45,860.93,1874.81Z"
                  transform="translate(-0.92 -0.87)"/>
            <path class="cls-42" d="M860.93,1874.81,861,1876c-9.32,0-18.64,0-28,0-1.7,0-3.76.79-4.92-1.37Z"
                  transform="translate(-0.92 -0.87)"/>
            <path class="cls-43"
                  d="M827,1844h1.14q.12,15.43.24,30.86c-2.14-1.17-1.33-3.22-1.35-4.92C827,1861.29,827,1852.65,827,1844Z"
                  transform="translate(-0.92 -0.87)"/>
            <path class="cls-84"
                  d="M943,33.07l-10.28,9.74c-2.07-.45-1.17-1.74-.82-2.88.07-.77,0-1.6.79-2.09,2-2.13,3.36-4.24-1.09-4.77-2.32-.27-2.49-1.18-2.13-3.28,1.35-7.88,1.84-8.27,9.27-7.85,3.19.18,2.79,1.34,1.45,3.26-1.2,1.72-2.37,3.46-3.51,5.12C938.64,32.19,942.21,29.29,943,33.07Z"
                  transform="translate(-0.92 -0.87)"/>
            <path class="cls-85"
                  d="M931.93,39.93c.33.94-.23,2.14.82,2.88a2.46,2.46,0,0,1-2.39,2.06A6.1,6.1,0,0,1,931.93,39.93Z"
                  transform="translate(-0.92 -0.87)"/>
            <path class="cls-86"
                  d="M1001.89,33.84c-.28,2.44-.46,4.59-.79,6.72a3.46,3.46,0,0,1-3.36,3.14A3.36,3.36,0,0,1,994,41a31.09,31.09,0,0,1,0-14.35,3.59,3.59,0,0,1,6.94,0C1001.48,29.11,1001.62,31.62,1001.89,33.84Z"
                  transform="translate(-0.92 -0.87)"/>
            <path class="cls-87"
                  d="M609.94,805.46c-.33,3.14-.54,6-2.9,8a5.62,5.62,0,0,1-6.05,1c-2.25-.89-3.49-2.36-3.37-4.9a49.19,49.19,0,0,0,0-6c-.29-3.8.66-6.67,5-7,4.09-.32,6,2.11,6.83,5.75C609.71,803.45,609.82,804.61,609.94,805.46Z"
                  transform="translate(-0.92 -0.87)"/>
            <path class="cls-88"
                  d="M488.8,803.47c-1.85-1.29-5.36,1.41-5.6-1.93-.21-2.92,2.39-5,5.59-5.18s5.8,1.91,5.67,4.94C494.29,805.46,490.49,801.84,488.8,803.47Z"
                  transform="translate(-0.92 -0.87)"/>
            <path class="cls-88"
                  d="M359.49,803.46c-1.6-1.46-5.25,1.67-5.28-2.1,0-2.94,2.55-5,5.78-5s5.79,2.17,5.48,5.12C365.09,805.11,361.45,802.11,359.49,803.46Z"
                  transform="translate(-0.92 -0.87)"/>
            <path class="cls-88"
                  d="M307.36,803.4c-1.65-1.17-5,1.55-5.18-1.71s2.52-5.35,6-5.33,5.77,2.36,5.34,5.26C313,804.95,309.4,802.25,307.36,803.4Z"
                  transform="translate(-0.92 -0.87)"/>
            <path class="cls-87"
                  d="M457.22,805.48c0,3.45-.5,6.75-3.85,8.6-3.07,1.7-5.83.89-8-1.74-2.55-3.09-2.45-10.61.14-13.64,2.26-2.65,5.13-3.14,8.05-1.44S457.32,802.16,457.22,805.48Z"
                  transform="translate(-0.92 -0.87)"/>
            <path class="cls-9"
                  d="M578.13,519c-5,0-10-.09-15,0-2.79.07-3.29-.58-2.42-3.44,2.68-8.82,4.81-17.81,7.44-26.65.74-2.5.77-4-1.28-6-6.57-6.7-6.49-16.52-.27-22.79,5.92-6,16.34-6.1,22.55-.28,6.52,6.1,6.69,16.31-.06,23.17-1.85,1.88-1.61,3.27-1.08,5.19,2.5,8.92,4.91,17.86,7.54,26.74.89,3,.52,4.28-2.94,4.13C587.8,518.84,583,519,578.13,519Z"
                  transform="translate(-0.92 -0.87)"/>
        </g>
    </g>
</svg>