<svg xmlns="http://www.w3.org/2000/svg" viewBox="0 0 328.53 385.09"> <defs> <style>.cls-1{fill:#fff;}.cls-2{fill:#a4c439;}</style> </defs> <title>Android Logo Badge</title> <g id="Layer_2" data-name="Layer 2"> <g id="Layer_1-2" data-name="Layer 1"> <path class="cls-1" d="M31.11,276.57A31.12,31.12,0,0,1,0,245.47V150.25a31.1,31.1,0,0,1,62.19,0v95.23a31.09,31.09,0,0,1-31.08,31.1"/> <path class="cls-1" d="M31.08,127.52A22.74,22.74,0,0,0,8.35,150.25l0,95.21a22.73,22.73,0,1,0,45.47,0V150.24a22.75,22.75,0,0,0-22.75-22.72"/> <path class="cls-1" d="M275,132.23h-8.36l-204.81,0H53.45V123.9c0-34.32,18.68-66.24,49.3-85.1L90.84,17.06a11.43,11.43,0,0,1-1-8.72A11.55,11.55,0,0,1,95.49,1.4,11.14,11.14,0,0,1,100.94,0a11.53,11.53,0,0,1,10.12,6l12.46,22.7a119.66,119.66,0,0,1,81.48,0L217.44,6a11.52,11.52,0,1,1,20.18,11.1l-11.9,21.72C256.3,57.71,275,89.61,275,123.87Z"/> <path class="cls-1" d="M214.44,42,230.3,13a3.15,3.15,0,1,0-5.52-3l-16,29.27a110.84,110.84,0,0,0-89,0L103.71,10a3.15,3.15,0,1,0-5.52,3l15.88,29c-31.2,16.09-52.27,46.73-52.25,81.9l204.81,0c0-35.17-21-65.74-52.18-81.86M117.62,86.8a8.59,8.59,0,1,1,8.6-8.58,8.59,8.59,0,0,1-8.6,8.58m93.26,0a8.59,8.59,0,1,1,8.57-8.58,8.57,8.57,0,0,1-8.57,8.58"/> <path class="cls-1" d="M126.2,385.09A31.13,31.13,0,0,1,95.11,354V312H86.93a32.6,32.6,0,0,1-32.62-32.63l0-147.53v-8.37h8.36l203.28,0h8.36v8.36l0,147.55A32.66,32.66,0,0,1,241.67,312h-8.22v42a31.13,31.13,0,0,1-31.08,31.1A31.11,31.11,0,0,1,171.27,354V312h-14v42a31.14,31.14,0,0,1-31.1,31.11"/> <path class="cls-1" d="M62.68,279.35a24.22,24.22,0,0,0,24.26,24.28h16.52l0,50.38a22.73,22.73,0,1,0,45.45,0V303.62h30.7V354a22.74,22.74,0,0,0,45.49,0V303.61h16.58a24.28,24.28,0,0,0,24.26-24.27l0-147.56-203.27,0Z"/> <path class="cls-1" d="M297.45,276.53a31.11,31.11,0,0,1-31.09-31.09l0-95.22a31.09,31.09,0,1,1,62.19,0v95.21a31.12,31.12,0,0,1-31.08,31.1"/> <path class="cls-1" d="M297.42,127.48a22.73,22.73,0,0,0-22.73,22.74v95.21a22.74,22.74,0,1,0,45.47,0l0-95.21a22.73,22.73,0,0,0-22.73-22.74"/> <path class="cls-2" d="M31.08,127.52A22.74,22.74,0,0,0,8.35,150.25l0,95.21a22.73,22.73,0,1,0,45.47,0V150.24a22.75,22.75,0,0,0-22.75-22.72M214.44,42,230.3,13a3.15,3.15,0,1,0-5.52-3l-16,29.28a110.79,110.79,0,0,0-89,0L103.71,10a3.15,3.15,0,1,0-5.52,3l15.88,29c-31.2,16.09-52.27,46.72-52.25,81.9l204.81,0c0-35.17-21-65.74-52.18-81.86M117.62,86.8a8.59,8.59,0,1,1,8.6-8.58,8.59,8.59,0,0,1-8.6,8.58m93.26,0a8.59,8.59,0,1,1,8.57-8.58,8.58,8.58,0,0,1-8.57,8.58m-148.23,45,0,147.56a24.23,24.23,0,0,0,24.26,24.26h16.52l0,50.38a22.73,22.73,0,1,0,45.47,0V303.62h30.7V354a22.74,22.74,0,1,0,45.47,0V303.61h16.58a24.27,24.27,0,0,0,24.27-24.27l0-147.56Zm257.52,18.41a22.73,22.73,0,1,0-45.46,0l0,95.21a22.73,22.73,0,1,0,45.47,0Z"/> </g> </g></svg>