<svg xmlns="http://www.w3.org/2000/svg" viewBox="0 0 332.46 373.65"> <defs> <style>.cls-1{fill:#5e98cf;fill-rule:evenodd;}.cls-2{fill:#044e87;}.cls-3{fill:#0062a2;}.cls-4{fill:#fff;} </style> </defs> <g id="Layer_2" data-name="Layer 2"> <g id="Capa_1" data-name="Capa 1"> <path class="cls-1" d="M166.23,131.85A55,55,0,0,0,118.5,214.1l95.27-54.86A55,55,0,0,0,166.23,131.85Z"/> <path class="cls-1" d="M55.82,186.83a110.41,110.41,0,0,1,206-55.25l66.55-38.32a31.75,31.75,0,0,0-12-11.72Q250,43.26,183.54,5c-11.93-6.89-23.49-6.64-35.33.35C130.59,15.77,42.39,66.3,16.11,81.52,5.29,87.79,0,97.38,0,109.84q0,77,0,154a33.14,33.14,0,0,0,3.89,16.28l66.56-38.32A109.91,109.91,0,0,1,55.82,186.83Z"/> <path class="cls-2" d="M118.5,214.1a55,55,0,0,0,95.63-.32l-47.4-27.46Z"/> <path class="cls-2" d="M166.23,297.23a110.36,110.36,0,0,1-95.78-55.46L3.89,280.09a31.64,31.64,0,0,0,12.21,12c26.28,15.22,114.49,65.75,132.11,76.14,11.85,7,23.41,7.24,35.34.35q66.37-38.32,132.82-76.51a31.63,31.63,0,0,0,12.21-12l-66.46-38.5A110.37,110.37,0,0,1,166.23,297.23Z"/> <path class="cls-3" d="M332.44,109.85a33,33,0,0,0-4.06-16.6L166.74,186.33l161.83,93.75a33.19,33.19,0,0,0,3.88-16.28S332.46,161.18,332.44,109.85ZM277.4,193H264.75v12.65H252.1V193H239.46V180.38H252.1V167.74h12.65v12.65H277.4Zm46.14,0H310.9v12.65H298.25V193H285.6V180.38h12.64V167.74H310.9v12.65h12.65Z"/> <polygon class="cls-4" points="310.89 167.74 298.25 167.74 298.25 180.38 285.6 180.38 285.6 193.03 298.25 193.03 298.25 205.68 310.89 205.68 310.89 193.03 323.54 193.03 323.54 180.38 310.89 180.38 310.89 167.74"/> <polygon class="cls-4" points="264.75 167.74 252.1 167.74 252.1 180.38 239.46 180.38 239.46 193.03 252.1 193.03 252.1 205.68 264.75 205.68 264.75 193.03 277.4 193.03 277.4 180.38 264.75 180.38 264.75 167.74"/> <path class="cls-4" d="M214.13,213.78a55,55,0,1,1-.36-54.54l48.05-27.67a110.4,110.4,0,1,0,.29,110Z"/> </g> </g></svg>