<svg xmlns="http://www.w3.org/2000/svg" viewBox="0 0 222.18 222.18"><defs><style>.cls-1{fill:#f5de19;}</style></defs><title>Asset 1</title><g id="Layer_2" data-name="Layer 2"><g id="layer_1-2" data-name="layer 1"><g id="bubbles"><rect class="cls-1" width="222.18" height="222.18"/><path d="M149.25,173.58c4.48,7.31,10.3,12.68,20.6,12.68,8.65,0,14.18-4.32,14.18-10.3,0-7.16-5.68-9.69-15.2-13.86l-5.22-2.24c-15.07-6.42-25.07-14.46-25.07-31.46,0-15.66,11.93-27.58,30.58-27.58,13.27,0,22.82,4.62,29.69,16.72L182.54,128C179,121.56,175.1,119,169.1,119s-10,3.88-10,8.95c0,6.26,3.88,8.8,12.84,12.68l5.22,2.24c17.74,7.61,27.75,15.36,27.75,32.8,0,18.8-14.77,29.09-34.6,29.09-19.39,0-31.92-9.24-38-21.35Zm-73.75,1.81c3.28,5.82,6.26,10.74,13.44,10.74,6.86,0,11.19-2.68,11.19-13.12V102H121v71.27c0,21.62-12.67,31.46-31.18,31.46-16.72,0-26.4-8.65-31.32-19.07Z"/></g></g></g></svg>