<svg xmlns="http://www.w3.org/2000/svg" viewBox="0 0 41.07 39.65"><defs><style>.cls-1{fill:#be4834;fill-rule:evenodd;}</style></defs><title>Asset 1</title><g id="Layer_2" data-name="Layer 2"><g id="Layer_1-2" data-name="Layer 1"><path class="cls-1" d="M30.87,7.65c3.12,0,6.8.28,7.93.85v4c0,4,2.27,4.53,2.27,4.53v3.68a14.71,14.71,0,0,1-.57,4.25,20.91,20.91,0,0,0-7.08,3.4c-2.27,1.7-4.25,4.25-4.25,6.8a8.22,8.22,0,0,0,.85,4,7.51,7.51,0,0,1-3.12.57c-2.55-.28-5.38-2.27-7.08-5.38-2.27-4-3.4-8.78-5.95-8.78S11.33,28,9.35,28c-2.27,0-3.68-3.68-4.25-5.38C3.68,20.11.28,19.26,0,15.3H10.76V0H21V6.51a6.21,6.21,0,0,0,2.27.85l-1.13,5.1H19L17.84,17H21l-1.13,5.66a16,16,0,0,0,0,3.68,3.68,3.68,0,0,0,4,3.12A12.54,12.54,0,0,0,29.17,28l1.13-3.68h-2c-.57,0-1.13,0-.85-1.42L28.89,17H32l1.13-4.53H30l.85-4.82Z"/><polygon class="cls-1" points="24.64 9.35 28.61 9.35 25.49 24.08 21.53 24.08 24.64 9.35 24.64 9.35"/><path class="cls-1" d="M27.47,4a2.23,2.23,0,0,1,2.27,2.27,2.29,2.29,0,0,1-4.53,0A2.23,2.23,0,0,1,27.47,4Z"/></g></g></svg>